G04*
G04 #@! TF.GenerationSoftware,Altium Limited,Altium Designer,21.0.8 (223)*
G04*
G04 Layer_Color=16711935*
%FSTAX24Y24*%
%MOIN*%
G70*
G04*
G04 #@! TF.SameCoordinates,10F33D99-08B0-41F8-98B5-3503CEFC6C94*
G04*
G04*
G04 #@! TF.FilePolarity,Positive*
G04*
G01*
G75*
%ADD11C,0.0100*%
%ADD13C,0.0079*%
%ADD16C,0.0050*%
%ADD86C,0.0049*%
D11*
X02911Y049146D02*
G03*
X02911Y049146I-000591J0D01*
G01*
X022453Y047461D02*
G03*
X022453Y047461I-000591J0D01*
G01*
X019862D02*
G03*
X019862Y047461I-000591J0D01*
G01*
D13*
X013307Y050642D02*
X023736D01*
X02374Y049173D02*
Y050642D01*
X023354Y049173D02*
X023736D01*
X023354Y047205D02*
Y049173D01*
X027654Y04722D02*
Y050642D01*
X023354Y047205D02*
X027654D01*
Y050642D02*
X035748Y050642D01*
X013307Y050634D02*
X013307Y018032D01*
Y018031D02*
X035748Y018032D01*
X035748Y05063D02*
X035748Y018032D01*
D16*
X031559Y025213D02*
G03*
X031559Y025213I-001181J0D01*
G01*
X019819Y025213D02*
G03*
X019819Y025213I-001142J0D01*
G01*
X035413Y042362D02*
G03*
X035413Y042362I-001083J0D01*
G01*
X015807D02*
G03*
X015807Y042362I-001083J0D01*
G01*
D86*
X03402Y04D02*
X034335D01*
X03465D01*
X03402D02*
Y041327D01*
X03465Y04D02*
Y041327D01*
X015039Y04D02*
Y041326D01*
X014409Y04D02*
Y041326D01*
X014724Y04D02*
X015039D01*
X014409D02*
X014724D01*
M02*
