G04*
G04 #@! TF.GenerationSoftware,Altium Limited,Altium Designer,21.0.8 (223)*
G04*
G04 Layer_Color=8421504*
%FSTAX24Y24*%
%MOIN*%
G70*
G04*
G04 #@! TF.SameCoordinates,EFB7B91B-664B-4525-AB40-38F40083A00E*
G04*
G04*
G04 #@! TF.FilePolarity,Positive*
G04*
G01*
G75*
%ADD19R,0.0471X0.0471*%
%ADD20R,0.0471X0.0471*%
%ADD21R,0.0315X0.0354*%
%ADD22R,0.0335X0.0295*%
%ADD23R,0.0354X0.0315*%
%ADD24R,0.0827X0.0354*%
%ADD25R,0.0827X0.1260*%
%ADD26R,0.1024X0.0472*%
%ADD27R,0.0591X0.0630*%
%ADD28R,0.0866X0.0591*%
%ADD29R,0.0689X0.0433*%
%ADD30R,0.0394X0.0472*%
%ADD31R,0.0472X0.0984*%
%ADD32O,0.0197X0.1378*%
%ADD33R,0.0118X0.0610*%
%ADD34R,0.0295X0.0335*%
%ADD35R,0.0110X0.0315*%
%ADD36R,0.0315X0.0110*%
%ADD37O,0.0748X0.0236*%
%ADD38R,0.0453X0.0236*%
%ADD39R,0.0295X0.0276*%
%ADD40R,0.0236X0.0453*%
D19*
X024725Y030345D02*
D03*
X025275Y030893D02*
D03*
D20*
X024726Y030894D02*
D03*
X025274Y030343D02*
D03*
D21*
X029562Y034627D02*
D03*
X029011D02*
D03*
X031626Y03148D02*
D03*
X031075D02*
D03*
X03163Y030965D02*
D03*
X031079D02*
D03*
X034274Y031993D02*
D03*
X034825D02*
D03*
X024443Y037733D02*
D03*
X024994D02*
D03*
X029098Y033932D02*
D03*
X029649D02*
D03*
X032821Y037901D02*
D03*
X032269D02*
D03*
X02185Y030499D02*
D03*
X022402D02*
D03*
X022085Y031929D02*
D03*
X022637D02*
D03*
X027484Y02922D02*
D03*
X026933D02*
D03*
X024791Y025381D02*
D03*
X025342D02*
D03*
X024791Y026248D02*
D03*
X025342D02*
D03*
X024571Y032402D02*
D03*
X02402D02*
D03*
X022685Y029516D02*
D03*
X023236D02*
D03*
D22*
X02615Y033118D02*
D03*
Y032567D02*
D03*
X024429Y040978D02*
D03*
Y040427D02*
D03*
X023126D02*
D03*
Y040978D02*
D03*
X027035Y040427D02*
D03*
Y040978D02*
D03*
X025732D02*
D03*
Y040427D02*
D03*
X018913Y036815D02*
D03*
Y037366D02*
D03*
X029626Y030755D02*
D03*
Y031306D02*
D03*
X026795Y027704D02*
D03*
Y028255D02*
D03*
X025319Y027705D02*
D03*
Y027154D02*
D03*
X024776Y027705D02*
D03*
Y027154D02*
D03*
X023289Y027704D02*
D03*
Y028256D02*
D03*
X019657Y036811D02*
D03*
Y037362D02*
D03*
X020398Y036819D02*
D03*
Y03737D02*
D03*
D23*
X031082Y029562D02*
D03*
Y030113D02*
D03*
X031783Y029528D02*
D03*
Y030079D02*
D03*
X032269Y036264D02*
D03*
Y035713D02*
D03*
Y0368D02*
D03*
Y037352D02*
D03*
X030166Y031306D02*
D03*
Y030755D02*
D03*
X02772Y027705D02*
D03*
Y028256D02*
D03*
X026115Y027153D02*
D03*
Y027704D02*
D03*
X023945Y027153D02*
D03*
Y027704D02*
D03*
X022335Y028256D02*
D03*
Y027705D02*
D03*
D24*
X034872Y029294D02*
D03*
Y0302D02*
D03*
Y031105D02*
D03*
D25*
X032628Y0302D02*
D03*
D26*
X03482Y033981D02*
D03*
Y035044D02*
D03*
D27*
X03375Y032894D02*
D03*
X034813D02*
D03*
D28*
X034862Y035961D02*
D03*
X033209D02*
D03*
D29*
X034836Y038171D02*
D03*
Y036951D02*
D03*
D30*
X034843Y038916D02*
D03*
X033542D02*
D03*
X017691Y040043D02*
D03*
X018991D02*
D03*
D31*
X024764Y046203D02*
D03*
X025945D02*
D03*
D32*
X022173Y046557D02*
D03*
X020693D02*
D03*
X019213D02*
D03*
D33*
X025162Y036718D02*
D03*
X024906D02*
D03*
X02465D02*
D03*
X024395D02*
D03*
X024139D02*
D03*
X023883D02*
D03*
X023627D02*
D03*
X023371D02*
D03*
X023115D02*
D03*
X022859D02*
D03*
Y034513D02*
D03*
X023115D02*
D03*
X023371D02*
D03*
X023627D02*
D03*
X023883D02*
D03*
X024139D02*
D03*
X024395D02*
D03*
X02465D02*
D03*
X024906D02*
D03*
X025162D02*
D03*
D34*
X033858Y045748D02*
D03*
X033307D02*
D03*
X02748Y029854D02*
D03*
X026929D02*
D03*
X028429Y029898D02*
D03*
X02898D02*
D03*
X028376Y031981D02*
D03*
X028927D02*
D03*
X027425Y031504D02*
D03*
X026874D02*
D03*
X026929Y030481D02*
D03*
X02748D02*
D03*
D35*
X024311Y029634D02*
D03*
X024507D02*
D03*
X024704D02*
D03*
X024901D02*
D03*
X025098D02*
D03*
X025295D02*
D03*
X025491D02*
D03*
X025688D02*
D03*
Y031602D02*
D03*
X025491D02*
D03*
X025295D02*
D03*
X025098D02*
D03*
X024901D02*
D03*
X024704D02*
D03*
X024507D02*
D03*
X024311D02*
D03*
D36*
X025984Y029929D02*
D03*
Y030126D02*
D03*
Y030323D02*
D03*
Y03052D02*
D03*
Y030716D02*
D03*
Y030913D02*
D03*
Y03111D02*
D03*
Y031307D02*
D03*
X024015D02*
D03*
Y03111D02*
D03*
Y030913D02*
D03*
Y030716D02*
D03*
Y03052D02*
D03*
Y030323D02*
D03*
Y030126D02*
D03*
Y029929D02*
D03*
D37*
X029006Y038826D02*
D03*
Y038326D02*
D03*
Y037826D02*
D03*
Y037326D02*
D03*
Y036826D02*
D03*
Y036326D02*
D03*
Y035826D02*
D03*
Y035326D02*
D03*
X031053Y038826D02*
D03*
Y038326D02*
D03*
Y037826D02*
D03*
Y037326D02*
D03*
Y036826D02*
D03*
Y036326D02*
D03*
Y035826D02*
D03*
Y035326D02*
D03*
D38*
X028968Y030572D02*
D03*
Y03132D02*
D03*
X028082Y030946D02*
D03*
D39*
X022627Y031011D02*
D03*
X021859D02*
D03*
Y031405D02*
D03*
X022627D02*
D03*
D40*
X019642Y038045D02*
D03*
X02039D02*
D03*
X020016Y038931D02*
D03*
M02*
