G04*
G04 #@! TF.GenerationSoftware,Altium Limited,Altium Designer,21.0.8 (223)*
G04*
G04 Layer_Physical_Order=2*
G04 Layer_Color=36540*
%FSTAX24Y24*%
%MOIN*%
G70*
G04*
G04 #@! TF.SameCoordinates,D94166DE-144D-4B7D-845D-6ED18FE10B1D*
G04*
G04*
G04 #@! TF.FilePolarity,Positive*
G04*
G01*
G75*
%ADD97R,0.0787X0.0787*%
%ADD100C,0.0197*%
G36*
X074213Y065197D02*
Y065192D01*
X07422Y065173D01*
X074239Y065165D01*
X075322D01*
X075345Y065125D01*
X075359Y065086D01*
X07533Y065015D01*
Y064929D01*
X075363Y064849D01*
X075424Y064788D01*
X075503Y064755D01*
X075589D01*
X075669Y064788D01*
X07568Y0648D01*
X075759Y064767D01*
Y064588D01*
X07568Y064556D01*
X075675Y064561D01*
X075595Y064594D01*
X075509D01*
X07543Y064561D01*
X075369Y0645D01*
X075336Y06442D01*
Y064334D01*
X075369Y064255D01*
X07543Y064194D01*
X075509Y064161D01*
X075595D01*
X075675Y064194D01*
X07568Y064199D01*
X075759Y064167D01*
Y063905D01*
X07568Y063873D01*
X075669Y063884D01*
X075589Y063917D01*
X075503D01*
X075424Y063884D01*
X075363Y063823D01*
X07533Y063743D01*
Y063657D01*
X075363Y063578D01*
X075424Y063517D01*
X075467Y063499D01*
Y063414D01*
X075449Y063406D01*
X075388Y063345D01*
X075355Y063266D01*
Y063179D01*
X075388Y0631D01*
X075449Y063039D01*
X075529Y063006D01*
X075615D01*
X07568Y063033D01*
X075732Y063011D01*
X075759Y062992D01*
Y062884D01*
X075732Y062864D01*
X07568Y062843D01*
X075615Y06287D01*
X075529D01*
X075449Y062837D01*
X075388Y062776D01*
X075355Y062696D01*
Y06261D01*
X075388Y06253D01*
X075449Y062469D01*
X075529Y062436D01*
X075615D01*
X07568Y062463D01*
X075732Y062442D01*
X075759Y062422D01*
Y062045D01*
X075828Y061975D01*
X075791Y061901D01*
X075732D01*
X075652Y061868D01*
X075634Y06185D01*
X075572Y061876D01*
X075558Y061886D01*
X075544Y061997D01*
X075499Y062105D01*
X075428Y062197D01*
X075336Y062268D01*
X075228Y062313D01*
X075112Y062328D01*
X075012D01*
X074896Y062313D01*
X074789Y062268D01*
X074696Y062197D01*
X074625Y062105D01*
X07458Y061997D01*
X074565Y061881D01*
X07458Y061766D01*
X074625Y061658D01*
X074696Y061565D01*
X074789Y061494D01*
X074896Y06145D01*
X075012Y061434D01*
X075112D01*
X075228Y06145D01*
X075336Y061494D01*
X075428Y061565D01*
X075482Y061635D01*
X075501Y061637D01*
X075561Y061625D01*
X075566Y061622D01*
X075591Y061562D01*
X075652Y061501D01*
X075732Y061468D01*
X075818D01*
X075897Y061501D01*
X075958Y061562D01*
X075991Y061641D01*
Y061701D01*
X076066Y061738D01*
X076255Y061549D01*
X076218Y061475D01*
X076158D01*
X076079Y061442D01*
X076018Y061381D01*
X075985Y061301D01*
Y061215D01*
X076018Y061135D01*
X076079Y061074D01*
X076158Y061041D01*
X076244D01*
X076324Y061074D01*
X076385Y061135D01*
X076418Y061215D01*
Y061275D01*
X076492Y061312D01*
X076681Y061122D01*
X076644Y061048D01*
X076585D01*
X076505Y061015D01*
X076444Y060954D01*
X076411Y060875D01*
Y060788D01*
X076444Y060709D01*
X076505Y060648D01*
X076585Y060615D01*
X076671D01*
X07675Y060648D01*
X076811Y060709D01*
X076844Y060788D01*
Y060848D01*
X076919Y060885D01*
X077108Y060696D01*
X077071Y060622D01*
X077011D01*
X076932Y060589D01*
X076871Y060528D01*
X076838Y060448D01*
Y060362D01*
X076871Y060282D01*
X076926Y060227D01*
X076932Y060217D01*
X076936Y060134D01*
X076902Y0601D01*
X076869Y060021D01*
Y059935D01*
X076902Y059855D01*
X076963Y059794D01*
X077018Y059771D01*
Y059689D01*
X076963Y059666D01*
X076902Y059605D01*
X076869Y059525D01*
Y059439D01*
X076902Y059359D01*
X076963Y059298D01*
X077018Y059275D01*
Y059193D01*
X076963Y05917D01*
X076902Y059109D01*
X076869Y059029D01*
Y058943D01*
X076902Y058864D01*
X076963Y058803D01*
X077018Y05878D01*
Y058697D01*
X076963Y058674D01*
X076902Y058613D01*
X076869Y058533D01*
Y058447D01*
X076902Y058368D01*
X076963Y058307D01*
X077018Y058284D01*
Y058201D01*
X076963Y058178D01*
X076902Y058117D01*
X076869Y058038D01*
Y057951D01*
X076902Y057872D01*
X076963Y057811D01*
X077018Y057788D01*
Y057705D01*
X076963Y057682D01*
X076902Y057621D01*
X076869Y057542D01*
Y057456D01*
X076902Y057376D01*
X076963Y057315D01*
X077018Y057292D01*
Y057209D01*
X076963Y057186D01*
X076902Y057126D01*
X076869Y057046D01*
Y05696D01*
X076902Y05688D01*
X076963Y056819D01*
X077018Y056796D01*
Y056714D01*
X076963Y056691D01*
X076902Y05663D01*
X076869Y05655D01*
Y056464D01*
X076902Y056384D01*
X076963Y056324D01*
X077018Y056301D01*
Y056218D01*
X076963Y056195D01*
X076902Y056134D01*
X076869Y056054D01*
Y055968D01*
X076902Y055889D01*
X076963Y055828D01*
X077043Y055795D01*
X077129D01*
X077208Y055828D01*
X077269Y055889D01*
X077285Y055925D01*
X077375Y055946D01*
X077383Y055938D01*
X077826D01*
X077873Y05586D01*
X077855Y055818D01*
Y055732D01*
X077888Y055652D01*
X077949Y055592D01*
X078029Y055559D01*
X078115D01*
X078151Y055573D01*
X078226Y055542D01*
X078234Y055529D01*
X078262Y055461D01*
X078323Y0554D01*
X078363Y055383D01*
X07843Y05534D01*
Y055254D01*
X078427Y055249D01*
X078403D01*
X078323Y055216D01*
X078262Y055155D01*
X078229Y055076D01*
Y05499D01*
X078262Y05491D01*
X078323Y054849D01*
X078363Y054833D01*
X07843Y054789D01*
Y054703D01*
X078427Y054699D01*
X078403D01*
X078323Y054666D01*
X078262Y054605D01*
X078229Y054525D01*
Y054439D01*
X078262Y05436D01*
X078323Y054299D01*
X078363Y054282D01*
X07843Y054238D01*
Y054152D01*
X078427Y054148D01*
X078403D01*
X078323Y054115D01*
X078262Y054054D01*
X078229Y053975D01*
Y053888D01*
X078262Y053809D01*
X078323Y053748D01*
X078363Y053731D01*
X07843Y053688D01*
Y053602D01*
X078427Y053597D01*
X078403D01*
X078323Y053564D01*
X078262Y053503D01*
X078229Y053424D01*
Y053338D01*
X07819Y053279D01*
X078148D01*
X078113Y053265D01*
X078086Y053238D01*
X078072Y053203D01*
Y052239D01*
X078022Y052218D01*
X077961Y052158D01*
X077928Y052078D01*
Y051992D01*
X077959Y051917D01*
X077951Y05191D01*
X077918Y05183D01*
Y051759D01*
X077854D01*
X077774Y051726D01*
X077713Y051665D01*
X077706Y051647D01*
X077122D01*
Y051647D01*
X077072D01*
X076999Y051617D01*
X07692Y051653D01*
Y052214D01*
X076003D01*
Y050183D01*
X07692D01*
Y050786D01*
X076999Y050827D01*
X077057Y050803D01*
X07834Y050803D01*
X07839Y050753D01*
X07847Y05072D01*
X078556D01*
X078636Y050753D01*
X078685Y050803D01*
X078781D01*
Y050803D01*
X078823D01*
X078899Y050834D01*
X078958Y050893D01*
X07899Y05097D01*
Y0512D01*
X07899Y0512D01*
X079071Y05121D01*
X079132Y051149D01*
X079212Y051116D01*
X079264D01*
X079318Y051055D01*
X079322Y051043D01*
Y050964D01*
X079355Y050885D01*
X079416Y050824D01*
X079495Y050791D01*
X079582D01*
X079661Y050824D01*
X079722Y050885D01*
X079755Y050964D01*
Y050994D01*
X079825Y051064D01*
X079847Y051064D01*
X07986Y051047D01*
X079861Y051043D01*
Y05096D01*
X079894Y050881D01*
X079955Y05082D01*
X080035Y050787D01*
X080121D01*
X0802Y05082D01*
X080261Y050881D01*
X080294Y05096D01*
Y051043D01*
X080296Y051048D01*
X080313Y051069D01*
X080365Y051071D01*
X080432Y051001D01*
Y050968D01*
X080465Y050889D01*
X080526Y050828D01*
X080606Y050795D01*
X080692D01*
X080771Y050828D01*
X080832Y050889D01*
X080865Y050968D01*
Y051054D01*
X080925Y051116D01*
X08095D01*
X081029Y051149D01*
X08109Y05121D01*
X081123Y051289D01*
X081152Y051319D01*
X081239Y0513D01*
X081241Y051295D01*
Y051289D01*
X081274Y05121D01*
X081335Y051149D01*
X081414Y051116D01*
X0815D01*
X08158Y051149D01*
X081641Y05121D01*
X081674Y051289D01*
Y051295D01*
X08169Y051348D01*
X081776D01*
X081849Y051378D01*
X081883Y051366D01*
X081927Y051342D01*
X081927Y037501D01*
X081848Y037486D01*
X081844Y037495D01*
X081783Y037556D01*
X081704Y037589D01*
X081617D01*
X081538Y037556D01*
X081477Y037495D01*
X081444Y037415D01*
Y037329D01*
X081477Y03725D01*
X081491Y037235D01*
X081534Y037184D01*
X081491Y037132D01*
X081477Y037118D01*
X081444Y037039D01*
Y036952D01*
X081477Y036873D01*
X081538Y036812D01*
X081617Y036779D01*
X081704D01*
X081783Y036812D01*
X081844Y036873D01*
X081848Y036882D01*
X081927Y036866D01*
X081926Y034018D01*
X081854Y033987D01*
X08183Y034011D01*
X081058D01*
X081054Y034007D01*
X081031Y033988D01*
X080928Y033885D01*
Y03374D01*
X080849Y033707D01*
X080791Y033766D01*
X080781Y033773D01*
X080773Y033781D01*
X08064Y033869D01*
X080629Y033874D01*
X08062Y033881D01*
X080473Y033941D01*
X080461Y033944D01*
X08045Y033948D01*
X080294Y033979D01*
X080282D01*
X080271Y033982D01*
X080112D01*
X0801Y033979D01*
X080088D01*
X079932Y033948D01*
X079921Y033944D01*
X07991Y033941D01*
X079763Y033881D01*
X079753Y033874D01*
X079742Y033869D01*
X07961Y033781D01*
X079601Y033773D01*
X079591Y033766D01*
X079479Y033654D01*
X079472Y033644D01*
X079464Y033635D01*
X079376Y033503D01*
X079371Y033492D01*
X079365Y033482D01*
X079304Y033336D01*
X079301Y033324D01*
X079297Y033313D01*
X079266Y033157D01*
Y033145D01*
X079264Y033134D01*
Y032975D01*
X079266Y032963D01*
Y032951D01*
X079297Y032795D01*
X079301Y032784D01*
X079304Y032773D01*
X079365Y032626D01*
X079371Y032616D01*
X079376Y032605D01*
X079464Y032473D01*
X079472Y032464D01*
X079479Y032454D01*
X079591Y032342D01*
X079601Y032335D01*
X07961Y032327D01*
X079742Y032239D01*
X079753Y032234D01*
X079763Y032228D01*
X07991Y032167D01*
X079921Y032164D01*
X079932Y03216D01*
X080088Y032129D01*
X0801D01*
X080112Y032127D01*
X080271D01*
X080282Y032129D01*
X080294D01*
X08045Y03216D01*
X080461Y032164D01*
X080473Y032167D01*
X08062Y032228D01*
X080629Y032234D01*
X08064Y032239D01*
X080773Y032327D01*
X080781Y032335D01*
X080791Y032342D01*
X080903Y032454D01*
X08091Y032464D01*
X080918Y032473D01*
X081006Y032605D01*
X081011Y032616D01*
X081018Y032626D01*
X081078Y032773D01*
X081081Y032784D01*
X081085Y032795D01*
X081116Y032951D01*
Y032963D01*
X081119Y032975D01*
Y033134D01*
X081151Y033178D01*
X081188Y0332D01*
X081848D01*
X081926Y033139D01*
X081926Y030332D01*
X081926Y030331D01*
Y030045D01*
X081899Y029945D01*
X081839Y029799D01*
X08176Y029662D01*
X081664Y029537D01*
X081552Y029425D01*
X081427Y029329D01*
X08129Y02925D01*
X081144Y02919D01*
X080991Y029149D01*
X080835Y029128D01*
X080756Y029128D01*
X080168D01*
X080168Y030372D01*
X080168Y030409D01*
X08017Y030413D01*
X080162Y030432D01*
X080143Y03044D01*
X080143Y03044D01*
X080096Y03044D01*
X07228D01*
X072233Y03044D01*
X072233Y03044D01*
X072215Y030432D01*
X072207Y030413D01*
X072207Y030413D01*
X072207Y030372D01*
Y02916D01*
X070266D01*
Y030571D01*
X070266Y030572D01*
X070266Y030572D01*
X070267Y030572D01*
X070254Y03071D01*
X070212Y030846D01*
X070145Y030972D01*
X070055Y031082D01*
X069944Y031173D01*
X069819Y03124D01*
X069682Y031281D01*
X069602Y031289D01*
X06954Y031295D01*
X069526Y031294D01*
X069448Y031294D01*
X066583D01*
Y033448D01*
X066633Y033482D01*
X066719D01*
X066799Y033515D01*
X06686Y033575D01*
X066893Y033655D01*
Y033741D01*
X06686Y033821D01*
X066799Y033882D01*
X066795Y033883D01*
X066811Y033962D01*
X067155D01*
Y034513D01*
Y035064D01*
X066722D01*
Y034502D01*
X066719Y0345D01*
X066633D01*
X066583Y034533D01*
Y035789D01*
X066633Y035822D01*
X066719D01*
X066799Y035855D01*
X06686Y035916D01*
X066893Y035996D01*
Y036059D01*
X066942Y036092D01*
X066955Y036097D01*
X066966Y0361D01*
X067076Y036036D01*
X067206Y036001D01*
X067341D01*
X067471Y036036D01*
X067588Y036104D01*
X067683Y036199D01*
X06775Y036316D01*
X067785Y036446D01*
Y036581D01*
X06775Y036711D01*
X067683Y036828D01*
X067588Y036923D01*
X067471Y03699D01*
X067341Y037025D01*
X067206D01*
X067076Y03699D01*
X066959Y036923D01*
X066864Y036828D01*
X066857Y036815D01*
X066799Y036808D01*
X066719Y036841D01*
X066633D01*
X066583Y036874D01*
Y03696D01*
X066633Y036993D01*
X066719D01*
X066799Y037026D01*
X06686Y037087D01*
X066893Y037166D01*
Y037252D01*
X06686Y037332D01*
X066799Y037393D01*
X066719Y037426D01*
X066633D01*
X066583Y037459D01*
Y037545D01*
X066633Y037578D01*
X066719D01*
X066799Y037611D01*
X06686Y037672D01*
X066893Y037751D01*
Y037838D01*
X06686Y037917D01*
X066799Y037978D01*
X066719Y038011D01*
X066633D01*
X066583Y038044D01*
Y03813D01*
X066633Y038163D01*
X066719D01*
X066799Y038196D01*
X066821Y038219D01*
X066849Y038191D01*
X066929Y038158D01*
X067015D01*
X067094Y038191D01*
X067153Y03825D01*
X067211Y038191D01*
X067291Y038158D01*
X067377D01*
X067457Y038191D01*
X067518Y038252D01*
X067551Y038332D01*
Y038418D01*
X067518Y038497D01*
X067457Y038558D01*
X067377Y038591D01*
X067291D01*
X067211Y038558D01*
X067153Y0385D01*
X067094Y038558D01*
X067015Y038591D01*
X066929D01*
X066849Y038558D01*
X066827Y038536D01*
X066799Y038563D01*
X066719Y038596D01*
X066633D01*
X066583Y038629D01*
Y039504D01*
X066662Y039557D01*
X066673Y039552D01*
X066759D01*
X066838Y039585D01*
X066875Y039622D01*
X066916Y039581D01*
X066996Y039548D01*
X067082D01*
X067161Y039581D01*
X067164Y039584D01*
X067237Y039614D01*
X067267Y039584D01*
X067298Y039553D01*
X067378Y03952D01*
X067464D01*
X067543Y039553D01*
X067604Y039614D01*
X067637Y039694D01*
Y03978D01*
X067604Y03986D01*
X067543Y03992D01*
X067464Y039953D01*
X067378D01*
X067298Y03992D01*
X067295Y039917D01*
X067222Y039887D01*
X067192Y039917D01*
X067161Y039948D01*
X067082Y039981D01*
X066996D01*
X066916Y039948D01*
X066879Y039911D01*
X066838Y039953D01*
X066759Y039986D01*
X066673D01*
X066611Y040033D01*
Y040085D01*
X06665Y040115D01*
X066678Y040132D01*
X066759D01*
X066838Y040165D01*
X066899Y040226D01*
X066932Y040306D01*
Y040392D01*
X066899Y040472D01*
X066838Y040532D01*
X066759Y040565D01*
X066673D01*
X066611Y040613D01*
Y040665D01*
X06665Y040695D01*
X066678Y040712D01*
X066759D01*
X066838Y040745D01*
X066899Y040806D01*
X066932Y040886D01*
Y040972D01*
X066899Y041051D01*
X066838Y041112D01*
X066759Y041145D01*
X066673D01*
X066611Y041193D01*
Y041244D01*
X06665Y041274D01*
X066678Y041292D01*
X066759D01*
X066838Y041325D01*
X066899Y041386D01*
X066932Y041465D01*
Y041552D01*
X066899Y041631D01*
X066838Y041692D01*
X066759Y041725D01*
X066673D01*
X066611Y041773D01*
Y041824D01*
X06665Y041854D01*
X066678Y041872D01*
X066759D01*
X066838Y041905D01*
X066899Y041966D01*
X066932Y042045D01*
Y042131D01*
X066899Y042211D01*
X066838Y042272D01*
X066759Y042305D01*
X066673D01*
X066611Y042353D01*
Y042404D01*
X06665Y042434D01*
X066678Y042452D01*
X066759D01*
X066838Y042485D01*
X066899Y042546D01*
X066932Y042625D01*
Y042711D01*
X066899Y042791D01*
X066838Y042852D01*
X066759Y042885D01*
X066673D01*
X066611Y042932D01*
Y042984D01*
X06665Y043014D01*
X066678Y043032D01*
X066759D01*
X066838Y043065D01*
X066899Y043125D01*
X066932Y043205D01*
Y043291D01*
X066899Y043371D01*
X066838Y043432D01*
X066759Y043465D01*
X066673D01*
X066611Y043512D01*
Y043564D01*
X06665Y043594D01*
X066678Y043611D01*
X066759D01*
X066838Y043644D01*
X066899Y043705D01*
X066932Y043785D01*
Y043871D01*
X066899Y043951D01*
X066838Y044012D01*
X066759Y044044D01*
X066673D01*
X066611Y044092D01*
Y044144D01*
X06665Y044174D01*
X066678Y044191D01*
X066759D01*
X066838Y044224D01*
X066899Y044285D01*
X066932Y044365D01*
Y044451D01*
X066899Y04453D01*
X066838Y044591D01*
X066759Y044624D01*
X066673D01*
X066611Y044672D01*
Y044724D01*
X06665Y044753D01*
X066678Y044771D01*
X066759D01*
X066838Y044804D01*
X066899Y044865D01*
X066932Y044945D01*
Y045031D01*
X066899Y04511D01*
X066838Y045171D01*
X066759Y045204D01*
X066673D01*
X066593Y045171D01*
X066525Y045182D01*
X066479Y045244D01*
Y04533D01*
X066446Y04541D01*
X066385Y04547D01*
X066306Y045503D01*
X06622D01*
X06614Y04547D01*
X066079Y04541D01*
X066046Y04533D01*
Y045244D01*
X066049Y045237D01*
X065996Y045158D01*
X065874D01*
X065822Y045237D01*
X065824Y045244D01*
Y04533D01*
X065791Y04541D01*
X06573Y04547D01*
X065651Y045503D01*
X065565D01*
X065485Y04547D01*
X065424Y04541D01*
X065391Y04533D01*
Y045244D01*
X065394Y045237D01*
X065341Y045158D01*
X065219D01*
X065166Y045237D01*
X065169Y045244D01*
Y04533D01*
X065136Y04541D01*
X065075Y04547D01*
X064996Y045503D01*
X06491D01*
X06483Y04547D01*
X064769Y04541D01*
X064736Y04533D01*
Y045244D01*
X064739Y045237D01*
X064686Y045158D01*
X064564D01*
X064511Y045237D01*
X064514Y045244D01*
Y04533D01*
X064481Y04541D01*
X06442Y04547D01*
X064341Y045503D01*
X064255D01*
X064175Y04547D01*
X064114Y04541D01*
X064081Y04533D01*
Y045244D01*
X064084Y045237D01*
X064031Y045158D01*
X063909D01*
X063856Y045237D01*
X063859Y045244D01*
Y04533D01*
X063826Y04541D01*
X063765Y04547D01*
X063686Y045503D01*
X0636D01*
X06352Y04547D01*
X063459Y04541D01*
X063426Y04533D01*
Y045244D01*
X063429Y045237D01*
X063376Y045158D01*
X063254D01*
X063201Y045237D01*
X063204Y045244D01*
Y04533D01*
X063171Y04541D01*
X06311Y04547D01*
X063031Y045503D01*
X062944D01*
X062865Y04547D01*
X062812Y045417D01*
X062797Y045409D01*
X062718Y045408D01*
X062683Y045443D01*
X062604Y045476D01*
X062518D01*
X062438Y045443D01*
X062377Y045382D01*
X062344Y045302D01*
Y045216D01*
X062306Y045158D01*
X062161D01*
X062122Y045216D01*
Y045302D01*
X062089Y045382D01*
X062028Y045443D01*
X061949Y045476D01*
X061863D01*
X061783Y045443D01*
X061722Y045382D01*
X061689Y045302D01*
Y045216D01*
X061651Y045158D01*
X061506D01*
X061467Y045216D01*
Y045302D01*
X061434Y045382D01*
X061373Y045443D01*
X061315Y045467D01*
X061296Y045532D01*
X061297Y045553D01*
X06131Y045562D01*
X061381Y045655D01*
X061425Y045763D01*
X06144Y045878D01*
X061425Y045994D01*
X061381Y046102D01*
X06131Y046194D01*
X061217Y046265D01*
X061109Y04631D01*
X060993Y046325D01*
X060893D01*
X060778Y04631D01*
X06067Y046265D01*
X060577Y046194D01*
X060506Y046102D01*
X060462Y045994D01*
X060447Y045878D01*
X060462Y045763D01*
X060506Y045655D01*
X060577Y045562D01*
X060588Y045555D01*
X060561Y045476D01*
X060553D01*
X060473Y045443D01*
X060412Y045382D01*
X060379Y045302D01*
Y045216D01*
X06034Y045158D01*
X06025D01*
Y064011D01*
X06025Y064012D01*
X060264Y064191D01*
X060306Y064368D01*
X060375Y064535D01*
X06047Y06469D01*
X060588Y064827D01*
X060726Y064945D01*
X06088Y06504D01*
X061048Y065109D01*
X061224Y065152D01*
X061328Y06516D01*
X061405Y065165D01*
D01*
X061413Y065165D01*
X063884D01*
X063886Y065166D01*
X064011Y065149D01*
X064131Y0651D01*
X064234Y065021D01*
X064313Y064918D01*
X064363Y064798D01*
X064371Y064741D01*
X064379Y064666D01*
X064379Y064666D01*
X064379Y064666D01*
X064379Y064588D01*
Y0632D01*
X064379Y063125D01*
X064379Y063124D01*
X064379Y063124D01*
X064379Y063123D01*
X06438Y063123D01*
X06439Y063047D01*
X064425Y062962D01*
X064481Y062888D01*
X064554Y062832D01*
X06464Y062797D01*
X064683Y062791D01*
X064693Y062787D01*
X064706D01*
X064706Y062787D01*
X064706Y062787D01*
X067457D01*
X067533Y062787D01*
X067533Y062787D01*
X067534Y062787D01*
Y062787D01*
X067535Y062787D01*
X06761Y062797D01*
X067695Y062833D01*
X067769Y062889D01*
X067825Y062962D01*
X06786Y063047D01*
X067868Y063109D01*
X06787Y063114D01*
Y064851D01*
X067897Y064917D01*
X067954Y065003D01*
X068028Y065077D01*
X068114Y065135D01*
X068209Y065176D01*
X068311Y065197D01*
X068363Y065197D01*
X068365Y065197D01*
X074213Y065197D01*
D02*
G37*
%LPC*%
G36*
X07427Y063606D02*
X074184D01*
X074105Y063573D01*
X074044Y063512D01*
X074011Y063432D01*
Y063346D01*
X074044Y063267D01*
X074105Y063206D01*
X074184Y063173D01*
X07427D01*
X07435Y063206D01*
X074411Y063267D01*
X074444Y063346D01*
Y063432D01*
X074411Y063512D01*
X07435Y063573D01*
X07427Y063606D01*
D02*
G37*
G36*
X071129Y063485D02*
X071043D01*
X070963Y063452D01*
X070902Y063392D01*
X070869Y063312D01*
Y063226D01*
X070902Y063146D01*
X070963Y063085D01*
X071043Y063052D01*
X071129D01*
X071208Y063085D01*
X071269Y063146D01*
X071302Y063226D01*
Y063312D01*
X071269Y063392D01*
X071208Y063452D01*
X071129Y063485D01*
D02*
G37*
G36*
X072467Y063342D02*
X072381D01*
X072302Y063309D01*
X072241Y063248D01*
X072208Y063169D01*
Y063082D01*
X072241Y063003D01*
X072302Y062942D01*
X072381Y062909D01*
X072467D01*
X072547Y062942D01*
X072608Y063003D01*
X072641Y063082D01*
Y063169D01*
X072608Y063248D01*
X072547Y063309D01*
X072467Y063342D01*
D02*
G37*
G36*
X069963D02*
X069877D01*
X069798Y063309D01*
X069737Y063248D01*
X069704Y063169D01*
Y063082D01*
X069737Y063003D01*
X069798Y062942D01*
X069877Y062909D01*
X069963D01*
X070043Y062942D01*
X070104Y063003D01*
X070137Y063082D01*
Y063169D01*
X070104Y063248D01*
X070043Y063309D01*
X069963Y063342D01*
D02*
G37*
G36*
X062068Y064296D02*
X061917D01*
X061905Y064294D01*
X061893D01*
X061745Y064264D01*
X061734Y06426D01*
X061722Y064257D01*
X061582Y0642D01*
X061573Y064193D01*
X061562Y064188D01*
X061436Y064104D01*
X061427Y064096D01*
X061418Y06409D01*
X061311Y063983D01*
X061304Y063973D01*
X061296Y063964D01*
X061212Y063839D01*
X061207Y063828D01*
X061201Y063818D01*
X061143Y063678D01*
X06114Y063666D01*
X061136Y063655D01*
X061106Y063507D01*
Y063495D01*
X061104Y063484D01*
Y063332D01*
X061106Y063321D01*
Y063309D01*
X061136Y063161D01*
X06114Y06315D01*
X061143Y063138D01*
X061201Y062998D01*
X061207Y062988D01*
X061212Y062977D01*
X061296Y062852D01*
X061304Y062843D01*
X061311Y062833D01*
X061418Y062727D01*
X061427Y06272D01*
X061436Y062712D01*
X061562Y062628D01*
X061573Y062623D01*
X061582Y062616D01*
X061722Y062559D01*
X061734Y062556D01*
X061745Y062552D01*
X061893Y062522D01*
X061905D01*
X061917Y06252D01*
X062068D01*
X062079Y062522D01*
X062091D01*
X06224Y062552D01*
X062251Y062556D01*
X062262Y062559D01*
X062402Y062616D01*
X062412Y062623D01*
X062423Y062628D01*
X062548Y062712D01*
X062557Y06272D01*
X062567Y062727D01*
X062674Y062833D01*
X06268Y062843D01*
X062689Y062852D01*
X062773Y062977D01*
X062777Y062988D01*
X062784Y062998D01*
X062842Y063138D01*
X062844Y06315D01*
X062848Y063161D01*
X062878Y063309D01*
Y063321D01*
X06288Y063332D01*
Y063484D01*
X062878Y063495D01*
Y063507D01*
X062848Y063655D01*
X062844Y063666D01*
X062842Y063678D01*
X062784Y063818D01*
X062777Y063828D01*
X062773Y063839D01*
X062689Y063964D01*
X06268Y063973D01*
X062674Y063983D01*
X062567Y06409D01*
X062557Y064096D01*
X062548Y064104D01*
X062423Y064188D01*
X062412Y064193D01*
X062402Y0642D01*
X062262Y064257D01*
X062251Y06426D01*
X06224Y064264D01*
X062091Y064294D01*
X062079D01*
X062068Y064296D01*
D02*
G37*
G36*
X069594Y062015D02*
X069508D01*
X069429Y061982D01*
X069368Y061921D01*
X069335Y061842D01*
Y061756D01*
X069368Y061676D01*
X069429Y061615D01*
X069508Y061582D01*
X069594D01*
X069674Y061615D01*
X069735Y061676D01*
X069768Y061756D01*
Y061842D01*
X069735Y061921D01*
X069674Y061982D01*
X069594Y062015D01*
D02*
G37*
G36*
X068365D02*
X068279D01*
X068199Y061982D01*
X068138Y061921D01*
X068105Y061842D01*
Y061756D01*
X068138Y061676D01*
X068199Y061615D01*
X068279Y061582D01*
X068365D01*
X068444Y061615D01*
X068505Y061676D01*
X068538Y061756D01*
Y061842D01*
X068505Y061921D01*
X068444Y061982D01*
X068365Y062015D01*
D02*
G37*
G36*
X067135D02*
X067049D01*
X066969Y061982D01*
X066908Y061921D01*
X066875Y061842D01*
Y061756D01*
X066908Y061676D01*
X066969Y061615D01*
X067049Y061582D01*
X067135D01*
X067215Y061615D01*
X067276Y061676D01*
X067309Y061756D01*
Y061842D01*
X067276Y061921D01*
X067215Y061982D01*
X067135Y062015D01*
D02*
G37*
G36*
X065905D02*
X065819D01*
X06574Y061982D01*
X065679Y061921D01*
X065646Y061842D01*
Y061756D01*
X065679Y061676D01*
X06574Y061615D01*
X065819Y061582D01*
X065905D01*
X065985Y061615D01*
X066046Y061676D01*
X066079Y061756D01*
Y061842D01*
X066046Y061921D01*
X065985Y061982D01*
X065905Y062015D01*
D02*
G37*
G36*
X064676D02*
X06459D01*
X06451Y061982D01*
X064449Y061921D01*
X064416Y061842D01*
Y061756D01*
X064449Y061676D01*
X06451Y061615D01*
X06459Y061582D01*
X064676D01*
X064755Y061615D01*
X064816Y061676D01*
X064849Y061756D01*
Y061842D01*
X064816Y061921D01*
X064755Y061982D01*
X064676Y062015D01*
D02*
G37*
G36*
X063446D02*
X06336D01*
X063281Y061982D01*
X06322Y061921D01*
X063187Y061842D01*
Y061756D01*
X06322Y061676D01*
X063281Y061615D01*
X06336Y061582D01*
X063446D01*
X063526Y061615D01*
X063587Y061676D01*
X06362Y061756D01*
Y061842D01*
X063587Y061921D01*
X063526Y061982D01*
X063446Y062015D01*
D02*
G37*
G36*
X062217D02*
X06213D01*
X062051Y061982D01*
X06199Y061921D01*
X061957Y061842D01*
Y061756D01*
X06199Y061676D01*
X062051Y061615D01*
X06213Y061582D01*
X062217D01*
X062296Y061615D01*
X062357Y061676D01*
X06239Y061756D01*
Y061842D01*
X062357Y061921D01*
X062296Y061982D01*
X062217Y062015D01*
D02*
G37*
G36*
X060987D02*
X060901D01*
X060821Y061982D01*
X06076Y061921D01*
X060727Y061842D01*
Y061756D01*
X06076Y061676D01*
X060821Y061615D01*
X060901Y061582D01*
X060987D01*
X061067Y061615D01*
X061128Y061676D01*
X06116Y061756D01*
Y061842D01*
X061128Y061921D01*
X061067Y061982D01*
X060987Y062015D01*
D02*
G37*
G36*
X075112Y061318D02*
X075012D01*
X074896Y061303D01*
X074789Y061258D01*
X074696Y061187D01*
X074625Y061095D01*
X07458Y060987D01*
X074565Y060871D01*
X07458Y060756D01*
X074625Y060648D01*
X074696Y060555D01*
X074789Y060484D01*
X074896Y06044D01*
X075012Y060424D01*
X075112D01*
X075228Y06044D01*
X075336Y060484D01*
X075428Y060555D01*
X075499Y060648D01*
X075544Y060756D01*
X075559Y060871D01*
X075544Y060987D01*
X075499Y061095D01*
X075428Y061187D01*
X075336Y061258D01*
X075228Y061303D01*
X075112Y061318D01*
D02*
G37*
G36*
X068365Y060629D02*
X068279D01*
X068199Y060596D01*
X068138Y060536D01*
X068105Y060456D01*
Y06037D01*
X068138Y06029D01*
X068199Y060229D01*
X068279Y060196D01*
X068365D01*
X068444Y060229D01*
X068505Y06029D01*
X068538Y06037D01*
Y060456D01*
X068505Y060536D01*
X068444Y060596D01*
X068365Y060629D01*
D02*
G37*
G36*
X067135D02*
X067049D01*
X066969Y060596D01*
X066908Y060536D01*
X066875Y060456D01*
Y06037D01*
X066908Y06029D01*
X066969Y060229D01*
X067049Y060196D01*
X067135D01*
X067215Y060229D01*
X067276Y06029D01*
X067309Y06037D01*
Y060456D01*
X067276Y060536D01*
X067215Y060596D01*
X067135Y060629D01*
D02*
G37*
G36*
X065905D02*
X065819D01*
X06574Y060596D01*
X065679Y060536D01*
X065646Y060456D01*
Y06037D01*
X065679Y06029D01*
X06574Y060229D01*
X065819Y060196D01*
X065905D01*
X065985Y060229D01*
X066046Y06029D01*
X066079Y06037D01*
Y060456D01*
X066046Y060536D01*
X065985Y060596D01*
X065905Y060629D01*
D02*
G37*
G36*
X064676D02*
X06459D01*
X06451Y060596D01*
X064449Y060536D01*
X064416Y060456D01*
Y06037D01*
X064449Y06029D01*
X06451Y060229D01*
X06459Y060196D01*
X064676D01*
X064755Y060229D01*
X064816Y06029D01*
X064849Y06037D01*
Y060456D01*
X064816Y060536D01*
X064755Y060596D01*
X064676Y060629D01*
D02*
G37*
G36*
X063446D02*
X06336D01*
X063281Y060596D01*
X06322Y060536D01*
X063187Y060456D01*
Y06037D01*
X06322Y06029D01*
X063281Y060229D01*
X06336Y060196D01*
X063446D01*
X063526Y060229D01*
X063587Y06029D01*
X06362Y06037D01*
Y060456D01*
X063587Y060536D01*
X063526Y060596D01*
X063446Y060629D01*
D02*
G37*
G36*
X062217D02*
X06213D01*
X062051Y060596D01*
X06199Y060536D01*
X061957Y060456D01*
Y06037D01*
X06199Y06029D01*
X062051Y060229D01*
X06213Y060196D01*
X062217D01*
X062296Y060229D01*
X062357Y06029D01*
X06239Y06037D01*
Y060456D01*
X062357Y060536D01*
X062296Y060596D01*
X062217Y060629D01*
D02*
G37*
G36*
X060987D02*
X060901D01*
X060821Y060596D01*
X06076Y060536D01*
X060727Y060456D01*
Y06037D01*
X06076Y06029D01*
X060821Y060229D01*
X060901Y060196D01*
X060987D01*
X061067Y060229D01*
X061128Y06029D01*
X06116Y06037D01*
Y060456D01*
X061128Y060536D01*
X061067Y060596D01*
X060987Y060629D01*
D02*
G37*
G36*
X075112Y060338D02*
X075012D01*
X074896Y060323D01*
X074789Y060278D01*
X074696Y060207D01*
X074625Y060115D01*
X07458Y060007D01*
X074565Y059891D01*
X07458Y059776D01*
X074625Y059668D01*
X074696Y059575D01*
X074789Y059504D01*
X074896Y05946D01*
X075012Y059444D01*
X075112D01*
X075228Y05946D01*
X075336Y059504D01*
X075428Y059575D01*
X075499Y059668D01*
X075544Y059776D01*
X075559Y059891D01*
X075544Y060007D01*
X075499Y060115D01*
X075428Y060207D01*
X075336Y060278D01*
X075228Y060323D01*
X075112Y060338D01*
D02*
G37*
G36*
X073176Y059541D02*
X07309D01*
X07301Y059508D01*
X072949Y059447D01*
X072916Y059367D01*
Y059281D01*
X072949Y059202D01*
X07301Y059141D01*
X07309Y059108D01*
X073176D01*
X073256Y059141D01*
X073316Y059202D01*
X073349Y059281D01*
Y059367D01*
X073316Y059447D01*
X073256Y059508D01*
X073176Y059541D01*
D02*
G37*
G36*
X070678Y059383D02*
X070592D01*
X070512Y05935D01*
X070451Y059289D01*
X070418Y05921D01*
Y059124D01*
X070451Y059044D01*
X070512Y058983D01*
X070592Y05895D01*
X070678D01*
X070758Y058983D01*
X070818Y059044D01*
X070851Y059124D01*
Y05921D01*
X070818Y059289D01*
X070758Y05935D01*
X070678Y059383D01*
D02*
G37*
G36*
X072227Y059279D02*
X072141D01*
X072061Y059246D01*
X072001Y059185D01*
X071968Y059106D01*
Y059019D01*
X072001Y05894D01*
X072061Y058879D01*
X072141Y058846D01*
X072227D01*
X072307Y058879D01*
X072368Y05894D01*
X072401Y059019D01*
Y059106D01*
X072368Y059185D01*
X072307Y059246D01*
X072227Y059279D01*
D02*
G37*
G36*
X069594Y059244D02*
X069508D01*
X069429Y059211D01*
X069368Y05915D01*
X069335Y05907D01*
Y058984D01*
X069368Y058904D01*
X069429Y058843D01*
X069508Y058811D01*
X069594D01*
X069674Y058843D01*
X069735Y058904D01*
X069768Y058984D01*
Y05907D01*
X069735Y05915D01*
X069674Y059211D01*
X069594Y059244D01*
D02*
G37*
G36*
X068365D02*
X068279D01*
X068199Y059211D01*
X068138Y05915D01*
X068105Y05907D01*
Y058984D01*
X068138Y058904D01*
X068199Y058843D01*
X068279Y058811D01*
X068365D01*
X068444Y058843D01*
X068505Y058904D01*
X068538Y058984D01*
Y05907D01*
X068505Y05915D01*
X068444Y059211D01*
X068365Y059244D01*
D02*
G37*
G36*
X067135D02*
X067049D01*
X066969Y059211D01*
X066908Y05915D01*
X066875Y05907D01*
Y058984D01*
X066908Y058904D01*
X066969Y058843D01*
X067049Y058811D01*
X067135D01*
X067215Y058843D01*
X067276Y058904D01*
X067309Y058984D01*
Y05907D01*
X067276Y05915D01*
X067215Y059211D01*
X067135Y059244D01*
D02*
G37*
G36*
X065905D02*
X065819D01*
X06574Y059211D01*
X065679Y05915D01*
X065646Y05907D01*
Y058984D01*
X065679Y058904D01*
X06574Y058843D01*
X065819Y058811D01*
X065905D01*
X065985Y058843D01*
X066046Y058904D01*
X066079Y058984D01*
Y05907D01*
X066046Y05915D01*
X065985Y059211D01*
X065905Y059244D01*
D02*
G37*
G36*
X064676D02*
X06459D01*
X06451Y059211D01*
X064449Y05915D01*
X064416Y05907D01*
Y058984D01*
X064449Y058904D01*
X06451Y058843D01*
X06459Y058811D01*
X064676D01*
X064755Y058843D01*
X064816Y058904D01*
X064849Y058984D01*
Y05907D01*
X064816Y05915D01*
X064755Y059211D01*
X064676Y059244D01*
D02*
G37*
G36*
X063446D02*
X06336D01*
X063281Y059211D01*
X06322Y05915D01*
X063187Y05907D01*
Y058984D01*
X06322Y058904D01*
X063281Y058843D01*
X06336Y058811D01*
X063446D01*
X063526Y058843D01*
X063587Y058904D01*
X06362Y058984D01*
Y05907D01*
X063587Y05915D01*
X063526Y059211D01*
X063446Y059244D01*
D02*
G37*
G36*
X062217D02*
X06213D01*
X062051Y059211D01*
X06199Y05915D01*
X061957Y05907D01*
Y058984D01*
X06199Y058904D01*
X062051Y058843D01*
X06213Y058811D01*
X062217D01*
X062296Y058843D01*
X062357Y058904D01*
X06239Y058984D01*
Y05907D01*
X062357Y05915D01*
X062296Y059211D01*
X062217Y059244D01*
D02*
G37*
G36*
X060987D02*
X060901D01*
X060821Y059211D01*
X06076Y05915D01*
X060727Y05907D01*
Y058984D01*
X06076Y058904D01*
X060821Y058843D01*
X060901Y058811D01*
X060987D01*
X061067Y058843D01*
X061128Y058904D01*
X06116Y058984D01*
Y05907D01*
X061128Y05915D01*
X061067Y059211D01*
X060987Y059244D01*
D02*
G37*
G36*
X074318Y059476D02*
X074232D01*
X074152Y059443D01*
X074091Y059382D01*
X074058Y059302D01*
Y059216D01*
X074091Y059137D01*
X074152Y059076D01*
X074232Y059043D01*
X074318D01*
X074397Y059076D01*
X074458Y059137D01*
X074491Y059216D01*
X074569Y059214D01*
Y058438D01*
X075555D01*
Y059324D01*
X074569D01*
Y059305D01*
X074491Y059302D01*
X074458Y059382D01*
X074397Y059443D01*
X074318Y059476D01*
D02*
G37*
G36*
X070591Y058807D02*
X070505D01*
X070426Y058774D01*
X070365Y058713D01*
X070332Y058633D01*
Y058547D01*
X070365Y058467D01*
X070426Y058406D01*
X070505Y058373D01*
X070591D01*
X070671Y058406D01*
X070732Y058467D01*
X070765Y058547D01*
Y058633D01*
X070732Y058713D01*
X070671Y058774D01*
X070591Y058807D01*
D02*
G37*
G36*
X064731Y057706D02*
X064645D01*
X064565Y057673D01*
X064504Y057612D01*
X064504Y057612D01*
X064481Y057622D01*
X064395D01*
X064315Y057589D01*
X064254Y057528D01*
X064234Y057478D01*
X064178D01*
X064099Y057445D01*
X064038Y057384D01*
X064005Y057304D01*
Y057265D01*
X064003D01*
X063924Y057232D01*
X063863Y057171D01*
X06383Y057092D01*
Y057006D01*
X063838Y056987D01*
X063784Y056933D01*
X063751Y056854D01*
Y056767D01*
X063784Y056688D01*
X063805Y056667D01*
X063784Y056646D01*
X063751Y056566D01*
Y05648D01*
X063784Y0564D01*
X063845Y05634D01*
X063853Y056336D01*
X06384Y056304D01*
Y056218D01*
X063873Y056139D01*
X063934Y056078D01*
X064013Y056045D01*
X064027D01*
Y056029D01*
X06406Y05595D01*
X064121Y055889D01*
X064198Y055857D01*
Y055825D01*
X064231Y055745D01*
X064251Y055725D01*
X064231Y055704D01*
X064198Y055625D01*
Y055539D01*
X064231Y055459D01*
X064251Y055439D01*
X064231Y055419D01*
X064198Y055339D01*
Y055253D01*
X064231Y055173D01*
X064251Y055153D01*
X064231Y055133D01*
X064198Y055053D01*
Y054967D01*
X064231Y054888D01*
X064247Y054871D01*
X064223Y054847D01*
X06419Y054767D01*
Y054681D01*
X064223Y054601D01*
X064245Y054579D01*
X064223Y054557D01*
X06419Y054478D01*
Y054391D01*
X064223Y054312D01*
X064242Y054293D01*
X064225Y054276D01*
X064192Y054196D01*
Y05411D01*
X064225Y05403D01*
X064248Y054007D01*
X064231Y05399D01*
X064198Y05391D01*
Y053824D01*
X064231Y053745D01*
X064251Y053724D01*
X064231Y053704D01*
X064198Y053625D01*
Y053538D01*
X064231Y053459D01*
X064251Y053439D01*
X064231Y053418D01*
X064198Y053339D01*
Y053253D01*
X064231Y053173D01*
X064275Y053129D01*
Y052893D01*
X064275Y052893D01*
Y052499D01*
X064279Y052469D01*
X064281Y052438D01*
X064293Y052376D01*
X0643Y052357D01*
X064304Y052337D01*
X064313Y052318D01*
X06432Y052298D01*
X064327Y052288D01*
X064324Y05226D01*
X064318Y052242D01*
X064232Y052217D01*
X064152Y052249D01*
X064066D01*
X063987Y052217D01*
X063926Y052156D01*
X063893Y052076D01*
Y05199D01*
X063926Y05191D01*
X063987Y051849D01*
X064066Y051816D01*
X064152D01*
X064232Y051849D01*
X064293Y05191D01*
X064326Y05199D01*
Y052034D01*
X064405Y052067D01*
X064439Y052033D01*
X064518Y052D01*
X064604D01*
X06468Y052031D01*
X064689Y052029D01*
X06471Y052028D01*
X06473Y052024D01*
X064751Y052025D01*
X064772Y052024D01*
X064792Y052028D01*
X064802Y052029D01*
X064871Y052D01*
X064958D01*
X065037Y052033D01*
X065098Y052094D01*
X065131Y052173D01*
Y052216D01*
X065162Y052263D01*
X065171Y052281D01*
X065183Y052298D01*
X065189Y052318D01*
X065198Y052337D01*
X065202Y052357D01*
X065209Y052376D01*
X065221Y052438D01*
X065223Y052469D01*
X065227Y052499D01*
Y052893D01*
X065227Y052893D01*
Y053073D01*
X065275Y053121D01*
X065308Y0532D01*
Y053287D01*
X065275Y053366D01*
X065227Y053414D01*
Y053671D01*
Y053927D01*
X065281Y053981D01*
X065314Y054061D01*
Y054147D01*
X065281Y054226D01*
X065269Y054239D01*
X065281Y054251D01*
X065314Y05433D01*
Y054417D01*
X065281Y054496D01*
X065269Y054508D01*
X065281Y054521D01*
X065314Y0546D01*
Y054686D01*
X065281Y054766D01*
X065269Y054778D01*
X065281Y05479D01*
X065314Y05487D01*
Y054956D01*
X065281Y055036D01*
X065232Y055085D01*
X065227Y05516D01*
Y055654D01*
X065269Y055696D01*
X065302Y055775D01*
Y055835D01*
X06535Y055855D01*
X065411Y055916D01*
X065444Y055996D01*
Y056002D01*
X065523Y056034D01*
X065584Y056095D01*
X065617Y056175D01*
Y056251D01*
X065641Y056261D01*
X065702Y056322D01*
X065735Y056401D01*
Y056487D01*
X065714Y05654D01*
X065748Y056574D01*
X065781Y056653D01*
Y056739D01*
X065748Y056819D01*
X065714Y056853D01*
X065733Y056899D01*
Y056985D01*
X0657Y057065D01*
X065639Y057126D01*
X065615Y057136D01*
Y057192D01*
X065582Y057272D01*
X065521Y057333D01*
X065442Y057366D01*
X065418D01*
Y057383D01*
X065385Y057463D01*
X065324Y057524D01*
X065245Y057557D01*
X065159D01*
X065157Y057556D01*
X065143Y057589D01*
X065082Y05765D01*
X065003Y057683D01*
X064917D01*
X064837Y05765D01*
X064836Y057648D01*
X064811Y057673D01*
X064731Y057706D01*
D02*
G37*
G36*
X069594Y057858D02*
X069508D01*
X069429Y057825D01*
X069368Y057764D01*
X069335Y057684D01*
Y057598D01*
X069368Y057519D01*
X069429Y057458D01*
X069508Y057425D01*
X069594D01*
X069674Y057458D01*
X069735Y057519D01*
X069768Y057598D01*
Y057684D01*
X069735Y057764D01*
X069674Y057825D01*
X069594Y057858D01*
D02*
G37*
G36*
X068365D02*
X068279D01*
X068199Y057825D01*
X068138Y057764D01*
X068105Y057684D01*
Y057598D01*
X068138Y057519D01*
X068199Y057458D01*
X068279Y057425D01*
X068365D01*
X068444Y057458D01*
X068505Y057519D01*
X068538Y057598D01*
Y057684D01*
X068505Y057764D01*
X068444Y057825D01*
X068365Y057858D01*
D02*
G37*
G36*
X067135D02*
X067049D01*
X066969Y057825D01*
X066908Y057764D01*
X066875Y057684D01*
Y057598D01*
X066908Y057519D01*
X066969Y057458D01*
X067049Y057425D01*
X067135D01*
X067215Y057458D01*
X067276Y057519D01*
X067309Y057598D01*
Y057684D01*
X067276Y057764D01*
X067215Y057825D01*
X067135Y057858D01*
D02*
G37*
G36*
X065905D02*
X065819D01*
X06574Y057825D01*
X065679Y057764D01*
X065646Y057684D01*
Y057598D01*
X065679Y057519D01*
X06574Y057458D01*
X065819Y057425D01*
X065905D01*
X065985Y057458D01*
X066046Y057519D01*
X066079Y057598D01*
Y057684D01*
X066046Y057764D01*
X065985Y057825D01*
X065905Y057858D01*
D02*
G37*
G36*
X062217D02*
X06213D01*
X062051Y057825D01*
X06199Y057764D01*
X061957Y057684D01*
Y057598D01*
X06199Y057519D01*
X062051Y057458D01*
X06213Y057425D01*
X062217D01*
X062296Y057458D01*
X062357Y057519D01*
X06239Y057598D01*
Y057684D01*
X062357Y057764D01*
X062296Y057825D01*
X062217Y057858D01*
D02*
G37*
G36*
X060987D02*
X060901D01*
X060821Y057825D01*
X06076Y057764D01*
X060727Y057684D01*
Y057598D01*
X06076Y057519D01*
X060821Y057458D01*
X060901Y057425D01*
X060987D01*
X061067Y057458D01*
X061128Y057519D01*
X06116Y057598D01*
Y057684D01*
X061128Y057764D01*
X061067Y057825D01*
X060987Y057858D01*
D02*
G37*
G36*
X071953Y057107D02*
X071867D01*
X071787Y057074D01*
X071726Y057013D01*
X071693Y056934D01*
Y056848D01*
X071726Y056768D01*
X071787Y056707D01*
X071847Y056682D01*
X071841Y056601D01*
X071782Y056577D01*
X071721Y056516D01*
X071688Y056436D01*
Y05635D01*
X071721Y056271D01*
X071782Y05621D01*
X071862Y056177D01*
X071948D01*
X072027Y05621D01*
X072088Y056271D01*
X072121Y05635D01*
Y056436D01*
X072088Y056516D01*
X072027Y056577D01*
X071968Y056601D01*
X071973Y056682D01*
X072033Y056707D01*
X072093Y056768D01*
X072126Y056848D01*
Y056934D01*
X072093Y057013D01*
X072033Y057074D01*
X071953Y057107D01*
D02*
G37*
G36*
X069594Y056472D02*
X069508D01*
X069429Y056439D01*
X069368Y056378D01*
X069335Y056298D01*
Y056212D01*
X069368Y056133D01*
X069429Y056072D01*
X069508Y056039D01*
X069594D01*
X069674Y056072D01*
X069735Y056133D01*
X069768Y056212D01*
Y056298D01*
X069735Y056378D01*
X069674Y056439D01*
X069594Y056472D01*
D02*
G37*
G36*
X068365D02*
X068279D01*
X068199Y056439D01*
X068138Y056378D01*
X068105Y056298D01*
Y056212D01*
X068138Y056133D01*
X068199Y056072D01*
X068279Y056039D01*
X068365D01*
X068444Y056072D01*
X068505Y056133D01*
X068538Y056212D01*
Y056298D01*
X068505Y056378D01*
X068444Y056439D01*
X068365Y056472D01*
D02*
G37*
G36*
X067135D02*
X067049D01*
X066969Y056439D01*
X066908Y056378D01*
X066875Y056298D01*
Y056212D01*
X066908Y056133D01*
X066969Y056072D01*
X067049Y056039D01*
X067135D01*
X067215Y056072D01*
X067276Y056133D01*
X067309Y056212D01*
Y056298D01*
X067276Y056378D01*
X067215Y056439D01*
X067135Y056472D01*
D02*
G37*
G36*
X062217D02*
X06213D01*
X062051Y056439D01*
X06199Y056378D01*
X061957Y056298D01*
Y056212D01*
X06199Y056133D01*
X062051Y056072D01*
X06213Y056039D01*
X062217D01*
X062296Y056072D01*
X062357Y056133D01*
X06239Y056212D01*
Y056298D01*
X062357Y056378D01*
X062296Y056439D01*
X062217Y056472D01*
D02*
G37*
G36*
X060987D02*
X060901D01*
X060821Y056439D01*
X06076Y056378D01*
X060727Y056298D01*
Y056212D01*
X06076Y056133D01*
X060821Y056072D01*
X060901Y056039D01*
X060987D01*
X061067Y056072D01*
X061128Y056133D01*
X06116Y056212D01*
Y056298D01*
X061128Y056378D01*
X061067Y056439D01*
X060987Y056472D01*
D02*
G37*
G36*
X075345Y055638D02*
X075259D01*
X07518Y055605D01*
X075119Y055544D01*
X075086Y055464D01*
Y055378D01*
X075119Y055298D01*
X07518Y055237D01*
X075259Y055204D01*
X075345D01*
X075425Y055237D01*
X075486Y055298D01*
X075519Y055378D01*
Y055464D01*
X075486Y055544D01*
X075425Y055605D01*
X075345Y055638D01*
D02*
G37*
G36*
X074505D02*
X074419D01*
X074339Y055605D01*
X074278Y055544D01*
X074245Y055464D01*
Y055378D01*
X074278Y055298D01*
X074339Y055237D01*
X074419Y055204D01*
X074505D01*
X074585Y055237D01*
X074645Y055298D01*
X074678Y055378D01*
Y055464D01*
X074645Y055544D01*
X074585Y055605D01*
X074505Y055638D01*
D02*
G37*
G36*
X073665D02*
X073578D01*
X073499Y055605D01*
X073438Y055544D01*
X073405Y055464D01*
Y055378D01*
X073438Y055298D01*
X073499Y055237D01*
X073578Y055204D01*
X073665D01*
X073744Y055237D01*
X073805Y055298D01*
X073838Y055378D01*
Y055464D01*
X073805Y055544D01*
X073744Y055605D01*
X073665Y055638D01*
D02*
G37*
G36*
X072824D02*
X072738D01*
X072659Y055605D01*
X072598Y055544D01*
X072565Y055464D01*
Y055378D01*
X072598Y055298D01*
X072659Y055237D01*
X072738Y055204D01*
X072824D01*
X072904Y055237D01*
X072965Y055298D01*
X072998Y055378D01*
Y055464D01*
X072965Y055544D01*
X072904Y055605D01*
X072824Y055638D01*
D02*
G37*
G36*
X071984D02*
X071898D01*
X071818Y055605D01*
X071757Y055544D01*
X071724Y055464D01*
Y055378D01*
X071757Y055298D01*
X071818Y055237D01*
X071898Y055204D01*
X071984D01*
X072063Y055237D01*
X072124Y055298D01*
X072157Y055378D01*
Y055464D01*
X072124Y055544D01*
X072063Y055605D01*
X071984Y055638D01*
D02*
G37*
G36*
X069594Y055086D02*
X069508D01*
X069429Y055053D01*
X069368Y054992D01*
X069335Y054913D01*
Y054826D01*
X069368Y054747D01*
X069429Y054686D01*
X069508Y054653D01*
X069594D01*
X069674Y054686D01*
X069735Y054747D01*
X069768Y054826D01*
Y054913D01*
X069735Y054992D01*
X069674Y055053D01*
X069594Y055086D01*
D02*
G37*
G36*
X068365D02*
X068279D01*
X068199Y055053D01*
X068138Y054992D01*
X068105Y054913D01*
Y054826D01*
X068138Y054747D01*
X068199Y054686D01*
X068279Y054653D01*
X068365D01*
X068444Y054686D01*
X068505Y054747D01*
X068538Y054826D01*
Y054913D01*
X068505Y054992D01*
X068444Y055053D01*
X068365Y055086D01*
D02*
G37*
G36*
X067135D02*
X067049D01*
X066969Y055053D01*
X066908Y054992D01*
X066875Y054913D01*
Y054826D01*
X066908Y054747D01*
X066969Y054686D01*
X067049Y054653D01*
X067135D01*
X067215Y054686D01*
X067276Y054747D01*
X067309Y054826D01*
Y054913D01*
X067276Y054992D01*
X067215Y055053D01*
X067135Y055086D01*
D02*
G37*
G36*
X062217D02*
X06213D01*
X062051Y055053D01*
X06199Y054992D01*
X061957Y054913D01*
Y054826D01*
X06199Y054747D01*
X062051Y054686D01*
X06213Y054653D01*
X062217D01*
X062296Y054686D01*
X062357Y054747D01*
X06239Y054826D01*
Y054913D01*
X062357Y054992D01*
X062296Y055053D01*
X062217Y055086D01*
D02*
G37*
G36*
X060987D02*
X060901D01*
X060821Y055053D01*
X06076Y054992D01*
X060727Y054913D01*
Y054826D01*
X06076Y054747D01*
X060821Y054686D01*
X060901Y054653D01*
X060987D01*
X061067Y054686D01*
X061128Y054747D01*
X06116Y054826D01*
Y054913D01*
X061128Y054992D01*
X061067Y055053D01*
X060987Y055086D01*
D02*
G37*
G36*
X075412Y054622D02*
X075326D01*
X075246Y054589D01*
X075186Y054528D01*
X075153Y054448D01*
Y054362D01*
X075186Y054283D01*
X075246Y054222D01*
X075326Y054189D01*
X075412D01*
X075492Y054222D01*
X075553Y054283D01*
X075586Y054362D01*
Y054448D01*
X075553Y054528D01*
X075492Y054589D01*
X075412Y054622D01*
D02*
G37*
G36*
X074572D02*
X074486D01*
X074406Y054589D01*
X074345Y054528D01*
X074312Y054448D01*
Y054362D01*
X074345Y054283D01*
X074406Y054222D01*
X074486Y054189D01*
X074572D01*
X074651Y054222D01*
X074712Y054283D01*
X074745Y054362D01*
Y054448D01*
X074712Y054528D01*
X074651Y054589D01*
X074572Y054622D01*
D02*
G37*
G36*
X073732D02*
X073645D01*
X073566Y054589D01*
X073505Y054528D01*
X073472Y054448D01*
Y054362D01*
X073505Y054283D01*
X073566Y054222D01*
X073645Y054189D01*
X073732D01*
X073811Y054222D01*
X073872Y054283D01*
X073905Y054362D01*
Y054448D01*
X073872Y054528D01*
X073811Y054589D01*
X073732Y054622D01*
D02*
G37*
G36*
X072891D02*
X072805D01*
X072725Y054589D01*
X072665Y054528D01*
X072632Y054448D01*
Y054362D01*
X072665Y054283D01*
X072725Y054222D01*
X072805Y054189D01*
X072891D01*
X072971Y054222D01*
X073032Y054283D01*
X073065Y054362D01*
Y054448D01*
X073032Y054528D01*
X072971Y054589D01*
X072891Y054622D01*
D02*
G37*
G36*
X072051D02*
X071965D01*
X071885Y054589D01*
X071824Y054528D01*
X071791Y054448D01*
Y054362D01*
X071824Y054283D01*
X071885Y054222D01*
X071965Y054189D01*
X072051D01*
X07213Y054222D01*
X072191Y054283D01*
X072224Y054362D01*
Y054448D01*
X072191Y054528D01*
X07213Y054589D01*
X072051Y054622D01*
D02*
G37*
G36*
X069594Y0537D02*
X069508D01*
X069429Y053667D01*
X069368Y053606D01*
X069335Y053527D01*
Y053441D01*
X069368Y053361D01*
X069429Y0533D01*
X069508Y053267D01*
X069594D01*
X069674Y0533D01*
X069735Y053361D01*
X069768Y053441D01*
Y053527D01*
X069735Y053606D01*
X069674Y053667D01*
X069594Y0537D01*
D02*
G37*
G36*
X068365D02*
X068279D01*
X068199Y053667D01*
X068138Y053606D01*
X068105Y053527D01*
Y053441D01*
X068138Y053361D01*
X068199Y0533D01*
X068279Y053267D01*
X068365D01*
X068444Y0533D01*
X068505Y053361D01*
X068538Y053441D01*
Y053527D01*
X068505Y053606D01*
X068444Y053667D01*
X068365Y0537D01*
D02*
G37*
G36*
X062246D02*
X06216D01*
X06208Y053667D01*
X06202Y053606D01*
X061987Y053527D01*
Y053441D01*
X06202Y053361D01*
X06208Y0533D01*
X06216Y053267D01*
X062246D01*
X062326Y0533D01*
X062387Y053361D01*
X06242Y053441D01*
Y053527D01*
X062387Y053606D01*
X062326Y053667D01*
X062246Y0537D01*
D02*
G37*
G36*
X060987D02*
X060901D01*
X060821Y053667D01*
X06076Y053606D01*
X060727Y053527D01*
Y053441D01*
X06076Y053361D01*
X060821Y0533D01*
X060901Y053267D01*
X060987D01*
X061067Y0533D01*
X061128Y053361D01*
X06116Y053441D01*
Y053527D01*
X061128Y053606D01*
X061067Y053667D01*
X060987Y0537D01*
D02*
G37*
G36*
X07542Y053649D02*
X075334D01*
X075254Y053616D01*
X075193Y053555D01*
X07516Y053476D01*
Y05339D01*
X075193Y05331D01*
X075254Y053249D01*
X075334Y053216D01*
X07542D01*
X0755Y053249D01*
X075561Y05331D01*
X075594Y05339D01*
Y053476D01*
X075561Y053555D01*
X0755Y053616D01*
X07542Y053649D01*
D02*
G37*
G36*
X07458D02*
X074494D01*
X074414Y053616D01*
X074353Y053555D01*
X07432Y053476D01*
Y05339D01*
X074353Y05331D01*
X074414Y053249D01*
X074494Y053216D01*
X07458D01*
X074659Y053249D01*
X07472Y05331D01*
X074753Y05339D01*
Y053476D01*
X07472Y053555D01*
X074659Y053616D01*
X07458Y053649D01*
D02*
G37*
G36*
X073739D02*
X073653D01*
X073574Y053616D01*
X073513Y053555D01*
X07348Y053476D01*
Y05339D01*
X073513Y05331D01*
X073574Y053249D01*
X073653Y053216D01*
X073739D01*
X073819Y053249D01*
X07388Y05331D01*
X073913Y05339D01*
Y053476D01*
X07388Y053555D01*
X073819Y053616D01*
X073739Y053649D01*
D02*
G37*
G36*
X072899D02*
X072813D01*
X072733Y053616D01*
X072672Y053555D01*
X072639Y053476D01*
Y05339D01*
X072672Y05331D01*
X072733Y053249D01*
X072813Y053216D01*
X072899D01*
X072979Y053249D01*
X07304Y05331D01*
X073073Y05339D01*
Y053476D01*
X07304Y053555D01*
X072979Y053616D01*
X072899Y053649D01*
D02*
G37*
G36*
X072059D02*
X071973D01*
X071893Y053616D01*
X071832Y053555D01*
X071799Y053476D01*
Y05339D01*
X071832Y05331D01*
X071893Y053249D01*
X071973Y053216D01*
X072059D01*
X072138Y053249D01*
X072199Y05331D01*
X072232Y05339D01*
Y053476D01*
X072199Y053555D01*
X072138Y053616D01*
X072059Y053649D01*
D02*
G37*
G36*
X067066Y053647D02*
X06698D01*
X0669Y053614D01*
X066839Y053553D01*
X066806Y053474D01*
Y053388D01*
X066839Y053308D01*
X0669Y053247D01*
X06698Y053214D01*
X067066D01*
X067145Y053247D01*
X067206Y053308D01*
X067239Y053388D01*
Y053474D01*
X067206Y053553D01*
X067145Y053614D01*
X067066Y053647D01*
D02*
G37*
G36*
X075479Y052504D02*
X075393D01*
X075313Y052471D01*
X075253Y05241D01*
X07522Y05233D01*
Y052244D01*
X075253Y052164D01*
X075313Y052104D01*
X075393Y052071D01*
X075479D01*
X075559Y052104D01*
X07562Y052164D01*
X075653Y052244D01*
Y05233D01*
X07562Y05241D01*
X075559Y052471D01*
X075479Y052504D01*
D02*
G37*
G36*
X074639D02*
X074553D01*
X074473Y052471D01*
X074412Y05241D01*
X074379Y05233D01*
Y052244D01*
X074412Y052164D01*
X074473Y052104D01*
X074553Y052071D01*
X074639D01*
X074718Y052104D01*
X074779Y052164D01*
X074812Y052244D01*
Y05233D01*
X074779Y05241D01*
X074718Y052471D01*
X074639Y052504D01*
D02*
G37*
G36*
X073798D02*
X073712D01*
X073633Y052471D01*
X073572Y05241D01*
X073539Y05233D01*
Y052244D01*
X073572Y052164D01*
X073633Y052104D01*
X073712Y052071D01*
X073798D01*
X073878Y052104D01*
X073939Y052164D01*
X073972Y052244D01*
Y05233D01*
X073939Y05241D01*
X073878Y052471D01*
X073798Y052504D01*
D02*
G37*
G36*
X072958D02*
X072872D01*
X072792Y052471D01*
X072731Y05241D01*
X072698Y05233D01*
Y052244D01*
X072731Y052164D01*
X072792Y052104D01*
X072872Y052071D01*
X072958D01*
X073038Y052104D01*
X073099Y052164D01*
X073132Y052244D01*
Y05233D01*
X073099Y05241D01*
X073038Y052471D01*
X072958Y052504D01*
D02*
G37*
G36*
X072118D02*
X072032D01*
X071952Y052471D01*
X071891Y05241D01*
X071858Y05233D01*
Y052244D01*
X071891Y052164D01*
X071952Y052104D01*
X072032Y052071D01*
X072118D01*
X072197Y052104D01*
X072258Y052164D01*
X072291Y052244D01*
Y05233D01*
X072258Y05241D01*
X072197Y052471D01*
X072118Y052504D01*
D02*
G37*
G36*
X060987Y051935D02*
X0609D01*
X060821Y051902D01*
X06076Y051842D01*
X060727Y051762D01*
Y051676D01*
X06076Y051596D01*
X060821Y051535D01*
X0609Y051502D01*
X060987D01*
X061066Y051535D01*
X061127Y051596D01*
X06116Y051676D01*
Y051762D01*
X061127Y051842D01*
X061066Y051902D01*
X060987Y051935D01*
D02*
G37*
G36*
X063097Y051909D02*
X063011D01*
X062932Y051876D01*
X062871Y051815D01*
X062838Y051735D01*
Y051649D01*
X062871Y05157D01*
X062932Y051509D01*
X063011Y051476D01*
X063097D01*
X063177Y051509D01*
X063238Y05157D01*
X063271Y051649D01*
Y051735D01*
X063238Y051815D01*
X063177Y051876D01*
X063097Y051909D01*
D02*
G37*
G36*
X062217D02*
X06213D01*
X062051Y051876D01*
X06199Y051815D01*
X061957Y051735D01*
Y051649D01*
X06199Y05157D01*
X062051Y051509D01*
X06213Y051476D01*
X062217D01*
X062296Y051509D01*
X062357Y05157D01*
X06239Y051649D01*
Y051735D01*
X062357Y051815D01*
X062296Y051876D01*
X062217Y051909D01*
D02*
G37*
G36*
X066038Y0518D02*
X065952D01*
X065872Y051767D01*
X065812Y051706D01*
X065779Y051626D01*
Y05154D01*
X065812Y05146D01*
X065872Y0514D01*
X065952Y051367D01*
X066038D01*
X066118Y0514D01*
X066179Y05146D01*
X066212Y05154D01*
Y051626D01*
X066179Y051706D01*
X066118Y051767D01*
X066038Y0518D01*
D02*
G37*
G36*
X072259Y051381D02*
X072173D01*
X072093Y051348D01*
X072032Y051287D01*
X071999Y051208D01*
Y051122D01*
X072032Y051042D01*
X072093Y050981D01*
X072173Y050948D01*
X072259D01*
X072338Y050981D01*
X072399Y051042D01*
X072432Y051122D01*
Y051208D01*
X072399Y051287D01*
X072338Y051348D01*
X072259Y051381D01*
D02*
G37*
G36*
X075538Y051208D02*
X075452D01*
X075372Y051175D01*
X075312Y051115D01*
X075279Y051035D01*
Y050949D01*
X075312Y050869D01*
X075372Y050808D01*
X075452Y050775D01*
X075538D01*
X075618Y050808D01*
X075679Y050869D01*
X075712Y050949D01*
Y051035D01*
X075679Y051115D01*
X075618Y051175D01*
X075538Y051208D01*
D02*
G37*
G36*
X074698D02*
X074612D01*
X074532Y051175D01*
X074471Y051115D01*
X074438Y051035D01*
Y050949D01*
X074471Y050869D01*
X074532Y050808D01*
X074612Y050775D01*
X074698D01*
X074777Y050808D01*
X074838Y050869D01*
X074871Y050949D01*
Y051035D01*
X074838Y051115D01*
X074777Y051175D01*
X074698Y051208D01*
D02*
G37*
G36*
X073857D02*
X073771D01*
X073692Y051175D01*
X073631Y051115D01*
X073598Y051035D01*
Y050949D01*
X073631Y050869D01*
X073692Y050808D01*
X073771Y050775D01*
X073857D01*
X073937Y050808D01*
X073998Y050869D01*
X074031Y050949D01*
Y051035D01*
X073998Y051115D01*
X073937Y051175D01*
X073857Y051208D01*
D02*
G37*
G36*
X073017D02*
X072931D01*
X072851Y051175D01*
X07279Y051115D01*
X072758Y051035D01*
Y050949D01*
X07279Y050869D01*
X072851Y050808D01*
X072931Y050775D01*
X073017D01*
X073097Y050808D01*
X073158Y050869D01*
X073191Y050949D01*
Y051035D01*
X073158Y051115D01*
X073097Y051175D01*
X073017Y051208D01*
D02*
G37*
G36*
X07783Y050692D02*
X077743D01*
X077664Y050659D01*
X077603Y050599D01*
X07757Y050519D01*
Y050433D01*
X077603Y050353D01*
X077664Y050292D01*
X077743Y050259D01*
X07783D01*
X077909Y050292D01*
X07797Y050353D01*
X078003Y050433D01*
Y050519D01*
X07797Y050599D01*
X077909Y050659D01*
X07783Y050692D01*
D02*
G37*
G36*
X066038Y05057D02*
X065952D01*
X065872Y050537D01*
X065812Y050476D01*
X065779Y050397D01*
Y05031D01*
X065812Y050231D01*
X065872Y05017D01*
X065952Y050137D01*
X066038D01*
X066118Y05017D01*
X066179Y050231D01*
X066212Y05031D01*
Y050397D01*
X066179Y050476D01*
X066118Y050537D01*
X066038Y05057D01*
D02*
G37*
G36*
X064652D02*
X064566D01*
X064487Y050537D01*
X064426Y050476D01*
X064393Y050397D01*
Y05031D01*
X064426Y050231D01*
X064487Y05017D01*
X064566Y050137D01*
X064652D01*
X064732Y05017D01*
X064793Y050231D01*
X064826Y05031D01*
Y050397D01*
X064793Y050476D01*
X064732Y050537D01*
X064652Y05057D01*
D02*
G37*
G36*
X073837Y050425D02*
X073751D01*
X073672Y050392D01*
X073611Y050331D01*
X073578Y050251D01*
Y050165D01*
X073611Y050085D01*
X073672Y050025D01*
X073751Y049992D01*
X073837D01*
X073917Y050025D01*
X073978Y050085D01*
X074011Y050165D01*
Y050251D01*
X073978Y050331D01*
X073917Y050392D01*
X073837Y050425D01*
D02*
G37*
G36*
X069026Y049391D02*
X06894D01*
X068861Y049358D01*
X0688Y049297D01*
X068767Y049218D01*
Y049132D01*
X0688Y049052D01*
X068861Y048991D01*
X06894Y048958D01*
X069026D01*
X069106Y048991D01*
X069167Y049052D01*
X0692Y049132D01*
Y049218D01*
X069167Y049297D01*
X069106Y049358D01*
X069026Y049391D01*
D02*
G37*
G36*
X080944Y049364D02*
X080858D01*
X080778Y049331D01*
X080717Y04927D01*
X080684Y04919D01*
Y049104D01*
X080717Y049024D01*
X080778Y048964D01*
X080858Y048931D01*
X080944D01*
X081023Y048964D01*
X081084Y049024D01*
X081117Y049104D01*
Y04919D01*
X081084Y04927D01*
X081023Y049331D01*
X080944Y049364D01*
D02*
G37*
G36*
X063038Y049337D02*
X062952D01*
X062872Y049304D01*
X062812Y049243D01*
X062779Y049163D01*
Y049077D01*
X062812Y048997D01*
X062872Y048936D01*
X062952Y048903D01*
X063038D01*
X063118Y048936D01*
X063179Y048997D01*
X063212Y049077D01*
Y049163D01*
X063179Y049243D01*
X063118Y049304D01*
X063038Y049337D01*
D02*
G37*
G36*
X0767Y049641D02*
X076097D01*
X076027Y049559D01*
Y048795D01*
X076105Y048716D01*
X076668D01*
X076779Y048826D01*
Y049562D01*
X0767Y049641D01*
D02*
G37*
G36*
X072611Y048742D02*
X072525D01*
X072445Y048709D01*
X072384Y048648D01*
X072364Y048597D01*
X07232Y048616D01*
X072234D01*
X072154Y048583D01*
X072093Y048522D01*
X07208Y048491D01*
X071987Y048472D01*
X07198Y048479D01*
X0719Y048512D01*
X071814D01*
X071735Y048479D01*
X071719Y048464D01*
X071668Y048423D01*
X071616Y048464D01*
X071601Y048479D01*
X071521Y048512D01*
X071435D01*
X071356Y048479D01*
X071295Y048419D01*
X071262Y048339D01*
Y048253D01*
X071295Y048173D01*
X071356Y048112D01*
X071435Y048079D01*
X071521D01*
X071601Y048112D01*
X071616Y048128D01*
X071668Y048169D01*
X071719Y048128D01*
X071735Y048112D01*
X071814Y048079D01*
X0719D01*
X07198Y048112D01*
X072041Y048173D01*
X072054Y048204D01*
X072147Y048223D01*
X072154Y048216D01*
X072234Y048183D01*
X07232D01*
X072399Y048216D01*
X07246Y048276D01*
X072481Y048327D01*
X072525Y048309D01*
X072611D01*
X072691Y048341D01*
X072752Y048402D01*
X072785Y048482D01*
Y048568D01*
X072752Y048648D01*
X072691Y048709D01*
X072611Y048742D01*
D02*
G37*
G36*
X067879Y048307D02*
X067793D01*
X067714Y048275D01*
X067653Y048214D01*
X06762Y048134D01*
Y048048D01*
X067653Y047968D01*
X067714Y047907D01*
X067793Y047874D01*
X067879D01*
X067959Y047907D01*
X06802Y047968D01*
X068053Y048048D01*
Y048134D01*
X06802Y048214D01*
X067959Y048275D01*
X067879Y048307D01*
D02*
G37*
G36*
X081641Y04859D02*
X080873Y04859D01*
X080755Y048472D01*
X080755Y047964D01*
X080861Y047858D01*
X081653D01*
X081747Y047952D01*
Y048484D01*
X081641Y04859D01*
D02*
G37*
G36*
X070908Y048127D02*
X070822D01*
X070743Y048094D01*
X070682Y048034D01*
X070649Y047954D01*
Y047868D01*
X070682Y047788D01*
X070743Y047727D01*
X070822Y047694D01*
X070908D01*
X070988Y047727D01*
X071049Y047788D01*
X071082Y047868D01*
Y047954D01*
X071049Y048034D01*
X070988Y048094D01*
X070908Y048127D01*
D02*
G37*
G36*
X074046Y047566D02*
X07396D01*
X07388Y047533D01*
X073819Y047473D01*
X073786Y047393D01*
Y047307D01*
X073819Y047227D01*
X07388Y047166D01*
X07396Y047133D01*
X074046D01*
X074126Y047166D01*
X074187Y047227D01*
X07422Y047307D01*
Y047393D01*
X074187Y047473D01*
X074126Y047533D01*
X074046Y047566D01*
D02*
G37*
G36*
X073601Y047261D02*
X073515D01*
X073435Y047228D01*
X073375Y047167D01*
X073342Y047088D01*
Y047002D01*
X073375Y046922D01*
X073435Y046861D01*
X073515Y046828D01*
X073601D01*
X073681Y046861D01*
X073742Y046922D01*
X073775Y047002D01*
Y047088D01*
X073742Y047167D01*
X073681Y047228D01*
X073601Y047261D01*
D02*
G37*
G36*
X080436Y047227D02*
X08035D01*
X08027Y047194D01*
X080209Y047134D01*
X080176Y047054D01*
Y046968D01*
X080209Y046888D01*
X08027Y046827D01*
X08035Y046794D01*
X080436D01*
X080515Y046827D01*
X080576Y046888D01*
X080609Y046968D01*
Y047054D01*
X080576Y047134D01*
X080515Y047194D01*
X080436Y047227D01*
D02*
G37*
G36*
X061437Y047331D02*
X06045D01*
Y046445D01*
X061437D01*
Y047331D01*
D02*
G37*
G36*
X072483Y04681D02*
X072397D01*
X072317Y046778D01*
X072256Y046717D01*
X072223Y046637D01*
Y046551D01*
X072256Y046471D01*
X072317Y04641D01*
X072397Y046377D01*
X072483D01*
X072563Y04641D01*
X072624Y046471D01*
X072657Y046551D01*
Y046637D01*
X072624Y046717D01*
X072563Y046778D01*
X072483Y04681D01*
D02*
G37*
G36*
X074123Y046462D02*
X074037D01*
X073957Y046429D01*
X073896Y046368D01*
X073863Y046289D01*
Y046202D01*
X073896Y046123D01*
X073957Y046062D01*
X074037Y046029D01*
X074123D01*
X074202Y046062D01*
X074263Y046123D01*
X074296Y046202D01*
Y046289D01*
X074263Y046368D01*
X074202Y046429D01*
X074123Y046462D01*
D02*
G37*
G36*
X07261Y046224D02*
X072524D01*
X072444Y046191D01*
X072383Y04613D01*
X07235Y04605D01*
Y045964D01*
X072383Y045885D01*
X072444Y045824D01*
X072524Y045791D01*
X07261D01*
X07269Y045824D01*
X072751Y045885D01*
X072784Y045964D01*
Y04605D01*
X072751Y04613D01*
X07269Y046191D01*
X07261Y046224D01*
D02*
G37*
G36*
X071979Y0466D02*
X071893D01*
X071813Y046567D01*
X071752Y046506D01*
X07172Y046426D01*
Y04634D01*
X071742Y046285D01*
X071752Y046261D01*
X071709Y046193D01*
X071705Y046191D01*
X071644Y04613D01*
X071611Y04605D01*
Y045964D01*
X071644Y045885D01*
X071705Y045824D01*
X071785Y045791D01*
X071871D01*
X07195Y045824D01*
X072011Y045885D01*
X072044Y045964D01*
Y04605D01*
X072021Y046106D01*
X072011Y04613D01*
X072055Y046198D01*
X072059Y0462D01*
X07212Y046261D01*
X072153Y04634D01*
Y046426D01*
X07212Y046506D01*
X072059Y046567D01*
X071979Y0466D01*
D02*
G37*
G36*
X071132Y046224D02*
X071046D01*
X070966Y046191D01*
X070905Y04613D01*
X070872Y04605D01*
Y045964D01*
X070905Y045885D01*
X070966Y045824D01*
X071046Y045791D01*
X071132D01*
X071211Y045824D01*
X071272Y045885D01*
X071305Y045964D01*
Y04605D01*
X071272Y04613D01*
X071211Y046191D01*
X071132Y046224D01*
D02*
G37*
G36*
X070393D02*
X070306D01*
X070227Y046191D01*
X070166Y04613D01*
X070133Y04605D01*
Y045964D01*
X070166Y045885D01*
X070227Y045824D01*
X070306Y045791D01*
X070393D01*
X070472Y045824D01*
X070533Y045885D01*
X070566Y045964D01*
Y04605D01*
X070533Y04613D01*
X070472Y046191D01*
X070393Y046224D01*
D02*
G37*
G36*
X074457Y045667D02*
X074371D01*
X074292Y045634D01*
X074231Y045573D01*
X074198Y045493D01*
Y045471D01*
X074176Y045456D01*
X07409D01*
X07401Y045423D01*
X073963Y045376D01*
X073901Y045377D01*
X073874Y045386D01*
X07387Y045396D01*
X073809Y045457D01*
X073729Y04549D01*
X073643D01*
X073563Y045457D01*
X073503Y045396D01*
X07347Y045316D01*
Y04523D01*
X073503Y04515D01*
X073563Y04509D01*
X073643Y045057D01*
X073729D01*
X073809Y04509D01*
X073856Y045137D01*
X073918Y045135D01*
X073945Y045127D01*
X073949Y045117D01*
X07401Y045056D01*
X07409Y045023D01*
X074176D01*
X074256Y045056D01*
X074317Y045117D01*
X074349Y045197D01*
Y045219D01*
X074371Y045234D01*
X074457D01*
X074537Y045267D01*
X074598Y045328D01*
X074631Y045407D01*
Y045493D01*
X074598Y045573D01*
X074537Y045634D01*
X074457Y045667D01*
D02*
G37*
G36*
X075837Y046182D02*
X075751D01*
X075671Y046149D01*
X07561Y046088D01*
X075577Y046008D01*
Y045922D01*
X07561Y045843D01*
X075639Y045813D01*
X075658Y045755D01*
X075638Y045712D01*
X075603Y045677D01*
X07557Y045598D01*
Y045512D01*
X075603Y045432D01*
X075664Y045371D01*
X075743Y045338D01*
X07583D01*
X075909Y045371D01*
X07597Y045432D01*
X076003Y045512D01*
Y045598D01*
X07597Y045677D01*
X075941Y045706D01*
X075922Y045765D01*
X075943Y045808D01*
X075977Y045843D01*
X07601Y045922D01*
Y046008D01*
X075977Y046088D01*
X075916Y046149D01*
X075837Y046182D01*
D02*
G37*
G36*
X071871Y045704D02*
X071785D01*
X071705Y045671D01*
X071644Y04561D01*
X071611Y045531D01*
Y045445D01*
X071644Y045365D01*
X071705Y045304D01*
X071785Y045271D01*
X071871D01*
X07195Y045304D01*
X072011Y045365D01*
X072044Y045445D01*
Y045531D01*
X072011Y04561D01*
X07195Y045671D01*
X071871Y045704D01*
D02*
G37*
G36*
X071132D02*
X071046D01*
X070966Y045671D01*
X070905Y04561D01*
X070872Y045531D01*
Y045445D01*
X070905Y045365D01*
X070966Y045304D01*
X071046Y045271D01*
X071132D01*
X071211Y045304D01*
X071272Y045365D01*
X071305Y045445D01*
Y045531D01*
X071272Y04561D01*
X071211Y045671D01*
X071132Y045704D01*
D02*
G37*
G36*
X081456Y045503D02*
X081369D01*
X08129Y04547D01*
X081229Y04541D01*
X081196Y04533D01*
Y045244D01*
X081214Y045201D01*
X081161Y045137D01*
X081075D01*
X081023Y045201D01*
X08104Y045244D01*
Y04533D01*
X081007Y04541D01*
X080947Y04547D01*
X080867Y045503D01*
X080781D01*
X080701Y04547D01*
X08064Y04541D01*
X080607Y04533D01*
Y045244D01*
X080625Y045201D01*
X080573Y045137D01*
X080487D01*
X080407Y045104D01*
X080346Y045043D01*
X080313Y044964D01*
Y044878D01*
X080346Y044798D01*
X080407Y044737D01*
X080487Y044704D01*
X080573D01*
X080652Y044737D01*
X080713Y044798D01*
X080746Y044878D01*
Y044964D01*
X080728Y045007D01*
X080781Y04507D01*
X080867D01*
X080919Y045007D01*
X080902Y044964D01*
Y044878D01*
X080935Y044798D01*
X080996Y044737D01*
X081075Y044704D01*
X081161D01*
X081241Y044737D01*
X081302Y044798D01*
X081387Y044798D01*
X081402Y044782D01*
X081482Y044749D01*
X081568D01*
X081647Y044782D01*
X081708Y044843D01*
X081741Y044923D01*
Y045009D01*
X081708Y045089D01*
X081647Y04515D01*
X081598Y04517D01*
X081629Y045244D01*
Y04533D01*
X081596Y04541D01*
X081535Y04547D01*
X081456Y045503D01*
D02*
G37*
G36*
X07261Y045704D02*
X072524D01*
X072444Y045671D01*
X072383Y04561D01*
X07235Y045531D01*
Y045445D01*
X072383Y045365D01*
X072444Y045304D01*
X072524Y045271D01*
X07261D01*
X072634Y045281D01*
X072688Y045227D01*
X072681Y045148D01*
X072615Y045098D01*
X072613Y045098D01*
X072575Y045114D01*
X072488D01*
X072409Y045081D01*
X072348Y04502D01*
X072315Y04494D01*
Y044854D01*
X072348Y044774D01*
X072409Y044714D01*
X072488Y044681D01*
X072575D01*
X072654Y044714D01*
X072715Y044774D01*
X072748Y044854D01*
Y044902D01*
X072819Y044956D01*
X072821Y044956D01*
X07286Y04494D01*
X072946D01*
X073025Y044973D01*
X073086Y045034D01*
X073119Y045114D01*
Y0452D01*
X073086Y04528D01*
X073025Y045341D01*
X072946Y045373D01*
X07286D01*
X072835Y045363D01*
X072775Y045424D01*
X072784Y045445D01*
Y045531D01*
X072751Y04561D01*
X07269Y045671D01*
X07261Y045704D01*
D02*
G37*
G36*
X068333Y045174D02*
X068247D01*
X068168Y045141D01*
X068107Y045081D01*
X068074Y045001D01*
Y044915D01*
X068107Y044835D01*
X068168Y044774D01*
X068247Y044741D01*
X068333D01*
X068413Y044774D01*
X068474Y044835D01*
X068507Y044915D01*
Y045001D01*
X068474Y045081D01*
X068413Y045141D01*
X068333Y045174D01*
D02*
G37*
G36*
X071835Y045114D02*
X071749D01*
X07167Y045081D01*
X071609Y04502D01*
X071576Y04494D01*
Y044854D01*
X071609Y044774D01*
X07167Y044714D01*
X071749Y044681D01*
X071835D01*
X071915Y044714D01*
X071976Y044774D01*
X072009Y044854D01*
Y04494D01*
X071976Y04502D01*
X071915Y045081D01*
X071835Y045114D01*
D02*
G37*
G36*
X071096D02*
X07101D01*
X070931Y045081D01*
X07087Y04502D01*
X070837Y04494D01*
Y044854D01*
X07087Y044774D01*
X070931Y044714D01*
X07101Y044681D01*
X071096D01*
X071176Y044714D01*
X071237Y044774D01*
X07127Y044854D01*
Y04494D01*
X071237Y04502D01*
X071176Y045081D01*
X071096Y045114D01*
D02*
G37*
G36*
X070357D02*
X070271D01*
X070191Y045081D01*
X07013Y04502D01*
X070097Y04494D01*
Y044854D01*
X07013Y044774D01*
X070191Y044714D01*
X070271Y044681D01*
X070357D01*
X070437Y044714D01*
X070498Y044774D01*
X070531Y044854D01*
Y04494D01*
X070498Y04502D01*
X070437Y045081D01*
X070357Y045114D01*
D02*
G37*
G36*
X072806Y044634D02*
X07272D01*
X07264Y044601D01*
X072579Y04454D01*
X072546Y044461D01*
Y044443D01*
X072512Y044421D01*
X072467Y044404D01*
X072398Y044433D01*
X072312D01*
X072233Y0444D01*
X072172Y044339D01*
X072161Y044313D01*
X072134Y04426D01*
X072066Y044274D01*
X072048Y044281D01*
X071962D01*
X071882Y044248D01*
X071821Y044187D01*
X071788Y044108D01*
Y044021D01*
X071821Y043942D01*
X071882Y043881D01*
X071962Y043848D01*
X072048D01*
X072128Y043881D01*
X072189Y043942D01*
X072199Y043968D01*
X072226Y04402D01*
X072294Y044007D01*
X072312Y043999D01*
X072398D01*
X072478Y044032D01*
X072539Y044093D01*
X072572Y044173D01*
Y044191D01*
X072606Y044212D01*
X072651Y04423D01*
X07272Y044201D01*
X072806D01*
X072885Y044234D01*
X072946Y044295D01*
X072979Y044374D01*
Y044461D01*
X072946Y04454D01*
X072885Y044601D01*
X072806Y044634D01*
D02*
G37*
G36*
X068977Y0442D02*
X068891D01*
X068811Y044167D01*
X068751Y044106D01*
X068718Y044027D01*
Y043941D01*
X068751Y043861D01*
X068811Y0438D01*
X068891Y043767D01*
X068977D01*
X069057Y0438D01*
X069118Y043861D01*
X069151Y043941D01*
Y044027D01*
X069118Y044106D01*
X069057Y044167D01*
X068977Y0442D01*
D02*
G37*
G36*
X067522Y04359D02*
X067436D01*
X067357Y043557D01*
X067296Y043496D01*
X067263Y043417D01*
Y04333D01*
X067296Y043251D01*
X067357Y04319D01*
X067436Y043157D01*
X067522D01*
X067602Y04319D01*
X067663Y043251D01*
X067696Y04333D01*
Y043417D01*
X067663Y043496D01*
X067602Y043557D01*
X067522Y04359D01*
D02*
G37*
G36*
X07877Y04337D02*
X078684D01*
X078605Y043337D01*
X078544Y043276D01*
X078511Y043196D01*
Y04311D01*
X078544Y04303D01*
X078605Y042969D01*
X078684Y042936D01*
X07877D01*
X07885Y042969D01*
X078911Y04303D01*
X078944Y04311D01*
Y043196D01*
X078911Y043276D01*
X07885Y043337D01*
X07877Y04337D01*
D02*
G37*
G36*
X080085Y04333D02*
X079999D01*
X07992Y043297D01*
X079859Y043236D01*
X079826Y043157D01*
Y043071D01*
X079859Y042991D01*
X07992Y04293D01*
X079999Y042897D01*
X080085D01*
X080165Y04293D01*
X080226Y042991D01*
X080259Y043071D01*
Y043157D01*
X080226Y043236D01*
X080165Y043297D01*
X080085Y04333D01*
D02*
G37*
G36*
X07043Y043242D02*
X070344D01*
X070264Y043209D01*
X070203Y043148D01*
X07017Y043068D01*
Y042982D01*
X070203Y042902D01*
X070264Y042842D01*
X070344Y042809D01*
X07043D01*
X07051Y042842D01*
X07057Y042902D01*
X070603Y042982D01*
Y043068D01*
X07057Y043148D01*
X07051Y043209D01*
X07043Y043242D01*
D02*
G37*
G36*
X079377Y043043D02*
X079291D01*
X079211Y04301D01*
X07915Y042949D01*
X079117Y042869D01*
Y042783D01*
X07915Y042704D01*
X079211Y042643D01*
X079291Y04261D01*
X079377D01*
X079456Y042643D01*
X079517Y042704D01*
X07955Y042783D01*
Y042869D01*
X079517Y042949D01*
X079456Y04301D01*
X079377Y043043D01*
D02*
G37*
G36*
X067317Y042779D02*
X06723D01*
X067151Y042746D01*
X06709Y042685D01*
X067057Y042606D01*
Y042519D01*
X06709Y04244D01*
X067151Y042379D01*
X06723Y042346D01*
X067317D01*
X067396Y042379D01*
X067457Y04244D01*
X06749Y042519D01*
Y042606D01*
X067457Y042685D01*
X067396Y042746D01*
X067317Y042779D01*
D02*
G37*
G36*
X07679Y042118D02*
X076704D01*
X076624Y042085D01*
X076564Y042024D01*
X076531Y041944D01*
Y041858D01*
X076564Y041778D01*
X076624Y041717D01*
X076704Y041685D01*
X07679D01*
X07687Y041717D01*
X076931Y041778D01*
X076964Y041858D01*
Y041944D01*
X076931Y042024D01*
X07687Y042085D01*
X07679Y042118D01*
D02*
G37*
G36*
X080928Y041629D02*
X080842D01*
X080762Y041596D01*
X080733Y041567D01*
X080682Y041544D01*
X08063Y041567D01*
X080601Y041596D01*
X080522Y041629D01*
X080436D01*
X080356Y041596D01*
X080327Y041567D01*
X080276Y041544D01*
X080224Y041567D01*
X080195Y041596D01*
X080116Y041629D01*
X08003D01*
X07995Y041596D01*
X0799Y041546D01*
X07985Y041596D01*
X07977Y041629D01*
X079684D01*
X079605Y041596D01*
X079582Y041574D01*
X079559Y041596D01*
X07948Y041629D01*
X079393D01*
X079314Y041596D01*
X079291Y041574D01*
X079268Y041596D01*
X079189Y041629D01*
X079102D01*
X079023Y041596D01*
X079Y041574D01*
X078977Y041596D01*
X078898Y041629D01*
X078811D01*
X078732Y041596D01*
X078703Y041567D01*
X078651Y041544D01*
X0786Y041567D01*
X078571Y041596D01*
X078492Y041629D01*
X078405D01*
X078326Y041596D01*
X078265Y041536D01*
X078232Y041456D01*
Y04137D01*
X078265Y04129D01*
X07831Y041246D01*
X078253Y041189D01*
X07822Y041109D01*
Y041023D01*
X078253Y040944D01*
X078256Y04094D01*
X078256Y04083D01*
X078249Y040823D01*
X078216Y040743D01*
Y040657D01*
X078249Y040578D01*
X07831Y040517D01*
X07839Y040484D01*
X078476D01*
X078555Y040517D01*
X078584Y040546D01*
X078636Y040569D01*
X078687Y040546D01*
X078716Y040517D01*
X078796Y040484D01*
X078882D01*
X078961Y040517D01*
X078994Y040549D01*
X079027Y040517D01*
X079106Y040484D01*
X079192D01*
X079272Y040517D01*
X079305Y040549D01*
X079337Y040517D01*
X079417Y040484D01*
X079503D01*
X079583Y040517D01*
X079615Y040549D01*
X079648Y040517D01*
X079728Y040484D01*
X079814D01*
X079893Y040517D01*
X079914Y040537D01*
X079934Y040517D01*
X080014Y040484D01*
X0801D01*
X08018Y040517D01*
X080209Y040546D01*
X08026Y040569D01*
X080311Y040546D01*
X08034Y040517D01*
X08042Y040484D01*
X080506D01*
X080586Y040517D01*
X080615Y040546D01*
X080666Y040569D01*
X080718Y040546D01*
X080746Y040517D01*
X080826Y040484D01*
X080912D01*
X080992Y040517D01*
X081053Y040578D01*
X081086Y040657D01*
Y040743D01*
X081053Y040823D01*
X081049Y040826D01*
X08105Y040937D01*
X081057Y040944D01*
X08109Y041023D01*
Y041109D01*
X081057Y041189D01*
X081012Y041234D01*
X081068Y04129D01*
X081101Y04137D01*
Y041456D01*
X081068Y041536D01*
X081008Y041596D01*
X080928Y041629D01*
D02*
G37*
G36*
X075928Y041401D02*
X075842D01*
X075762Y041368D01*
X075701Y041307D01*
X075668Y041228D01*
Y041141D01*
X075701Y041062D01*
X075762Y041001D01*
X075842Y040968D01*
X075928D01*
X076008Y041001D01*
X076068Y041062D01*
X076101Y041141D01*
Y041228D01*
X076068Y041307D01*
X076008Y041368D01*
X075928Y041401D01*
D02*
G37*
G36*
X077873Y04115D02*
X077787D01*
X077708Y041117D01*
X077647Y041056D01*
X077614Y040977D01*
Y040891D01*
X077647Y040811D01*
X077695Y040763D01*
X07768Y040702D01*
X077671Y040685D01*
X077629D01*
X07755Y040652D01*
X077512Y040614D01*
X077424Y040622D01*
X077423Y040622D01*
X077415Y040629D01*
X077381Y040698D01*
X077442Y040759D01*
X077475Y040838D01*
Y040925D01*
X077442Y041004D01*
X077381Y041065D01*
X077302Y041098D01*
X077215D01*
X077136Y041065D01*
X077075Y041004D01*
X077042Y040925D01*
Y040838D01*
X077075Y040759D01*
X077082Y040752D01*
X077117Y040683D01*
X077056Y040622D01*
X077023Y040543D01*
Y040456D01*
X077056Y040377D01*
X077117Y040316D01*
X077196Y040283D01*
X077282D01*
X077362Y040316D01*
X0774Y040354D01*
X077488Y040346D01*
X077489Y040345D01*
X07755Y040284D01*
X077629Y040251D01*
X077715D01*
X077795Y040284D01*
X077856Y040345D01*
X077889Y040425D01*
Y040511D01*
X077856Y040591D01*
X077808Y040639D01*
X077822Y0407D01*
X077832Y040717D01*
X077873D01*
X077953Y04075D01*
X078014Y040811D01*
X078047Y040891D01*
Y040977D01*
X078014Y041056D01*
X077953Y041117D01*
X077873Y04115D01*
D02*
G37*
G36*
X074815Y0412D02*
X074729D01*
X074649Y041167D01*
X074588Y041106D01*
X074555Y041026D01*
Y04094D01*
X074588Y04086D01*
X074649Y040799D01*
X074729Y040767D01*
X074757D01*
X07482Y040731D01*
X074826Y040694D01*
Y040641D01*
X074859Y040562D01*
X07492Y040501D01*
X074999Y040468D01*
X075085D01*
X075165Y040501D01*
X075226Y040562D01*
X075259Y040641D01*
Y040728D01*
X075226Y040807D01*
X075165Y040868D01*
X075085Y040901D01*
X075057D01*
X074994Y040937D01*
X074988Y040974D01*
Y041026D01*
X074955Y041106D01*
X074894Y041167D01*
X074815Y0412D01*
D02*
G37*
G36*
X069931Y040742D02*
X069845D01*
X069765Y040709D01*
X069704Y040648D01*
X069671Y040569D01*
Y040482D01*
X069704Y040403D01*
X069765Y040342D01*
X069845Y040309D01*
X069931D01*
X070011Y040342D01*
X070071Y040403D01*
X070104Y040482D01*
Y040569D01*
X070071Y040648D01*
X070011Y040709D01*
X069931Y040742D01*
D02*
G37*
G36*
X076021Y04082D02*
X075935D01*
X075855Y040787D01*
X075794Y040726D01*
X075761Y040646D01*
Y04056D01*
X07577Y04054D01*
X07578Y040459D01*
X075719Y040398D01*
X075686Y040318D01*
Y040232D01*
X075719Y040152D01*
X07578Y040092D01*
X07586Y040059D01*
X075946D01*
X076025Y040092D01*
X076086Y040152D01*
X076119Y040232D01*
Y040318D01*
X076111Y040339D01*
X0761Y04042D01*
X076161Y040481D01*
X076194Y04056D01*
Y040646D01*
X076161Y040726D01*
X0761Y040787D01*
X076021Y04082D01*
D02*
G37*
G36*
X073204Y040692D02*
X073117D01*
X073038Y040659D01*
X072977Y040599D01*
X072944Y040519D01*
Y040433D01*
X072977Y040353D01*
X07299Y04034D01*
X072985Y040335D01*
X072952Y040255D01*
Y040169D01*
X072985Y040089D01*
X073046Y040029D01*
X073125Y039996D01*
X073211D01*
X073291Y040029D01*
X073352Y040089D01*
X073385Y040169D01*
Y040255D01*
X073352Y040335D01*
X073339Y040348D01*
X073344Y040353D01*
X073377Y040433D01*
Y040519D01*
X073344Y040599D01*
X073283Y040659D01*
X073204Y040692D01*
D02*
G37*
G36*
X077769Y040094D02*
X077683D01*
X077604Y040061D01*
X077543Y04D01*
X07751Y03992D01*
Y039834D01*
X077543Y039755D01*
X077604Y039694D01*
X077683Y039661D01*
X077769D01*
X077849Y039694D01*
X07791Y039755D01*
X077943Y039834D01*
Y03992D01*
X07791Y04D01*
X077849Y040061D01*
X077769Y040094D01*
D02*
G37*
G36*
X069141Y039803D02*
X069054D01*
X068975Y03977D01*
X068914Y039709D01*
X068881Y039629D01*
Y039543D01*
X068914Y039463D01*
X068975Y039403D01*
X069054Y03937D01*
X069141D01*
X06922Y039403D01*
X069281Y039463D01*
X069314Y039543D01*
Y039629D01*
X069281Y039709D01*
X06922Y03977D01*
X069141Y039803D01*
D02*
G37*
G36*
X076743Y039704D02*
X076657D01*
X076577Y039671D01*
X076516Y03961D01*
X076483Y039531D01*
Y039445D01*
X076516Y039365D01*
X076577Y039304D01*
X076657Y039271D01*
X076743D01*
X076823Y039304D01*
X076883Y039365D01*
X076916Y039445D01*
Y039531D01*
X076883Y03961D01*
X076823Y039671D01*
X076743Y039704D01*
D02*
G37*
G36*
X081345Y039688D02*
X081259D01*
X08118Y039655D01*
X081119Y039595D01*
X081086Y039515D01*
Y039429D01*
X081119Y039349D01*
X08118Y039288D01*
X081259Y039255D01*
X081345D01*
X081425Y039288D01*
X081486Y039349D01*
X081519Y039429D01*
Y039515D01*
X081486Y039595D01*
X081425Y039655D01*
X081345Y039688D01*
D02*
G37*
G36*
X07593Y039667D02*
X075844D01*
X075764Y039634D01*
X075703Y039573D01*
X07567Y039493D01*
Y039407D01*
X075703Y039328D01*
X075764Y039267D01*
X075844Y039234D01*
X07593D01*
X07601Y039267D01*
X07607Y039328D01*
X076103Y039407D01*
Y039493D01*
X07607Y039573D01*
X07601Y039634D01*
X07593Y039667D01*
D02*
G37*
G36*
X07198Y0396D02*
X071894D01*
X071814Y039567D01*
X071753Y039506D01*
X07172Y039426D01*
Y03934D01*
X071753Y039261D01*
X071814Y0392D01*
X071819Y039198D01*
Y039112D01*
X071813Y03911D01*
X071752Y039049D01*
X07172Y038969D01*
Y038883D01*
X071752Y038804D01*
X071813Y038743D01*
X071893Y03871D01*
X071979D01*
X072059Y038743D01*
X07212Y038804D01*
X072153Y038883D01*
Y038969D01*
X07212Y039049D01*
X072059Y03911D01*
X072054Y039112D01*
Y039197D01*
X072059Y0392D01*
X07212Y039261D01*
X072153Y03934D01*
Y039426D01*
X07212Y039506D01*
X072059Y039567D01*
X07198Y0396D01*
D02*
G37*
G36*
X071246D02*
X07116D01*
X07108Y039567D01*
X071019Y039506D01*
X070986Y039426D01*
Y03934D01*
X071019Y039261D01*
X07108Y0392D01*
X071086Y039197D01*
Y039112D01*
X07108Y03911D01*
X071019Y039049D01*
X070986Y038969D01*
Y038883D01*
X071019Y038804D01*
X07108Y038743D01*
X07116Y03871D01*
X071246D01*
X071326Y038743D01*
X071386Y038804D01*
X071419Y038883D01*
Y038969D01*
X071386Y039049D01*
X071326Y03911D01*
X07132Y039112D01*
Y039197D01*
X071326Y0392D01*
X071386Y039261D01*
X071419Y03934D01*
Y039426D01*
X071386Y039506D01*
X071326Y039567D01*
X071246Y0396D01*
D02*
G37*
G36*
X07295Y039553D02*
X072864D01*
X072784Y03952D01*
X072723Y039459D01*
X07269Y03938D01*
Y039293D01*
X072723Y039214D01*
X072784Y039153D01*
X072864Y03912D01*
X072917D01*
X072971Y039059D01*
X072975Y039047D01*
Y038968D01*
X073008Y038889D01*
X073026Y038871D01*
X073008Y038778D01*
X072997Y038773D01*
X072936Y038712D01*
X072903Y038633D01*
Y038546D01*
X072936Y038467D01*
X072997Y038406D01*
X073076Y038373D01*
X073163D01*
X073242Y038406D01*
X073303Y038467D01*
X073336Y038546D01*
Y038633D01*
X073303Y038712D01*
X073285Y03873D01*
X073303Y038823D01*
X073315Y038828D01*
X073376Y038889D01*
X073409Y038968D01*
Y039054D01*
X073376Y039134D01*
X073315Y039195D01*
X073235Y039228D01*
X073181D01*
X073127Y039289D01*
X073123Y039301D01*
Y03938D01*
X07309Y039459D01*
X073029Y03952D01*
X07295Y039553D01*
D02*
G37*
G36*
X080156Y038696D02*
X08007D01*
X079991Y038663D01*
X07993Y038602D01*
X079897Y038523D01*
Y038437D01*
X07993Y038357D01*
X079991Y038296D01*
X08007Y038263D01*
X080156D01*
X080236Y038296D01*
X080297Y038357D01*
X08033Y038437D01*
Y038523D01*
X080297Y038602D01*
X080236Y038663D01*
X080156Y038696D01*
D02*
G37*
G36*
X069782Y038639D02*
X069696D01*
X069617Y038606D01*
X069556Y038545D01*
X069523Y038465D01*
Y038379D01*
X069556Y0383D01*
X069617Y038239D01*
X069696Y038206D01*
X069782D01*
X069862Y038239D01*
X069923Y0383D01*
X069956Y038379D01*
Y038465D01*
X069923Y038545D01*
X069862Y038606D01*
X069782Y038639D01*
D02*
G37*
G36*
X069167Y038381D02*
X06908D01*
X069001Y038348D01*
X06894Y038287D01*
X068907Y038208D01*
Y038122D01*
X06894Y038042D01*
X069001Y037981D01*
X06908Y037948D01*
X069167D01*
X069246Y037981D01*
X069307Y038042D01*
X06934Y038122D01*
Y038208D01*
X069307Y038287D01*
X069246Y038348D01*
X069167Y038381D01*
D02*
G37*
G36*
X071672Y037908D02*
X071586D01*
X071506Y037875D01*
X071445Y037814D01*
X071412Y037734D01*
Y037648D01*
X071445Y037569D01*
X071506Y037508D01*
X071586Y037475D01*
X071672D01*
X071752Y037508D01*
X071813Y037569D01*
X071846Y037648D01*
Y037734D01*
X071813Y037814D01*
X071752Y037875D01*
X071672Y037908D01*
D02*
G37*
G36*
X073148Y038147D02*
X073062D01*
X072983Y038114D01*
X072922Y038053D01*
X072889Y037974D01*
Y037888D01*
X072897Y037868D01*
X072831Y037841D01*
X07277Y03778D01*
X072737Y0377D01*
Y037614D01*
X07277Y037534D01*
X072831Y037473D01*
X072911Y03744D01*
X072997D01*
X073076Y037473D01*
X073137Y037534D01*
X07317Y037614D01*
Y0377D01*
X073162Y03772D01*
X073228Y037747D01*
X073289Y037808D01*
X073322Y037888D01*
Y037974D01*
X073289Y038053D01*
X073228Y038114D01*
X073148Y038147D01*
D02*
G37*
G36*
X080948Y037551D02*
X080862D01*
X080782Y037518D01*
X080721Y037457D01*
X080688Y037377D01*
Y037291D01*
X080721Y037211D01*
X08074Y037193D01*
X080775Y037141D01*
X08074Y03709D01*
X080721Y037071D01*
X080688Y036991D01*
Y036905D01*
X080721Y036826D01*
X080782Y036765D01*
X080862Y036732D01*
X080948D01*
X081027Y036765D01*
X081088Y036826D01*
X081121Y036905D01*
Y036991D01*
X081088Y037071D01*
X081069Y03709D01*
X081034Y037141D01*
X081069Y037193D01*
X081088Y037211D01*
X081121Y037291D01*
Y037377D01*
X081088Y037457D01*
X081027Y037518D01*
X080948Y037551D01*
D02*
G37*
G36*
X074987Y035381D02*
X074901D01*
X074821Y035348D01*
X07476Y035287D01*
X074727Y035208D01*
Y035122D01*
X07476Y035042D01*
X074821Y034981D01*
X074901Y034948D01*
X074987D01*
X075067Y034981D01*
X075128Y035042D01*
X07516Y035122D01*
Y035208D01*
X075128Y035287D01*
X075067Y035348D01*
X074987Y035381D01*
D02*
G37*
G36*
X067825Y035064D02*
X067392D01*
Y034631D01*
X067825D01*
Y035064D01*
D02*
G37*
G36*
X06829Y034905D02*
X068204D01*
X068124Y034872D01*
X068064Y034811D01*
X068031Y034732D01*
Y034645D01*
X068064Y034566D01*
X068124Y034505D01*
X068204Y034472D01*
X06829D01*
X06837Y034505D01*
X068431Y034566D01*
X068464Y034645D01*
Y034732D01*
X068431Y034811D01*
X06837Y034872D01*
X06829Y034905D01*
D02*
G37*
G36*
X075257Y034397D02*
X075171D01*
X075091Y034364D01*
X07503Y034303D01*
X074997Y034224D01*
Y034138D01*
X07503Y034058D01*
X075091Y033997D01*
X075171Y033964D01*
X075257D01*
X075336Y033997D01*
X075397Y034058D01*
X07543Y034138D01*
Y034224D01*
X075397Y034303D01*
X075336Y034364D01*
X075257Y034397D01*
D02*
G37*
G36*
X067825Y034395D02*
X067392D01*
Y033962D01*
X067825D01*
Y034395D01*
D02*
G37*
G36*
X072778Y034362D02*
X072692D01*
X072613Y034329D01*
X072552Y034268D01*
X072519Y034188D01*
Y034102D01*
X072552Y034022D01*
X072613Y033962D01*
X072692Y033929D01*
X072778D01*
X072858Y033962D01*
X072919Y034022D01*
X072952Y034102D01*
Y034188D01*
X072919Y034268D01*
X072858Y034329D01*
X072778Y034362D01*
D02*
G37*
G36*
X0714Y034248D02*
X071314D01*
X071235Y034215D01*
X071174Y034154D01*
X071141Y034074D01*
Y033988D01*
X071174Y033908D01*
X071235Y033847D01*
X071314Y033814D01*
X0714D01*
X07148Y033847D01*
X071541Y033908D01*
X071574Y033988D01*
Y034074D01*
X071541Y034154D01*
X07148Y034215D01*
X0714Y034248D01*
D02*
G37*
G36*
X068243Y033988D02*
X068157D01*
X068077Y033955D01*
X068016Y033894D01*
X067983Y033814D01*
Y033728D01*
X068016Y033648D01*
X068077Y033588D01*
X068157Y033555D01*
X068243D01*
X068323Y033588D01*
X068383Y033648D01*
X068416Y033728D01*
Y033814D01*
X068383Y033894D01*
X068323Y033955D01*
X068243Y033988D01*
D02*
G37*
G36*
X076806Y033669D02*
X07672D01*
X07664Y033636D01*
X076579Y033575D01*
X076546Y033495D01*
Y033409D01*
X076579Y03333D01*
X07664Y033269D01*
X07672Y033236D01*
X076806D01*
X076886Y033269D01*
X076946Y03333D01*
X076979Y033409D01*
Y033495D01*
X076946Y033575D01*
X076886Y033636D01*
X076806Y033669D01*
D02*
G37*
G36*
X069211Y032952D02*
X069125D01*
X069046Y032919D01*
X068985Y032858D01*
X068952Y032779D01*
Y032693D01*
X068985Y032613D01*
X069046Y032552D01*
X069125Y032519D01*
X069211D01*
X069291Y032552D01*
X069352Y032613D01*
X069385Y032693D01*
Y032779D01*
X069352Y032858D01*
X069291Y032919D01*
X069211Y032952D01*
D02*
G37*
G36*
X076743Y032551D02*
X076657D01*
X076577Y032518D01*
X076516Y032457D01*
X076483Y032377D01*
Y032291D01*
X076516Y032211D01*
X076577Y032151D01*
X076657Y032118D01*
X076743D01*
X076823Y032151D01*
X076883Y032211D01*
X076916Y032291D01*
Y032377D01*
X076883Y032457D01*
X076823Y032518D01*
X076743Y032551D01*
D02*
G37*
G36*
X076213Y032249D02*
X076127D01*
X076048Y032217D01*
X075987Y032156D01*
X075954Y032076D01*
Y03199D01*
X075987Y03191D01*
X076048Y031849D01*
X076127Y031816D01*
X076213D01*
X076293Y031849D01*
X076354Y03191D01*
X076387Y03199D01*
Y032076D01*
X076354Y032156D01*
X076293Y032217D01*
X076213Y032249D01*
D02*
G37*
G36*
X069873Y032118D02*
X069787D01*
X069707Y032085D01*
X069646Y032024D01*
X069613Y031944D01*
Y031858D01*
X069646Y031778D01*
X069707Y031717D01*
X069787Y031685D01*
X069873D01*
X069952Y031717D01*
X070013Y031778D01*
X070046Y031858D01*
Y031944D01*
X070013Y032024D01*
X069952Y032085D01*
X069873Y032118D01*
D02*
G37*
G36*
X07433Y031964D02*
X074243D01*
X074164Y031931D01*
X074103Y03187D01*
X07407Y031791D01*
Y031704D01*
X074103Y031625D01*
X074164Y031564D01*
X074243Y031531D01*
X07433D01*
X074409Y031564D01*
X07447Y031625D01*
X074503Y031704D01*
Y031791D01*
X07447Y03187D01*
X074409Y031931D01*
X07433Y031964D01*
D02*
G37*
G36*
X071774Y03146D02*
X071688D01*
X071609Y031427D01*
X071548Y031366D01*
X071515Y031287D01*
Y0312D01*
X071548Y031121D01*
X071609Y03106D01*
X071688Y031027D01*
X071774D01*
X071854Y03106D01*
X071915Y031121D01*
X071948Y0312D01*
Y031287D01*
X071915Y031366D01*
X071854Y031427D01*
X071774Y03146D01*
D02*
G37*
G36*
X070857Y031397D02*
X070771D01*
X070691Y031364D01*
X07063Y031303D01*
X070597Y031224D01*
Y031138D01*
X07063Y031058D01*
X070691Y030997D01*
X070771Y030964D01*
X070857D01*
X070937Y030997D01*
X070998Y031058D01*
X071031Y031138D01*
Y031224D01*
X070998Y031303D01*
X070937Y031364D01*
X070857Y031397D01*
D02*
G37*
G36*
X08118Y030692D02*
X081094D01*
X081014Y030659D01*
X080966Y030611D01*
X080917Y030659D01*
X080837Y030692D01*
X080751D01*
X080672Y030659D01*
X080631Y030619D01*
X08059Y030659D01*
X080511Y030692D01*
X080424D01*
X080345Y030659D01*
X080284Y030599D01*
X080251Y030519D01*
Y030433D01*
X080284Y030353D01*
X080345Y030292D01*
X080424Y030259D01*
X080511D01*
X08059Y030292D01*
X080631Y030333D01*
X080672Y030292D01*
X080751Y030259D01*
X080837D01*
X080917Y030292D01*
X080966Y030341D01*
X081014Y030292D01*
X081094Y030259D01*
X08118D01*
X08126Y030292D01*
X08132Y030353D01*
X081353Y030433D01*
Y030519D01*
X08132Y030599D01*
X08126Y030659D01*
X08118Y030692D01*
D02*
G37*
G36*
X076042Y031334D02*
X075956D01*
X075876Y031301D01*
X075816Y03124D01*
X075783Y031161D01*
Y031075D01*
X075816Y030995D01*
X075833Y030978D01*
X075792Y030937D01*
X075759Y030858D01*
Y030771D01*
X075792Y030692D01*
X075853Y030631D01*
X075932Y030598D01*
X076019D01*
X076098Y030631D01*
X076159Y030692D01*
X076192Y030771D01*
Y030858D01*
X076159Y030937D01*
X076142Y030954D01*
X076183Y030995D01*
X076216Y031075D01*
Y031161D01*
X076183Y03124D01*
X076122Y031301D01*
X076042Y031334D01*
D02*
G37*
G36*
X07118Y030429D02*
X071094D01*
X071014Y030396D01*
X070953Y030335D01*
X07092Y030255D01*
Y030169D01*
X070953Y030089D01*
X071014Y030029D01*
X071094Y029996D01*
X07118D01*
X07126Y030029D01*
X07132Y030089D01*
X071353Y030169D01*
Y030255D01*
X07132Y030335D01*
X07126Y030396D01*
X07118Y030429D01*
D02*
G37*
%LPD*%
D97*
X067273Y034513D02*
D03*
D100*
X068399Y045592D02*
D03*
X077583Y032302D02*
D03*
X066822Y049755D02*
D03*
X063826Y051096D02*
D03*
X073052Y048775D02*
D03*
X073231Y048929D02*
D03*
X073089Y041105D02*
D03*
X073187Y04142D02*
D03*
X073063Y041704D02*
D03*
X067914Y051038D02*
D03*
X076897Y046364D02*
D03*
X066517Y04573D02*
D03*
X066246D02*
D03*
X066902Y046078D02*
D03*
X061854Y047936D02*
D03*
X07692Y038366D02*
D03*
X075936Y037846D02*
D03*
X081491Y043602D02*
D03*
X073396Y036576D02*
D03*
X069462Y051043D02*
D03*
X067594Y041319D02*
D03*
X071203Y049233D02*
D03*
X069806Y032761D02*
D03*
X069747Y035445D02*
D03*
X069712Y036996D02*
D03*
X078831Y050186D02*
D03*
X079466D02*
D03*
X079148D02*
D03*
X079307Y050006D02*
D03*
X07899D02*
D03*
M02*
