M48
;Layer_Color=9474304
;FILE_FORMAT=2:4
INCH,LZ
;TYPE=PLATED
T1F00S00C0.0118
T2F00S00C0.0315
T3F00S00C0.0350
T4F00S00C0.0360
T5F00S00C0.0394
%
T01
X080468Y030476
X080794
X081137
X075975Y030814
X075999Y031118
X071731Y031244
X070814Y031181
X071137Y030212
X061906Y045259
X061251
X060596
X062561
X062988Y045287
X063643
X064298
X064953
X065608
X066263
X066246Y04573
X066517
X066902Y046078
X066716Y044988
Y044408
Y043828
Y043248
Y042668
Y042088
Y041509
Y040929
Y040349
Y039769
X067039Y039764
X067421Y039737
X067334Y038375
X066972
X066676Y03838
Y037795
Y037209
Y036624
Y036039
Y034283
Y033698
X0682Y033771
X068247Y034688
X069747Y035445
X069712Y036996
X069739Y038422
X069124Y038165
X069097Y039586
X069888Y040526
X071203Y039383
Y038926
X071936
X071937Y039383
X072907Y039337
X073192Y039011
X07312Y038589
X073105Y037931
X072954Y037657
X071629Y037691
X073396Y036576
X074944Y035165
X075214Y034181
X076763Y033452
X0767Y032334
X07617Y032033
X077583Y032302
X074286Y031748
X072735Y034145
X071357Y034031
X069806Y032761
X069168Y032736
X06983Y031901
X066203Y038773
X064203
X067594Y041319
X067273Y042562
X067479Y043373
X068934Y043984
X06829Y044958
X068399Y045592
X070349Y046007
X071089
Y045488
X071053Y044897
X071792
X071828Y045488
Y046007
X071936Y046383
X07244Y046594
X072567Y046007
Y045488
X072532Y044897
X072903Y045157
X072763Y044418
X072355Y044216
X072005Y044064
X070314Y044897
X070387Y043025
X073063Y041704
X073187Y04142
X073089Y041105
X07316Y040476
X073168Y040212
X075042Y040685
X074772Y040983
X075885Y041185
X075978Y040603
X075903Y040275
X075887Y03945
X0767Y039488
X07692Y038366
X075936Y037846
X077726Y039877
X077672Y040468
X077239Y040499
X077258Y040881
X07783Y040934
X076747Y041901
X076897Y046364
X075794Y045965
X075787Y045555
X074414Y04545
X074133Y04524
X073686Y045273
X07408Y046246
X080824Y045287
X081412
X081525Y044966
X081118Y044921
X08053
X081491Y043602
X080042Y043114
X079334Y042826
X078727Y043153
X078855Y041413
X079145
X079436
X079727
X080073
X080061Y041066
X079751
X079448
X079145
X078843
X078839Y0407
X079149
X07946
X079771
X080057
X080463
X080467Y041066
X080479Y041413
X080885
X080873Y041066
X080869Y0407
X081302Y039472
X080113Y03848
X080905Y037334
Y036948
X08166Y036996
Y037372
X081743Y033763
Y033527
X081483
Y033763
X081223
Y033527
X078433Y0407
X078437Y041066
X078448Y041413
X080393Y047011
X080997Y048116
X080987Y048346
X081247
X081252Y048116
X081507
Y048346
X080901Y049147
X080649Y051011
X080631Y051565
X080356Y051332
X080081Y051565
X079805Y051332
X07953Y051565
X079255Y051332
X078895Y051395
X078903Y051631
X078761Y051123
X078513Y050936
X078166Y051539
X078135Y051787
X078145Y052035
X078381Y053011
X078629Y053185
X078446Y053381
X078647Y053645
X078446Y053931
X078647Y054195
X078446Y054482
X078647Y054746
X078446Y055033
X078647Y055297
X078446Y055583
X079538Y051007
X080078Y051003
X080907Y051332
X081182Y051565
X081457Y051332
X081733Y051565
X079466Y050186
X079148
X078831
X07899Y050006
X079307
X077786Y050476
X077897Y051543
X075495Y050992
X074655
X073814
X073794Y050208
X072974Y050992
X072216Y051165
X072075Y052287
X072915
X073755
X074596
X075436
X075377Y053433
X074537
X073696
X072856
X072016
X072008Y054405
X072848
X073688
X074529
X075369
X075302Y055421
X074462
X073622
X072781
X071941
X071905Y056393
X07191Y056891
X072184Y059062
X073133Y059324
X074275Y059259
X077086Y059482
Y058986
Y05849
Y057995
Y057499
Y057003
Y056507
Y056011
X078072Y055775
X077086Y059978
X077054Y060405
X076628Y060831
X076201Y061258
X075775Y061685
X069551Y061799
X068322
X067092
X065862
X064633
X063403
Y060413
X064633
X065862
X067092
X068322
Y059027
X069551
X070635Y059167
X070548Y05859
X069551Y057641
X068322
X067092
X065862
X065399Y057149
X065517Y056942
X065564Y056696
X065519Y056444
X065401Y056218
X065227Y056039
X065086Y055818
X064414Y055868
Y055582
Y055296
Y05501
X064407Y054724
Y054435
X064409Y054153
X064414Y053867
Y053581
Y053296
X065092Y053244
X065097Y054104
Y054373
Y054643
Y054913
X064243Y056072
X064056Y056261
X063968Y056523
Y05681
X064046Y057049
X064222Y057261
X064438Y057405
X064688Y05749
X06496Y057466
X065202Y05734
X064633Y059027
X063403
X065862
X067092
Y056255
X068322
X069551
Y05487
X068322
X067092
X067023Y053431
X068322Y053484
X069551
X069462Y051043
X067914Y051038
X066822Y049755
X065995Y050354
Y051583
X064914Y052216
X064561
X064109Y052033
X063826Y051096
X063054Y051692
X062995Y04912
X064609Y050354
X067836Y048091
X068983Y049175
X071203Y049233
X071478Y048296
X071857
X072277Y048399
X072568Y048525
X073052Y048775
X073231Y048929
X073558Y047045
X074003Y04735
X070865Y047911
X076263Y048933
X076283Y049193
Y049423
X076523
X076543Y049193
Y048943
X061854Y047936
X062174Y051692
X060943Y051719
X060944Y053484
X062203
X062174Y05487
X060944
Y056255
X062174
Y057641
X060944
Y059027
X062174
Y060413
X060944
Y061799
X062174
X06992Y063125
X071086Y063269
X072424Y063125
X074227Y063389
X075572Y063223
X075546Y0637
X075552Y064377
X075546Y064972
X075572Y062653
T02
X067273Y034513
T03
X067273Y036513
T04
X060943Y045878
X075062Y058881
Y059891
Y060871
Y061881
X060943Y046888
T05
X064751Y056692
M30
