G04*
G04 #@! TF.GenerationSoftware,Altium Limited,Altium Designer,21.0.8 (223)*
G04*
G04 Layer_Color=2752767*
%FSTAX24Y24*%
%MOIN*%
G70*
G04*
G04 #@! TF.SameCoordinates,D94166DE-144D-4B7D-845D-6ED18FE10B1D*
G04*
G04*
G04 #@! TF.FilePolarity,Positive*
G04*
G01*
G75*
%ADD147C,0.0020*%
%ADD148C,0.0027*%
D147*
X064671Y056612D02*
Y056772D01*
X064831D01*
Y056612D01*
X064671D01*
X067273Y034433D02*
X067193Y034593D01*
X067353D01*
X067273Y034433D01*
Y036433D02*
X067313Y036473D01*
X067353D01*
X067313Y036513D01*
X067353Y036553D01*
X067313D01*
X067273Y036593D01*
X067233Y036553D01*
X067193D01*
X067233Y036513D01*
X067193Y036473D01*
X067233D01*
X067273Y036433D01*
X070468Y05851D02*
X070508Y05859D01*
X070468Y05867D01*
X070548Y05863D01*
X070628Y05867D01*
X070588Y05859D01*
X070628Y05851D01*
X070548Y05855D01*
X070468Y05851D01*
X070555Y059087D02*
X070595Y059167D01*
X070555Y059247D01*
X070635Y059207D01*
X070715Y059247D01*
X070675Y059167D01*
X070715Y059087D01*
X070635Y059127D01*
X070555Y059087D01*
X071925Y043984D02*
X071965Y044064D01*
X071925Y044144D01*
X072005Y044104D01*
X072085Y044144D01*
X072045Y044064D01*
X072085Y043984D01*
X072005Y044024D01*
X071925Y043984D01*
X068319Y045512D02*
X068359Y045592D01*
X068319Y045672D01*
X068399Y045632D01*
X068479Y045672D01*
X068439Y045592D01*
X068479Y045512D01*
X068399Y045552D01*
X068319Y045512D01*
X072874Y037577D02*
X072914Y037657D01*
X072874Y037737D01*
X072954Y037697D01*
X073034Y037737D01*
X072994Y037657D01*
X073034Y037577D01*
X072954Y037617D01*
X072874Y037577D01*
X073088Y040132D02*
X073128Y040212D01*
X073088Y040292D01*
X073168Y040252D01*
X073248Y040292D01*
X073208Y040212D01*
X073248Y040132D01*
X073168Y040172D01*
X073088Y040132D01*
X077503Y032222D02*
X077543Y032302D01*
X077503Y032382D01*
X077583Y032342D01*
X077663Y032382D01*
X077623Y032302D01*
X077663Y032222D01*
X077583Y032262D01*
X077503Y032222D01*
X067756Y048011D02*
X067796Y048091D01*
X067756Y048171D01*
X067836Y048131D01*
X067916Y048171D01*
X067876Y048091D01*
X067916Y048011D01*
X067836Y048051D01*
X067756Y048011D01*
X075707Y045475D02*
X075747Y045555D01*
X075707Y045635D01*
X075787Y045595D01*
X075867Y045635D01*
X075827Y045555D01*
X075867Y045475D01*
X075787Y045515D01*
X075707Y045475D01*
X075472Y064297D02*
X075512Y064377D01*
X075472Y064457D01*
X075552Y064417D01*
X075632Y064457D01*
X075592Y064377D01*
X075632Y064297D01*
X075552Y064337D01*
X075472Y064297D01*
X075466Y06362D02*
X075506Y0637D01*
X075466Y06378D01*
X075546Y06374D01*
X075626Y06378D01*
X075586Y0637D01*
X075626Y06362D01*
X075546Y06366D01*
X075466Y06362D01*
X062094Y051612D02*
X062134Y051692D01*
X062094Y051772D01*
X062174Y051732D01*
X062254Y051772D01*
X062214Y051692D01*
X062254Y051612D01*
X062174Y051652D01*
X062094Y051612D01*
X062123Y053404D02*
X062163Y053484D01*
X062123Y053564D01*
X062203Y053524D01*
X062283Y053564D01*
X062243Y053484D01*
X062283Y053404D01*
X062203Y053444D01*
X062123Y053404D01*
X064334Y053787D02*
X064374Y053867D01*
X064334Y053947D01*
X064414Y053907D01*
X064494Y053947D01*
X064454Y053867D01*
X064494Y053787D01*
X064414Y053827D01*
X064334Y053787D01*
Y053501D02*
X064374Y053581D01*
X064334Y053661D01*
X064414Y053621D01*
X064494Y053661D01*
X064454Y053581D01*
X064494Y053501D01*
X064414Y053541D01*
X064334Y053501D01*
X064834Y052136D02*
X064875Y052216D01*
X064834Y052296D01*
X064914Y052256D01*
X064995Y052296D01*
X064955Y052216D01*
X064995Y052136D01*
X064914Y052176D01*
X064834Y052136D01*
X064481D02*
X064521Y052216D01*
X064481Y052296D01*
X064561Y052256D01*
X064641Y052296D01*
X064601Y052216D01*
X064641Y052136D01*
X064561Y052176D01*
X064481Y052136D01*
X064329Y054073D02*
X064369Y054153D01*
X064329Y054233D01*
X064409Y054193D01*
X064489Y054233D01*
X064449Y054153D01*
X064489Y054073D01*
X064409Y054113D01*
X064329Y054073D01*
X064334Y053216D02*
X064374Y053296D01*
X064334Y053376D01*
X064414Y053336D01*
X064494Y053376D01*
X064454Y053296D01*
X064494Y053216D01*
X064414Y053256D01*
X064334Y053216D01*
X065017Y054024D02*
X065057Y054104D01*
X065017Y054184D01*
X065097Y054144D01*
X065177Y054184D01*
X065137Y054104D01*
X065177Y054024D01*
X065097Y054064D01*
X065017Y054024D01*
X064334Y055502D02*
X064374Y055582D01*
X064334Y055662D01*
X064414Y055622D01*
X064494Y055662D01*
X064454Y055582D01*
X064494Y055502D01*
X064414Y055542D01*
X064334Y055502D01*
X065012Y053164D02*
X065052Y053244D01*
X065012Y053324D01*
X065092Y053284D01*
X065172Y053324D01*
X065132Y053244D01*
X065172Y053164D01*
X065092Y053204D01*
X065012Y053164D01*
X063888Y056443D02*
X063928Y056523D01*
X063888Y056603D01*
X063968Y056563D01*
X064048Y056603D01*
X064008Y056523D01*
X064048Y056443D01*
X063968Y056483D01*
X063888Y056443D01*
X065437Y056862D02*
X065477Y056942D01*
X065437Y057022D01*
X065517Y056982D01*
X065597Y057022D01*
X065557Y056942D01*
X065597Y056862D01*
X065517Y056902D01*
X065437Y056862D01*
X064327Y054355D02*
X064367Y054435D01*
X064327Y054515D01*
X064407Y054475D01*
X064487Y054515D01*
X064447Y054435D01*
X064487Y054355D01*
X064407Y054395D01*
X064327Y054355D01*
X065439Y056364D02*
X065479Y056444D01*
X065439Y056524D01*
X065519Y056484D01*
X065599Y056524D01*
X065559Y056444D01*
X065599Y056364D01*
X065519Y056404D01*
X065439Y056364D01*
X064334Y05493D02*
X064374Y05501D01*
X064334Y05509D01*
X064414Y05505D01*
X064494Y05509D01*
X064454Y05501D01*
X064494Y05493D01*
X064414Y05497D01*
X064334Y05493D01*
Y055788D02*
X064374Y055868D01*
X064334Y055948D01*
X064414Y055908D01*
X064494Y055948D01*
X064454Y055868D01*
X064494Y055788D01*
X064414Y055828D01*
X064334Y055788D01*
X064327Y054644D02*
X064367Y054724D01*
X064327Y054804D01*
X064407Y054764D01*
X064487Y054804D01*
X064447Y054724D01*
X064487Y054644D01*
X064407Y054684D01*
X064327Y054644D01*
X063966Y056969D02*
X064006Y057049D01*
X063966Y057129D01*
X064046Y057089D01*
X064126Y057129D01*
X064086Y057049D01*
X064126Y056969D01*
X064046Y057009D01*
X063966Y056969D01*
X065017Y054833D02*
X065057Y054913D01*
X065017Y054993D01*
X065097Y054953D01*
X065177Y054993D01*
X065137Y054913D01*
X065177Y054833D01*
X065097Y054873D01*
X065017Y054833D01*
X064142Y057181D02*
X064182Y057261D01*
X064142Y057341D01*
X064222Y057301D01*
X064302Y057341D01*
X064262Y057261D01*
X064302Y057181D01*
X064222Y057221D01*
X064142Y057181D01*
X064358Y057325D02*
X064398Y057405D01*
X064358Y057485D01*
X064438Y057445D01*
X064518Y057485D01*
X064478Y057405D01*
X064518Y057325D01*
X064438Y057365D01*
X064358Y057325D01*
X065321Y056138D02*
X065361Y056218D01*
X065321Y056298D01*
X065401Y056258D01*
X065481Y056298D01*
X065441Y056218D01*
X065481Y056138D01*
X065401Y056178D01*
X065321Y056138D01*
X065147Y055959D02*
X065187Y056039D01*
X065147Y056119D01*
X065227Y056079D01*
X065307Y056119D01*
X065267Y056039D01*
X065307Y055959D01*
X065227Y055999D01*
X065147Y055959D01*
X065319Y057069D02*
X065359Y057149D01*
X065319Y057229D01*
X065399Y057189D01*
X065479Y057229D01*
X065439Y057149D01*
X065479Y057069D01*
X065399Y057109D01*
X065319Y057069D01*
X06488Y057386D02*
X06492Y057466D01*
X06488Y057546D01*
X06496Y057506D01*
X06504Y057546D01*
X065Y057466D01*
X06504Y057386D01*
X06496Y057426D01*
X06488Y057386D01*
X064163Y055992D02*
X064203Y056072D01*
X064163Y056152D01*
X064243Y056112D01*
X064323Y056152D01*
X064283Y056072D01*
X064323Y055992D01*
X064243Y056032D01*
X064163Y055992D01*
X065484Y056616D02*
X065524Y056696D01*
X065484Y056776D01*
X065564Y056736D01*
X065644Y056776D01*
X065604Y056696D01*
X065644Y056616D01*
X065564Y056656D01*
X065484Y056616D01*
X065017Y054293D02*
X065057Y054373D01*
X065017Y054453D01*
X065097Y054413D01*
X065177Y054453D01*
X065137Y054373D01*
X065177Y054293D01*
X065097Y054333D01*
X065017Y054293D01*
X063888Y05673D02*
X063928Y05681D01*
X063888Y056891D01*
X063968Y056851D01*
X064048Y056891D01*
X064008Y05681D01*
X064048Y05673D01*
X063968Y056771D01*
X063888Y05673D01*
X065122Y05726D02*
X065162Y05734D01*
X065122Y05742D01*
X065202Y05738D01*
X065282Y05742D01*
X065242Y05734D01*
X065282Y05726D01*
X065202Y0573D01*
X065122Y05726D01*
X065017Y054563D02*
X065057Y054643D01*
X065017Y054723D01*
X065097Y054683D01*
X065177Y054723D01*
X065137Y054643D01*
X065177Y054563D01*
X065097Y054603D01*
X065017Y054563D01*
X064608Y05741D02*
X064648Y05749D01*
X064608Y05757D01*
X064688Y05753D01*
X064768Y05757D01*
X064728Y05749D01*
X064768Y05741D01*
X064688Y05745D01*
X064608Y05741D01*
X065006Y055738D02*
X065046Y055818D01*
X065006Y055898D01*
X065086Y055858D01*
X065166Y055898D01*
X065126Y055818D01*
X065166Y055738D01*
X065086Y055778D01*
X065006Y055738D01*
X063976Y056181D02*
X064016Y056261D01*
X063976Y056341D01*
X064056Y056301D01*
X064136Y056341D01*
X064096Y056261D01*
X064136Y056181D01*
X064056Y056221D01*
X063976Y056181D01*
X064334Y055216D02*
X064374Y055296D01*
X064334Y055376D01*
X064414Y055336D01*
X064494Y055376D01*
X064454Y055296D01*
X064494Y055216D01*
X064414Y055256D01*
X064334Y055216D01*
X070785Y047831D02*
X070825Y047911D01*
X070785Y047991D01*
X070865Y047951D01*
X070945Y047991D01*
X070905Y047911D01*
X070945Y047831D01*
X070865Y047871D01*
X070785Y047831D01*
X07609Y031953D02*
X07613Y032033D01*
X07609Y032113D01*
X07617Y032073D01*
X07625Y032113D01*
X07621Y032033D01*
X07625Y031953D01*
X07617Y031993D01*
X07609Y031953D01*
X073053Y059244D02*
X073093Y059324D01*
X073053Y059404D01*
X073133Y059364D01*
X073213Y059404D01*
X073173Y059324D01*
X073213Y059244D01*
X073133Y059284D01*
X073053Y059244D01*
X074334Y04537D02*
X074374Y04545D01*
X074334Y04553D01*
X074414Y04549D01*
X074494Y04553D01*
X074454Y04545D01*
X074494Y04537D01*
X074414Y04541D01*
X074334Y04537D01*
X074053Y04516D02*
X074093Y04524D01*
X074053Y04532D01*
X074133Y04528D01*
X074213Y04532D01*
X074173Y04524D01*
X074213Y04516D01*
X074133Y0452D01*
X074053Y04516D01*
X074Y046166D02*
X07404Y046246D01*
X074Y046326D01*
X07408Y046286D01*
X07416Y046326D01*
X07412Y046246D01*
X07416Y046166D01*
X07408Y046206D01*
X074Y046166D01*
X075134Y034101D02*
X075174Y034181D01*
X075134Y034261D01*
X075214Y034221D01*
X075294Y034261D01*
X075254Y034181D01*
X075294Y034101D01*
X075214Y034141D01*
X075134Y034101D01*
X066742Y049675D02*
X066782Y049755D01*
X066742Y049835D01*
X066822Y049795D01*
X066902Y049835D01*
X066862Y049755D01*
X066902Y049675D01*
X066822Y049715D01*
X066742Y049675D01*
X068903Y049095D02*
X068943Y049175D01*
X068903Y049255D01*
X068983Y049215D01*
X069063Y049255D01*
X069023Y049175D01*
X069063Y049095D01*
X068983Y049135D01*
X068903Y049095D01*
X063746Y051016D02*
X063786Y051096D01*
X063746Y051176D01*
X063826Y051136D01*
X063906Y051176D01*
X063866Y051096D01*
X063906Y051016D01*
X063826Y051056D01*
X063746Y051016D01*
X072972Y048695D02*
X073012Y048775D01*
X072972Y048855D01*
X073052Y048815D01*
X073132Y048855D01*
X073092Y048775D01*
X073132Y048695D01*
X073052Y048735D01*
X072972Y048695D01*
X075823Y040195D02*
X075863Y040275D01*
X075823Y040355D01*
X075903Y040315D01*
X075983Y040355D01*
X075943Y040275D01*
X075983Y040195D01*
X075903Y040235D01*
X075823Y040195D01*
X075807Y03937D02*
X075847Y03945D01*
X075807Y03953D01*
X075887Y03949D01*
X075967Y03953D01*
X075927Y03945D01*
X075967Y03937D01*
X075887Y03941D01*
X075807Y03937D01*
X073923Y04727D02*
X073963Y04735D01*
X073923Y04743D01*
X074003Y04739D01*
X074083Y04743D01*
X074043Y04735D01*
X074083Y04727D01*
X074003Y04731D01*
X073923Y04727D01*
X075714Y045885D02*
X075754Y045965D01*
X075714Y046045D01*
X075794Y046005D01*
X075874Y046045D01*
X075834Y045965D01*
X075874Y045885D01*
X075794Y045925D01*
X075714Y045885D01*
X075898Y040523D02*
X075938Y040603D01*
X075898Y040683D01*
X075978Y040643D01*
X076058Y040683D01*
X076018Y040603D01*
X076058Y040523D01*
X075978Y040563D01*
X075898Y040523D01*
X075805Y041105D02*
X075845Y041185D01*
X075805Y041265D01*
X075885Y041225D01*
X075965Y041265D01*
X075925Y041185D01*
X075965Y041105D01*
X075885Y041145D01*
X075805Y041105D01*
X073478Y046965D02*
X073518Y047045D01*
X073478Y047125D01*
X073558Y047085D01*
X073638Y047125D01*
X073598Y047045D01*
X073638Y046965D01*
X073558Y047005D01*
X073478Y046965D01*
X073151Y048849D02*
X073191Y048929D01*
X073151Y049009D01*
X073231Y048969D01*
X073311Y049009D01*
X073271Y048929D01*
X073311Y048849D01*
X073231Y048889D01*
X073151Y048849D01*
X071549Y037611D02*
X071589Y037691D01*
X071549Y037771D01*
X071629Y037731D01*
X071709Y037771D01*
X071669Y037691D01*
X071709Y037611D01*
X071629Y037651D01*
X071549Y037611D01*
X070307Y042945D02*
X070347Y043025D01*
X070307Y043105D01*
X070387Y043065D01*
X070467Y043105D01*
X070427Y043025D01*
X070467Y042945D01*
X070387Y042985D01*
X070307Y042945D01*
X073009Y041025D02*
X073049Y041105D01*
X073009Y041185D01*
X073089Y041145D01*
X073169Y041185D01*
X073129Y041105D01*
X073169Y041025D01*
X073089Y041065D01*
X073009Y041025D01*
X073107Y04134D02*
X073147Y04142D01*
X073107Y0415D01*
X073187Y04146D01*
X073267Y0415D01*
X073227Y04142D01*
X073267Y04134D01*
X073187Y04138D01*
X073107Y04134D01*
X072983Y041624D02*
X073023Y041704D01*
X072983Y041784D01*
X073063Y041744D01*
X073143Y041784D01*
X073103Y041704D01*
X073143Y041624D01*
X073063Y041664D01*
X072983Y041624D01*
X072275Y044136D02*
X072315Y044216D01*
X072275Y044296D01*
X072355Y044256D01*
X072435Y044296D01*
X072395Y044216D01*
X072435Y044136D01*
X072355Y044176D01*
X072275Y044136D01*
X072683Y044338D02*
X072723Y044418D01*
X072683Y044498D01*
X072763Y044458D01*
X072843Y044498D01*
X072803Y044418D01*
X072843Y044338D01*
X072763Y044378D01*
X072683Y044338D01*
X072823Y045077D02*
X072863Y045157D01*
X072823Y045237D01*
X072903Y045197D01*
X072983Y045237D01*
X072943Y045157D01*
X072983Y045077D01*
X072903Y045117D01*
X072823Y045077D01*
X072488Y048445D02*
X072528Y048525D01*
X072488Y048605D01*
X072568Y048565D01*
X072648Y048605D01*
X072608Y048525D01*
X072648Y048445D01*
X072568Y048485D01*
X072488Y048445D01*
X072197Y048319D02*
X072237Y048399D01*
X072197Y048479D01*
X072277Y048439D01*
X072357Y048479D01*
X072317Y048399D01*
X072357Y048319D01*
X072277Y048359D01*
X072197Y048319D01*
X07236Y046514D02*
X0724Y046594D01*
X07236Y046674D01*
X07244Y046634D01*
X07252Y046674D01*
X07248Y046594D01*
X07252Y046514D01*
X07244Y046554D01*
X07236Y046514D01*
X071856Y046303D02*
X071896Y046383D01*
X071856Y046463D01*
X071936Y046423D01*
X072016Y046463D01*
X071976Y046383D01*
X072016Y046303D01*
X071936Y046343D01*
X071856Y046303D01*
X073606Y045193D02*
X073646Y045273D01*
X073606Y045353D01*
X073686Y045313D01*
X073766Y045353D01*
X073726Y045273D01*
X073766Y045193D01*
X073686Y045233D01*
X073606Y045193D01*
X068854Y043904D02*
X068894Y043984D01*
X068854Y044064D01*
X068934Y044024D01*
X069014Y044064D01*
X068974Y043984D01*
X069014Y043904D01*
X068934Y043944D01*
X068854Y043904D01*
X081038Y044841D02*
X081078Y044921D01*
X081038Y045001D01*
X081118Y044961D01*
X081198Y045001D01*
X081158Y044921D01*
X081198Y044841D01*
X081118Y044881D01*
X081038Y044841D01*
X077006Y055931D02*
X077046Y056011D01*
X077006Y056091D01*
X077086Y056051D01*
X077166Y056091D01*
X077126Y056011D01*
X077166Y055931D01*
X077086Y055971D01*
X077006Y055931D01*
Y056427D02*
X077046Y056507D01*
X077006Y056587D01*
X077086Y056547D01*
X077166Y056587D01*
X077126Y056507D01*
X077166Y056427D01*
X077086Y056467D01*
X077006Y056427D01*
Y056923D02*
X077046Y057003D01*
X077006Y057083D01*
X077086Y057043D01*
X077166Y057083D01*
X077126Y057003D01*
X077166Y056923D01*
X077086Y056963D01*
X077006Y056923D01*
Y057419D02*
X077046Y057499D01*
X077006Y057579D01*
X077086Y057539D01*
X077166Y057579D01*
X077126Y057499D01*
X077166Y057419D01*
X077086Y057459D01*
X077006Y057419D01*
Y057915D02*
X077046Y057995D01*
X077006Y058075D01*
X077086Y058035D01*
X077166Y058075D01*
X077126Y057995D01*
X077166Y057915D01*
X077086Y057955D01*
X077006Y057915D01*
Y05841D02*
X077046Y05849D01*
X077006Y05857D01*
X077086Y05853D01*
X077166Y05857D01*
X077126Y05849D01*
X077166Y05841D01*
X077086Y05845D01*
X077006Y05841D01*
Y058906D02*
X077046Y058986D01*
X077006Y059066D01*
X077086Y059026D01*
X077166Y059066D01*
X077126Y058986D01*
X077166Y058906D01*
X077086Y058946D01*
X077006Y058906D01*
Y059402D02*
X077046Y059482D01*
X077006Y059562D01*
X077086Y059522D01*
X077166Y059562D01*
X077126Y059482D01*
X077166Y059402D01*
X077086Y059442D01*
X077006Y059402D01*
Y059898D02*
X077046Y059978D01*
X077006Y060058D01*
X077086Y060018D01*
X077166Y060058D01*
X077126Y059978D01*
X077166Y059898D01*
X077086Y059938D01*
X077006Y059898D01*
X075695Y061605D02*
X075735Y061685D01*
X075695Y061765D01*
X075775Y061725D01*
X075855Y061765D01*
X075815Y061685D01*
X075855Y061605D01*
X075775Y061645D01*
X075695Y061605D01*
X077992Y055695D02*
X078032Y055775D01*
X077992Y055855D01*
X078072Y055815D01*
X078152Y055855D01*
X078112Y055775D01*
X078152Y055695D01*
X078072Y055735D01*
X077992Y055695D01*
X076121Y061178D02*
X076161Y061258D01*
X076121Y061338D01*
X076201Y061298D01*
X076281Y061338D01*
X076241Y061258D01*
X076281Y061178D01*
X076201Y061218D01*
X076121Y061178D01*
X076974Y060325D02*
X077014Y060405D01*
X076974Y060485D01*
X077054Y060445D01*
X077134Y060485D01*
X077094Y060405D01*
X077134Y060325D01*
X077054Y060365D01*
X076974Y060325D01*
X076548Y060752D02*
X076588Y060831D01*
X076548Y060911D01*
X076628Y060872D01*
X076708Y060911D01*
X076668Y060831D01*
X076708Y060752D01*
X076628Y060792D01*
X076548Y060752D01*
X078055Y051707D02*
X078095Y051787D01*
X078055Y051867D01*
X078135Y051827D01*
X078215Y051867D01*
X078175Y051787D01*
X078215Y051707D01*
X078135Y051747D01*
X078055Y051707D01*
X078681Y051043D02*
X078721Y051123D01*
X078681Y051203D01*
X078761Y051163D01*
X078841Y051203D01*
X078801Y051123D01*
X078841Y051043D01*
X078761Y051083D01*
X078681Y051043D01*
X077817Y051463D02*
X077857Y051543D01*
X077817Y051623D01*
X077897Y051583D01*
X077977Y051623D01*
X077937Y051543D01*
X077977Y051463D01*
X077897Y051503D01*
X077817Y051463D01*
X078815Y051315D02*
X078855Y051395D01*
X078815Y051475D01*
X078895Y051435D01*
X078975Y051475D01*
X078935Y051395D01*
X078975Y051315D01*
X078895Y051355D01*
X078815Y051315D01*
X067834Y050958D02*
X067874Y051038D01*
X067834Y051118D01*
X067914Y051078D01*
X067994Y051118D01*
X067954Y051038D01*
X067994Y050958D01*
X067914Y050998D01*
X067834Y050958D01*
X07775Y040854D02*
X07779Y040934D01*
X07775Y041014D01*
X07783Y040974D01*
X07791Y041014D01*
X07787Y040934D01*
X07791Y040854D01*
X07783Y040894D01*
X07775Y040854D01*
X062915Y04904D02*
X062955Y04912D01*
X062915Y0492D01*
X062995Y04916D01*
X063075Y0492D01*
X063035Y04912D01*
X063075Y04904D01*
X062995Y04908D01*
X062915Y04904D01*
X060864Y058947D02*
X060904Y059027D01*
X060864Y059107D01*
X060944Y059067D01*
X061024Y059107D01*
X060984Y059027D01*
X061024Y058947D01*
X060944Y058987D01*
X060864Y058947D01*
X060863Y051639D02*
X060903Y051719D01*
X060863Y051799D01*
X060943Y051759D01*
X061023Y051799D01*
X060983Y051719D01*
X061023Y051639D01*
X060943Y051679D01*
X060863Y051639D01*
X060864Y053404D02*
X060904Y053484D01*
X060864Y053564D01*
X060944Y053524D01*
X061024Y053564D01*
X060984Y053484D01*
X061024Y053404D01*
X060944Y053444D01*
X060864Y053404D01*
Y060333D02*
X060904Y060413D01*
X060864Y060493D01*
X060944Y060453D01*
X061024Y060493D01*
X060984Y060413D01*
X061024Y060333D01*
X060944Y060373D01*
X060864Y060333D01*
Y061719D02*
X060904Y061799D01*
X060864Y061879D01*
X060944Y061839D01*
X061024Y061879D01*
X060984Y061799D01*
X061024Y061719D01*
X060944Y061759D01*
X060864Y061719D01*
Y05479D02*
X060904Y05487D01*
X060864Y05495D01*
X060944Y05491D01*
X061024Y05495D01*
X060984Y05487D01*
X061024Y05479D01*
X060944Y05483D01*
X060864Y05479D01*
Y056175D02*
X060904Y056255D01*
X060864Y056335D01*
X060944Y056295D01*
X061024Y056335D01*
X060984Y056255D01*
X061024Y056175D01*
X060944Y056215D01*
X060864Y056175D01*
Y057561D02*
X060904Y057641D01*
X060864Y057721D01*
X060944Y057681D01*
X061024Y057721D01*
X060984Y057641D01*
X061024Y057561D01*
X060944Y057601D01*
X060864Y057561D01*
X07662Y032254D02*
X07666Y032334D01*
X07662Y032414D01*
X0767Y032374D01*
X07678Y032414D01*
X07674Y032334D01*
X07678Y032254D01*
X0767Y032294D01*
X07662Y032254D01*
X074195Y059179D02*
X074235Y059259D01*
X074195Y059339D01*
X074275Y059299D01*
X074355Y059339D01*
X074315Y059259D01*
X074355Y059179D01*
X074275Y059219D01*
X074195Y059179D01*
X07662Y039408D02*
X07666Y039488D01*
X07662Y039568D01*
X0767Y039528D01*
X07678Y039568D01*
X07674Y039488D01*
X07678Y039408D01*
X0767Y039448D01*
X07662Y039408D01*
X081222Y039392D02*
X081262Y039472D01*
X081222Y039552D01*
X081302Y039512D01*
X081382Y039552D01*
X081342Y039472D01*
X081382Y039392D01*
X081302Y039432D01*
X081222Y039392D01*
X079998Y050923D02*
X080038Y051003D01*
X079998Y051083D01*
X080078Y051043D01*
X080158Y051083D01*
X080118Y051003D01*
X080158Y050923D01*
X080078Y050963D01*
X079998Y050923D01*
X079254Y042746D02*
X079294Y042826D01*
X079254Y042906D01*
X079334Y042866D01*
X079414Y042906D01*
X079374Y042826D01*
X079414Y042746D01*
X079334Y042786D01*
X079254Y042746D01*
X078647Y043073D02*
X078687Y043153D01*
X078647Y043233D01*
X078727Y043193D01*
X078807Y043233D01*
X078767Y043153D01*
X078807Y043073D01*
X078727Y043113D01*
X078647Y043073D01*
X077592Y040388D02*
X077632Y040468D01*
X077592Y040548D01*
X077672Y040508D01*
X077752Y040548D01*
X077712Y040468D01*
X077752Y040388D01*
X077672Y040428D01*
X077592Y040388D01*
X077159Y040419D02*
X077199Y040499D01*
X077159Y040579D01*
X077239Y040539D01*
X077319Y040579D01*
X077279Y040499D01*
X077319Y040419D01*
X077239Y040459D01*
X077159Y040419D01*
X077178Y040801D02*
X077218Y040881D01*
X077178Y040961D01*
X077258Y040921D01*
X077338Y040961D01*
X077298Y040881D01*
X077338Y040801D01*
X077258Y040841D01*
X077178Y040801D01*
X08045Y044841D02*
X08049Y044921D01*
X08045Y045001D01*
X08053Y044961D01*
X08061Y045001D01*
X08057Y044921D01*
X08061Y044841D01*
X08053Y044881D01*
X08045Y044841D01*
X081332Y045207D02*
X081372Y045287D01*
X081332Y045367D01*
X081412Y045327D01*
X081492Y045367D01*
X081452Y045287D01*
X081492Y045207D01*
X081412Y045247D01*
X081332Y045207D01*
X080744D02*
X080784Y045287D01*
X080744Y045367D01*
X080824Y045327D01*
X080904Y045367D01*
X080864Y045287D01*
X080904Y045207D01*
X080824Y045247D01*
X080744Y045207D01*
X081445Y044886D02*
X081485Y044966D01*
X081445Y045046D01*
X081525Y045006D01*
X081605Y045046D01*
X081565Y044966D01*
X081605Y044886D01*
X081525Y044926D01*
X081445Y044886D01*
X080313Y046931D02*
X080353Y047011D01*
X080313Y047091D01*
X080393Y047051D01*
X080473Y047091D01*
X080433Y047011D01*
X080473Y046931D01*
X080393Y046971D01*
X080313Y046931D01*
X080821Y049067D02*
X080861Y049147D01*
X080821Y049227D01*
X080901Y049187D01*
X080981Y049227D01*
X080941Y049147D01*
X080981Y049067D01*
X080901Y049107D01*
X080821Y049067D01*
X080569Y050931D02*
X080609Y051011D01*
X080569Y051091D01*
X080649Y051051D01*
X080729Y051091D01*
X080689Y051011D01*
X080729Y050931D01*
X080649Y050971D01*
X080569Y050931D01*
X071825Y056313D02*
X071865Y056393D01*
X071825Y056473D01*
X071905Y056433D01*
X071985Y056473D01*
X071945Y056393D01*
X071985Y056313D01*
X071905Y056353D01*
X071825Y056313D01*
X07183Y056811D02*
X07187Y056891D01*
X07183Y056971D01*
X07191Y056931D01*
X07199Y056971D01*
X07195Y056891D01*
X07199Y056811D01*
X07191Y056851D01*
X07183Y056811D01*
X071928Y054325D02*
X071968Y054405D01*
X071928Y054485D01*
X072008Y054445D01*
X072088Y054485D01*
X072048Y054405D01*
X072088Y054325D01*
X072008Y054365D01*
X071928Y054325D01*
X071995Y052207D02*
X072035Y052287D01*
X071995Y052367D01*
X072075Y052327D01*
X072155Y052367D01*
X072115Y052287D01*
X072155Y052207D01*
X072075Y052247D01*
X071995Y052207D01*
X071936Y053353D02*
X071976Y053433D01*
X071936Y053513D01*
X072016Y053473D01*
X072096Y053513D01*
X072056Y053433D01*
X072096Y053353D01*
X072016Y053393D01*
X071936Y053353D01*
X071861Y055341D02*
X071901Y055421D01*
X071861Y055501D01*
X071941Y055461D01*
X072021Y055501D01*
X071981Y055421D01*
X072021Y055341D01*
X071941Y055381D01*
X071861Y055341D01*
X072136Y051085D02*
X072176Y051165D01*
X072136Y051245D01*
X072216Y051205D01*
X072296Y051245D01*
X072256Y051165D01*
X072296Y051085D01*
X072216Y051125D01*
X072136Y051085D01*
X06975Y031821D02*
X06979Y031901D01*
X06975Y031981D01*
X06983Y031941D01*
X06991Y031981D01*
X06987Y031901D01*
X06991Y031821D01*
X06983Y031861D01*
X06975Y031821D01*
X071277Y033951D02*
X071317Y034031D01*
X071277Y034111D01*
X071357Y034071D01*
X071437Y034111D01*
X071397Y034031D01*
X071437Y033951D01*
X071357Y033991D01*
X071277Y033951D01*
X080714Y030396D02*
X080754Y030476D01*
X080714Y030556D01*
X080794Y030516D01*
X080874Y030556D01*
X080834Y030476D01*
X080874Y030396D01*
X080794Y030436D01*
X080714Y030396D01*
X075895Y030734D02*
X075935Y030814D01*
X075895Y030894D01*
X075975Y030854D01*
X076055Y030894D01*
X076015Y030814D01*
X076055Y030734D01*
X075975Y030774D01*
X075895Y030734D01*
X076683Y033372D02*
X076723Y033452D01*
X076683Y033532D01*
X076763Y033492D01*
X076843Y033532D01*
X076803Y033452D01*
X076843Y033372D01*
X076763Y033412D01*
X076683Y033372D01*
X079458Y050927D02*
X079498Y051007D01*
X079458Y051087D01*
X079538Y051047D01*
X079618Y051087D01*
X079578Y051007D01*
X079618Y050927D01*
X079538Y050967D01*
X079458Y050927D01*
X067399Y043293D02*
X067439Y043373D01*
X067399Y043453D01*
X067479Y043413D01*
X067559Y043453D01*
X067519Y043373D01*
X067559Y043293D01*
X067479Y043333D01*
X067399Y043293D01*
X067193Y042482D02*
X067233Y042562D01*
X067193Y042642D01*
X067273Y042602D01*
X067353Y042642D01*
X067313Y042562D01*
X067353Y042482D01*
X067273Y042522D01*
X067193Y042482D01*
X06812Y033691D02*
X06816Y033771D01*
X06812Y033851D01*
X0682Y033811D01*
X06828Y033851D01*
X06824Y033771D01*
X06828Y033691D01*
X0682Y033731D01*
X06812Y033691D01*
X068167Y034608D02*
X068207Y034688D01*
X068167Y034768D01*
X068247Y034728D01*
X068327Y034768D01*
X068287Y034688D01*
X068327Y034608D01*
X068247Y034648D01*
X068167Y034608D01*
X081057Y030396D02*
X081097Y030476D01*
X081057Y030556D01*
X081137Y030516D01*
X081217Y030556D01*
X081177Y030476D01*
X081217Y030396D01*
X081137Y030436D01*
X081057Y030396D01*
X080388D02*
X080428Y030476D01*
X080388Y030556D01*
X080468Y030516D01*
X080548Y030556D01*
X080508Y030476D01*
X080548Y030396D01*
X080468Y030436D01*
X080388Y030396D01*
X071057Y030132D02*
X071097Y030212D01*
X071057Y030292D01*
X071137Y030252D01*
X071217Y030292D01*
X071177Y030212D01*
X071217Y030132D01*
X071137Y030172D01*
X071057Y030132D01*
X069088Y032656D02*
X069128Y032736D01*
X069088Y032816D01*
X069168Y032776D01*
X069248Y032816D01*
X069208Y032736D01*
X069248Y032656D01*
X069168Y032696D01*
X069088Y032656D01*
X070734Y031101D02*
X070774Y031181D01*
X070734Y031261D01*
X070814Y031221D01*
X070894Y031261D01*
X070854Y031181D01*
X070894Y031101D01*
X070814Y031141D01*
X070734Y031101D01*
X071651Y031164D02*
X071691Y031244D01*
X071651Y031324D01*
X071731Y031284D01*
X071811Y031324D01*
X071771Y031244D01*
X071811Y031164D01*
X071731Y031204D01*
X071651Y031164D01*
X075919Y031038D02*
X075959Y031118D01*
X075919Y031198D01*
X075999Y031158D01*
X076079Y031198D01*
X076039Y031118D01*
X076079Y031038D01*
X075999Y031078D01*
X075919Y031038D01*
X074864Y035085D02*
X074904Y035165D01*
X074864Y035245D01*
X074944Y035205D01*
X075024Y035245D01*
X074984Y035165D01*
X075024Y035085D01*
X074944Y035125D01*
X074864Y035085D01*
X07308Y040396D02*
X07312Y040476D01*
X07308Y040556D01*
X07316Y040516D01*
X07324Y040556D01*
X0732Y040476D01*
X07324Y040396D01*
X07316Y040436D01*
X07308Y040396D01*
X073025Y037851D02*
X073065Y037931D01*
X073025Y038011D01*
X073105Y037971D01*
X073185Y038011D01*
X073145Y037931D01*
X073185Y037851D01*
X073105Y037891D01*
X073025Y037851D01*
X069659Y038342D02*
X069699Y038422D01*
X069659Y038502D01*
X069739Y038462D01*
X069819Y038502D01*
X069779Y038422D01*
X069819Y038342D01*
X069739Y038382D01*
X069659Y038342D01*
X062974Y051612D02*
X063014Y051692D01*
X062974Y051772D01*
X063054Y051732D01*
X063134Y051772D01*
X063094Y051692D01*
X063134Y051612D01*
X063054Y051652D01*
X062974Y051612D01*
X064529Y050274D02*
X064569Y050354D01*
X064529Y050434D01*
X064609Y050394D01*
X064689Y050434D01*
X064649Y050354D01*
X064689Y050274D01*
X064609Y050314D01*
X064529Y050274D01*
X064029Y051953D02*
X064069Y052033D01*
X064029Y052113D01*
X064109Y052073D01*
X064189Y052113D01*
X064149Y052033D01*
X064189Y051953D01*
X064109Y051993D01*
X064029Y051953D01*
X065915Y050274D02*
X065955Y050354D01*
X065915Y050434D01*
X065995Y050394D01*
X066075Y050434D01*
X066035Y050354D01*
X066075Y050274D01*
X065995Y050314D01*
X065915Y050274D01*
Y051503D02*
X065955Y051583D01*
X065915Y051663D01*
X065995Y051623D01*
X066075Y051663D01*
X066035Y051583D01*
X066075Y051503D01*
X065995Y051543D01*
X065915Y051503D01*
X063323Y058947D02*
X063363Y059027D01*
X063323Y059107D01*
X063403Y059067D01*
X063483Y059107D01*
X063443Y059027D01*
X063483Y058947D01*
X063403Y058987D01*
X063323Y058947D01*
Y060333D02*
X063363Y060413D01*
X063323Y060493D01*
X063403Y060453D01*
X063483Y060493D01*
X063443Y060413D01*
X063483Y060333D01*
X063403Y060373D01*
X063323Y060333D01*
Y061719D02*
X063363Y061799D01*
X063323Y061879D01*
X063403Y061839D01*
X063483Y061879D01*
X063443Y061799D01*
X063483Y061719D01*
X063403Y061759D01*
X063323Y061719D01*
X069471Y053404D02*
X069511Y053484D01*
X069471Y053564D01*
X069551Y053524D01*
X069631Y053564D01*
X069591Y053484D01*
X069631Y053404D01*
X069551Y053444D01*
X069471Y053404D01*
X066943Y053351D02*
X066983Y053431D01*
X066943Y053511D01*
X067023Y053471D01*
X067103Y053511D01*
X067063Y053431D01*
X067103Y053351D01*
X067023Y053391D01*
X066943Y053351D01*
X068242Y053404D02*
X068282Y053484D01*
X068242Y053564D01*
X068322Y053524D01*
X068402Y053564D01*
X068362Y053484D01*
X068402Y053404D01*
X068322Y053444D01*
X068242Y053404D01*
X062094Y05479D02*
X062134Y05487D01*
X062094Y05495D01*
X062174Y05491D01*
X062254Y05495D01*
X062214Y05487D01*
X062254Y05479D01*
X062174Y05483D01*
X062094Y05479D01*
X069471D02*
X069511Y05487D01*
X069471Y05495D01*
X069551Y05491D01*
X069631Y05495D01*
X069591Y05487D01*
X069631Y05479D01*
X069551Y05483D01*
X069471Y05479D01*
X067012D02*
X067052Y05487D01*
X067012Y05495D01*
X067092Y05491D01*
X067172Y05495D01*
X067132Y05487D01*
X067172Y05479D01*
X067092Y05483D01*
X067012Y05479D01*
X068242D02*
X068282Y05487D01*
X068242Y05495D01*
X068322Y05491D01*
X068402Y05495D01*
X068362Y05487D01*
X068402Y05479D01*
X068322Y05483D01*
X068242Y05479D01*
X062094Y056175D02*
X062134Y056255D01*
X062094Y056335D01*
X062174Y056295D01*
X062254Y056335D01*
X062214Y056255D01*
X062254Y056175D01*
X062174Y056215D01*
X062094Y056175D01*
X069471D02*
X069511Y056255D01*
X069471Y056335D01*
X069551Y056295D01*
X069631Y056335D01*
X069591Y056255D01*
X069631Y056175D01*
X069551Y056215D01*
X069471Y056175D01*
X067012D02*
X067052Y056255D01*
X067012Y056335D01*
X067092Y056295D01*
X067172Y056335D01*
X067132Y056255D01*
X067172Y056175D01*
X067092Y056215D01*
X067012Y056175D01*
X068242D02*
X068282Y056255D01*
X068242Y056335D01*
X068322Y056295D01*
X068402Y056335D01*
X068362Y056255D01*
X068402Y056175D01*
X068322Y056215D01*
X068242Y056175D01*
X062094Y057561D02*
X062134Y057641D01*
X062094Y057721D01*
X062174Y057681D01*
X062254Y057721D01*
X062214Y057641D01*
X062254Y057561D01*
X062174Y057601D01*
X062094Y057561D01*
X065782D02*
X065822Y057641D01*
X065782Y057721D01*
X065862Y057681D01*
X065942Y057721D01*
X065902Y057641D01*
X065942Y057561D01*
X065862Y057601D01*
X065782Y057561D01*
X069471D02*
X069511Y057641D01*
X069471Y057721D01*
X069551Y057681D01*
X069631Y057721D01*
X069591Y057641D01*
X069631Y057561D01*
X069551Y057601D01*
X069471Y057561D01*
X067012D02*
X067052Y057641D01*
X067012Y057721D01*
X067092Y057681D01*
X067172Y057721D01*
X067132Y057641D01*
X067172Y057561D01*
X067092Y057601D01*
X067012Y057561D01*
X068242D02*
X068282Y057641D01*
X068242Y057721D01*
X068322Y057681D01*
X068402Y057721D01*
X068362Y057641D01*
X068402Y057561D01*
X068322Y057601D01*
X068242Y057561D01*
X064553Y058947D02*
X064593Y059027D01*
X064553Y059107D01*
X064633Y059067D01*
X064713Y059107D01*
X064673Y059027D01*
X064713Y058947D01*
X064633Y058987D01*
X064553Y058947D01*
X062094D02*
X062134Y059027D01*
X062094Y059107D01*
X062174Y059067D01*
X062254Y059107D01*
X062214Y059027D01*
X062254Y058947D01*
X062174Y058987D01*
X062094Y058947D01*
X065782D02*
X065822Y059027D01*
X065782Y059107D01*
X065862Y059067D01*
X065942Y059107D01*
X065902Y059027D01*
X065942Y058947D01*
X065862Y058987D01*
X065782Y058947D01*
X069471D02*
X069511Y059027D01*
X069471Y059107D01*
X069551Y059067D01*
X069631Y059107D01*
X069591Y059027D01*
X069631Y058947D01*
X069551Y058987D01*
X069471Y058947D01*
X067012D02*
X067052Y059027D01*
X067012Y059107D01*
X067092Y059067D01*
X067172Y059107D01*
X067132Y059027D01*
X067172Y058947D01*
X067092Y058987D01*
X067012Y058947D01*
X068242D02*
X068282Y059027D01*
X068242Y059107D01*
X068322Y059067D01*
X068402Y059107D01*
X068362Y059027D01*
X068402Y058947D01*
X068322Y058987D01*
X068242Y058947D01*
X064553Y060333D02*
X064593Y060413D01*
X064553Y060493D01*
X064633Y060453D01*
X064713Y060493D01*
X064673Y060413D01*
X064713Y060333D01*
X064633Y060373D01*
X064553Y060333D01*
X062094D02*
X062134Y060413D01*
X062094Y060493D01*
X062174Y060453D01*
X062254Y060493D01*
X062214Y060413D01*
X062254Y060333D01*
X062174Y060373D01*
X062094Y060333D01*
X065782D02*
X065822Y060413D01*
X065782Y060493D01*
X065862Y060453D01*
X065942Y060493D01*
X065902Y060413D01*
X065942Y060333D01*
X065862Y060373D01*
X065782Y060333D01*
X067012D02*
X067052Y060413D01*
X067012Y060493D01*
X067092Y060453D01*
X067172Y060493D01*
X067132Y060413D01*
X067172Y060333D01*
X067092Y060373D01*
X067012Y060333D01*
X068242D02*
X068282Y060413D01*
X068242Y060493D01*
X068322Y060453D01*
X068402Y060493D01*
X068362Y060413D01*
X068402Y060333D01*
X068322Y060373D01*
X068242Y060333D01*
Y061719D02*
X068282Y061799D01*
X068242Y061879D01*
X068322Y061839D01*
X068402Y061879D01*
X068362Y061799D01*
X068402Y061719D01*
X068322Y061759D01*
X068242Y061719D01*
X067012D02*
X067052Y061799D01*
X067012Y061879D01*
X067092Y061839D01*
X067172Y061879D01*
X067132Y061799D01*
X067172Y061719D01*
X067092Y061759D01*
X067012Y061719D01*
X069471D02*
X069511Y061799D01*
X069471Y061879D01*
X069551Y061839D01*
X069631Y061879D01*
X069591Y061799D01*
X069631Y061719D01*
X069551Y061759D01*
X069471Y061719D01*
X065782D02*
X065822Y061799D01*
X065782Y061879D01*
X065862Y061839D01*
X065942Y061879D01*
X065902Y061799D01*
X065942Y061719D01*
X065862Y061759D01*
X065782Y061719D01*
X062094D02*
X062134Y061799D01*
X062094Y061879D01*
X062174Y061839D01*
X062254Y061879D01*
X062214Y061799D01*
X062254Y061719D01*
X062174Y061759D01*
X062094Y061719D01*
X064553D02*
X064593Y061799D01*
X064553Y061879D01*
X064633Y061839D01*
X064713Y061879D01*
X064673Y061799D01*
X064713Y061719D01*
X064633Y061759D01*
X064553Y061719D01*
X071712Y044817D02*
X071752Y044897D01*
X071712Y044977D01*
X071792Y044937D01*
X071872Y044977D01*
X071832Y044897D01*
X071872Y044817D01*
X071792Y044857D01*
X071712Y044817D01*
X070973D02*
X071013Y044897D01*
X070973Y044977D01*
X071053Y044937D01*
X071133Y044977D01*
X071093Y044897D01*
X071133Y044817D01*
X071053Y044857D01*
X070973Y044817D01*
X072452D02*
X072492Y044897D01*
X072452Y044977D01*
X072532Y044937D01*
X072612Y044977D01*
X072572Y044897D01*
X072612Y044817D01*
X072532Y044857D01*
X072452Y044817D01*
X070234D02*
X070274Y044897D01*
X070234Y044977D01*
X070314Y044937D01*
X070394Y044977D01*
X070354Y044897D01*
X070394Y044817D01*
X070314Y044857D01*
X070234Y044817D01*
X071748Y045408D02*
X071788Y045488D01*
X071748Y045568D01*
X071828Y045528D01*
X071908Y045568D01*
X071868Y045488D01*
X071908Y045408D01*
X071828Y045448D01*
X071748Y045408D01*
X071009D02*
X071049Y045488D01*
X071009Y045568D01*
X071089Y045528D01*
X071169Y045568D01*
X071129Y045488D01*
X071169Y045408D01*
X071089Y045448D01*
X071009Y045408D01*
X072487D02*
X072527Y045488D01*
X072487Y045568D01*
X072567Y045528D01*
X072647Y045568D01*
X072607Y045488D01*
X072647Y045408D01*
X072567Y045448D01*
X072487Y045408D01*
X070269Y045927D02*
X070309Y046007D01*
X070269Y046087D01*
X070349Y046047D01*
X070429Y046087D01*
X070389Y046007D01*
X070429Y045927D01*
X070349Y045967D01*
X070269Y045927D01*
X072487D02*
X072527Y046007D01*
X072487Y046087D01*
X072567Y046047D01*
X072647Y046087D01*
X072607Y046007D01*
X072647Y045927D01*
X072567Y045967D01*
X072487Y045927D01*
X071009D02*
X071049Y046007D01*
X071009Y046087D01*
X071089Y046047D01*
X071169Y046087D01*
X071129Y046007D01*
X071169Y045927D01*
X071089Y045967D01*
X071009Y045927D01*
X071748D02*
X071788Y046007D01*
X071748Y046087D01*
X071828Y046047D01*
X071908Y046087D01*
X071868Y046007D01*
X071908Y045927D01*
X071828Y045967D01*
X071748Y045927D01*
X075415Y050912D02*
X075455Y050992D01*
X075415Y051072D01*
X075495Y051032D01*
X075575Y051072D01*
X075535Y050992D01*
X075575Y050912D01*
X075495Y050952D01*
X075415Y050912D01*
X074575D02*
X074615Y050992D01*
X074575Y051072D01*
X074655Y051032D01*
X074735Y051072D01*
X074695Y050992D01*
X074735Y050912D01*
X074655Y050952D01*
X074575Y050912D01*
X072894D02*
X072934Y050992D01*
X072894Y051072D01*
X072974Y051032D01*
X073054Y051072D01*
X073014Y050992D01*
X073054Y050912D01*
X072974Y050952D01*
X072894Y050912D01*
X073734D02*
X073774Y050992D01*
X073734Y051072D01*
X073814Y051032D01*
X073894Y051072D01*
X073854Y050992D01*
X073894Y050912D01*
X073814Y050952D01*
X073734Y050912D01*
X075356Y052207D02*
X075396Y052287D01*
X075356Y052367D01*
X075436Y052327D01*
X075516Y052367D01*
X075476Y052287D01*
X075516Y052207D01*
X075436Y052247D01*
X075356Y052207D01*
X074516D02*
X074556Y052287D01*
X074516Y052367D01*
X074596Y052327D01*
X074676Y052367D01*
X074636Y052287D01*
X074676Y052207D01*
X074596Y052247D01*
X074516Y052207D01*
X072835D02*
X072875Y052287D01*
X072835Y052367D01*
X072915Y052327D01*
X072995Y052367D01*
X072955Y052287D01*
X072995Y052207D01*
X072915Y052247D01*
X072835Y052207D01*
X073675D02*
X073715Y052287D01*
X073675Y052367D01*
X073755Y052327D01*
X073835Y052367D01*
X073795Y052287D01*
X073835Y052207D01*
X073755Y052247D01*
X073675Y052207D01*
X075297Y053353D02*
X075337Y053433D01*
X075297Y053513D01*
X075377Y053473D01*
X075457Y053513D01*
X075417Y053433D01*
X075457Y053353D01*
X075377Y053393D01*
X075297Y053353D01*
X074457D02*
X074497Y053433D01*
X074457Y053513D01*
X074537Y053473D01*
X074617Y053513D01*
X074577Y053433D01*
X074617Y053353D01*
X074537Y053393D01*
X074457Y053353D01*
X072776D02*
X072816Y053433D01*
X072776Y053513D01*
X072856Y053473D01*
X072936Y053513D01*
X072896Y053433D01*
X072936Y053353D01*
X072856Y053393D01*
X072776Y053353D01*
X073616D02*
X073656Y053433D01*
X073616Y053513D01*
X073696Y053473D01*
X073776Y053513D01*
X073736Y053433D01*
X073776Y053353D01*
X073696Y053393D01*
X073616Y053353D01*
X075289Y054325D02*
X075329Y054405D01*
X075289Y054485D01*
X075369Y054445D01*
X075449Y054485D01*
X075409Y054405D01*
X075449Y054325D01*
X075369Y054365D01*
X075289Y054325D01*
X074449D02*
X074489Y054405D01*
X074449Y054485D01*
X074529Y054445D01*
X074609Y054485D01*
X074569Y054405D01*
X074609Y054325D01*
X074529Y054365D01*
X074449Y054325D01*
X072768D02*
X072808Y054405D01*
X072768Y054485D01*
X072848Y054445D01*
X072928Y054485D01*
X072888Y054405D01*
X072928Y054325D01*
X072848Y054365D01*
X072768Y054325D01*
X073608D02*
X073648Y054405D01*
X073608Y054485D01*
X073688Y054445D01*
X073768Y054485D01*
X073728Y054405D01*
X073768Y054325D01*
X073688Y054365D01*
X073608Y054325D01*
X073542Y055341D02*
X073582Y055421D01*
X073542Y055501D01*
X073622Y055461D01*
X073702Y055501D01*
X073662Y055421D01*
X073702Y055341D01*
X073622Y055381D01*
X073542Y055341D01*
X072701D02*
X072741Y055421D01*
X072701Y055501D01*
X072781Y055461D01*
X072861Y055501D01*
X072821Y055421D01*
X072861Y055341D01*
X072781Y055381D01*
X072701Y055341D01*
X074382D02*
X074422Y055421D01*
X074382Y055501D01*
X074462Y055461D01*
X074542Y055501D01*
X074502Y055421D01*
X074542Y055341D01*
X074462Y055381D01*
X074382Y055341D01*
X075222D02*
X075262Y055421D01*
X075222Y055501D01*
X075302Y055461D01*
X075382Y055501D01*
X075342Y055421D01*
X075382Y055341D01*
X075302Y055381D01*
X075222Y055341D01*
X080825Y037254D02*
X080865Y037334D01*
X080825Y037414D01*
X080905Y037374D01*
X080985Y037414D01*
X080945Y037334D01*
X080985Y037254D01*
X080905Y037294D01*
X080825Y037254D01*
Y036868D02*
X080865Y036948D01*
X080825Y037028D01*
X080905Y036988D01*
X080985Y037028D01*
X080945Y036948D01*
X080985Y036868D01*
X080905Y036908D01*
X080825Y036868D01*
X08158Y036916D02*
X08162Y036996D01*
X08158Y037076D01*
X08166Y037036D01*
X08174Y037076D01*
X0817Y036996D01*
X08174Y036916D01*
X08166Y036956D01*
X08158Y036916D01*
Y037292D02*
X08162Y037372D01*
X08158Y037452D01*
X08166Y037412D01*
X08174Y037452D01*
X0817Y037372D01*
X08174Y037292D01*
X08166Y037332D01*
X08158Y037292D01*
X067254Y038295D02*
X067294Y038375D01*
X067254Y038455D01*
X067334Y038415D01*
X067414Y038455D01*
X067374Y038375D01*
X067414Y038295D01*
X067334Y038335D01*
X067254Y038295D01*
X066892D02*
X066932Y038375D01*
X066892Y038455D01*
X066972Y038415D01*
X067052Y038455D01*
X067012Y038375D01*
X067052Y038295D01*
X066972Y038335D01*
X066892Y038295D01*
X067341Y039657D02*
X067381Y039737D01*
X067341Y039817D01*
X067421Y039777D01*
X067501Y039817D01*
X067461Y039737D01*
X067501Y039657D01*
X067421Y039697D01*
X067341Y039657D01*
X066959Y039684D02*
X066999Y039764D01*
X066959Y039844D01*
X067039Y039804D01*
X067119Y039844D01*
X067079Y039764D01*
X067119Y039684D01*
X067039Y039724D01*
X066959Y039684D01*
X066596Y033618D02*
X066636Y033698D01*
X066596Y033778D01*
X066676Y033738D01*
X066756Y033778D01*
X066716Y033698D01*
X066756Y033618D01*
X066676Y033658D01*
X066596Y033618D01*
Y034203D02*
X066636Y034283D01*
X066596Y034363D01*
X066676Y034323D01*
X066756Y034363D01*
X066716Y034283D01*
X066756Y034203D01*
X066676Y034243D01*
X066596Y034203D01*
Y035959D02*
X066636Y036039D01*
X066596Y036119D01*
X066676Y036079D01*
X066756Y036119D01*
X066716Y036039D01*
X066756Y035959D01*
X066676Y035999D01*
X066596Y035959D01*
Y037715D02*
X066636Y037795D01*
X066596Y037875D01*
X066676Y037835D01*
X066756Y037875D01*
X066716Y037795D01*
X066756Y037715D01*
X066676Y037755D01*
X066596Y037715D01*
Y0383D02*
X066636Y03838D01*
X066596Y03846D01*
X066676Y03842D01*
X066756Y03846D01*
X066716Y03838D01*
X066756Y0383D01*
X066676Y03834D01*
X066596Y0383D01*
Y036544D02*
X066636Y036624D01*
X066596Y036704D01*
X066676Y036664D01*
X066756Y036704D01*
X066716Y036624D01*
X066756Y036544D01*
X066676Y036584D01*
X066596Y036544D01*
Y037129D02*
X066636Y037209D01*
X066596Y037289D01*
X066676Y037249D01*
X066756Y037289D01*
X066716Y037209D01*
X066756Y037129D01*
X066676Y037169D01*
X066596Y037129D01*
X066636Y040849D02*
X066676Y040929D01*
X066636Y041009D01*
X066716Y040969D01*
X066796Y041009D01*
X066756Y040929D01*
X066796Y040849D01*
X066716Y040889D01*
X066636Y040849D01*
Y040269D02*
X066676Y040349D01*
X066636Y040429D01*
X066716Y040389D01*
X066796Y040429D01*
X066756Y040349D01*
X066796Y040269D01*
X066716Y040309D01*
X066636Y040269D01*
Y042008D02*
X066676Y042088D01*
X066636Y042168D01*
X066716Y042128D01*
X066796Y042168D01*
X066756Y042088D01*
X066796Y042008D01*
X066716Y042048D01*
X066636Y042008D01*
Y041429D02*
X066676Y041509D01*
X066636Y041589D01*
X066716Y041549D01*
X066796Y041589D01*
X066756Y041509D01*
X066796Y041429D01*
X066716Y041469D01*
X066636Y041429D01*
Y043748D02*
X066676Y043828D01*
X066636Y043908D01*
X066716Y043868D01*
X066796Y043908D01*
X066756Y043828D01*
X066796Y043748D01*
X066716Y043788D01*
X066636Y043748D01*
Y043168D02*
X066676Y043248D01*
X066636Y043328D01*
X066716Y043288D01*
X066796Y043328D01*
X066756Y043248D01*
X066796Y043168D01*
X066716Y043208D01*
X066636Y043168D01*
Y044328D02*
X066676Y044408D01*
X066636Y044488D01*
X066716Y044448D01*
X066796Y044488D01*
X066756Y044408D01*
X066796Y044328D01*
X066716Y044368D01*
X066636Y044328D01*
Y042588D02*
X066676Y042668D01*
X066636Y042748D01*
X066716Y042708D01*
X066796Y042748D01*
X066756Y042668D01*
X066796Y042588D01*
X066716Y042628D01*
X066636Y042588D01*
Y044908D02*
X066676Y044988D01*
X066636Y045068D01*
X066716Y045028D01*
X066796Y045068D01*
X066756Y044988D01*
X066796Y044908D01*
X066716Y044948D01*
X066636Y044908D01*
Y039689D02*
X066676Y039769D01*
X066636Y039849D01*
X066716Y039809D01*
X066796Y039849D01*
X066756Y039769D01*
X066796Y039689D01*
X066716Y039729D01*
X066636Y039689D01*
X064218Y045207D02*
X064258Y045287D01*
X064218Y045367D01*
X064298Y045327D01*
X064378Y045367D01*
X064338Y045287D01*
X064378Y045207D01*
X064298Y045247D01*
X064218Y045207D01*
X064873D02*
X064913Y045287D01*
X064873Y045367D01*
X064953Y045327D01*
X065033Y045367D01*
X064993Y045287D01*
X065033Y045207D01*
X064953Y045247D01*
X064873Y045207D01*
X065528D02*
X065568Y045287D01*
X065528Y045367D01*
X065608Y045327D01*
X065688Y045367D01*
X065648Y045287D01*
X065688Y045207D01*
X065608Y045247D01*
X065528Y045207D01*
X066183D02*
X066223Y045287D01*
X066183Y045367D01*
X066263Y045327D01*
X066343Y045367D01*
X066303Y045287D01*
X066343Y045207D01*
X066263Y045247D01*
X066183Y045207D01*
X060516Y045179D02*
X060556Y045259D01*
X060516Y045339D01*
X060596Y045299D01*
X060676Y045339D01*
X060636Y045259D01*
X060676Y045179D01*
X060596Y045219D01*
X060516Y045179D01*
X061171D02*
X061211Y045259D01*
X061171Y045339D01*
X061251Y045299D01*
X061331Y045339D01*
X061291Y045259D01*
X061331Y045179D01*
X061251Y045219D01*
X061171Y045179D01*
X061826D02*
X061866Y045259D01*
X061826Y045339D01*
X061906Y045299D01*
X061986Y045339D01*
X061946Y045259D01*
X061986Y045179D01*
X061906Y045219D01*
X061826Y045179D01*
X062481D02*
X062521Y045259D01*
X062481Y045339D01*
X062561Y045299D01*
X062641Y045339D01*
X062601Y045259D01*
X062641Y045179D01*
X062561Y045219D01*
X062481Y045179D01*
X062908Y045207D02*
X062948Y045287D01*
X062908Y045367D01*
X062988Y045327D01*
X063068Y045367D01*
X063028Y045287D01*
X063068Y045207D01*
X062988Y045247D01*
X062908Y045207D01*
X063563D02*
X063603Y045287D01*
X063563Y045367D01*
X063643Y045327D01*
X063723Y045367D01*
X063683Y045287D01*
X063723Y045207D01*
X063643Y045247D01*
X063563Y045207D01*
X078433Y050856D02*
X078473Y050936D01*
X078433Y051016D01*
X078513Y050976D01*
X078593Y051016D01*
X078553Y050936D01*
X078593Y050856D01*
X078513Y050896D01*
X078433Y050856D01*
X077706Y050396D02*
X077746Y050476D01*
X077706Y050556D01*
X077786Y050516D01*
X077866Y050556D01*
X077826Y050476D01*
X077866Y050396D01*
X077786Y050436D01*
X077706Y050396D01*
X078086Y051459D02*
X078126Y051539D01*
X078086Y051619D01*
X078166Y051579D01*
X078246Y051619D01*
X078206Y051539D01*
X078246Y051459D01*
X078166Y051499D01*
X078086Y051459D01*
X078065Y051955D02*
X078105Y052035D01*
X078065Y052115D01*
X078145Y052075D01*
X078225Y052115D01*
X078185Y052035D01*
X078225Y051955D01*
X078145Y051995D01*
X078065Y051955D01*
X078301Y052931D02*
X078341Y053011D01*
X078301Y053091D01*
X078381Y053051D01*
X078461Y053091D01*
X078421Y053011D01*
X078461Y052931D01*
X078381Y052971D01*
X078301Y052931D01*
X075466Y064892D02*
X075506Y064972D01*
X075466Y065052D01*
X075546Y065012D01*
X075626Y065052D01*
X075586Y064972D01*
X075626Y064892D01*
X075546Y064932D01*
X075466Y064892D01*
X075492Y063143D02*
X075532Y063223D01*
X075492Y063303D01*
X075572Y063263D01*
X075652Y063303D01*
X075612Y063223D01*
X075652Y063143D01*
X075572Y063183D01*
X075492Y063143D01*
Y062573D02*
X075532Y062653D01*
X075492Y062733D01*
X075572Y062693D01*
X075652Y062733D01*
X075612Y062653D01*
X075652Y062573D01*
X075572Y062613D01*
X075492Y062573D01*
X078366Y054953D02*
X078406Y055033D01*
X078366Y055113D01*
X078446Y055073D01*
X078526Y055113D01*
X078486Y055033D01*
X078526Y054953D01*
X078446Y054993D01*
X078366Y054953D01*
Y054402D02*
X078406Y054482D01*
X078366Y054562D01*
X078446Y054522D01*
X078526Y054562D01*
X078486Y054482D01*
X078526Y054402D01*
X078446Y054442D01*
X078366Y054402D01*
Y053851D02*
X078406Y053931D01*
X078366Y054012D01*
X078446Y053972D01*
X078526Y054012D01*
X078486Y053931D01*
X078526Y053851D01*
X078446Y053892D01*
X078366Y053851D01*
Y053301D02*
X078406Y053381D01*
X078366Y053461D01*
X078446Y053421D01*
X078526Y053461D01*
X078486Y053381D01*
X078526Y053301D01*
X078446Y053341D01*
X078366Y053301D01*
Y055503D02*
X078406Y055583D01*
X078366Y055663D01*
X078446Y055623D01*
X078526Y055663D01*
X078486Y055583D01*
X078526Y055503D01*
X078446Y055543D01*
X078366Y055503D01*
X079175Y051252D02*
X079215Y051332D01*
X079175Y051412D01*
X079255Y051372D01*
X079335Y051412D01*
X079295Y051332D01*
X079335Y051252D01*
X079255Y051292D01*
X079175Y051252D01*
X079725D02*
X079765Y051332D01*
X079725Y051412D01*
X079805Y051372D01*
X079885Y051412D01*
X079845Y051332D01*
X079885Y051252D01*
X079805Y051292D01*
X079725Y051252D01*
X080276D02*
X080316Y051332D01*
X080276Y051412D01*
X080356Y051372D01*
X080436Y051412D01*
X080396Y051332D01*
X080436Y051252D01*
X080356Y051292D01*
X080276Y051252D01*
X080827D02*
X080867Y051332D01*
X080827Y051412D01*
X080907Y051372D01*
X080987Y051412D01*
X080947Y051332D01*
X080987Y051252D01*
X080907Y051292D01*
X080827Y051252D01*
X081377D02*
X081417Y051332D01*
X081377Y051412D01*
X081457Y051372D01*
X081537Y051412D01*
X081497Y051332D01*
X081537Y051252D01*
X081457Y051292D01*
X081377Y051252D01*
X078549Y053105D02*
X078589Y053185D01*
X078549Y053265D01*
X078629Y053225D01*
X078709Y053265D01*
X078669Y053185D01*
X078709Y053105D01*
X078629Y053145D01*
X078549Y053105D01*
X078567Y053565D02*
X078607Y053645D01*
X078567Y053725D01*
X078647Y053685D01*
X078727Y053725D01*
X078687Y053645D01*
X078727Y053565D01*
X078647Y053605D01*
X078567Y053565D01*
Y054115D02*
X078607Y054195D01*
X078567Y054275D01*
X078647Y054235D01*
X078727Y054275D01*
X078687Y054195D01*
X078727Y054115D01*
X078647Y054155D01*
X078567Y054115D01*
Y054666D02*
X078607Y054746D01*
X078567Y054826D01*
X078647Y054786D01*
X078727Y054826D01*
X078687Y054746D01*
X078727Y054666D01*
X078647Y054706D01*
X078567Y054666D01*
Y055217D02*
X078607Y055297D01*
X078567Y055377D01*
X078647Y055337D01*
X078727Y055377D01*
X078687Y055297D01*
X078727Y055217D01*
X078647Y055257D01*
X078567Y055217D01*
X081102Y051485D02*
X081142Y051565D01*
X081102Y051645D01*
X081182Y051605D01*
X081262Y051645D01*
X081222Y051565D01*
X081262Y051485D01*
X081182Y051525D01*
X081102Y051485D01*
X080551D02*
X080591Y051565D01*
X080551Y051645D01*
X080631Y051605D01*
X080711Y051645D01*
X080671Y051565D01*
X080711Y051485D01*
X080631Y051525D01*
X080551Y051485D01*
X080001D02*
X080041Y051565D01*
X080001Y051645D01*
X080081Y051605D01*
X080161Y051645D01*
X080121Y051565D01*
X080161Y051485D01*
X080081Y051525D01*
X080001Y051485D01*
X07945D02*
X07949Y051565D01*
X07945Y051645D01*
X07953Y051605D01*
X07961Y051645D01*
X07957Y051565D01*
X07961Y051485D01*
X07953Y051525D01*
X07945Y051485D01*
X078823Y051551D02*
X078863Y051631D01*
X078823Y051711D01*
X078903Y051671D01*
X078983Y051711D01*
X078943Y051631D01*
X078983Y051551D01*
X078903Y051591D01*
X078823Y051551D01*
X081653Y051485D02*
X081693Y051565D01*
X081653Y051645D01*
X081733Y051605D01*
X081813Y051645D01*
X081773Y051565D01*
X081813Y051485D01*
X081733Y051525D01*
X081653Y051485D01*
X079691Y04062D02*
X079731Y0407D01*
X079691Y04078D01*
X079771Y04074D01*
X079851Y04078D01*
X079811Y0407D01*
X079851Y04062D01*
X079771Y04066D01*
X079691Y04062D01*
X07938D02*
X07942Y0407D01*
X07938Y04078D01*
X07946Y04074D01*
X07954Y04078D01*
X0795Y0407D01*
X07954Y04062D01*
X07946Y04066D01*
X07938Y04062D01*
X079671Y040986D02*
X079711Y041066D01*
X079671Y041146D01*
X079751Y041106D01*
X079831Y041146D01*
X079791Y041066D01*
X079831Y040986D01*
X079751Y041026D01*
X079671Y040986D01*
X079368D02*
X079408Y041066D01*
X079368Y041146D01*
X079448Y041106D01*
X079528Y041146D01*
X079488Y041066D01*
X079528Y040986D01*
X079448Y041026D01*
X079368Y040986D01*
X079647Y041333D02*
X079687Y041413D01*
X079647Y041493D01*
X079727Y041453D01*
X079807Y041493D01*
X079767Y041413D01*
X079807Y041333D01*
X079727Y041373D01*
X079647Y041333D01*
X079356D02*
X079396Y041413D01*
X079356Y041493D01*
X079436Y041453D01*
X079516Y041493D01*
X079476Y041413D01*
X079516Y041333D01*
X079436Y041373D01*
X079356Y041333D01*
X079065D02*
X079105Y041413D01*
X079065Y041493D01*
X079145Y041453D01*
X079225Y041493D01*
X079185Y041413D01*
X079225Y041333D01*
X079145Y041373D01*
X079065Y041333D01*
X080793Y040986D02*
X080833Y041066D01*
X080793Y041146D01*
X080873Y041106D01*
X080953Y041146D01*
X080913Y041066D01*
X080953Y040986D01*
X080873Y041026D01*
X080793Y040986D01*
X080387D02*
X080427Y041066D01*
X080387Y041146D01*
X080467Y041106D01*
X080547Y041146D01*
X080507Y041066D01*
X080547Y040986D01*
X080467Y041026D01*
X080387Y040986D01*
X079981D02*
X080021Y041066D01*
X079981Y041146D01*
X080061Y041106D01*
X080141Y041146D01*
X080101Y041066D01*
X080141Y040986D01*
X080061Y041026D01*
X079981Y040986D01*
X079065D02*
X079105Y041066D01*
X079065Y041146D01*
X079145Y041106D01*
X079225Y041146D01*
X079185Y041066D01*
X079225Y040986D01*
X079145Y041026D01*
X079065Y040986D01*
X078763D02*
X078803Y041066D01*
X078763Y041146D01*
X078843Y041106D01*
X078923Y041146D01*
X078883Y041066D01*
X078923Y040986D01*
X078843Y041026D01*
X078763Y040986D01*
X078357D02*
X078397Y041066D01*
X078357Y041146D01*
X078437Y041106D01*
X078517Y041146D01*
X078477Y041066D01*
X078517Y040986D01*
X078437Y041026D01*
X078357Y040986D01*
X080789Y04062D02*
X080829Y0407D01*
X080789Y04078D01*
X080869Y04074D01*
X080949Y04078D01*
X080909Y0407D01*
X080949Y04062D01*
X080869Y04066D01*
X080789Y04062D01*
X080383D02*
X080423Y0407D01*
X080383Y04078D01*
X080463Y04074D01*
X080543Y04078D01*
X080503Y0407D01*
X080543Y04062D01*
X080463Y04066D01*
X080383Y04062D01*
X079977D02*
X080017Y0407D01*
X079977Y04078D01*
X080057Y04074D01*
X080137Y04078D01*
X080097Y0407D01*
X080137Y04062D01*
X080057Y04066D01*
X079977Y04062D01*
X079069D02*
X079109Y0407D01*
X079069Y04078D01*
X079149Y04074D01*
X079229Y04078D01*
X079189Y0407D01*
X079229Y04062D01*
X079149Y04066D01*
X079069Y04062D01*
X078759D02*
X078799Y0407D01*
X078759Y04078D01*
X078839Y04074D01*
X078919Y04078D01*
X078879Y0407D01*
X078919Y04062D01*
X078839Y04066D01*
X078759Y04062D01*
X078353D02*
X078393Y0407D01*
X078353Y04078D01*
X078433Y04074D01*
X078513Y04078D01*
X078473Y0407D01*
X078513Y04062D01*
X078433Y04066D01*
X078353Y04062D01*
X078368Y041333D02*
X078408Y041413D01*
X078368Y041493D01*
X078448Y041453D01*
X078528Y041493D01*
X078488Y041413D01*
X078528Y041333D01*
X078448Y041373D01*
X078368Y041333D01*
X078775D02*
X078815Y041413D01*
X078775Y041493D01*
X078855Y041453D01*
X078935Y041493D01*
X078895Y041413D01*
X078935Y041333D01*
X078855Y041373D01*
X078775Y041333D01*
X079993D02*
X080033Y041413D01*
X079993Y041493D01*
X080073Y041453D01*
X080153Y041493D01*
X080113Y041413D01*
X080153Y041333D01*
X080073Y041373D01*
X079993Y041333D01*
X080399D02*
X080439Y041413D01*
X080399Y041493D01*
X080479Y041453D01*
X080559Y041493D01*
X080519Y041413D01*
X080559Y041333D01*
X080479Y041373D01*
X080399Y041333D01*
X080805D02*
X080845Y041413D01*
X080805Y041493D01*
X080885Y041453D01*
X080965Y041493D01*
X080925Y041413D01*
X080965Y041333D01*
X080885Y041373D01*
X080805Y041333D01*
X071123Y039303D02*
X071163Y039383D01*
X071123Y039463D01*
X071203Y039423D01*
X071283Y039463D01*
X071243Y039383D01*
X071283Y039303D01*
X071203Y039343D01*
X071123Y039303D01*
Y038846D02*
X071163Y038926D01*
X071123Y039006D01*
X071203Y038966D01*
X071283Y039006D01*
X071243Y038926D01*
X071283Y038846D01*
X071203Y038886D01*
X071123Y038846D01*
X071856D02*
X071896Y038926D01*
X071856Y039006D01*
X071936Y038966D01*
X072016Y039006D01*
X071976Y038926D01*
X072016Y038846D01*
X071936Y038886D01*
X071856Y038846D01*
X071857Y039303D02*
X071897Y039383D01*
X071857Y039463D01*
X071937Y039423D01*
X072017Y039463D01*
X071977Y039383D01*
X072017Y039303D01*
X071937Y039343D01*
X071857Y039303D01*
X076817Y046284D02*
X076857Y046364D01*
X076817Y046444D01*
X076897Y046404D01*
X076977Y046444D01*
X076937Y046364D01*
X076977Y046284D01*
X076897Y046324D01*
X076817Y046284D01*
X066437Y04565D02*
X066477Y04573D01*
X066437Y04581D01*
X066517Y04577D01*
X066597Y04581D01*
X066557Y04573D01*
X066597Y04565D01*
X066517Y04569D01*
X066437Y04565D01*
X066166D02*
X066206Y04573D01*
X066166Y04581D01*
X066246Y04577D01*
X066326Y04581D01*
X066286Y04573D01*
X066326Y04565D01*
X066246Y04569D01*
X066166Y04565D01*
X066822Y045998D02*
X066862Y046078D01*
X066822Y046158D01*
X066902Y046118D01*
X066982Y046158D01*
X066942Y046078D01*
X066982Y045998D01*
X066902Y046038D01*
X066822Y045998D01*
X061774Y047856D02*
X061814Y047936D01*
X061774Y048016D01*
X061854Y047976D01*
X061934Y048016D01*
X061894Y047936D01*
X061934Y047856D01*
X061854Y047896D01*
X061774Y047856D01*
X076667Y041821D02*
X076707Y041901D01*
X076667Y041981D01*
X076747Y041941D01*
X076827Y041981D01*
X076787Y041901D01*
X076827Y041821D01*
X076747Y041861D01*
X076667Y041821D01*
X07684Y038286D02*
X07688Y038366D01*
X07684Y038446D01*
X07692Y038406D01*
X077Y038446D01*
X07696Y038366D01*
X077Y038286D01*
X07692Y038326D01*
X07684Y038286D01*
X075856Y037766D02*
X075896Y037846D01*
X075856Y037926D01*
X075936Y037886D01*
X076016Y037926D01*
X075976Y037846D01*
X076016Y037766D01*
X075936Y037806D01*
X075856Y037766D01*
X081411Y043522D02*
X081451Y043602D01*
X081411Y043682D01*
X081491Y043642D01*
X081571Y043682D01*
X081531Y043602D01*
X081571Y043522D01*
X081491Y043562D01*
X081411Y043522D01*
X079962Y043034D02*
X080002Y043114D01*
X079962Y043194D01*
X080042Y043154D01*
X080122Y043194D01*
X080082Y043114D01*
X080122Y043034D01*
X080042Y043074D01*
X079962Y043034D01*
X072104Y058982D02*
X072144Y059062D01*
X072104Y059142D01*
X072184Y059102D01*
X072264Y059142D01*
X072224Y059062D01*
X072264Y058982D01*
X072184Y059022D01*
X072104Y058982D01*
X06984Y063045D02*
X06988Y063125D01*
X06984Y063205D01*
X06992Y063165D01*
X07Y063205D01*
X06996Y063125D01*
X07Y063045D01*
X06992Y063085D01*
X06984Y063045D01*
X071006Y063189D02*
X071046Y063269D01*
X071006Y063349D01*
X071086Y063309D01*
X071166Y063349D01*
X071126Y063269D01*
X071166Y063189D01*
X071086Y063229D01*
X071006Y063189D01*
X081143Y033683D02*
X081183Y033763D01*
X081143Y033843D01*
X081223Y033803D01*
X081303Y033843D01*
X081263Y033763D01*
X081303Y033683D01*
X081223Y033723D01*
X081143Y033683D01*
Y033447D02*
X081183Y033527D01*
X081143Y033607D01*
X081223Y033567D01*
X081303Y033607D01*
X081263Y033527D01*
X081303Y033447D01*
X081223Y033487D01*
X081143Y033447D01*
X081403D02*
X081443Y033527D01*
X081403Y033607D01*
X081483Y033567D01*
X081563Y033607D01*
X081523Y033527D01*
X081563Y033447D01*
X081483Y033487D01*
X081403Y033447D01*
X081663D02*
X081703Y033527D01*
X081663Y033607D01*
X081743Y033567D01*
X081823Y033607D01*
X081783Y033527D01*
X081823Y033447D01*
X081743Y033487D01*
X081663Y033447D01*
X081403Y033683D02*
X081443Y033763D01*
X081403Y033843D01*
X081483Y033803D01*
X081563Y033843D01*
X081523Y033763D01*
X081563Y033683D01*
X081483Y033723D01*
X081403Y033683D01*
X081663D02*
X081703Y033763D01*
X081663Y033843D01*
X081743Y033803D01*
X081823Y033843D01*
X081783Y033763D01*
X081823Y033683D01*
X081743Y033723D01*
X081663Y033683D01*
X072344Y063045D02*
X072384Y063125D01*
X072344Y063205D01*
X072424Y063165D01*
X072504Y063205D01*
X072464Y063125D01*
X072504Y063045D01*
X072424Y063085D01*
X072344Y063045D01*
X073714Y050128D02*
X073754Y050208D01*
X073714Y050288D01*
X073794Y050248D01*
X073874Y050288D01*
X073834Y050208D01*
X073874Y050128D01*
X073794Y050168D01*
X073714Y050128D01*
X080033Y0384D02*
X080073Y03848D01*
X080033Y03856D01*
X080113Y03852D01*
X080193Y03856D01*
X080153Y03848D01*
X080193Y0384D01*
X080113Y03844D01*
X080033Y0384D01*
X077646Y039797D02*
X077686Y039877D01*
X077646Y039957D01*
X077726Y039917D01*
X077806Y039957D01*
X077766Y039877D01*
X077806Y039797D01*
X077726Y039837D01*
X077646Y039797D01*
X074147Y063309D02*
X074187Y063389D01*
X074147Y063469D01*
X074227Y063429D01*
X074307Y063469D01*
X074267Y063389D01*
X074307Y063309D01*
X074227Y063349D01*
X074147Y063309D01*
X073316Y036496D02*
X073356Y036576D01*
X073316Y036656D01*
X073396Y036616D01*
X073476Y036656D01*
X073436Y036576D01*
X073476Y036496D01*
X073396Y036536D01*
X073316Y036496D01*
X069808Y040446D02*
X069848Y040526D01*
X069808Y040606D01*
X069888Y040566D01*
X069968Y040606D01*
X069928Y040526D01*
X069968Y040446D01*
X069888Y040486D01*
X069808Y040446D01*
X073112Y038931D02*
X073152Y039011D01*
X073112Y039091D01*
X073192Y039051D01*
X073272Y039091D01*
X073232Y039011D01*
X073272Y038931D01*
X073192Y038971D01*
X073112Y038931D01*
X072827Y039257D02*
X072867Y039337D01*
X072827Y039417D01*
X072907Y039377D01*
X072987Y039417D01*
X072947Y039337D01*
X072987Y039257D01*
X072907Y039297D01*
X072827Y039257D01*
X07304Y038509D02*
X07308Y038589D01*
X07304Y038669D01*
X07312Y038629D01*
X0732Y038669D01*
X07316Y038589D01*
X0732Y038509D01*
X07312Y038549D01*
X07304Y038509D01*
X069382Y050963D02*
X069422Y051043D01*
X069382Y051123D01*
X069462Y051083D01*
X069542Y051123D01*
X069502Y051043D01*
X069542Y050963D01*
X069462Y051003D01*
X069382Y050963D01*
X074692Y040903D02*
X074732Y040983D01*
X074692Y041063D01*
X074772Y041023D01*
X074852Y041063D01*
X074812Y040983D01*
X074852Y040903D01*
X074772Y040943D01*
X074692Y040903D01*
X074962Y040605D02*
X075002Y040685D01*
X074962Y040765D01*
X075042Y040725D01*
X075122Y040765D01*
X075082Y040685D01*
X075122Y040605D01*
X075042Y040645D01*
X074962Y040605D01*
X067514Y041239D02*
X067554Y041319D01*
X067514Y041399D01*
X067594Y041359D01*
X067674Y041399D01*
X067634Y041319D01*
X067674Y041239D01*
X067594Y041279D01*
X067514Y041239D01*
X06821Y044878D02*
X06825Y044958D01*
X06821Y045038D01*
X06829Y044998D01*
X06837Y045038D01*
X06833Y044958D01*
X06837Y044878D01*
X06829Y044918D01*
X06821Y044878D01*
X071123Y049153D02*
X071163Y049233D01*
X071123Y049313D01*
X071203Y049273D01*
X071283Y049313D01*
X071243Y049233D01*
X071283Y049153D01*
X071203Y049193D01*
X071123Y049153D01*
X071777Y048216D02*
X071817Y048296D01*
X071777Y048376D01*
X071857Y048336D01*
X071937Y048376D01*
X071897Y048296D01*
X071937Y048216D01*
X071857Y048256D01*
X071777Y048216D01*
X071398D02*
X071438Y048296D01*
X071398Y048376D01*
X071478Y048336D01*
X071558Y048376D01*
X071518Y048296D01*
X071558Y048216D01*
X071478Y048256D01*
X071398Y048216D01*
X069044Y038085D02*
X069084Y038165D01*
X069044Y038245D01*
X069124Y038205D01*
X069204Y038245D01*
X069164Y038165D01*
X069204Y038085D01*
X069124Y038125D01*
X069044Y038085D01*
X069017Y039506D02*
X069057Y039586D01*
X069017Y039666D01*
X069097Y039626D01*
X069177Y039666D01*
X069137Y039586D01*
X069177Y039506D01*
X069097Y039546D01*
X069017Y039506D01*
X069726Y032681D02*
X069766Y032761D01*
X069726Y032841D01*
X069806Y032801D01*
X069886Y032841D01*
X069846Y032761D01*
X069886Y032681D01*
X069806Y032721D01*
X069726Y032681D01*
X069667Y035365D02*
X069707Y035445D01*
X069667Y035525D01*
X069747Y035485D01*
X069827Y035525D01*
X069787Y035445D01*
X069827Y035365D01*
X069747Y035405D01*
X069667Y035365D01*
X069632Y036916D02*
X069672Y036996D01*
X069632Y037076D01*
X069712Y037036D01*
X069792Y037076D01*
X069752Y036996D01*
X069792Y036916D01*
X069712Y036956D01*
X069632Y036916D01*
X072655Y034065D02*
X072695Y034145D01*
X072655Y034225D01*
X072735Y034185D01*
X072815Y034225D01*
X072775Y034145D01*
X072815Y034065D01*
X072735Y034105D01*
X072655Y034065D01*
X074206Y031668D02*
X074246Y031748D01*
X074206Y031828D01*
X074286Y031788D01*
X074366Y031828D01*
X074326Y031748D01*
X074366Y031668D01*
X074286Y031708D01*
X074206Y031668D01*
X078751Y050106D02*
X078791Y050186D01*
X078751Y050266D01*
X078831Y050226D01*
X078911Y050266D01*
X078871Y050186D01*
X078911Y050106D01*
X078831Y050146D01*
X078751Y050106D01*
X079386D02*
X079426Y050186D01*
X079386Y050266D01*
X079466Y050226D01*
X079546Y050266D01*
X079506Y050186D01*
X079546Y050106D01*
X079466Y050146D01*
X079386Y050106D01*
X079068D02*
X079108Y050186D01*
X079068Y050266D01*
X079148Y050226D01*
X079228Y050266D01*
X079188Y050186D01*
X079228Y050106D01*
X079148Y050146D01*
X079068Y050106D01*
X079227Y049926D02*
X079267Y050006D01*
X079227Y050086D01*
X079307Y050046D01*
X079387Y050086D01*
X079347Y050006D01*
X079387Y049926D01*
X079307Y049966D01*
X079227Y049926D01*
X07891D02*
X07895Y050006D01*
X07891Y050086D01*
X07899Y050046D01*
X07907Y050086D01*
X07903Y050006D01*
X07907Y049926D01*
X07899Y049966D01*
X07891Y049926D01*
X081427Y048266D02*
X081467Y048346D01*
X081427Y048426D01*
X081507Y048386D01*
X081587Y048426D01*
X081547Y048346D01*
X081587Y048266D01*
X081507Y048306D01*
X081427Y048266D01*
X081167D02*
X081207Y048346D01*
X081167Y048426D01*
X081247Y048386D01*
X081327Y048426D01*
X081287Y048346D01*
X081327Y048266D01*
X081247Y048306D01*
X081167Y048266D01*
X081172Y048036D02*
X081212Y048116D01*
X081172Y048196D01*
X081252Y048156D01*
X081332Y048196D01*
X081292Y048116D01*
X081332Y048036D01*
X081252Y048076D01*
X081172Y048036D01*
X080917D02*
X080957Y048116D01*
X080917Y048196D01*
X080997Y048156D01*
X081077Y048196D01*
X081037Y048116D01*
X081077Y048036D01*
X080997Y048076D01*
X080917Y048036D01*
X080907Y048266D02*
X080947Y048346D01*
X080907Y048426D01*
X080987Y048386D01*
X081067Y048426D01*
X081027Y048346D01*
X081067Y048266D01*
X080987Y048306D01*
X080907Y048266D01*
X081427Y048036D02*
X081467Y048116D01*
X081427Y048196D01*
X081507Y048156D01*
X081587Y048196D01*
X081547Y048116D01*
X081587Y048036D01*
X081507Y048076D01*
X081427Y048036D01*
X076463Y048863D02*
X076503Y048943D01*
X076463Y049023D01*
X076543Y048983D01*
X076623Y049023D01*
X076583Y048943D01*
X076623Y048863D01*
X076543Y048903D01*
X076463Y048863D01*
X076183Y048853D02*
X076223Y048933D01*
X076183Y049013D01*
X076263Y048973D01*
X076343Y049013D01*
X076303Y048933D01*
X076343Y048853D01*
X076263Y048893D01*
X076183Y048853D01*
X076463Y049113D02*
X076503Y049193D01*
X076463Y049273D01*
X076543Y049233D01*
X076623Y049273D01*
X076583Y049193D01*
X076623Y049113D01*
X076543Y049153D01*
X076463Y049113D01*
X076203D02*
X076243Y049193D01*
X076203Y049273D01*
X076283Y049233D01*
X076363Y049273D01*
X076323Y049193D01*
X076363Y049113D01*
X076283Y049153D01*
X076203Y049113D01*
X076443Y049343D02*
X076483Y049423D01*
X076443Y049503D01*
X076523Y049463D01*
X076603Y049503D01*
X076563Y049423D01*
X076603Y049343D01*
X076523Y049383D01*
X076443Y049343D01*
X076203D02*
X076243Y049423D01*
X076203Y049503D01*
X076283Y049463D01*
X076363Y049503D01*
X076323Y049423D01*
X076363Y049343D01*
X076283Y049383D01*
X076203Y049343D01*
X064123Y038693D02*
X064163Y038773D01*
X064123Y038853D01*
X064203Y038813D01*
X064283Y038853D01*
X064243Y038773D01*
X064283Y038693D01*
X064203Y038733D01*
X064123Y038693D01*
X066123D02*
X066163Y038773D01*
X066123Y038853D01*
X066203Y038813D01*
X066283Y038853D01*
X066243Y038773D01*
X066283Y038693D01*
X066203Y038733D01*
X066123Y038693D01*
D148*
X061023Y045878D02*
G03*
X061023Y045878I-00008J0D01*
G01*
Y046888D02*
G03*
X061023Y046888I-00008J0D01*
G01*
X075142Y060871D02*
G03*
X075142Y060871I-00008J0D01*
G01*
Y059891D02*
G03*
X075142Y059891I-00008J0D01*
G01*
Y058881D02*
G03*
X075142Y058881I-00008J0D01*
G01*
Y061881D02*
G03*
X075142Y061881I-00008J0D01*
G01*
M02*
