G04*
G04 #@! TF.GenerationSoftware,Altium Limited,Altium Designer,21.0.8 (223)*
G04*
G04 Layer_Color=16711935*
%FSTAX24Y24*%
%MOIN*%
G70*
G04*
G04 #@! TF.SameCoordinates,D94166DE-144D-4B7D-845D-6ED18FE10B1D*
G04*
G04*
G04 #@! TF.FilePolarity,Positive*
G04*
G01*
G75*
%ADD13C,0.0070*%
%ADD142C,0.0010*%
%ADD145C,0.0012*%
%ADD146C,0.0010*%
D13*
X06276Y063408D02*
G03*
X06276Y063408I-000768J0D01*
G01*
X062801Y033044D02*
G03*
X062801Y033044I-000807J0D01*
G01*
X080998Y033054D02*
G03*
X080998Y033054I-000807J0D01*
G01*
X080953Y063407D02*
G03*
X080953Y063407I-000768J0D01*
G01*
D142*
X070239Y030572D02*
G03*
X069527Y031267I-000699J-000003D01*
G01*
X06305Y031267D02*
G03*
X062381Y030614I-000013J-000657D01*
G01*
X060223Y030333D02*
G03*
X061423Y029133I0012J0D01*
G01*
X064406Y064666D02*
G03*
X063884Y065192I-000523J000003D01*
G01*
X064406Y063124D02*
G03*
X064706Y062813I000326J000015D01*
G01*
X067533D02*
G03*
X067843Y063114I-000015J000326D01*
G01*
X081956Y063982D02*
G03*
X080746Y065192I-00121J0D01*
G01*
X061405D02*
G03*
X060223Y064011I0J-001181D01*
G01*
X06804Y065786D02*
G03*
X067844Y065588I000001J-000197D01*
G01*
X070239Y030572D02*
G03*
X069527Y031267I-000699J-000003D01*
G01*
X06305Y031267D02*
G03*
X062381Y030614I-000013J-000657D01*
G01*
X060223Y030333D02*
G03*
X061423Y029133I0012J0D01*
G01*
X064406Y064666D02*
G03*
X063884Y065192I-000523J000003D01*
G01*
X064406Y063124D02*
G03*
X064706Y062813I000326J000015D01*
G01*
X067533D02*
G03*
X067843Y063114I-000015J000326D01*
G01*
X081956Y063982D02*
G03*
X080746Y065192I-00121J0D01*
G01*
X061405D02*
G03*
X060223Y064011I0J-001181D01*
G01*
X070239Y029133D02*
X072233D01*
X070239D02*
X072233D01*
X079688Y027738D02*
X080643D01*
X063037Y031267D02*
X06954D01*
X070239Y029133D02*
Y030572D01*
X062381Y029133D02*
Y030611D01*
X060223Y030333D02*
Y064011D01*
X061423Y029133D02*
X062381D01*
X061413Y065192D02*
X063884D01*
X064406Y063125D02*
Y064666D01*
X064693Y062813D02*
X067533D01*
X067843Y063114D02*
Y065588D01*
X081953Y030331D02*
X081955Y063982D01*
X072233Y030413D02*
X080143D01*
X063037Y031267D02*
X06954D01*
X070239Y029133D02*
Y030572D01*
X062381Y029133D02*
Y030611D01*
X060223Y030333D02*
Y064011D01*
X061423Y029133D02*
X062381D01*
X061413Y065192D02*
X063884D01*
X064406Y063125D02*
Y064666D01*
X064693Y062813D02*
X067533D01*
X067843Y063114D02*
Y064666D01*
X081953Y030331D02*
X081955Y063982D01*
X072233Y030413D02*
X080142D01*
D145*
X080643Y027738D02*
X081954Y029133D01*
X081954Y030331D01*
D146*
X072233Y029133D02*
Y030413D01*
X079688Y027738D02*
Y028375D01*
X074239Y065192D02*
Y065798D01*
X073545Y065798D02*
X074239Y065798D01*
Y065192D02*
X080746D01*
X068036Y065798D02*
X073545Y065798D01*
X080142Y028375D02*
Y030413D01*
X079688Y028375D02*
X080142D01*
M02*
