G04*
G04 #@! TF.GenerationSoftware,Altium Limited,Altium Designer,21.0.8 (223)*
G04*
G04 Layer_Color=255*
%FSTAX24Y24*%
%MOIN*%
G70*
G04*
G04 #@! TF.SameCoordinates,D94166DE-144D-4B7D-845D-6ED18FE10B1D*
G04*
G04*
G04 #@! TF.FilePolarity,Positive*
G04*
G01*
G75*
%ADD24R,0.0472X0.1024*%
%ADD25R,0.0984X0.1811*%
%ADD27R,0.0394X0.0472*%
%ADD28R,0.0315X0.0354*%
%ADD29R,0.0591X0.0866*%
%ADD31O,0.0236X0.0748*%
%ADD32R,0.0098X0.0108*%
%ADD33R,0.0108X0.0098*%
%ADD34R,0.0600X0.1260*%
%ADD35R,0.1378X0.0984*%
%ADD36R,0.0472X0.0984*%
%ADD37R,0.2480X0.0846*%
%ADD38R,0.1063X0.0827*%
%ADD39O,0.0236X0.0846*%
%ADD40R,0.0110X0.0315*%
%ADD41R,0.0315X0.0110*%
%ADD42R,0.0295X0.0276*%
%ADD43R,0.0354X0.0315*%
%ADD44R,0.0201X0.0437*%
%ADD46R,0.0453X0.0236*%
%ADD48R,0.0236X0.0453*%
%ADD49R,0.0472X0.0394*%
%ADD82R,0.0945X0.0394*%
%ADD83R,0.1063X0.1063*%
%ADD84R,0.1457X0.1417*%
%ADD85R,0.0394X0.0945*%
%ADD94C,0.0433*%
%ADD95O,0.0750X0.0650*%
%ADD96R,0.0750X0.0650*%
%ADD97R,0.0787X0.0787*%
%ADD98C,0.0787*%
%ADD99C,0.0454*%
D24*
X07922Y037322D02*
D03*
X080283D02*
D03*
X077392D02*
D03*
X078455D02*
D03*
X078054Y038705D02*
D03*
X079117D02*
D03*
D25*
X079283Y035543D02*
D03*
X08133D02*
D03*
D27*
X079Y04622D02*
D03*
X077699D02*
D03*
D28*
X075078Y03661D02*
D03*
X075629D02*
D03*
X079035Y045525D02*
D03*
X078483D02*
D03*
X081342Y039896D02*
D03*
X08079D02*
D03*
X072414Y0476D02*
D03*
X071863D02*
D03*
X074542Y047108D02*
D03*
X075094D02*
D03*
X080406Y038491D02*
D03*
X080958D02*
D03*
X071641Y032279D02*
D03*
X072192D02*
D03*
X07016Y037669D02*
D03*
X069609D02*
D03*
X06873Y038123D02*
D03*
X068179D02*
D03*
X073631Y047592D02*
D03*
X07308D02*
D03*
X068723Y037551D02*
D03*
X068172D02*
D03*
X068865Y042988D02*
D03*
X068314D02*
D03*
X072129Y037165D02*
D03*
X071578D02*
D03*
X073381Y032346D02*
D03*
X073932D02*
D03*
X080958Y039027D02*
D03*
X080406D02*
D03*
X070397Y03644D02*
D03*
X069846D02*
D03*
X069814Y035952D02*
D03*
X070365D02*
D03*
X070995Y032255D02*
D03*
X070444D02*
D03*
X068151Y048724D02*
D03*
X068702D02*
D03*
X071538Y042326D02*
D03*
X07209D02*
D03*
X069425Y039582D02*
D03*
X069976D02*
D03*
X068178Y040043D02*
D03*
X068729D02*
D03*
X069979Y040055D02*
D03*
X069428D02*
D03*
X068178Y039353D02*
D03*
X068729D02*
D03*
X068179Y038779D02*
D03*
X06873D02*
D03*
X075094Y04658D02*
D03*
X074542D02*
D03*
X068913Y050604D02*
D03*
X069464D02*
D03*
X067363Y050614D02*
D03*
X067914D02*
D03*
X068731Y040598D02*
D03*
X06818D02*
D03*
D29*
X076568Y04559D02*
D03*
Y047244D02*
D03*
D31*
X073937Y035215D02*
D03*
X073437D02*
D03*
X072937D02*
D03*
X072437D02*
D03*
X071937D02*
D03*
X071437D02*
D03*
X070937D02*
D03*
X070437D02*
D03*
X073937Y033168D02*
D03*
X073437D02*
D03*
X072937D02*
D03*
X072437D02*
D03*
X071937D02*
D03*
X071437D02*
D03*
X070937D02*
D03*
X070437D02*
D03*
D32*
X068366Y049394D02*
D03*
X06817D02*
D03*
Y049994D02*
D03*
X068366D02*
D03*
D33*
X067968Y049398D02*
D03*
Y049595D02*
D03*
Y049792D02*
D03*
Y049989D02*
D03*
X068568D02*
D03*
Y049792D02*
D03*
Y049595D02*
D03*
Y049398D02*
D03*
D34*
X068485Y031993D02*
D03*
X067394D02*
D03*
X066303D02*
D03*
X065213D02*
D03*
X064122D02*
D03*
D35*
X077381Y033251D02*
D03*
Y036007D02*
D03*
D36*
X074874Y031363D02*
D03*
X073693D02*
D03*
X078764D02*
D03*
X077583D02*
D03*
D37*
X076712Y042467D02*
D03*
Y0441D02*
D03*
D38*
X079367Y041085D02*
D03*
D39*
X078618Y039953D02*
D03*
X079117D02*
D03*
X079618D02*
D03*
X080118D02*
D03*
X078618Y042216D02*
D03*
X079117D02*
D03*
X079618D02*
D03*
X080118D02*
D03*
D40*
X070857Y040255D02*
D03*
X071054D02*
D03*
X071251D02*
D03*
X071448D02*
D03*
X071645D02*
D03*
X071841D02*
D03*
X072038D02*
D03*
X072235D02*
D03*
Y038287D02*
D03*
X072038D02*
D03*
X071841D02*
D03*
X071645D02*
D03*
X071448D02*
D03*
X071251D02*
D03*
X071054D02*
D03*
X070857D02*
D03*
D41*
X072531Y03996D02*
D03*
Y039763D02*
D03*
Y039566D02*
D03*
Y03937D02*
D03*
Y039173D02*
D03*
Y038976D02*
D03*
Y038779D02*
D03*
Y038582D02*
D03*
X070562D02*
D03*
Y038779D02*
D03*
Y038976D02*
D03*
Y039173D02*
D03*
Y03937D02*
D03*
Y039566D02*
D03*
Y039763D02*
D03*
Y03996D02*
D03*
D42*
X071936Y040983D02*
D03*
Y041751D02*
D03*
X071542D02*
D03*
Y040983D02*
D03*
D43*
X06829Y04187D02*
D03*
Y042421D02*
D03*
X075637Y036061D02*
D03*
Y035509D02*
D03*
X075145Y035509D02*
D03*
Y036061D02*
D03*
X073444Y064409D02*
D03*
Y063858D02*
D03*
X07572Y048297D02*
D03*
Y048848D02*
D03*
X075698Y049931D02*
D03*
Y049379D02*
D03*
X072779Y031704D02*
D03*
Y032255D02*
D03*
X069446Y049232D02*
D03*
Y049783D02*
D03*
X075137Y049393D02*
D03*
Y049944D02*
D03*
X079785Y039027D02*
D03*
Y038476D02*
D03*
X061861Y046881D02*
D03*
Y047433D02*
D03*
X070731Y049469D02*
D03*
Y048918D02*
D03*
X069783Y033227D02*
D03*
Y033778D02*
D03*
X071881Y063858D02*
D03*
Y064409D02*
D03*
X074222Y063858D02*
D03*
Y064409D02*
D03*
X071097Y063858D02*
D03*
Y064409D02*
D03*
X07266Y063858D02*
D03*
Y064409D02*
D03*
X070319Y063858D02*
D03*
Y064409D02*
D03*
X069747Y034425D02*
D03*
Y034976D02*
D03*
X074672Y033204D02*
D03*
Y032653D02*
D03*
X068756Y063858D02*
D03*
Y064409D02*
D03*
X069535Y063858D02*
D03*
Y064409D02*
D03*
X067023Y038778D02*
D03*
Y039329D02*
D03*
X067613Y039339D02*
D03*
Y038788D02*
D03*
X070995Y037128D02*
D03*
Y037679D02*
D03*
X070684Y040768D02*
D03*
Y041319D02*
D03*
X072495Y040992D02*
D03*
Y041543D02*
D03*
X070731Y050027D02*
D03*
Y050578D02*
D03*
X074576Y04997D02*
D03*
Y049419D02*
D03*
X080859Y041905D02*
D03*
Y042456D02*
D03*
X081499Y041917D02*
D03*
Y042468D02*
D03*
X081499Y040835D02*
D03*
Y041386D02*
D03*
X067363Y04996D02*
D03*
Y049409D02*
D03*
D44*
X073143Y059761D02*
D03*
X072643D02*
D03*
X072143D02*
D03*
X071643D02*
D03*
X072643Y061927D02*
D03*
X073143D02*
D03*
X072143D02*
D03*
X071643D02*
D03*
D46*
X073871Y046592D02*
D03*
X072985Y046218D02*
D03*
Y046966D02*
D03*
X072783Y049643D02*
D03*
X071897Y049269D02*
D03*
Y050017D02*
D03*
D48*
X069806Y040887D02*
D03*
X069432Y041773D02*
D03*
X07018D02*
D03*
X074765Y048625D02*
D03*
X075139Y04774D02*
D03*
X074391D02*
D03*
D49*
X076798Y041585D02*
D03*
Y040284D02*
D03*
D82*
X080948Y0442D02*
D03*
X079137D02*
D03*
D83*
X071547Y039271D02*
D03*
D84*
X072393Y060844D02*
D03*
D85*
X078288Y049421D02*
D03*
Y04761D02*
D03*
D94*
X064751Y056692D02*
D03*
D95*
X060943Y045878D02*
D03*
X075062Y060871D02*
D03*
Y059891D02*
D03*
Y061881D02*
D03*
D96*
X060943Y046888D02*
D03*
X075062Y058881D02*
D03*
D97*
X067273Y034513D02*
D03*
D98*
Y036513D02*
D03*
D99*
X061157Y03081D02*
D03*
M02*
