G04*
G04 #@! TF.GenerationSoftware,Altium Limited,Altium Designer,21.0.8 (223)*
G04*
G04 Layer_Color=128*
%FSTAX24Y24*%
%MOIN*%
G70*
G04*
G04 #@! TF.SameCoordinates,54288C87-6C50-4DCC-9232-1D79D91570B4*
G04*
G04*
G04 #@! TF.FilePolarity,Positive*
G04*
G01*
G75*
%ADD60C,0.0020*%
D60*
X071144Y050312D02*
X071644D01*
X071394Y050062D02*
Y050562D01*
X073144Y050312D02*
X073644D01*
X073394Y050062D02*
Y050562D01*
X075144Y050312D02*
X075644D01*
X075394Y050062D02*
Y050562D01*
X067144Y050312D02*
X067644D01*
X067394Y050062D02*
Y050562D01*
X065144Y050312D02*
X065644D01*
X065394Y050062D02*
Y050562D01*
X069144Y050312D02*
X069644D01*
X069394Y050062D02*
Y050562D01*
X066264Y045164D02*
X066598D01*
X066431Y044997D02*
Y045332D01*
X066264Y044377D02*
X066598D01*
X066431Y04421D02*
Y044544D01*
X066264Y04359D02*
X066598D01*
X066431Y043422D02*
Y043757D01*
X066264Y042802D02*
X066598D01*
X066431Y042635D02*
Y04297D01*
X076782Y050929D02*
X077143D01*
X076962Y050749D02*
Y051109D01*
X076782Y051939D02*
X077143D01*
X076962Y051759D02*
Y052119D01*
X063638Y042391D02*
X063756D01*
X063697Y042332D02*
Y04245D01*
X063638Y043527D02*
X063756D01*
X063697Y043468D02*
Y043586D01*
X063638Y044662D02*
X063756D01*
X063697Y044603D02*
Y044722D01*
X063638Y045798D02*
X063756D01*
X063697Y045739D02*
Y045857D01*
X063638Y046934D02*
X063756D01*
X063697Y046875D02*
Y046993D01*
X064642Y048125D02*
X06476D01*
X064701Y048066D02*
Y048184D01*
X064642Y048724D02*
X06476D01*
X064701Y048664D02*
Y048783D01*
X064642Y049322D02*
X06476D01*
X064701Y049263D02*
Y049381D01*
X075937Y052247D02*
X076055D01*
X075996Y052188D02*
Y052306D01*
X07471Y052247D02*
X074829D01*
X07477Y052188D02*
Y052306D01*
X073484Y052247D02*
X073602D01*
X073543Y052188D02*
Y052306D01*
X072258Y052247D02*
X072376D01*
X072317Y052188D02*
Y052306D01*
X063673Y052247D02*
X063791D01*
X063732Y052188D02*
Y052306D01*
X064899Y052247D02*
X065018D01*
X064959Y052188D02*
Y052306D01*
X066126Y052247D02*
X066244D01*
X066185Y052188D02*
Y052306D01*
X067352Y052247D02*
X06747D01*
X067411Y052188D02*
Y052306D01*
X068579Y052247D02*
X068697D01*
X068638Y052188D02*
Y052306D01*
X069805Y052247D02*
X069923D01*
X069864Y052188D02*
Y052306D01*
X071031Y052247D02*
X071149D01*
X07109Y052188D02*
Y052306D01*
X071626Y0417D02*
X071744D01*
X071685Y041641D02*
Y041759D01*
X070399Y0417D02*
X070518D01*
X070459Y041641D02*
Y041759D01*
X075311Y042172D02*
X075429D01*
X07537Y042113D02*
Y042231D01*
X069173Y0417D02*
X069291D01*
X069232Y041641D02*
Y041759D01*
X067947Y0417D02*
X068065D01*
X068006Y041641D02*
Y041759D01*
X06672Y0417D02*
X066838D01*
X066779Y041641D02*
Y041759D01*
X065494Y0417D02*
X065612D01*
X065553Y041641D02*
Y041759D01*
X064268Y0417D02*
X064386D01*
X064327Y041641D02*
Y041759D01*
X072852Y0417D02*
X07297D01*
X072911Y041641D02*
Y041759D01*
X074079Y0417D02*
X074197D01*
X074138Y041641D02*
Y041759D01*
X075305Y0417D02*
X075423D01*
X075364Y041641D02*
Y041759D01*
X076531Y0417D02*
X076649D01*
X07659Y041641D02*
Y041759D01*
X068685Y042991D02*
X068803D01*
X068744Y042932D02*
Y04305D01*
X069362Y042991D02*
X06948D01*
X069421Y042932D02*
Y04305D01*
X071212Y042905D02*
X071331D01*
X071272Y042846D02*
Y042964D01*
X071484Y04329D02*
X071602D01*
X071543Y043231D02*
Y043349D01*
X069303Y044062D02*
X069421D01*
X069362Y044003D02*
Y044121D01*
X069303Y044418D02*
X069421D01*
X069362Y044359D02*
Y044477D01*
X069303Y044775D02*
X069421D01*
X069362Y044716D02*
Y044834D01*
X071157Y045822D02*
X071275D01*
X071216Y045763D02*
Y045881D01*
X070504Y045822D02*
X070622D01*
X070563Y045763D02*
Y045881D01*
X06985Y045822D02*
X069968D01*
X069909Y045763D02*
Y045881D01*
X07288Y046806D02*
X072999D01*
X072939Y046747D02*
Y046865D01*
X073365Y047281D02*
X073483D01*
X073424Y047222D02*
Y04734D01*
X073504Y046806D02*
X073622D01*
X073563Y046747D02*
Y046865D01*
X074017Y047281D02*
X074135D01*
X074076Y047222D02*
Y04734D01*
X074127Y046806D02*
X074245D01*
X074186Y046747D02*
Y046865D01*
X074669Y0469D02*
X074787D01*
X074728Y046841D02*
Y046959D01*
X074669Y047281D02*
X074787D01*
X074728Y047222D02*
Y04734D01*
X072712Y047281D02*
X072831D01*
X072772Y047222D02*
Y04734D01*
X074669Y046519D02*
X074787D01*
X074728Y04646D02*
Y046578D01*
X074669Y046138D02*
X074787D01*
X074728Y046079D02*
Y046197D01*
X074669Y045375D02*
X074787D01*
X074728Y045316D02*
Y045435D01*
X074669Y045757D02*
X074787D01*
X074728Y045698D02*
Y045816D01*
X073453Y045031D02*
X073571D01*
X073512Y044972D02*
Y04509D01*
X073449Y04529D02*
X073567D01*
X073508Y045231D02*
Y045349D01*
X076992Y042208D02*
X07711D01*
X077051Y042149D02*
Y042267D01*
X076992Y042822D02*
X07711D01*
X077051Y042763D02*
Y042881D01*
X076992Y043436D02*
X07711D01*
X077051Y043377D02*
Y043495D01*
X076992Y04405D02*
X07711D01*
X077051Y043991D02*
Y044109D01*
X075819Y044684D02*
X075937D01*
X075878Y044625D02*
Y044743D01*
X077051Y050007D02*
X077169D01*
X07711Y049948D02*
Y050066D01*
X076362Y050031D02*
X07648D01*
X076421Y049972D02*
Y05009D01*
X07246Y044582D02*
X072579D01*
X07252Y044523D02*
Y044641D01*
X070563Y046846D02*
X070681D01*
X070622Y046786D02*
Y046905D01*
X06874Y046853D02*
X068858D01*
X068799Y046794D02*
Y046912D01*
X063793Y04979D02*
X063911D01*
X063852Y049731D02*
Y049849D01*
X068409Y044426D02*
X068527D01*
X068468Y044367D02*
Y044485D01*
X070978Y045076D02*
X071096D01*
X071037Y045017D02*
Y045135D01*
X070732Y043157D02*
X07085D01*
X070791Y043098D02*
Y043216D01*
M02*
