G04*
G04 #@! TF.GenerationSoftware,Altium Limited,Altium Designer,21.3.2 (30)*
G04*
G04 Layer_Color=128*
%FSTAX24Y24*%
%MOIN*%
G70*
G04*
G04 #@! TF.SameCoordinates,A3F46B7C-A478-48B6-9C65-4A08B567271E*
G04*
G04*
G04 #@! TF.FilePolarity,Positive*
G04*
G01*
G75*
%ADD77C,0.0020*%
D77*
X01735Y024256D02*
X017704D01*
X017527Y024079D02*
Y024433D01*
X01735Y025563D02*
X017704D01*
X017527Y025386D02*
Y02574D01*
X01735Y02687D02*
X017704D01*
X017527Y026693D02*
Y027047D01*
X01735Y028177D02*
X017704D01*
X017527Y028D02*
Y028354D01*
X026565Y016106D02*
X026925D01*
X026745Y015926D02*
Y016286D01*
X028585Y016106D02*
X028945D01*
X028765Y015926D02*
Y016286D01*
X029565Y016106D02*
X029925D01*
X029745Y015926D02*
Y016286D01*
X030575Y016106D02*
X030935D01*
X030755Y015926D02*
Y016286D01*
X027575Y016106D02*
X027935D01*
X027755Y015926D02*
Y016286D01*
X01735Y016413D02*
X017704D01*
X017527Y016236D02*
Y016591D01*
X01735Y01772D02*
X017704D01*
X017527Y017543D02*
Y017898D01*
X01735Y015106D02*
X017704D01*
X017527Y014929D02*
Y015283D01*
X017318Y012453D02*
X017672D01*
X017495Y012276D02*
Y01263D01*
X017318Y01376D02*
X017672D01*
X017495Y013583D02*
Y013937D01*
X01735Y019028D02*
X017704D01*
X017527Y01885D02*
Y019205D01*
X01735Y020335D02*
X017704D01*
X017527Y020157D02*
Y020512D01*
X01735Y021642D02*
X017704D01*
X017527Y021465D02*
Y021819D01*
X01735Y022949D02*
X017704D01*
X017527Y022772D02*
Y023126D01*
X020452Y025157D02*
X020846D01*
X020649Y024961D02*
Y025354D01*
X020452Y026157D02*
X020846D01*
X020649Y025961D02*
Y026354D01*
X023995Y026157D02*
X024389D01*
X024192Y025961D02*
Y026354D01*
X023995Y025157D02*
X024389D01*
X024192Y024961D02*
Y025354D01*
X026357Y026157D02*
X026751D01*
X026554Y025961D02*
Y026354D01*
X026357Y025157D02*
X026751D01*
X026554Y024961D02*
Y025354D01*
X029507Y026157D02*
X029901D01*
X029704Y025961D02*
Y026354D01*
X029507Y025157D02*
X029901D01*
X029704Y024961D02*
Y025354D01*
X031869Y026157D02*
X032263D01*
X032066Y025961D02*
Y026354D01*
X031869Y025157D02*
X032263D01*
X032066Y024961D02*
Y025354D01*
X018999Y01578D02*
X019117D01*
X019058Y015721D02*
Y015839D01*
X019743Y01578D02*
X019861D01*
X019802Y015721D02*
Y015839D01*
X019743Y015107D02*
X019861D01*
X019802Y015048D02*
Y015167D01*
X018999Y015107D02*
X019117D01*
X019058Y015048D02*
Y015167D01*
X033564Y013738D02*
X033682D01*
X033623Y013679D02*
Y013797D01*
X019894Y023047D02*
X020012D01*
X019953Y022988D02*
Y023106D01*
X021764Y015709D02*
X021882D01*
X021823Y01565D02*
Y015769D01*
X021862Y016146D02*
X02198D01*
X021921Y016087D02*
Y016206D01*
X025521Y015709D02*
X025639D01*
X02558Y01565D02*
Y015769D01*
X026812Y029008D02*
X02693D01*
X026871Y028949D02*
Y029068D01*
X027891Y029008D02*
X028009D01*
X02795Y028949D02*
Y029068D01*
X027783Y027132D02*
X027901D01*
X027842Y027073D02*
Y027191D01*
X026705Y027132D02*
X026823D01*
X026764Y027073D02*
Y027191D01*
X028969Y029008D02*
X029087D01*
X029028Y028949D02*
Y029068D01*
X030048Y029008D02*
X030166D01*
X030107Y028949D02*
Y029068D01*
X02994Y027132D02*
X030058D01*
X029999Y027073D02*
Y027191D01*
X028862Y027132D02*
X02898D01*
X028921Y027073D02*
Y027191D01*
X031126Y029008D02*
X031244D01*
X031185Y028949D02*
Y029068D01*
X032205Y029008D02*
X032323D01*
X032264Y028949D02*
Y029068D01*
X032097Y027132D02*
X032215D01*
X032156Y027073D02*
Y027191D01*
X031019Y027132D02*
X031137D01*
X031078Y027073D02*
Y027191D01*
X033283Y029008D02*
X033401D01*
X033342Y028949D02*
Y029068D01*
X034362Y029008D02*
X03448D01*
X034421Y028949D02*
Y029068D01*
X034254Y027132D02*
X034372D01*
X034313Y027073D02*
Y027191D01*
X033176Y027132D02*
X033294D01*
X033235Y027073D02*
Y027191D01*
X03544Y029008D02*
X035558D01*
X035499Y028949D02*
Y029068D01*
X036519Y029008D02*
X036637D01*
X036578Y028949D02*
Y029068D01*
X036411Y027132D02*
X03653D01*
X03647Y027073D02*
Y027191D01*
X035333Y027132D02*
X035451D01*
X035392Y027073D02*
Y027191D01*
X024777Y016382D02*
X024895D01*
X024836Y016323D02*
Y016441D01*
X025521Y016382D02*
X025639D01*
X02558Y016323D02*
Y016441D01*
X024777Y015709D02*
X024895D01*
X024836Y01565D02*
Y015769D01*
X015043Y027837D02*
X015161D01*
X015102Y027778D02*
Y027896D01*
X015788Y027837D02*
X015906D01*
X015847Y027778D02*
Y027896D01*
X015788Y026976D02*
X015906D01*
X015847Y026917D02*
Y027035D01*
X015043Y026976D02*
X015161D01*
X015102Y026917D02*
Y027035D01*
X015043Y026115D02*
X015161D01*
X015102Y026056D02*
Y026174D01*
X015788Y026115D02*
X015906D01*
X015847Y026056D02*
Y026174D01*
X015788Y025253D02*
X015906D01*
X015847Y025194D02*
Y025312D01*
X015043Y025253D02*
X015161D01*
X015102Y025194D02*
Y025312D01*
X015043Y024392D02*
X015161D01*
X015102Y024333D02*
Y024451D01*
X015788Y024392D02*
X015906D01*
X015847Y024333D02*
Y024451D01*
X015788Y023531D02*
X015906D01*
X015847Y023472D02*
Y02359D01*
X015043Y023531D02*
X015161D01*
X015102Y023472D02*
Y02359D01*
X015066Y014903D02*
X015184D01*
X015125Y014844D02*
Y014962D01*
X01581Y014903D02*
X015928D01*
X015869Y014844D02*
Y014962D01*
X01581Y015575D02*
X015928D01*
X015869Y015516D02*
Y015634D01*
X015066Y015575D02*
X015184D01*
X015125Y015516D02*
Y015634D01*
X035526Y01967D02*
X035644D01*
X035585Y019611D02*
Y019729D01*
X035368Y021208D02*
X035487D01*
X035427Y021149D02*
Y021267D01*
X028196Y020273D02*
X028314D01*
X028255Y020214D02*
Y020332D01*
X029068Y020273D02*
X029186D01*
X029127Y020214D02*
Y020332D01*
X02994Y020273D02*
X030058D01*
X029999Y020214D02*
Y020332D01*
X029068Y019571D02*
X029186D01*
X029127Y019512D02*
Y01963D01*
X028196Y019571D02*
X028314D01*
X028255Y019512D02*
Y01963D01*
X02994Y020949D02*
X030058D01*
X029999Y02089D02*
Y021008D01*
X029068Y020949D02*
X029186D01*
X029127Y02089D02*
Y021008D01*
X022354Y019545D02*
X022472D01*
X022413Y019486D02*
Y019604D01*
X024586Y019564D02*
X024704D01*
X024645Y019505D02*
Y019623D01*
X030826Y022296D02*
X030944D01*
X030885Y022237D02*
Y022355D01*
X026848Y021629D02*
X026966D01*
X026907Y02157D02*
Y021688D01*
X019894Y022685D02*
X020012D01*
X019953Y022626D02*
Y022744D01*
X022074Y023909D02*
X022192D01*
X022133Y02385D02*
Y023969D01*
X030696Y017325D02*
X030814D01*
X030755Y017266D02*
Y017384D01*
X027672Y017722D02*
X027791D01*
X027731Y017663D02*
Y017781D01*
X026165Y019756D02*
X026283D01*
X026224Y019697D02*
Y019815D01*
X025909Y020732D02*
X026027D01*
X025968Y020673D02*
Y020791D01*
X026495Y01985D02*
X026613D01*
X026554Y019791D02*
Y019909D01*
X026011Y029043D02*
X026129D01*
X02607Y028984D02*
Y029102D01*
X031822Y021317D02*
X03194D01*
X031881Y021258D02*
Y021376D01*
X030436Y021713D02*
X030554D01*
X030495Y021654D02*
Y021772D01*
X032225Y022047D02*
X032343D01*
X032284Y021988D02*
Y022106D01*
X032522Y022047D02*
X03264D01*
X032581Y021988D02*
Y022106D01*
X032819Y022047D02*
X032937D01*
X032878Y021988D02*
Y022106D01*
X033116Y022047D02*
X033234D01*
X033175Y021988D02*
Y022106D01*
X033413Y022047D02*
X033531D01*
X033472Y021988D02*
Y022106D01*
X02994Y019571D02*
X030058D01*
X029999Y019512D02*
Y01963D01*
X028196Y020949D02*
X028314D01*
X028255Y02089D02*
Y021008D01*
X022354Y011858D02*
X022472D01*
X022413Y011799D02*
Y011917D01*
X02267Y011858D02*
X022789D01*
X02273Y011799D02*
Y011917D01*
X039238Y021591D02*
X039356D01*
X039297Y021532D02*
Y02165D01*
X039237Y022272D02*
X039355D01*
X039296Y022213D02*
Y022331D01*
X038865Y025866D02*
X038983D01*
X038924Y025807D02*
Y025925D01*
X038865Y026283D02*
X038983D01*
X038924Y026224D02*
Y026343D01*
X03672Y012047D02*
X036838D01*
X036779Y011988D02*
Y012106D01*
X031692Y011182D02*
X03181D01*
X031751Y011123D02*
Y011241D01*
X033302Y011182D02*
X03342D01*
X033361Y011123D02*
Y011241D01*
X032487Y011182D02*
X032606D01*
X032546Y011123D02*
Y011241D01*
X034125Y011182D02*
X034243D01*
X034184Y011123D02*
Y011241D01*
X037401Y012047D02*
X037519D01*
X03746Y011988D02*
Y012106D01*
X038928Y015444D02*
X039046D01*
X038987Y015385D02*
Y015503D01*
X025653Y027842D02*
X025771D01*
X025712Y027783D02*
Y027901D01*
X023737Y029256D02*
X023856D01*
X023796Y029197D02*
Y029315D01*
X0319Y024201D02*
X032018D01*
X031959Y024142D02*
Y02426D01*
X025094Y026756D02*
X025212D01*
X025153Y026697D02*
Y026815D01*
X031464Y024201D02*
X031582D01*
X031523Y024142D02*
Y02426D01*
X04046Y023256D02*
X040578D01*
X040519Y023197D02*
Y023315D01*
X027672Y025232D02*
X027791D01*
X027731Y025173D02*
Y025291D01*
X032361Y014354D02*
X03248D01*
X03242Y014295D02*
Y014413D01*
X032361Y01674D02*
X03248D01*
X03242Y016681D02*
Y016799D01*
X022856Y019545D02*
X022974D01*
X022915Y019486D02*
Y019604D01*
X039696Y021591D02*
X039814D01*
X039755Y021532D02*
Y02165D01*
X039696Y022272D02*
X039814D01*
X039755Y022213D02*
Y022331D01*
X039546Y026283D02*
X039665D01*
X039606Y026224D02*
Y026343D01*
X039546Y025866D02*
X039665D01*
X039606Y025807D02*
Y025925D01*
X038928Y014988D02*
X039046D01*
X038987Y014929D02*
Y015047D01*
X039609Y014988D02*
X039728D01*
X039669Y014929D02*
Y015047D01*
X038928Y014437D02*
X039046D01*
X038987Y014378D02*
Y014496D01*
X039609Y014437D02*
X039728D01*
X039669Y014378D02*
Y014496D01*
X037401Y012854D02*
X037519D01*
X03746Y012795D02*
Y012913D01*
X03672Y012854D02*
X036838D01*
X036779Y012795D02*
Y012913D01*
X035011Y01419D02*
X035129D01*
X03507Y014131D02*
Y01425D01*
X034263Y01419D02*
X034381D01*
X034322Y014131D02*
Y01425D01*
X034637Y01419D02*
X034755D01*
X034696Y014131D02*
Y01425D01*
X035239Y015468D02*
X035357D01*
X035298Y015409D02*
Y015528D01*
X035247Y016126D02*
X035365D01*
X035306Y016067D02*
Y016185D01*
X033878Y020071D02*
X033996D01*
X033937Y020012D02*
Y02013D01*
X032316Y018551D02*
X032434D01*
X032375Y018492D02*
Y01861D01*
X032316Y018027D02*
X032434D01*
X032375Y017968D02*
Y018087D01*
X032798Y018027D02*
X032917D01*
X032857Y017968D02*
Y018087D01*
X033413Y018027D02*
X033531D01*
X033472Y017968D02*
Y018087D01*
X032798Y018551D02*
X032917D01*
X032857Y018492D02*
Y01861D01*
X033413Y018551D02*
X033531D01*
X033472Y018492D02*
Y01861D01*
X030436Y022307D02*
X030554D01*
X030495Y022248D02*
Y022366D01*
X034298Y020071D02*
X034417D01*
X034357Y020012D02*
Y02013D01*
X024593Y013677D02*
X024711D01*
X024652Y013618D02*
Y013736D01*
X024242Y013677D02*
X02436D01*
X024301Y013618D02*
Y013736D01*
X023891Y013677D02*
X024009D01*
X02395Y013618D02*
Y013736D01*
X023541Y013677D02*
X023659D01*
X0236Y013618D02*
Y013736D01*
X022731Y021579D02*
X02285D01*
X022791Y02152D02*
Y021638D01*
X02273Y017722D02*
X022848D01*
X022789Y017663D02*
Y017781D01*
X022987Y011858D02*
X023106D01*
X023046Y011799D02*
Y011917D01*
X03933Y019752D02*
X039448D01*
X039389Y019693D02*
Y019811D01*
X021863Y019845D02*
X021981D01*
X021922Y019786D02*
Y019905D01*
X024436Y017717D02*
X024554D01*
X024495Y017657D02*
Y017776D01*
X024438Y021484D02*
X024556D01*
X024497Y021425D02*
Y021543D01*
X033574Y013444D02*
X033692D01*
X033633Y013385D02*
Y013503D01*
X024732Y014738D02*
X02485D01*
X024791Y014679D02*
Y014797D01*
X030826Y025205D02*
X030944D01*
X030885Y025146D02*
Y025264D01*
X033212Y025232D02*
X03333D01*
X033271Y025173D02*
Y025291D01*
X035113Y020504D02*
X035231D01*
X035172Y020445D02*
Y020563D01*
X035113Y016862D02*
X035231D01*
X035172Y016803D02*
Y016921D01*
M02*
