M48
;Layer_Color=9474304
;FILE_FORMAT=2:4
INCH,LZ
;TYPE=PLATED
T1F00S00C0.0118
T2F00S00C0.0354
T3F00S00C0.0360
T4F00S00C0.0394
%
T01
X015125Y014903
Y015575
X015869
Y014903
X019058Y015107
X019802
X0236Y013677
X02395
X024301
X024652
X024791Y014738
X023046Y011858
X02273
X022413
X031751Y011182
X032546
X033361
X034184
X033633Y013444
X033623Y013738
X034322Y01419
X034696
X03507
X035298Y015468
X038987Y015444
Y014988
Y014437
X039669
Y014988
X03746Y012854
X036779
Y012047
X03746
X03242Y014354
Y01674
X032375Y018027
X032857
Y018551
X032375
X033472
Y018027
X033937Y020071
X034357
X035172Y020504
X035427Y021208
X035585Y01967
X035172Y016862
X035306Y016126
X039389Y019752
X039297Y021591
X039755
Y022272
X039296
X040519Y023256
X039606Y025866
Y026283
X038924
Y025866
X03647Y027132
X035392
X034313
X033235
X032156
X032264Y029008
X033342
X034421
X035499
X036578
X033271Y025232
X031959Y024201
X031523
X032284Y022047
X032581
X032878
X033175
X033472
X031881Y021317
X030495Y021713
Y022307
X030885Y022296
X029999Y020949
Y020273
Y019571
X029127
Y020273
Y020949
X028255
Y020273
Y019571
X026554Y01985
X026224Y019756
X025968Y020732
X026907Y021629
X024497Y021484
X022791Y021579
X022915Y019545
X022413
X021922Y019845
X022789Y017722
X024495Y017717
X024836Y016382
Y015709
X02558
Y016382
X027731Y017722
X030755Y017325
X030885Y025205
X031078Y027132
X029999
X028921
X027842
X026764
X025712Y027842
X02607Y029043
X026871Y029008
X02795
X029028
X030107
X031185
X027731Y025232
X025153Y026756
X023796Y029256
X022133Y023909
X019953Y023047
Y022685
X015847Y023531
Y024392
Y025253
Y026115
Y026976
Y027837
X019058Y01578
X019802
X021823Y015709
X021921Y016146
X024645Y019564
X015102Y023531
Y024392
Y025253
Y026115
Y026976
Y027837
T02
X017495Y012453
Y01376
X017527Y015106
Y016413
Y01772
Y019028
Y020335
Y021642
Y022949
Y024256
Y025563
Y02687
Y028177
T03
X026745Y016106
X027755
X028765
X029745
X030755
T04
X032066Y025157
Y026157
X029704
Y025157
X026554
Y026157
X024192
Y025157
X020649
Y026157
M30
