G04*
G04 #@! TF.GenerationSoftware,Altium Limited,Altium Designer,21.3.2 (30)*
G04*
G04 Layer_Color=16711935*
%FSTAX24Y24*%
%MOIN*%
G70*
G04*
G04 #@! TF.SameCoordinates,A3F46B7C-A478-48B6-9C65-4A08B567271E*
G04*
G04*
G04 #@! TF.FilePolarity,Negative*
G04*
G01*
G75*
%ADD48R,0.1064X0.0552*%
%ADD52O,0.1655X0.0671*%
%ADD53O,0.0730X0.0830*%
%ADD54R,0.0730X0.0830*%
%ADD55O,0.2049X0.0867*%
%ADD56C,0.0671*%
%ADD57R,0.0671X0.0671*%
D48*
X040521Y016622D02*
D03*
Y015441D02*
D03*
Y020933D02*
D03*
Y019752D02*
D03*
Y025244D02*
D03*
Y024063D02*
D03*
D52*
X017527Y024256D02*
D03*
Y025563D02*
D03*
Y02687D02*
D03*
Y028177D02*
D03*
Y016413D02*
D03*
Y01772D02*
D03*
Y015106D02*
D03*
Y019028D02*
D03*
Y020335D02*
D03*
Y021642D02*
D03*
Y022949D02*
D03*
D53*
X026745Y016106D02*
D03*
X028765D02*
D03*
X029745D02*
D03*
X027755D02*
D03*
D54*
X030755D02*
D03*
D55*
X017495Y012453D02*
D03*
Y01376D02*
D03*
D56*
X020649Y025157D02*
D03*
X024192D02*
D03*
X026554D02*
D03*
X029704D02*
D03*
X032066D02*
D03*
D57*
X020649Y026157D02*
D03*
X024192D02*
D03*
X026554D02*
D03*
X029704D02*
D03*
X032066D02*
D03*
M02*
