G04*
G04 #@! TF.GenerationSoftware,Altium Limited,Altium Designer,21.3.2 (30)*
G04*
G04 Layer_Color=2752767*
%FSTAX24Y24*%
%MOIN*%
G70*
G04*
G04 #@! TF.SameCoordinates,A3F46B7C-A478-48B6-9C65-4A08B567271E*
G04*
G04*
G04 #@! TF.FilePolarity,Positive*
G04*
G01*
G75*
%ADD77C,0.0020*%
%ADD78C,0.0027*%
D77*
X017447Y024176D02*
Y024336D01*
X017607D01*
Y024176D01*
X017447D01*
Y025483D02*
Y025643D01*
X017607D01*
Y025483D01*
X017447D01*
Y02679D02*
Y02695D01*
X017607D01*
Y02679D01*
X017447D01*
Y028097D02*
Y028257D01*
X017607D01*
Y028097D01*
X017447D01*
Y016333D02*
Y016493D01*
X017607D01*
Y016333D01*
X017447D01*
Y01764D02*
Y0178D01*
X017607D01*
Y01764D01*
X017447D01*
Y015026D02*
Y015186D01*
X017607D01*
Y015026D01*
X017447D01*
X017415Y012373D02*
Y012533D01*
X017575D01*
Y012373D01*
X017415D01*
Y01368D02*
Y01384D01*
X017575D01*
Y01368D01*
X017415D01*
X017447Y018948D02*
Y019108D01*
X017607D01*
Y018948D01*
X017447D01*
Y020255D02*
Y020415D01*
X017607D01*
Y020255D01*
X017447D01*
Y021562D02*
Y021722D01*
X017607D01*
Y021562D01*
X017447D01*
Y022869D02*
Y023029D01*
X017607D01*
Y022869D01*
X017447D01*
X020649Y025077D02*
X020569Y025237D01*
X020729D01*
X020649Y025077D01*
Y026077D02*
X020569Y026237D01*
X020729D01*
X020649Y026077D01*
X024192D02*
X024112Y026237D01*
X024272D01*
X024192Y026077D01*
Y025077D02*
X024112Y025237D01*
X024272D01*
X024192Y025077D01*
X026554Y026077D02*
X026474Y026237D01*
X026634D01*
X026554Y026077D01*
Y025077D02*
X026474Y025237D01*
X026634D01*
X026554Y025077D01*
X029704Y026077D02*
X029624Y026237D01*
X029784D01*
X029704Y026077D01*
Y025077D02*
X029624Y025237D01*
X029784D01*
X029704Y025077D01*
X032066Y026077D02*
X031986Y026237D01*
X032146D01*
X032066Y026077D01*
Y025077D02*
X031986Y025237D01*
X032146D01*
X032066Y025077D01*
X019058Y0157D02*
X019098Y01574D01*
X019138D01*
X019098Y01578D01*
X019138Y01582D01*
X019098D01*
X019058Y01586D01*
X019018Y01582D01*
X018978D01*
X019018Y01578D01*
X018978Y01574D01*
X019018D01*
X019058Y0157D01*
X019802D02*
X019842Y01574D01*
X019882D01*
X019842Y01578D01*
X019882Y01582D01*
X019842D01*
X019802Y01586D01*
X019762Y01582D01*
X019722D01*
X019762Y01578D01*
X019722Y01574D01*
X019762D01*
X019802Y0157D01*
Y015027D02*
X019842Y015067D01*
X019882D01*
X019842Y015107D01*
X019882Y015147D01*
X019842D01*
X019802Y015187D01*
X019762Y015147D01*
X019722D01*
X019762Y015107D01*
X019722Y015067D01*
X019762D01*
X019802Y015027D01*
X019058D02*
X019098Y015067D01*
X019138D01*
X019098Y015107D01*
X019138Y015147D01*
X019098D01*
X019058Y015187D01*
X019018Y015147D01*
X018978D01*
X019018Y015107D01*
X018978Y015067D01*
X019018D01*
X019058Y015027D01*
X033623Y013658D02*
X033663Y013698D01*
X033703D01*
X033663Y013738D01*
X033703Y013778D01*
X033663D01*
X033623Y013818D01*
X033583Y013778D01*
X033543D01*
X033583Y013738D01*
X033543Y013698D01*
X033583D01*
X033623Y013658D01*
X019953Y022967D02*
X019993Y023007D01*
X020033D01*
X019993Y023047D01*
X020033Y023087D01*
X019993D01*
X019953Y023127D01*
X019913Y023087D01*
X019873D01*
X019913Y023047D01*
X019873Y023007D01*
X019913D01*
X019953Y022967D01*
X021823Y015629D02*
X021863Y015669D01*
X021903D01*
X021863Y015709D01*
X021903Y015749D01*
X021863D01*
X021823Y015789D01*
X021783Y015749D01*
X021743D01*
X021783Y015709D01*
X021743Y015669D01*
X021783D01*
X021823Y015629D01*
X021921Y016066D02*
X021961Y016106D01*
X022001D01*
X021961Y016146D01*
X022001Y016186D01*
X021961D01*
X021921Y016226D01*
X021881Y016186D01*
X021841D01*
X021881Y016146D01*
X021841Y016106D01*
X021881D01*
X021921Y016066D01*
X02558Y015629D02*
X02562Y015669D01*
X02566D01*
X02562Y015709D01*
X02566Y015749D01*
X02562D01*
X02558Y015789D01*
X02554Y015749D01*
X0255D01*
X02554Y015709D01*
X0255Y015669D01*
X02554D01*
X02558Y015629D01*
X026871Y028928D02*
X026911Y028968D01*
X026951D01*
X026911Y029008D01*
X026951Y029048D01*
X026911D01*
X026871Y029088D01*
X026831Y029048D01*
X026791D01*
X026831Y029008D01*
X026791Y028968D01*
X026831D01*
X026871Y028928D01*
X02795D02*
X02799Y028968D01*
X02803D01*
X02799Y029008D01*
X02803Y029048D01*
X02799D01*
X02795Y029088D01*
X02791Y029048D01*
X02787D01*
X02791Y029008D01*
X02787Y028968D01*
X02791D01*
X02795Y028928D01*
X027842Y027052D02*
X027882Y027092D01*
X027922D01*
X027882Y027132D01*
X027922Y027172D01*
X027882D01*
X027842Y027212D01*
X027802Y027172D01*
X027762D01*
X027802Y027132D01*
X027762Y027092D01*
X027802D01*
X027842Y027052D01*
X026764D02*
X026804Y027092D01*
X026844D01*
X026804Y027132D01*
X026844Y027172D01*
X026804D01*
X026764Y027212D01*
X026724Y027172D01*
X026684D01*
X026724Y027132D01*
X026684Y027092D01*
X026724D01*
X026764Y027052D01*
X029028Y028928D02*
X029068Y028968D01*
X029108D01*
X029068Y029008D01*
X029108Y029048D01*
X029068D01*
X029028Y029088D01*
X028988Y029048D01*
X028948D01*
X028988Y029008D01*
X028948Y028968D01*
X028988D01*
X029028Y028928D01*
X030107D02*
X030147Y028968D01*
X030187D01*
X030147Y029008D01*
X030187Y029048D01*
X030147D01*
X030107Y029088D01*
X030067Y029048D01*
X030027D01*
X030067Y029008D01*
X030027Y028968D01*
X030067D01*
X030107Y028928D01*
X029999Y027052D02*
X030039Y027092D01*
X030079D01*
X030039Y027132D01*
X030079Y027172D01*
X030039D01*
X029999Y027212D01*
X029959Y027172D01*
X029919D01*
X029959Y027132D01*
X029919Y027092D01*
X029959D01*
X029999Y027052D01*
X028921D02*
X028961Y027092D01*
X029001D01*
X028961Y027132D01*
X029001Y027172D01*
X028961D01*
X028921Y027212D01*
X028881Y027172D01*
X028841D01*
X028881Y027132D01*
X028841Y027092D01*
X028881D01*
X028921Y027052D01*
X031185Y028928D02*
X031225Y028968D01*
X031265D01*
X031225Y029008D01*
X031265Y029048D01*
X031225D01*
X031185Y029088D01*
X031145Y029048D01*
X031105D01*
X031145Y029008D01*
X031105Y028968D01*
X031145D01*
X031185Y028928D01*
X032264D02*
X032304Y028968D01*
X032344D01*
X032304Y029008D01*
X032344Y029048D01*
X032304D01*
X032264Y029088D01*
X032224Y029048D01*
X032184D01*
X032224Y029008D01*
X032184Y028968D01*
X032224D01*
X032264Y028928D01*
X032156Y027052D02*
X032196Y027092D01*
X032236D01*
X032196Y027132D01*
X032236Y027172D01*
X032196D01*
X032156Y027212D01*
X032116Y027172D01*
X032076D01*
X032116Y027132D01*
X032076Y027092D01*
X032116D01*
X032156Y027052D01*
X031078D02*
X031118Y027092D01*
X031158D01*
X031118Y027132D01*
X031158Y027172D01*
X031118D01*
X031078Y027212D01*
X031038Y027172D01*
X030998D01*
X031038Y027132D01*
X030998Y027092D01*
X031038D01*
X031078Y027052D01*
X033342Y028928D02*
X033382Y028968D01*
X033422D01*
X033382Y029008D01*
X033422Y029048D01*
X033382D01*
X033342Y029088D01*
X033302Y029048D01*
X033262D01*
X033302Y029008D01*
X033262Y028968D01*
X033302D01*
X033342Y028928D01*
X034421D02*
X034461Y028968D01*
X034501D01*
X034461Y029008D01*
X034501Y029048D01*
X034461D01*
X034421Y029088D01*
X034381Y029048D01*
X034341D01*
X034381Y029008D01*
X034341Y028968D01*
X034381D01*
X034421Y028928D01*
X034313Y027052D02*
X034353Y027092D01*
X034393D01*
X034353Y027132D01*
X034393Y027172D01*
X034353D01*
X034313Y027212D01*
X034273Y027172D01*
X034233D01*
X034273Y027132D01*
X034233Y027092D01*
X034273D01*
X034313Y027052D01*
X033235D02*
X033275Y027092D01*
X033315D01*
X033275Y027132D01*
X033315Y027172D01*
X033275D01*
X033235Y027212D01*
X033195Y027172D01*
X033155D01*
X033195Y027132D01*
X033155Y027092D01*
X033195D01*
X033235Y027052D01*
X035499Y028928D02*
X035539Y028968D01*
X035579D01*
X035539Y029008D01*
X035579Y029048D01*
X035539D01*
X035499Y029088D01*
X035459Y029048D01*
X035419D01*
X035459Y029008D01*
X035419Y028968D01*
X035459D01*
X035499Y028928D01*
X036578D02*
X036618Y028968D01*
X036658D01*
X036618Y029008D01*
X036658Y029048D01*
X036618D01*
X036578Y029088D01*
X036538Y029048D01*
X036498D01*
X036538Y029008D01*
X036498Y028968D01*
X036538D01*
X036578Y028928D01*
X03647Y027052D02*
X03651Y027092D01*
X03655D01*
X03651Y027132D01*
X03655Y027172D01*
X03651D01*
X03647Y027212D01*
X03643Y027172D01*
X03639D01*
X03643Y027132D01*
X03639Y027092D01*
X03643D01*
X03647Y027052D01*
X035392D02*
X035432Y027092D01*
X035472D01*
X035432Y027132D01*
X035472Y027172D01*
X035432D01*
X035392Y027212D01*
X035352Y027172D01*
X035312D01*
X035352Y027132D01*
X035312Y027092D01*
X035352D01*
X035392Y027052D01*
X024836Y016302D02*
X024876Y016342D01*
X024916D01*
X024876Y016382D01*
X024916Y016422D01*
X024876D01*
X024836Y016462D01*
X024796Y016422D01*
X024756D01*
X024796Y016382D01*
X024756Y016342D01*
X024796D01*
X024836Y016302D01*
X02558D02*
X02562Y016342D01*
X02566D01*
X02562Y016382D01*
X02566Y016422D01*
X02562D01*
X02558Y016462D01*
X02554Y016422D01*
X0255D01*
X02554Y016382D01*
X0255Y016342D01*
X02554D01*
X02558Y016302D01*
X024836Y015629D02*
X024876Y015669D01*
X024916D01*
X024876Y015709D01*
X024916Y015749D01*
X024876D01*
X024836Y015789D01*
X024796Y015749D01*
X024756D01*
X024796Y015709D01*
X024756Y015669D01*
X024796D01*
X024836Y015629D01*
X015102Y027757D02*
X015142Y027797D01*
X015182D01*
X015142Y027837D01*
X015182Y027877D01*
X015142D01*
X015102Y027917D01*
X015062Y027877D01*
X015022D01*
X015062Y027837D01*
X015022Y027797D01*
X015062D01*
X015102Y027757D01*
X015847D02*
X015887Y027797D01*
X015927D01*
X015887Y027837D01*
X015927Y027877D01*
X015887D01*
X015847Y027917D01*
X015807Y027877D01*
X015767D01*
X015807Y027837D01*
X015767Y027797D01*
X015807D01*
X015847Y027757D01*
Y026896D02*
X015887Y026936D01*
X015927D01*
X015887Y026976D01*
X015927Y027016D01*
X015887D01*
X015847Y027056D01*
X015807Y027016D01*
X015767D01*
X015807Y026976D01*
X015767Y026936D01*
X015807D01*
X015847Y026896D01*
X015102D02*
X015142Y026936D01*
X015182D01*
X015142Y026976D01*
X015182Y027016D01*
X015142D01*
X015102Y027056D01*
X015062Y027016D01*
X015022D01*
X015062Y026976D01*
X015022Y026936D01*
X015062D01*
X015102Y026896D01*
Y026035D02*
X015142Y026075D01*
X015182D01*
X015142Y026115D01*
X015182Y026155D01*
X015142D01*
X015102Y026195D01*
X015062Y026155D01*
X015022D01*
X015062Y026115D01*
X015022Y026075D01*
X015062D01*
X015102Y026035D01*
X015847D02*
X015887Y026075D01*
X015927D01*
X015887Y026115D01*
X015927Y026155D01*
X015887D01*
X015847Y026195D01*
X015807Y026155D01*
X015767D01*
X015807Y026115D01*
X015767Y026075D01*
X015807D01*
X015847Y026035D01*
Y025173D02*
X015887Y025213D01*
X015927D01*
X015887Y025253D01*
X015927Y025293D01*
X015887D01*
X015847Y025333D01*
X015807Y025293D01*
X015767D01*
X015807Y025253D01*
X015767Y025213D01*
X015807D01*
X015847Y025173D01*
X015102D02*
X015142Y025213D01*
X015182D01*
X015142Y025253D01*
X015182Y025293D01*
X015142D01*
X015102Y025333D01*
X015062Y025293D01*
X015022D01*
X015062Y025253D01*
X015022Y025213D01*
X015062D01*
X015102Y025173D01*
Y024312D02*
X015142Y024352D01*
X015182D01*
X015142Y024392D01*
X015182Y024432D01*
X015142D01*
X015102Y024472D01*
X015062Y024432D01*
X015022D01*
X015062Y024392D01*
X015022Y024352D01*
X015062D01*
X015102Y024312D01*
X015847D02*
X015887Y024352D01*
X015927D01*
X015887Y024392D01*
X015927Y024432D01*
X015887D01*
X015847Y024472D01*
X015807Y024432D01*
X015767D01*
X015807Y024392D01*
X015767Y024352D01*
X015807D01*
X015847Y024312D01*
Y023451D02*
X015887Y023491D01*
X015927D01*
X015887Y023531D01*
X015927Y023571D01*
X015887D01*
X015847Y023611D01*
X015807Y023571D01*
X015767D01*
X015807Y023531D01*
X015767Y023491D01*
X015807D01*
X015847Y023451D01*
X015102D02*
X015142Y023491D01*
X015182D01*
X015142Y023531D01*
X015182Y023571D01*
X015142D01*
X015102Y023611D01*
X015062Y023571D01*
X015022D01*
X015062Y023531D01*
X015022Y023491D01*
X015062D01*
X015102Y023451D01*
X015125Y014823D02*
X015165Y014863D01*
X015205D01*
X015165Y014903D01*
X015205Y014943D01*
X015165D01*
X015125Y014983D01*
X015085Y014943D01*
X015045D01*
X015085Y014903D01*
X015045Y014863D01*
X015085D01*
X015125Y014823D01*
X015869D02*
X015909Y014863D01*
X015949D01*
X015909Y014903D01*
X015949Y014943D01*
X015909D01*
X015869Y014983D01*
X015829Y014943D01*
X015789D01*
X015829Y014903D01*
X015789Y014863D01*
X015829D01*
X015869Y014823D01*
Y015495D02*
X015909Y015535D01*
X015949D01*
X015909Y015575D01*
X015949Y015615D01*
X015909D01*
X015869Y015655D01*
X015829Y015615D01*
X015789D01*
X015829Y015575D01*
X015789Y015535D01*
X015829D01*
X015869Y015495D01*
X015125D02*
X015165Y015535D01*
X015205D01*
X015165Y015575D01*
X015205Y015615D01*
X015165D01*
X015125Y015655D01*
X015085Y015615D01*
X015045D01*
X015085Y015575D01*
X015045Y015535D01*
X015085D01*
X015125Y015495D01*
X035585Y01959D02*
X035625Y01963D01*
X035665D01*
X035625Y01967D01*
X035665Y01971D01*
X035625D01*
X035585Y01975D01*
X035545Y01971D01*
X035505D01*
X035545Y01967D01*
X035505Y01963D01*
X035545D01*
X035585Y01959D01*
X035427Y021128D02*
X035467Y021168D01*
X035507D01*
X035467Y021208D01*
X035507Y021248D01*
X035467D01*
X035427Y021288D01*
X035387Y021248D01*
X035347D01*
X035387Y021208D01*
X035347Y021168D01*
X035387D01*
X035427Y021128D01*
X028255Y020193D02*
X028295Y020233D01*
X028335D01*
X028295Y020273D01*
X028335Y020313D01*
X028295D01*
X028255Y020353D01*
X028215Y020313D01*
X028175D01*
X028215Y020273D01*
X028175Y020233D01*
X028215D01*
X028255Y020193D01*
X029127D02*
X029167Y020233D01*
X029207D01*
X029167Y020273D01*
X029207Y020313D01*
X029167D01*
X029127Y020353D01*
X029087Y020313D01*
X029047D01*
X029087Y020273D01*
X029047Y020233D01*
X029087D01*
X029127Y020193D01*
X029999D02*
X030039Y020233D01*
X030079D01*
X030039Y020273D01*
X030079Y020313D01*
X030039D01*
X029999Y020353D01*
X029959Y020313D01*
X029919D01*
X029959Y020273D01*
X029919Y020233D01*
X029959D01*
X029999Y020193D01*
X029127Y019491D02*
X029167Y019531D01*
X029207D01*
X029167Y019571D01*
X029207Y019611D01*
X029167D01*
X029127Y019651D01*
X029087Y019611D01*
X029047D01*
X029087Y019571D01*
X029047Y019531D01*
X029087D01*
X029127Y019491D01*
X028255D02*
X028295Y019531D01*
X028335D01*
X028295Y019571D01*
X028335Y019611D01*
X028295D01*
X028255Y019651D01*
X028215Y019611D01*
X028175D01*
X028215Y019571D01*
X028175Y019531D01*
X028215D01*
X028255Y019491D01*
X029999Y020869D02*
X030039Y020909D01*
X030079D01*
X030039Y020949D01*
X030079Y020989D01*
X030039D01*
X029999Y021029D01*
X029959Y020989D01*
X029919D01*
X029959Y020949D01*
X029919Y020909D01*
X029959D01*
X029999Y020869D01*
X029127D02*
X029167Y020909D01*
X029207D01*
X029167Y020949D01*
X029207Y020989D01*
X029167D01*
X029127Y021029D01*
X029087Y020989D01*
X029047D01*
X029087Y020949D01*
X029047Y020909D01*
X029087D01*
X029127Y020869D01*
X022413Y019465D02*
X022453Y019505D01*
X022493D01*
X022453Y019545D01*
X022493Y019585D01*
X022453D01*
X022413Y019625D01*
X022373Y019585D01*
X022333D01*
X022373Y019545D01*
X022333Y019505D01*
X022373D01*
X022413Y019465D01*
X024645Y019484D02*
X024685Y019524D01*
X024725D01*
X024685Y019564D01*
X024725Y019604D01*
X024685D01*
X024645Y019644D01*
X024605Y019604D01*
X024565D01*
X024605Y019564D01*
X024565Y019524D01*
X024605D01*
X024645Y019484D01*
X030885Y022216D02*
X030925Y022256D01*
X030965D01*
X030925Y022296D01*
X030965Y022336D01*
X030925D01*
X030885Y022376D01*
X030845Y022336D01*
X030805D01*
X030845Y022296D01*
X030805Y022256D01*
X030845D01*
X030885Y022216D01*
X026907Y021549D02*
X026947Y021589D01*
X026987D01*
X026947Y021629D01*
X026987Y021669D01*
X026947D01*
X026907Y021709D01*
X026867Y021669D01*
X026827D01*
X026867Y021629D01*
X026827Y021589D01*
X026867D01*
X026907Y021549D01*
X019953Y022605D02*
X019993Y022645D01*
X020033D01*
X019993Y022685D01*
X020033Y022725D01*
X019993D01*
X019953Y022765D01*
X019913Y022725D01*
X019873D01*
X019913Y022685D01*
X019873Y022645D01*
X019913D01*
X019953Y022605D01*
X022133Y023829D02*
X022173Y023869D01*
X022213D01*
X022173Y023909D01*
X022213Y023949D01*
X022173D01*
X022133Y023989D01*
X022093Y023949D01*
X022053D01*
X022093Y023909D01*
X022053Y023869D01*
X022093D01*
X022133Y023829D01*
X030755Y017245D02*
X030795Y017285D01*
X030835D01*
X030795Y017325D01*
X030835Y017365D01*
X030795D01*
X030755Y017405D01*
X030715Y017365D01*
X030675D01*
X030715Y017325D01*
X030675Y017285D01*
X030715D01*
X030755Y017245D01*
X027731Y017642D02*
X027771Y017682D01*
X027812D01*
X027771Y017722D01*
X027812Y017762D01*
X027771D01*
X027731Y017802D01*
X027692Y017762D01*
X027652D01*
X027692Y017722D01*
X027652Y017682D01*
X027692D01*
X027731Y017642D01*
X026224Y019676D02*
X026264Y019716D01*
X026304D01*
X026264Y019756D01*
X026304Y019796D01*
X026264D01*
X026224Y019836D01*
X026184Y019796D01*
X026144D01*
X026184Y019756D01*
X026144Y019716D01*
X026184D01*
X026224Y019676D01*
X025968Y020652D02*
X026008Y020692D01*
X026048D01*
X026008Y020732D01*
X026048Y020772D01*
X026008D01*
X025968Y020812D01*
X025928Y020772D01*
X025888D01*
X025928Y020732D01*
X025888Y020692D01*
X025928D01*
X025968Y020652D01*
X026554Y01977D02*
X026594Y01981D01*
X026634D01*
X026594Y01985D01*
X026634Y01989D01*
X026594D01*
X026554Y01993D01*
X026514Y01989D01*
X026474D01*
X026514Y01985D01*
X026474Y01981D01*
X026514D01*
X026554Y01977D01*
X02607Y028963D02*
X02611Y029003D01*
X02615D01*
X02611Y029043D01*
X02615Y029083D01*
X02611D01*
X02607Y029123D01*
X02603Y029083D01*
X02599D01*
X02603Y029043D01*
X02599Y029003D01*
X02603D01*
X02607Y028963D01*
X031881Y021237D02*
X031921Y021277D01*
X031961D01*
X031921Y021317D01*
X031961Y021357D01*
X031921D01*
X031881Y021397D01*
X031841Y021357D01*
X031801D01*
X031841Y021317D01*
X031801Y021277D01*
X031841D01*
X031881Y021237D01*
X030495Y021633D02*
X030535Y021673D01*
X030575D01*
X030535Y021713D01*
X030575Y021753D01*
X030535D01*
X030495Y021793D01*
X030455Y021753D01*
X030415D01*
X030455Y021713D01*
X030415Y021673D01*
X030455D01*
X030495Y021633D01*
X032284Y021967D02*
X032324Y022007D01*
X032364D01*
X032324Y022047D01*
X032364Y022087D01*
X032324D01*
X032284Y022127D01*
X032244Y022087D01*
X032204D01*
X032244Y022047D01*
X032204Y022007D01*
X032244D01*
X032284Y021967D01*
X032581D02*
X032621Y022007D01*
X032661D01*
X032621Y022047D01*
X032661Y022087D01*
X032621D01*
X032581Y022127D01*
X032541Y022087D01*
X032501D01*
X032541Y022047D01*
X032501Y022007D01*
X032541D01*
X032581Y021967D01*
X032878D02*
X032918Y022007D01*
X032958D01*
X032918Y022047D01*
X032958Y022087D01*
X032918D01*
X032878Y022127D01*
X032838Y022087D01*
X032798D01*
X032838Y022047D01*
X032798Y022007D01*
X032838D01*
X032878Y021967D01*
X033175D02*
X033215Y022007D01*
X033255D01*
X033215Y022047D01*
X033255Y022087D01*
X033215D01*
X033175Y022127D01*
X033135Y022087D01*
X033095D01*
X033135Y022047D01*
X033095Y022007D01*
X033135D01*
X033175Y021967D01*
X033472D02*
X033512Y022007D01*
X033552D01*
X033512Y022047D01*
X033552Y022087D01*
X033512D01*
X033472Y022127D01*
X033432Y022087D01*
X033392D01*
X033432Y022047D01*
X033392Y022007D01*
X033432D01*
X033472Y021967D01*
X029999Y019491D02*
X030039Y019531D01*
X030079D01*
X030039Y019571D01*
X030079Y019611D01*
X030039D01*
X029999Y019651D01*
X029959Y019611D01*
X029919D01*
X029959Y019571D01*
X029919Y019531D01*
X029959D01*
X029999Y019491D01*
X028255Y020869D02*
X028295Y020909D01*
X028335D01*
X028295Y020949D01*
X028335Y020989D01*
X028295D01*
X028255Y021029D01*
X028215Y020989D01*
X028175D01*
X028215Y020949D01*
X028175Y020909D01*
X028215D01*
X028255Y020869D01*
X022413Y011778D02*
X022453Y011818D01*
X022493D01*
X022453Y011858D01*
X022493Y011898D01*
X022453D01*
X022413Y011938D01*
X022373Y011898D01*
X022333D01*
X022373Y011858D01*
X022333Y011818D01*
X022373D01*
X022413Y011778D01*
X02273D02*
X02277Y011818D01*
X02281D01*
X02277Y011858D01*
X02281Y011898D01*
X02277D01*
X02273Y011938D01*
X02269Y011898D01*
X02265D01*
X02269Y011858D01*
X02265Y011818D01*
X02269D01*
X02273Y011778D01*
X039297Y021511D02*
X039337Y021551D01*
X039377D01*
X039337Y021591D01*
X039377Y021631D01*
X039337D01*
X039297Y021671D01*
X039257Y021631D01*
X039217D01*
X039257Y021591D01*
X039217Y021551D01*
X039257D01*
X039297Y021511D01*
X039296Y022192D02*
X039336Y022232D01*
X039376D01*
X039336Y022272D01*
X039376Y022312D01*
X039336D01*
X039296Y022352D01*
X039256Y022312D01*
X039216D01*
X039256Y022272D01*
X039216Y022232D01*
X039256D01*
X039296Y022192D01*
X038924Y025786D02*
X038964Y025826D01*
X039004D01*
X038964Y025866D01*
X039004Y025906D01*
X038964D01*
X038924Y025946D01*
X038884Y025906D01*
X038844D01*
X038884Y025866D01*
X038844Y025826D01*
X038884D01*
X038924Y025786D01*
Y026203D02*
X038964Y026243D01*
X039004D01*
X038964Y026283D01*
X039004Y026323D01*
X038964D01*
X038924Y026363D01*
X038884Y026323D01*
X038844D01*
X038884Y026283D01*
X038844Y026243D01*
X038884D01*
X038924Y026203D01*
X036779Y011967D02*
X036819Y012007D01*
X036859D01*
X036819Y012047D01*
X036859Y012087D01*
X036819D01*
X036779Y012127D01*
X036739Y012087D01*
X036699D01*
X036739Y012047D01*
X036699Y012007D01*
X036739D01*
X036779Y011967D01*
X031751Y011102D02*
X031791Y011142D01*
X031831D01*
X031791Y011182D01*
X031831Y011222D01*
X031791D01*
X031751Y011262D01*
X031711Y011222D01*
X031671D01*
X031711Y011182D01*
X031671Y011142D01*
X031711D01*
X031751Y011102D01*
X033361D02*
X033401Y011142D01*
X033441D01*
X033401Y011182D01*
X033441Y011222D01*
X033401D01*
X033361Y011262D01*
X033321Y011222D01*
X033281D01*
X033321Y011182D01*
X033281Y011142D01*
X033321D01*
X033361Y011102D01*
X032546D02*
X032586Y011142D01*
X032626D01*
X032586Y011182D01*
X032626Y011222D01*
X032586D01*
X032546Y011262D01*
X032506Y011222D01*
X032466D01*
X032506Y011182D01*
X032466Y011142D01*
X032506D01*
X032546Y011102D01*
X034184D02*
X034224Y011142D01*
X034264D01*
X034224Y011182D01*
X034264Y011222D01*
X034224D01*
X034184Y011262D01*
X034144Y011222D01*
X034104D01*
X034144Y011182D01*
X034104Y011142D01*
X034144D01*
X034184Y011102D01*
X03746Y011967D02*
X0375Y012007D01*
X03754D01*
X0375Y012047D01*
X03754Y012087D01*
X0375D01*
X03746Y012127D01*
X03742Y012087D01*
X03738D01*
X03742Y012047D01*
X03738Y012007D01*
X03742D01*
X03746Y011967D01*
X038987Y015364D02*
X039027Y015404D01*
X039067D01*
X039027Y015444D01*
X039067Y015484D01*
X039027D01*
X038987Y015524D01*
X038947Y015484D01*
X038907D01*
X038947Y015444D01*
X038907Y015404D01*
X038947D01*
X038987Y015364D01*
X025712Y027762D02*
X025752Y027802D01*
X025792D01*
X025752Y027842D01*
X025792Y027882D01*
X025752D01*
X025712Y027922D01*
X025672Y027882D01*
X025632D01*
X025672Y027842D01*
X025632Y027802D01*
X025672D01*
X025712Y027762D01*
X023796Y029176D02*
X023836Y029216D01*
X023876D01*
X023836Y029256D01*
X023876Y029296D01*
X023836D01*
X023796Y029336D01*
X023756Y029296D01*
X023716D01*
X023756Y029256D01*
X023716Y029216D01*
X023756D01*
X023796Y029176D01*
X031959Y024121D02*
X031999Y024161D01*
X032039D01*
X031999Y024201D01*
X032039Y024241D01*
X031999D01*
X031959Y024281D01*
X031919Y024241D01*
X031879D01*
X031919Y024201D01*
X031879Y024161D01*
X031919D01*
X031959Y024121D01*
X025153Y026676D02*
X025193Y026716D01*
X025233D01*
X025193Y026756D01*
X025233Y026796D01*
X025193D01*
X025153Y026836D01*
X025113Y026796D01*
X025073D01*
X025113Y026756D01*
X025073Y026716D01*
X025113D01*
X025153Y026676D01*
X031523Y024121D02*
X031563Y024161D01*
X031603D01*
X031563Y024201D01*
X031603Y024241D01*
X031563D01*
X031523Y024281D01*
X031483Y024241D01*
X031443D01*
X031483Y024201D01*
X031443Y024161D01*
X031483D01*
X031523Y024121D01*
X040519Y023176D02*
X040559Y023216D01*
X040599D01*
X040559Y023256D01*
X040599Y023296D01*
X040559D01*
X040519Y023336D01*
X040479Y023296D01*
X040439D01*
X040479Y023256D01*
X040439Y023216D01*
X040479D01*
X040519Y023176D01*
X027731Y025152D02*
X027771Y025192D01*
X027812D01*
X027771Y025232D01*
X027812Y025272D01*
X027771D01*
X027731Y025312D01*
X027692Y025272D01*
X027652D01*
X027692Y025232D01*
X027652Y025192D01*
X027692D01*
X027731Y025152D01*
X03242Y014274D02*
X03246Y014314D01*
X0325D01*
X03246Y014354D01*
X0325Y014394D01*
X03246D01*
X03242Y014434D01*
X03238Y014394D01*
X03234D01*
X03238Y014354D01*
X03234Y014314D01*
X03238D01*
X03242Y014274D01*
Y01666D02*
X03246Y0167D01*
X0325D01*
X03246Y01674D01*
X0325Y01678D01*
X03246D01*
X03242Y01682D01*
X03238Y01678D01*
X03234D01*
X03238Y01674D01*
X03234Y0167D01*
X03238D01*
X03242Y01666D01*
X022915Y019465D02*
X022955Y019505D01*
X022995D01*
X022955Y019545D01*
X022995Y019585D01*
X022955D01*
X022915Y019625D01*
X022875Y019585D01*
X022835D01*
X022875Y019545D01*
X022835Y019505D01*
X022875D01*
X022915Y019465D01*
X039755Y021511D02*
X039795Y021551D01*
X039835D01*
X039795Y021591D01*
X039835Y021631D01*
X039795D01*
X039755Y021671D01*
X039715Y021631D01*
X039675D01*
X039715Y021591D01*
X039675Y021551D01*
X039715D01*
X039755Y021511D01*
Y022192D02*
X039795Y022232D01*
X039835D01*
X039795Y022272D01*
X039835Y022312D01*
X039795D01*
X039755Y022352D01*
X039715Y022312D01*
X039675D01*
X039715Y022272D01*
X039675Y022232D01*
X039715D01*
X039755Y022192D01*
X039606Y026203D02*
X039646Y026243D01*
X039686D01*
X039646Y026283D01*
X039686Y026323D01*
X039646D01*
X039606Y026363D01*
X039566Y026323D01*
X039526D01*
X039566Y026283D01*
X039526Y026243D01*
X039566D01*
X039606Y026203D01*
Y025786D02*
X039646Y025826D01*
X039686D01*
X039646Y025866D01*
X039686Y025906D01*
X039646D01*
X039606Y025946D01*
X039566Y025906D01*
X039526D01*
X039566Y025866D01*
X039526Y025826D01*
X039566D01*
X039606Y025786D01*
X038987Y014908D02*
X039027Y014948D01*
X039067D01*
X039027Y014988D01*
X039067Y015028D01*
X039027D01*
X038987Y015068D01*
X038947Y015028D01*
X038907D01*
X038947Y014988D01*
X038907Y014948D01*
X038947D01*
X038987Y014908D01*
X039669D02*
X039708Y014948D01*
X039748D01*
X039708Y014988D01*
X039748Y015028D01*
X039708D01*
X039669Y015068D01*
X039629Y015028D01*
X039588D01*
X039629Y014988D01*
X039588Y014948D01*
X039629D01*
X039669Y014908D01*
X038987Y014357D02*
X039027Y014397D01*
X039067D01*
X039027Y014437D01*
X039067Y014477D01*
X039027D01*
X038987Y014517D01*
X038947Y014477D01*
X038907D01*
X038947Y014437D01*
X038907Y014397D01*
X038947D01*
X038987Y014357D01*
X039669D02*
X039708Y014397D01*
X039748D01*
X039708Y014437D01*
X039748Y014477D01*
X039708D01*
X039669Y014517D01*
X039629Y014477D01*
X039588D01*
X039629Y014437D01*
X039588Y014397D01*
X039629D01*
X039669Y014357D01*
X03746Y012774D02*
X0375Y012814D01*
X03754D01*
X0375Y012854D01*
X03754Y012894D01*
X0375D01*
X03746Y012934D01*
X03742Y012894D01*
X03738D01*
X03742Y012854D01*
X03738Y012814D01*
X03742D01*
X03746Y012774D01*
X036779D02*
X036819Y012814D01*
X036859D01*
X036819Y012854D01*
X036859Y012894D01*
X036819D01*
X036779Y012934D01*
X036739Y012894D01*
X036699D01*
X036739Y012854D01*
X036699Y012814D01*
X036739D01*
X036779Y012774D01*
X03507Y01411D02*
X03511Y01415D01*
X03515D01*
X03511Y01419D01*
X03515Y01423D01*
X03511D01*
X03507Y01427D01*
X03503Y01423D01*
X03499D01*
X03503Y01419D01*
X03499Y01415D01*
X03503D01*
X03507Y01411D01*
X034322D02*
X034362Y01415D01*
X034402D01*
X034362Y01419D01*
X034402Y01423D01*
X034362D01*
X034322Y01427D01*
X034282Y01423D01*
X034242D01*
X034282Y01419D01*
X034242Y01415D01*
X034282D01*
X034322Y01411D01*
X034696D02*
X034736Y01415D01*
X034776D01*
X034736Y01419D01*
X034776Y01423D01*
X034736D01*
X034696Y01427D01*
X034656Y01423D01*
X034616D01*
X034656Y01419D01*
X034616Y01415D01*
X034656D01*
X034696Y01411D01*
X035298Y015388D02*
X035338Y015429D01*
X035378D01*
X035338Y015468D01*
X035378Y015509D01*
X035338D01*
X035298Y015548D01*
X035258Y015509D01*
X035218D01*
X035258Y015468D01*
X035218Y015429D01*
X035258D01*
X035298Y015388D01*
X035306Y016046D02*
X035346Y016086D01*
X035386D01*
X035346Y016126D01*
X035386Y016166D01*
X035346D01*
X035306Y016206D01*
X035266Y016166D01*
X035226D01*
X035266Y016126D01*
X035226Y016086D01*
X035266D01*
X035306Y016046D01*
X033937Y019991D02*
X033977Y020031D01*
X034017D01*
X033977Y020071D01*
X034017Y020111D01*
X033977D01*
X033937Y020151D01*
X033897Y020111D01*
X033857D01*
X033897Y020071D01*
X033857Y020031D01*
X033897D01*
X033937Y019991D01*
X032375Y018471D02*
X032415Y018511D01*
X032455D01*
X032415Y018551D01*
X032455Y018591D01*
X032415D01*
X032375Y018631D01*
X032335Y018591D01*
X032295D01*
X032335Y018551D01*
X032295Y018511D01*
X032335D01*
X032375Y018471D01*
Y017947D02*
X032415Y017987D01*
X032455D01*
X032415Y018027D01*
X032455Y018067D01*
X032415D01*
X032375Y018107D01*
X032335Y018067D01*
X032295D01*
X032335Y018027D01*
X032295Y017987D01*
X032335D01*
X032375Y017947D01*
X032857D02*
X032897Y017987D01*
X032937D01*
X032897Y018027D01*
X032937Y018067D01*
X032897D01*
X032857Y018107D01*
X032817Y018067D01*
X032777D01*
X032817Y018027D01*
X032777Y017987D01*
X032817D01*
X032857Y017947D01*
X033472D02*
X033512Y017987D01*
X033552D01*
X033512Y018027D01*
X033552Y018067D01*
X033512D01*
X033472Y018107D01*
X033432Y018067D01*
X033392D01*
X033432Y018027D01*
X033392Y017987D01*
X033432D01*
X033472Y017947D01*
X032857Y018471D02*
X032897Y018511D01*
X032937D01*
X032897Y018551D01*
X032937Y018591D01*
X032897D01*
X032857Y018631D01*
X032817Y018591D01*
X032777D01*
X032817Y018551D01*
X032777Y018511D01*
X032817D01*
X032857Y018471D01*
X033472D02*
X033512Y018511D01*
X033552D01*
X033512Y018551D01*
X033552Y018591D01*
X033512D01*
X033472Y018631D01*
X033432Y018591D01*
X033392D01*
X033432Y018551D01*
X033392Y018511D01*
X033432D01*
X033472Y018471D01*
X030495Y022227D02*
X030535Y022267D01*
X030575D01*
X030535Y022307D01*
X030575Y022347D01*
X030535D01*
X030495Y022387D01*
X030455Y022347D01*
X030415D01*
X030455Y022307D01*
X030415Y022267D01*
X030455D01*
X030495Y022227D01*
X034357Y019991D02*
X034397Y020031D01*
X034437D01*
X034397Y020071D01*
X034437Y020111D01*
X034397D01*
X034357Y020151D01*
X034317Y020111D01*
X034277D01*
X034317Y020071D01*
X034277Y020031D01*
X034317D01*
X034357Y019991D01*
X024652Y013597D02*
X024692Y013637D01*
X024732D01*
X024692Y013677D01*
X024732Y013717D01*
X024692D01*
X024652Y013757D01*
X024612Y013717D01*
X024572D01*
X024612Y013677D01*
X024572Y013637D01*
X024612D01*
X024652Y013597D01*
X024301D02*
X024341Y013637D01*
X024381D01*
X024341Y013677D01*
X024381Y013717D01*
X024341D01*
X024301Y013757D01*
X024261Y013717D01*
X024221D01*
X024261Y013677D01*
X024221Y013637D01*
X024261D01*
X024301Y013597D01*
X02395D02*
X02399Y013637D01*
X02403D01*
X02399Y013677D01*
X02403Y013717D01*
X02399D01*
X02395Y013757D01*
X02391Y013717D01*
X02387D01*
X02391Y013677D01*
X02387Y013637D01*
X02391D01*
X02395Y013597D01*
X0236D02*
X02364Y013637D01*
X02368D01*
X02364Y013677D01*
X02368Y013717D01*
X02364D01*
X0236Y013757D01*
X02356Y013717D01*
X02352D01*
X02356Y013677D01*
X02352Y013637D01*
X02356D01*
X0236Y013597D01*
X022791Y021499D02*
X022831Y021539D01*
X022871D01*
X022831Y021579D01*
X022871Y021619D01*
X022831D01*
X022791Y021659D01*
X022751Y021619D01*
X022711D01*
X022751Y021579D01*
X022711Y021539D01*
X022751D01*
X022791Y021499D01*
X022789Y017642D02*
X022829Y017682D01*
X022869D01*
X022829Y017722D01*
X022869Y017762D01*
X022829D01*
X022789Y017802D01*
X022749Y017762D01*
X022709D01*
X022749Y017722D01*
X022709Y017682D01*
X022749D01*
X022789Y017642D01*
X023046Y011778D02*
X023086Y011818D01*
X023126D01*
X023086Y011858D01*
X023126Y011898D01*
X023086D01*
X023046Y011938D01*
X023006Y011898D01*
X022966D01*
X023006Y011858D01*
X022966Y011818D01*
X023006D01*
X023046Y011778D01*
X039389Y019672D02*
X039429Y019712D01*
X039469D01*
X039429Y019752D01*
X039469Y019792D01*
X039429D01*
X039389Y019832D01*
X039349Y019792D01*
X039309D01*
X039349Y019752D01*
X039309Y019712D01*
X039349D01*
X039389Y019672D01*
X021922Y019765D02*
X021962Y019805D01*
X022002D01*
X021962Y019845D01*
X022002Y019885D01*
X021962D01*
X021922Y019925D01*
X021882Y019885D01*
X021842D01*
X021882Y019845D01*
X021842Y019805D01*
X021882D01*
X021922Y019765D01*
X024495Y017637D02*
X024535Y017677D01*
X024575D01*
X024535Y017717D01*
X024575Y017757D01*
X024535D01*
X024495Y017797D01*
X024455Y017757D01*
X024415D01*
X024455Y017717D01*
X024415Y017677D01*
X024455D01*
X024495Y017637D01*
X024497Y021404D02*
X024537Y021444D01*
X024577D01*
X024537Y021484D01*
X024577Y021524D01*
X024537D01*
X024497Y021564D01*
X024457Y021524D01*
X024417D01*
X024457Y021484D01*
X024417Y021444D01*
X024457D01*
X024497Y021404D01*
X033633Y013364D02*
X033673Y013404D01*
X033713D01*
X033673Y013444D01*
X033713Y013484D01*
X033673D01*
X033633Y013524D01*
X033593Y013484D01*
X033553D01*
X033593Y013444D01*
X033553Y013404D01*
X033593D01*
X033633Y013364D01*
X024791Y014658D02*
X024831Y014698D01*
X024871D01*
X024831Y014738D01*
X024871Y014778D01*
X024831D01*
X024791Y014818D01*
X024751Y014778D01*
X024711D01*
X024751Y014738D01*
X024711Y014698D01*
X024751D01*
X024791Y014658D01*
X030885Y025125D02*
X030925Y025165D01*
X030965D01*
X030925Y025205D01*
X030965Y025245D01*
X030925D01*
X030885Y025285D01*
X030845Y025245D01*
X030805D01*
X030845Y025205D01*
X030805Y025165D01*
X030845D01*
X030885Y025125D01*
X033271Y025152D02*
X033311Y025192D01*
X033351D01*
X033311Y025232D01*
X033351Y025272D01*
X033311D01*
X033271Y025312D01*
X033231Y025272D01*
X033191D01*
X033231Y025232D01*
X033191Y025192D01*
X033231D01*
X033271Y025152D01*
X035172Y020424D02*
X035212Y020464D01*
X035252D01*
X035212Y020504D01*
X035252Y020544D01*
X035212D01*
X035172Y020584D01*
X035132Y020544D01*
X035092D01*
X035132Y020504D01*
X035092Y020464D01*
X035132D01*
X035172Y020424D01*
Y016782D02*
X035212Y016822D01*
X035252D01*
X035212Y016862D01*
X035252Y016902D01*
X035212D01*
X035172Y016942D01*
X035132Y016902D01*
X035092D01*
X035132Y016862D01*
X035092Y016822D01*
X035132D01*
X035172Y016782D01*
D78*
X026825Y016106D02*
G03*
X026825Y016106I-00008J0D01*
G01*
X028845D02*
G03*
X028845Y016106I-00008J0D01*
G01*
X029825D02*
G03*
X029825Y016106I-00008J0D01*
G01*
X030835D02*
G03*
X030835Y016106I-00008J0D01*
G01*
X027835D02*
G03*
X027835Y016106I-00008J0D01*
G01*
M02*
