G04*
G04 #@! TF.GenerationSoftware,Altium Limited,Altium Designer,19.0.15 (446)*
G04*
G04 Layer_Color=32768*
%FSTAX24Y24*%
%MOIN*%
G70*
G01*
G75*
%ADD10C,0.0039*%
D10*
X066069Y045328D02*
X067089D01*
X066069Y045828D02*
X067089D01*
X066069Y045328D02*
Y045828D01*
X067089Y045328D02*
Y045828D01*
X066579Y045391D02*
Y045765D01*
X066392Y045578D02*
X066766D01*
X071407Y045658D02*
Y046678D01*
X071907Y045658D02*
Y046678D01*
X071407Y045658D02*
X071907D01*
X071407Y046678D02*
X071907D01*
X07147Y046168D02*
X071844D01*
X071657Y045981D02*
Y046355D01*
X069557Y046052D02*
Y047072D01*
X070057Y046052D02*
Y047072D01*
X069557Y046052D02*
X070057D01*
X069557Y047072D02*
X070057D01*
X06962Y046562D02*
X069994D01*
X069807Y046375D02*
Y046749D01*
X072132Y046194D02*
X073152D01*
X072132Y046694D02*
X073152D01*
X072132Y046194D02*
Y046694D01*
X073152Y046194D02*
Y046694D01*
X072642Y046257D02*
Y046631D01*
X072455Y046444D02*
X072829D01*
X073297Y046249D02*
Y047269D01*
X073797Y046249D02*
Y047269D01*
X073297D02*
X073797D01*
X073297Y046249D02*
X073797D01*
X07336Y046759D02*
X073734D01*
X073547Y046572D02*
Y046946D01*
X072132Y046784D02*
X073152D01*
X072132Y047284D02*
X073152D01*
X072132Y046784D02*
Y047284D01*
X073152Y046784D02*
Y047284D01*
X072642Y046847D02*
Y047221D01*
X072455Y047034D02*
X072829D01*
X071525Y046249D02*
Y047269D01*
X072025Y046249D02*
Y047269D01*
X071525D02*
X072025D01*
X071525Y046249D02*
X072025D01*
X071588Y046759D02*
X071962D01*
X071775Y046572D02*
Y046946D01*
X06961Y045696D02*
Y04609D01*
X069413Y045893D02*
X069807D01*
X068094Y044515D02*
X071136D01*
X068094Y047261D02*
X071136D01*
X068094Y044515D02*
Y047261D01*
X071136Y044515D02*
Y047261D01*
X066069Y04469D02*
X067089D01*
X066069Y04519D02*
X067089D01*
X066069Y04469D02*
Y04519D01*
X067089Y04469D02*
Y04519D01*
X066579Y044753D02*
Y045127D01*
X066392Y04494D02*
X066766D01*
X063783Y046475D02*
Y046712D01*
X063665Y046594D02*
X063901D01*
X072553Y047276D02*
X073753D01*
X072553Y045376D02*
X073753D01*
Y047256D01*
X072553Y045376D02*
Y047256D01*
X072957Y046326D02*
X07335D01*
X073153Y046129D02*
Y046523D01*
X066069Y044052D02*
X067089D01*
X066069Y044552D02*
X067089D01*
X066069Y044052D02*
Y044552D01*
X067089Y044052D02*
Y044552D01*
X066579Y044115D02*
Y044489D01*
X066392Y044302D02*
X066766D01*
X068586Y042192D02*
Y042586D01*
X06839Y042389D02*
X068783D01*
X069176Y041539D02*
Y043239D01*
X067996Y041539D02*
Y043239D01*
X069176D01*
X067996Y041539D02*
X069176D01*
X072248Y045981D02*
Y046355D01*
X072061Y046168D02*
X072435D01*
X071998Y046678D02*
X072498D01*
X071998Y045658D02*
X072498D01*
Y046678D01*
X071998Y045658D02*
Y046678D01*
X068488Y044946D02*
Y04532D01*
X068301Y045133D02*
X068675D01*
X068238Y044623D02*
X068738D01*
X068238Y045643D02*
X068738D01*
X068238Y044623D02*
Y045643D01*
X068738Y044623D02*
Y045643D01*
X06552Y042846D02*
Y046026D01*
X06748D01*
Y042846D02*
Y046026D01*
X06552Y042846D02*
X06748D01*
X0665Y044239D02*
Y044633D01*
X066303Y044436D02*
X066697D01*
X067564Y042683D02*
Y042693D01*
X064964D02*
X067564D01*
X064964Y042683D02*
Y042693D01*
Y041533D02*
Y042683D01*
X067564Y041533D02*
Y042683D01*
X064964Y041533D02*
X067564D01*
X066264Y041916D02*
Y04231D01*
X066067Y042113D02*
X06646D01*
X067937Y044946D02*
Y04532D01*
X06775Y045133D02*
X068124D01*
X067687Y044623D02*
X068187D01*
X067687Y045643D02*
X068187D01*
X067687Y044623D02*
Y045643D01*
X068187Y044623D02*
Y045643D01*
X068006Y043846D02*
X06838D01*
X068193Y043659D02*
Y044033D01*
X068703Y043596D02*
Y044096D01*
X067683Y043596D02*
Y044096D01*
Y043596D02*
X068703D01*
X067683Y044096D02*
X068703D01*
X068921Y045046D02*
X07022D01*
X068921Y043668D02*
X07022D01*
Y045046D01*
X068921Y043668D02*
Y045046D01*
X069571Y044161D02*
Y044554D01*
X069374Y044357D02*
X069768D01*
X071095Y044762D02*
X073715D01*
X071095Y042142D02*
Y044762D01*
X073715Y042142D02*
Y044762D01*
X071095Y042142D02*
X073715D01*
X072209Y043452D02*
X072602D01*
X072405Y043255D02*
Y043649D01*
X070232Y041551D02*
X070957D01*
Y041551D02*
Y043305D01*
X070232Y043305D02*
X070954D01*
X070232Y041551D02*
Y043305D01*
X070394Y042428D02*
X070794D01*
X070594Y042228D02*
Y042628D01*
X069571Y042399D02*
Y042773D01*
X069384Y042586D02*
X069758D01*
X069321Y042076D02*
X069821D01*
X069321Y043096D02*
X069821D01*
X069321Y042076D02*
Y043096D01*
X069821Y042076D02*
Y043096D01*
X066392Y043664D02*
X066766D01*
X066579Y043477D02*
Y043851D01*
X066069Y043414D02*
Y043914D01*
X067089Y043414D02*
Y043914D01*
X066069Y043414D02*
X067089D01*
X066069Y043914D02*
X067089D01*
X066392Y043027D02*
X066766D01*
X066579Y04284D02*
Y043214D01*
X066069Y042777D02*
Y043277D01*
X067089Y042777D02*
Y043277D01*
X066069Y042777D02*
X067089D01*
X066069Y043277D02*
X067089D01*
X068951Y041838D02*
X069325D01*
X069138Y041651D02*
Y042025D01*
X069648Y041588D02*
Y042088D01*
X068628Y041588D02*
Y042088D01*
X069648D01*
X068628Y041588D02*
X069648D01*
X066392Y042389D02*
X066766D01*
X066579Y042202D02*
Y042576D01*
X066069Y042139D02*
Y042639D01*
X067089Y042139D02*
Y042639D01*
X066069Y042139D02*
X067089D01*
X066069Y042639D02*
X067089D01*
X07021Y041838D02*
X070585D01*
X070397Y041651D02*
Y042025D01*
X070908Y041588D02*
Y042088D01*
X069887Y041588D02*
Y042088D01*
X070908D01*
X069887Y041588D02*
X070908D01*
X069531Y043097D02*
Y043491D01*
X069334Y043294D02*
X069727D01*
X068005Y044446D02*
X071046D01*
X068005Y042182D02*
X071046D01*
Y044446D01*
X068005Y042182D02*
Y044446D01*
X070594Y043973D02*
Y044348D01*
X070407Y04416D02*
X070781D01*
X070344Y044671D02*
X070844D01*
X070344Y043651D02*
X070844D01*
Y044671D01*
X070344Y043651D02*
Y044671D01*
X064681Y043992D02*
X065405D01*
Y043992D02*
Y045746D01*
X064681Y045746D02*
X065403D01*
X064681Y043992D02*
Y045746D01*
X064843Y044869D02*
X065243D01*
X065043Y044669D02*
Y045069D01*
M02*
