M48
;Layer_Color=9474304
;FILE_FORMAT=2:4
INCH,LZ
;TYPE=PLATED
T1F00S00C0.0118
T2F00S00C0.0315
T3F00S00C0.0350
T4F00S00C0.0360
%
T01
X031822Y025287
X032174
X032526
X032879
X033231
X033622Y025291
X033974
X034327
X034679
X035031
X034141Y029624
X033615
X033324Y029257
X032755Y029171
X032229
X033547Y030811
X033417Y03113
X034016Y031094
X034008Y030795
X030547Y030205
Y029787
X030554Y029275
X030101
X029649Y029286
X029196
X028743
X028215Y029342
Y028889
X028205Y028437
Y027984
Y027531
X02774Y02728
X027388
X027035
X026583Y027157
X026533Y026724
X026181
X025791Y026685
Y026333
Y02598
Y025628
Y025276
X02615Y025287
X026502
X026854
X027207
X027559
X027863
X028215
X028567
X02892
X024327Y025299
X024002
X02365
X023298
X022945
X022593
X022219
X021866
X021514
X021162
X020809
X020272Y025311
X017255Y025299
X016903
X01655
X016198
X015845
X021917Y027516
Y028063
Y02861
Y029157
Y029705
X021197Y029919
Y030371
Y030824
X023165Y030764
X024673Y030949
Y030346
X025008Y030657
X025323Y030949
X027469Y03089
X027472Y031118
X026925Y030169
X028016Y029898
X030134Y030193
X025619Y028714
X024764Y028925
X023795Y029406
X023496Y02711
X023209Y027283
X022856
X022504
X023565Y026709
X023917
X024327
Y026356
Y026004
Y025652
X025346Y024224
Y022224
X015358Y025299
X015006
X014654
X014301
X013949
Y026709
Y028543
Y030378
Y032213
Y034047
Y035882
Y037717
Y039551
X017354Y039551
Y039026
Y0385
Y037974
X018165Y03839
Y038915
Y039441
X021966Y039307
Y039833
Y040358
X022085Y041236
X021273Y041142
Y041668
Y042264
X020741Y044169
X023563Y044201
X024122Y044275
Y044774
Y045274
X023484Y045244
X024071Y043717
X024315Y043146
X024624Y042907
X024933Y042669
X025354Y04263
X026268Y042724
X026657Y042732
X027491Y04274
X028498
X029505
X030512
X029949Y042047
X029923Y044142
X030737
X030212Y045217
X029954Y046087
X029573
X028993
X029109Y044142
X028295
X02748
X026358Y044079
X025776Y044335
X0264Y042134
X023789Y041589
Y041063
Y040538
X023634Y038102
X02402Y037622
X023906Y036055
X024351Y036044
X024827Y036075
X025406
X025402Y035114
X025794Y034842
X025976Y034173
X026235Y033872
X025709
X024908Y033938
X024389
X02465Y033674
X023625
X023114Y033677
X022858Y033938
X023373
X022296Y034886
X021687
X0214
X020468
X01974
X019386
X01864
X018211Y033542
Y033089
Y032637
X018201Y032184
Y031731
X018696Y031772
X019149
X019601Y031762
X020054
X020507
X021208Y031729
Y031277
X023165Y031413
X025078Y03239
X025945Y031881
X02737Y032728
Y033254
Y033779
Y034305
X027422Y034769
X02731Y035284
Y03581
X02717Y036375
X027696
X027157Y037094
X026311Y037126
X025626Y037134
X026433Y036063
X028188Y035324
X028283Y035098
X028051Y035091
X028421Y034254
Y033728
Y033203
Y032677
X027961Y032894
X027984Y033488
X029562Y033287
Y032761
Y032235
X030029
X030554
X03108
X030958Y034851
X029724Y035465
Y035867
X022396Y037155
X021871
X021385Y037179
X020859
X020875Y038096
X0214
X021891Y038108
X022416
X021966Y038781
X032094Y038673
X032819Y038685
Y038907
Y03913
X033085
Y038907
Y038685
X03335
Y038907
Y03913
X033358Y039579
X033794Y039529
X034233Y039545
X034759
X033209Y039945
Y04047
Y040996
Y041522
X031803Y041762
Y042287
X03176Y042728
X031803Y041236
Y040711
Y040185
X033732Y038268
X03402
X03402Y037798
Y037322
Y036846
X033324Y037352
X03402Y035213
Y0348
Y034388
Y033976
Y033564
X034004Y03148
X033122Y031291
X032714Y031298
X032294Y031336
X032094Y031646
X032009Y034851
X031483
X032534
X032638Y043795
X03302Y043425
X032075Y044154
X031552Y044142
X032395Y04508
X031879Y045634
X031363Y046188
X031706Y050175
X03354
X035375
X029871
X028037
X021918Y050148
X020084
X018249
X016415
X01458
T02
X01511Y046285
X019071Y033488
X020081
X021061
X022071
X033843Y046772
X034843
T03
X01711Y046285
T04
X017748Y034305
Y035315
Y036295
Y037305
M30
