G04*
G04 #@! TF.GenerationSoftware,Altium Limited,Altium Designer,21.0.8 (223)*
G04*
G04 Layer_Color=32768*
%FSTAX24Y24*%
%MOIN*%
G70*
G04*
G04 #@! TF.SameCoordinates,D94166DE-144D-4B7D-845D-6ED18FE10B1D*
G04*
G04*
G04 #@! TF.FilePolarity,Positive*
G04*
G01*
G75*
%ADD10C,0.0039*%
%ADD13C,0.0070*%
%ADD15C,0.0100*%
%ADD144C,0.0020*%
D10*
X080601Y036732D02*
Y037912D01*
X078901Y036732D02*
Y037912D01*
Y036732D02*
X080601D01*
X078901Y037912D02*
X080601D01*
X079751Y037125D02*
Y037519D01*
X079555Y037322D02*
X079948D01*
X080306Y035346D02*
Y03574D01*
X080109Y035543D02*
X080503D01*
X078716Y034563D02*
Y036523D01*
Y034563D02*
X081896D01*
Y036523D01*
X078716D02*
X081896D01*
X06829Y041958D02*
Y042332D01*
X068103Y042145D02*
X068477D01*
X06804Y041635D02*
X06854D01*
X06804Y042655D02*
X06854D01*
X06804Y041635D02*
Y042655D01*
X06854Y041635D02*
Y042655D01*
X078149Y04622D02*
X078549D01*
X078349Y04602D02*
Y04642D01*
X077472Y045858D02*
X079227D01*
X077472D02*
Y04658D01*
X077472Y046582D02*
X079227D01*
X079227Y045858D02*
Y046582D01*
X075637Y035598D02*
Y035972D01*
X07545Y035785D02*
X075824D01*
X075387Y036295D02*
X075887D01*
X075387Y035275D02*
X075887D01*
Y036295D01*
X075387Y035275D02*
Y036295D01*
X075166Y03661D02*
X07554D01*
X075353Y036423D02*
Y036797D01*
X074843Y03636D02*
Y03686D01*
X075863Y03636D02*
Y03686D01*
X074843D02*
X075863D01*
X074843Y03636D02*
X075863D01*
X075145Y035598D02*
Y035972D01*
X074958Y035785D02*
X075332D01*
X074895Y035275D02*
X075395D01*
X074895Y036295D02*
X075395D01*
X074895Y035275D02*
Y036295D01*
X075395Y035275D02*
Y036295D01*
X073091Y042342D02*
X074111D01*
X073091Y042842D02*
X074111D01*
X073091Y042342D02*
Y042842D01*
X074111Y042342D02*
Y042842D01*
X073601Y042405D02*
Y042779D01*
X073414Y042592D02*
X073788D01*
X073239Y043379D02*
X074259D01*
X073239Y043879D02*
X074259D01*
X073239Y043379D02*
Y043879D01*
X074259Y043379D02*
Y043879D01*
X073749Y043442D02*
Y043816D01*
X073562Y043629D02*
X073936D01*
X065932Y050787D02*
X066168D01*
X06605Y050669D02*
Y050905D01*
X06405Y053137D02*
X06805D01*
Y048437D02*
Y053137D01*
X06405Y048437D02*
X06805D01*
X06405D02*
Y053137D01*
X076533Y033799D02*
Y034819D01*
X076033Y033799D02*
Y034819D01*
Y033799D02*
X076533D01*
X076033Y034819D02*
X076533D01*
X076096Y034309D02*
X07647D01*
X076283Y034122D02*
Y034496D01*
X072988Y039751D02*
X073362D01*
X073175Y039564D02*
Y039938D01*
X073685Y039501D02*
Y040001D01*
X072665Y039501D02*
Y040001D01*
X073685D01*
X072665Y039501D02*
X073685D01*
X071389Y037952D02*
X072409D01*
X071389Y038452D02*
X072409D01*
X071389Y037952D02*
Y038452D01*
X072409Y037952D02*
Y038452D01*
X071899Y038015D02*
Y038389D01*
X071712Y038202D02*
X072086D01*
X074733Y034853D02*
X075753D01*
X074733Y034353D02*
X075753D01*
Y034853D01*
X074733Y034353D02*
Y034853D01*
X075243Y034416D02*
Y03479D01*
X075056Y034603D02*
X07543D01*
X073573Y034853D02*
X074593D01*
X073573Y034353D02*
X074593D01*
Y034853D01*
X073573Y034353D02*
Y034853D01*
X074083Y034416D02*
Y03479D01*
X073896Y034603D02*
X07427D01*
X073847Y035843D02*
X07424D01*
X074043Y035646D02*
Y03604D01*
X073355Y035076D02*
Y036611D01*
X074732Y035076D02*
Y036611D01*
X073355D02*
X074732D01*
X073355Y035076D02*
X074732D01*
X074834Y036611D02*
X076212D01*
X074834Y035076D02*
X076212D01*
X074834D02*
Y036611D01*
X076212Y035076D02*
Y036611D01*
X075523Y035646D02*
Y03604D01*
X075327Y035843D02*
X07572D01*
X070206Y036996D02*
X07058D01*
X070393Y036809D02*
Y037183D01*
X070903Y036746D02*
Y037246D01*
X069883Y036746D02*
Y037246D01*
X070903D01*
X069883Y036746D02*
X070903D01*
X074263Y037246D02*
X075283D01*
X074263Y036746D02*
X075283D01*
Y037246D01*
X074263Y036746D02*
Y037246D01*
X074773Y036809D02*
Y037183D01*
X074586Y036996D02*
X07496D01*
X075343Y036746D02*
X076363D01*
X075343Y037246D02*
X076363D01*
X075343Y036746D02*
Y037246D01*
X076363Y036746D02*
Y037246D01*
X075853Y036809D02*
Y037183D01*
X075666Y036996D02*
X07604D01*
X076749Y036996D02*
X077123D01*
X076936Y036809D02*
Y037183D01*
X076426Y036746D02*
Y037246D01*
X077446Y036746D02*
Y037246D01*
X076426Y036746D02*
X077446D01*
X076426Y037246D02*
X077446D01*
X078298Y051348D02*
Y052368D01*
X078798Y051348D02*
Y052368D01*
X078298D02*
X078798D01*
X078298Y051348D02*
X078798D01*
X078361Y051858D02*
X078735D01*
X078548Y051671D02*
Y052045D01*
X077849Y050425D02*
Y051445D01*
X078349Y050425D02*
Y051445D01*
X077849D02*
X078349D01*
X077849Y050425D02*
X078349D01*
X077912Y050935D02*
X078286D01*
X078099Y050748D02*
Y051122D01*
X07778Y052763D02*
X0788D01*
X07778Y052263D02*
X0788D01*
Y052763D01*
X07778Y052263D02*
Y052763D01*
X07829Y052326D02*
Y0527D01*
X078103Y052513D02*
X078477D01*
X064501Y054003D02*
Y055023D01*
X065001Y054003D02*
Y055023D01*
X064501D02*
X065001D01*
X064501Y054003D02*
X065001D01*
X064564Y054513D02*
X064938D01*
X064751Y054326D02*
Y0547D01*
X064517Y053421D02*
X065537D01*
X064517Y053921D02*
X065537D01*
X064517Y053421D02*
Y053921D01*
X065537Y053421D02*
Y053921D01*
X065027Y053484D02*
Y053858D01*
X06484Y053671D02*
X065214D01*
X064519Y055092D02*
X065539D01*
X064519Y055592D02*
X065539D01*
X064519Y055092D02*
Y055592D01*
X065539Y055092D02*
Y055592D01*
X065029Y055155D02*
Y055529D01*
X064842Y055342D02*
X065216D01*
X076568Y04622D02*
Y046614D01*
X076371Y046417D02*
X076765D01*
X077148Y045117D02*
Y047717D01*
X075998D02*
X077148D01*
X075998Y045117D02*
X077148D01*
X075988D02*
X075998D01*
X075988D02*
Y047717D01*
X075998D01*
X078249Y045275D02*
X079269D01*
X078249Y045775D02*
X079269D01*
Y045275D02*
Y045775D01*
X078249Y045275D02*
Y045775D01*
X078759Y045338D02*
Y045712D01*
X078572Y045525D02*
X078946D01*
X081285Y04712D02*
Y047494D01*
X081097Y047307D02*
X081472D01*
X081034Y046797D02*
X081535D01*
X081034Y047817D02*
X081535D01*
Y046797D02*
Y047817D01*
X081034Y046797D02*
Y047817D01*
X07199Y034192D02*
X072384D01*
X072187Y033995D02*
Y034389D01*
X074195Y032755D02*
Y035629D01*
X070179Y032755D02*
Y035629D01*
Y035629D02*
X074195D01*
X070179Y032755D02*
X074195D01*
X073424Y042037D02*
X073798D01*
X073611Y04185D02*
Y042224D01*
X074121Y041787D02*
Y042287D01*
X073101Y041787D02*
Y042287D01*
X074121D01*
X073101Y041787D02*
X074121D01*
X073432Y04307D02*
X073806D01*
X073619Y042883D02*
Y043257D01*
X074129Y04282D02*
Y04332D01*
X073109Y04282D02*
Y04332D01*
X074129D01*
X073109Y04282D02*
X074129D01*
X063006Y049972D02*
Y050346D01*
X062819Y050159D02*
X063193D01*
X062756Y049649D02*
X063256D01*
X062756Y050669D02*
X063256D01*
Y049649D02*
Y050669D01*
X062756Y049649D02*
Y050669D01*
X062189Y049649D02*
Y050669D01*
X062689Y049649D02*
Y050669D01*
X062189D02*
X062689D01*
X062189Y049649D02*
X062689D01*
X062252Y050159D02*
X062626D01*
X062439Y049972D02*
Y050346D01*
X063558Y049974D02*
Y050348D01*
X063371Y050161D02*
X063745D01*
X063308Y050671D02*
X063808D01*
X063308Y049651D02*
X063808D01*
X063308D02*
Y050671D01*
X063808Y049651D02*
Y050671D01*
X062334Y051096D02*
X062734D01*
X062534Y050896D02*
Y051296D01*
X061657Y051458D02*
X063412D01*
X061657Y050736D02*
Y051458D01*
X061657Y050734D02*
X063412D01*
X063412D02*
Y051458D01*
X061873Y049978D02*
Y050352D01*
X061686Y050165D02*
X06206D01*
X061623Y049655D02*
X062123D01*
X061623Y050675D02*
X062123D01*
Y049655D02*
Y050675D01*
X061623Y049655D02*
Y050675D01*
X065735Y056574D02*
Y05681D01*
X065617Y056692D02*
X065853D01*
X078601Y032729D02*
Y036489D01*
X076171Y032729D02*
X078601D01*
X076171D02*
Y036529D01*
X078601D01*
Y036489D02*
Y036529D01*
X077184Y034629D02*
X077578D01*
X077381Y034433D02*
Y034826D01*
X074283Y029504D02*
Y02974D01*
X074165Y029622D02*
X074401D01*
X077727Y037322D02*
X078121D01*
X077924Y037125D02*
Y037519D01*
X077074Y036732D02*
X078774D01*
X077074Y037912D02*
X078774D01*
Y036732D02*
Y037912D01*
X077074Y036732D02*
Y037912D01*
X075402Y041973D02*
Y044593D01*
Y041973D02*
X078022D01*
X075402Y044593D02*
X078022D01*
Y041973D02*
Y044593D01*
X076712Y043087D02*
Y04348D01*
X076515Y043283D02*
X076908D01*
X078285Y039451D02*
X08045D01*
X078285Y042718D02*
X08045D01*
X078285Y039451D02*
Y042718D01*
X08045Y039451D02*
Y042718D01*
X079367Y040888D02*
Y041281D01*
X079171Y041085D02*
X079564D01*
X079726Y047851D02*
X08012D01*
X079923Y047654D02*
Y048048D01*
X071349Y039271D02*
X071743D01*
X071546Y039074D02*
Y039468D01*
X070316Y038041D02*
X072777D01*
Y040501D01*
X070316D02*
X072777D01*
X070316Y038041D02*
Y040501D01*
X071542Y041367D02*
X071936D01*
X071739Y04117D02*
Y041564D01*
X071309Y040738D02*
X072172D01*
X071307Y04074D02*
X071309Y040738D01*
X071307Y04074D02*
Y041996D01*
X072172Y040738D02*
Y041996D01*
X071307D02*
X072172D01*
X069185Y042392D02*
X070785D01*
Y041092D02*
Y042392D01*
X069185Y041092D02*
X070785D01*
X069185D02*
Y042392D01*
X069788Y041742D02*
X070182D01*
X069985Y041545D02*
Y041938D01*
X07267Y041609D02*
Y042409D01*
X07117D02*
X07267D01*
X07117Y041609D02*
Y042409D01*
Y041609D02*
X07267D01*
X071723Y042009D02*
X072117D01*
X07192Y041813D02*
Y042206D01*
X079912Y042779D02*
Y044944D01*
X075936Y042779D02*
Y044944D01*
X075936D02*
X079912D01*
X075936Y042779D02*
X079912D01*
X077727Y043862D02*
X078121D01*
X077924Y043665D02*
Y044059D01*
X073444Y063946D02*
Y06432D01*
X073257Y064133D02*
X073631D01*
X073227Y064606D02*
X07366D01*
X073227Y063661D02*
X07366D01*
Y064606D01*
X073227Y063661D02*
Y064606D01*
X080564Y043035D02*
X080938D01*
X080751Y042848D02*
Y043222D01*
X081261Y042785D02*
Y043285D01*
X080241Y042785D02*
Y043285D01*
X081261D01*
X080241Y042785D02*
X081261D01*
X080879Y039896D02*
X081253D01*
X081066Y039709D02*
Y040083D01*
X081576Y039646D02*
Y040146D01*
X080556Y039646D02*
Y040146D01*
Y039646D02*
X081576D01*
X080556Y040146D02*
X081576D01*
X066643Y045982D02*
X067663D01*
X066643Y045482D02*
X067663D01*
Y045982D01*
X066643Y045482D02*
Y045982D01*
X067153Y045545D02*
Y045919D01*
X066966Y045732D02*
X06734D01*
X063983Y047787D02*
X065003D01*
X063983Y047287D02*
X065003D01*
Y047787D01*
X063983Y047287D02*
Y047787D01*
X064493Y04735D02*
Y047724D01*
X064306Y047537D02*
X06468D01*
X076098Y04568D02*
X077118D01*
X076098Y04518D02*
X077118D01*
Y04568D01*
X076098Y04518D02*
Y04568D01*
X076608Y045243D02*
Y045617D01*
X076421Y04543D02*
X076795D01*
X077702Y045152D02*
X078722D01*
X077702Y045652D02*
X078722D01*
X077702Y045152D02*
Y045652D01*
X078722Y045152D02*
Y045652D01*
X078212Y045215D02*
Y045589D01*
X078025Y045402D02*
X078399D01*
X071291Y04873D02*
X071665D01*
X071478Y048543D02*
Y048917D01*
X071988Y04848D02*
Y04898D01*
X070968Y04848D02*
Y04898D01*
X071988D01*
X070968Y04848D02*
X071988D01*
X07572Y048385D02*
Y048759D01*
X075533Y048572D02*
X075907D01*
X07547Y048062D02*
X07597D01*
X07547Y049082D02*
X07597D01*
X07547Y048062D02*
Y049082D01*
X07597Y048062D02*
Y049082D01*
X075698Y049468D02*
Y049842D01*
X075511Y049655D02*
X075885D01*
X075448Y050165D02*
X075948D01*
X075448Y049145D02*
X075948D01*
Y050165D01*
X075448Y049145D02*
Y050165D01*
X071952Y0476D02*
X072326D01*
X072139Y047413D02*
Y047787D01*
X072649Y04735D02*
Y04785D01*
X071629Y04735D02*
Y04785D01*
Y04735D02*
X072649D01*
X071629Y04785D02*
X072649D01*
X073428Y046395D02*
Y046789D01*
X073231Y046592D02*
X073625D01*
X07266Y045903D02*
X074196D01*
X07266Y047281D02*
X074196D01*
Y045903D02*
Y047281D01*
X07266Y045903D02*
Y047281D01*
X074631Y047108D02*
X075005D01*
X074818Y046921D02*
Y047295D01*
X074308Y046858D02*
Y047358D01*
X075328Y046858D02*
Y047358D01*
X074308D02*
X075328D01*
X074308Y046858D02*
X075328D01*
X080172Y038741D02*
X081192D01*
X080172Y038241D02*
X081192D01*
X080172D02*
Y038741D01*
X081192Y038241D02*
Y038741D01*
X080682Y038304D02*
Y038678D01*
X080495Y038491D02*
X080869D01*
X071406Y032529D02*
X072426D01*
X071406Y032029D02*
X072426D01*
X071406D02*
Y032529D01*
X072426Y032029D02*
Y032529D01*
X071916Y032092D02*
Y032466D01*
X071729Y032279D02*
X072103D01*
X069697Y037669D02*
X070071D01*
X069884Y037482D02*
Y037856D01*
X070394Y037419D02*
Y037919D01*
X069374Y037419D02*
Y037919D01*
Y037419D02*
X070394D01*
X069374Y037919D02*
X070394D01*
X068268Y038123D02*
X068642D01*
X068455Y037936D02*
Y03831D01*
X068965Y037873D02*
Y038373D01*
X067945Y037873D02*
Y038373D01*
Y037873D02*
X068965D01*
X067945Y038373D02*
X068965D01*
X072779Y031793D02*
Y032167D01*
X072592Y03198D02*
X072966D01*
X072529Y03147D02*
X073029D01*
X072529Y03249D02*
X073029D01*
X072529Y03147D02*
Y03249D01*
X073029Y03147D02*
Y03249D01*
X069446Y04932D02*
Y049694D01*
X069259Y049507D02*
X069633D01*
X069196Y048997D02*
X069696D01*
X069196Y050017D02*
X069696D01*
X069196Y048997D02*
Y050017D01*
X069696Y048997D02*
Y050017D01*
X078173Y029504D02*
Y02974D01*
X078055Y029622D02*
X078292D01*
X072845Y047342D02*
X073865D01*
X072845Y047842D02*
X073865D01*
Y047342D02*
Y047842D01*
X072845Y047342D02*
Y047842D01*
X073355Y047405D02*
Y047779D01*
X073168Y047592D02*
X073542D01*
X063967Y047279D02*
X064987D01*
X063967Y046779D02*
X064987D01*
Y047279D01*
X063967Y046779D02*
Y047279D01*
X064477Y046842D02*
Y047216D01*
X06429Y047029D02*
X064664D01*
X063967Y048336D02*
X064987D01*
X063967Y047836D02*
X064987D01*
Y048336D01*
X063967Y047836D02*
Y048336D01*
X064477Y047899D02*
Y048273D01*
X06429Y048086D02*
X064664D01*
X076734Y033354D02*
X077134D01*
X076934Y033154D02*
Y033554D01*
X076057Y033716D02*
X077811D01*
X076057Y032994D02*
Y033716D01*
X076057Y032992D02*
X077811D01*
X077811D02*
Y033716D01*
X068793Y03571D02*
X069186D01*
X068989Y035514D02*
Y035907D01*
X069678Y034943D02*
Y036478D01*
X0683Y034943D02*
Y036478D01*
Y034943D02*
X069678D01*
X0683Y036478D02*
X069678D01*
X067938Y037301D02*
X068958D01*
X067938Y037801D02*
X068958D01*
Y037301D02*
Y037801D01*
X067938Y037301D02*
Y037801D01*
X068448Y037364D02*
Y037738D01*
X068261Y037551D02*
X068635D01*
X06808Y042738D02*
X0691D01*
X06808Y043238D02*
X0691D01*
Y042738D02*
Y043238D01*
X06808Y042738D02*
Y043238D01*
X06859Y042801D02*
Y043175D01*
X068403Y042988D02*
X068777D01*
X071666Y037165D02*
X07204D01*
X071853Y036978D02*
Y037352D01*
X072363Y036915D02*
Y037415D01*
X071343Y036915D02*
Y037415D01*
Y036915D02*
X072363D01*
X071343Y037415D02*
X072363D01*
X073147Y032596D02*
X074167D01*
X073147Y032096D02*
X074167D01*
X073147D02*
Y032596D01*
X074167Y032096D02*
Y032596D01*
X073657Y032159D02*
Y032533D01*
X07347Y032346D02*
X073844D01*
X074887Y049159D02*
Y050179D01*
X075387Y049159D02*
Y050179D01*
X074887Y049159D02*
X075387D01*
X074887Y050179D02*
X075387D01*
X07495Y049669D02*
X075324D01*
X075137Y049482D02*
Y049856D01*
X079147Y033728D02*
Y034748D01*
X078647Y033728D02*
Y034748D01*
Y033728D02*
X079147D01*
X078647Y034748D02*
X079147D01*
X07871Y034238D02*
X079084D01*
X078897Y034051D02*
Y034425D01*
X079785Y038564D02*
Y038938D01*
X079598Y038751D02*
X079972D01*
X079535Y039261D02*
X080035D01*
X079535Y038241D02*
X080035D01*
Y039261D01*
X079535Y038241D02*
Y039261D01*
X080495Y039027D02*
X080869D01*
X080682Y03884D02*
Y039214D01*
X081192Y038777D02*
Y039277D01*
X080172Y038777D02*
Y039277D01*
Y038777D02*
X081192D01*
X080172Y039277D02*
X081192D01*
X076481Y040332D02*
Y041352D01*
X076981Y040332D02*
Y041352D01*
X076481D02*
X076981D01*
X076481Y040332D02*
X076981D01*
X076544Y040842D02*
X076918D01*
X076731Y040655D02*
Y041029D01*
X061611Y046647D02*
Y047667D01*
X062111Y046647D02*
Y047667D01*
X061611Y046647D02*
X062111D01*
X061611Y047667D02*
X062111D01*
X061674Y047157D02*
X062048D01*
X061861Y04697D02*
Y047344D01*
X070731Y049006D02*
Y04938D01*
X070544Y049193D02*
X070918D01*
X070481Y049703D02*
X070981D01*
X070481Y048683D02*
X070981D01*
Y049703D01*
X070481Y048683D02*
Y049703D01*
X069533Y032992D02*
Y034012D01*
X070033Y032992D02*
Y034012D01*
X069533Y032992D02*
X070033D01*
X069533Y034012D02*
X070033D01*
X069596Y033502D02*
X06997D01*
X069783Y033315D02*
Y033689D01*
X068699Y048712D02*
X069073D01*
X068886Y048525D02*
Y048899D01*
X068376Y048462D02*
Y048962D01*
X069396Y048462D02*
Y048962D01*
X068376Y048462D02*
X069396D01*
X068376Y048962D02*
X069396D01*
X07233Y040751D02*
Y041125D01*
X072143Y040938D02*
X072517D01*
X07208Y040428D02*
X07258D01*
X07208Y041448D02*
X07258D01*
Y040428D02*
Y041448D01*
X07208Y040428D02*
Y041448D01*
X071059Y040751D02*
Y041125D01*
X070872Y040938D02*
X071246D01*
X070809Y040428D02*
X071309D01*
X070809Y041448D02*
X071309D01*
Y040428D02*
Y041448D01*
X070809Y040428D02*
Y041448D01*
X068895Y041555D02*
Y041929D01*
X068708Y041742D02*
X069082D01*
X068645Y041232D02*
X069145D01*
X068645Y042252D02*
X069145D01*
Y041232D02*
Y042252D01*
X068645Y041232D02*
Y042252D01*
X071694Y040751D02*
Y041125D01*
X071507Y040938D02*
X071881D01*
X071444Y040428D02*
X071944D01*
X071444Y041448D02*
X071944D01*
Y040428D02*
Y041448D01*
X071444Y040428D02*
Y041448D01*
X068631Y045356D02*
Y046376D01*
X069131Y045356D02*
Y046376D01*
X068631D02*
X069131D01*
X068631Y045356D02*
X069131D01*
X068694Y045866D02*
X069068D01*
X068881Y045679D02*
Y046053D01*
X073267Y048445D02*
X073641D01*
X073454Y048258D02*
Y048632D01*
X073964Y048195D02*
Y048695D01*
X072944Y048195D02*
Y048695D01*
X073964D01*
X072944Y048195D02*
X073964D01*
X073267Y047892D02*
X073641D01*
X073454Y047705D02*
Y048079D01*
X073964Y047642D02*
Y048142D01*
X072944Y047642D02*
Y048142D01*
X073964D01*
X072944Y047642D02*
X073964D01*
X070953Y05763D02*
X071973D01*
X070953Y05713D02*
X071973D01*
Y05763D01*
X070953Y05713D02*
Y05763D01*
X071463Y057193D02*
Y057567D01*
X071276Y05738D02*
X07165D01*
X078225Y047297D02*
Y048317D01*
X078725Y047297D02*
Y048317D01*
X078225D02*
X078725D01*
X078225Y047297D02*
X078725D01*
X078288Y047807D02*
X078662D01*
X078475Y04762D02*
Y047994D01*
X076421Y045973D02*
X076795D01*
X076608Y045786D02*
Y04616D01*
X076098Y045723D02*
Y046223D01*
X077118Y045723D02*
Y046223D01*
X076098Y045723D02*
X077118D01*
X076098Y046223D02*
X077118D01*
X080564Y043602D02*
X080938D01*
X080751Y043415D02*
Y043789D01*
X080241Y043352D02*
Y043852D01*
X081261Y043352D02*
Y043852D01*
X080241Y043352D02*
X081261D01*
X080241Y043852D02*
X081261D01*
X072123Y036746D02*
X073143D01*
X072123Y037246D02*
X073143D01*
X072123Y036746D02*
Y037246D01*
X073143Y036746D02*
Y037246D01*
X072633Y036809D02*
Y037183D01*
X072446Y036996D02*
X07282D01*
X070596Y034603D02*
X07097D01*
X070783Y034416D02*
Y03479D01*
X070273Y034353D02*
Y034853D01*
X071293Y034353D02*
Y034853D01*
X070273Y034353D02*
X071293D01*
X070273Y034853D02*
X071293D01*
X071324Y036996D02*
X071698D01*
X071511Y036809D02*
Y037183D01*
X071001Y036746D02*
Y037246D01*
X072021Y036746D02*
Y037246D01*
X071001Y036746D02*
X072021D01*
X071001Y037246D02*
X072021D01*
X071477Y034852D02*
X072497D01*
X071477Y034352D02*
X072497D01*
Y034852D01*
X071477Y034352D02*
Y034852D01*
X071987Y034415D02*
Y034789D01*
X0718Y034602D02*
X072174D01*
X070015Y035033D02*
X071392D01*
X070015Y036568D02*
X071392D01*
Y035033D02*
Y036568D01*
X070015Y035033D02*
Y036568D01*
X070703Y035604D02*
Y035997D01*
X070507Y0358D02*
X0709D01*
X071595Y036611D02*
X072972D01*
X071595Y035076D02*
X072972D01*
X071595D02*
Y036611D01*
X072972Y035076D02*
Y036611D01*
X072283Y035646D02*
Y03604D01*
X072087Y035843D02*
X07248D01*
X073516Y036996D02*
X07389D01*
X073703Y036809D02*
Y037183D01*
X074213Y036746D02*
Y037246D01*
X073193Y036746D02*
Y037246D01*
X074213D01*
X073193Y036746D02*
X074213D01*
X071664Y063661D02*
Y064606D01*
X072097Y063661D02*
Y064606D01*
X071664Y063661D02*
X072097D01*
X071664Y064606D02*
X072097D01*
X071694Y064133D02*
X072068D01*
X071881Y063946D02*
Y06432D01*
X073972Y063623D02*
Y064643D01*
X074472Y063623D02*
Y064643D01*
X073972Y063623D02*
X074472D01*
X073972Y064643D02*
X074472D01*
X074035Y064133D02*
X074409D01*
X074222Y063946D02*
Y06432D01*
X070847Y063623D02*
Y064643D01*
X071347Y063623D02*
Y064643D01*
X070847Y063623D02*
X071347D01*
X070847Y064643D02*
X071347D01*
X070911Y064133D02*
X071284D01*
X071097Y063946D02*
Y06432D01*
X07241Y063623D02*
Y064643D01*
X07291Y063623D02*
Y064643D01*
X07241Y063623D02*
X07291D01*
X07241Y064643D02*
X07291D01*
X072473Y064133D02*
X072847D01*
X07266Y063946D02*
Y06432D01*
X070102Y063661D02*
Y064606D01*
X070535Y063661D02*
Y064606D01*
X070102Y063661D02*
X070535D01*
X070102Y064606D02*
X070535D01*
X070132Y064133D02*
X070506D01*
X070319Y063946D02*
Y06432D01*
X069934Y03644D02*
X070308D01*
X070121Y036253D02*
Y036627D01*
X070631Y03619D02*
Y03669D01*
X069611Y03619D02*
Y03669D01*
Y03619D02*
X070631D01*
X069611Y03669D02*
X070631D01*
X06958Y036202D02*
X0706D01*
X06958Y035702D02*
X0706D01*
X06958D02*
Y036202D01*
X0706Y035702D02*
Y036202D01*
X07009Y035765D02*
Y036139D01*
X069903Y035952D02*
X070277D01*
X069747Y034513D02*
Y034887D01*
X06956Y0347D02*
X069934D01*
X069497Y03419D02*
X069997D01*
X069497Y03521D02*
X069997D01*
X069497Y03419D02*
Y03521D01*
X069997Y03419D02*
Y03521D01*
X074672Y032742D02*
Y033116D01*
X074485Y032929D02*
X074859D01*
X074422Y033439D02*
X074922D01*
X074422Y032419D02*
X074922D01*
Y033439D01*
X074422Y032419D02*
Y033439D01*
X070533Y032255D02*
X070907D01*
X07072Y032068D02*
Y032442D01*
X07123Y032005D02*
Y032505D01*
X07021Y032005D02*
Y032505D01*
Y032005D02*
X07123D01*
X07021Y032505D02*
X07123D01*
X078552Y048732D02*
X078926D01*
X078739Y048545D02*
Y048919D01*
X078229Y048482D02*
Y048982D01*
X079249Y048482D02*
Y048982D01*
X078229Y048482D02*
X079249D01*
X078229Y048982D02*
X079249D01*
X06854Y063661D02*
Y064606D01*
X068973Y063661D02*
Y064606D01*
X06854Y063661D02*
X068973D01*
X06854Y064606D02*
X068973D01*
X068569Y064133D02*
X068943D01*
X068756Y063946D02*
Y06432D01*
X069285Y063623D02*
Y064643D01*
X069785Y063623D02*
Y064643D01*
X069285Y063623D02*
X069785D01*
X069285Y064643D02*
X069785D01*
X069348Y064133D02*
X069722D01*
X069535Y063946D02*
Y06432D01*
X067916Y048974D02*
X068936D01*
X067916Y048474D02*
X068936D01*
X067916D02*
Y048974D01*
X068936Y048474D02*
Y048974D01*
X068426Y048537D02*
Y048911D01*
X068239Y048724D02*
X068613D01*
X079009Y036746D02*
X080029D01*
X079009Y037246D02*
X080029D01*
X079009Y036746D02*
Y037246D01*
X080029Y036746D02*
Y037246D01*
X079519Y036809D02*
Y037183D01*
X079332Y036996D02*
X079706D01*
X076235Y035091D02*
X077613D01*
X076235Y036626D02*
X077613D01*
Y035091D02*
Y036626D01*
X076235Y035091D02*
Y036626D01*
X076924Y035662D02*
Y036055D01*
X076727Y035858D02*
X077121D01*
X078115Y032907D02*
Y033281D01*
X077928Y033094D02*
X078302D01*
X077865Y033604D02*
X078365D01*
X077865Y032584D02*
X078365D01*
X077865D02*
Y033604D01*
X078365Y032584D02*
Y033604D01*
X077865Y033728D02*
Y034748D01*
X078365Y033728D02*
Y034748D01*
X077865D02*
X078365D01*
X077865Y033728D02*
X078365D01*
X077928Y034238D02*
X078302D01*
X078115Y034051D02*
Y034425D01*
X077343Y034122D02*
Y034496D01*
X077156Y034309D02*
X07753D01*
X077093Y033799D02*
X077593D01*
X077093Y034819D02*
X077593D01*
Y033799D02*
Y034819D01*
X077093Y033799D02*
Y034819D01*
X078144Y035858D02*
X078538D01*
X078341Y035662D02*
Y036055D01*
X077652Y035091D02*
Y036626D01*
X07903Y035091D02*
Y036626D01*
X077652D02*
X07903D01*
X077652Y035091D02*
X07903D01*
X077946Y036996D02*
X07832D01*
X078133Y036809D02*
Y037183D01*
X078643Y036746D02*
Y037246D01*
X077623Y036746D02*
Y037246D01*
X078643D01*
X077623Y036746D02*
X078643D01*
X07682Y034122D02*
Y034496D01*
X076633Y034309D02*
X077007D01*
X07657Y033799D02*
X07707D01*
X07657Y034819D02*
X07707D01*
Y033799D02*
Y034819D01*
X07657Y033799D02*
Y034819D01*
X069609Y04133D02*
X070003D01*
X069806Y041133D02*
Y041527D01*
X069117Y040562D02*
Y042098D01*
X070495Y040562D02*
Y042098D01*
X069117Y040562D02*
X070495D01*
X069117Y042098D02*
X070495D01*
X071304Y042576D02*
X072324D01*
X071304Y042076D02*
X072324D01*
X071304D02*
Y042576D01*
X072324Y042076D02*
Y042576D01*
X071814Y042139D02*
Y042513D01*
X071627Y042326D02*
X072001D01*
X069191Y039832D02*
X070211D01*
X069191Y039332D02*
X070211D01*
X069191D02*
Y039832D01*
X070211Y039332D02*
Y039832D01*
X069701Y039395D02*
Y039769D01*
X069514Y039582D02*
X069888D01*
X067943Y040293D02*
X068963D01*
X067943Y039793D02*
X068963D01*
X067943D02*
Y040293D01*
X068963Y039793D02*
Y040293D01*
X068453Y039856D02*
Y04023D01*
X068266Y040043D02*
X06864D01*
X069517Y040055D02*
X069891D01*
X069704Y039868D02*
Y040242D01*
X070214Y039805D02*
Y040305D01*
X069194Y039805D02*
Y040305D01*
Y039805D02*
X070214D01*
X069194Y040305D02*
X070214D01*
X067943Y039603D02*
X068963D01*
X067943Y039103D02*
X068963D01*
X067943D02*
Y039603D01*
X068963Y039103D02*
Y039603D01*
X068453Y039166D02*
Y03954D01*
X068266Y039353D02*
X06864D01*
X067945Y039029D02*
X068965D01*
X067945Y038529D02*
X068965D01*
X067945D02*
Y039029D01*
X068965Y038529D02*
Y039029D01*
X068455Y038592D02*
Y038966D01*
X068268Y038779D02*
X068642D01*
X067023Y038866D02*
Y03924D01*
X066836Y039053D02*
X06721D01*
X066773Y038543D02*
X067273D01*
X066773Y039563D02*
X067273D01*
X066773Y038543D02*
Y039563D01*
X067273Y038543D02*
Y039563D01*
X067613Y038876D02*
Y03925D01*
X067426Y039063D02*
X0678D01*
X067363Y039573D02*
X067863D01*
X067363Y038553D02*
X067863D01*
Y039573D01*
X067363Y038553D02*
Y039573D01*
X070745Y036893D02*
Y037913D01*
X071245Y036893D02*
Y037913D01*
X070745Y036893D02*
X071245D01*
X070745Y037913D02*
X071245D01*
X070808Y037403D02*
X071182D01*
X070995Y037216D02*
Y03759D01*
X070434Y040533D02*
Y041553D01*
X070934Y040533D02*
Y041553D01*
X070434Y040533D02*
X070934D01*
X070434Y041553D02*
X070934D01*
X070497Y041043D02*
X070871D01*
X070684Y040856D02*
Y04123D01*
X072245Y040757D02*
Y041777D01*
X072745Y040757D02*
Y041777D01*
X072245Y040757D02*
X072745D01*
X072245Y041777D02*
X072745D01*
X072308Y041267D02*
X072682D01*
X072495Y04108D02*
Y041454D01*
X081121Y039035D02*
X081495D01*
X081308Y038848D02*
Y039222D01*
X080798Y038785D02*
Y039285D01*
X081818Y038785D02*
Y039285D01*
X080798Y038785D02*
X081818D01*
X080798Y039285D02*
X081818D01*
X081121Y038462D02*
X081495D01*
X081308Y038275D02*
Y038649D01*
X081818Y038212D02*
Y038712D01*
X080798Y038212D02*
Y038712D01*
X081818D01*
X080798Y038212D02*
X081818D01*
X080784Y040248D02*
X081804D01*
X080784Y039748D02*
X081804D01*
Y040248D01*
X080784Y039748D02*
Y040248D01*
X081294Y03981D02*
Y040185D01*
X081107Y039998D02*
X081481D01*
X068103Y036226D02*
Y0366D01*
X067916Y036413D02*
X06829D01*
X067853Y036923D02*
X068353D01*
X067853Y035903D02*
X068353D01*
X067853D02*
Y036923D01*
X068353Y035903D02*
Y036923D01*
X068746Y036803D02*
X06912D01*
X068933Y036616D02*
Y03699D01*
X068423Y036553D02*
Y037053D01*
X069443Y036553D02*
Y037053D01*
X068423Y036553D02*
X069443D01*
X068423Y037053D02*
X069443D01*
X068421Y035111D02*
Y035836D01*
X066666Y035111D02*
X068421D01*
X066666Y035113D02*
Y035836D01*
X066666D02*
X068421D01*
X067543Y035273D02*
Y035673D01*
X067343Y035473D02*
X067743D01*
X070481Y049793D02*
Y050813D01*
X070981Y049793D02*
Y050813D01*
X070481Y049793D02*
X070981D01*
X070481Y050813D02*
X070981D01*
X070544Y050303D02*
X070918D01*
X070731Y050116D02*
Y05049D01*
X07234Y049446D02*
Y04984D01*
X072143Y049643D02*
X072537D01*
X071572Y048954D02*
X073108D01*
X071572Y050332D02*
X073108D01*
Y048954D02*
Y050332D01*
X071572Y048954D02*
Y050332D01*
X070434Y049103D02*
Y050123D01*
X070934Y049103D02*
Y050123D01*
X070434D02*
X070934D01*
X070434Y049103D02*
X070934D01*
X070497Y049613D02*
X070872D01*
X070684Y049426D02*
Y0498D01*
X070393Y050933D02*
Y051953D01*
X069893Y050933D02*
Y051953D01*
Y050933D02*
X070393D01*
X069893Y051953D02*
X070393D01*
X069956Y051443D02*
X07033D01*
X070143Y051256D02*
Y05163D01*
X069844Y049103D02*
Y050123D01*
X070344Y049103D02*
Y050123D01*
X069844D02*
X070344D01*
X069844Y049103D02*
X070344D01*
X069907Y049613D02*
X070281D01*
X070094Y049426D02*
Y0498D01*
X070953Y05772D02*
X071973D01*
X070953Y05822D02*
X071973D01*
X070953Y05772D02*
Y05822D01*
X071973Y05772D02*
Y05822D01*
X071463Y057783D02*
Y058157D01*
X071276Y05797D02*
X07165D01*
X070323Y057203D02*
Y058223D01*
X070823Y057203D02*
Y058223D01*
X070323D02*
X070823D01*
X070323Y057203D02*
X070823D01*
X070386Y057713D02*
X07076D01*
X070573Y057526D02*
Y0579D01*
X072132Y05772D02*
X073152D01*
X072132Y05822D02*
X073152D01*
X072132Y05772D02*
Y05822D01*
X073152Y05772D02*
Y05822D01*
X072642Y057783D02*
Y058157D01*
X072455Y05797D02*
X072829D01*
X073621Y057956D02*
X073995D01*
X073808Y057769D02*
Y058143D01*
X073298Y057706D02*
Y058206D01*
X074318Y057706D02*
Y058206D01*
X073298Y057706D02*
X074318D01*
X073298Y058206D02*
X074318D01*
X074576Y049507D02*
Y049881D01*
X074389Y049694D02*
X074763D01*
X074326Y050204D02*
X074826D01*
X074326Y049184D02*
X074826D01*
Y050204D01*
X074326Y049184D02*
Y050204D01*
X074568Y048183D02*
X074962D01*
X074765Y047986D02*
Y048379D01*
X075454Y047415D02*
Y04895D01*
X074076Y047415D02*
Y04895D01*
X075454D01*
X074076Y047415D02*
X075454D01*
X074631Y04658D02*
X075005D01*
X074818Y046393D02*
Y046767D01*
X075328Y04633D02*
Y04683D01*
X074308Y04633D02*
Y04683D01*
Y04633D02*
X075328D01*
X074308Y04683D02*
X075328D01*
X068376Y047224D02*
X069396D01*
X068376Y047724D02*
X069396D01*
X068376Y047224D02*
Y047724D01*
X069396Y047224D02*
Y047724D01*
X068886Y047287D02*
Y047661D01*
X068699Y047474D02*
X069073D01*
X076436Y040057D02*
X07716D01*
Y040057D02*
Y041811D01*
X076436Y041811D02*
X077158D01*
X076436Y040057D02*
Y041811D01*
X076598Y040934D02*
X076998D01*
X076798Y040734D02*
Y041134D01*
X080859Y041994D02*
Y042368D01*
X080672Y042181D02*
X081046D01*
X080609Y041671D02*
X081109D01*
X080609Y042691D02*
X081109D01*
X080609Y041671D02*
Y042691D01*
X081109Y041671D02*
Y042691D01*
X081499Y042006D02*
Y04238D01*
X081312Y042193D02*
X081686D01*
X081249Y041683D02*
X081749D01*
X081249Y042702D02*
X081749D01*
X081249Y041683D02*
Y042702D01*
X081749Y041683D02*
Y042702D01*
X081499Y040924D02*
Y041298D01*
X081312Y041111D02*
X081686D01*
X081249Y040601D02*
X081749D01*
X081249Y041621D02*
X081749D01*
X081249Y040601D02*
Y041621D01*
X081749Y040601D02*
Y041621D01*
X079823Y031027D02*
Y031751D01*
X079823D02*
X081577D01*
X081577Y031027D02*
Y031749D01*
X079823Y031027D02*
X081577D01*
X0807Y031189D02*
Y031589D01*
X0805Y031389D02*
X0809D01*
X078389Y038705D02*
X078782D01*
X078585Y038508D02*
Y038902D01*
X077735Y038115D02*
X079435D01*
X077735Y039295D02*
X079435D01*
Y038115D02*
Y039295D01*
X077735Y038115D02*
Y039295D01*
X068376Y047892D02*
X069396D01*
X068376Y048392D02*
X069396D01*
X068376Y047892D02*
Y048392D01*
X069396Y047892D02*
Y048392D01*
X068886Y047955D02*
Y048329D01*
X068699Y048142D02*
X069073D01*
X066091Y045414D02*
Y046792D01*
X064555Y045414D02*
Y046792D01*
X066091D01*
X064555Y045414D02*
X066091D01*
X065126Y046103D02*
X06552D01*
X065323Y045906D02*
Y0463D01*
X067211Y04625D02*
X068231D01*
X067211Y04675D02*
X068231D01*
X067211Y04625D02*
Y04675D01*
X068231Y04625D02*
Y04675D01*
X067721Y046313D02*
Y046687D01*
X067534Y0465D02*
X067908D01*
X080584Y034529D02*
X081604D01*
X080584Y035029D02*
X081604D01*
X080584Y034529D02*
Y035029D01*
X081604Y034529D02*
Y035029D01*
X081094Y034592D02*
Y034966D01*
X080907Y034779D02*
X081281D01*
X08091Y035448D02*
X081285D01*
X081097Y035261D02*
Y035635D01*
X081607Y035198D02*
Y035698D01*
X080587Y035198D02*
Y035698D01*
X081607D01*
X080587Y035198D02*
X081607D01*
X079667Y035858D02*
X080061D01*
X079864Y035662D02*
Y036055D01*
X079175Y035091D02*
Y036626D01*
X080553Y035091D02*
Y036626D01*
X079175D02*
X080553D01*
X079175Y035091D02*
X080553D01*
X069002Y050604D02*
X069376D01*
X069189Y050417D02*
Y050791D01*
X068679Y050354D02*
Y050854D01*
X069699Y050354D02*
Y050854D01*
X068679D02*
X069699D01*
X068679Y050354D02*
X069699D01*
X067452Y050614D02*
X067826D01*
X067639Y050427D02*
Y050801D01*
X067129Y050364D02*
Y050864D01*
X068149Y050364D02*
Y050864D01*
X067129D02*
X068149D01*
X067129Y050364D02*
X068149D01*
X067363Y049498D02*
Y049872D01*
X067176Y049685D02*
X06755D01*
X067113Y050195D02*
X067613D01*
X067113Y049175D02*
X067613D01*
Y050195D01*
X067113Y049175D02*
Y050195D01*
X068269Y040598D02*
X068643D01*
X068456Y040411D02*
Y040785D01*
X068966Y040348D02*
Y040848D01*
X067946Y040348D02*
Y040848D01*
Y040348D02*
X068966D01*
X067946Y040848D02*
X068966D01*
D13*
X070176Y051751D02*
G03*
X070676Y052251I0J0005D01*
G01*
X060794D02*
G03*
X061294Y051751I0005J0D01*
G01*
X061235Y061633D02*
G03*
X060794Y061192I0J-000441D01*
G01*
X070676D02*
G03*
X070235Y061633I-000441J0D01*
G01*
X070676Y052251D02*
Y052442D01*
X070085Y051751D02*
X070176D01*
X060794Y052251D02*
Y052492D01*
X061294Y051751D02*
X061485D01*
X061294D02*
X070085D01*
X060794Y060692D02*
Y061192D01*
X061235Y061633D02*
X061535D01*
X060794Y052251D02*
Y061142D01*
X070676Y060942D02*
Y061192D01*
X070135Y061633D02*
X070235D01*
X061335D02*
X070235D01*
X070676Y052442D02*
Y061192D01*
D15*
X072283Y031622D02*
X076283D01*
X072283Y026465D02*
Y031572D01*
X076283Y026465D02*
Y031572D01*
X072283Y026465D02*
X076283D01*
X076173Y031622D02*
X080173D01*
X076173Y026465D02*
Y031572D01*
X080173Y026465D02*
Y031572D01*
X076173Y026465D02*
X080173D01*
D144*
X070916Y049492D02*
X072156D01*
X070916D02*
Y050456D01*
X070522D02*
X070916D01*
X070522D02*
Y05585D01*
X070916D01*
Y056815D01*
X072156D01*
Y057208D01*
X076251D01*
Y056815D02*
Y057208D01*
Y056815D02*
X077491D01*
Y05585D02*
Y056815D01*
Y05585D02*
X077885D01*
Y050456D02*
Y05585D01*
X077491Y050456D02*
X077885D01*
X077491Y049492D02*
Y050456D01*
X076251Y049492D02*
X077491D01*
X076251Y049098D02*
Y049492D01*
X072156Y049098D02*
X076251D01*
X072156D02*
Y049492D01*
X067766Y050196D02*
X06877D01*
X067766Y049192D02*
Y050196D01*
Y049192D02*
X06877D01*
Y050196D01*
X08076Y047201D02*
Y048481D01*
X079077Y047201D02*
Y048481D01*
X08076D01*
X079077Y047201D02*
X08076D01*
M02*
