G04*
G04 #@! TF.GenerationSoftware,Altium Limited,Altium Designer,21.0.8 (223)*
G04*
G04 Layer_Color=8388736*
%FSTAX24Y24*%
%MOIN*%
G70*
G04*
G04 #@! TF.SameCoordinates,D94166DE-144D-4B7D-845D-6ED18FE10B1D*
G04*
G04*
G04 #@! TF.FilePolarity,Positive*
G04*
G01*
G75*
%ADD143C,0.0059*%
G36*
X080025Y049924D02*
X080032Y049923D01*
X080038Y049922D01*
X080045Y049921D01*
X08005Y049919D01*
X080056Y049917D01*
X080061Y049916D01*
X080066Y049913D01*
X08007Y049912D01*
X080074Y04991D01*
X080077Y049908D01*
X08008Y049906D01*
X080081Y049905D01*
X080083Y049904D01*
X080084Y049903D01*
X080084Y049903D01*
X080089Y049898D01*
X080094Y049894D01*
X080098Y049889D01*
X080102Y049884D01*
X080108Y049874D01*
X080113Y049864D01*
X080116Y049859D01*
X080117Y049854D01*
X080119Y04985D01*
X08012Y049847D01*
X080121Y049844D01*
X080122Y049842D01*
X080122Y049841D01*
Y04984D01*
X080089Y049832D01*
X080087Y049838D01*
X080085Y049843D01*
X080084Y049848D01*
X080082Y049853D01*
X08008Y049857D01*
X080077Y049861D01*
X080075Y049865D01*
X080073Y049868D01*
X080071Y049871D01*
X080069Y049873D01*
X080067Y049875D01*
X080065Y049877D01*
X080064Y049878D01*
X080063Y049879D01*
X080062Y04988D01*
X080062Y04988D01*
X080058Y049883D01*
X080054Y049885D01*
X080046Y049889D01*
X080039Y049892D01*
X080031Y049894D01*
X080025Y049895D01*
X080022Y049896D01*
X08002D01*
X080017Y049896D01*
X080015D01*
X080006Y049896D01*
X079998Y049894D01*
X079991Y049892D01*
X079985Y04989D01*
X079979Y049888D01*
X079977Y049887D01*
X079975Y049886D01*
X079974Y049885D01*
X079973Y049885D01*
X079972Y049884D01*
X079972D01*
X079965Y049879D01*
X079959Y049874D01*
X079954Y049868D01*
X07995Y049862D01*
X079947Y049857D01*
X079945Y049852D01*
X079944Y04985D01*
X079943Y049849D01*
X079943Y049849D01*
Y049848D01*
X07994Y049839D01*
X079938Y049829D01*
X079936Y04982D01*
X079935Y049811D01*
X079934Y049807D01*
X079934Y049803D01*
Y0498D01*
X079934Y049798D01*
Y049795D01*
Y049794D01*
Y049793D01*
Y049792D01*
X079934Y049783D01*
X079935Y049774D01*
X079936Y049766D01*
X079938Y049759D01*
X079939Y049752D01*
X079939Y04975D01*
X07994Y049748D01*
X079941Y049746D01*
X079941Y049745D01*
X079941Y049744D01*
Y049744D01*
X079945Y049735D01*
X079949Y049728D01*
X079953Y049722D01*
X079958Y049716D01*
X079962Y049712D01*
X079965Y049709D01*
X079968Y049707D01*
X079968Y049706D01*
X079969D01*
X079976Y049702D01*
X079985Y049698D01*
X079993Y049695D01*
X08Y049694D01*
X080007Y049693D01*
X08001Y049692D01*
X080013D01*
X080014Y049692D01*
X080017D01*
X080026Y049692D01*
X080035Y049694D01*
X080042Y049696D01*
X080048Y049698D01*
X080053Y049701D01*
X080056Y049703D01*
X080058Y049704D01*
X080059Y049705D01*
X080065Y04971D01*
X08007Y049716D01*
X080075Y049723D01*
X080078Y04973D01*
X080081Y049735D01*
X080082Y049738D01*
X080083Y04974D01*
X080084Y049742D01*
X080085Y049744D01*
X080085Y049744D01*
Y049745D01*
X080118Y049737D01*
X080116Y049731D01*
X080113Y049725D01*
X080111Y049719D01*
X080108Y049714D01*
X080105Y049709D01*
X080102Y049705D01*
X080099Y0497D01*
X080096Y049697D01*
X080093Y049694D01*
X080091Y049691D01*
X080088Y049688D01*
X080086Y049687D01*
X080084Y049685D01*
X080083Y049684D01*
X080082Y049683D01*
X080082Y049683D01*
X080077Y04968D01*
X080072Y049676D01*
X080066Y049674D01*
X080061Y049672D01*
X08005Y049668D01*
X08004Y049666D01*
X080036Y049665D01*
X080032Y049665D01*
X080028Y049664D01*
X080024Y049664D01*
X080022Y049664D01*
X080018D01*
X080006Y049664D01*
X079994Y049666D01*
X079984Y049668D01*
X079979Y04967D01*
X079975Y049671D01*
X079971Y049673D01*
X079967Y049674D01*
X079965Y049675D01*
X079962Y049676D01*
X07996Y049678D01*
X079958Y049678D01*
X079957Y049679D01*
X079957Y049679D01*
X079947Y049685D01*
X079939Y049692D01*
X079931Y0497D01*
X079925Y049707D01*
X079921Y049714D01*
X079919Y049716D01*
X079917Y049719D01*
X079916Y049721D01*
X079915Y049722D01*
X079915Y049723D01*
X079914Y049724D01*
X079909Y049735D01*
X079906Y049747D01*
X079903Y049758D01*
X079901Y049769D01*
X0799Y049774D01*
X0799Y049778D01*
X0799Y049782D01*
Y049786D01*
X079899Y049788D01*
Y04979D01*
Y049792D01*
Y049792D01*
X0799Y049805D01*
X079902Y049818D01*
X079903Y049829D01*
X079905Y049835D01*
X079906Y049839D01*
X079907Y049844D01*
X079908Y049848D01*
X07991Y049851D01*
X07991Y049854D01*
X079911Y049857D01*
X079912Y049858D01*
X079913Y049859D01*
Y04986D01*
X079918Y049871D01*
X079924Y049881D01*
X079931Y049889D01*
X079934Y049892D01*
X079937Y049896D01*
X07994Y049898D01*
X079943Y049901D01*
X079945Y049903D01*
X079947Y049905D01*
X079949Y049906D01*
X07995Y049907D01*
X079951Y049908D01*
X079951Y049908D01*
X079957Y049911D01*
X079962Y049913D01*
X079973Y049917D01*
X079983Y04992D01*
X079994Y049922D01*
X079999Y049923D01*
X080003Y049924D01*
X080008Y049924D01*
X080011D01*
X080014Y049924D01*
X080018D01*
X080025Y049924D01*
D02*
G37*
G36*
X080441D02*
X080448Y049922D01*
X080455Y049921D01*
X080461Y049919D01*
X080466Y049917D01*
X08047Y049915D01*
X080471Y049915D01*
X080472Y049914D01*
X080473Y049914D01*
X080473D01*
X080479Y049909D01*
X080485Y049904D01*
X08049Y049899D01*
X080494Y049894D01*
X080497Y049889D01*
X080499Y049886D01*
X0805Y049884D01*
X080501Y049883D01*
X080501Y049883D01*
Y049882D01*
X080505Y049875D01*
X080507Y049867D01*
X080509Y049859D01*
X08051Y049853D01*
X080511Y049847D01*
Y049845D01*
X080512Y049842D01*
Y049841D01*
Y049839D01*
Y049839D01*
Y049838D01*
X080511Y049832D01*
X080511Y049826D01*
X080509Y049819D01*
X080508Y049814D01*
X080507Y049809D01*
X080505Y049804D01*
X080503Y049799D01*
X080501Y049795D01*
X080499Y049792D01*
X080497Y049789D01*
X080495Y049786D01*
X080493Y049783D01*
X080492Y049782D01*
X080491Y049781D01*
X08049Y04978D01*
X08049Y049779D01*
X080486Y049775D01*
X080481Y049772D01*
X080477Y049769D01*
X080472Y049766D01*
X080468Y049764D01*
X080464Y049762D01*
X080455Y049759D01*
X080452Y049758D01*
X080448Y049758D01*
X080445Y049757D01*
X080442Y049757D01*
X08044Y049756D01*
X080437D01*
X08043Y049757D01*
X080424Y049758D01*
X080418Y049759D01*
X080413Y04976D01*
X080409Y049762D01*
X080406Y049763D01*
X080404Y049764D01*
X080403Y049765D01*
X080403D01*
X080397Y049769D01*
X080392Y049773D01*
X080387Y049777D01*
X080384Y049781D01*
X08038Y049785D01*
X080378Y049787D01*
X080376Y04979D01*
X080376Y04979D01*
Y049783D01*
X080376Y049777D01*
X080377Y049771D01*
X080377Y049765D01*
X080378Y04976D01*
X080378Y049755D01*
X080379Y049751D01*
X08038Y049747D01*
X080381Y049743D01*
X080382Y04974D01*
X080382Y049738D01*
X080383Y049736D01*
X080384Y049734D01*
X080384Y049733D01*
X080384Y049732D01*
Y049732D01*
X080388Y049725D01*
X080392Y049718D01*
X080396Y049713D01*
X080399Y049709D01*
X080402Y049705D01*
X080405Y049703D01*
X080407Y049701D01*
X080408Y049701D01*
X080412Y049698D01*
X080416Y049696D01*
X080421Y049695D01*
X080425Y049694D01*
X080428Y049693D01*
X080431Y049692D01*
X080434D01*
X08044Y049693D01*
X080446Y049695D01*
X080452Y049697D01*
X080456Y049699D01*
X08046Y049702D01*
X080463Y049704D01*
X080464Y049705D01*
X080465Y049706D01*
X080467Y049709D01*
X08047Y049713D01*
X080472Y049718D01*
X080473Y049722D01*
X080475Y049726D01*
X080476Y049729D01*
X080476Y049731D01*
X080477Y049732D01*
Y049732D01*
X080508Y04973D01*
X080505Y049719D01*
X080502Y04971D01*
X080499Y049702D01*
X080495Y049696D01*
X080491Y049691D01*
X080489Y049688D01*
X080487Y049687D01*
X080486Y049686D01*
X080485Y049684D01*
X080485Y049684D01*
X080484Y049684D01*
X080481Y049681D01*
X080477Y049678D01*
X080469Y049674D01*
X080461Y049671D01*
X080453Y049669D01*
X080446Y049668D01*
X080443Y049667D01*
X080441D01*
X080438Y049667D01*
X080436D01*
X080428Y049667D01*
X080421Y049668D01*
X080415Y049669D01*
X080409Y049671D01*
X080403Y049674D01*
X080398Y049676D01*
X080393Y049679D01*
X080389Y049682D01*
X080385Y049684D01*
X080381Y049687D01*
X080378Y049689D01*
X080376Y049691D01*
X080374Y049694D01*
X080373Y049695D01*
X080372Y049696D01*
X080372Y049696D01*
X080367Y049703D01*
X080363Y04971D01*
X080359Y049718D01*
X080356Y049727D01*
X080354Y049735D01*
X080351Y049744D01*
X08035Y049753D01*
X080348Y049762D01*
X080347Y04977D01*
X080346Y049778D01*
X080346Y049785D01*
X080345Y04979D01*
Y049795D01*
X080345Y049799D01*
Y049801D01*
Y049802D01*
Y049802D01*
Y049802D01*
X080345Y049814D01*
X080346Y049825D01*
X080347Y049835D01*
X080349Y049845D01*
X080351Y049853D01*
X080353Y049861D01*
X080355Y049868D01*
X080357Y049874D01*
X080359Y049879D01*
X080362Y049884D01*
X080364Y049887D01*
X080366Y04989D01*
X080367Y049893D01*
X080368Y049894D01*
X080369Y049896D01*
X080369Y049896D01*
X080374Y049901D01*
X080379Y049905D01*
X080384Y049909D01*
X080389Y049912D01*
X080395Y049915D01*
X0804Y049917D01*
X080405Y049919D01*
X08041Y049921D01*
X080414Y049922D01*
X080419Y049923D01*
X080422Y049924D01*
X080426Y049924D01*
X080429D01*
X08043Y049924D01*
X080432D01*
X080441Y049924D01*
D02*
G37*
G36*
X080313Y04989D02*
X080189D01*
X080194Y049884D01*
X080196Y049881D01*
X080198Y049879D01*
X080199Y049877D01*
X080201Y049875D01*
X080202Y049874D01*
X080202Y049874D01*
X080204Y049872D01*
X080206Y04987D01*
X080211Y049865D01*
X080217Y04986D01*
X080223Y049854D01*
X080229Y04985D01*
X080232Y049847D01*
X080234Y049845D01*
X080236Y049844D01*
X080237Y049843D01*
X080238Y049842D01*
X080238Y049842D01*
X080244Y049837D01*
X08025Y049832D01*
X080255Y049827D01*
X08026Y049823D01*
X080264Y049819D01*
X080268Y049815D01*
X080271Y049812D01*
X080274Y049809D01*
X080277Y049806D01*
X080279Y049804D01*
X080281Y049802D01*
X080283Y049801D01*
X080285Y049798D01*
X080286Y049798D01*
X080291Y049791D01*
X080295Y049786D01*
X080299Y049781D01*
X080302Y049776D01*
X080304Y049772D01*
X080305Y049769D01*
X080306Y049767D01*
X080306Y049767D01*
X080309Y049761D01*
X08031Y049756D01*
X080311Y049751D01*
X080312Y049746D01*
X080313Y049742D01*
X080313Y049739D01*
Y049738D01*
Y049737D01*
X080313Y049731D01*
X080312Y049726D01*
X080311Y049721D01*
X08031Y049717D01*
X080306Y049708D01*
X080302Y049701D01*
X0803Y049698D01*
X080298Y049695D01*
X080297Y049693D01*
X080295Y049691D01*
X080293Y04969D01*
X080293Y049688D01*
X080292Y049688D01*
X080291Y049687D01*
X080287Y049684D01*
X080283Y04968D01*
X080278Y049678D01*
X080274Y049676D01*
X080264Y049672D01*
X080255Y049669D01*
X080251Y049669D01*
X080247Y049668D01*
X080243Y049668D01*
X08024Y049667D01*
X080238Y049667D01*
X080234D01*
X080227Y049667D01*
X080221Y049668D01*
X080215Y049669D01*
X08021Y04967D01*
X080205Y049671D01*
X0802Y049673D01*
X080196Y049675D01*
X080192Y049676D01*
X080188Y049678D01*
X080185Y04968D01*
X080183Y049682D01*
X08018Y049683D01*
X080179Y049684D01*
X080177Y049685D01*
X080177Y049686D01*
X080176Y049686D01*
X080173Y04969D01*
X080169Y049694D01*
X080166Y049698D01*
X080164Y049702D01*
X080159Y049711D01*
X080156Y04972D01*
X080155Y049724D01*
X080154Y049728D01*
X080153Y049731D01*
X080153Y049734D01*
X080152Y049736D01*
Y049738D01*
X080152Y049739D01*
Y04974D01*
X080184Y049743D01*
X080184Y049735D01*
X080186Y049727D01*
X080188Y049721D01*
X080191Y049716D01*
X080193Y049711D01*
X080195Y049708D01*
X080196Y049707D01*
X080197Y049706D01*
X080203Y049702D01*
X080208Y049698D01*
X080215Y049696D01*
X08022Y049694D01*
X080225Y049693D01*
X08023Y049693D01*
X080231Y049692D01*
X080233D01*
X080241Y049693D01*
X080248Y049694D01*
X080254Y049696D01*
X080259Y049699D01*
X080263Y049701D01*
X080265Y049703D01*
X080267Y049704D01*
X080268Y049705D01*
X080272Y04971D01*
X080275Y049715D01*
X080278Y04972D01*
X080279Y049726D01*
X080281Y04973D01*
X080281Y049733D01*
X080281Y049735D01*
Y049736D01*
Y049736D01*
X080281Y049743D01*
X080279Y04975D01*
X080276Y049756D01*
X080274Y049762D01*
X080271Y049766D01*
X080268Y04977D01*
X080268Y049772D01*
X080267Y049773D01*
X080266Y049773D01*
Y049774D01*
X080263Y049778D01*
X08026Y049782D01*
X080256Y049786D01*
X080251Y04979D01*
X080242Y049799D01*
X080233Y049808D01*
X080228Y049812D01*
X080224Y049815D01*
X08022Y049819D01*
X080217Y049822D01*
X080215Y049824D01*
X080212Y049826D01*
X080211Y049827D01*
X080211Y049827D01*
X080202Y049835D01*
X080193Y049842D01*
X080186Y049849D01*
X080181Y049854D01*
X080176Y049859D01*
X080173Y049862D01*
X080171Y049864D01*
X08017Y049865D01*
Y049865D01*
X080165Y049871D01*
X080161Y049877D01*
X080157Y049883D01*
X080155Y049888D01*
X080152Y049892D01*
X080151Y049896D01*
X08015Y049898D01*
X08015Y049898D01*
Y049898D01*
X080148Y049902D01*
X080148Y049906D01*
X080147Y04991D01*
X080147Y049913D01*
X080146Y049916D01*
Y049918D01*
Y04992D01*
Y04992D01*
X080313D01*
Y04989D01*
D02*
G37*
%LPC*%
G36*
X080434Y049899D02*
X080432D01*
X080427Y049898D01*
X080422Y049898D01*
X080418Y049896D01*
X080414Y049895D01*
X080411Y049894D01*
X080408Y049892D01*
X080407Y049892D01*
X080406Y049891D01*
X080402Y049888D01*
X080398Y049885D01*
X080395Y049881D01*
X080392Y049877D01*
X08039Y049874D01*
X080389Y049872D01*
X080388Y04987D01*
X080387Y049869D01*
X080385Y049864D01*
X080384Y049858D01*
X080382Y049853D01*
X080381Y049848D01*
X080381Y049844D01*
X080381Y049841D01*
Y049839D01*
Y049838D01*
X080381Y04983D01*
X080383Y049822D01*
X080385Y049815D01*
X080388Y04981D01*
X08039Y049805D01*
X080393Y049802D01*
X080394Y0498D01*
X080395Y049799D01*
X080401Y049794D01*
X080407Y04979D01*
X080413Y049787D01*
X080418Y049786D01*
X080424Y049785D01*
X080427Y049784D01*
X080429Y049784D01*
X080431D01*
X080438Y049785D01*
X080445Y049786D01*
X080451Y049789D01*
X080456Y049791D01*
X08046Y049794D01*
X080463Y049797D01*
X080465Y049798D01*
X080466Y049799D01*
X080471Y049805D01*
X080474Y049812D01*
X080477Y049819D01*
X080478Y049825D01*
X080479Y049831D01*
X08048Y049834D01*
Y049836D01*
X08048Y049838D01*
Y049839D01*
Y04984D01*
Y04984D01*
X080479Y04985D01*
X080478Y049858D01*
X080476Y049866D01*
X080473Y049872D01*
X08047Y049877D01*
X080468Y04988D01*
X080467Y049882D01*
X080466Y049883D01*
Y049883D01*
X080463Y049886D01*
X08046Y049888D01*
X080455Y049892D01*
X080449Y049895D01*
X080444Y049897D01*
X080439Y049898D01*
X080435Y049898D01*
X080434Y049899D01*
D02*
G37*
%LPD*%
D143*
X081671Y048331D02*
Y051087D01*
X078915Y048331D02*
X081671D01*
X078915D02*
Y051087D01*
X081671D01*
M02*
