G04*
G04 #@! TF.GenerationSoftware,Altium Limited,Altium Designer,21.0.8 (223)*
G04*
G04 Layer_Color=255*
%FSTAX24Y24*%
%MOIN*%
G70*
G04*
G04 #@! TF.SameCoordinates,D94166DE-144D-4B7D-845D-6ED18FE10B1D*
G04*
G04*
G04 #@! TF.FilePolarity,Positive*
G04*
G01*
G75*
%ADD27R,0.0394X0.0472*%
%ADD28R,0.0315X0.0354*%
%ADD34R,0.0600X0.1260*%
%ADD36R,0.0472X0.0984*%
%ADD43R,0.0354X0.0315*%
%ADD46R,0.0453X0.0236*%
%ADD48R,0.0236X0.0453*%
%ADD82R,0.0945X0.0394*%
%ADD94C,0.0433*%
%ADD95O,0.0750X0.0650*%
%ADD96R,0.0750X0.0650*%
%ADD97R,0.0787X0.0787*%
%ADD98C,0.0787*%
%ADD99C,0.0454*%
%ADD102R,0.0591X0.1181*%
%ADD103R,0.0295X0.0445*%
%ADD104R,0.0256X0.0445*%
%ADD105R,0.0394X0.0866*%
G04:AMPARAMS|DCode=106|XSize=70.9mil|YSize=31.5mil|CornerRadius=15.8mil|HoleSize=0mil|Usage=FLASHONLY|Rotation=90.000|XOffset=0mil|YOffset=0mil|HoleType=Round|Shape=RoundedRectangle|*
%AMROUNDEDRECTD106*
21,1,0.0709,0.0000,0,0,90.0*
21,1,0.0394,0.0315,0,0,90.0*
1,1,0.0315,0.0000,0.0197*
1,1,0.0315,0.0000,-0.0197*
1,1,0.0315,0.0000,-0.0197*
1,1,0.0315,0.0000,0.0197*
%
%ADD106ROUNDEDRECTD106*%
%ADD107O,0.0236X0.0709*%
%ADD108O,0.0709X0.0236*%
%ADD109R,0.0354X0.0098*%
%ADD110R,0.0098X0.0354*%
%ADD111C,0.0984*%
%ADD112R,0.0433X0.0236*%
%ADD113R,0.0551X0.0472*%
%ADD114R,0.0433X0.0748*%
%ADD115O,0.0866X0.0236*%
D27*
X063185Y051096D02*
D03*
X061884D02*
D03*
X077585Y033354D02*
D03*
X076284D02*
D03*
X066893Y035473D02*
D03*
X068194D02*
D03*
X08135Y031389D02*
D03*
X080049D02*
D03*
D28*
X073326Y042592D02*
D03*
X073877D02*
D03*
X073473Y043629D02*
D03*
X074025D02*
D03*
X073451Y039751D02*
D03*
X072899D02*
D03*
X071623Y038202D02*
D03*
X072174D02*
D03*
X075519Y034603D02*
D03*
X074968D02*
D03*
X074359D02*
D03*
X073808D02*
D03*
X070668Y036996D02*
D03*
X070117D02*
D03*
X075049Y036996D02*
D03*
X074498D02*
D03*
X075578Y036996D02*
D03*
X076129D02*
D03*
X07666Y036996D02*
D03*
X077212D02*
D03*
X078566Y052513D02*
D03*
X078015D02*
D03*
X064751Y053671D02*
D03*
X065302D02*
D03*
X064753Y055342D02*
D03*
X065304D02*
D03*
X073887Y042037D02*
D03*
X073336D02*
D03*
X073895Y04307D02*
D03*
X073344D02*
D03*
X081027Y043035D02*
D03*
X080475D02*
D03*
X067428Y045732D02*
D03*
X066877D02*
D03*
X064769Y047537D02*
D03*
X064218D02*
D03*
X076884Y04543D02*
D03*
X076333D02*
D03*
X077936Y045402D02*
D03*
X078487D02*
D03*
X071754Y04873D02*
D03*
X071203D02*
D03*
X064753Y047029D02*
D03*
X064202D02*
D03*
X064753Y048086D02*
D03*
X064202D02*
D03*
X06861Y048712D02*
D03*
X069161D02*
D03*
X07373Y048445D02*
D03*
X073178D02*
D03*
X07373Y047892D02*
D03*
X073178D02*
D03*
X071738Y05738D02*
D03*
X071187D02*
D03*
X076333Y045973D02*
D03*
X076884D02*
D03*
X080475Y043602D02*
D03*
X081027D02*
D03*
X072357Y036996D02*
D03*
X072909D02*
D03*
X070508Y034603D02*
D03*
X071059D02*
D03*
X071235Y036996D02*
D03*
X071786D02*
D03*
X072263Y034602D02*
D03*
X071712D02*
D03*
X073979Y036996D02*
D03*
X073428D02*
D03*
X078464Y048732D02*
D03*
X079015D02*
D03*
X079243Y036996D02*
D03*
X079794D02*
D03*
X078409Y036996D02*
D03*
X077858D02*
D03*
X081033Y039035D02*
D03*
X081584D02*
D03*
X081584Y038462D02*
D03*
X081033D02*
D03*
X08157Y039998D02*
D03*
X081019D02*
D03*
X068658Y036803D02*
D03*
X069209D02*
D03*
X071187Y05797D02*
D03*
X071738D02*
D03*
X072366D02*
D03*
X072917D02*
D03*
X073532Y057956D02*
D03*
X074083D02*
D03*
X06861Y047474D02*
D03*
X069161D02*
D03*
X06861Y048142D02*
D03*
X069161D02*
D03*
X067445Y0465D02*
D03*
X067996D02*
D03*
X080818Y034779D02*
D03*
X081369D02*
D03*
X081373Y035448D02*
D03*
X080822D02*
D03*
D34*
X067939Y031993D02*
D03*
X066849D02*
D03*
X065758D02*
D03*
X064668D02*
D03*
D36*
X074874Y031363D02*
D03*
X073693D02*
D03*
X078764D02*
D03*
X077583D02*
D03*
D43*
X076283Y034033D02*
D03*
Y034584D02*
D03*
X078548Y052133D02*
D03*
Y051582D02*
D03*
X078099Y05121D02*
D03*
Y050659D02*
D03*
X064751Y054789D02*
D03*
Y054238D02*
D03*
X081285Y047031D02*
D03*
Y047582D02*
D03*
X063006Y049884D02*
D03*
Y050435D02*
D03*
X062439Y050435D02*
D03*
Y049884D02*
D03*
X063558Y050436D02*
D03*
Y049885D02*
D03*
X061873Y049889D02*
D03*
Y05044D02*
D03*
X078897Y033962D02*
D03*
Y034513D02*
D03*
X076731Y041118D02*
D03*
Y040566D02*
D03*
X07233Y040663D02*
D03*
Y041214D02*
D03*
X071059Y040663D02*
D03*
Y041214D02*
D03*
X068895Y041466D02*
D03*
Y042017D02*
D03*
X071694Y040663D02*
D03*
Y041214D02*
D03*
X068881Y046141D02*
D03*
Y04559D02*
D03*
X078475Y048082D02*
D03*
Y047531D02*
D03*
X078115Y033369D02*
D03*
Y032818D02*
D03*
Y034514D02*
D03*
Y033962D02*
D03*
X077343Y034033D02*
D03*
Y034584D02*
D03*
X07682Y034033D02*
D03*
Y034584D02*
D03*
X068103Y036689D02*
D03*
Y036138D02*
D03*
X070684Y049889D02*
D03*
Y049337D02*
D03*
X070143Y051168D02*
D03*
Y051719D02*
D03*
X070094Y049889D02*
D03*
Y049337D02*
D03*
X070573Y057989D02*
D03*
Y057438D02*
D03*
D46*
X065766Y046477D02*
D03*
Y045729D02*
D03*
X06488Y046103D02*
D03*
D48*
X074043Y036286D02*
D03*
X073669Y0354D02*
D03*
X074417D02*
D03*
X075149Y036286D02*
D03*
X075897D02*
D03*
X075523Y0354D02*
D03*
X068989Y035268D02*
D03*
X069363Y036153D02*
D03*
X068615D02*
D03*
X071077Y035357D02*
D03*
X070329D02*
D03*
X070703Y036243D02*
D03*
X071909Y036286D02*
D03*
X072657D02*
D03*
X072283Y0354D02*
D03*
X077298Y035415D02*
D03*
X07655D02*
D03*
X076924Y036301D02*
D03*
X078341Y036301D02*
D03*
X077967Y035415D02*
D03*
X078715D02*
D03*
X079864Y036301D02*
D03*
X07949Y035415D02*
D03*
X080238D02*
D03*
D82*
X079388Y049709D02*
D03*
X081199D02*
D03*
D94*
X064751Y056692D02*
D03*
D95*
X060943Y045878D02*
D03*
X075062Y060871D02*
D03*
Y059891D02*
D03*
Y061881D02*
D03*
D96*
X060943Y046888D02*
D03*
X075062Y058881D02*
D03*
D97*
X067273Y034513D02*
D03*
D98*
Y036513D02*
D03*
D99*
X061157Y03081D02*
D03*
D102*
X079499Y052877D02*
D03*
D103*
X069968Y059904D02*
D03*
X070468D02*
D03*
X070968D02*
D03*
X071468D02*
D03*
X071968D02*
D03*
X069468D02*
D03*
D104*
X072342D02*
D03*
D105*
X068806Y060489D02*
D03*
X073924D02*
D03*
Y065213D02*
D03*
X068806D02*
D03*
D106*
X067783Y052696D02*
D03*
X067349D02*
D03*
X066916D02*
D03*
X066483D02*
D03*
X06605D02*
D03*
X065617D02*
D03*
X065184D02*
D03*
X064751D02*
D03*
X064318D02*
D03*
Y048877D02*
D03*
X064751D02*
D03*
X065184D02*
D03*
X065617D02*
D03*
X06605D02*
D03*
X066483D02*
D03*
X066916D02*
D03*
X067349D02*
D03*
X067783D02*
D03*
D107*
X072471Y049649D02*
D03*
X072904D02*
D03*
X073337D02*
D03*
X07377D02*
D03*
X074203D02*
D03*
X074637D02*
D03*
X07507D02*
D03*
X075503D02*
D03*
X075936D02*
D03*
Y056657D02*
D03*
X075503D02*
D03*
X07507D02*
D03*
X074637D02*
D03*
X074203D02*
D03*
X07377D02*
D03*
X073337D02*
D03*
X072904D02*
D03*
X072471D02*
D03*
D108*
X077333Y050771D02*
D03*
Y051205D02*
D03*
Y051638D02*
D03*
Y052071D02*
D03*
Y052504D02*
D03*
Y052937D02*
D03*
Y05337D02*
D03*
Y053803D02*
D03*
Y054236D02*
D03*
Y054669D02*
D03*
Y055102D02*
D03*
Y055535D02*
D03*
X071074D02*
D03*
Y055102D02*
D03*
Y054669D02*
D03*
Y054236D02*
D03*
Y053803D02*
D03*
Y05337D02*
D03*
Y052937D02*
D03*
Y052504D02*
D03*
Y052071D02*
D03*
Y051638D02*
D03*
Y051205D02*
D03*
Y050771D02*
D03*
D109*
X073268Y046546D02*
D03*
X073268Y046389D02*
D03*
X073268Y046231D02*
D03*
Y046074D02*
D03*
Y045916D02*
D03*
Y045759D02*
D03*
Y045601D02*
D03*
Y045444D02*
D03*
Y045286D02*
D03*
X073268Y045129D02*
D03*
X073268Y044971D02*
D03*
Y044814D02*
D03*
Y044656D02*
D03*
X073268Y044499D02*
D03*
X073268Y044341D02*
D03*
X073268Y044184D02*
D03*
X069882Y046546D02*
D03*
X069882Y046389D02*
D03*
X069882Y046231D02*
D03*
X069882Y046074D02*
D03*
X069882Y045916D02*
D03*
X069882Y045759D02*
D03*
X069882Y045601D02*
D03*
X069882Y045444D02*
D03*
X069882Y045286D02*
D03*
Y045129D02*
D03*
Y044971D02*
D03*
Y044814D02*
D03*
Y044656D02*
D03*
Y044499D02*
D03*
X069882Y044341D02*
D03*
Y044184D02*
D03*
D110*
X072756Y043672D02*
D03*
X072598D02*
D03*
X072441Y043672D02*
D03*
X072283Y043672D02*
D03*
X072126D02*
D03*
X071968D02*
D03*
X071811D02*
D03*
X071654D02*
D03*
X071496D02*
D03*
X071339Y043672D02*
D03*
X071181Y043672D02*
D03*
X071024D02*
D03*
X070866D02*
D03*
X070709D02*
D03*
X070551Y043672D02*
D03*
X070394Y043672D02*
D03*
X072756Y047058D02*
D03*
X072598Y047058D02*
D03*
X072441Y047058D02*
D03*
X072283Y047058D02*
D03*
X072126Y047058D02*
D03*
X071968D02*
D03*
X071811D02*
D03*
X071654D02*
D03*
X071496Y047058D02*
D03*
X071339Y047058D02*
D03*
X071181D02*
D03*
X071024D02*
D03*
X070866D02*
D03*
X070709D02*
D03*
X070551D02*
D03*
X070394Y047058D02*
D03*
D111*
X064751Y056692D02*
D03*
D112*
X080474Y048225D02*
D03*
Y047851D02*
D03*
Y047477D02*
D03*
X079372D02*
D03*
Y048225D02*
D03*
D113*
X070418Y042076D02*
D03*
Y041407D02*
D03*
X069552Y042076D02*
D03*
Y041407D02*
D03*
D114*
X071428Y042009D02*
D03*
X072412D02*
D03*
D115*
X079381Y044612D02*
D03*
Y044112D02*
D03*
Y043612D02*
D03*
Y043112D02*
D03*
X076468Y044612D02*
D03*
Y044112D02*
D03*
Y043612D02*
D03*
Y043112D02*
D03*
M02*
