G04*
G04 #@! TF.GenerationSoftware,Altium Limited,Altium Designer,21.0.8 (223)*
G04*
G04 Layer_Color=2752767*
%FSTAX24Y24*%
%MOIN*%
G70*
G04*
G04 #@! TF.SameCoordinates,54288C87-6C50-4DCC-9232-1D79D91570B4*
G04*
G04*
G04 #@! TF.FilePolarity,Positive*
G04*
G01*
G75*
%ADD60C,0.0020*%
%ADD61C,0.0027*%
D60*
X071314Y050232D02*
Y050392D01*
X071474D01*
Y050232D01*
X071314D01*
X073314D02*
Y050392D01*
X073474D01*
Y050232D01*
X073314D01*
X075314D02*
Y050392D01*
X075474D01*
Y050232D01*
X075314D01*
X067314D02*
Y050392D01*
X067474D01*
Y050232D01*
X067314D01*
X065314D02*
Y050392D01*
X065474D01*
Y050232D01*
X065314D01*
X069314D02*
Y050392D01*
X069474D01*
Y050232D01*
X069314D01*
X076962Y050849D02*
X076882Y051009D01*
X077042D01*
X076962Y050849D01*
Y051859D02*
X076882Y052019D01*
X077042D01*
X076962Y051859D01*
X063697Y042311D02*
X063737Y042351D01*
X063777D01*
X063737Y042391D01*
X063777Y042431D01*
X063737D01*
X063697Y042471D01*
X063657Y042431D01*
X063617D01*
X063657Y042391D01*
X063617Y042351D01*
X063657D01*
X063697Y042311D01*
Y043447D02*
X063737Y043487D01*
X063777D01*
X063737Y043527D01*
X063777Y043567D01*
X063737D01*
X063697Y043607D01*
X063657Y043567D01*
X063617D01*
X063657Y043527D01*
X063617Y043487D01*
X063657D01*
X063697Y043447D01*
Y044582D02*
X063737Y044622D01*
X063777D01*
X063737Y044662D01*
X063777Y044702D01*
X063737D01*
X063697Y044742D01*
X063657Y044702D01*
X063617D01*
X063657Y044662D01*
X063617Y044622D01*
X063657D01*
X063697Y044582D01*
Y045718D02*
X063737Y045758D01*
X063777D01*
X063737Y045798D01*
X063777Y045838D01*
X063737D01*
X063697Y045878D01*
X063657Y045838D01*
X063617D01*
X063657Y045798D01*
X063617Y045758D01*
X063657D01*
X063697Y045718D01*
Y046854D02*
X063737Y046894D01*
X063777D01*
X063737Y046934D01*
X063777Y046974D01*
X063737D01*
X063697Y047014D01*
X063657Y046974D01*
X063617D01*
X063657Y046934D01*
X063617Y046894D01*
X063657D01*
X063697Y046854D01*
X064701Y048045D02*
X064741Y048085D01*
X064781D01*
X064741Y048125D01*
X064781Y048165D01*
X064741D01*
X064701Y048205D01*
X064661Y048165D01*
X064621D01*
X064661Y048125D01*
X064621Y048085D01*
X064661D01*
X064701Y048045D01*
Y048643D02*
X064741Y048684D01*
X064781D01*
X064741Y048724D01*
X064781Y048763D01*
X064741D01*
X064701Y048804D01*
X064661Y048763D01*
X064621D01*
X064661Y048724D01*
X064621Y048684D01*
X064661D01*
X064701Y048643D01*
Y049242D02*
X064741Y049282D01*
X064781D01*
X064741Y049322D01*
X064781Y049362D01*
X064741D01*
X064701Y049402D01*
X064661Y049362D01*
X064621D01*
X064661Y049322D01*
X064621Y049282D01*
X064661D01*
X064701Y049242D01*
X075996Y052167D02*
X076036Y052207D01*
X076076D01*
X076036Y052247D01*
X076076Y052287D01*
X076036D01*
X075996Y052327D01*
X075956Y052287D01*
X075916D01*
X075956Y052247D01*
X075916Y052207D01*
X075956D01*
X075996Y052167D01*
X07477D02*
X07481Y052207D01*
X07485D01*
X07481Y052247D01*
X07485Y052287D01*
X07481D01*
X07477Y052327D01*
X07473Y052287D01*
X07469D01*
X07473Y052247D01*
X07469Y052207D01*
X07473D01*
X07477Y052167D01*
X073543D02*
X073583Y052207D01*
X073623D01*
X073583Y052247D01*
X073623Y052287D01*
X073583D01*
X073543Y052327D01*
X073503Y052287D01*
X073463D01*
X073503Y052247D01*
X073463Y052207D01*
X073503D01*
X073543Y052167D01*
X072317D02*
X072357Y052207D01*
X072397D01*
X072357Y052247D01*
X072397Y052287D01*
X072357D01*
X072317Y052327D01*
X072277Y052287D01*
X072237D01*
X072277Y052247D01*
X072237Y052207D01*
X072277D01*
X072317Y052167D01*
X063732D02*
X063772Y052207D01*
X063812D01*
X063772Y052247D01*
X063812Y052287D01*
X063772D01*
X063732Y052327D01*
X063692Y052287D01*
X063652D01*
X063692Y052247D01*
X063652Y052207D01*
X063692D01*
X063732Y052167D01*
X064959D02*
X064999Y052207D01*
X065039D01*
X064999Y052247D01*
X065039Y052287D01*
X064999D01*
X064959Y052327D01*
X064919Y052287D01*
X064879D01*
X064919Y052247D01*
X064879Y052207D01*
X064919D01*
X064959Y052167D01*
X066185D02*
X066225Y052207D01*
X066265D01*
X066225Y052247D01*
X066265Y052287D01*
X066225D01*
X066185Y052327D01*
X066145Y052287D01*
X066105D01*
X066145Y052247D01*
X066105Y052207D01*
X066145D01*
X066185Y052167D01*
X067411D02*
X067451Y052207D01*
X067491D01*
X067451Y052247D01*
X067491Y052287D01*
X067451D01*
X067411Y052327D01*
X067371Y052287D01*
X067331D01*
X067371Y052247D01*
X067331Y052207D01*
X067371D01*
X067411Y052167D01*
X068638D02*
X068678Y052207D01*
X068718D01*
X068678Y052247D01*
X068718Y052287D01*
X068678D01*
X068638Y052327D01*
X068598Y052287D01*
X068558D01*
X068598Y052247D01*
X068558Y052207D01*
X068598D01*
X068638Y052167D01*
X069864D02*
X069904Y052207D01*
X069944D01*
X069904Y052247D01*
X069944Y052287D01*
X069904D01*
X069864Y052327D01*
X069824Y052287D01*
X069784D01*
X069824Y052247D01*
X069784Y052207D01*
X069824D01*
X069864Y052167D01*
X07109D02*
X07113Y052207D01*
X07117D01*
X07113Y052247D01*
X07117Y052287D01*
X07113D01*
X07109Y052327D01*
X07105Y052287D01*
X07101D01*
X07105Y052247D01*
X07101Y052207D01*
X07105D01*
X07109Y052167D01*
X071685Y04162D02*
X071725Y04166D01*
X071765D01*
X071725Y0417D01*
X071765Y04174D01*
X071725D01*
X071685Y04178D01*
X071645Y04174D01*
X071605D01*
X071645Y0417D01*
X071605Y04166D01*
X071645D01*
X071685Y04162D01*
X070459D02*
X070499Y04166D01*
X070539D01*
X070499Y0417D01*
X070539Y04174D01*
X070499D01*
X070459Y04178D01*
X070419Y04174D01*
X070379D01*
X070419Y0417D01*
X070379Y04166D01*
X070419D01*
X070459Y04162D01*
X07537Y042092D02*
X07541Y042132D01*
X07545D01*
X07541Y042172D01*
X07545Y042212D01*
X07541D01*
X07537Y042252D01*
X07533Y042212D01*
X07529D01*
X07533Y042172D01*
X07529Y042132D01*
X07533D01*
X07537Y042092D01*
X069232Y04162D02*
X069272Y04166D01*
X069312D01*
X069272Y0417D01*
X069312Y04174D01*
X069272D01*
X069232Y04178D01*
X069192Y04174D01*
X069152D01*
X069192Y0417D01*
X069152Y04166D01*
X069192D01*
X069232Y04162D01*
X068006D02*
X068046Y04166D01*
X068086D01*
X068046Y0417D01*
X068086Y04174D01*
X068046D01*
X068006Y04178D01*
X067966Y04174D01*
X067926D01*
X067966Y0417D01*
X067926Y04166D01*
X067966D01*
X068006Y04162D01*
X066779D02*
X066819Y04166D01*
X066859D01*
X066819Y0417D01*
X066859Y04174D01*
X066819D01*
X066779Y04178D01*
X066739Y04174D01*
X066699D01*
X066739Y0417D01*
X066699Y04166D01*
X066739D01*
X066779Y04162D01*
X065553D02*
X065593Y04166D01*
X065633D01*
X065593Y0417D01*
X065633Y04174D01*
X065593D01*
X065553Y04178D01*
X065513Y04174D01*
X065473D01*
X065513Y0417D01*
X065473Y04166D01*
X065513D01*
X065553Y04162D01*
X064327D02*
X064367Y04166D01*
X064407D01*
X064367Y0417D01*
X064407Y04174D01*
X064367D01*
X064327Y04178D01*
X064287Y04174D01*
X064247D01*
X064287Y0417D01*
X064247Y04166D01*
X064287D01*
X064327Y04162D01*
X072911D02*
X072951Y04166D01*
X072991D01*
X072951Y0417D01*
X072991Y04174D01*
X072951D01*
X072911Y04178D01*
X072871Y04174D01*
X072831D01*
X072871Y0417D01*
X072831Y04166D01*
X072871D01*
X072911Y04162D01*
X074138D02*
X074178Y04166D01*
X074218D01*
X074178Y0417D01*
X074218Y04174D01*
X074178D01*
X074138Y04178D01*
X074098Y04174D01*
X074058D01*
X074098Y0417D01*
X074058Y04166D01*
X074098D01*
X074138Y04162D01*
X075364D02*
X075404Y04166D01*
X075444D01*
X075404Y0417D01*
X075444Y04174D01*
X075404D01*
X075364Y04178D01*
X075324Y04174D01*
X075284D01*
X075324Y0417D01*
X075284Y04166D01*
X075324D01*
X075364Y04162D01*
X07659D02*
X07663Y04166D01*
X07667D01*
X07663Y0417D01*
X07667Y04174D01*
X07663D01*
X07659Y04178D01*
X07655Y04174D01*
X07651D01*
X07655Y0417D01*
X07651Y04166D01*
X07655D01*
X07659Y04162D01*
X068744Y042911D02*
X068784Y042951D01*
X068824D01*
X068784Y042991D01*
X068824Y043031D01*
X068784D01*
X068744Y043071D01*
X068704Y043031D01*
X068664D01*
X068704Y042991D01*
X068664Y042951D01*
X068704D01*
X068744Y042911D01*
X069421D02*
X069461Y042951D01*
X069501D01*
X069461Y042991D01*
X069501Y043031D01*
X069461D01*
X069421Y043071D01*
X069381Y043031D01*
X069341D01*
X069381Y042991D01*
X069341Y042951D01*
X069381D01*
X069421Y042911D01*
X071272Y042825D02*
X071312Y042865D01*
X071352D01*
X071312Y042905D01*
X071352Y042945D01*
X071312D01*
X071272Y042985D01*
X071232Y042945D01*
X071192D01*
X071232Y042905D01*
X071192Y042865D01*
X071232D01*
X071272Y042825D01*
X071543Y04321D02*
X071583Y04325D01*
X071623D01*
X071583Y04329D01*
X071623Y04333D01*
X071583D01*
X071543Y04337D01*
X071503Y04333D01*
X071463D01*
X071503Y04329D01*
X071463Y04325D01*
X071503D01*
X071543Y04321D01*
X069362Y043982D02*
X069402Y044022D01*
X069442D01*
X069402Y044062D01*
X069442Y044102D01*
X069402D01*
X069362Y044142D01*
X069322Y044102D01*
X069282D01*
X069322Y044062D01*
X069282Y044022D01*
X069322D01*
X069362Y043982D01*
Y044338D02*
X069402Y044378D01*
X069442D01*
X069402Y044418D01*
X069442Y044458D01*
X069402D01*
X069362Y044498D01*
X069322Y044458D01*
X069282D01*
X069322Y044418D01*
X069282Y044378D01*
X069322D01*
X069362Y044338D01*
Y044695D02*
X069402Y044735D01*
X069442D01*
X069402Y044775D01*
X069442Y044815D01*
X069402D01*
X069362Y044855D01*
X069322Y044815D01*
X069282D01*
X069322Y044775D01*
X069282Y044735D01*
X069322D01*
X069362Y044695D01*
X071216Y045742D02*
X071256Y045782D01*
X071296D01*
X071256Y045822D01*
X071296Y045862D01*
X071256D01*
X071216Y045902D01*
X071176Y045862D01*
X071136D01*
X071176Y045822D01*
X071136Y045782D01*
X071176D01*
X071216Y045742D01*
X070563D02*
X070603Y045782D01*
X070643D01*
X070603Y045822D01*
X070643Y045862D01*
X070603D01*
X070563Y045902D01*
X070523Y045862D01*
X070483D01*
X070523Y045822D01*
X070483Y045782D01*
X070523D01*
X070563Y045742D01*
X069909D02*
X069949Y045782D01*
X069989D01*
X069949Y045822D01*
X069989Y045862D01*
X069949D01*
X069909Y045902D01*
X069869Y045862D01*
X069829D01*
X069869Y045822D01*
X069829Y045782D01*
X069869D01*
X069909Y045742D01*
X072939Y046726D02*
X072979Y046766D01*
X073019D01*
X072979Y046806D01*
X073019Y046846D01*
X072979D01*
X072939Y046886D01*
X072899Y046846D01*
X072859D01*
X072899Y046806D01*
X072859Y046766D01*
X072899D01*
X072939Y046726D01*
X073424Y047201D02*
X073464Y047241D01*
X073504D01*
X073464Y047281D01*
X073504Y047321D01*
X073464D01*
X073424Y047361D01*
X073384Y047321D01*
X073344D01*
X073384Y047281D01*
X073344Y047241D01*
X073384D01*
X073424Y047201D01*
X073563Y046726D02*
X073603Y046766D01*
X073643D01*
X073603Y046806D01*
X073643Y046846D01*
X073603D01*
X073563Y046886D01*
X073523Y046846D01*
X073483D01*
X073523Y046806D01*
X073483Y046766D01*
X073523D01*
X073563Y046726D01*
X074076Y047201D02*
X074116Y047241D01*
X074156D01*
X074116Y047281D01*
X074156Y047321D01*
X074116D01*
X074076Y047361D01*
X074036Y047321D01*
X073996D01*
X074036Y047281D01*
X073996Y047241D01*
X074036D01*
X074076Y047201D01*
X074186Y046726D02*
X074226Y046766D01*
X074266D01*
X074226Y046806D01*
X074266Y046846D01*
X074226D01*
X074186Y046886D01*
X074146Y046846D01*
X074106D01*
X074146Y046806D01*
X074106Y046766D01*
X074146D01*
X074186Y046726D01*
X074728Y04682D02*
X074768Y04686D01*
X074808D01*
X074768Y0469D01*
X074808Y04694D01*
X074768D01*
X074728Y04698D01*
X074688Y04694D01*
X074648D01*
X074688Y0469D01*
X074648Y04686D01*
X074688D01*
X074728Y04682D01*
X074728Y047201D02*
X074768Y047241D01*
X074808D01*
X074768Y047281D01*
X074808Y047321D01*
X074768D01*
X074728Y047361D01*
X074688Y047321D01*
X074648D01*
X074688Y047281D01*
X074648Y047241D01*
X074688D01*
X074728Y047201D01*
X072772D02*
X072812Y047241D01*
X072852D01*
X072812Y047281D01*
X072852Y047321D01*
X072812D01*
X072772Y047361D01*
X072732Y047321D01*
X072692D01*
X072732Y047281D01*
X072692Y047241D01*
X072732D01*
X072772Y047201D01*
X074728Y046439D02*
X074768Y046479D01*
X074808D01*
X074768Y046519D01*
X074808Y046559D01*
X074768D01*
X074728Y046599D01*
X074688Y046559D01*
X074648D01*
X074688Y046519D01*
X074648Y046479D01*
X074688D01*
X074728Y046439D01*
Y046058D02*
X074768Y046098D01*
X074808D01*
X074768Y046138D01*
X074808Y046178D01*
X074768D01*
X074728Y046218D01*
X074688Y046178D01*
X074648D01*
X074688Y046138D01*
X074648Y046098D01*
X074688D01*
X074728Y046058D01*
Y045295D02*
X074768Y045335D01*
X074808D01*
X074768Y045375D01*
X074808Y045415D01*
X074768D01*
X074728Y045455D01*
X074688Y045415D01*
X074648D01*
X074688Y045375D01*
X074648Y045335D01*
X074688D01*
X074728Y045295D01*
Y045677D02*
X074768Y045717D01*
X074808D01*
X074768Y045757D01*
X074808Y045797D01*
X074768D01*
X074728Y045837D01*
X074688Y045797D01*
X074648D01*
X074688Y045757D01*
X074648Y045717D01*
X074688D01*
X074728Y045677D01*
X073512Y044951D02*
X073552Y044991D01*
X073592D01*
X073552Y045031D01*
X073592Y045071D01*
X073552D01*
X073512Y045111D01*
X073472Y045071D01*
X073432D01*
X073472Y045031D01*
X073432Y044991D01*
X073472D01*
X073512Y044951D01*
X073508Y04521D02*
X073548Y04525D01*
X073588D01*
X073548Y04529D01*
X073588Y04533D01*
X073548D01*
X073508Y04537D01*
X073468Y04533D01*
X073428D01*
X073468Y04529D01*
X073428Y04525D01*
X073468D01*
X073508Y04521D01*
X077051Y042128D02*
X077091Y042168D01*
X077131D01*
X077091Y042208D01*
X077131Y042248D01*
X077091D01*
X077051Y042288D01*
X077011Y042248D01*
X076971D01*
X077011Y042208D01*
X076971Y042168D01*
X077011D01*
X077051Y042128D01*
Y042742D02*
X077091Y042782D01*
X077131D01*
X077091Y042822D01*
X077131Y042862D01*
X077091D01*
X077051Y042902D01*
X077011Y042862D01*
X076971D01*
X077011Y042822D01*
X076971Y042782D01*
X077011D01*
X077051Y042742D01*
Y043356D02*
X077091Y043396D01*
X077131D01*
X077091Y043436D01*
X077131Y043476D01*
X077091D01*
X077051Y043516D01*
X077011Y043476D01*
X076971D01*
X077011Y043436D01*
X076971Y043396D01*
X077011D01*
X077051Y043356D01*
Y04397D02*
X077091Y04401D01*
X077131D01*
X077091Y04405D01*
X077131Y04409D01*
X077091D01*
X077051Y04413D01*
X077011Y04409D01*
X076971D01*
X077011Y04405D01*
X076971Y04401D01*
X077011D01*
X077051Y04397D01*
X075878Y044604D02*
X075918Y044644D01*
X075958D01*
X075918Y044684D01*
X075958Y044724D01*
X075918D01*
X075878Y044764D01*
X075838Y044724D01*
X075798D01*
X075838Y044684D01*
X075798Y044644D01*
X075838D01*
X075878Y044604D01*
X07711Y049927D02*
X07715Y049967D01*
X07719D01*
X07715Y050007D01*
X07719Y050047D01*
X07715D01*
X07711Y050087D01*
X07707Y050047D01*
X07703D01*
X07707Y050007D01*
X07703Y049967D01*
X07707D01*
X07711Y049927D01*
X076421Y049951D02*
X076461Y049991D01*
X076501D01*
X076461Y050031D01*
X076501Y050071D01*
X076461D01*
X076421Y050111D01*
X076381Y050071D01*
X076341D01*
X076381Y050031D01*
X076341Y049991D01*
X076381D01*
X076421Y049951D01*
X07252Y044502D02*
X07256Y044542D01*
X0726D01*
X07256Y044582D01*
X0726Y044622D01*
X07256D01*
X07252Y044662D01*
X07248Y044622D01*
X07244D01*
X07248Y044582D01*
X07244Y044542D01*
X07248D01*
X07252Y044502D01*
X070622Y046766D02*
X070662Y046806D01*
X070702D01*
X070662Y046846D01*
X070702Y046886D01*
X070662D01*
X070622Y046926D01*
X070582Y046886D01*
X070542D01*
X070582Y046846D01*
X070542Y046806D01*
X070582D01*
X070622Y046766D01*
X068799Y046773D02*
X068839Y046813D01*
X068879D01*
X068839Y046853D01*
X068879Y046893D01*
X068839D01*
X068799Y046933D01*
X068759Y046893D01*
X068719D01*
X068759Y046853D01*
X068719Y046813D01*
X068759D01*
X068799Y046773D01*
X063852Y04971D02*
X063892Y04975D01*
X063932D01*
X063892Y04979D01*
X063932Y04983D01*
X063892D01*
X063852Y04987D01*
X063812Y04983D01*
X063772D01*
X063812Y04979D01*
X063772Y04975D01*
X063812D01*
X063852Y04971D01*
X068468Y044346D02*
X068508Y044386D01*
X068548D01*
X068508Y044426D01*
X068548Y044466D01*
X068508D01*
X068468Y044506D01*
X068428Y044466D01*
X068388D01*
X068428Y044426D01*
X068388Y044386D01*
X068428D01*
X068468Y044346D01*
X071037Y044996D02*
X071077Y045036D01*
X071117D01*
X071077Y045076D01*
X071117Y045116D01*
X071077D01*
X071037Y045156D01*
X070997Y045116D01*
X070957D01*
X070997Y045076D01*
X070957Y045036D01*
X070997D01*
X071037Y044996D01*
X070791Y043077D02*
X070831Y043117D01*
X070871D01*
X070831Y043157D01*
X070871Y043197D01*
X070831D01*
X070791Y043237D01*
X070751Y043197D01*
X070711D01*
X070751Y043157D01*
X070711Y043117D01*
X070751D01*
X070791Y043077D01*
D61*
X066511Y045164D02*
G03*
X066511Y045164I-00008J0D01*
G01*
Y044377D02*
G03*
X066511Y044377I-00008J0D01*
G01*
Y04359D02*
G03*
X066511Y04359I-00008J0D01*
G01*
Y042802D02*
G03*
X066511Y042802I-00008J0D01*
G01*
M02*
