M48
;Layer_Color=9474304
;FILE_FORMAT=2:4
INCH,LZ
;TYPE=PLATED
T1F00S00C0.0118
T2F00S00C0.0335
T3F00S00C0.0360
T4F00S00C0.0500
%
T01
X064327Y0417
X065553
X066779
X068006
X069232
X070459
X071685
X072911
X074138
X075364
X07537Y042172
X07659Y0417
X077051Y042208
Y042822
Y043436
Y04405
X075878Y044684
X074728Y045375
Y045757
Y046138
Y046519
X074186Y046806
X073563
X072939
X073508Y04529
X073512Y045031
X07252Y044582
X071037Y045076
X071216Y045822
X070563
X069909
X069362Y044775
Y044418
Y044062
X069421Y042991
X068744
X068468Y044426
X068799Y046853
X070622Y046846
X070791Y043157
X071272Y042905
X071543Y04329
X063697Y043527
Y042391
Y044662
Y045798
Y046934
X064701Y048125
Y048724
Y049322
X063852Y04979
X063732Y052247
X064959
X066185
X067411
X068638
X069864
X07109
X072317
X073543
X07477
X075996
X076421Y050031
X07711Y050007
X074728Y047281
X074728Y0469
X074076Y047281
X073424
X072772
T02
X066431Y042802
Y04359
Y044377
Y045164
T03
X076962Y050929
Y051939
T04
X065394Y050312
X067394
X069394
X071394
X073394
X075394
M30
