G04*
G04 #@! TF.GenerationSoftware,Altium Limited,Altium Designer,21.0.8 (223)*
G04*
G04 Layer_Color=32768*
%FSTAX24Y24*%
%MOIN*%
G70*
G04*
G04 #@! TF.SameCoordinates,54288C87-6C50-4DCC-9232-1D79D91570B4*
G04*
G04*
G04 #@! TF.FilePolarity,Positive*
G04*
G01*
G75*
%ADD13C,0.0039*%
%ADD54C,0.0060*%
G36*
X075546Y043049D02*
X075576D01*
Y044189D01*
X075546D01*
Y044289D01*
X074206D01*
Y044189D01*
X074176D01*
Y043049D01*
X074206D01*
Y042949D01*
X075546D01*
Y043049D01*
D02*
G37*
D13*
X076252Y047692D02*
X077432D01*
X076252Y045992D02*
X077432D01*
X076252D02*
Y047692D01*
X077432Y045992D02*
Y047692D01*
X076646Y046842D02*
X077039D01*
X076842Y046645D02*
Y047038D01*
X064122Y048552D02*
Y049572D01*
X063622Y048552D02*
Y049572D01*
Y048552D02*
X064122D01*
X063622Y049572D02*
X064122D01*
X063685Y049062D02*
X064059D01*
X063872Y048875D02*
Y049249D01*
X067496Y046056D02*
X068516D01*
X067496Y046556D02*
X068516D01*
X067496Y046056D02*
Y046556D01*
X068516Y046056D02*
Y046556D01*
X068006Y046119D02*
Y046493D01*
X067819Y046306D02*
X068193D01*
X067951Y046633D02*
Y047653D01*
X067451Y046633D02*
Y047653D01*
Y046633D02*
X067951D01*
X067451Y047653D02*
X067951D01*
X067514Y047143D02*
X067888D01*
X067701Y046956D02*
Y04733D01*
X067456Y047788D02*
X068476D01*
X067456Y048288D02*
X068476D01*
X067456Y047788D02*
Y048288D01*
X068476Y047788D02*
Y048288D01*
X067966Y047851D02*
Y048225D01*
X067779Y048038D02*
X068153D01*
X071797Y04944D02*
X072817D01*
X071797Y04894D02*
X072817D01*
Y04944D01*
X071797Y04894D02*
Y04944D01*
X072307Y049003D02*
Y049377D01*
X07212Y04919D02*
X072494D01*
X070634Y046887D02*
X072012D01*
X070634Y048422D02*
X072012D01*
Y046887D02*
Y048422D01*
X070634Y046887D02*
Y048422D01*
X071323Y047458D02*
Y047851D01*
X071126Y047655D02*
X07152D01*
X070911Y046342D02*
X071931D01*
X070911Y046842D02*
X071931D01*
X070911Y046342D02*
Y046842D01*
X071931Y046342D02*
Y046842D01*
X071421Y046405D02*
Y046779D01*
X071234Y046592D02*
X071608D01*
X071018Y044751D02*
X072396D01*
X071018Y046286D02*
X072396D01*
Y044751D02*
Y046286D01*
X071018Y044751D02*
Y046286D01*
X071707Y045322D02*
Y045716D01*
X07151Y045519D02*
X071903D01*
X070585Y042664D02*
Y045411D01*
X067543Y042664D02*
Y045411D01*
X070585D01*
X067543Y042664D02*
X070585D01*
X068862Y044042D02*
X069256D01*
X069059Y043846D02*
Y044239D01*
X069462Y048058D02*
X069836D01*
X069649Y047871D02*
Y048245D01*
X070159Y047808D02*
Y048308D01*
X069139Y047808D02*
Y048308D01*
X070159D01*
X069139Y047808D02*
X070159D01*
X069482Y046385D02*
X069856D01*
X069669Y046198D02*
Y046572D01*
X070179Y046135D02*
Y046635D01*
X069159Y046135D02*
Y046635D01*
X070179D01*
X069159Y046135D02*
X070179D01*
X069364Y047034D02*
Y047408D01*
X069177Y047221D02*
X069551D01*
X069114Y047731D02*
X069614D01*
X069114Y046712D02*
X069614D01*
X069114D02*
Y047731D01*
X069614Y046712D02*
Y047731D01*
X0716Y043968D02*
X07262D01*
X0716Y043468D02*
X07262D01*
Y043968D01*
X0716Y043468D02*
Y043968D01*
X07211Y043531D02*
Y043905D01*
X071923Y043718D02*
X072297D01*
X064079Y050007D02*
Y050952D01*
X063646Y050007D02*
Y050952D01*
X064079D01*
X063646Y050007D02*
X064079D01*
X063675Y050479D02*
X064049D01*
X063862Y050292D02*
Y050666D01*
X069964Y047025D02*
Y047399D01*
X069777Y047212D02*
X070151D01*
X069714Y047722D02*
X070214D01*
X069714Y046702D02*
X070214D01*
X069714D02*
Y047722D01*
X070214Y046702D02*
Y047722D01*
X074464Y044942D02*
X075484D01*
X074464Y044442D02*
X075484D01*
Y044942D01*
X074464Y044442D02*
Y044942D01*
X074974Y044505D02*
Y044879D01*
X074787Y044692D02*
X075161D01*
X075335Y049072D02*
X075735D01*
X075535Y048872D02*
Y049272D01*
X074658Y04871D02*
X076412D01*
X076412D02*
Y049432D01*
X074658Y049434D02*
X076412D01*
X074658Y04871D02*
Y049434D01*
X074817Y047842D02*
X07521D01*
X075014Y047645D02*
Y048038D01*
X073714Y048422D02*
X076314D01*
Y047272D02*
Y048422D01*
X073714Y047272D02*
Y048422D01*
Y047262D02*
Y047272D01*
Y047262D02*
X076314D01*
Y047272D01*
X076233Y044295D02*
X077413D01*
X076233Y045995D02*
X077413D01*
Y044295D02*
Y045995D01*
X076233Y044295D02*
Y045995D01*
X076626Y045145D02*
X07702D01*
X076823Y044948D02*
Y045342D01*
X07562Y045038D02*
Y046058D01*
X07612Y045038D02*
Y046058D01*
X07562D02*
X07612D01*
X07562Y045038D02*
X07612D01*
X075683Y045548D02*
X076057D01*
X07587Y045361D02*
Y045735D01*
X075065Y047157D02*
X076085D01*
X075065Y046657D02*
X076085D01*
Y047157D01*
X075065Y046657D02*
Y047157D01*
X075575Y04672D02*
Y047094D01*
X075388Y046907D02*
X075762D01*
X077379Y047628D02*
Y049528D01*
X076479D02*
X077379D01*
X076479Y047628D02*
Y049528D01*
Y047628D02*
X077379D01*
X076929Y048381D02*
Y048775D01*
X076732Y048578D02*
X077126D01*
X076175Y042946D02*
Y043346D01*
X075975Y043146D02*
X076375D01*
X076537Y042269D02*
Y044023D01*
X075815Y044023D02*
X076537D01*
X075813Y042269D02*
Y044023D01*
Y042269D02*
X076537D01*
X073419Y042625D02*
Y043019D01*
X073222Y042822D02*
X073616D01*
X072819Y041892D02*
Y043772D01*
X074019Y041892D02*
Y043772D01*
X072819D02*
X074019D01*
X072819Y041872D02*
X074019D01*
X073059Y045442D02*
Y046462D01*
X072559Y045442D02*
Y046462D01*
Y045442D02*
X073059D01*
X072559Y046462D02*
X073059D01*
X072622Y045952D02*
X072996D01*
X072809Y045765D02*
Y046139D01*
X073748Y045442D02*
Y046462D01*
X073248Y045442D02*
Y046462D01*
Y045442D02*
X073748D01*
X073248Y046462D02*
X073748D01*
X073311Y045952D02*
X073685D01*
X073498Y045765D02*
Y046139D01*
X065476Y044623D02*
Y044997D01*
X065289Y04481D02*
X065663D01*
X065226Y04532D02*
X065726D01*
X065226Y0443D02*
X065726D01*
X065226D02*
Y04532D01*
X065726Y0443D02*
Y04532D01*
X073734Y043877D02*
Y044897D01*
X073234Y043877D02*
Y044897D01*
Y043877D02*
X073734D01*
X073234Y044897D02*
X073734D01*
X073297Y044387D02*
X073671D01*
X073484Y0442D02*
Y044574D01*
X074728Y045666D02*
Y04606D01*
X074531Y045863D02*
X074925D01*
X074039Y046513D02*
X075417D01*
X074039Y045214D02*
X075417D01*
Y046513D01*
X074039Y045214D02*
Y046513D01*
X070964Y043552D02*
Y044572D01*
X071464Y043552D02*
Y044572D01*
X070964D02*
X071464D01*
X070964Y043552D02*
X071464D01*
X071027Y044062D02*
X071401D01*
X071214Y043875D02*
Y044249D01*
X068311Y046946D02*
Y04732D01*
X068124Y047133D02*
X068498D01*
X068061Y047643D02*
X068561D01*
X068061Y046623D02*
X068561D01*
X068061D02*
Y047643D01*
X068561Y046623D02*
Y047643D01*
X071787Y048389D02*
X072807D01*
X071787Y048889D02*
X072807D01*
X071787Y048389D02*
Y048889D01*
X072807Y048389D02*
Y048889D01*
X072297Y048452D02*
Y048826D01*
X07211Y048639D02*
X072484D01*
X073173Y048176D02*
Y04855D01*
X072986Y048363D02*
X07336D01*
X072923Y047853D02*
X073423D01*
X072923Y048873D02*
X073423D01*
Y047853D02*
Y048873D01*
X072923Y047853D02*
Y048873D01*
D54*
X075576Y043049D02*
Y044189D01*
X075546D02*
X075576D01*
X074176D02*
X074206D01*
X074176Y043049D02*
Y044189D01*
Y043049D02*
X074206D01*
X075546D02*
X075576D01*
X075546Y042949D02*
Y043049D01*
Y044189D02*
Y044289D01*
X074206D02*
X075546D01*
X074206Y044189D02*
Y044289D01*
Y042949D02*
Y043049D01*
Y042949D02*
X075546D01*
M02*
