G04*
G04 #@! TF.GenerationSoftware,Altium Limited,Altium Designer,21.0.8 (223)*
G04*
G04 Layer_Color=128*
%FSTAX24Y24*%
%MOIN*%
G70*
G04*
G04 #@! TF.SameCoordinates,54288C87-6C50-4DCC-9232-1D79D91570B4*
G04*
G04*
G04 #@! TF.FilePolarity,Positive*
G04*
G01*
G75*
%ADD15R,0.0354X0.0315*%
%ADD28R,0.1024X0.0472*%
%ADD29R,0.0315X0.0354*%
%ADD30R,0.0236X0.0453*%
%ADD31R,0.0610X0.0118*%
%ADD32R,0.0394X0.0472*%
%ADD33R,0.0866X0.0591*%
%ADD34R,0.0480X0.1040*%
%ADD35R,0.0689X0.0433*%
%ADD36R,0.0472X0.0394*%
%ADD37R,0.1024X0.0591*%
%ADD50R,0.0335X0.0295*%
%ADD51R,0.0295X0.0335*%
%ADD52R,0.0374X0.0217*%
D15*
X07587Y045824D02*
D03*
Y045273D02*
D03*
X073484Y044111D02*
D03*
Y044662D02*
D03*
X071214Y044338D02*
D03*
Y043786D02*
D03*
X073173Y048088D02*
D03*
Y048639D02*
D03*
D28*
X076842Y04631D02*
D03*
Y047373D02*
D03*
X076823Y045676D02*
D03*
Y044613D02*
D03*
D29*
X06773Y046306D02*
D03*
X068281D02*
D03*
X067691Y048038D02*
D03*
X068242D02*
D03*
X069925Y048058D02*
D03*
X069374D02*
D03*
X069945Y046385D02*
D03*
X069394D02*
D03*
X07525Y044692D02*
D03*
X074699D02*
D03*
D30*
X071697Y047212D02*
D03*
X070949D02*
D03*
X071323Y048098D02*
D03*
X072081Y045076D02*
D03*
X071333D02*
D03*
X071707Y045962D02*
D03*
D31*
X067957Y045194D02*
D03*
Y044938D02*
D03*
Y044682D02*
D03*
Y044426D02*
D03*
Y04417D02*
D03*
Y043914D02*
D03*
Y043659D02*
D03*
Y043403D02*
D03*
Y043147D02*
D03*
Y042891D02*
D03*
X070161D02*
D03*
Y043147D02*
D03*
Y043403D02*
D03*
Y043659D02*
D03*
Y043914D02*
D03*
Y04417D02*
D03*
Y044426D02*
D03*
Y044682D02*
D03*
Y044938D02*
D03*
Y045194D02*
D03*
D32*
X074885Y049072D02*
D03*
X076186D02*
D03*
D33*
X074187Y047842D02*
D03*
X07584D02*
D03*
D34*
X075296Y043619D02*
D03*
X074456D02*
D03*
D35*
X076929Y049188D02*
D03*
Y047968D02*
D03*
D36*
X076175Y042496D02*
D03*
Y043796D02*
D03*
D37*
X073419Y042231D02*
D03*
Y043412D02*
D03*
D50*
X063872Y048786D02*
D03*
Y049338D02*
D03*
X067701Y046867D02*
D03*
Y047418D02*
D03*
X069364Y047497D02*
D03*
Y046946D02*
D03*
X069964Y047487D02*
D03*
Y046936D02*
D03*
X072809Y045676D02*
D03*
Y046227D02*
D03*
X073498Y045676D02*
D03*
Y046227D02*
D03*
X065476Y045086D02*
D03*
Y044535D02*
D03*
X068311Y047409D02*
D03*
Y046857D02*
D03*
D51*
X072583Y04919D02*
D03*
X072031D02*
D03*
X071146Y046592D02*
D03*
X071697D02*
D03*
X072386Y043718D02*
D03*
X071835D02*
D03*
X07585Y046907D02*
D03*
X075299D02*
D03*
X072022Y048639D02*
D03*
X072573D02*
D03*
D52*
X07524Y045489D02*
D03*
Y045863D02*
D03*
Y046237D02*
D03*
X074216D02*
D03*
Y045863D02*
D03*
Y045489D02*
D03*
M02*
