G04*
G04 #@! TF.GenerationSoftware,Altium Limited,Altium Designer,19.0.15 (446)*
G04*
G04 Layer_Color=8421504*
%FSTAX24Y24*%
%MOIN*%
G70*
G01*
G75*
%ADD17R,0.0335X0.0295*%
%ADD18R,0.0453X0.0236*%
%ADD19R,0.0295X0.0335*%
%ADD20R,0.0236X0.0453*%
%ADD21R,0.0866X0.0591*%
%ADD22R,0.0354X0.0315*%
%ADD23R,0.0315X0.0354*%
%ADD24R,0.0846X0.2480*%
%ADD25O,0.0846X0.0236*%
%ADD26R,0.0827X0.1063*%
%ADD27R,0.0710X0.1300*%
%ADD28R,0.0472X0.1024*%
%ADD29R,0.0472X0.0394*%
%ADD30R,0.0984X0.1811*%
D17*
X014449Y014291D02*
D03*
Y01374D02*
D03*
X010591Y015157D02*
D03*
Y015709D02*
D03*
X011181Y015157D02*
D03*
Y015709D02*
D03*
X012402Y01374D02*
D03*
Y014291D02*
D03*
X016772Y015827D02*
D03*
Y015276D02*
D03*
X016024Y015827D02*
D03*
Y015276D02*
D03*
D18*
X011841Y015689D02*
D03*
Y014941D02*
D03*
X012726Y015315D02*
D03*
D19*
X013937Y015276D02*
D03*
X013386D02*
D03*
X015Y015276D02*
D03*
X014449D02*
D03*
X012402Y013071D02*
D03*
X012953D02*
D03*
X012402Y01248D02*
D03*
X012953D02*
D03*
X017559Y015276D02*
D03*
X01811D02*
D03*
D20*
X013012Y01373D02*
D03*
X01376D02*
D03*
X013386Y014616D02*
D03*
D21*
X012165Y010669D02*
D03*
X010512D02*
D03*
D22*
X015039Y01374D02*
D03*
Y014291D02*
D03*
X019449Y01311D02*
D03*
Y013661D02*
D03*
D23*
X016417Y012441D02*
D03*
X016968D02*
D03*
X01811Y015827D02*
D03*
X017559D02*
D03*
D24*
X018317Y011417D02*
D03*
X019951D02*
D03*
D25*
X018297Y013148D02*
D03*
Y013648D02*
D03*
Y014148D02*
D03*
Y014648D02*
D03*
X016033Y013148D02*
D03*
Y013648D02*
D03*
Y014148D02*
D03*
Y014648D02*
D03*
D26*
X017165Y013898D02*
D03*
D27*
X021142Y013206D02*
D03*
Y015376D02*
D03*
D28*
X013996Y012677D02*
D03*
X015059D02*
D03*
D29*
X017087Y011792D02*
D03*
Y010491D02*
D03*
D30*
X015276Y011063D02*
D03*
X013228D02*
D03*
M02*
