G04*
G04 #@! TF.GenerationSoftware,Altium Limited,Altium Designer,19.0.15 (446)*
G04*
G04 Layer_Physical_Order=1*
G04 Layer_Color=255*
%FSTAX24Y24*%
%MOIN*%
G70*
G01*
G75*
%ADD18R,0.0453X0.0236*%
%ADD20R,0.0236X0.0453*%
%ADD21R,0.0866X0.0591*%
%ADD22R,0.0354X0.0315*%
%ADD23R,0.0315X0.0354*%
%ADD24R,0.0846X0.2480*%
%ADD25O,0.0846X0.0236*%
%ADD26R,0.0827X0.1063*%
%ADD27R,0.0710X0.1300*%
%ADD28R,0.0472X0.1024*%
%ADD29R,0.0472X0.0394*%
%ADD30R,0.0984X0.1811*%
%ADD46C,0.0100*%
%ADD47C,0.0150*%
%ADD48O,0.1496X0.0748*%
%ADD49R,0.1496X0.0748*%
%ADD50O,0.1496X0.0748*%
%ADD51C,0.0197*%
G36*
X016437Y015483D02*
X016358D01*
Y015591D01*
X015689D01*
Y014961D01*
X015689Y014961D01*
X015689D01*
X015671Y014917D01*
X015666Y014916D01*
X015657Y014914D01*
X015648Y014911D01*
X01564Y014909D01*
X015631Y014906D01*
X015623Y014902D01*
X015615Y014899D01*
X015606Y014895D01*
X015598Y014891D01*
X015591Y014886D01*
X015583Y014882D01*
X015575Y014877D01*
X015568Y014872D01*
X015561Y014866D01*
X015553Y014861D01*
X015547Y014855D01*
X01554Y014849D01*
X015533Y014843D01*
X015527Y014836D01*
X015521Y014829D01*
X015515Y014822D01*
X01551Y014815D01*
X015504Y014808D01*
X015499Y014801D01*
X015494Y014793D01*
X01549Y014785D01*
X015485Y014778D01*
X015481Y01477D01*
X015477Y014761D01*
X015474Y014753D01*
X01547Y014745D01*
X015467Y014736D01*
X015465Y014728D01*
X015462Y014719D01*
X01546Y01471D01*
X015458Y014701D01*
X015456Y014693D01*
X015455Y014684D01*
X015454Y014675D01*
X015453Y014666D01*
X015453Y014657D01*
X015453Y014648D01*
X015453Y014639D01*
X015453Y01463D01*
X015454Y014621D01*
X015455Y014612D01*
X015456Y014603D01*
X015458Y014594D01*
X01546Y014585D01*
X015462Y014576D01*
X015465Y014568D01*
X015467Y014559D01*
X01547Y014551D01*
X015474Y014542D01*
X015477Y014534D01*
X015481Y014526D01*
X015485Y014518D01*
X01549Y01451D01*
X015494Y014502D01*
X015499Y014495D01*
X015504Y014487D01*
X01551Y01448D01*
X015515Y014473D01*
X015521Y014466D01*
X015527Y014459D01*
X015533Y014453D01*
X01554Y014446D01*
X015547Y01444D01*
X015553Y014435D01*
X015561Y014429D01*
X015562Y014428D01*
X015567Y014417D01*
X015569Y014407D01*
Y014388D01*
X015567Y014378D01*
X015562Y014368D01*
X015561Y014366D01*
X015553Y014361D01*
X015547Y014355D01*
X01554Y014349D01*
X015533Y014343D01*
X015527Y014336D01*
X015521Y014329D01*
X015515Y014322D01*
X01551Y014315D01*
X015504Y014308D01*
X015499Y014301D01*
X015494Y014293D01*
X01549Y014285D01*
X015485Y014278D01*
X015481Y01427D01*
X015477Y014261D01*
X015474Y014253D01*
X01547Y014245D01*
X015467Y014236D01*
X015465Y014228D01*
X015462Y014219D01*
X01546Y01421D01*
X015458Y014201D01*
X015456Y014193D01*
X015455Y014184D01*
X015454Y014175D01*
X015453Y014166D01*
X015453Y014157D01*
X015453Y014148D01*
X015453Y014139D01*
X015452Y014135D01*
X015448Y014126D01*
X015443Y01412D01*
X015423Y014102D01*
X015416Y014097D01*
X015408Y014095D01*
X015407Y014095D01*
X015403D01*
X015315Y014095D01*
X014843D01*
X014842Y014095D01*
X014827Y014095D01*
X014827Y014095D01*
X014793Y014121D01*
X014787Y014128D01*
X014786Y01413D01*
X014786Y014132D01*
X014783Y01414D01*
Y014606D01*
X014656D01*
Y014732D01*
X014658Y014734D01*
X014663Y014742D01*
X014668Y014749D01*
X014672Y014756D01*
X014676Y014764D01*
X01468Y014772D01*
X014684Y01478D01*
X014687Y014788D01*
X01469Y014796D01*
X014693Y014804D01*
X014695Y014813D01*
X014697Y014821D01*
X014699Y01483D01*
X014701Y014838D01*
X014702Y014847D01*
X014703Y014856D01*
X014704Y014864D01*
X014705Y014873D01*
X014705Y014882D01*
X014705Y014891D01*
X014705Y014891D01*
X014712Y014909D01*
X01473Y014931D01*
X014734Y014935D01*
X014741Y014938D01*
X014749Y014941D01*
X014764D01*
Y01561D01*
X014252D01*
Y01561D01*
X013071D01*
Y015591D01*
X012343D01*
Y015039D01*
X012519D01*
Y014606D01*
X012067D01*
Y014499D01*
X012067Y014499D01*
X012059Y014498D01*
X012051Y014498D01*
X012043Y014497D01*
X012036Y014495D01*
X012028Y014494D01*
X012021Y014492D01*
X012013Y01449D01*
X012006Y014487D01*
X011999Y014485D01*
X011991Y014482D01*
X011984Y014478D01*
X011977Y014475D01*
X011971Y014471D01*
X011964Y014467D01*
X011958Y014463D01*
X011951Y014458D01*
X011945Y014454D01*
X011939Y014449D01*
X011933Y014443D01*
X011928Y014438D01*
X011861Y014372D01*
X011856Y014366D01*
X011851Y01436D01*
X011846Y014354D01*
X011841Y014348D01*
X011836Y014342D01*
X011832Y014335D01*
X011828Y014329D01*
X011828Y014328D01*
X011799Y014323D01*
X011796Y014323D01*
X011773Y014331D01*
X011773Y014331D01*
X011768Y014343D01*
X011763Y014355D01*
X011758Y014366D01*
X011752Y014377D01*
X011746Y014389D01*
X01174Y0144D01*
X011733Y014411D01*
X011727Y014421D01*
X01172Y014432D01*
X011712Y014442D01*
X011705Y014452D01*
X011697Y014462D01*
X011689Y014472D01*
X011681Y014482D01*
X011673Y014491D01*
X011664Y014501D01*
X011655Y01451D01*
X011646Y014519D01*
X011637Y014527D01*
X011628Y014536D01*
X011618Y014544D01*
X011608Y014552D01*
X011598Y014559D01*
X011588Y014567D01*
X011577Y014574D01*
X011567Y014581D01*
X011556Y014588D01*
X011545Y014594D01*
X011534Y0146D01*
X011523Y014606D01*
X011512Y014612D01*
X0115Y014617D01*
X011489Y014622D01*
X011477Y014627D01*
X011465Y014632D01*
X011453Y014636D01*
X011441Y01464D01*
X011429Y014644D01*
X011417Y014647D01*
X011405Y01465D01*
X011393Y014653D01*
X01138Y014656D01*
X011368Y014658D01*
X011355Y01466D01*
X011343Y014662D01*
X01133Y014663D01*
X011317Y014664D01*
X011305Y014665D01*
X011292Y014665D01*
X01128Y014665D01*
X011112D01*
X011112Y014671D01*
X011111Y014679D01*
X011109Y014686D01*
X011108Y014694D01*
X011106Y014701D01*
X011104Y014709D01*
X011101Y014716D01*
X011099Y014723D01*
X011096Y014731D01*
X011092Y014738D01*
X011089Y014745D01*
X011085Y014751D01*
X011081Y014758D01*
X011077Y014765D01*
X011072Y014771D01*
X011068Y014777D01*
X011063Y014783D01*
X011058Y014789D01*
X011052Y014794D01*
X010925Y014921D01*
Y015394D01*
X011516D01*
Y015413D01*
X012224D01*
Y015925D01*
X016437D01*
Y015483D01*
D02*
G37*
G36*
X019714Y015032D02*
Y013465D01*
X019248D01*
X019247Y013465D01*
X019246Y013465D01*
X019244Y013465D01*
X019241Y013464D01*
X01924Y013464D01*
X019239Y013464D01*
X019237Y013464D01*
X019234Y013464D01*
X019233Y013464D01*
X019233Y013464D01*
X019225Y013463D01*
X019224Y013463D01*
X019223Y013463D01*
X019221Y013463D01*
X019218Y013462D01*
X019217Y013462D01*
X019216Y013462D01*
X019214Y013462D01*
X019211Y013461D01*
X019211Y013461D01*
X01921Y013461D01*
X019202Y013459D01*
X019201Y013459D01*
X0192Y013459D01*
X019198Y013458D01*
X019195Y013458D01*
X019195Y013458D01*
X019194Y013457D01*
X019191Y013457D01*
X019189Y013456D01*
X019188Y013456D01*
X019187Y013456D01*
X01918Y013453D01*
X019179Y013453D01*
X019178Y013453D01*
X019176Y013452D01*
X019173Y013451D01*
X019172Y013451D01*
X019172Y013451D01*
X019169Y01345D01*
X019167Y013449D01*
X019166Y013448D01*
X019165Y013448D01*
X019158Y013445D01*
X019157Y013445D01*
X019156Y013444D01*
X019154Y013443D01*
X019152Y013442D01*
X019151Y013442D01*
X01915Y013442D01*
X019148Y01344D01*
X019146Y013439D01*
X019145Y013439D01*
X019144Y013439D01*
X019137Y013435D01*
X019136Y013434D01*
X019136Y013434D01*
X019133Y013433D01*
X019131Y013432D01*
X01913Y013431D01*
X01913Y013431D01*
X019128Y013429D01*
X019125Y013428D01*
X019125Y013427D01*
X019124Y013427D01*
X019121Y013425D01*
X019114D01*
Y01342D01*
X019114Y01342D01*
X019112Y013419D01*
X019111Y013418D01*
X01911Y013418D01*
X019108Y013416D01*
X019106Y013415D01*
X019106Y013414D01*
X019105Y013413D01*
X019099Y013409D01*
X019098Y013408D01*
X019098Y013407D01*
X019096Y013406D01*
X019094Y013404D01*
X019093Y013403D01*
X019093Y013403D01*
X019091Y013401D01*
X019089Y013399D01*
X019088Y013399D01*
X019088Y013398D01*
X019082Y013393D01*
X019082Y013392D01*
X019081Y013391D01*
X019079Y01339D01*
X019077Y013388D01*
X019077Y013387D01*
X019076Y013386D01*
X019075Y013385D01*
X019073Y013383D01*
X019072Y013382D01*
X019072Y013381D01*
X019067Y013375D01*
X019066Y013375D01*
X019066Y013374D01*
X019064Y013372D01*
X019063Y01337D01*
X019062Y013369D01*
X019062Y013368D01*
X01906Y013366D01*
X019059Y013364D01*
X019058Y013364D01*
X019058Y013363D01*
X019053Y013356D01*
X019053Y013356D01*
X019052Y013355D01*
X019051Y013353D01*
X01905Y013351D01*
X019049Y01335D01*
X019049Y013349D01*
X019048Y013347D01*
X019046Y013345D01*
X019046Y013344D01*
X019045Y013343D01*
X019042Y013336D01*
X019041Y013336D01*
X019041Y013335D01*
X01904Y013332D01*
X019039Y01333D01*
X019038Y013329D01*
X019038Y013329D01*
X019037Y013326D01*
X019036Y013324D01*
X019036Y013323D01*
X019035Y013322D01*
X019032Y013315D01*
X019032Y013314D01*
X019032Y013314D01*
X019031Y013311D01*
X01903Y013309D01*
X019029Y013308D01*
X019029Y013307D01*
X019028Y013305D01*
X019028Y013302D01*
X019027Y013301D01*
X019027Y013301D01*
X019025Y013293D01*
X019025Y013292D01*
X019024Y013292D01*
X019024Y013289D01*
X019023Y013287D01*
X019023Y013286D01*
X019022Y013285D01*
X019022Y013282D01*
X019021Y01328D01*
X019021Y013279D01*
X019021Y013278D01*
X019019Y013271D01*
X019019Y01327D01*
X019019Y013269D01*
X019019Y013266D01*
X019018Y013264D01*
X019018Y013263D01*
X019018Y013262D01*
X019018Y01326D01*
X019017Y013257D01*
X019017Y013256D01*
X019017Y013255D01*
X019016Y013248D01*
X019016Y013247D01*
X019016Y013246D01*
X019016Y013243D01*
X019016Y013241D01*
X019016Y01324D01*
X019016Y013239D01*
X019016Y013237D01*
X019016Y013234D01*
X019016Y013233D01*
X019016Y013232D01*
Y013228D01*
X018968Y013223D01*
X018967Y013224D01*
X018967Y013226D01*
X018964Y013236D01*
X018964Y013238D01*
X018963Y013239D01*
X018963Y013241D01*
X018962Y013243D01*
X018962Y013244D01*
X018961Y013246D01*
X018958Y013256D01*
X018957Y013257D01*
X018957Y013259D01*
X018956Y013261D01*
X018956Y013262D01*
X018955Y013264D01*
X018954Y013265D01*
X01895Y013275D01*
X01895Y013276D01*
X018949Y013278D01*
X018948Y01328D01*
X018948Y013281D01*
X018947Y013283D01*
X018946Y013284D01*
X018942Y013294D01*
X018941Y013295D01*
X01894Y013297D01*
X018939Y013298D01*
X018938Y0133D01*
X018938Y013301D01*
X018937Y013303D01*
X018932Y013312D01*
X018931Y013313D01*
X01893Y013315D01*
X018929Y013316D01*
X018928Y013317D01*
X018927Y013319D01*
X018926Y01332D01*
X01892Y013329D01*
X018919Y01333D01*
X018919Y013332D01*
X018918Y013333D01*
X018917Y013335D01*
X018915Y013336D01*
X018914Y013337D01*
X018908Y013345D01*
X018907Y013347D01*
X018906Y013348D01*
X018905Y013349D01*
X018904Y013351D01*
X018903Y013352D01*
X018902Y013353D01*
X018895Y013361D01*
X018894Y013362D01*
X018893Y013364D01*
X018891Y013365D01*
X01889Y013366D01*
X018889Y013367D01*
X018888Y013369D01*
X018881Y013376D01*
X018879Y013377D01*
X018878Y013378D01*
X018877Y01338D01*
X018876Y013381D01*
X018874Y013382D01*
X018873Y013383D01*
X018865Y01339D01*
X018864Y013391D01*
X018863Y013392D01*
X018861Y013393D01*
X01886Y013394D01*
X018859Y013395D01*
X018857Y013396D01*
X018849Y013403D01*
X018848Y013404D01*
X018846Y013405D01*
X018845Y013406D01*
X018844Y013407D01*
X018842Y013408D01*
X018841Y013409D01*
X018832Y013414D01*
X018831Y013415D01*
X018829Y013416D01*
X018827Y013419D01*
X018824Y013423D01*
X018822Y013429D01*
X01882Y013433D01*
X018816Y013464D01*
X01882Y013478D01*
X018821Y01348D01*
X018826Y013487D01*
X018832Y013495D01*
X018836Y013502D01*
X018841Y01351D01*
X018845Y013518D01*
X01885Y013526D01*
X018853Y013534D01*
X018857Y013542D01*
X01886Y013551D01*
X018863Y013559D01*
X018866Y013568D01*
X018869Y013576D01*
X018871Y013585D01*
X018873Y013594D01*
X018874Y013603D01*
X018876Y013612D01*
X018877Y013621D01*
X018877Y01363D01*
X018878Y013639D01*
X018878Y013648D01*
X018878Y013657D01*
X018877Y013666D01*
X018877Y013675D01*
X018876Y013684D01*
X018874Y013693D01*
X018873Y013701D01*
X018871Y01371D01*
X018869Y013719D01*
X018866Y013728D01*
X018863Y013736D01*
X01886Y013745D01*
X018857Y013753D01*
X018853Y013761D01*
X01885Y01377D01*
X018845Y013778D01*
X018841Y013785D01*
X018836Y013793D01*
X018832Y013801D01*
X018826Y013808D01*
X018821Y013815D01*
X018815Y013822D01*
X01881Y013829D01*
X018804Y013836D01*
X018797Y013843D01*
X018791Y013849D01*
X018784Y013855D01*
X018781Y013857D01*
X018776Y013883D01*
X018774Y013911D01*
X018774Y013914D01*
X018798Y01394D01*
X018866D01*
X018868Y013939D01*
X018875Y013934D01*
X018883Y013929D01*
X01889Y013925D01*
X018898Y01392D01*
X018906Y013916D01*
X018914Y013913D01*
X018922Y01391D01*
X01893Y013906D01*
X018938Y013904D01*
X018947Y013901D01*
X018955Y013899D01*
X018964Y013897D01*
X018972Y013895D01*
X018981Y013894D01*
X01899Y013893D01*
X018998Y013892D01*
X019007Y013892D01*
X019016Y013892D01*
X019024Y013892D01*
X019033Y013892D01*
X019042Y013893D01*
X019051Y013894D01*
X019059Y013895D01*
X019068Y013897D01*
X019076Y013899D01*
X019085Y013901D01*
X019093Y013904D01*
X019101Y013906D01*
X01911Y01391D01*
X019118Y013913D01*
X019126Y013916D01*
X019133Y01392D01*
X019141Y013925D01*
X019149Y013929D01*
X019156Y013934D01*
X019163Y013939D01*
X01917Y013944D01*
X019177Y013949D01*
X019184Y013955D01*
X01919Y013961D01*
X019197Y013967D01*
X019203Y013973D01*
X019209Y013979D01*
X019214Y013986D01*
X01922Y013993D01*
X019225Y014D01*
X01923Y014007D01*
X019234Y014015D01*
X019239Y014022D01*
X019243Y01403D01*
X019247Y014038D01*
X019251Y014046D01*
X019254Y014054D01*
X019257Y014062D01*
X01926Y01407D01*
X019262Y014079D01*
X019264Y014087D01*
X019266Y014096D01*
X019268Y014104D01*
X019269Y014113D01*
X01927Y014121D01*
X019271Y01413D01*
X019272Y014139D01*
X019272Y014148D01*
X019272Y014156D01*
X019271Y014165D01*
X01927Y014174D01*
X019269Y014182D01*
X019268Y014191D01*
X019266Y0142D01*
X019264Y014208D01*
X019262Y014217D01*
X01926Y014225D01*
X019257Y014233D01*
X019254Y014242D01*
X019251Y01425D01*
X019247Y014258D01*
X019243Y014265D01*
X019239Y014273D01*
X019234Y014281D01*
X01923Y014288D01*
X019225Y014295D01*
X01922Y014302D01*
X019214Y014309D01*
X019209Y014316D01*
X019203Y014322D01*
X019197Y014329D01*
X01919Y014335D01*
X019184Y014341D01*
X019177Y014346D01*
X01917Y014352D01*
X019163Y014357D01*
X019156Y014362D01*
X019149Y014366D01*
X019141Y014371D01*
X019133Y014375D01*
X019126Y014379D01*
X019118Y014382D01*
X01911Y014386D01*
X019101Y014389D01*
X019093Y014392D01*
X019085Y014394D01*
X019076Y014396D01*
X019068Y014398D01*
X019059Y0144D01*
X019051Y014401D01*
X019042Y014402D01*
X019033Y014403D01*
X019024Y014403D01*
X019016Y014404D01*
X019007Y014403D01*
X018998Y014403D01*
X01899Y014402D01*
X018981Y014401D01*
X018972Y0144D01*
X018964Y014398D01*
X018955Y014396D01*
X018947Y014394D01*
X018938Y014392D01*
X01893Y014389D01*
X018922Y014386D01*
X018914Y014382D01*
X018906Y014379D01*
X018898Y014375D01*
X01889Y014371D01*
X018883Y014366D01*
X018875Y014362D01*
X018868Y014357D01*
X018866Y014355D01*
X018784D01*
X018777Y014361D01*
X01877Y014366D01*
X018763Y014372D01*
X018755Y014377D01*
X018748Y014382D01*
X01874Y014386D01*
X018732Y014391D01*
X018724Y014395D01*
X018716Y014399D01*
X018708Y014402D01*
X018699Y014406D01*
X018691Y014409D01*
X018682Y014411D01*
X018674Y014414D01*
X018665Y014416D01*
X018656Y014418D01*
X018647Y01442D01*
X018638Y014421D01*
X018629Y014422D01*
X01862Y014423D01*
X018611Y014423D01*
X018602Y014423D01*
X017992D01*
X017983Y014423D01*
X017974Y014423D01*
X017965Y014422D01*
X017956Y014421D01*
X017947Y01442D01*
X017938Y014418D01*
X01793Y014416D01*
X017921Y014414D01*
X017912Y014411D01*
X017904Y014409D01*
X017895Y014406D01*
X017887Y014402D01*
X017878Y014399D01*
X01787Y014395D01*
X017862Y014391D01*
X017854Y014386D01*
X017847Y014382D01*
X017839Y014377D01*
X017832Y014372D01*
X017824Y014366D01*
X017817Y014361D01*
X01781Y014355D01*
X017804Y014349D01*
X017797Y014343D01*
X017791Y014336D01*
X017785Y014329D01*
X017779Y014322D01*
X017773Y014315D01*
X017768Y014308D01*
X017763Y014301D01*
X017758Y014293D01*
X017753Y014285D01*
X017749Y014278D01*
X017745Y01427D01*
X017741Y014261D01*
X017737Y014253D01*
X017734Y014245D01*
X017731Y014236D01*
X017728Y014228D01*
X017726Y014219D01*
X017724Y01421D01*
X017722Y014201D01*
X01772Y014193D01*
X017719Y014184D01*
X017718Y014175D01*
X017717Y014166D01*
X017717Y014157D01*
X017716Y014148D01*
X017717Y014139D01*
X017717Y01413D01*
X017718Y014121D01*
X017719Y014112D01*
X01772Y014103D01*
X017722Y014094D01*
X017724Y014085D01*
X017726Y014076D01*
X017728Y014068D01*
X017731Y014059D01*
X017734Y014051D01*
X017737Y014042D01*
X017741Y014034D01*
X017745Y014026D01*
X017749Y014018D01*
X017753Y01401D01*
X017758Y014002D01*
X017763Y013995D01*
X017768Y013987D01*
X017773Y01398D01*
X017779Y013973D01*
X017785Y013966D01*
X017791Y013959D01*
X017797Y013953D01*
X017804Y013946D01*
X01781Y01394D01*
X017817Y013935D01*
X017824Y013929D01*
X017826Y013928D01*
X017831Y013917D01*
X017833Y013907D01*
Y013888D01*
X017831Y013878D01*
X017826Y013868D01*
X017824Y013866D01*
X017817Y013861D01*
X01781Y013855D01*
X017804Y013849D01*
X017797Y013843D01*
X017791Y013836D01*
X017785Y013829D01*
X017779Y013822D01*
X017773Y013815D01*
X017768Y013808D01*
X017763Y013801D01*
X017758Y013793D01*
X017753Y013785D01*
X017749Y013778D01*
X017745Y01377D01*
X017741Y013761D01*
X017737Y013753D01*
X017734Y013745D01*
X017731Y013736D01*
X017728Y013728D01*
X017726Y013719D01*
X017724Y01371D01*
X017722Y013701D01*
X01772Y013693D01*
X017719Y013684D01*
X017718Y013675D01*
X017717Y013666D01*
X017717Y013657D01*
X017716Y013648D01*
X017717Y013639D01*
X017717Y01363D01*
X017718Y013621D01*
X017719Y013612D01*
X01772Y013603D01*
X017722Y013594D01*
X017724Y013585D01*
X017726Y013576D01*
X017728Y013568D01*
X017731Y013559D01*
X017734Y013551D01*
X017737Y013542D01*
X017741Y013534D01*
X017745Y013526D01*
X017749Y013518D01*
X017753Y01351D01*
X017758Y013502D01*
X017761Y013498D01*
X017761Y013497D01*
X017762Y013494D01*
X017763Y013491D01*
X017763Y013475D01*
X017762Y013469D01*
X017753Y013445D01*
X017753Y013445D01*
X017745Y013436D01*
X017743Y013435D01*
X017742Y013434D01*
X017741Y013434D01*
X017739Y013433D01*
X017737Y013432D01*
X017736Y013431D01*
X017735Y013431D01*
X017733Y013429D01*
X017731Y013428D01*
X01773Y013427D01*
X017729Y013427D01*
X017723Y013423D01*
X017722Y013422D01*
X017722Y013422D01*
X017719Y01342D01*
X017717Y013419D01*
X017717Y013418D01*
X017716Y013418D01*
X017714Y013416D01*
X017712Y013415D01*
X017711Y013414D01*
X017711Y013413D01*
X017705Y013409D01*
X017704Y013408D01*
X017703Y013407D01*
X017701Y013406D01*
X017699Y013404D01*
X017699Y013403D01*
X017698Y013403D01*
X017696Y013401D01*
X017694Y013399D01*
X017694Y013399D01*
X017693Y013398D01*
X017688Y013393D01*
X017687Y013392D01*
X017686Y013391D01*
X017685Y01339D01*
X017683Y013388D01*
X017682Y013387D01*
X017682Y013386D01*
X01768Y013385D01*
X017678Y013383D01*
X017678Y013382D01*
X017677Y013381D01*
X017672Y013375D01*
X017672Y013375D01*
X017671Y013374D01*
X01767Y013372D01*
X017668Y01337D01*
X017668Y013369D01*
X017667Y013368D01*
X017666Y013366D01*
X017664Y013364D01*
X017664Y013364D01*
X017663Y013363D01*
X017659Y013356D01*
X017658Y013356D01*
X017658Y013355D01*
X017657Y013353D01*
X017655Y013351D01*
X017655Y01335D01*
X017654Y013349D01*
X017653Y013347D01*
X017652Y013345D01*
X017651Y013344D01*
X017651Y013343D01*
X017647Y013336D01*
X017647Y013336D01*
X017646Y013335D01*
X017645Y013332D01*
X017644Y01333D01*
X017644Y013329D01*
X017643Y013329D01*
X017642Y013326D01*
X017641Y013324D01*
X017641Y013323D01*
X017641Y013322D01*
X017638Y013315D01*
X017637Y013314D01*
X017637Y013314D01*
X017636Y013311D01*
X017635Y013309D01*
X017635Y013308D01*
X017635Y013307D01*
X017634Y013305D01*
X017633Y013302D01*
X017633Y013301D01*
X017633Y013301D01*
X01763Y013293D01*
X01763Y013292D01*
X01763Y013292D01*
X017629Y013289D01*
X017628Y013287D01*
X017628Y013286D01*
X017628Y013285D01*
X017627Y013282D01*
X017627Y01328D01*
X017627Y013279D01*
X017627Y013278D01*
X017625Y013271D01*
X017625Y01327D01*
X017625Y013269D01*
X017624Y013266D01*
X017624Y013264D01*
X017624Y013263D01*
X017624Y013262D01*
X017623Y01326D01*
X017623Y013257D01*
X017623Y013256D01*
X017623Y013255D01*
X017622Y013248D01*
X017622Y013247D01*
X017622Y013246D01*
X017622Y013243D01*
X017621Y013241D01*
X017621Y01324D01*
X017621Y013239D01*
X017621Y013237D01*
X017621Y013234D01*
X017621Y013233D01*
X017621Y013232D01*
X017621Y012874D01*
X01685Y012874D01*
X016847Y012874D01*
X016846Y012874D01*
X016845Y012874D01*
X016842Y012874D01*
X01684Y012874D01*
X016839Y012874D01*
X016838Y012874D01*
X016835Y012874D01*
X016833Y012873D01*
X016832Y012873D01*
X016831Y012873D01*
X016823Y012873D01*
X016823Y012872D01*
X016822Y012872D01*
X016819Y012872D01*
X016817Y012872D01*
X016816Y012872D01*
X016815Y012871D01*
X016812Y012871D01*
X01681Y012871D01*
X016809Y01287D01*
X016808Y01287D01*
X016801Y012869D01*
X0168Y012869D01*
X016799Y012868D01*
X016796Y012868D01*
X016794Y012867D01*
X016793Y012867D01*
X016792Y012867D01*
X01679Y012866D01*
X016787Y012865D01*
X016786Y012865D01*
X016786Y012865D01*
X016778Y012863D01*
X016777Y012862D01*
X016776Y012862D01*
X016774Y012861D01*
X016772Y012861D01*
X016771Y01286D01*
X01677Y01286D01*
X016768Y012859D01*
X016765Y012858D01*
X016764Y012858D01*
X016764Y012858D01*
X016756Y012855D01*
X016756Y012854D01*
X016755Y012854D01*
X016752Y012853D01*
X01675Y012852D01*
X016749Y012851D01*
X016749Y012851D01*
X016746Y01285D01*
X016744Y012849D01*
X016743Y012848D01*
X016742Y012848D01*
X016736Y012844D01*
X016735Y012844D01*
X016734Y012844D01*
X016732Y012842D01*
X01673Y012841D01*
X016729Y012841D01*
X016728Y01284D01*
X016726Y012839D01*
X016724Y012837D01*
X016723Y012837D01*
X016722Y012836D01*
X016716Y012832D01*
X016715Y012832D01*
X016715Y012831D01*
X016712Y01283D01*
X01671Y012828D01*
X01671Y012828D01*
X016709Y012827D01*
X016707Y012826D01*
X016705Y012824D01*
X016704Y012823D01*
X016704Y012823D01*
X016698Y012818D01*
X016697Y012817D01*
X016696Y012817D01*
X016694Y012815D01*
X016692Y012814D01*
X016692Y012813D01*
X016691Y012812D01*
X016689Y012811D01*
X016687Y012809D01*
X016687Y012808D01*
X016686Y012808D01*
X016681Y012802D01*
X01668Y012802D01*
X016679Y012801D01*
X016678Y012799D01*
X016676Y012797D01*
X016675Y012796D01*
X016675Y012796D01*
X016673Y012794D01*
X016671Y012792D01*
X016671Y012791D01*
X01667Y012791D01*
X016665Y012785D01*
X016665Y012784D01*
X016664Y012783D01*
X016663Y012781D01*
X016661Y012779D01*
X016661Y012779D01*
X01666Y012778D01*
X016659Y012776D01*
X016658Y012776D01*
X016241D01*
Y012872D01*
X016339D01*
X016348Y012872D01*
X016357Y012873D01*
X016366Y012873D01*
X016375Y012874D01*
X016383Y012876D01*
X016392Y012877D01*
X016401Y012879D01*
X01641Y012881D01*
X016419Y012884D01*
X016427Y012887D01*
X016436Y01289D01*
X016444Y012893D01*
X016452Y012897D01*
X01646Y0129D01*
X016469Y012905D01*
X016476Y012909D01*
X016484Y012914D01*
X016492Y012918D01*
X016499Y012924D01*
X016506Y012929D01*
X016513Y012935D01*
X01652Y01294D01*
X016527Y012946D01*
X016533Y012953D01*
X01654Y012959D01*
X016546Y012966D01*
X016552Y012973D01*
X016557Y01298D01*
X016563Y012987D01*
X016568Y012995D01*
X016573Y013002D01*
X016577Y01301D01*
X016582Y013018D01*
X016586Y013026D01*
X01659Y013034D01*
X016593Y013042D01*
X016597Y013051D01*
X0166Y013059D01*
X016602Y013068D01*
X016605Y013076D01*
X016607Y013085D01*
X016609Y013094D01*
X016611Y013103D01*
X016612Y013112D01*
X016613Y013121D01*
X016614Y01313D01*
X016614Y013139D01*
X016614Y013148D01*
X016614Y013157D01*
X016614Y013166D01*
X016613Y013175D01*
X016612Y013184D01*
X016611Y013193D01*
X016609Y013201D01*
X016607Y01321D01*
X016605Y013219D01*
X016602Y013228D01*
X0166Y013236D01*
X016597Y013245D01*
X016593Y013253D01*
X01659Y013261D01*
X016586Y01327D01*
X016582Y013278D01*
X016577Y013285D01*
X016573Y013293D01*
X016568Y013301D01*
X016563Y013308D01*
X016557Y013315D01*
X016552Y013322D01*
X016587Y013358D01*
X016587Y013358D01*
X016592Y013363D01*
X016597Y013368D01*
X016601Y013373D01*
X016605Y013379D01*
X016609Y013384D01*
X016612Y01339D01*
X016616Y013396D01*
X016619Y013402D01*
X016622Y013409D01*
X016642Y013457D01*
X016642Y013457D01*
X016644Y013463D01*
X016646Y01347D01*
X016648Y013476D01*
X01665Y013483D01*
X016651Y01349D01*
X016652Y013493D01*
X016652Y013497D01*
X016653Y013503D01*
X016653Y01351D01*
X016654Y013517D01*
X016654Y013543D01*
X016654Y013756D01*
X016653Y013763D01*
X016653Y01377D01*
X016652Y013776D01*
X016651Y013783D01*
X01665Y01379D01*
X016648Y013797D01*
X016646Y013803D01*
X016644Y01381D01*
X016642Y013816D01*
X016642Y013816D01*
X016622Y013863D01*
X016622Y013863D01*
X016619Y013869D01*
X016616Y013876D01*
X016613Y013882D01*
X016609Y013887D01*
X016606Y013893D01*
X016602Y013899D01*
X016597Y013904D01*
X016593Y013909D01*
X016588Y013914D01*
X016588Y013914D01*
X016552Y01395D01*
X016552Y01395D01*
X016547Y013955D01*
X016546Y013965D01*
X016552Y013973D01*
X016557Y01398D01*
X016563Y013987D01*
X016568Y013995D01*
X016573Y014002D01*
X016577Y01401D01*
X016582Y014018D01*
X016586Y014026D01*
X01659Y014034D01*
X016593Y014042D01*
X016597Y014051D01*
X0166Y014059D01*
X016602Y014068D01*
X016605Y014076D01*
X016607Y014085D01*
X016609Y014094D01*
X016611Y014103D01*
X016612Y014112D01*
X016613Y014121D01*
X016614Y01413D01*
X016614Y014139D01*
X016614Y014148D01*
X016614Y014157D01*
X016614Y014166D01*
X016613Y014175D01*
X016612Y014184D01*
X016611Y014193D01*
X016609Y014201D01*
X016607Y01421D01*
X016605Y014219D01*
X016602Y014228D01*
X0166Y014236D01*
X016597Y014245D01*
X016593Y014253D01*
X01659Y014261D01*
X016586Y01427D01*
X016582Y014278D01*
X016577Y014285D01*
X016573Y014293D01*
X016568Y014301D01*
X016563Y014308D01*
X016557Y014315D01*
X016552Y014322D01*
X016546Y014329D01*
X01654Y014336D01*
X016533Y014343D01*
X016527Y014349D01*
X01652Y014355D01*
X016513Y014361D01*
X016506Y014366D01*
X016505Y014368D01*
X0165Y014378D01*
X016498Y014388D01*
Y014407D01*
X0165Y014417D01*
X016505Y014428D01*
X016506Y014429D01*
X016513Y014435D01*
X01652Y01444D01*
X016527Y014446D01*
X016533Y014453D01*
X01654Y014459D01*
X016546Y014466D01*
X016552Y014473D01*
X016557Y01448D01*
X016563Y014487D01*
X016568Y014495D01*
X016573Y014502D01*
X016577Y01451D01*
X016582Y014518D01*
X016586Y014526D01*
X01659Y014534D01*
X016593Y014542D01*
X016597Y014551D01*
X0166Y014559D01*
X016602Y014568D01*
X016605Y014576D01*
X016607Y014585D01*
X016609Y014594D01*
X016611Y014603D01*
X016612Y014612D01*
X016613Y014621D01*
X016614Y01463D01*
X016614Y014639D01*
X016614Y014648D01*
X016614Y014657D01*
X016614Y014666D01*
X016613Y014675D01*
X016612Y014684D01*
X016611Y014693D01*
X016609Y014701D01*
X016607Y01471D01*
X016605Y014719D01*
X016602Y014728D01*
X0166Y014736D01*
X016597Y014745D01*
X016593Y014753D01*
X01659Y014761D01*
X016586Y01477D01*
X016582Y014778D01*
X016577Y014785D01*
X016573Y014793D01*
X016568Y014801D01*
X016563Y014808D01*
X016557Y014815D01*
X016552Y014822D01*
X016546Y014829D01*
X01654Y014836D01*
X016533Y014843D01*
X016527Y014849D01*
X01652Y014855D01*
X016513Y014861D01*
X016506Y014866D01*
X016499Y014872D01*
X016492Y014877D01*
X016484Y014882D01*
X016476Y014886D01*
X016469Y014891D01*
X01646Y014895D01*
X016452Y014899D01*
X016444Y014902D01*
X016436Y014906D01*
X016427Y014909D01*
X016419Y014911D01*
X01641Y014914D01*
X016401Y014916D01*
X016392Y014918D01*
X016383Y01492D01*
X016381Y01492D01*
X016358Y014961D01*
Y015068D01*
X016437D01*
Y014961D01*
X017106D01*
Y015068D01*
X017244D01*
Y014941D01*
X018425D01*
Y015068D01*
X019678D01*
X019714Y015032D01*
D02*
G37*
G36*
X022309Y015925D02*
X022315Y015925D01*
X02232Y015924D01*
X022326Y015923D01*
X022332Y015922D01*
X022337Y01592D01*
X022343Y015918D01*
X022348Y015916D01*
X022354Y015914D01*
X022359Y015911D01*
X022364Y015908D01*
X022369Y015905D01*
X022374Y015902D01*
X022378Y015898D01*
X022382Y015895D01*
X022387Y015891D01*
X022391Y015886D01*
X022394Y015882D01*
X022398Y015877D01*
X022401Y015873D01*
X022404Y015868D01*
X022407Y015863D01*
X02241Y015858D01*
X022412Y015852D01*
X022414Y015847D01*
X022416Y015841D01*
X022418Y015836D01*
X022419Y01583D01*
X02242Y015824D01*
X022421Y015819D01*
X022421Y015813D01*
X022421Y015808D01*
X022421Y015807D01*
Y014145D01*
X022412Y014131D01*
X022373Y01411D01*
X022372Y01411D01*
X022372Y01411D01*
X022369Y014111D01*
X022366Y014112D01*
X022366Y014112D01*
X022365Y014112D01*
X022352Y014117D01*
X022351Y014117D01*
X022351Y014117D01*
X022348Y014118D01*
X022345Y014118D01*
X022344Y014119D01*
X022344Y014119D01*
X02233Y014122D01*
X02233Y014122D01*
X022329Y014122D01*
X022326Y014123D01*
X022323Y014124D01*
X022323Y014124D01*
X022323Y014124D01*
X022309Y014127D01*
X022308Y014127D01*
X022308Y014127D01*
X022305Y014127D01*
X022302Y014128D01*
X022301Y014128D01*
X022301Y014128D01*
X022287Y01413D01*
X022286Y01413D01*
X022286Y01413D01*
X022283Y014131D01*
X02228Y014131D01*
X02228Y014131D01*
X022279Y014131D01*
X022265Y014132D01*
X022264Y014132D01*
X022264Y014133D01*
X022261Y014133D01*
X022258Y014133D01*
X022258Y014133D01*
X022257Y014133D01*
X022243Y014134D01*
X022242Y014134D01*
X022242Y014134D01*
X022239Y014134D01*
X022236Y014134D01*
X022236Y014134D01*
X022235Y014134D01*
X022228Y014134D01*
X022228Y014134D01*
X020669Y014134D01*
X020404Y014134D01*
X020397Y014134D01*
X020396Y014134D01*
X020395Y014134D01*
X020392Y014134D01*
X02039Y014134D01*
X020389Y014134D01*
X020388Y014134D01*
X020374Y014133D01*
X020373Y014133D01*
X020372Y014133D01*
X02037Y014133D01*
X020367Y014132D01*
X020366Y014132D01*
X020365Y014132D01*
X020351Y014131D01*
X020351Y01413D01*
X02035Y01413D01*
X020347Y01413D01*
X020345Y01413D01*
X020344Y014129D01*
X020343Y014129D01*
X020329Y014127D01*
X020328Y014127D01*
X020327Y014127D01*
X020325Y014126D01*
X020322Y014126D01*
X020321Y014126D01*
X02032Y014125D01*
X020307Y014122D01*
X020306Y014122D01*
X020305Y014122D01*
X020303Y014121D01*
X0203Y014121D01*
X020299Y01412D01*
X020298Y01412D01*
X020285Y014116D01*
X020284Y014116D01*
X020283Y014116D01*
X020281Y014115D01*
X020279Y014114D01*
X020278Y014114D01*
X020277Y014114D01*
X020264Y014109D01*
X020263Y014109D01*
X020262Y014108D01*
X02026Y014107D01*
X020257Y014107D01*
X020256Y014106D01*
X020255Y014106D01*
X020243Y014101D01*
X020242Y0141D01*
X020241Y0141D01*
X020239Y014099D01*
X020236Y014098D01*
X020236Y014097D01*
X020235Y014097D01*
X020222Y014091D01*
X020221Y01409D01*
X02022Y01409D01*
X020218Y014089D01*
X020216Y014088D01*
X020215Y014087D01*
X020214Y014087D01*
X020202Y01408D01*
X020201Y01408D01*
X020201Y014079D01*
X020198Y014078D01*
X020196Y014077D01*
X020195Y014076D01*
X020195Y014076D01*
X020183Y014068D01*
X020182Y014068D01*
X020181Y014067D01*
X020179Y014066D01*
X020179Y014066D01*
X020166Y014068D01*
X020136Y014082D01*
X020129Y014091D01*
Y015118D01*
X020129Y015126D01*
X020128Y015134D01*
X020127Y015141D01*
X020126Y015149D01*
X020125Y015157D01*
X020124Y015164D01*
X020122Y015172D01*
X02012Y015179D01*
X020117Y015187D01*
X020114Y015194D01*
X020111Y015201D01*
X020108Y015208D01*
X020105Y015215D01*
X020101Y015222D01*
X020097Y015229D01*
X020093Y015235D01*
X020088Y015241D01*
X020083Y015247D01*
X020079Y015253D01*
X020073Y015259D01*
X020068Y015265D01*
X019911Y015422D01*
X019905Y015428D01*
X019899Y015433D01*
X019893Y015438D01*
X019887Y015443D01*
X019881Y015447D01*
X019874Y015451D01*
X019868Y015455D01*
X019861Y015459D01*
X019854Y015463D01*
X019847Y015466D01*
X01984Y015469D01*
X019832Y015471D01*
X019825Y015474D01*
X019817Y015476D01*
X01981Y015478D01*
X019802Y015479D01*
X019795Y015481D01*
X019787Y015482D01*
X019779Y015483D01*
X019772Y015483D01*
X019764Y015483D01*
X018425D01*
Y015925D01*
X022303D01*
X022304Y015925D01*
X022309Y015925D01*
D02*
G37*
G36*
X022228Y013976D02*
X022235Y013976D01*
X022249Y013976D01*
X022264Y013974D01*
X022278Y013972D01*
X022292Y013969D01*
X022306Y013966D01*
X02232Y013962D01*
X022333Y013957D01*
X022346Y013951D01*
X022359Y013945D01*
X022372Y013939D01*
X022384Y013931D01*
X022396Y013923D01*
X022408Y013915D01*
X022419Y013906D01*
X022429Y013896D01*
X022439Y013886D01*
X022449Y013875D01*
X022458Y013864D01*
X022467Y013853D01*
X022475Y013841D01*
X022482Y013829D01*
X022489Y013816D01*
X022495Y013803D01*
X0225Y01379D01*
X022505Y013776D01*
X022509Y013763D01*
X022513Y013749D01*
X022515Y013735D01*
X022518Y01372D01*
X022519Y013706D01*
X02252Y013692D01*
X02252Y013685D01*
X02252Y011569D01*
X02252Y011569D01*
X02252Y011565D01*
X022519Y011558D01*
X022517Y01155D01*
X022515Y011543D01*
X022512Y011535D01*
X022509Y011529D01*
X022504Y011522D01*
X022499Y011516D01*
X022494Y011511D01*
X022488Y011506D01*
X022481Y011501D01*
X022475Y011498D01*
X022468Y011495D01*
X02246Y011493D01*
X022453Y011491D01*
X022445Y01149D01*
X022441Y01149D01*
X020945D01*
X020941Y01149D01*
X020933Y011491D01*
X020926Y011493D01*
X020918Y011495D01*
X020911Y011498D01*
X020904Y011501D01*
X020898Y011506D01*
X020892Y01151D01*
X020887Y011516D01*
X020882Y011522D01*
X020877Y011528D01*
X020874Y011535D01*
X020871Y011542D01*
X020868Y011549D01*
X020867Y011557D01*
X020866Y011565D01*
X020866Y011568D01*
X020866Y012441D01*
X020866Y012441D01*
X020866Y012444D01*
X020865Y012451D01*
X020864Y012458D01*
X020862Y012464D01*
X020859Y01247D01*
X020856Y012476D01*
X020852Y012482D01*
X020848Y012487D01*
X020843Y012492D01*
X020838Y012496D01*
X020832Y0125D01*
X020826Y012503D01*
X02082Y012506D01*
X020814Y012508D01*
X020807Y012509D01*
X0208Y01251D01*
X020797Y01251D01*
X020524Y01251D01*
X020521Y01251D01*
X020516Y012509D01*
X020511Y012508D01*
X020506Y012507D01*
X020502Y012505D01*
X020497Y012503D01*
X020493Y0125D01*
X020489Y012497D01*
X020486Y012493D01*
X020483Y012489D01*
X02048Y012485D01*
X020477Y01248D01*
X020475Y012476D01*
X020474Y012471D01*
X020473Y012466D01*
X020473Y012461D01*
X020472Y012459D01*
Y010242D01*
Y010238D01*
X020472Y010228D01*
X02047Y010219D01*
X020468Y01021D01*
X020465Y010201D01*
X020462Y010193D01*
X020457Y010184D01*
X020453Y010177D01*
X020447Y010169D01*
X020441Y010162D01*
X020435Y010155D01*
X020428Y010149D01*
X02042Y010144D01*
X020412Y010139D01*
X020404Y010135D01*
X020395Y010131D01*
X020386Y010128D01*
X020377Y010126D01*
X020368Y010125D01*
X020359Y010124D01*
X020354D01*
X019272Y010124D01*
X019272D01*
X019268Y010124D01*
X019261Y010125D01*
X019253Y010126D01*
X019245Y010128D01*
X019238Y01013D01*
X019231Y010133D01*
X019224Y010137D01*
X019217Y010141D01*
X019211Y010145D01*
X019205Y01015D01*
X019199Y010156D01*
X019194Y010162D01*
X01919Y010168D01*
X019186Y010175D01*
X019182Y010182D01*
X019179Y010189D01*
X019177Y010196D01*
X019175Y010204D01*
X019174Y010211D01*
X019173Y010219D01*
X019173Y010223D01*
X019173Y013228D01*
Y013232D01*
X019174Y01324D01*
X019175Y013247D01*
X019178Y013255D01*
X019181Y013262D01*
X019184Y013269D01*
X019189Y013275D01*
X019194Y013281D01*
X019199Y013287D01*
X019205Y013292D01*
X019211Y013296D01*
X019218Y0133D01*
X019225Y013303D01*
X019233Y013305D01*
X01924Y013306D01*
X019248Y013307D01*
X020079D01*
X020083Y013307D01*
X02009Y013308D01*
X020098Y013309D01*
X020105Y013311D01*
X020112Y013314D01*
X020119Y013317D01*
X020125Y013321D01*
X020131Y013326D01*
X020136Y013331D01*
X020141Y013337D01*
X020146Y013343D01*
X020149Y01335D01*
X020152Y013357D01*
X020155Y013364D01*
X020156Y013371D01*
X020157Y013379D01*
X020157Y013383D01*
X020157Y01373D01*
X020157Y01373D01*
X020157Y013737D01*
X020158Y013751D01*
X02016Y013765D01*
X020162Y013778D01*
X020165Y013792D01*
X020169Y013805D01*
X020174Y013818D01*
X020179Y013831D01*
X020185Y013843D01*
X020192Y013855D01*
X020199Y013867D01*
X020207Y013878D01*
X020215Y013889D01*
X020225Y013899D01*
X020234Y013909D01*
X020245Y013918D01*
X020256Y013927D01*
X020267Y013935D01*
X020278Y013942D01*
X020291Y013949D01*
X020303Y013955D01*
X020316Y01396D01*
X020329Y013965D01*
X020342Y013969D01*
X020356Y013972D01*
X020369Y013974D01*
X020383Y013976D01*
X020397Y013976D01*
X020404Y013976D01*
X020669Y013976D01*
X022228Y013976D01*
X022228Y013976D01*
D02*
G37*
G36*
X015404Y013937D02*
X015411Y013937D01*
X015426Y013931D01*
X015437Y01392D01*
X015443Y013905D01*
X015443Y013898D01*
X015443Y013898D01*
Y013888D01*
X015443Y013882D01*
X015448Y013871D01*
X015456Y013863D01*
X015467Y013859D01*
X015472Y013858D01*
X015472Y013858D01*
X016394D01*
X016441Y013839D01*
X016477Y013803D01*
X016496Y013756D01*
Y01373D01*
X016496Y013543D01*
X016496Y013517D01*
X016476Y013469D01*
X016439Y013432D01*
X016391Y013412D01*
X016365Y013412D01*
X016365D01*
X016365D01*
D01*
X015459Y013412D01*
X015447Y013411D01*
X015423Y013401D01*
X015405Y013383D01*
X015395Y013359D01*
X015394Y013346D01*
Y012165D01*
X015395Y01215D01*
X015407Y012122D01*
X015429Y0121D01*
X015457Y012088D01*
X015472Y012087D01*
X015472D01*
X015717Y012087D01*
X015739Y012087D01*
X015779Y01207D01*
X01581Y012039D01*
X015827Y011998D01*
X015827Y011977D01*
X015827Y011977D01*
X015827Y010157D01*
X015827Y01015D01*
X015821Y010135D01*
X01581Y010124D01*
X015795Y010118D01*
X015787Y010118D01*
X014803D01*
X014795Y010118D01*
X014781Y010124D01*
X01477Y010135D01*
X014764Y01015D01*
X014764Y010157D01*
Y010157D01*
Y013858D01*
X014764Y013874D01*
X014776Y013903D01*
X014798Y013925D01*
X014827Y013937D01*
X014843Y013937D01*
X014843Y013937D01*
X015315D01*
X015404Y013937D01*
D02*
G37*
G36*
X0118Y013875D02*
Y012559D01*
X011801Y012551D01*
X011801Y012544D01*
X011802Y012536D01*
X011803Y012528D01*
X011804Y01252D01*
X011806Y012513D01*
X011807Y012505D01*
X01181Y012498D01*
X011812Y012491D01*
X011815Y012483D01*
X011818Y012476D01*
X011821Y012469D01*
X011824Y012462D01*
X011828Y012455D01*
X011832Y012449D01*
X011836Y012442D01*
X011841Y012436D01*
X011846Y01243D01*
X011851Y012424D01*
X011856Y012418D01*
X011861Y012412D01*
X01194Y012334D01*
X011945Y012328D01*
X011951Y012323D01*
X011957Y012318D01*
X011963Y012313D01*
X01197Y012309D01*
X011976Y012305D01*
X011983Y012301D01*
X01199Y012297D01*
X011997Y012293D01*
X012004Y01229D01*
X012011Y012287D01*
X012018Y012284D01*
X012025Y012282D01*
X012033Y01228D01*
X01204Y012278D01*
X012048Y012276D01*
X012056Y012275D01*
X012063Y012274D01*
X012071Y012273D01*
X012079Y012273D01*
X012087Y012273D01*
Y012146D01*
X012476D01*
X012489Y012129D01*
X012494Y0121D01*
X012494Y012096D01*
X012493Y012095D01*
X012491Y012093D01*
X01249Y012092D01*
X01249Y012092D01*
X012488Y01209D01*
X012486Y012088D01*
X012479Y012081D01*
X012477Y012079D01*
X012475Y012077D01*
X012475Y012077D01*
X012474Y012076D01*
X012472Y012074D01*
X012471Y012072D01*
X012465Y012065D01*
X012463Y012063D01*
X012461Y012061D01*
X012461Y01206D01*
X01246Y01206D01*
X012459Y012058D01*
X012457Y012056D01*
X012451Y012048D01*
X01245Y012046D01*
X012448Y012044D01*
X012448Y012043D01*
X012448Y012042D01*
X012446Y01204D01*
X012445Y012038D01*
X01244Y01203D01*
X012438Y012027D01*
X012437Y012025D01*
X012437Y012024D01*
X012436Y012024D01*
X012435Y012021D01*
X012434Y012019D01*
X012429Y012011D01*
X012428Y012008D01*
X012427Y012006D01*
X012427Y012005D01*
X012426Y012005D01*
X012425Y012002D01*
X012424Y012D01*
X012421Y011991D01*
X01242Y011988D01*
X012419Y011986D01*
X012419Y011985D01*
X012418Y011985D01*
X012417Y011982D01*
X012416Y011979D01*
X012414Y011971D01*
X012413Y011968D01*
X012412Y011965D01*
X012412Y011965D01*
X012412Y011964D01*
X012411Y011961D01*
X01241Y011959D01*
X012408Y01195D01*
X012407Y011947D01*
X012407Y011944D01*
X012407Y011944D01*
X012407Y011943D01*
X012406Y01194D01*
X012406Y011937D01*
X012404Y011928D01*
X012404Y011926D01*
X012403Y011923D01*
X012403Y011922D01*
X012403Y011921D01*
X012403Y011919D01*
X012403Y011916D01*
X012402Y011907D01*
X012402Y011904D01*
X012402Y011901D01*
X012402Y011901D01*
X012402Y0119D01*
X012402Y011897D01*
X012402Y011894D01*
Y011299D01*
X011888D01*
X011881Y011302D01*
X011872Y011307D01*
X01187Y011308D01*
X011852Y011335D01*
X011848Y011346D01*
X011848Y011349D01*
X011848Y01135D01*
X011849Y011355D01*
X011849Y011355D01*
X011849Y011355D01*
X011849Y011358D01*
X01185Y011362D01*
X01185Y011362D01*
X01185Y011362D01*
X01185Y011365D01*
X01185Y011368D01*
X01185Y011369D01*
X01185Y011369D01*
X01185Y011372D01*
X01185Y011375D01*
X01185Y011375D01*
X01185Y011375D01*
X01185Y011378D01*
X01185Y011378D01*
X01185Y012126D01*
X01185Y01213D01*
X01185Y012131D01*
X01185Y012132D01*
X01185Y012134D01*
X01185Y012137D01*
X01185Y012138D01*
X01185Y012138D01*
X01185Y012141D01*
X01185Y012144D01*
X01185Y012144D01*
X01185Y012145D01*
X011849Y012153D01*
X011849Y012154D01*
X011849Y012155D01*
X011848Y012157D01*
X011848Y01216D01*
X011848Y012161D01*
X011848Y012162D01*
X011847Y012164D01*
X011847Y012167D01*
X011847Y012167D01*
X011847Y012168D01*
X011845Y012176D01*
X011845Y012177D01*
X011845Y012178D01*
X011844Y01218D01*
X011844Y012183D01*
X011843Y012183D01*
X011843Y012184D01*
X011843Y012187D01*
X011842Y012189D01*
X011842Y01219D01*
X011841Y012191D01*
X011839Y012198D01*
X011839Y012199D01*
X011839Y0122D01*
X011838Y012202D01*
X011837Y012205D01*
X011837Y012206D01*
X011836Y012206D01*
X011835Y012209D01*
X011835Y012211D01*
X011834Y012212D01*
X011834Y012213D01*
X011831Y01222D01*
X011831Y012221D01*
X01183Y012222D01*
X011829Y012224D01*
X011828Y012226D01*
X011828Y012227D01*
X011827Y012228D01*
X011826Y01223D01*
X011825Y012232D01*
X011825Y012233D01*
X011824Y012234D01*
X011821Y012241D01*
X01182Y012241D01*
X01182Y012242D01*
X011819Y012245D01*
X011817Y012247D01*
X011817Y012247D01*
X011816Y012248D01*
X011815Y01225D01*
X011814Y012253D01*
X011813Y012253D01*
X011813Y012254D01*
X011811Y012257D01*
Y012296D01*
X011778D01*
X011777Y012297D01*
X011775Y012299D01*
X011774Y012301D01*
X011773Y012301D01*
X011772Y012302D01*
X01177Y012303D01*
X011768Y012305D01*
X011768Y012306D01*
X011767Y012306D01*
X011761Y012311D01*
X01176Y012312D01*
X01176Y012312D01*
X011758Y012314D01*
X011756Y012315D01*
X011755Y012316D01*
X011754Y012316D01*
X011752Y012318D01*
X01175Y012319D01*
X011749Y01232D01*
X011749Y01232D01*
X011742Y012325D01*
X011741Y012325D01*
X011741Y012326D01*
X011739Y012327D01*
X011736Y012328D01*
X011736Y012329D01*
X011735Y012329D01*
X011733Y01233D01*
X01173Y012332D01*
X01173Y012332D01*
X011729Y012333D01*
X011722Y012336D01*
X011721Y012337D01*
X011721Y012337D01*
X011718Y012338D01*
X011716Y012339D01*
X011715Y01234D01*
X011714Y01234D01*
X011712Y012341D01*
X01171Y012342D01*
X011709Y012342D01*
X011708Y012343D01*
X011701Y012346D01*
X0117Y012346D01*
X011699Y012346D01*
X011697Y012347D01*
X011695Y012348D01*
X011694Y012349D01*
X011693Y012349D01*
X011691Y01235D01*
X011688Y01235D01*
X011687Y012351D01*
X011686Y012351D01*
X011679Y012353D01*
X011678Y012353D01*
X011677Y012354D01*
X011675Y012354D01*
X011672Y012355D01*
X011672Y012355D01*
X011671Y012355D01*
X011668Y012356D01*
X011666Y012357D01*
X011665Y012357D01*
X011664Y012357D01*
X011656Y012358D01*
X011656Y012359D01*
X011655Y012359D01*
X011652Y012359D01*
X01165Y01236D01*
X011649Y01236D01*
X011648Y01236D01*
X011645Y01236D01*
X011643Y012361D01*
X011642Y012361D01*
X011641Y012361D01*
X011633Y012361D01*
X011633Y012362D01*
X011632Y012362D01*
X011629Y012362D01*
X011627Y012362D01*
X011626Y012362D01*
X011625Y012362D01*
X011622Y012362D01*
X01162Y012362D01*
X011619Y012362D01*
X011618Y012362D01*
X011614Y012362D01*
X011614Y012362D01*
X010227Y012362D01*
X010177Y012412D01*
Y013673D01*
X010188Y013684D01*
X01021Y013694D01*
X010227Y013698D01*
X010234Y013694D01*
X010244Y013687D01*
X010255Y01368D01*
X010266Y013674D01*
X010277Y013667D01*
X010288Y013661D01*
X010299Y013656D01*
X010311Y01365D01*
X010322Y013645D01*
X010334Y01364D01*
X010346Y013636D01*
X010358Y013632D01*
X01037Y013628D01*
X010382Y013624D01*
X010394Y01362D01*
X010406Y013617D01*
X010419Y013614D01*
X010431Y013612D01*
X010443Y01361D01*
X010456Y013608D01*
X010468Y013606D01*
X010481Y013605D01*
X010494Y013604D01*
X010506Y013603D01*
X010519Y013602D01*
X010532Y013602D01*
X01128D01*
X011292Y013602D01*
X011305Y013603D01*
X011317Y013604D01*
X01133Y013605D01*
X011343Y013606D01*
X011355Y013608D01*
X011368Y01361D01*
X01138Y013612D01*
X011393Y013614D01*
X011405Y013617D01*
X011417Y01362D01*
X011429Y013624D01*
X011441Y013628D01*
X011453Y013632D01*
X011465Y013636D01*
X011477Y01364D01*
X011489Y013645D01*
X0115Y01365D01*
X011512Y013656D01*
X011523Y013661D01*
X011534Y013667D01*
X011545Y013674D01*
X011556Y01368D01*
X011567Y013687D01*
X011577Y013694D01*
X011588Y013701D01*
X011598Y013708D01*
X011608Y013716D01*
X011618Y013724D01*
X011628Y013732D01*
X011637Y013741D01*
X011646Y013749D01*
X011655Y013758D01*
X011664Y013767D01*
X011673Y013776D01*
X011681Y013786D01*
X011689Y013795D01*
X011697Y013805D01*
X011705Y013815D01*
X011712Y013826D01*
X01172Y013836D01*
X011727Y013846D01*
X011733Y013857D01*
X01174Y013868D01*
X011746Y013879D01*
X011752Y01389D01*
X0118Y013875D01*
D02*
G37*
G36*
X018677Y013306D02*
X018687Y013305D01*
X018697Y013303D01*
X018707Y0133D01*
X018717Y013297D01*
X018726Y013293D01*
X018736Y013289D01*
X018745Y013283D01*
X018753Y013278D01*
X018761Y013271D01*
X018769Y013265D01*
X018776Y013257D01*
X018783Y01325D01*
X018789Y013241D01*
X018795Y013233D01*
X0188Y013224D01*
X018805Y013215D01*
X018809Y013205D01*
X018812Y013195D01*
X018815Y013185D01*
X018817Y013175D01*
X018818Y013165D01*
X018819Y013155D01*
Y01315D01*
Y010208D01*
Y010204D01*
X018818Y010196D01*
X018817Y010189D01*
X018814Y010181D01*
X018811Y010174D01*
X018808Y010167D01*
X018803Y010161D01*
X018799Y010155D01*
X018793Y01015D01*
X018787Y010145D01*
X018781Y01014D01*
X018774Y010137D01*
X018767Y010134D01*
X018759Y010131D01*
X018752Y01013D01*
X018744Y010129D01*
X017863D01*
X01786Y010129D01*
X017853Y01013D01*
X017846Y010131D01*
X01784Y010133D01*
X017834Y010136D01*
X017828Y010139D01*
X017823Y010142D01*
X017817Y010147D01*
X017813Y010151D01*
X017809Y010157D01*
X017805Y010162D01*
X017802Y010168D01*
X017799Y010174D01*
X017797Y01018D01*
X017796Y010187D01*
X017795Y010194D01*
X017795Y010197D01*
Y011457D01*
X017795Y011461D01*
X017794Y011468D01*
X017793Y011476D01*
X017791Y011483D01*
X017788Y01149D01*
X017784Y011497D01*
X01778Y011504D01*
X017775Y01151D01*
X017769Y011515D01*
X017763Y01152D01*
X017757Y011524D01*
X01775Y011528D01*
X017743Y011531D01*
X017736Y011533D01*
X017728Y011535D01*
X01772Y011535D01*
X017717Y011535D01*
X01685D01*
X016847Y011535D01*
X016839Y011536D01*
X016831Y011538D01*
X016824Y01154D01*
X016817Y011543D01*
X01681Y011547D01*
X016803Y011551D01*
X016797Y011556D01*
X016792Y011561D01*
X016787Y011567D01*
X016783Y011574D01*
X016779Y01158D01*
X016776Y011588D01*
X016774Y011595D01*
X016772Y011603D01*
X016772Y01161D01*
X016772Y011614D01*
Y012638D01*
X016772Y012642D01*
X016772Y012649D01*
X016774Y012657D01*
X016776Y012664D01*
X016779Y012672D01*
X016783Y012678D01*
X016787Y012685D01*
X016792Y012691D01*
X016797Y012696D01*
X016803Y012701D01*
X01681Y012705D01*
X016817Y012709D01*
X016824Y012712D01*
X016831Y012714D01*
X016839Y012716D01*
X016847Y012717D01*
X01685Y012717D01*
X017678Y012717D01*
X017678D01*
X017682Y012717D01*
X01769Y012717D01*
X017698Y012719D01*
X017705Y01272D01*
X017713Y012723D01*
X01772Y012726D01*
X017727Y01273D01*
X017734Y012734D01*
X01774Y012739D01*
X017746Y012744D01*
X017752Y012749D01*
X017757Y012755D01*
X017762Y012762D01*
X017766Y012769D01*
X01777Y012776D01*
X017773Y012783D01*
X017775Y012791D01*
X017777Y012798D01*
X017778Y012806D01*
X017779Y012814D01*
X017779Y012818D01*
X017779Y013228D01*
Y013232D01*
X017779Y01324D01*
X017781Y013247D01*
X017783Y013255D01*
X017786Y013262D01*
X01779Y013269D01*
X017794Y013275D01*
X017799Y013281D01*
X017805Y013287D01*
X017811Y013292D01*
X017817Y013296D01*
X017824Y0133D01*
X017831Y013303D01*
X017838Y013305D01*
X017846Y013306D01*
X017854Y013307D01*
X018667D01*
X018677Y013306D01*
D02*
G37*
G36*
X014114Y013425D02*
X014606D01*
Y011968D01*
X013959D01*
X01395Y011973D01*
X013917Y011994D01*
X013917Y011995D01*
X013917Y011997D01*
X013917Y011999D01*
X013917Y012D01*
X013917Y012002D01*
X013917Y012004D01*
X013917Y012006D01*
X013916Y012007D01*
X013916Y012009D01*
X013916Y012011D01*
X013916Y012012D01*
X013916Y012014D01*
X013915Y012016D01*
X013915Y012017D01*
X013915Y012019D01*
X013914Y012021D01*
X013914Y012025D01*
X013913Y012026D01*
X013913Y012028D01*
X013912Y01203D01*
X013912Y012031D01*
X013912Y012033D01*
X013911Y012035D01*
X013911Y012036D01*
X01391Y012038D01*
X01391Y01204D01*
X013909Y012041D01*
X013909Y012043D01*
X013908Y012045D01*
X013908Y012046D01*
X013907Y012048D01*
X013906Y012049D01*
X013906Y012051D01*
X013905Y012053D01*
X013905Y012054D01*
X013903Y012058D01*
X013902Y012059D01*
X013902Y012061D01*
X013901Y012062D01*
X0139Y012064D01*
X0139Y012066D01*
X013899Y012067D01*
X013898Y012069D01*
X013897Y01207D01*
X013897Y012072D01*
X013896Y012073D01*
X013895Y012075D01*
X013894Y012076D01*
X013893Y012078D01*
X013892Y012079D01*
X013891Y012081D01*
X01389Y012082D01*
X01389Y012084D01*
X013889Y012085D01*
X013886Y012088D01*
X013885Y01209D01*
X013884Y012091D01*
X013883Y012092D01*
X013882Y012094D01*
X013881Y012095D01*
X01388Y012097D01*
X013879Y012098D01*
X013878Y012099D01*
X013878Y0121D01*
Y012126D01*
X013852D01*
X013851Y012126D01*
X01385Y012127D01*
X013849Y012128D01*
X013847Y012129D01*
X013846Y012131D01*
X013844Y012131D01*
X013843Y012133D01*
X013842Y012133D01*
X01384Y012134D01*
X013837Y012137D01*
X013836Y012138D01*
X013834Y012139D01*
X013833Y012139D01*
X013831Y01214D01*
X01383Y012141D01*
X013828Y012142D01*
X013827Y012143D01*
X013825Y012144D01*
X013824Y012145D01*
X013822Y012145D01*
X013821Y012146D01*
X013819Y012147D01*
X013818Y012148D01*
X013816Y012148D01*
X013814Y012149D01*
X013813Y01215D01*
X013811Y01215D01*
X01381Y012151D01*
X013806Y012153D01*
X013805Y012153D01*
X013803Y012154D01*
X013801Y012155D01*
X0138Y012155D01*
X013798Y012156D01*
X013797Y012156D01*
X013795Y012157D01*
X013793Y012157D01*
X013792Y012158D01*
X01379Y012158D01*
X013788Y012159D01*
X013787Y012159D01*
X013785Y01216D01*
X013783Y01216D01*
X013782Y01216D01*
X01378Y012161D01*
X013778Y012161D01*
X013777Y012162D01*
X013773Y012162D01*
X013771Y012163D01*
X013769Y012163D01*
X013768Y012163D01*
X013766Y012164D01*
X013764Y012164D01*
X013763Y012164D01*
X013761Y012164D01*
X013759Y012164D01*
X013757Y012165D01*
X013756Y012165D01*
X013754Y012165D01*
X013752Y012165D01*
X013751Y012165D01*
X013749Y012165D01*
X013747Y012165D01*
X013746Y012165D01*
X013744D01*
X013742Y012165D01*
X01374Y012165D01*
X013268Y012165D01*
Y012736D01*
Y012863D01*
X013307D01*
X013315Y012864D01*
X013323Y012864D01*
X01333Y012865D01*
X013338Y012866D01*
X013346Y012867D01*
X013353Y012869D01*
X013361Y01287D01*
X013368Y012873D01*
X013376Y012875D01*
X013383Y012878D01*
X01339Y012881D01*
X013397Y012884D01*
X013404Y012887D01*
X013411Y012891D01*
X013417Y012895D01*
X013424Y012899D01*
X01343Y012904D01*
X013436Y012909D01*
X013442Y012914D01*
X013448Y012919D01*
X013454Y012924D01*
X013533Y013003D01*
X013538Y013008D01*
X013543Y013014D01*
X013548Y01302D01*
X013553Y013026D01*
X013557Y013033D01*
X013562Y013039D01*
X013566Y013046D01*
X013569Y013053D01*
X013573Y01306D01*
X013576Y013067D01*
X013579Y013074D01*
X013582Y013081D01*
X013584Y013088D01*
X013586Y013096D01*
X013588Y013103D01*
X01359Y013111D01*
X013591Y013119D01*
X013592Y013126D01*
X013593Y013134D01*
X013593Y013142D01*
X013593Y01315D01*
Y013346D01*
X014035D01*
Y013533D01*
X014114D01*
Y013425D01*
D02*
G37*
G36*
X011614Y012205D02*
X011618Y012205D01*
X011626Y012204D01*
X011633Y012202D01*
X011641Y0122D01*
X011648Y012197D01*
X011655Y012194D01*
X011661Y012189D01*
X011667Y012184D01*
X011673Y012179D01*
X011677Y012173D01*
X011682Y012167D01*
X011685Y01216D01*
X011688Y012153D01*
X011691Y012145D01*
X011692Y012138D01*
X011693Y01213D01*
X011693Y012126D01*
X011693Y011378D01*
X011693Y011378D01*
X011693Y011375D01*
X011692Y01137D01*
X011691Y011365D01*
X011689Y01136D01*
X011686Y011356D01*
X011683Y011352D01*
X01168Y011348D01*
X011675Y011345D01*
X011671Y011343D01*
X011666Y011341D01*
X011661Y011339D01*
X011656Y011339D01*
X011654Y011339D01*
X011063Y011339D01*
X011063Y011339D01*
X011059Y011338D01*
X011051Y011338D01*
X011044Y011336D01*
X011036Y011334D01*
X011029Y011331D01*
X011023Y011327D01*
X011016Y011323D01*
X01101Y011318D01*
X011005Y011313D01*
X011Y011307D01*
X010995Y0113D01*
X010992Y011294D01*
X010989Y011286D01*
X010987Y011279D01*
X010985Y011271D01*
X010984Y011264D01*
X010984Y01126D01*
X010984Y010354D01*
X010984Y010354D01*
X010984Y010352D01*
X010984Y010347D01*
X010982Y010342D01*
X01098Y010337D01*
X010978Y010332D01*
X010975Y010328D01*
X010971Y010325D01*
X010967Y010322D01*
X010962Y010319D01*
X010958Y010317D01*
X010953Y010316D01*
X010947Y010315D01*
X010945Y010315D01*
X010157Y010315D01*
X010157Y010315D01*
X010155Y010315D01*
X01015Y010316D01*
X010145Y010317D01*
X01014Y010319D01*
X010135Y010322D01*
X010131Y010326D01*
X010127Y010329D01*
X010124Y010334D01*
X010122Y010338D01*
X01012Y010343D01*
X010119Y010348D01*
X010118Y010354D01*
X010118Y010356D01*
X010118Y012145D01*
X010118D01*
Y012148D01*
X010119Y012154D01*
X01012Y01216D01*
X010122Y012165D01*
X010124Y012171D01*
X010127Y012176D01*
X01013Y012181D01*
X010133Y012185D01*
X010138Y012189D01*
X010142Y012193D01*
X010147Y012196D01*
X010152Y012199D01*
X010158Y012201D01*
X010163Y012203D01*
X010169Y012204D01*
X010175Y012205D01*
X010178D01*
X011614Y012205D01*
X011614Y012205D01*
D02*
G37*
G36*
X01374Y012008D02*
X013742Y012008D01*
X013746Y012007D01*
X013749Y012006D01*
X013753Y012003D01*
X013755Y012001D01*
X013758Y011998D01*
X013759Y011994D01*
X01376Y01199D01*
X01376Y011988D01*
X01376Y011988D01*
X01376Y010157D01*
X01376Y010155D01*
X013759Y01015D01*
X013758Y010145D01*
X013756Y01014D01*
X013753Y010136D01*
X01375Y010131D01*
X013746Y010128D01*
X013742Y010125D01*
X013738Y010122D01*
X013733Y01012D01*
X013728Y010119D01*
X013723Y010118D01*
X01372Y010118D01*
X01372Y010118D01*
X011772Y010118D01*
X011768Y010118D01*
X01176Y010119D01*
X011753Y01012D01*
X011745Y010123D01*
X011738Y010126D01*
X011731Y010129D01*
X011725Y010134D01*
X011719Y010138D01*
X011713Y010144D01*
X011708Y01015D01*
X011704Y010156D01*
X0117Y010163D01*
X011697Y01017D01*
X011695Y010178D01*
X011694Y010185D01*
X011693Y010193D01*
X011693Y010197D01*
Y010197D01*
X011693Y011063D01*
X011693Y011067D01*
X011694Y011075D01*
X011695Y011082D01*
X011697Y01109D01*
X0117Y011097D01*
X011704Y011104D01*
X011708Y01111D01*
X011713Y011116D01*
X011719Y011121D01*
X011725Y011126D01*
X011731Y011131D01*
X011738Y011134D01*
X011745Y011137D01*
X011753Y011139D01*
X01176Y011141D01*
X011768Y011142D01*
X011772Y011142D01*
X011772Y011142D01*
X012441D01*
X012446Y011142D01*
X012455Y011143D01*
X012464Y011144D01*
X012473Y011146D01*
X012482Y011149D01*
X01249Y011153D01*
X012499Y011157D01*
X012507Y011162D01*
X012514Y011167D01*
X012521Y011173D01*
X012528Y01118D01*
X012534Y011187D01*
X012539Y011194D01*
X012544Y011202D01*
X012548Y01121D01*
X012552Y011219D01*
X012555Y011228D01*
X012557Y011237D01*
X012558Y011246D01*
X012559Y011255D01*
X012559Y01126D01*
Y01189D01*
Y011894D01*
X01256Y011904D01*
X012561Y011913D01*
X012563Y011922D01*
X012566Y011931D01*
X01257Y011939D01*
X012574Y011948D01*
X012579Y011955D01*
X012584Y011963D01*
X01259Y01197D01*
X012597Y011977D01*
X012604Y011983D01*
X012611Y011988D01*
X012619Y011993D01*
X012628Y011997D01*
X012636Y012001D01*
X012645Y012004D01*
X012654Y012006D01*
X012663Y012007D01*
X012673Y012008D01*
X012677D01*
X01374Y012008D01*
D02*
G37*
G36*
X020709Y012336D02*
X020709Y011568D01*
X020709Y011568D01*
X020709Y011568D01*
X020709Y011564D01*
X020709Y011563D01*
X020709Y011562D01*
X020709Y01156D01*
X020709Y011557D01*
X020709Y011556D01*
X020709Y011555D01*
X020709Y011553D01*
X020709Y01155D01*
X020709Y011549D01*
X020709Y011549D01*
X02071Y011541D01*
X02071Y01154D01*
X02071Y011539D01*
X020711Y011537D01*
X020711Y011534D01*
X020711Y011533D01*
X020711Y011532D01*
X020712Y01153D01*
X020712Y011527D01*
X020712Y011526D01*
X020713Y011526D01*
X020714Y011518D01*
X020714Y011517D01*
X020714Y011516D01*
X020715Y011514D01*
X020716Y011511D01*
X020716Y01151D01*
X020716Y01151D01*
X020717Y011507D01*
X020717Y011505D01*
X020718Y011504D01*
X020718Y011503D01*
X02072Y011496D01*
X02072Y011495D01*
X020721Y011494D01*
X020722Y011492D01*
X020722Y011489D01*
X020723Y011488D01*
X020723Y011488D01*
X020724Y011485D01*
X020725Y011483D01*
X020725Y011482D01*
X020725Y011481D01*
X020728Y011474D01*
X020729Y011473D01*
X020729Y011472D01*
X02073Y01147D01*
X020731Y011468D01*
X020732Y011467D01*
X020732Y011466D01*
X020733Y011464D01*
X020734Y011462D01*
X020735Y011461D01*
X020735Y01146D01*
X020739Y011453D01*
X020739Y011453D01*
X02074Y011452D01*
X020741Y01145D01*
X020742Y011447D01*
X020743Y011447D01*
X020743Y011446D01*
X020744Y011444D01*
X020746Y011442D01*
X020746Y011441D01*
X020747Y01144D01*
X020751Y011434D01*
X020752Y011433D01*
X020752Y011432D01*
X020754Y01143D01*
X020755Y011428D01*
X020756Y011427D01*
X020756Y011427D01*
X020758Y011425D01*
X020759Y011423D01*
X02076Y011422D01*
X02076Y011421D01*
X020765Y011415D01*
X020766Y011415D01*
X020766Y011414D01*
X020768Y011412D01*
X02077Y01141D01*
X02077Y01141D01*
X020771Y011409D01*
X020773Y011407D01*
X020774Y011405D01*
X020775Y011405D01*
X020776Y011404D01*
X020781Y011399D01*
X020782Y011398D01*
X020782Y011397D01*
X020784Y011396D01*
X020786Y011394D01*
X020787Y011393D01*
X020787Y011393D01*
X020789Y011391D01*
X020791Y011389D01*
X020792Y011389D01*
X020793Y011388D01*
X020799Y011383D01*
X020799Y011383D01*
X0208Y011382D01*
X020802Y011381D01*
X020804Y011379D01*
X020805Y011379D01*
X020805Y011378D01*
X020808Y011377D01*
X02081Y011375D01*
X02081Y011375D01*
X020811Y011374D01*
X020817Y01137D01*
X020818Y011369D01*
X020819Y011369D01*
X020821Y011368D01*
X020823Y011366D01*
X020824Y011366D01*
X020825Y011365D01*
X020827Y011364D01*
X020829Y011363D01*
X02083Y011362D01*
X020831Y011362D01*
X020838Y011358D01*
X020838Y011358D01*
X020839Y011358D01*
X020841Y011357D01*
X020844Y011355D01*
X020845Y011355D01*
X020845Y011355D01*
X020848Y011354D01*
X02085Y011353D01*
X020851Y011352D01*
X020852Y011352D01*
X020859Y011349D01*
X02086Y011349D01*
X02086Y011348D01*
X020863Y011347D01*
X020865Y011347D01*
X020866Y011346D01*
X020867Y011346D01*
X020869Y011345D01*
X020872Y011344D01*
X020873Y011344D01*
X020873Y011344D01*
X020881Y011342D01*
X020882Y011341D01*
X020882Y011341D01*
X020885Y01134D01*
X020887Y01134D01*
X020888Y01134D01*
X020889Y011339D01*
X020892Y011339D01*
X020894Y011338D01*
X020895Y011338D01*
X020896Y011338D01*
X020903Y011336D01*
X020904Y011336D01*
X020905Y011336D01*
X020907Y011336D01*
X02091Y011335D01*
X020911Y011335D01*
X020912Y011335D01*
X020914Y011335D01*
X020917Y011334D01*
X020918Y011334D01*
X020919Y011334D01*
X020926Y011334D01*
X020927Y011333D01*
X020928Y011333D01*
X020931Y011333D01*
X020933Y011333D01*
X020934Y011333D01*
X020935Y011333D01*
X020937Y011333D01*
X02094Y011333D01*
X020941Y011333D01*
X020942Y011333D01*
X020945Y011333D01*
X022421D01*
Y010295D01*
X022421Y010295D01*
X022421Y010289D01*
X022421Y010284D01*
X02242Y010278D01*
X022419Y010272D01*
X022418Y010267D01*
X022416Y010261D01*
X022414Y010255D01*
X022412Y01025D01*
X02241Y010245D01*
X022407Y01024D01*
X022404Y010235D01*
X022401Y01023D01*
X022398Y010225D01*
X022394Y01022D01*
X022391Y010216D01*
X022387Y010212D01*
X022382Y010208D01*
X022378Y010204D01*
X022374Y0102D01*
X022369Y010197D01*
X022364Y010194D01*
X022359Y010191D01*
X022354Y010189D01*
X022349Y010187D01*
X022303Y010177D01*
X022255Y010177D01*
X022253Y010177D01*
X020673D01*
X020672Y010177D01*
X020668Y010179D01*
X020667Y010179D01*
X020653Y010187D01*
X020652Y010189D01*
X02063Y010225D01*
X02063Y010227D01*
X02063Y010228D01*
X02063Y010231D01*
X02063Y010231D01*
X02063Y010232D01*
X02063Y010235D01*
X02063Y010238D01*
Y012309D01*
X020669Y012344D01*
X020709Y012336D01*
D02*
G37*
G36*
X015606Y0129D02*
X015615Y012897D01*
X015623Y012893D01*
X015631Y01289D01*
X01564Y012887D01*
X015648Y012884D01*
X015657Y012881D01*
X015666Y012879D01*
X015675Y012877D01*
X015683Y012876D01*
X015692Y012874D01*
X015701Y012873D01*
X01571Y012873D01*
X015719Y012872D01*
X015728Y012872D01*
X015826D01*
Y01251D01*
X015826Y012502D01*
X015827Y012494D01*
X015827Y012487D01*
X015828Y012479D01*
X01583Y012471D01*
X015831Y012464D01*
X015833Y012456D01*
X015835Y012449D01*
X015838Y012441D01*
X01584Y012434D01*
X015843Y012427D01*
X015847Y01242D01*
X01585Y012413D01*
X015854Y012406D01*
X015858Y012399D01*
X015862Y012393D01*
X015867Y012387D01*
X015871Y01238D01*
X015876Y012374D01*
X015881Y012369D01*
X015887Y012363D01*
X015956Y012294D01*
X015961Y012289D01*
X015967Y012284D01*
X015973Y012279D01*
X015979Y012274D01*
X015985Y012269D01*
X015992Y012265D01*
X015999Y012261D01*
X016005Y012257D01*
X016012Y012254D01*
X016019Y012251D01*
X016027Y012248D01*
X016034Y012245D01*
X016041Y012243D01*
X016049Y012241D01*
X016056Y012239D01*
X016064Y012237D01*
X016071Y012236D01*
X016079Y012235D01*
X016087Y012234D01*
X016095Y012234D01*
X016102Y012233D01*
Y012106D01*
X016614D01*
Y011614D01*
X016614Y01161D01*
X016614Y011609D01*
X016614Y011609D01*
X016614Y011606D01*
X016614Y011603D01*
X016614Y011603D01*
X016614Y011602D01*
X016615Y011599D01*
X016615Y011597D01*
X016615Y011596D01*
X016615Y011595D01*
X016616Y011587D01*
X016616Y011586D01*
X016616Y011585D01*
X016616Y011583D01*
X016616Y01158D01*
X016617Y011579D01*
X016617Y011579D01*
X016617Y011576D01*
X016618Y011574D01*
X016618Y011573D01*
X016618Y011572D01*
X016619Y011564D01*
X01662Y011563D01*
X01662Y011563D01*
X01662Y01156D01*
X016621Y011558D01*
X016621Y011557D01*
X016621Y011556D01*
X016622Y011553D01*
X016623Y011551D01*
X016623Y01155D01*
X016623Y011549D01*
X016625Y011542D01*
X016626Y011541D01*
X016626Y01154D01*
X016627Y011538D01*
X016628Y011535D01*
X016628Y011535D01*
X016628Y011534D01*
X016629Y011531D01*
X01663Y011529D01*
X01663Y011528D01*
X016631Y011527D01*
X016634Y01152D01*
X016634Y011519D01*
X016634Y011519D01*
X016635Y011516D01*
X016636Y011514D01*
X016637Y011513D01*
X016637Y011512D01*
X016638Y01151D01*
X016639Y011508D01*
X01664Y011507D01*
X01664Y011506D01*
X016644Y011499D01*
X016644Y011499D01*
X016645Y011498D01*
X016646Y011496D01*
X016647Y011493D01*
X016648Y011493D01*
X016648Y011492D01*
X016649Y01149D01*
X016651Y011488D01*
X016651Y011487D01*
X016652Y011486D01*
X016656Y01148D01*
X016657Y011479D01*
X016657Y011478D01*
X016659Y011476D01*
X01666Y011474D01*
X016661Y011473D01*
X016661Y011473D01*
X016663Y011471D01*
X016664Y011469D01*
X016665Y011468D01*
X016665Y011467D01*
X01667Y011461D01*
X016671Y011461D01*
X016671Y01146D01*
X016673Y011458D01*
X016675Y011456D01*
X016675Y011455D01*
X016676Y011455D01*
X016678Y011453D01*
X016679Y011451D01*
X01668Y01145D01*
X016681Y01145D01*
X016686Y011444D01*
X016687Y011444D01*
X016687Y011443D01*
X016689Y011441D01*
X016691Y01144D01*
X016692Y011439D01*
X016692Y011438D01*
X016693Y011438D01*
Y011438D01*
X016693D01*
X016694Y011437D01*
X016696Y011435D01*
X016697Y011435D01*
X016698Y011434D01*
X016703Y011429D01*
X016704Y011429D01*
X016705Y011428D01*
X016707Y011426D01*
X016709Y011425D01*
X01671Y011424D01*
X01671Y011424D01*
X016712Y011422D01*
X016714Y011421D01*
X016715Y01142D01*
X016716Y01142D01*
X016722Y011416D01*
X016723Y011415D01*
X016724Y011415D01*
X016726Y011413D01*
X016728Y011412D01*
X016729Y011411D01*
X01673Y011411D01*
X016732Y01141D01*
X016734Y011408D01*
X016735Y011408D01*
X016736Y011408D01*
X016742Y011404D01*
X016743Y011404D01*
X016744Y011403D01*
X016746Y011402D01*
X016749Y011401D01*
X016749Y011401D01*
X01675Y0114D01*
X016752Y011399D01*
X016755Y011398D01*
X016756Y011398D01*
X016756Y011397D01*
X016764Y011394D01*
X016764Y011394D01*
X016765Y011394D01*
X016768Y011393D01*
X01677Y011392D01*
X016771Y011392D01*
X016772Y011391D01*
X016774Y011391D01*
X016776Y01139D01*
X016777Y011389D01*
X016778Y011389D01*
X016786Y011387D01*
X016786Y011387D01*
X016787Y011386D01*
X01679Y011386D01*
X016792Y011385D01*
X016793Y011385D01*
X016794Y011385D01*
X016796Y011384D01*
X016799Y011384D01*
X0168Y011383D01*
X016801Y011383D01*
X016808Y011382D01*
X016809Y011382D01*
X01681Y011381D01*
X016812Y011381D01*
X016815Y011381D01*
X016816Y01138D01*
X016817Y01138D01*
X016819Y01138D01*
X016822Y01138D01*
X016823Y01138D01*
X016823Y011379D01*
X016831Y011379D01*
X016832Y011379D01*
X016833Y011379D01*
X016835Y011378D01*
X016838Y011378D01*
X016839Y011378D01*
X01684Y011378D01*
X016842Y011378D01*
X016845Y011378D01*
X016846Y011378D01*
X016847Y011378D01*
X01685Y011378D01*
X017638D01*
Y010197D01*
X017638Y010194D01*
X017604Y010181D01*
X017596Y010178D01*
X017596Y010178D01*
X01759Y010177D01*
X017588Y010177D01*
X015984D01*
X015984Y011977D01*
X015984Y011977D01*
X015984Y011998D01*
X015984Y012005D01*
X015984Y012012D01*
X015983Y012019D01*
X015982Y012026D01*
X015981Y012033D01*
X015979Y012039D01*
X015977Y012046D01*
X015975Y012052D01*
X015972Y012059D01*
X015972Y012059D01*
X015956Y012099D01*
X015953Y012105D01*
X01595Y012112D01*
X015946Y012118D01*
X015943Y012124D01*
X015939Y012129D01*
X015935Y012135D01*
X015931Y01214D01*
X015926Y012145D01*
X015921Y01215D01*
X01589Y012181D01*
X01589Y012181D01*
X015885Y012186D01*
X01588Y012191D01*
X015875Y012195D01*
X015869Y012199D01*
X015864Y012203D01*
X015858Y012206D01*
X015852Y01221D01*
X015846Y012213D01*
X015839Y012215D01*
X015799Y012232D01*
X015799Y012232D01*
X015792Y012235D01*
X015786Y012237D01*
X015779Y012239D01*
X015773Y01224D01*
X015766Y012242D01*
X015759Y012243D01*
X015752Y012244D01*
X015749Y012244D01*
X015745Y012244D01*
X015739Y012244D01*
X015717Y012244D01*
X015551Y012244D01*
Y012874D01*
X01556Y012885D01*
X015568Y012891D01*
X015583Y012898D01*
X015601Y012903D01*
X015606Y0129D01*
D02*
G37*
D18*
X011841Y015689D02*
D03*
Y014941D02*
D03*
X012726Y015315D02*
D03*
D20*
X013012Y01373D02*
D03*
X01376D02*
D03*
X013386Y014616D02*
D03*
D21*
X012165Y010669D02*
D03*
X010512D02*
D03*
D22*
X014449Y014291D02*
D03*
Y01374D02*
D03*
X010591Y015157D02*
D03*
Y015709D02*
D03*
X011181Y015157D02*
D03*
Y015709D02*
D03*
X015039Y01374D02*
D03*
Y014291D02*
D03*
X012402Y01374D02*
D03*
Y014291D02*
D03*
X019449Y01311D02*
D03*
Y013661D02*
D03*
X016772Y015827D02*
D03*
Y015276D02*
D03*
X016024Y015827D02*
D03*
Y015276D02*
D03*
D23*
X013937Y015276D02*
D03*
X013386D02*
D03*
X015Y015276D02*
D03*
X014449D02*
D03*
X012402Y013071D02*
D03*
X012953D02*
D03*
X012402Y01248D02*
D03*
X012953D02*
D03*
X016417Y012441D02*
D03*
X016968D02*
D03*
X01811Y015827D02*
D03*
X017559D02*
D03*
Y015276D02*
D03*
X01811D02*
D03*
D24*
X018317Y011417D02*
D03*
X019951D02*
D03*
D25*
X018297Y013148D02*
D03*
Y013648D02*
D03*
Y014148D02*
D03*
Y014648D02*
D03*
X016033Y013148D02*
D03*
Y013648D02*
D03*
Y014148D02*
D03*
Y014648D02*
D03*
D26*
X017165Y013898D02*
D03*
D27*
X021142Y013206D02*
D03*
Y015376D02*
D03*
D28*
X013996Y012677D02*
D03*
X015059D02*
D03*
D29*
X017087Y011792D02*
D03*
Y010491D02*
D03*
D30*
X015276Y011063D02*
D03*
X013228D02*
D03*
D46*
X01377Y01374D02*
G03*
X01376Y01373I0J-00001D01*
G01*
X015Y014331D02*
X015039Y014291D01*
X015Y014331D02*
Y015276D01*
Y015709D01*
X015118Y015827D01*
X016024D01*
X019449Y01311D02*
X019941D01*
X019951Y0131D01*
X019921Y01313D02*
X019941Y01311D01*
X019921Y01313D02*
Y015118D01*
X019764Y015276D02*
X019921Y015118D01*
X01811Y015276D02*
X019764D01*
X017175Y013908D02*
Y014567D01*
X014449Y014291D02*
Y015276D01*
X018297Y014148D02*
X019016D01*
X019941Y01311D02*
X021046D01*
X019951Y011417D02*
Y0131D01*
X021046Y01311D02*
X021142Y013206D01*
X017944Y011791D02*
X018297Y011437D01*
X017049Y011791D02*
X017944D01*
X017047Y011792D02*
X017049Y011791D01*
X016968Y011871D02*
X017047Y011792D01*
X016968Y011871D02*
Y012441D01*
X018297Y011437D02*
Y013148D01*
X016033Y01251D02*
X016102Y012441D01*
X016417D01*
X016033Y01251D02*
Y013148D01*
X01811Y015276D02*
Y015827D01*
X016772Y015827D02*
X016772Y015827D01*
X017559D01*
X017559Y015276D02*
X017559Y015276D01*
X016772Y015276D02*
X017559D01*
X016024Y014657D02*
X016033Y014648D01*
X016024Y014657D02*
Y015276D01*
X016772D01*
X018297Y013648D02*
Y014148D01*
X011821Y015709D02*
X011841Y015689D01*
X011181Y015709D02*
X011821D01*
X01061Y014943D02*
Y015157D01*
Y014943D02*
X010906Y014648D01*
X010591Y015157D02*
X01061D01*
X010906Y014134D02*
Y014648D01*
X010591Y015709D02*
X011181D01*
X017165Y013898D02*
X017175Y013908D01*
Y014567D02*
X017256Y014648D01*
X018297D01*
X014449Y015276D02*
X014449Y015276D01*
X014449Y015276D02*
X014449Y015276D01*
X013937Y015276D02*
X014449D01*
X013386Y014616D02*
Y015276D01*
X012402Y014291D02*
X012668D01*
X012726Y01435D01*
Y015315D01*
X012087Y01248D02*
X012402D01*
X012008Y012559D02*
X012087Y01248D01*
X012008Y012559D02*
Y014225D01*
X012074Y014291D01*
X012402D01*
X012402Y01374D02*
X012402Y01374D01*
X012402Y013071D02*
Y01374D01*
X012411Y01373D02*
X013012D01*
X012402Y01374D02*
X012411Y01373D01*
X01377Y01374D02*
X014449D01*
X013465Y01373D02*
X01376D01*
X012953Y013071D02*
X013307D01*
X012953Y013071D02*
X012953Y013071D01*
X013307D02*
X013386Y01315D01*
Y013652D01*
X013465Y01373D01*
X012953Y01248D02*
Y013071D01*
X014449Y01374D02*
X015039D01*
X015053Y013648D02*
X016033D01*
X015039Y013661D02*
X015053Y013648D01*
X015039Y012697D02*
X015059Y012677D01*
X015039Y012697D02*
Y013661D01*
X015059Y01128D02*
X015276Y011063D01*
X015059Y01128D02*
Y012677D01*
X010512Y010669D02*
Y011024D01*
X01063Y011142D01*
X010827D01*
X010906Y01122D01*
Y011765D01*
D47*
X012835Y010669D02*
X013228Y011063D01*
X012165Y010669D02*
X012835D01*
D48*
X010906Y014134D02*
D03*
D49*
Y011765D02*
D03*
X021693Y011936D02*
D03*
D50*
X010906Y012946D02*
D03*
X021693Y010755D02*
D03*
D51*
X022Y0155D02*
D03*
X02225Y015D02*
D03*
X022Y0145D02*
D03*
X02175Y015D02*
D03*
X0215Y0145D02*
D03*
X021D02*
D03*
X0205Y0155D02*
D03*
Y0145D02*
D03*
X02075Y011D02*
D03*
X02Y0155D02*
D03*
X02025Y015D02*
D03*
X0195Y0145D02*
D03*
X019Y0135D02*
D03*
X0175Y0105D02*
D03*
X01725Y013D02*
D03*
Y011D02*
D03*
X01675Y013D02*
D03*
X0165Y0115D02*
D03*
X01675Y011D02*
D03*
X0165Y0105D02*
D03*
X01625Y012D02*
D03*
Y011D02*
D03*
X0155Y0155D02*
D03*
X0145Y0125D02*
D03*
X0135D02*
D03*
X01225Y015D02*
D03*
Y012D02*
D03*
X012Y0115D02*
D03*
X0115Y0135D02*
D03*
X0105D02*
D03*
X020748Y010344D02*
D03*
X0135Y012769D02*
D03*
X0145Y0121D02*
D03*
Y013262D02*
D03*
Y012874D02*
D03*
X015157Y015787D02*
D03*
X014555D02*
D03*
X013952D02*
D03*
X013349D02*
D03*
X012746D02*
D03*
X014449Y014882D02*
D03*
X019016Y014148D02*
D03*
X016915Y014194D02*
D03*
Y013898D02*
D03*
Y013601D02*
D03*
X017175D02*
D03*
X017165Y013898D02*
D03*
X017155Y014194D02*
D03*
X017405D02*
D03*
X017415Y013898D02*
D03*
Y013601D02*
D03*
M02*
