G04*
G04 #@! TF.GenerationSoftware,Altium Limited,Altium Designer,19.0.15 (446)*
G04*
G04 Layer_Color=16777215*
%FSTAX24Y24*%
%MOIN*%
G70*
G01*
G75*
%ADD52C,0.0050*%
G36*
X016974Y013763D02*
X016984Y013762D01*
X017004Y013759D01*
X017021Y013754D01*
X017029Y013751D01*
X017037Y013748D01*
X017043Y013745D01*
X017048Y013742D01*
X017054Y013739D01*
X017058Y013737D01*
X017061Y013735D01*
X017063Y013733D01*
X017064Y013733D01*
X017065Y013732D01*
X017072Y013726D01*
X017079Y013719D01*
X017084Y013711D01*
X01709Y013703D01*
X017098Y013686D01*
X017104Y013669D01*
X017106Y013661D01*
X017108Y013653D01*
X01711Y013647D01*
X017111Y013641D01*
X017112Y013636D01*
Y013632D01*
X017113Y01363D01*
Y013629D01*
X017026Y013621D01*
X017025Y013634D01*
X017022Y013645D01*
X01702Y013655D01*
X017016Y013662D01*
X017014Y013668D01*
X017011Y013672D01*
X017009Y013674D01*
X017008Y013675D01*
X017002Y01368D01*
X016995Y013684D01*
X016987Y013688D01*
X01698Y01369D01*
X016974Y013691D01*
X016969Y013692D01*
X016964D01*
X016955Y013691D01*
X016946Y013689D01*
X016939Y013686D01*
X016932Y013684D01*
X016928Y013681D01*
X016924Y013678D01*
X016922Y013676D01*
X016921Y013676D01*
X016916Y013669D01*
X016912Y013662D01*
X016909Y013655D01*
X016907Y013648D01*
X016906Y013641D01*
X016905Y013635D01*
Y013632D01*
Y013631D01*
Y01363D01*
X016906Y013621D01*
X016908Y013611D01*
X016911Y013602D01*
X016915Y013594D01*
X016918Y013587D01*
X016921Y013582D01*
X016923Y013579D01*
X016924Y013577D01*
X016926Y013573D01*
X01693Y013569D01*
X016936Y013563D01*
X016941Y013558D01*
X016953Y013545D01*
X016964Y013533D01*
X016976Y013521D01*
X016981Y013516D01*
X016987Y013512D01*
X016991Y013508D01*
X016993Y013505D01*
X016995Y013503D01*
X016996Y013503D01*
X017009Y01349D01*
X017021Y013478D01*
X017032Y013467D01*
X017042Y013457D01*
X017051Y013447D01*
X017059Y013438D01*
X017066Y01343D01*
X017072Y013423D01*
X017077Y013416D01*
X017082Y01341D01*
X017086Y013405D01*
X017088Y013401D01*
X017091Y013398D01*
X017092Y013396D01*
X017094Y013394D01*
Y013394D01*
X017102Y013379D01*
X017109Y013363D01*
X017114Y013348D01*
X017118Y013335D01*
X017121Y013323D01*
X017121Y013319D01*
X017122Y013315D01*
X017123Y013312D01*
X017123Y013309D01*
Y013308D01*
Y013307D01*
X016818D01*
Y013388D01*
X016991D01*
X016986Y013396D01*
X01698Y013404D01*
X016978Y013407D01*
X016976Y013409D01*
X016974Y013411D01*
X016974Y013411D01*
X016971Y013414D01*
X016968Y013417D01*
X01696Y013425D01*
X016952Y013433D01*
X016943Y013442D01*
X016935Y013449D01*
X016928Y013456D01*
X016925Y013459D01*
X016923Y013461D01*
X016922Y013461D01*
X016921Y013462D01*
X016907Y013476D01*
X016895Y013487D01*
X016885Y013497D01*
X016877Y013505D01*
X016871Y013512D01*
X016867Y013516D01*
X016865Y01352D01*
X016864Y01352D01*
X016856Y013531D01*
X016848Y013542D01*
X016842Y013552D01*
X016838Y01356D01*
X016834Y013568D01*
X016831Y013573D01*
X01683Y013577D01*
X016829Y013578D01*
X016825Y013589D01*
X016823Y013599D01*
X016821Y013609D01*
X016819Y013618D01*
X016819Y013625D01*
X016818Y013631D01*
Y013635D01*
Y013636D01*
X016819Y013646D01*
X01682Y013656D01*
X016821Y013665D01*
X016824Y013674D01*
X016831Y013689D01*
X016837Y013702D01*
X016841Y013708D01*
X016844Y013712D01*
X016848Y013717D01*
X016851Y01372D01*
X016854Y013723D01*
X016855Y013726D01*
X016856Y013726D01*
X016857Y013727D01*
X016864Y013733D01*
X016873Y013739D01*
X01688Y013744D01*
X01689Y013748D01*
X016907Y013754D01*
X016924Y013759D01*
X016932Y01376D01*
X016939Y013762D01*
X016945Y013762D01*
X016951Y013763D01*
X016956Y013764D01*
X016962D01*
X016974Y013763D01*
D02*
G37*
G36*
X015915Y013763D02*
X015925Y013762D01*
X015946Y013759D01*
X015963Y013754D01*
X015971Y013751D01*
X015978Y013748D01*
X015984Y013745D01*
X01599Y013742D01*
X015995Y013739D01*
X015999Y013737D01*
X016002Y013735D01*
X016004Y013733D01*
X016005Y013733D01*
X016006Y013732D01*
X016013Y013726D01*
X01602Y013719D01*
X016026Y013711D01*
X016031Y013703D01*
X016039Y013686D01*
X016045Y013669D01*
X016047Y013661D01*
X016049Y013653D01*
X016051Y013647D01*
X016052Y013641D01*
X016053Y013636D01*
Y013632D01*
X016054Y01363D01*
Y013629D01*
X015967Y013621D01*
X015966Y013634D01*
X015963Y013645D01*
X015961Y013655D01*
X015957Y013662D01*
X015955Y013668D01*
X015952Y013672D01*
X01595Y013674D01*
X01595Y013675D01*
X015943Y01368D01*
X015936Y013684D01*
X015929Y013688D01*
X015921Y01369D01*
X015915Y013691D01*
X01591Y013692D01*
X015906D01*
X015896Y013691D01*
X015887Y013689D01*
X01588Y013686D01*
X015873Y013684D01*
X015869Y013681D01*
X015865Y013678D01*
X015863Y013676D01*
X015862Y013676D01*
X015857Y013669D01*
X015853Y013662D01*
X015851Y013655D01*
X015849Y013648D01*
X015847Y013641D01*
X015847Y013635D01*
Y013632D01*
Y013631D01*
Y01363D01*
X015847Y013621D01*
X015849Y013611D01*
X015853Y013602D01*
X015856Y013594D01*
X015859Y013587D01*
X015862Y013582D01*
X015864Y013579D01*
X015865Y013577D01*
X015868Y013573D01*
X015872Y013569D01*
X015877Y013563D01*
X015882Y013558D01*
X015894Y013545D01*
X015906Y013533D01*
X015917Y013521D01*
X015923Y013516D01*
X015928Y013512D01*
X015932Y013508D01*
X015934Y013505D01*
X015936Y013503D01*
X015937Y013503D01*
X01595Y01349D01*
X015962Y013478D01*
X015973Y013467D01*
X015983Y013457D01*
X015992Y013447D01*
X016Y013438D01*
X016007Y01343D01*
X016013Y013423D01*
X016018Y013416D01*
X016023Y01341D01*
X016027Y013405D01*
X01603Y013401D01*
X016032Y013398D01*
X016034Y013396D01*
X016035Y013394D01*
Y013394D01*
X016043Y013379D01*
X01605Y013363D01*
X016055Y013348D01*
X016059Y013335D01*
X016062Y013323D01*
X016062Y013319D01*
X016063Y013315D01*
X016064Y013312D01*
X016064Y013309D01*
Y013308D01*
Y013307D01*
X015759D01*
Y013388D01*
X015933D01*
X015927Y013396D01*
X015921Y013404D01*
X015919Y013407D01*
X015917Y013409D01*
X015915Y013411D01*
X015915Y013411D01*
X015912Y013414D01*
X01591Y013417D01*
X015902Y013425D01*
X015893Y013433D01*
X015885Y013442D01*
X015876Y013449D01*
X015869Y013456D01*
X015866Y013459D01*
X015864Y013461D01*
X015863Y013461D01*
X015862Y013462D01*
X015848Y013476D01*
X015836Y013487D01*
X015826Y013497D01*
X015818Y013505D01*
X015812Y013512D01*
X015809Y013516D01*
X015806Y01352D01*
X015805Y01352D01*
X015797Y013531D01*
X01579Y013542D01*
X015784Y013552D01*
X015779Y01356D01*
X015775Y013568D01*
X015772Y013573D01*
X015771Y013577D01*
X01577Y013578D01*
X015767Y013589D01*
X015764Y013599D01*
X015762Y013609D01*
X015761Y013618D01*
X01576Y013625D01*
X015759Y013631D01*
Y013635D01*
Y013636D01*
X01576Y013646D01*
X015761Y013656D01*
X015763Y013665D01*
X015765Y013674D01*
X015772Y013689D01*
X015778Y013702D01*
X015782Y013708D01*
X015786Y013712D01*
X015789Y013717D01*
X015792Y01372D01*
X015795Y013723D01*
X015796Y013726D01*
X015797Y013726D01*
X015798Y013727D01*
X015805Y013733D01*
X015814Y013739D01*
X015822Y013744D01*
X015831Y013748D01*
X015848Y013754D01*
X015865Y013759D01*
X015873Y01376D01*
X01588Y013762D01*
X015887Y013762D01*
X015893Y013763D01*
X015897Y013764D01*
X015904D01*
X015915Y013763D01*
D02*
G37*
G36*
X013374D02*
X013385Y013762D01*
X013405Y013759D01*
X013422Y013754D01*
X01343Y013751D01*
X013437Y013748D01*
X013444Y013745D01*
X013449Y013742D01*
X013454Y013739D01*
X013458Y013737D01*
X013461Y013735D01*
X013463Y013733D01*
X013465Y013733D01*
X013465Y013732D01*
X013473Y013726D01*
X013479Y013719D01*
X013485Y013711D01*
X01349Y013703D01*
X013498Y013686D01*
X013505Y013669D01*
X013507Y013661D01*
X013509Y013653D01*
X013511Y013647D01*
X013511Y013641D01*
X013513Y013636D01*
Y013632D01*
X013513Y01363D01*
Y013629D01*
X013427Y013621D01*
X013425Y013634D01*
X013423Y013645D01*
X01342Y013655D01*
X013417Y013662D01*
X013414Y013668D01*
X013412Y013672D01*
X01341Y013674D01*
X013409Y013675D01*
X013402Y01368D01*
X013395Y013684D01*
X013388Y013688D01*
X013381Y01369D01*
X013375Y013691D01*
X01337Y013692D01*
X013365D01*
X013355Y013691D01*
X013347Y013689D01*
X013339Y013686D01*
X013333Y013684D01*
X013328Y013681D01*
X013324Y013678D01*
X013322Y013676D01*
X013322Y013676D01*
X013316Y013669D01*
X013312Y013662D01*
X01331Y013655D01*
X013308Y013648D01*
X013307Y013641D01*
X013306Y013635D01*
Y013632D01*
Y013631D01*
Y01363D01*
X013307Y013621D01*
X013309Y013611D01*
X013312Y013602D01*
X013315Y013594D01*
X013318Y013587D01*
X013322Y013582D01*
X013324Y013579D01*
X013324Y013577D01*
X013327Y013573D01*
X013331Y013569D01*
X013336Y013563D01*
X013341Y013558D01*
X013353Y013545D01*
X013365Y013533D01*
X013377Y013521D01*
X013382Y013516D01*
X013387Y013512D01*
X013391Y013508D01*
X013394Y013505D01*
X013396Y013503D01*
X013396Y013503D01*
X01341Y01349D01*
X013421Y013478D01*
X013433Y013467D01*
X013442Y013457D01*
X013452Y013447D01*
X013459Y013438D01*
X013467Y01343D01*
X013473Y013423D01*
X013478Y013416D01*
X013482Y01341D01*
X013486Y013405D01*
X013489Y013401D01*
X013492Y013398D01*
X013493Y013396D01*
X013494Y013394D01*
Y013394D01*
X013503Y013379D01*
X013509Y013363D01*
X013515Y013348D01*
X013518Y013335D01*
X013521Y013323D01*
X013522Y013319D01*
X013522Y013315D01*
X013523Y013312D01*
X013524Y013309D01*
Y013308D01*
Y013307D01*
X013219D01*
Y013388D01*
X013392D01*
X013387Y013396D01*
X013381Y013404D01*
X013378Y013407D01*
X013376Y013409D01*
X013375Y013411D01*
X013374Y013411D01*
X013371Y013414D01*
X013369Y013417D01*
X013361Y013425D01*
X013352Y013433D01*
X013344Y013442D01*
X013335Y013449D01*
X013328Y013456D01*
X013326Y013459D01*
X013324Y013461D01*
X013322Y013461D01*
X013322Y013462D01*
X013307Y013476D01*
X013295Y013487D01*
X013286Y013497D01*
X013278Y013505D01*
X013272Y013512D01*
X013268Y013516D01*
X013265Y01352D01*
X013265Y01352D01*
X013256Y013531D01*
X013249Y013542D01*
X013243Y013552D01*
X013238Y01356D01*
X013234Y013568D01*
X013232Y013573D01*
X01323Y013577D01*
X01323Y013578D01*
X013226Y013589D01*
X013223Y013599D01*
X013221Y013609D01*
X01322Y013618D01*
X013219Y013625D01*
X013219Y013631D01*
Y013635D01*
Y013636D01*
X013219Y013646D01*
X013221Y013656D01*
X013222Y013665D01*
X013225Y013674D01*
X013231Y013689D01*
X013238Y013702D01*
X013242Y013708D01*
X013245Y013712D01*
X013248Y013717D01*
X013251Y01372D01*
X013254Y013723D01*
X013255Y013726D01*
X013257Y013726D01*
X013257Y013727D01*
X013265Y013733D01*
X013273Y013739D01*
X013281Y013744D01*
X01329Y013748D01*
X013307Y013754D01*
X013324Y013759D01*
X013332Y01376D01*
X013339Y013762D01*
X013346Y013762D01*
X013352Y013763D01*
X013356Y013764D01*
X013363D01*
X013374Y013763D01*
D02*
G37*
G36*
X015336Y013518D02*
X015265Y013508D01*
X015259Y013514D01*
X015254Y01352D01*
X015248Y013524D01*
X015242Y013528D01*
X015231Y013534D01*
X01522Y013538D01*
X015211Y01354D01*
X015204Y013541D01*
X015202Y013542D01*
X015198D01*
X015187Y013541D01*
X015177Y013539D01*
X015169Y013535D01*
X015162Y013531D01*
X015156Y013527D01*
X015152Y013524D01*
X015149Y013521D01*
X015149Y01352D01*
X015142Y013512D01*
X015137Y013502D01*
X015134Y013491D01*
X015132Y013481D01*
X01513Y013472D01*
X01513Y013465D01*
Y013461D01*
Y013459D01*
Y013458D01*
Y013457D01*
X01513Y013442D01*
X015132Y013428D01*
X015135Y013417D01*
X015139Y013407D01*
X015143Y0134D01*
X015145Y013394D01*
X015148Y013392D01*
X015149Y01339D01*
X015156Y013383D01*
X015164Y013377D01*
X015172Y013373D01*
X015179Y013371D01*
X015185Y013369D01*
X015191Y013369D01*
X015194Y013368D01*
X015195D01*
X015204Y013369D01*
X015212Y013371D01*
X015219Y013373D01*
X015225Y013377D01*
X015231Y01338D01*
X015235Y013383D01*
X015237Y013384D01*
X015238Y013385D01*
X015244Y013392D01*
X015249Y0134D01*
X015253Y013407D01*
X015256Y013415D01*
X015258Y013421D01*
X015259Y013427D01*
X015259Y01343D01*
Y013432D01*
X015346Y013423D01*
X015344Y013412D01*
X015342Y013402D01*
X015336Y013384D01*
X015328Y013369D01*
X015324Y013362D01*
X01532Y013356D01*
X015316Y01335D01*
X015313Y013346D01*
X015309Y013342D01*
X015306Y013338D01*
X015303Y013335D01*
X015301Y013333D01*
X0153Y013333D01*
X015299Y013332D01*
X015292Y013326D01*
X015284Y013321D01*
X015275Y013316D01*
X015267Y013313D01*
X015249Y013306D01*
X015233Y013302D01*
X015225Y013301D01*
X015219Y013301D01*
X015212Y0133D01*
X015207Y013299D01*
X015202Y013299D01*
X015196D01*
X015182Y013299D01*
X015168Y013301D01*
X015156Y013304D01*
X015144Y013308D01*
X015133Y013312D01*
X015123Y013318D01*
X015114Y013323D01*
X015105Y013329D01*
X015098Y013334D01*
X015092Y013339D01*
X015086Y013344D01*
X015081Y013349D01*
X015078Y013353D01*
X015075Y013356D01*
X015074Y013358D01*
X015073Y013358D01*
X015067Y013367D01*
X015062Y013375D01*
X015058Y013384D01*
X015054Y013393D01*
X015048Y01341D01*
X015044Y013426D01*
X015043Y013432D01*
X015042Y013439D01*
X015041Y013445D01*
Y01345D01*
X01504Y013454D01*
Y013457D01*
Y013459D01*
Y013459D01*
X015041Y013472D01*
X015042Y013484D01*
X015044Y013495D01*
X015047Y013505D01*
X01505Y013514D01*
X015053Y013524D01*
X015057Y013532D01*
X015061Y013539D01*
X015065Y013546D01*
X015068Y013552D01*
X015072Y013557D01*
X015074Y013561D01*
X015077Y013564D01*
X015079Y013567D01*
X01508Y013568D01*
X015081Y013569D01*
X015089Y013576D01*
X015097Y013583D01*
X015105Y013589D01*
X015114Y013594D01*
X015122Y013598D01*
X01513Y013601D01*
X015145Y013606D01*
X015153Y013608D01*
X015159Y013609D01*
X015165Y01361D01*
X01517Y013611D01*
X015174Y013611D01*
X015179D01*
X015191Y013611D01*
X015202Y013609D01*
X015212Y013607D01*
X015221Y013604D01*
X015228Y013601D01*
X015234Y013599D01*
X015238Y013597D01*
X015238Y013596D01*
X015239D01*
X015225Y013674D01*
X015061D01*
Y013755D01*
X015291D01*
X015336Y013518D01*
D02*
G37*
G36*
X017496Y013749D02*
X017505Y013735D01*
X017514Y013722D01*
X017523Y013711D01*
X017531Y013703D01*
X017538Y013696D01*
X017541Y013693D01*
X017543Y013692D01*
X017544Y013691D01*
X017545Y01369D01*
X017559Y01368D01*
X017573Y013671D01*
X017586Y013663D01*
X017597Y013658D01*
X017606Y013654D01*
X017613Y013651D01*
X017615Y01365D01*
X017617Y01365D01*
X017618Y013649D01*
X017618D01*
Y01357D01*
X017595Y013579D01*
X017574Y013589D01*
X017564Y013594D01*
X017555Y0136D01*
X017546Y013606D01*
X017538Y013611D01*
X017531Y013616D01*
X017525Y013621D01*
X017519Y013625D01*
X017515Y013629D01*
X017511Y013632D01*
X017508Y013634D01*
X017507Y013635D01*
X017506Y013636D01*
Y013307D01*
X017419D01*
Y013764D01*
X01749D01*
X017496Y013749D01*
D02*
G37*
G36*
X016261D02*
X01627Y013735D01*
X016279Y013722D01*
X016288Y013711D01*
X016296Y013703D01*
X016303Y013696D01*
X016306Y013693D01*
X016308Y013692D01*
X016309Y013691D01*
X01631Y01369D01*
X016324Y01368D01*
X016338Y013671D01*
X01635Y013663D01*
X016362Y013658D01*
X016371Y013654D01*
X016377Y013651D01*
X01638Y01365D01*
X016382Y01365D01*
X016383Y013649D01*
X016383D01*
Y01357D01*
X01636Y013579D01*
X016339Y013589D01*
X016329Y013594D01*
X01632Y0136D01*
X016311Y013606D01*
X016303Y013611D01*
X016296Y013616D01*
X016289Y013621D01*
X016284Y013625D01*
X01628Y013629D01*
X016276Y013632D01*
X016273Y013634D01*
X016272Y013635D01*
X016271Y013636D01*
Y013307D01*
X016184D01*
Y013764D01*
X016255D01*
X016261Y013749D01*
D02*
G37*
G36*
X01425Y013749D02*
X014258Y013735D01*
X014268Y013722D01*
X014277Y013711D01*
X014285Y013703D01*
X014292Y013696D01*
X014295Y013693D01*
X014296Y013692D01*
X014298Y013691D01*
X014298Y01369D01*
X014313Y01368D01*
X014327Y013671D01*
X014339Y013663D01*
X01435Y013658D01*
X014359Y013654D01*
X014366Y013651D01*
X014369Y01365D01*
X014371Y01365D01*
X014371Y013649D01*
X014372D01*
Y01357D01*
X014348Y013579D01*
X014327Y013589D01*
X014317Y013594D01*
X014308Y0136D01*
X0143Y013606D01*
X014292Y013611D01*
X014285Y013616D01*
X014278Y013621D01*
X014273Y013625D01*
X014268Y013629D01*
X014264Y013632D01*
X014262Y013634D01*
X01426Y013635D01*
X01426Y013636D01*
Y013307D01*
X014172D01*
Y013764D01*
X014243D01*
X01425Y013749D01*
D02*
G37*
G36*
X014682Y013307D02*
X014583D01*
X014422Y013761D01*
X014519D01*
X01463Y013425D01*
X014746Y013761D01*
X014845D01*
X014682Y013307D01*
D02*
G37*
G36*
X018434Y013518D02*
Y013505D01*
X018433Y013491D01*
Y013479D01*
X018433Y013468D01*
X018432Y013457D01*
X018431Y013448D01*
X018431Y01344D01*
X018429Y013432D01*
X018429Y013425D01*
X018428Y013419D01*
X018427Y013414D01*
X018427Y01341D01*
X018426Y013407D01*
Y013405D01*
X018425Y013404D01*
Y013403D01*
X018422Y013393D01*
X018419Y013384D01*
X018414Y013375D01*
X01841Y013368D01*
X018406Y013362D01*
X018403Y013356D01*
X0184Y013354D01*
X0184Y013352D01*
X018392Y013344D01*
X018383Y013336D01*
X018374Y013329D01*
X018366Y013323D01*
X018358Y013319D01*
X018352Y013316D01*
X018348Y013314D01*
X018347Y013313D01*
X018347D01*
X01834Y01331D01*
X018333Y013308D01*
X018316Y013304D01*
X0183Y013302D01*
X018284Y013301D01*
X018277Y0133D01*
X01827Y013299D01*
X018264D01*
X018258Y013299D01*
X018248D01*
X018229Y013299D01*
X018211Y013301D01*
X018196Y013303D01*
X018184Y013306D01*
X018179Y013306D01*
X018173Y013308D01*
X018169Y013309D01*
X018166Y01331D01*
X018164Y013311D01*
X018162Y013312D01*
X018161Y013312D01*
X01816D01*
X018148Y013318D01*
X018138Y013324D01*
X018129Y01333D01*
X018121Y013336D01*
X018115Y013341D01*
X01811Y013345D01*
X018108Y013348D01*
X018107Y013349D01*
X0181Y013358D01*
X018094Y013368D01*
X018089Y013377D01*
X018086Y013386D01*
X018083Y013394D01*
X018081Y013401D01*
X01808Y013403D01*
Y013405D01*
X01808Y013405D01*
Y013406D01*
X018078Y013413D01*
X018077Y013421D01*
X018076Y01343D01*
X018075Y013438D01*
X018074Y013458D01*
X018072Y013477D01*
Y013486D01*
Y013494D01*
X018072Y013502D01*
Y013508D01*
Y013514D01*
Y013518D01*
Y013521D01*
Y013522D01*
Y013761D01*
X018164D01*
Y013509D01*
Y013499D01*
Y01349D01*
X018164Y013482D01*
Y013474D01*
X018165Y013467D01*
Y013461D01*
X018166Y013455D01*
Y013449D01*
X018167Y013442D01*
X018168Y013436D01*
X018168Y013432D01*
Y013431D01*
X01817Y013423D01*
X018173Y013415D01*
X018177Y013409D01*
X018181Y013403D01*
X018185Y013398D01*
X018189Y013395D01*
X018191Y013393D01*
X018192Y013392D01*
X0182Y013387D01*
X01821Y013383D01*
X018219Y013381D01*
X018229Y013379D01*
X018237Y013377D01*
X018244Y013377D01*
X01825D01*
X018264Y013377D01*
X018276Y013379D01*
X018286Y013382D01*
X018295Y013385D01*
X018302Y013388D01*
X018307Y01339D01*
X01831Y013392D01*
X018311Y013393D01*
X018318Y0134D01*
X018324Y013407D01*
X01833Y013415D01*
X018333Y013422D01*
X018335Y013428D01*
X018337Y013434D01*
X018339Y013437D01*
Y013438D01*
X018339Y013442D01*
X01834Y013446D01*
Y013451D01*
X018341Y013457D01*
X018341Y01347D01*
Y013483D01*
X018342Y013495D01*
Y0135D01*
Y013505D01*
Y013509D01*
Y013512D01*
Y013514D01*
Y013514D01*
Y013761D01*
X018434D01*
Y013518D01*
D02*
G37*
G36*
X018937Y013307D02*
X01884D01*
X018803Y01341D01*
X01862D01*
X018581Y013307D01*
X018482D01*
X018664Y013761D01*
X018761D01*
X018937Y013307D01*
D02*
G37*
G36*
X01727D02*
X017183D01*
Y013394D01*
X01727D01*
Y013307D01*
D02*
G37*
G36*
X014024Y013307D02*
X013936D01*
Y013394D01*
X014024D01*
Y013307D01*
D02*
G37*
G36*
X017859Y013763D02*
X01787Y013762D01*
X017881Y013759D01*
X017891Y013756D01*
X017901Y013753D01*
X017909Y013749D01*
X017916Y013745D01*
X017923Y01374D01*
X017929Y013735D01*
X017935Y013732D01*
X01794Y013728D01*
X017943Y013724D01*
X017946Y013721D01*
X017948Y013718D01*
X01795Y013717D01*
X01795Y013716D01*
X017958Y013705D01*
X017965Y013692D01*
X017971Y013678D01*
X017976Y013664D01*
X01798Y013649D01*
X017984Y013633D01*
X017986Y013618D01*
X017989Y013603D01*
X01799Y013589D01*
X017992Y013575D01*
X017993Y013563D01*
X017994Y013552D01*
X017994Y013544D01*
Y013537D01*
Y013535D01*
Y013533D01*
Y013532D01*
Y013531D01*
X017994Y013508D01*
X017992Y013486D01*
X01799Y013466D01*
X017988Y013447D01*
X017985Y013431D01*
X017982Y013416D01*
X017978Y013403D01*
X017974Y013391D01*
X017971Y013381D01*
X017967Y013372D01*
X017964Y013365D01*
X01796Y013359D01*
X017958Y013355D01*
X017956Y013352D01*
X017955Y01335D01*
X017954Y013349D01*
X017946Y01334D01*
X017938Y013333D01*
X017929Y013325D01*
X01792Y01332D01*
X017912Y013315D01*
X017902Y013311D01*
X017894Y013308D01*
X017885Y013305D01*
X017878Y013302D01*
X01787Y013301D01*
X017864Y0133D01*
X017859Y013299D01*
X017854D01*
X01785Y013299D01*
X017847D01*
X017836Y013299D01*
X017824Y013301D01*
X017813Y013303D01*
X017803Y013306D01*
X017794Y013309D01*
X017786Y013313D01*
X017779Y013318D01*
X017771Y013322D01*
X017765Y013326D01*
X017759Y013331D01*
X017755Y013335D01*
X017751Y013338D01*
X017748Y013341D01*
X017746Y013343D01*
X017745Y013344D01*
X017744Y013345D01*
X017737Y013356D01*
X01773Y013369D01*
X017723Y013383D01*
X017719Y013398D01*
X017714Y013413D01*
X017711Y013428D01*
X017708Y013444D01*
X017705Y013459D01*
X017704Y013474D01*
X017702Y013487D01*
X017701Y013499D01*
X0177Y01351D01*
X0177Y013518D01*
Y013525D01*
Y013527D01*
Y013529D01*
Y01353D01*
Y013531D01*
X0177Y013554D01*
X017702Y013576D01*
X017704Y013596D01*
X017707Y013614D01*
X01771Y013631D01*
X017714Y013646D01*
X017718Y01366D01*
X017722Y013672D01*
X017726Y013683D01*
X01773Y013692D01*
X017734Y013699D01*
X017737Y013706D01*
X01774Y013711D01*
X017742Y013714D01*
X017744Y013716D01*
X017744Y013716D01*
X017752Y013725D01*
X017759Y013732D01*
X017768Y013738D01*
X017777Y013744D01*
X017785Y013749D01*
X017794Y013752D01*
X017801Y013755D01*
X01781Y013758D01*
X017818Y01376D01*
X017824Y013761D01*
X017831Y013762D01*
X017836Y013763D01*
X017841Y013764D01*
X017847D01*
X017859Y013763D01*
D02*
G37*
G36*
X016624D02*
X016635Y013762D01*
X016646Y013759D01*
X016656Y013756D01*
X016665Y013753D01*
X016674Y013749D01*
X016681Y013745D01*
X016688Y01374D01*
X016694Y013735D01*
X0167Y013732D01*
X016705Y013728D01*
X016708Y013724D01*
X016711Y013721D01*
X016713Y013718D01*
X016714Y013717D01*
X016715Y013716D01*
X016723Y013705D01*
X01673Y013692D01*
X016735Y013678D01*
X016741Y013664D01*
X016745Y013649D01*
X016749Y013633D01*
X016751Y013618D01*
X016754Y013603D01*
X016755Y013589D01*
X016756Y013575D01*
X016758Y013563D01*
X016758Y013552D01*
X016759Y013544D01*
Y013537D01*
Y013535D01*
Y013533D01*
Y013532D01*
Y013531D01*
X016758Y013508D01*
X016757Y013486D01*
X016755Y013466D01*
X016753Y013447D01*
X01675Y013431D01*
X016747Y013416D01*
X016743Y013403D01*
X016739Y013391D01*
X016735Y013381D01*
X016732Y013372D01*
X016728Y013365D01*
X016725Y013359D01*
X016723Y013355D01*
X016721Y013352D01*
X01672Y01335D01*
X016719Y013349D01*
X016711Y01334D01*
X016703Y013333D01*
X016694Y013325D01*
X016685Y01332D01*
X016676Y013315D01*
X016667Y013311D01*
X016659Y013308D01*
X01665Y013305D01*
X016642Y013302D01*
X016635Y013301D01*
X016629Y0133D01*
X016623Y013299D01*
X016619D01*
X016615Y013299D01*
X016612D01*
X0166Y013299D01*
X016589Y013301D01*
X016578Y013303D01*
X016568Y013306D01*
X016559Y013309D01*
X01655Y013313D01*
X016543Y013318D01*
X016536Y013322D01*
X01653Y013326D01*
X016524Y013331D01*
X01652Y013335D01*
X016516Y013338D01*
X016513Y013341D01*
X016511Y013343D01*
X01651Y013344D01*
X016509Y013345D01*
X016501Y013356D01*
X016495Y013369D01*
X016488Y013383D01*
X016484Y013398D01*
X016479Y013413D01*
X016476Y013428D01*
X016472Y013444D01*
X01647Y013459D01*
X016468Y013474D01*
X016467Y013487D01*
X016466Y013499D01*
X016465Y01351D01*
X016465Y013518D01*
Y013525D01*
Y013527D01*
Y013529D01*
Y01353D01*
Y013531D01*
X016465Y013554D01*
X016467Y013576D01*
X016468Y013596D01*
X016472Y013614D01*
X016475Y013631D01*
X016478Y013646D01*
X016483Y01366D01*
X016487Y013672D01*
X016491Y013683D01*
X016495Y013692D01*
X016499Y013699D01*
X016502Y013706D01*
X016505Y013711D01*
X016507Y013714D01*
X016509Y013716D01*
X016509Y013716D01*
X016516Y013725D01*
X016524Y013732D01*
X016533Y013738D01*
X016541Y013744D01*
X01655Y013749D01*
X016558Y013752D01*
X016566Y013755D01*
X016575Y013758D01*
X016583Y01376D01*
X016589Y013761D01*
X016596Y013762D01*
X016601Y013763D01*
X016606Y013764D01*
X016612D01*
X016624Y013763D01*
D02*
G37*
G36*
X015565Y013763D02*
X015576Y013762D01*
X015587Y013759D01*
X015597Y013756D01*
X015606Y013753D01*
X015615Y013749D01*
X015622Y013745D01*
X015629Y01374D01*
X015635Y013735D01*
X015641Y013732D01*
X015646Y013728D01*
X015649Y013724D01*
X015652Y013721D01*
X015654Y013718D01*
X015656Y013717D01*
X015656Y013716D01*
X015664Y013705D01*
X015671Y013692D01*
X015677Y013678D01*
X015682Y013664D01*
X015686Y013649D01*
X01569Y013633D01*
X015692Y013618D01*
X015695Y013603D01*
X015696Y013589D01*
X015698Y013575D01*
X015699Y013563D01*
X0157Y013552D01*
X0157Y013544D01*
Y013537D01*
Y013535D01*
Y013533D01*
Y013532D01*
Y013531D01*
X0157Y013508D01*
X015698Y013486D01*
X015696Y013466D01*
X015694Y013447D01*
X015691Y013431D01*
X015688Y013416D01*
X015684Y013403D01*
X01568Y013391D01*
X015677Y013381D01*
X015673Y013372D01*
X015669Y013365D01*
X015666Y013359D01*
X015664Y013355D01*
X015662Y013352D01*
X015661Y01335D01*
X01566Y013349D01*
X015652Y01334D01*
X015644Y013333D01*
X015635Y013325D01*
X015626Y01332D01*
X015618Y013315D01*
X015608Y013311D01*
X0156Y013308D01*
X015591Y013305D01*
X015584Y013302D01*
X015576Y013301D01*
X01557Y0133D01*
X015565Y013299D01*
X01556D01*
X015556Y013299D01*
X015553D01*
X015542Y013299D01*
X01553Y013301D01*
X015519Y013303D01*
X015509Y013306D01*
X0155Y013309D01*
X015492Y013313D01*
X015484Y013318D01*
X015477Y013322D01*
X015471Y013326D01*
X015465Y013331D01*
X015461Y013335D01*
X015457Y013338D01*
X015454Y013341D01*
X015452Y013343D01*
X015451Y013344D01*
X01545Y013345D01*
X015443Y013356D01*
X015436Y013369D01*
X015429Y013383D01*
X015425Y013398D01*
X01542Y013413D01*
X015417Y013428D01*
X015414Y013444D01*
X015411Y013459D01*
X01541Y013474D01*
X015408Y013487D01*
X015407Y013499D01*
X015406Y01351D01*
X015406Y013518D01*
Y013525D01*
Y013527D01*
Y013529D01*
Y01353D01*
Y013531D01*
X015406Y013554D01*
X015408Y013576D01*
X01541Y013596D01*
X015413Y013614D01*
X015416Y013631D01*
X01542Y013646D01*
X015424Y01366D01*
X015428Y013672D01*
X015432Y013683D01*
X015436Y013692D01*
X01544Y013699D01*
X015443Y013706D01*
X015446Y013711D01*
X015448Y013714D01*
X01545Y013716D01*
X01545Y013716D01*
X015458Y013725D01*
X015465Y013732D01*
X015474Y013738D01*
X015483Y013744D01*
X015491Y013749D01*
X0155Y013752D01*
X015507Y013755D01*
X015516Y013758D01*
X015524Y01376D01*
X01553Y013761D01*
X015537Y013762D01*
X015542Y013763D01*
X015547Y013764D01*
X015553D01*
X015565Y013763D01*
D02*
G37*
G36*
X01373D02*
X013741Y013762D01*
X013753Y013759D01*
X013762Y013756D01*
X013772Y013753D01*
X01378Y013749D01*
X013787Y013745D01*
X013795Y01374D01*
X013801Y013735D01*
X013806Y013732D01*
X013811Y013728D01*
X013814Y013724D01*
X013818Y013721D01*
X01382Y013718D01*
X013821Y013717D01*
X013822Y013716D01*
X013829Y013705D01*
X013836Y013692D01*
X013842Y013678D01*
X013847Y013664D01*
X013851Y013649D01*
X013855Y013633D01*
X013858Y013618D01*
X01386Y013603D01*
X013862Y013589D01*
X013863Y013575D01*
X013864Y013563D01*
X013865Y013552D01*
X013865Y013544D01*
Y013537D01*
Y013535D01*
Y013533D01*
Y013532D01*
Y013531D01*
X013865Y013508D01*
X013864Y013486D01*
X013862Y013466D01*
X013859Y013447D01*
X013856Y013431D01*
X013853Y013416D01*
X013849Y013403D01*
X013845Y013391D01*
X013842Y013381D01*
X013838Y013372D01*
X013835Y013365D01*
X013831Y013359D01*
X013829Y013355D01*
X013827Y013352D01*
X013826Y01335D01*
X013825Y013349D01*
X013818Y01334D01*
X013809Y013333D01*
X013801Y013325D01*
X013791Y01332D01*
X013783Y013315D01*
X013774Y013311D01*
X013765Y013308D01*
X013757Y013305D01*
X013749Y013302D01*
X013741Y013301D01*
X013735Y0133D01*
X01373Y013299D01*
X013725D01*
X013721Y013299D01*
X013719D01*
X013707Y013299D01*
X013696Y013301D01*
X013684Y013303D01*
X013675Y013306D01*
X013665Y013309D01*
X013657Y013313D01*
X01365Y013318D01*
X013642Y013322D01*
X013637Y013326D01*
X013631Y013331D01*
X013626Y013335D01*
X013622Y013338D01*
X013619Y013341D01*
X013618Y013343D01*
X013616Y013344D01*
X013616Y013345D01*
X013608Y013356D01*
X013601Y013369D01*
X013595Y013383D01*
X01359Y013398D01*
X013585Y013413D01*
X013582Y013428D01*
X013579Y013444D01*
X013576Y013459D01*
X013575Y013474D01*
X013574Y013487D01*
X013572Y013499D01*
X013572Y01351D01*
X013571Y013518D01*
Y013525D01*
Y013527D01*
Y013529D01*
Y01353D01*
Y013531D01*
X013572Y013554D01*
X013573Y013576D01*
X013575Y013596D01*
X013578Y013614D01*
X013581Y013631D01*
X013585Y013646D01*
X013589Y01366D01*
X013593Y013672D01*
X013597Y013683D01*
X013601Y013692D01*
X013605Y013699D01*
X013608Y013706D01*
X013612Y013711D01*
X013614Y013714D01*
X013615Y013716D01*
X013616Y013716D01*
X013623Y013725D01*
X013631Y013732D01*
X013639Y013738D01*
X013648Y013744D01*
X013656Y013749D01*
X013665Y013752D01*
X013673Y013755D01*
X013681Y013758D01*
X013689Y01376D01*
X013696Y013761D01*
X013702Y013762D01*
X013707Y013763D01*
X013712Y013764D01*
X013719D01*
X01373Y013763D01*
D02*
G37*
G36*
X012339Y014401D02*
X012085D01*
X012339Y014245D01*
Y014171D01*
X011961D01*
Y014241D01*
X01221D01*
X011961Y014395D01*
Y014471D01*
X012339D01*
Y014401D01*
D02*
G37*
G36*
X012025Y013895D02*
X012128D01*
Y014085D01*
X012192D01*
Y013895D01*
X012275D01*
Y014099D01*
X012339D01*
Y013819D01*
X011961D01*
Y014106D01*
X012025D01*
Y013895D01*
D02*
G37*
G36*
X012339Y012106D02*
X012085D01*
X012339Y01195D01*
Y011876D01*
X011961D01*
Y011947D01*
X01221D01*
X011961Y0121D01*
Y012177D01*
X012339D01*
Y012106D01*
D02*
G37*
G36*
Y011727D02*
X011961D01*
Y011803D01*
X012339D01*
Y011727D01*
D02*
G37*
G36*
Y011609D02*
X01206Y011517D01*
X012339Y011421D01*
Y011339D01*
X011961Y011474D01*
Y011556D01*
X012339Y011691D01*
Y011609D01*
D02*
G37*
G36*
X012173Y013562D02*
X01219Y01356D01*
X012198Y01356D01*
X012205Y013559D01*
X012212Y013558D01*
X012218Y013556D01*
X012223Y013555D01*
X012228Y013554D01*
X012233Y013553D01*
X012236Y013552D01*
X012239Y013551D01*
X012241Y01355D01*
X012242Y01355D01*
X012243D01*
X012256Y013545D01*
X012268Y013539D01*
X012278Y013533D01*
X012287Y013527D01*
X012294Y013522D01*
X012299Y013518D01*
X012303Y013515D01*
X012304Y013514D01*
Y013514D01*
X012312Y013505D01*
X01232Y013495D01*
X012326Y013485D01*
X01233Y013477D01*
X012334Y013469D01*
X012337Y013463D01*
X012338Y01346D01*
X012338Y013459D01*
X012339Y013458D01*
Y013457D01*
X012341Y013447D01*
X012343Y013435D01*
X012345Y013423D01*
X012345Y013412D01*
X012346Y013401D01*
X012346Y013397D01*
Y013246D01*
X011968D01*
Y013389D01*
X011969Y013404D01*
X01197Y013418D01*
X011971Y013429D01*
X011972Y013438D01*
X011974Y013446D01*
X011975Y013452D01*
X011976Y013454D01*
Y013455D01*
X011976Y013456D01*
Y013456D01*
X011981Y013469D01*
X011985Y013479D01*
X01199Y013488D01*
X011995Y013496D01*
X012Y013502D01*
X012003Y013506D01*
X012005Y013509D01*
X012006Y01351D01*
X012017Y013519D01*
X012027Y013527D01*
X012039Y013535D01*
X012049Y01354D01*
X012059Y013544D01*
X012063Y013547D01*
X012066Y013548D01*
X01207Y013549D01*
X012072Y01355D01*
X012073Y01355D01*
X012073D01*
X012086Y013554D01*
X0121Y013558D01*
X012113Y01356D01*
X012126Y013561D01*
X012132Y013561D01*
X012137Y013562D01*
X012142D01*
X012146Y013562D01*
X012149D01*
X012151D01*
X012153D01*
X012154D01*
X012173Y013562D01*
D02*
G37*
G36*
X012346Y013095D02*
X012092D01*
X012346Y012939D01*
Y012865D01*
X011968D01*
Y012936D01*
X012217D01*
X011968Y013089D01*
Y013165D01*
X012346D01*
Y013095D01*
D02*
G37*
G36*
X012171Y01263D02*
X012107D01*
Y012717D01*
X012059D01*
X012054Y012711D01*
X012049Y012704D01*
X012045Y012696D01*
X012042Y01269D01*
X012039Y012684D01*
X012037Y01268D01*
X012036Y012677D01*
X012036Y012676D01*
Y012676D01*
X012032Y012667D01*
X01203Y012658D01*
X012029Y01265D01*
X012027Y012643D01*
X012027Y012636D01*
X012026Y012632D01*
Y012628D01*
X012027Y012619D01*
X012028Y01261D01*
X01203Y012603D01*
X012032Y012595D01*
X012037Y012581D01*
X01204Y012576D01*
X012043Y01257D01*
X012047Y012565D01*
X012049Y012561D01*
X012053Y012558D01*
X012055Y012555D01*
X012057Y012552D01*
X012059Y012551D01*
X01206Y01255D01*
X01206Y012549D01*
X012067Y012544D01*
X012074Y012539D01*
X012082Y012535D01*
X01209Y012532D01*
X012107Y012527D01*
X012124Y012523D01*
X012131Y012522D01*
X012139Y012521D01*
X012145Y012521D01*
X012151Y01252D01*
X012155Y01252D01*
X012159D01*
X012161D01*
X012162D01*
X012173Y01252D01*
X012184Y012521D01*
X012194Y012522D01*
X012203Y012524D01*
X012211Y012526D01*
X012219Y012529D01*
X012226Y012532D01*
X012233Y012534D01*
X012238Y012536D01*
X012243Y012539D01*
X012247Y012542D01*
X01225Y012544D01*
X012253Y012546D01*
X012255Y012547D01*
X012256Y012548D01*
X012256Y012549D01*
X012262Y012555D01*
X012267Y012561D01*
X012271Y012567D01*
X012275Y012574D01*
X012278Y01258D01*
X012281Y012587D01*
X012285Y012599D01*
X012286Y012605D01*
X012287Y012611D01*
X012287Y012616D01*
X012288Y01262D01*
X012288Y012623D01*
Y012628D01*
X012288Y01264D01*
X012286Y012651D01*
X012284Y01266D01*
X01228Y012668D01*
X012278Y012674D01*
X012275Y012679D01*
X012273Y012682D01*
X012272Y012683D01*
X012266Y01269D01*
X012258Y012697D01*
X012251Y012702D01*
X012244Y012706D01*
X012238Y01271D01*
X012233Y012712D01*
X012229Y012713D01*
X012229Y012713D01*
X012228D01*
X012243Y012789D01*
X012252Y012787D01*
X012261Y012784D01*
X012269Y012781D01*
X012277Y012776D01*
X012285Y012772D01*
X012291Y012768D01*
X012297Y012764D01*
X012303Y012759D01*
X012308Y012755D01*
X012312Y012751D01*
X012316Y012748D01*
X012318Y012745D01*
X012321Y012742D01*
X012323Y01274D01*
X012323Y012739D01*
X012324Y012738D01*
X012329Y01273D01*
X012334Y012722D01*
X012338Y012713D01*
X012341Y012704D01*
X012346Y012686D01*
X01235Y012669D01*
X012351Y01266D01*
X012352Y012653D01*
X012352Y012646D01*
X012353Y01264D01*
X012353Y012635D01*
Y012628D01*
X012353Y012609D01*
X012351Y012591D01*
X012349Y012583D01*
X012347Y012576D01*
X012346Y012569D01*
X012344Y012563D01*
X012342Y012557D01*
X01234Y012552D01*
X012339Y012548D01*
X012338Y012544D01*
X012336Y012541D01*
X012335Y012539D01*
X012334Y012538D01*
Y012538D01*
X012325Y012521D01*
X012318Y012514D01*
X012313Y012506D01*
X012307Y0125D01*
X012301Y012494D01*
X012295Y012488D01*
X01229Y012484D01*
X012284Y01248D01*
X012279Y012476D01*
X012275Y012473D01*
X012271Y01247D01*
X012268Y012468D01*
X012266Y012467D01*
X012264Y012466D01*
X012263Y012466D01*
X012255Y012461D01*
X012246Y012457D01*
X012228Y012451D01*
X01221Y012447D01*
X012194Y012444D01*
X012186Y012443D01*
X01218Y012442D01*
X012174Y012441D01*
X012168D01*
X012165Y012441D01*
X012161D01*
X012159D01*
X012159D01*
X012138Y012442D01*
X01212Y012444D01*
X012103Y012448D01*
X012095Y01245D01*
X012088Y012452D01*
X012081Y012454D01*
X012075Y012456D01*
X01207Y012458D01*
X012066Y01246D01*
X012062Y012461D01*
X01206Y012462D01*
X012058Y012463D01*
X012057D01*
X012041Y012472D01*
X012027Y012482D01*
X012014Y012493D01*
X012005Y012504D01*
X012Y012509D01*
X011996Y012514D01*
X011993Y012518D01*
X011991Y012522D01*
X011989Y012524D01*
X011987Y012527D01*
X011987Y012528D01*
X011986Y012529D01*
X011982Y012538D01*
X011978Y012546D01*
X011972Y012564D01*
X011967Y012581D01*
X011965Y012597D01*
X011964Y012605D01*
X011962Y012611D01*
X011962Y012617D01*
Y012623D01*
X011961Y012627D01*
Y012633D01*
X011962Y01265D01*
X011964Y012666D01*
X011967Y012682D01*
X01197Y012696D01*
X011972Y012702D01*
X011973Y012707D01*
X011975Y012712D01*
X011976Y012717D01*
X011977Y01272D01*
X011978Y012722D01*
X011979Y012724D01*
Y012724D01*
X011985Y012741D01*
X011993Y012754D01*
X012Y012766D01*
X012006Y012777D01*
X012011Y012784D01*
X012013Y012787D01*
X012015Y01279D01*
X012017Y012791D01*
X012018Y012793D01*
X012019Y012794D01*
X012171D01*
Y01263D01*
D02*
G37*
G36*
X020499Y011337D02*
X020518Y011335D01*
X020535Y011331D01*
X020543Y01133D01*
X02055Y011328D01*
X020557Y011325D01*
X020563Y011324D01*
X020568Y011322D01*
X020572Y01132D01*
X020575Y011319D01*
X020578Y011318D01*
X02058Y011317D01*
X02058D01*
X020597Y011307D01*
X020611Y011297D01*
X020623Y011286D01*
X020633Y011275D01*
X020638Y01127D01*
X020641Y011265D01*
X020645Y011262D01*
X020647Y011258D01*
X020649Y011255D01*
X020651Y011252D01*
X020651Y011251D01*
X020652Y011251D01*
X020656Y011242D01*
X02066Y011234D01*
X020666Y011216D01*
X02067Y011198D01*
X020673Y011182D01*
X020674Y011175D01*
X020675Y011168D01*
X020676Y011162D01*
Y011157D01*
X020676Y011153D01*
Y011147D01*
X020676Y011129D01*
X020674Y011113D01*
X020671Y011097D01*
X020668Y011084D01*
X020666Y011078D01*
X020664Y011072D01*
X020663Y011067D01*
X020662Y011063D01*
X020661Y01106D01*
X020659Y011057D01*
X020659Y011056D01*
Y011055D01*
X020652Y011039D01*
X020645Y011025D01*
X020638Y011013D01*
X020632Y011003D01*
X020627Y010995D01*
X020625Y010992D01*
X020622Y01099D01*
X020621Y010988D01*
X02062Y010986D01*
X020619Y010985D01*
X020467D01*
Y01115D01*
X020531D01*
Y011062D01*
X020579D01*
X020584Y011069D01*
X020588Y011076D01*
X020592Y011083D01*
X020596Y01109D01*
X020598Y011095D01*
X020601Y0111D01*
X020602Y011103D01*
X020602Y011103D01*
Y011104D01*
X020605Y011113D01*
X020608Y011121D01*
X020609Y011129D01*
X02061Y011137D01*
X020611Y011143D01*
X020611Y011147D01*
Y011152D01*
X020611Y011161D01*
X02061Y011169D01*
X020608Y011177D01*
X020606Y011185D01*
X020601Y011198D01*
X020598Y011204D01*
X020594Y011209D01*
X020591Y011214D01*
X020588Y011218D01*
X020585Y011222D01*
X020583Y011225D01*
X020581Y011227D01*
X020579Y011229D01*
X020578Y01123D01*
X020578Y01123D01*
X020571Y011235D01*
X020563Y01124D01*
X020556Y011244D01*
X020548Y011247D01*
X020531Y011253D01*
X020514Y011256D01*
X020507Y011257D01*
X020499Y011258D01*
X020493Y011259D01*
X020487Y011259D01*
X020483Y01126D01*
X020479D01*
X020477D01*
X020476D01*
X020465Y011259D01*
X020454Y011259D01*
X020444Y011257D01*
X020435Y011256D01*
X020426Y011253D01*
X020419Y011251D01*
X020412Y011248D01*
X020405Y011245D01*
X0204Y011243D01*
X020395Y01124D01*
X020391Y011238D01*
X020388Y011235D01*
X020385Y011234D01*
X020383Y011232D01*
X020382Y011232D01*
X020382Y011231D01*
X020376Y011225D01*
X020371Y011219D01*
X020367Y011212D01*
X020363Y011206D01*
X02036Y011199D01*
X020357Y011193D01*
X020353Y01118D01*
X020352Y011174D01*
X020351Y011169D01*
X02035Y011164D01*
X02035Y011159D01*
X020349Y011156D01*
Y011151D01*
X02035Y011139D01*
X020352Y011129D01*
X020354Y01112D01*
X020358Y011111D01*
X02036Y011105D01*
X020363Y011101D01*
X020365Y011098D01*
X020366Y011097D01*
X020372Y011089D01*
X020379Y011083D01*
X020386Y011077D01*
X020394Y011073D01*
X0204Y01107D01*
X020405Y011068D01*
X020408Y011067D01*
X020409Y011066D01*
X020409D01*
X020395Y01099D01*
X020386Y010992D01*
X020377Y010996D01*
X020368Y010999D01*
X020361Y011003D01*
X020353Y011007D01*
X020347Y011012D01*
X020341Y011016D01*
X020335Y01102D01*
X02033Y011025D01*
X020326Y011028D01*
X020322Y011032D01*
X020319Y011035D01*
X020317Y011038D01*
X020315Y01104D01*
X020314Y011041D01*
X020314Y011042D01*
X020308Y011049D01*
X020304Y011057D01*
X0203Y011066D01*
X020297Y011075D01*
X020291Y011093D01*
X020288Y011111D01*
X020287Y011119D01*
X020286Y011127D01*
X020285Y011134D01*
X020285Y01114D01*
X020284Y011145D01*
Y011151D01*
X020285Y011171D01*
X020287Y011188D01*
X020289Y011196D01*
X02029Y011204D01*
X020292Y011211D01*
X020294Y011217D01*
X020296Y011222D01*
X020297Y011228D01*
X020299Y011232D01*
X0203Y011235D01*
X020302Y011238D01*
X020302Y01124D01*
X020303Y011241D01*
Y011242D01*
X020313Y011259D01*
X020319Y011266D01*
X020325Y011273D01*
X020331Y01128D01*
X020337Y011286D01*
X020343Y011291D01*
X020348Y011296D01*
X020354Y0113D01*
X020359Y011304D01*
X020363Y011307D01*
X020367Y01131D01*
X02037Y011311D01*
X020372Y011313D01*
X020374Y011313D01*
X020374Y011314D01*
X020383Y011318D01*
X020392Y011322D01*
X02041Y011328D01*
X020428Y011333D01*
X020444Y011335D01*
X020451Y011336D01*
X020458Y011337D01*
X020464Y011338D01*
X020469D01*
X020473Y011339D01*
X020477D01*
X020479D01*
X020479D01*
X020499Y011337D01*
D02*
G37*
G36*
X020669Y010844D02*
X02042D01*
X020669Y01069D01*
Y010614D01*
X020291D01*
Y010684D01*
X020546D01*
X020291Y010841D01*
Y010914D01*
X020669D01*
Y010844D01*
D02*
G37*
G36*
Y01039D02*
X020669Y010375D01*
X020668Y010362D01*
X020667Y01035D01*
X020665Y010341D01*
X020664Y010333D01*
X020663Y010327D01*
X020662Y010326D01*
Y010324D01*
X020662Y010324D01*
Y010323D01*
X020657Y010311D01*
X020652Y0103D01*
X020647Y010291D01*
X020643Y010284D01*
X020638Y010278D01*
X020635Y010273D01*
X020633Y010271D01*
X020632Y01027D01*
X020621Y01026D01*
X02061Y010252D01*
X020599Y010245D01*
X020588Y010239D01*
X020579Y010235D01*
X020575Y010233D01*
X020572Y010232D01*
X020568Y010231D01*
X020566Y01023D01*
X020565Y010229D01*
X020564D01*
X020551Y010225D01*
X020538Y010222D01*
X020525Y01022D01*
X020512Y010219D01*
X020506Y010218D01*
X020501Y010218D01*
X020496D01*
X020492Y010217D01*
X020489D01*
X020486D01*
X020485D01*
X020484D01*
X020465Y010218D01*
X020448Y010219D01*
X02044Y01022D01*
X020433Y010221D01*
X020426Y010222D01*
X02042Y010223D01*
X020414Y010225D01*
X020409Y010226D01*
X020405Y010227D01*
X020402Y010227D01*
X020399Y010229D01*
X020397Y010229D01*
X020396Y01023D01*
X020395D01*
X020382Y010235D01*
X02037Y010241D01*
X02036Y010247D01*
X020351Y010253D01*
X020344Y010258D01*
X020338Y010262D01*
X020335Y010265D01*
X020334Y010265D01*
Y010266D01*
X020325Y010275D01*
X020318Y010284D01*
X020312Y010294D01*
X020307Y010303D01*
X020303Y01031D01*
X020301Y010317D01*
X0203Y010319D01*
X0203Y010321D01*
X020299Y010322D01*
Y010322D01*
X020296Y010333D01*
X020295Y010344D01*
X020293Y010356D01*
X020293Y010368D01*
X020292Y010378D01*
X020291Y010383D01*
Y010533D01*
X020669D01*
Y01039D01*
D02*
G37*
G36*
X020438Y012382D02*
X02043Y012364D01*
X020425Y012356D01*
X02042Y012349D01*
X020416Y012342D01*
X020412Y012335D01*
X020407Y012329D01*
X020403Y012323D01*
X0204Y012319D01*
X020397Y012315D01*
X020394Y012312D01*
X020392Y01231D01*
X020391Y012309D01*
X020391Y012308D01*
X020664D01*
Y012236D01*
X020284D01*
Y012295D01*
X020297Y0123D01*
X020308Y012307D01*
X020319Y012315D01*
X020328Y012322D01*
X020335Y012329D01*
X020341Y012335D01*
X020343Y012337D01*
X020344Y012339D01*
X020345Y01234D01*
X020346Y01234D01*
X020354Y012352D01*
X020362Y012364D01*
X020368Y012374D01*
X020372Y012384D01*
X020376Y012391D01*
X020378Y012397D01*
X020379Y012399D01*
X020379Y0124D01*
X02038Y012401D01*
Y012402D01*
X020445D01*
X020438Y012382D01*
D02*
G37*
G36*
X020664Y011882D02*
X020597D01*
Y012026D01*
X02059Y012022D01*
X020584Y012017D01*
X020581Y012015D01*
X020579Y012013D01*
X020578Y012012D01*
X020578Y012012D01*
X020575Y01201D01*
X020573Y012007D01*
X020567Y012001D01*
X02056Y011994D01*
X020552Y011987D01*
X020546Y01198D01*
X02054Y011974D01*
X020538Y011971D01*
X020537Y01197D01*
X020536Y011969D01*
X020536Y011968D01*
X020524Y011956D01*
X020515Y011946D01*
X020506Y011938D01*
X020499Y011931D01*
X020494Y011927D01*
X02049Y011923D01*
X020487Y011921D01*
X020487Y011921D01*
X020478Y011913D01*
X020469Y011907D01*
X020461Y011903D01*
X020454Y011899D01*
X020448Y011895D01*
X020443Y011893D01*
X02044Y011892D01*
X020439Y011892D01*
X02043Y011888D01*
X020421Y011886D01*
X020413Y011885D01*
X020406Y011883D01*
X0204Y011883D01*
X020395Y011882D01*
X020391D01*
X02039D01*
X020382Y011883D01*
X020374Y011884D01*
X020366Y011885D01*
X020359Y011887D01*
X020347Y011893D01*
X020336Y011898D01*
X020331Y011901D01*
X020327Y011904D01*
X020323Y011907D01*
X02032Y01191D01*
X020318Y011912D01*
X020316Y011913D01*
X020315Y011914D01*
X020315Y011915D01*
X020309Y011921D01*
X020305Y011928D01*
X020301Y011934D01*
X020297Y011942D01*
X020292Y011956D01*
X020288Y01197D01*
X020287Y011977D01*
X020286Y011983D01*
X020285Y011988D01*
X020285Y011993D01*
X020284Y011997D01*
Y012002D01*
X020285Y012012D01*
X020285Y01202D01*
X020288Y012037D01*
X020293Y012052D01*
X020295Y012058D01*
X020297Y012064D01*
X0203Y01207D01*
X020302Y012074D01*
X020305Y012078D01*
X020306Y012082D01*
X020308Y012084D01*
X020309Y012086D01*
X02031Y012087D01*
X020311Y012088D01*
X020316Y012094D01*
X020321Y012099D01*
X020328Y012104D01*
X020335Y012108D01*
X020349Y012115D01*
X020363Y01212D01*
X02037Y012122D01*
X020376Y012124D01*
X020382Y012125D01*
X020386Y012126D01*
X020391Y012127D01*
X020394D01*
X020396Y012127D01*
X020396D01*
X020403Y012055D01*
X020392Y012054D01*
X020383Y012052D01*
X020375Y01205D01*
X020369Y012047D01*
X020364Y012045D01*
X020361Y012043D01*
X020359Y012041D01*
X020358Y012041D01*
X020354Y012035D01*
X02035Y012029D01*
X020348Y012023D01*
X020346Y012017D01*
X020345Y012012D01*
X020344Y012008D01*
Y012004D01*
X020345Y011996D01*
X020347Y011989D01*
X020349Y011983D01*
X020351Y011977D01*
X020353Y011974D01*
X020355Y01197D01*
X020357Y011969D01*
X020358Y011968D01*
X020363Y011964D01*
X020369Y01196D01*
X020375Y011958D01*
X020381Y011957D01*
X020386Y011955D01*
X020391Y011955D01*
X020394D01*
X020395D01*
X020395D01*
X020403Y011955D01*
X020411Y011957D01*
X020419Y01196D01*
X020425Y011963D01*
X020431Y011965D01*
X020436Y011968D01*
X020438Y01197D01*
X020439Y01197D01*
X020443Y011972D01*
X020447Y011976D01*
X020451Y01198D01*
X020456Y011984D01*
X020466Y011994D01*
X020477Y012004D01*
X020486Y012014D01*
X020491Y012018D01*
X020494Y012023D01*
X020497Y012026D01*
X020499Y012028D01*
X020501Y01203D01*
X020502Y01203D01*
X020512Y012041D01*
X020522Y012051D01*
X020531Y01206D01*
X020539Y012069D01*
X020548Y012076D01*
X020555Y012083D01*
X020562Y012089D01*
X020568Y012094D01*
X020574Y012098D01*
X020579Y012102D01*
X020582Y012105D01*
X020586Y012107D01*
X020588Y012109D01*
X020591Y012111D01*
X020592Y012112D01*
X020592D01*
X020605Y012119D01*
X020618Y012124D01*
X02063Y012129D01*
X020641Y012132D01*
X020651Y012134D01*
X020655Y012135D01*
X020658Y012135D01*
X020661Y012136D01*
X020663Y012136D01*
X020664D01*
X020664D01*
Y011882D01*
D02*
G37*
G36*
Y01172D02*
Y011638D01*
X020287Y011503D01*
Y011585D01*
X020566Y011677D01*
X020287Y011773D01*
Y011856D01*
X020664Y01172D01*
D02*
G37*
%LPC*%
G36*
X018713Y013655D02*
X01865Y013487D01*
X018775D01*
X018713Y013655D01*
D02*
G37*
G36*
X01785Y013692D02*
X017847D01*
X017841Y013691D01*
X017836Y01369D01*
X017832Y013688D01*
X017828Y013686D01*
X017824Y013684D01*
X017822Y013683D01*
X017821Y013682D01*
X01782Y013681D01*
X017816Y013676D01*
X017812Y013671D01*
X017809Y013664D01*
X017805Y013657D01*
X017803Y013651D01*
X017801Y013646D01*
X017801Y013642D01*
X0178Y013642D01*
Y013641D01*
X017799Y013635D01*
X017798Y013628D01*
X017796Y013619D01*
X017795Y013611D01*
X017794Y013593D01*
X017793Y013575D01*
X017792Y013566D01*
Y013558D01*
X017792Y01355D01*
Y013544D01*
Y013539D01*
Y013534D01*
Y013531D01*
Y013531D01*
Y013516D01*
X017792Y013503D01*
Y01349D01*
X017793Y013479D01*
X017794Y013468D01*
X017794Y013459D01*
X017796Y013451D01*
X017796Y013444D01*
X017797Y013437D01*
X017798Y013432D01*
X017799Y013427D01*
X0178Y013423D01*
X0178Y013421D01*
Y013418D01*
X017801Y013417D01*
Y013417D01*
X017803Y013407D01*
X017807Y0134D01*
X01781Y013394D01*
X017813Y013389D01*
X017815Y013385D01*
X017818Y013383D01*
X017819Y013381D01*
X01782Y013381D01*
X017824Y013377D01*
X017829Y013375D01*
X017834Y013373D01*
X017838Y013372D01*
X017841Y013371D01*
X017845Y013371D01*
X017847D01*
X017853Y013371D01*
X017859Y013372D01*
X017863Y013374D01*
X017867Y013376D01*
X01787Y013377D01*
X017873Y013379D01*
X017874Y01338D01*
X017875Y013381D01*
X017879Y013385D01*
X017883Y013391D01*
X017886Y013398D01*
X017889Y013404D01*
X017891Y01341D01*
X017893Y013415D01*
X017894Y013419D01*
X017895Y01342D01*
X017896Y013426D01*
X017897Y013434D01*
X017899Y013442D01*
X017899Y01345D01*
X017901Y013468D01*
X017901Y013487D01*
X017902Y013495D01*
Y013504D01*
X017902Y013511D01*
Y013518D01*
Y013523D01*
Y013527D01*
Y01353D01*
Y013531D01*
Y013545D01*
X017902Y013559D01*
Y013571D01*
X017901Y013583D01*
X017901Y013592D01*
X0179Y013602D01*
X017899Y01361D01*
X017898Y013618D01*
X017897Y013625D01*
X017897Y01363D01*
X017896Y013634D01*
X017895Y013638D01*
X017895Y013641D01*
Y013644D01*
X017894Y013644D01*
Y013645D01*
X017891Y013654D01*
X017888Y013662D01*
X017885Y013668D01*
X017882Y013673D01*
X01788Y013676D01*
X017878Y013679D01*
X017876Y01368D01*
X017876Y013681D01*
X017871Y013684D01*
X017866Y013687D01*
X017861Y013689D01*
X017857Y01369D01*
X017853Y013691D01*
X01785Y013692D01*
D02*
G37*
G36*
X016615D02*
X016612D01*
X016606Y013691D01*
X016601Y01369D01*
X016596Y013688D01*
X016592Y013686D01*
X016589Y013684D01*
X016587Y013683D01*
X016585Y013682D01*
X016585Y013681D01*
X016581Y013676D01*
X016577Y013671D01*
X016573Y013664D01*
X01657Y013657D01*
X016568Y013651D01*
X016566Y013646D01*
X016566Y013642D01*
X016565Y013642D01*
Y013641D01*
X016564Y013635D01*
X016562Y013628D01*
X016561Y013619D01*
X01656Y013611D01*
X016558Y013593D01*
X016558Y013575D01*
X016557Y013566D01*
Y013558D01*
X016556Y01355D01*
Y013544D01*
Y013539D01*
Y013534D01*
Y013531D01*
Y013531D01*
Y013516D01*
X016557Y013503D01*
Y01349D01*
X016558Y013479D01*
X016558Y013468D01*
X016559Y013459D01*
X01656Y013451D01*
X016561Y013444D01*
X016562Y013437D01*
X016563Y013432D01*
X016564Y013427D01*
X016564Y013423D01*
X016565Y013421D01*
Y013418D01*
X016566Y013417D01*
Y013417D01*
X016568Y013407D01*
X016571Y0134D01*
X016575Y013394D01*
X016577Y013389D01*
X01658Y013385D01*
X016583Y013383D01*
X016584Y013381D01*
X016585Y013381D01*
X016589Y013377D01*
X016594Y013375D01*
X016598Y013373D01*
X016603Y013372D01*
X016606Y013371D01*
X01661Y013371D01*
X016612D01*
X016618Y013371D01*
X016623Y013372D01*
X016628Y013374D01*
X016632Y013376D01*
X016635Y013377D01*
X016638Y013379D01*
X016639Y01338D01*
X01664Y013381D01*
X016644Y013385D01*
X016648Y013391D01*
X016651Y013398D01*
X016654Y013404D01*
X016656Y01341D01*
X016658Y013415D01*
X016659Y013419D01*
X016659Y01342D01*
X016661Y013426D01*
X016662Y013434D01*
X016663Y013442D01*
X016664Y01345D01*
X016665Y013468D01*
X016666Y013487D01*
X016667Y013495D01*
Y013504D01*
X016667Y013511D01*
Y013518D01*
Y013523D01*
Y013527D01*
Y01353D01*
Y013531D01*
Y013545D01*
X016667Y013559D01*
Y013571D01*
X016666Y013583D01*
X016665Y013592D01*
X016665Y013602D01*
X016664Y01361D01*
X016663Y013618D01*
X016662Y013625D01*
X016661Y01363D01*
X016661Y013634D01*
X01666Y013638D01*
X016659Y013641D01*
Y013644D01*
X016659Y013644D01*
Y013645D01*
X016656Y013654D01*
X016653Y013662D01*
X01665Y013668D01*
X016647Y013673D01*
X016644Y013676D01*
X016642Y013679D01*
X016641Y01368D01*
X01664Y013681D01*
X016636Y013684D01*
X016631Y013687D01*
X016626Y013689D01*
X016621Y01369D01*
X016618Y013691D01*
X016615Y013692D01*
D02*
G37*
G36*
X015556Y013692D02*
X015553D01*
X015547Y013691D01*
X015542Y01369D01*
X015538Y013688D01*
X015534Y013686D01*
X01553Y013684D01*
X015528Y013683D01*
X015526Y013682D01*
X015526Y013681D01*
X015522Y013676D01*
X015518Y013671D01*
X015515Y013664D01*
X015511Y013657D01*
X015509Y013651D01*
X015507Y013646D01*
X015507Y013642D01*
X015506Y013642D01*
Y013641D01*
X015505Y013635D01*
X015503Y013628D01*
X015502Y013619D01*
X015501Y013611D01*
X0155Y013593D01*
X015499Y013575D01*
X015498Y013566D01*
Y013558D01*
X015498Y01355D01*
Y013544D01*
Y013539D01*
Y013534D01*
Y013531D01*
Y013531D01*
Y013516D01*
X015498Y013503D01*
Y01349D01*
X015499Y013479D01*
X0155Y013468D01*
X0155Y013459D01*
X015502Y013451D01*
X015502Y013444D01*
X015503Y013437D01*
X015504Y013432D01*
X015505Y013427D01*
X015505Y013423D01*
X015506Y013421D01*
Y013418D01*
X015507Y013417D01*
Y013417D01*
X015509Y013407D01*
X015513Y0134D01*
X015516Y013394D01*
X015519Y013389D01*
X015521Y013385D01*
X015524Y013383D01*
X015525Y013381D01*
X015526Y013381D01*
X01553Y013377D01*
X015535Y013375D01*
X01554Y013373D01*
X015544Y013372D01*
X015547Y013371D01*
X015551Y013371D01*
X015553D01*
X015559Y013371D01*
X015565Y013372D01*
X015569Y013374D01*
X015573Y013376D01*
X015576Y013377D01*
X015579Y013379D01*
X01558Y01338D01*
X015581Y013381D01*
X015585Y013385D01*
X015589Y013391D01*
X015592Y013398D01*
X015595Y013404D01*
X015597Y01341D01*
X015599Y013415D01*
X0156Y013419D01*
X015601Y01342D01*
X015602Y013426D01*
X015603Y013434D01*
X015605Y013442D01*
X015605Y01345D01*
X015606Y013468D01*
X015607Y013487D01*
X015608Y013495D01*
Y013504D01*
X015608Y013511D01*
Y013518D01*
Y013523D01*
Y013527D01*
Y01353D01*
Y013531D01*
Y013545D01*
X015608Y013559D01*
Y013571D01*
X015607Y013583D01*
X015606Y013592D01*
X015606Y013602D01*
X015605Y01361D01*
X015604Y013618D01*
X015603Y013625D01*
X015603Y01363D01*
X015602Y013634D01*
X015601Y013638D01*
X015601Y013641D01*
Y013644D01*
X0156Y013644D01*
Y013645D01*
X015597Y013654D01*
X015594Y013662D01*
X015591Y013668D01*
X015588Y013673D01*
X015586Y013676D01*
X015584Y013679D01*
X015582Y01368D01*
X015582Y013681D01*
X015577Y013684D01*
X015572Y013687D01*
X015567Y013689D01*
X015563Y01369D01*
X015559Y013691D01*
X015556Y013692D01*
D02*
G37*
G36*
X013721D02*
X013719D01*
X013713Y013691D01*
X013707Y01369D01*
X013703Y013688D01*
X013699Y013686D01*
X013696Y013684D01*
X013693Y013683D01*
X013692Y013682D01*
X013691Y013681D01*
X013687Y013676D01*
X013683Y013671D01*
X01368Y013664D01*
X013677Y013657D01*
X013675Y013651D01*
X013673Y013646D01*
X013672Y013642D01*
X013671Y013642D01*
Y013641D01*
X01367Y013635D01*
X013669Y013628D01*
X013667Y013619D01*
X013666Y013611D01*
X013665Y013593D01*
X013664Y013575D01*
X013663Y013566D01*
Y013558D01*
X013663Y01355D01*
Y013544D01*
Y013539D01*
Y013534D01*
Y013531D01*
Y013531D01*
Y013516D01*
X013663Y013503D01*
Y01349D01*
X013664Y013479D01*
X013665Y013468D01*
X013665Y013459D01*
X013667Y013451D01*
X013667Y013444D01*
X013668Y013437D01*
X013669Y013432D01*
X01367Y013427D01*
X013671Y013423D01*
X013671Y013421D01*
Y013418D01*
X013672Y013417D01*
Y013417D01*
X013675Y013407D01*
X013678Y0134D01*
X013681Y013394D01*
X013684Y013389D01*
X013686Y013385D01*
X013689Y013383D01*
X01369Y013381D01*
X013691Y013381D01*
X013696Y013377D01*
X0137Y013375D01*
X013705Y013373D01*
X013709Y013372D01*
X013713Y013371D01*
X013716Y013371D01*
X013719D01*
X013724Y013371D01*
X01373Y013372D01*
X013734Y013374D01*
X013738Y013376D01*
X013741Y013377D01*
X013744Y013379D01*
X013745Y01338D01*
X013746Y013381D01*
X01375Y013385D01*
X013754Y013391D01*
X013757Y013398D01*
X013761Y013404D01*
X013762Y01341D01*
X013764Y013415D01*
X013765Y013419D01*
X013766Y01342D01*
X013767Y013426D01*
X013768Y013434D01*
X01377Y013442D01*
X01377Y01345D01*
X013772Y013468D01*
X013772Y013487D01*
X013773Y013495D01*
Y013504D01*
X013774Y013511D01*
Y013518D01*
Y013523D01*
Y013527D01*
Y01353D01*
Y013531D01*
Y013545D01*
X013773Y013559D01*
Y013571D01*
X013772Y013583D01*
X013772Y013592D01*
X013771Y013602D01*
X01377Y01361D01*
X013769Y013618D01*
X013768Y013625D01*
X013768Y01363D01*
X013767Y013634D01*
X013766Y013638D01*
X013766Y013641D01*
Y013644D01*
X013765Y013644D01*
Y013645D01*
X013762Y013654D01*
X013759Y013662D01*
X013757Y013668D01*
X013753Y013673D01*
X013751Y013676D01*
X013749Y013679D01*
X013747Y01368D01*
X013747Y013681D01*
X013742Y013684D01*
X013737Y013687D01*
X013732Y013689D01*
X013728Y01369D01*
X013724Y013691D01*
X013721Y013692D01*
D02*
G37*
G36*
X012168Y013484D02*
X012164D01*
X012161D01*
X012159D01*
X012157D01*
X012157D01*
X012142Y013483D01*
X012127Y013483D01*
X012116Y013481D01*
X012106Y01348D01*
X012098Y013478D01*
X012095Y013478D01*
X012092Y013477D01*
X01209Y013476D01*
X012089D01*
X012088Y013476D01*
X012088D01*
X012079Y013472D01*
X012071Y01347D01*
X012065Y013466D01*
X01206Y013463D01*
X012056Y01346D01*
X012054Y013458D01*
X012052Y013456D01*
X012052Y013456D01*
X012048Y013451D01*
X012044Y013446D01*
X012042Y013441D01*
X012039Y013436D01*
X012038Y013432D01*
X012037Y013429D01*
X012036Y013426D01*
Y013425D01*
X012035Y013419D01*
X012034Y013412D01*
X012033Y013405D01*
Y013397D01*
X012032Y01339D01*
Y013323D01*
X012282D01*
Y013372D01*
X012282Y01338D01*
Y013386D01*
X012281Y013392D01*
Y013396D01*
X012281Y013401D01*
Y013405D01*
X01228Y013411D01*
X012279Y013416D01*
X012279Y013418D01*
Y013419D01*
X012276Y013426D01*
X012274Y013433D01*
X012271Y013439D01*
X012268Y013444D01*
X012265Y013448D01*
X012263Y013452D01*
X012261Y013453D01*
X012261Y013454D01*
X012255Y013459D01*
X012249Y013463D01*
X012243Y013467D01*
X012238Y01347D01*
X012232Y013472D01*
X012228Y013474D01*
X012225Y013475D01*
X012225Y013476D01*
X012224D01*
X012214Y013478D01*
X012204Y013481D01*
X012192Y013482D01*
X012181Y013483D01*
X012172Y013483D01*
X012168Y013484D01*
D02*
G37*
G36*
X020605Y010457D02*
X020355D01*
Y010407D01*
X020356Y0104D01*
Y010393D01*
X020356Y010388D01*
Y010383D01*
X020357Y010378D01*
Y010374D01*
X020358Y010368D01*
X020359Y010364D01*
X020359Y010361D01*
Y010361D01*
X020361Y010353D01*
X020364Y010346D01*
X020367Y01034D01*
X02037Y010335D01*
X020373Y010331D01*
X020375Y010328D01*
X020377Y010326D01*
X020377Y010326D01*
X020383Y010321D01*
X020389Y010316D01*
X020395Y010313D01*
X0204Y010309D01*
X020406Y010307D01*
X02041Y010306D01*
X020413Y010304D01*
X020413Y010304D01*
X020414D01*
X020424Y010301D01*
X020434Y010299D01*
X020445Y010298D01*
X020456Y010297D01*
X020466Y010296D01*
X02047Y010296D01*
X020474D01*
X020477D01*
X020479D01*
X02048D01*
X020481D01*
X020496Y010296D01*
X02051Y010297D01*
X020522Y010298D01*
X020532Y0103D01*
X02054Y010301D01*
X020543Y010302D01*
X020545Y010303D01*
X020548Y010303D01*
X020549D01*
X02055Y010304D01*
X02055D01*
X020559Y010307D01*
X020567Y01031D01*
X020573Y010314D01*
X020578Y010316D01*
X020581Y010319D01*
X020584Y010321D01*
X020586Y010323D01*
X020586Y010324D01*
X02059Y010328D01*
X020593Y010333D01*
X020596Y010338D01*
X020598Y010343D01*
X0206Y010348D01*
X020601Y010351D01*
X020602Y010353D01*
Y010354D01*
X020603Y01036D01*
X020604Y010367D01*
X020605Y010375D01*
Y010383D01*
X020605Y01039D01*
Y010457D01*
D02*
G37*
%LPD*%
D52*
X022244Y010079D02*
G03*
X02252Y010354I0J000276D01*
G01*
X020118Y010079D02*
Y012598D01*
X02252D01*
Y010354D02*
Y012598D01*
X020118Y010079D02*
X022244D01*
X012441Y01126D02*
Y014606D01*
X010079Y01126D02*
X012441D01*
X010079D02*
Y014606D01*
X012441D01*
M02*
