G04*
G04 #@! TF.GenerationSoftware,Altium Limited,Altium Designer,21.0.8 (223)*
G04*
G04 Layer_Color=16711935*
%FSTAX24Y24*%
%MOIN*%
G70*
G04*
G04 #@! TF.SameCoordinates,D94166DE-144D-4B7D-845D-6ED18FE10B1D*
G04*
G04*
G04 #@! TF.FilePolarity,Positive*
G04*
G01*
G75*
%ADD10C,0.0039*%
%ADD12C,0.0079*%
%ADD13C,0.0070*%
%ADD14C,0.0070*%
%ADD15C,0.0100*%
%ADD16C,0.0050*%
G36*
X065352Y030291D02*
X065354D01*
X065357Y03029D01*
X065364Y030289D01*
X065372Y030287D01*
X06538Y030284D01*
X065388Y03028D01*
X065392Y030278D01*
X065395Y030275D01*
X065396Y030274D01*
X065396Y030274D01*
X065397Y030273D01*
X065398Y030272D01*
X0654Y03027D01*
X065401Y030268D01*
X065405Y030263D01*
X065409Y030256D01*
X065412Y030248D01*
X065415Y030239D01*
X065417Y030229D01*
X065388Y030226D01*
Y030226D01*
X065387Y030227D01*
Y030228D01*
X065387Y030229D01*
X065386Y030233D01*
X065384Y030238D01*
X065383Y030243D01*
X06538Y030248D01*
X065377Y030253D01*
X065373Y030257D01*
X065373Y030257D01*
X065372Y030258D01*
X065369Y03026D01*
X065366Y030261D01*
X065362Y030263D01*
X065357Y030264D01*
X065352Y030265D01*
X065346Y030266D01*
X065344D01*
X065341Y030265D01*
X065338Y030265D01*
X065334Y030264D01*
X06533Y030263D01*
X065325Y030262D01*
X065321Y03026D01*
X065321Y030259D01*
X06532Y030258D01*
X065317Y030257D01*
X065315Y030255D01*
X065312Y030252D01*
X065309Y030249D01*
X065306Y030246D01*
X065304Y030242D01*
X065303Y030242D01*
X065302Y03024D01*
X065301Y030237D01*
X0653Y030234D01*
X065298Y03023D01*
X065296Y030225D01*
X065294Y030219D01*
X065292Y030212D01*
Y030212D01*
X065292Y030211D01*
Y03021D01*
X065292Y030209D01*
X065291Y030205D01*
X06529Y030201D01*
X065289Y030195D01*
X065288Y030189D01*
X065288Y030182D01*
X065288Y030174D01*
Y030174D01*
Y030173D01*
Y030171D01*
Y030168D01*
X065288Y030169D01*
X065289Y030171D01*
X065292Y030173D01*
X065294Y030177D01*
X065298Y030181D01*
X065302Y030185D01*
X065307Y030189D01*
X065313Y030192D01*
X065314Y030193D01*
X065316Y030194D01*
X065319Y030195D01*
X065323Y030197D01*
X065329Y030198D01*
X065334Y0302D01*
X065341Y030201D01*
X065348Y030201D01*
X065351D01*
X065353Y030201D01*
X065356Y030201D01*
X065359Y0302D01*
X065363Y030199D01*
X065366Y030198D01*
X065375Y030196D01*
X065379Y030194D01*
X065383Y030192D01*
X065388Y030189D01*
X065392Y030186D01*
X065397Y030183D01*
X065401Y030179D01*
X065401Y030178D01*
X065402Y030178D01*
X065403Y030177D01*
X065404Y030175D01*
X065406Y030172D01*
X065408Y03017D01*
X065409Y030166D01*
X065411Y030163D01*
X065413Y030159D01*
X065415Y030154D01*
X065417Y030149D01*
X065419Y030144D01*
X06542Y030138D01*
X065421Y030132D01*
X065422Y030126D01*
X065422Y030119D01*
Y030119D01*
Y030117D01*
Y030115D01*
X065422Y030113D01*
X065421Y03011D01*
X065421Y030106D01*
X06542Y030102D01*
X065419Y030097D01*
X065417Y030087D01*
X065415Y030082D01*
X065413Y030077D01*
X06541Y030072D01*
X065407Y030067D01*
X065404Y030062D01*
X0654Y030058D01*
X065399Y030057D01*
X065399Y030056D01*
X065397Y030055D01*
X065396Y030054D01*
X065393Y030052D01*
X065391Y03005D01*
X065388Y030048D01*
X065384Y030045D01*
X06538Y030043D01*
X065376Y030041D01*
X065366Y030038D01*
X065361Y030036D01*
X065355Y030035D01*
X065349Y030034D01*
X065343Y030034D01*
X065341D01*
X065339Y030034D01*
X065337D01*
X065334Y030035D01*
X065328Y030036D01*
X065321Y030037D01*
X065314Y03004D01*
X065306Y030043D01*
X065298Y030047D01*
X065298D01*
X065298Y030048D01*
X065297Y030049D01*
X065295Y03005D01*
X065292Y030053D01*
X065287Y030057D01*
X065282Y030062D01*
X065277Y030069D01*
X065272Y030076D01*
X065268Y030085D01*
Y030086D01*
X065267Y030086D01*
X065266Y030088D01*
X065266Y03009D01*
X065265Y030092D01*
X065264Y030095D01*
X065263Y030099D01*
X065262Y030103D01*
X065261Y030108D01*
X06526Y030113D01*
X065259Y030119D01*
X065258Y030125D01*
X065258Y030132D01*
X065257Y030139D01*
X065257Y030147D01*
Y030156D01*
Y030156D01*
Y030158D01*
Y030161D01*
Y030164D01*
X065257Y030168D01*
Y030173D01*
X065257Y030178D01*
X065258Y030183D01*
X065259Y030196D01*
X065261Y030209D01*
X065264Y030221D01*
X065265Y030228D01*
X065267Y030233D01*
Y030233D01*
X065268Y030234D01*
X065268Y030236D01*
X065269Y030238D01*
X06527Y03024D01*
X065272Y030243D01*
X065275Y030249D01*
X06528Y030256D01*
X065285Y030263D01*
X065291Y03027D01*
X065298Y030276D01*
X065299D01*
X0653Y030277D01*
X065301Y030278D01*
X065302Y030278D01*
X065304Y03028D01*
X065306Y030281D01*
X065309Y030282D01*
X065312Y030284D01*
X065319Y030286D01*
X065328Y030289D01*
X065337Y03029D01*
X065347Y030291D01*
X06535D01*
X065352Y030291D01*
D02*
G37*
G36*
X067024D02*
X067027D01*
X067031Y03029D01*
X067035Y03029D01*
X067044Y030289D01*
X067054Y030287D01*
X067063Y030285D01*
X067072Y030281D01*
X067073D01*
X067073Y030281D01*
X067074Y03028D01*
X067076Y03028D01*
X06708Y030277D01*
X067085Y030274D01*
X067091Y03027D01*
X067097Y030265D01*
X067103Y030258D01*
X067109Y030252D01*
Y030251D01*
X067109Y03025D01*
X06711Y030249D01*
X067111Y030248D01*
X067112Y030246D01*
X067113Y030244D01*
X067115Y030238D01*
X067118Y030232D01*
X06712Y030224D01*
X067121Y030215D01*
X067122Y030206D01*
X067091Y030203D01*
Y030203D01*
Y030204D01*
X06709Y030205D01*
Y030206D01*
X06709Y03021D01*
X067089Y030214D01*
X067087Y030219D01*
X067086Y030225D01*
X067083Y03023D01*
X067081Y030234D01*
X06708Y030235D01*
X067079Y030236D01*
X067077Y030239D01*
X067074Y030241D01*
X067071Y030245D01*
X067067Y030248D01*
X067061Y030251D01*
X067055Y030254D01*
X067055D01*
X067055Y030254D01*
X067054Y030255D01*
X067053Y030255D01*
X067049Y030256D01*
X067044Y030258D01*
X067038Y030259D01*
X067032Y03026D01*
X067025Y030261D01*
X067017Y030261D01*
X067013D01*
X06701Y030261D01*
X067005Y030261D01*
X067Y03026D01*
X066994Y030259D01*
X066988Y030258D01*
X066983Y030256D01*
X066982Y030256D01*
X06698Y030255D01*
X066978Y030253D01*
X066975Y030252D01*
X066971Y030249D01*
X066968Y030247D01*
X066964Y030244D01*
X066961Y03024D01*
X066961Y03024D01*
X06696Y030238D01*
X066959Y030237D01*
X066958Y030234D01*
X066956Y030231D01*
X066955Y030227D01*
X066954Y030223D01*
X066954Y030219D01*
Y030218D01*
Y030217D01*
X066954Y030214D01*
X066955Y030211D01*
X066956Y030209D01*
X066957Y030205D01*
X066959Y030201D01*
X066961Y030198D01*
X066962Y030198D01*
X066963Y030197D01*
X066964Y030195D01*
X066967Y030193D01*
X06697Y030191D01*
X066974Y030188D01*
X066978Y030186D01*
X066984Y030183D01*
X066984Y030183D01*
X066986Y030183D01*
X066989Y030182D01*
X066991Y030181D01*
X066993Y030181D01*
X066996Y030179D01*
X066999Y030179D01*
X067003Y030178D01*
X067007Y030177D01*
X067011Y030175D01*
X067017Y030174D01*
X067022Y030173D01*
X067029Y030171D01*
X067029D01*
X06703Y030171D01*
X067032Y03017D01*
X067034Y03017D01*
X067037Y030169D01*
X06704Y030168D01*
X067047Y030166D01*
X067055Y030163D01*
X067064Y030161D01*
X067071Y030158D01*
X067074Y030157D01*
X067077Y030155D01*
X067078D01*
X067078Y030155D01*
X06708Y030154D01*
X067084Y030152D01*
X067087Y030149D01*
X067091Y030146D01*
X067096Y030142D01*
X0671Y030137D01*
X067104Y030132D01*
X067104Y030131D01*
X067105Y030129D01*
X067107Y030126D01*
X067108Y030123D01*
X06711Y030118D01*
X067111Y030112D01*
X067112Y030107D01*
X067113Y0301D01*
Y0301D01*
Y0301D01*
Y030099D01*
Y030097D01*
X067112Y030094D01*
X067111Y030089D01*
X06711Y030083D01*
X067108Y030077D01*
X067106Y030071D01*
X067102Y030065D01*
Y030064D01*
X067102Y030064D01*
X0671Y030062D01*
X067097Y030059D01*
X067094Y030055D01*
X06709Y030051D01*
X067084Y030047D01*
X067078Y030043D01*
X06707Y030039D01*
X06707D01*
X067069Y030039D01*
X067068Y030039D01*
X067067Y030038D01*
X067065Y030037D01*
X067062Y030036D01*
X067057Y030035D01*
X06705Y030033D01*
X067042Y030032D01*
X067034Y030031D01*
X067024Y030031D01*
X067019D01*
X067017Y030031D01*
X067014D01*
X067007Y030032D01*
X067Y030033D01*
X066992Y030035D01*
X066983Y030037D01*
X066975Y03004D01*
X066975D01*
X066974Y03004D01*
X066973Y030041D01*
X066971Y030041D01*
X066968Y030043D01*
X066963Y030047D01*
X066958Y03005D01*
X066952Y030055D01*
X066947Y03006D01*
X066942Y030067D01*
Y030067D01*
X066942Y030067D01*
X066941Y030068D01*
X06694Y03007D01*
X066939Y030073D01*
X066936Y030078D01*
X066934Y030084D01*
X066932Y030091D01*
X06693Y030098D01*
X06693Y030106D01*
X066962Y030108D01*
Y030108D01*
Y030107D01*
X066962Y030106D01*
X066962Y030104D01*
X066963Y0301D01*
X066965Y030095D01*
X066967Y030089D01*
X06697Y030083D01*
X066974Y030078D01*
X066979Y030073D01*
X06698Y030072D01*
X066982Y030071D01*
X066986Y030069D01*
X06699Y030067D01*
X066996Y030064D01*
X067004Y030062D01*
X067013Y030061D01*
X067023Y03006D01*
X067028D01*
X06703Y030061D01*
X067033Y030061D01*
X06704Y030062D01*
X067047Y030063D01*
X067054Y030065D01*
X067061Y030068D01*
X067064Y03007D01*
X067067Y030072D01*
X067068Y030072D01*
X067069Y030074D01*
X067071Y030076D01*
X067074Y030079D01*
X067076Y030083D01*
X067078Y030087D01*
X06708Y030092D01*
X067081Y030098D01*
Y030099D01*
Y0301D01*
X06708Y030103D01*
X067079Y030106D01*
X067078Y03011D01*
X067077Y030113D01*
X067074Y030117D01*
X067071Y03012D01*
X067071Y030121D01*
X067069Y030122D01*
X067067Y030123D01*
X067066Y030124D01*
X067064Y030125D01*
X067061Y030126D01*
X067058Y030127D01*
X067054Y030129D01*
X06705Y03013D01*
X067046Y030132D01*
X067041Y030134D01*
X067035Y030135D01*
X067028Y030137D01*
X067021Y030139D01*
X067021D01*
X067019Y030139D01*
X067017Y030139D01*
X067014Y03014D01*
X067011Y030141D01*
X067007Y030142D01*
X067003Y030143D01*
X066999Y030144D01*
X066989Y030147D01*
X06698Y030149D01*
X066976Y030151D01*
X066972Y030152D01*
X066968Y030153D01*
X066965Y030155D01*
X066965D01*
X066964Y030155D01*
X066963Y030156D01*
X066962Y030157D01*
X066958Y030159D01*
X066953Y030162D01*
X066947Y030166D01*
X066942Y03017D01*
X066937Y030175D01*
X066932Y030181D01*
X066932Y030181D01*
X066931Y030183D01*
X066929Y030186D01*
X066927Y030191D01*
X066925Y030196D01*
X066923Y030202D01*
X066922Y030209D01*
X066922Y030216D01*
Y030217D01*
Y030217D01*
Y030218D01*
Y03022D01*
X066923Y030224D01*
X066923Y030229D01*
X066925Y030234D01*
X066927Y030241D01*
X06693Y030247D01*
X066934Y030254D01*
Y030254D01*
X066934Y030255D01*
X066936Y030257D01*
X066938Y03026D01*
X066942Y030264D01*
X066947Y030268D01*
X066952Y030273D01*
X066959Y030277D01*
X066967Y030281D01*
X066967D01*
X066968Y030282D01*
X066969Y030282D01*
X06697Y030283D01*
X066972Y030284D01*
X066975Y030285D01*
X066981Y030286D01*
X066988Y030288D01*
X066996Y03029D01*
X067005Y030291D01*
X067015Y030291D01*
X067021D01*
X067024Y030291D01*
D02*
G37*
G36*
X066877Y030035D02*
X066827D01*
X066768Y030214D01*
Y030214D01*
X066767Y030215D01*
X066767Y030216D01*
X066766Y030218D01*
X066765Y030222D01*
X066763Y030228D01*
X066761Y030234D01*
X066759Y03024D01*
X066757Y030246D01*
X066756Y030251D01*
X066755Y03025D01*
X066755Y030248D01*
X066754Y030245D01*
X066752Y030241D01*
X06675Y030235D01*
X066748Y030228D01*
X066745Y03022D01*
X066742Y03021D01*
X066682Y030035D01*
X066637D01*
Y030287D01*
X066669D01*
Y030076D01*
X066742Y030287D01*
X066772D01*
X066845Y030072D01*
Y030287D01*
X066877D01*
Y030035D01*
D02*
G37*
G36*
X065704D02*
X065654D01*
X065594Y030214D01*
Y030214D01*
X065594Y030215D01*
X065594Y030216D01*
X065593Y030218D01*
X065591Y030222D01*
X06559Y030228D01*
X065588Y030234D01*
X065586Y03024D01*
X065584Y030246D01*
X065582Y030251D01*
X065582Y03025D01*
X065582Y030248D01*
X065581Y030245D01*
X065579Y030241D01*
X065577Y030235D01*
X065575Y030228D01*
X065572Y03022D01*
X065569Y03021D01*
X065508Y030035D01*
X065464D01*
Y030287D01*
X065496D01*
Y030076D01*
X065569Y030287D01*
X065599D01*
X065672Y030072D01*
Y030287D01*
X065704D01*
Y030035D01*
D02*
G37*
G36*
X065215D02*
X065165D01*
X065105Y030214D01*
Y030214D01*
X065105Y030215D01*
X065104Y030216D01*
X065104Y030218D01*
X065102Y030222D01*
X0651Y030228D01*
X065099Y030234D01*
X065096Y03024D01*
X065095Y030246D01*
X065093Y030251D01*
X065093Y03025D01*
X065092Y030248D01*
X065091Y030245D01*
X06509Y030241D01*
X065088Y030235D01*
X065086Y030228D01*
X065083Y03022D01*
X06508Y03021D01*
X065019Y030035D01*
X064974D01*
Y030287D01*
X065007D01*
Y030076D01*
X06508Y030287D01*
X06511D01*
X065183Y030072D01*
Y030287D01*
X065215D01*
Y030035D01*
D02*
G37*
G36*
X066129Y030291D02*
X066132D01*
X066136Y03029D01*
X066141Y03029D01*
X066146Y030289D01*
X066156Y030287D01*
X066167Y030284D01*
X066178Y03028D01*
X066183Y030278D01*
X066188Y030275D01*
X066189Y030274D01*
X06619Y030274D01*
X066191Y030273D01*
X066192Y030272D01*
X066195Y03027D01*
X066197Y030268D01*
X0662Y030265D01*
X066203Y030262D01*
X066206Y030259D01*
X066209Y030256D01*
X066216Y030248D01*
X066222Y030238D01*
X066227Y030227D01*
Y030226D01*
X066228Y030225D01*
X066228Y030224D01*
X06623Y030221D01*
X06623Y030218D01*
X066231Y030215D01*
X066233Y030211D01*
X066234Y030206D01*
X066235Y030202D01*
X066236Y030196D01*
X066238Y030185D01*
X06624Y030172D01*
X06624Y030159D01*
Y030159D01*
Y030157D01*
Y030155D01*
X06624Y030153D01*
Y030149D01*
X06624Y030145D01*
X066239Y030141D01*
X066239Y030136D01*
X066237Y030125D01*
X066234Y030114D01*
X066231Y030102D01*
X066226Y030091D01*
X066225Y03009D01*
X066225Y030089D01*
X066224Y030088D01*
X066223Y030086D01*
X066221Y030083D01*
X066219Y03008D01*
X066215Y030074D01*
X066208Y030067D01*
X066201Y030059D01*
X066193Y030052D01*
X066183Y030046D01*
X066183Y030045D01*
X066182Y030045D01*
X06618Y030044D01*
X066178Y030043D01*
X066175Y030042D01*
X066172Y030041D01*
X066169Y03004D01*
X066165Y030038D01*
X06616Y030037D01*
X066156Y030035D01*
X066145Y030033D01*
X066134Y030031D01*
X066122Y030031D01*
X066118D01*
X066116Y030031D01*
X066112Y030031D01*
X066108Y030032D01*
X066104Y030032D01*
X0661Y030033D01*
X06609Y030035D01*
X066079Y030039D01*
X066073Y030041D01*
X066068Y030043D01*
X066063Y030047D01*
X066058Y03005D01*
X066058Y03005D01*
X066057Y030051D01*
X066056Y030052D01*
X066054Y030054D01*
X066052Y030055D01*
X066049Y030058D01*
X066047Y030061D01*
X066044Y030064D01*
X066041Y030067D01*
X066038Y030072D01*
X066035Y030076D01*
X066032Y030081D01*
X066029Y030086D01*
X066026Y030092D01*
X066024Y030098D01*
X066022Y030104D01*
X066055Y030112D01*
Y030111D01*
X066055Y030111D01*
X066056Y030109D01*
X066057Y030107D01*
X066057Y030105D01*
X066058Y030102D01*
X066061Y030096D01*
X066065Y03009D01*
X066069Y030083D01*
X066075Y030077D01*
X066081Y030072D01*
X066081Y030071D01*
X066084Y03007D01*
X066087Y030068D01*
X066092Y030065D01*
X066098Y030063D01*
X066105Y030061D01*
X066113Y030059D01*
X066123Y030059D01*
X066125D01*
X066127Y030059D01*
X06613D01*
X066133Y03006D01*
X06614Y030061D01*
X066147Y030062D01*
X066155Y030065D01*
X066164Y030068D01*
X066171Y030073D01*
X066172D01*
X066172Y030074D01*
X066175Y030076D01*
X066178Y030079D01*
X066182Y030083D01*
X066187Y030088D01*
X066191Y030095D01*
X066195Y030102D01*
X066199Y030111D01*
Y030111D01*
X066199Y030112D01*
X066199Y030113D01*
X0662Y030115D01*
X0662Y030117D01*
X066201Y030119D01*
X066202Y030126D01*
X066204Y030133D01*
X066205Y030141D01*
X066206Y03015D01*
X066206Y030159D01*
Y030159D01*
Y030161D01*
Y030162D01*
Y030165D01*
X066206Y030167D01*
Y03017D01*
X066206Y030174D01*
X066205Y030178D01*
X066204Y030187D01*
X066202Y030196D01*
X0662Y030206D01*
X066197Y030215D01*
Y030215D01*
X066197Y030216D01*
X066196Y030217D01*
X066195Y030219D01*
X066193Y030224D01*
X06619Y030229D01*
X066186Y030234D01*
X066181Y030241D01*
X066175Y030246D01*
X066168Y030251D01*
X066168D01*
X066167Y030252D01*
X066166Y030252D01*
X066164Y030253D01*
X066163Y030254D01*
X06616Y030255D01*
X066155Y030257D01*
X066149Y030259D01*
X066141Y030261D01*
X066133Y030262D01*
X066125Y030263D01*
X066123D01*
X06612Y030262D01*
X066118D01*
X066115Y030262D01*
X066109Y030261D01*
X066101Y030259D01*
X066093Y030256D01*
X066085Y030252D01*
X066081Y03025D01*
X066078Y030247D01*
X066077Y030246D01*
X066077Y030246D01*
X066076Y030245D01*
X066074Y030244D01*
X066073Y030242D01*
X066071Y03024D01*
X066069Y030238D01*
X066067Y030235D01*
X066065Y030232D01*
X066062Y030228D01*
X06606Y030224D01*
X066058Y03022D01*
X066056Y030215D01*
X066054Y03021D01*
X066053Y030205D01*
X066051Y030199D01*
X066018Y030207D01*
Y030207D01*
X066018Y030209D01*
X066019Y030211D01*
X06602Y030214D01*
X066021Y030217D01*
X066022Y030221D01*
X066024Y030226D01*
X066026Y03023D01*
X066032Y030241D01*
X066038Y030251D01*
X066042Y030256D01*
X066046Y030261D01*
X06605Y030265D01*
X066056Y03027D01*
X066056Y03027D01*
X066057Y030271D01*
X066058Y030272D01*
X06606Y030273D01*
X066063Y030275D01*
X066066Y030277D01*
X06607Y030278D01*
X066074Y03028D01*
X066079Y030282D01*
X066084Y030284D01*
X066089Y030286D01*
X066095Y030288D01*
X066101Y030289D01*
X066108Y03029D01*
X066115Y030291D01*
X066122Y030291D01*
X066126D01*
X066129Y030291D01*
D02*
G37*
G36*
X066583Y030035D02*
X066486D01*
X066479Y030035D01*
X066472Y030036D01*
X066465Y030036D01*
X066457Y030038D01*
X066451Y030039D01*
X066451D01*
X06645Y030039D01*
X066449D01*
X066448Y03004D01*
X066444Y030041D01*
X066438Y030043D01*
X066433Y030045D01*
X066426Y030048D01*
X06642Y030052D01*
X066414Y030057D01*
X066414Y030057D01*
X066414Y030058D01*
X066413Y030059D01*
X066411Y03006D01*
X066408Y030063D01*
X066403Y030068D01*
X066398Y030075D01*
X066393Y030082D01*
X066389Y03009D01*
X066385Y0301D01*
Y0301D01*
X066384Y030101D01*
X066384Y030102D01*
X066383Y030104D01*
X066382Y030107D01*
X066381Y03011D01*
X066381Y030113D01*
X06638Y030117D01*
X066378Y030121D01*
X066378Y030126D01*
X066376Y030136D01*
X066375Y030147D01*
X066374Y03016D01*
Y03016D01*
Y030161D01*
Y030163D01*
Y030165D01*
X066375Y030167D01*
Y03017D01*
X066375Y030177D01*
X066376Y030185D01*
X066377Y030193D01*
X066379Y030202D01*
X066381Y030211D01*
Y030211D01*
X066382Y030212D01*
X066382Y030213D01*
X066382Y030214D01*
X066384Y030218D01*
X066386Y030224D01*
X066388Y030229D01*
X066391Y030235D01*
X066395Y030241D01*
X066398Y030247D01*
X066399Y030248D01*
X0664Y03025D01*
X066402Y030252D01*
X066405Y030256D01*
X066409Y030259D01*
X066413Y030263D01*
X066417Y030267D01*
X066421Y03027D01*
X066422Y03027D01*
X066424Y030272D01*
X066426Y030273D01*
X06643Y030275D01*
X066434Y030277D01*
X066439Y030279D01*
X066445Y030281D01*
X066452Y030283D01*
X066452D01*
X066453Y030283D01*
X066455Y030284D01*
X066458Y030284D01*
X066463Y030285D01*
X066469Y030285D01*
X066476Y030286D01*
X066484Y030286D01*
X066492Y030287D01*
X066583D01*
Y030035D01*
D02*
G37*
G36*
X065872Y030291D02*
X065875D01*
X065879Y03029D01*
X065883Y03029D01*
X065888Y030289D01*
X065898Y030287D01*
X065908Y030284D01*
X065919Y03028D01*
X065925Y030277D01*
X06593Y030274D01*
X06593Y030274D01*
X065931Y030273D01*
X065933Y030272D01*
X065935Y030271D01*
X065937Y030269D01*
X065939Y030267D01*
X065946Y030262D01*
X065953Y030255D01*
X06596Y030247D01*
X065966Y030238D01*
X065973Y030228D01*
Y030227D01*
X065973Y030226D01*
X065974Y030225D01*
X065975Y030222D01*
X065976Y03022D01*
X065977Y030216D01*
X065978Y030213D01*
X065979Y030209D01*
X065981Y030204D01*
X065982Y030199D01*
X065985Y030188D01*
X065986Y030177D01*
X065987Y030165D01*
Y030164D01*
Y030164D01*
Y030162D01*
X065986Y030158D01*
Y030154D01*
X065986Y030149D01*
X065985Y030143D01*
X065984Y030136D01*
X065982Y030129D01*
X065981Y030121D01*
X065979Y030113D01*
X065976Y030105D01*
X065973Y030096D01*
X065969Y030088D01*
X065964Y03008D01*
X065959Y030073D01*
X065953Y030066D01*
X065953Y030066D01*
X065952Y030065D01*
X06595Y030063D01*
X065947Y030061D01*
X065944Y030058D01*
X06594Y030055D01*
X065935Y030052D01*
X06593Y030048D01*
X065924Y030045D01*
X065917Y030042D01*
X06591Y030039D01*
X065902Y030036D01*
X065894Y030034D01*
X065885Y030032D01*
X065876Y030031D01*
X065866Y030031D01*
X065863D01*
X06586Y030031D01*
X065857D01*
X065854Y030031D01*
X06585Y030032D01*
X065845Y030033D01*
X065836Y030035D01*
X065825Y030038D01*
X065814Y030042D01*
X065809Y030044D01*
X065803Y030047D01*
X065803Y030048D01*
X065802Y030048D01*
X065801Y030049D01*
X065799Y03005D01*
X065796Y030052D01*
X065793Y030054D01*
X065787Y030059D01*
X065781Y030066D01*
X065773Y030074D01*
X065767Y030083D01*
X065761Y030094D01*
Y030094D01*
X06576Y030095D01*
X065759Y030097D01*
X065759Y030099D01*
X065757Y030102D01*
X065756Y030105D01*
X065755Y030109D01*
X065753Y030114D01*
X065752Y030118D01*
X065751Y030123D01*
X065749Y030129D01*
X065748Y030135D01*
X065747Y030148D01*
X065746Y030162D01*
Y030162D01*
Y030163D01*
Y030165D01*
X065746Y030168D01*
Y030171D01*
X065747Y030175D01*
X065747Y03018D01*
X065748Y030185D01*
X065749Y030195D01*
X065752Y030207D01*
X065756Y030218D01*
X065759Y030224D01*
X065761Y03023D01*
Y03023D01*
X065762Y030232D01*
X065763Y030233D01*
X065764Y030235D01*
X065766Y030238D01*
X065768Y03024D01*
X065773Y030247D01*
X065779Y030254D01*
X065786Y030262D01*
X065795Y030269D01*
X065805Y030276D01*
X065805D01*
X065806Y030277D01*
X065808Y030277D01*
X06581Y030278D01*
X065813Y03028D01*
X065816Y030281D01*
X065819Y030282D01*
X065823Y030284D01*
X065828Y030285D01*
X065832Y030286D01*
X065843Y030289D01*
X065854Y03029D01*
X065866Y030291D01*
X06587D01*
X065872Y030291D01*
D02*
G37*
%LPC*%
G36*
X06534Y030174D02*
X065338D01*
X065337Y030174D01*
X065333Y030173D01*
X065328Y030172D01*
X065322Y03017D01*
X065316Y030168D01*
X06531Y030164D01*
X065305Y030159D01*
X065304Y030158D01*
X065303Y030156D01*
X065301Y030153D01*
X065298Y030148D01*
X065295Y030142D01*
X065293Y030135D01*
X065292Y030127D01*
X065291Y030118D01*
Y030117D01*
Y030116D01*
Y030115D01*
X065291Y030113D01*
Y030111D01*
X065292Y030108D01*
X065293Y030102D01*
X065294Y030095D01*
X065297Y030088D01*
X0653Y030081D01*
X065305Y030075D01*
Y030075D01*
X065306Y030074D01*
X065308Y030072D01*
X06531Y03007D01*
X065314Y030067D01*
X06532Y030064D01*
X065325Y030062D01*
X065332Y03006D01*
X065336Y030059D01*
X065341D01*
X065343Y03006D01*
X065347Y03006D01*
X065352Y030062D01*
X065357Y030063D01*
X065364Y030067D01*
X06537Y030071D01*
X065373Y030074D01*
X065376Y030076D01*
Y030077D01*
X065376Y030077D01*
X065377Y030078D01*
X065378Y030079D01*
X06538Y030083D01*
X065383Y030088D01*
X065386Y030094D01*
X065388Y030102D01*
X06539Y030111D01*
X065391Y03012D01*
Y03012D01*
Y030121D01*
Y030122D01*
X06539Y030124D01*
Y030126D01*
X06539Y030129D01*
X065389Y030134D01*
X065387Y03014D01*
X065385Y030147D01*
X065381Y030153D01*
X065376Y030159D01*
X065376Y03016D01*
X065374Y030161D01*
X065371Y030164D01*
X065367Y030166D01*
X065361Y030169D01*
X065355Y030172D01*
X065348Y030173D01*
X06534Y030174D01*
D02*
G37*
G36*
X066549Y030257D02*
X066489D01*
X066487Y030257D01*
X066481Y030256D01*
X066475Y030256D01*
X066469Y030255D01*
X066462Y030254D01*
X066457Y030253D01*
X066456Y030252D01*
X066454Y030252D01*
X066452Y030251D01*
X066448Y030249D01*
X066445Y030247D01*
X066441Y030245D01*
X066437Y030242D01*
X066434Y03024D01*
X066433Y030239D01*
X066432Y030237D01*
X06643Y030235D01*
X066427Y030231D01*
X066424Y030226D01*
X066421Y030221D01*
X066418Y030215D01*
X066416Y030208D01*
Y030207D01*
X066415Y030207D01*
X066415Y030206D01*
X066414Y030204D01*
X066414Y030202D01*
X066413Y0302D01*
X066413Y030197D01*
X066412Y030194D01*
X066411Y030187D01*
X06641Y030179D01*
X066409Y030169D01*
X066409Y030159D01*
Y030159D01*
Y030157D01*
Y030155D01*
X066409Y030153D01*
Y030149D01*
X066409Y030146D01*
X06641Y030141D01*
X06641Y030137D01*
X066412Y030127D01*
X066414Y030117D01*
X066417Y030107D01*
X06642Y030103D01*
X066422Y030099D01*
Y030098D01*
X066422Y030098D01*
X066423Y030096D01*
X066424Y030095D01*
X066427Y030091D01*
X06643Y030087D01*
X066435Y030082D01*
X066441Y030078D01*
X066447Y030074D01*
X066453Y03007D01*
X066454Y03007D01*
X066456Y03007D01*
X066459Y030068D01*
X066464Y030067D01*
X06647Y030067D01*
X066477Y030066D01*
X066481Y030065D01*
X066486D01*
X066491Y030065D01*
X066549D01*
Y030257D01*
D02*
G37*
G36*
X065867Y030263D02*
X065865D01*
X065863Y030262D01*
X06586D01*
X065857Y030262D01*
X065854Y030261D01*
X065849Y030261D01*
X065845Y03026D01*
X06584Y030258D01*
X065835Y030256D01*
X06583Y030254D01*
X065824Y030252D01*
X065819Y030249D01*
X065814Y030245D01*
X065809Y030241D01*
X065804Y030237D01*
X065804Y030236D01*
X065803Y030236D01*
X065802Y030234D01*
X0658Y030232D01*
X065799Y030229D01*
X065797Y030226D01*
X065795Y030222D01*
X065792Y030217D01*
X06579Y030212D01*
X065788Y030206D01*
X065786Y0302D01*
X065784Y030194D01*
X065782Y030186D01*
X065781Y030178D01*
X06578Y03017D01*
X06578Y030161D01*
Y030161D01*
Y03016D01*
Y030158D01*
Y030156D01*
X06578Y030154D01*
Y03015D01*
X065781Y030147D01*
X065781Y030143D01*
X065783Y030135D01*
X065784Y030126D01*
X065787Y030116D01*
X065791Y030108D01*
Y030107D01*
X065791Y030107D01*
X065792Y030106D01*
X065792Y030104D01*
X065795Y0301D01*
X065798Y030095D01*
X065803Y030089D01*
X065808Y030083D01*
X065814Y030077D01*
X065821Y030072D01*
X065822D01*
X065822Y030071D01*
X065823Y030071D01*
X065825Y03007D01*
X065827Y030069D01*
X065829Y030068D01*
X065834Y030066D01*
X065841Y030063D01*
X065848Y030061D01*
X065857Y03006D01*
X065866Y030059D01*
X06587D01*
X065872Y03006D01*
X065875Y03006D01*
X065879Y030061D01*
X065883Y030062D01*
X065887Y030062D01*
X065896Y030065D01*
X065902Y030067D01*
X065907Y03007D01*
X065912Y030072D01*
X065917Y030076D01*
X065922Y030079D01*
X065927Y030084D01*
X065927Y030084D01*
X065928Y030085D01*
X065929Y030086D01*
X065931Y030088D01*
X065933Y030091D01*
X065935Y030094D01*
X065937Y030098D01*
X06594Y030103D01*
X065942Y030108D01*
X065945Y030114D01*
X065947Y030121D01*
X065949Y030128D01*
X06595Y030136D01*
X065951Y030145D01*
X065952Y030155D01*
X065953Y030165D01*
Y030165D01*
Y030167D01*
Y030169D01*
X065952Y030173D01*
X065952Y030176D01*
X065951Y030181D01*
X06595Y030186D01*
X06595Y030191D01*
X065947Y030202D01*
X065945Y030208D01*
X065942Y030214D01*
X065939Y03022D01*
X065936Y030226D01*
X065933Y030232D01*
X065928Y030237D01*
X065928Y030237D01*
X065927Y030238D01*
X065926Y030239D01*
X065924Y030241D01*
X065921Y030243D01*
X065918Y030245D01*
X065915Y030247D01*
X065911Y03025D01*
X065907Y030252D01*
X065902Y030254D01*
X065897Y030257D01*
X065892Y030259D01*
X065886Y03026D01*
X06588Y030262D01*
X065874Y030262D01*
X065867Y030263D01*
D02*
G37*
%LPD*%
D10*
X070769Y033759D02*
G03*
X070769Y033759I-000197J0D01*
G01*
X078934Y040652D02*
G03*
X078934Y040652I-000197J0D01*
G01*
X069355Y042142D02*
G03*
X069445Y042232I0J00009D01*
G01*
X070615Y041342D02*
G03*
X070525Y041252I0J-00009D01*
G01*
Y042232D02*
G03*
X070615Y042142I00009J0D01*
G01*
X069445Y041252D02*
G03*
X069355Y041342I-00009J0D01*
G01*
X079066Y044492D02*
G03*
X079066Y044492I-000197J0D01*
G01*
X079082Y037812D02*
X080421D01*
X079082Y036832D02*
X080421D01*
X079082D02*
Y037812D01*
X080421Y036832D02*
Y037812D01*
X068103Y041801D02*
X068477D01*
X068103Y04249D02*
X068477D01*
X068103Y041801D02*
Y04249D01*
X068477Y041801D02*
Y04249D01*
X079079Y0459D02*
Y04654D01*
X077619D02*
X079079D01*
X077619Y0459D02*
Y04654D01*
Y0459D02*
X079079D01*
X07545Y036129D02*
X075824D01*
X07545Y03544D02*
X075824D01*
Y036129D01*
X07545Y03544D02*
Y036129D01*
X075009Y036423D02*
Y036797D01*
X075698Y036423D02*
Y036797D01*
X075009D02*
X075698D01*
X075009Y036423D02*
X075698D01*
X074958Y035441D02*
X075332D01*
X074958Y03613D02*
X075332D01*
X074958Y035441D02*
Y03613D01*
X075332Y035441D02*
Y03613D01*
X073257Y042405D02*
X073946D01*
X073257Y042779D02*
X073946D01*
X073257Y042405D02*
Y042779D01*
X073946Y042405D02*
Y042779D01*
X073405Y043442D02*
X074094D01*
X073405Y043816D02*
X074094D01*
X073405Y043442D02*
Y043816D01*
X074094Y043442D02*
Y043816D01*
X06804Y048858D02*
Y052716D01*
X06406D02*
X06803D01*
X064062Y048858D02*
X068039D01*
X06406D02*
Y052716D01*
X07647Y033964D02*
Y034653D01*
X076096Y033964D02*
Y034653D01*
Y033964D02*
X07647D01*
X076096Y034653D02*
X07647D01*
X073519Y039564D02*
Y039938D01*
X07283Y039564D02*
Y039938D01*
X073519D01*
X07283Y039564D02*
X073519D01*
X071554Y038015D02*
X072243D01*
X071554Y038389D02*
X072243D01*
X071554Y038015D02*
Y038389D01*
X072243Y038015D02*
Y038389D01*
X074899Y03479D02*
X075588D01*
X074899Y034416D02*
X075588D01*
Y03479D01*
X074899Y034416D02*
Y03479D01*
X073739D02*
X074428D01*
X073739Y034416D02*
X074428D01*
Y03479D01*
X073739Y034416D02*
Y03479D01*
X073453Y035568D02*
Y036119D01*
X074634Y035568D02*
Y036119D01*
X073453D02*
X074634D01*
X073453Y035568D02*
X074634D01*
X074933Y036119D02*
X076114D01*
X074933Y035568D02*
X076114D01*
X074933D02*
Y036119D01*
X076114Y035568D02*
Y036119D01*
X070737Y036809D02*
Y037183D01*
X070048Y036809D02*
Y037183D01*
X070737D01*
X070048Y036809D02*
X070737D01*
X074429Y037183D02*
X075118D01*
X074429Y036809D02*
X075118D01*
Y037183D01*
X074429Y036809D02*
Y037183D01*
X075509Y036809D02*
X076198D01*
X075509Y037183D02*
X076198D01*
X075509Y036809D02*
Y037183D01*
X076198Y036809D02*
Y037183D01*
X076592Y036809D02*
Y037183D01*
X077281Y036809D02*
Y037183D01*
X076592Y036809D02*
X077281D01*
X076592Y037183D02*
X077281D01*
X078361Y051513D02*
Y052202D01*
X078735Y051513D02*
Y052202D01*
X078361D02*
X078735D01*
X078361Y051513D02*
X078735D01*
X077912Y05059D02*
Y051279D01*
X078286Y05059D02*
Y051279D01*
X077912D02*
X078286D01*
X077912Y05059D02*
X078286D01*
X077946Y0527D02*
X078635D01*
X077946Y052326D02*
X078635D01*
Y0527D01*
X077946Y052326D02*
Y0527D01*
X064564Y054169D02*
Y054858D01*
X064938Y054169D02*
Y054858D01*
X064564D02*
X064938D01*
X064564Y054169D02*
X064938D01*
X064682Y053484D02*
X065371D01*
X064682Y053858D02*
X065371D01*
X064682Y053484D02*
Y053858D01*
X065371Y053484D02*
Y053858D01*
X064684Y055155D02*
X065373D01*
X064684Y055529D02*
X065373D01*
X064684Y055155D02*
Y055529D01*
X065373Y055155D02*
Y055529D01*
X076018Y045307D02*
Y047467D01*
Y045307D02*
X077118D01*
Y047467D01*
X076018D02*
X077118D01*
X078414Y045338D02*
X079103D01*
X078414Y045712D02*
X079103D01*
Y045338D02*
Y045712D01*
X078414Y045338D02*
Y045712D01*
X081097Y046962D02*
X081472D01*
X081097Y047651D02*
X081472D01*
Y046962D02*
Y047651D01*
X081097Y046962D02*
Y047651D01*
X074155Y033404D02*
Y034979D01*
X070218Y033404D02*
Y034979D01*
X074155D01*
X070218Y033404D02*
X074155D01*
X073956Y04185D02*
Y042224D01*
X073267Y04185D02*
Y042224D01*
X073956D01*
X073267Y04185D02*
X073956D01*
X073964Y042883D02*
Y043257D01*
X073275Y042883D02*
Y043257D01*
X073964D01*
X073275Y042883D02*
X073964D01*
X062819Y049815D02*
X063193D01*
X062819Y050504D02*
X063193D01*
Y049815D02*
Y050504D01*
X062819Y049815D02*
Y050504D01*
X062252Y049815D02*
Y050504D01*
X062626Y049815D02*
Y050504D01*
X062252D02*
X062626D01*
X062252Y049815D02*
X062626D01*
X063371Y050505D02*
X063745D01*
X063371Y049816D02*
X063745D01*
X063371D02*
Y050505D01*
X063745Y049816D02*
Y050505D01*
X063264Y050776D02*
Y051416D01*
X061804Y050776D02*
X063264D01*
X061804D02*
Y051416D01*
X063264D01*
X061686Y04982D02*
X06206D01*
X061686Y050509D02*
X06206D01*
Y04982D02*
Y050509D01*
X061686Y04982D02*
Y050509D01*
X078581Y033029D02*
Y036229D01*
X076181Y033029D02*
X078581D01*
X076181D02*
Y036229D01*
X078581D01*
X077255Y036832D02*
Y037812D01*
X078593Y036832D02*
Y037812D01*
X077255D02*
X078593D01*
X077255Y036832D02*
X078593D01*
X075452Y042024D02*
X077971D01*
X075452Y044543D02*
X077971D01*
X075452Y042024D02*
Y044543D01*
X077971Y042024D02*
Y044543D01*
X078383Y040297D02*
X080352D01*
X078383Y041872D02*
X080352D01*
X078383Y040297D02*
Y041872D01*
X080352Y040297D02*
Y041872D01*
X080405Y047231D02*
Y048461D01*
X079402Y047231D02*
Y048461D01*
X080405D01*
X079402Y047231D02*
X080405D01*
X071429Y041757D02*
X072029D01*
X071429Y040967D02*
Y041757D01*
Y040967D02*
X072029D01*
Y041757D01*
X069445Y041252D02*
X070525D01*
X069445Y042232D02*
X070525D01*
X070615Y041342D02*
Y042142D01*
X069355Y041342D02*
Y042142D01*
X070435Y041442D02*
Y042042D01*
X069535D02*
X070435D01*
X069535Y041442D02*
Y042042D01*
Y041442D02*
X070435D01*
X07132Y041709D02*
X07252D01*
X07132D02*
Y042309D01*
X07252D01*
Y041709D02*
Y042309D01*
X079519Y042789D02*
Y044935D01*
X07633Y042789D02*
Y044935D01*
X079519D01*
X07633Y042789D02*
X079519D01*
X073257Y064478D02*
X073631D01*
X073257Y063789D02*
X073631D01*
Y064478D01*
X073257Y063789D02*
Y064478D01*
X081096Y042848D02*
Y043222D01*
X080407Y042848D02*
Y043222D01*
X081096D01*
X080407Y042848D02*
X081096D01*
X08141Y039709D02*
Y040083D01*
X080722Y039709D02*
Y040083D01*
Y039709D02*
X08141D01*
X080722Y040083D02*
X08141D01*
X066808Y045919D02*
X067497D01*
X066808Y045545D02*
X067497D01*
Y045919D01*
X066808Y045545D02*
Y045919D01*
X064149Y047724D02*
X064838D01*
X064149Y04735D02*
X064838D01*
Y047724D01*
X064149Y04735D02*
Y047724D01*
X076264Y045617D02*
X076953D01*
X076264Y045243D02*
X076953D01*
Y045617D01*
X076264Y045243D02*
Y045617D01*
X077867Y045215D02*
X078556D01*
X077867Y045589D02*
X078556D01*
X077867Y045215D02*
Y045589D01*
X078556Y045215D02*
Y045589D01*
X071823Y048543D02*
Y048917D01*
X071134Y048543D02*
Y048917D01*
X071823D01*
X071134Y048543D02*
X071823D01*
X075533Y048228D02*
X075907D01*
X075533Y048917D02*
X075907D01*
X075533Y048228D02*
Y048917D01*
X075907Y048228D02*
Y048917D01*
X075511Y049999D02*
X075885D01*
X075511Y04931D02*
X075885D01*
Y049999D01*
X075511Y04931D02*
Y049999D01*
X072483Y047413D02*
Y047787D01*
X071794Y047413D02*
Y047787D01*
Y047413D02*
X072483D01*
X071794Y047787D02*
X072483D01*
X073153Y046001D02*
X073704D01*
X073153Y047183D02*
X073704D01*
Y046001D02*
Y047183D01*
X073153Y046001D02*
Y047183D01*
X074473Y046921D02*
Y047295D01*
X075162Y046921D02*
Y047295D01*
X074473D02*
X075162D01*
X074473Y046921D02*
X075162D01*
X080337Y038678D02*
X081026D01*
X080337Y038304D02*
X081026D01*
X080337D02*
Y038678D01*
X081026Y038304D02*
Y038678D01*
X071572Y032466D02*
X072261D01*
X071572Y032092D02*
X072261D01*
X071572D02*
Y032466D01*
X072261Y032092D02*
Y032466D01*
X070229Y037482D02*
Y037856D01*
X06954Y037482D02*
Y037856D01*
Y037482D02*
X070229D01*
X06954Y037856D02*
X070229D01*
X068799Y037936D02*
Y03831D01*
X06811Y037936D02*
Y03831D01*
Y037936D02*
X068799D01*
X06811Y03831D02*
X068799D01*
X072592Y031635D02*
X072966D01*
X072592Y032324D02*
X072966D01*
X072592Y031635D02*
Y032324D01*
X072966Y031635D02*
Y032324D01*
X069259Y049163D02*
X069633D01*
X069259Y049852D02*
X069633D01*
X069259Y049163D02*
Y049852D01*
X069633Y049163D02*
Y049852D01*
X073011Y047405D02*
X0737D01*
X073011Y047779D02*
X0737D01*
Y047405D02*
Y047779D01*
X073011Y047405D02*
Y047779D01*
X064133Y047216D02*
X064822D01*
X064133Y046842D02*
X064822D01*
Y047216D01*
X064133Y046842D02*
Y047216D01*
X064133Y048273D02*
X064822D01*
X064133Y047899D02*
X064822D01*
Y048273D01*
X064133Y047899D02*
Y048273D01*
X077664Y033034D02*
Y033674D01*
X076204Y033034D02*
X077664D01*
X076204D02*
Y033674D01*
X077664D01*
X06958Y035435D02*
Y035986D01*
X068399Y035435D02*
Y035986D01*
Y035435D02*
X06958D01*
X068399Y035986D02*
X06958D01*
X068103Y037364D02*
X068792D01*
X068103Y037738D02*
X068792D01*
Y037364D02*
Y037738D01*
X068103Y037364D02*
Y037738D01*
X068245Y042801D02*
X068934D01*
X068245Y043175D02*
X068934D01*
Y042801D02*
Y043175D01*
X068245Y042801D02*
Y043175D01*
X072198Y036978D02*
Y037352D01*
X071509Y036978D02*
Y037352D01*
Y036978D02*
X072198D01*
X071509Y037352D02*
X072198D01*
X073312Y032533D02*
X074001D01*
X073312Y032159D02*
X074001D01*
X073312D02*
Y032533D01*
X074001Y032159D02*
Y032533D01*
X07495Y049324D02*
Y050013D01*
X075324Y049324D02*
Y050013D01*
X07495Y049324D02*
X075324D01*
X07495Y050013D02*
X075324D01*
X079084Y033893D02*
Y034582D01*
X07871Y033893D02*
Y034582D01*
Y033893D02*
X079084D01*
X07871Y034582D02*
X079084D01*
X079598Y039096D02*
X079972D01*
X079598Y038407D02*
X079972D01*
Y039096D01*
X079598Y038407D02*
Y039096D01*
X081026Y03884D02*
Y039214D01*
X080337Y03884D02*
Y039214D01*
Y03884D02*
X081026D01*
X080337Y039214D02*
X081026D01*
X076544Y040497D02*
Y041186D01*
X076918Y040497D02*
Y041186D01*
X076544D02*
X076918D01*
X076544Y040497D02*
X076918D01*
X061674Y046812D02*
Y047501D01*
X062048Y046812D02*
Y047501D01*
X061674Y046812D02*
X062048D01*
X061674Y047501D02*
X062048D01*
X070544Y049538D02*
X070918D01*
X070544Y048849D02*
X070918D01*
Y049538D01*
X070544Y048849D02*
Y049538D01*
X069596Y033158D02*
Y033847D01*
X06997Y033158D02*
Y033847D01*
X069596Y033158D02*
X06997D01*
X069596Y033847D02*
X06997D01*
X068541Y048525D02*
Y048899D01*
X06923Y048525D02*
Y048899D01*
X068541Y048525D02*
X06923D01*
X068541Y048899D02*
X06923D01*
X072143Y040594D02*
X072517D01*
X072143Y041283D02*
X072517D01*
Y040594D02*
Y041283D01*
X072143Y040594D02*
Y041283D01*
X070872Y040594D02*
X071246D01*
X070872Y041283D02*
X071246D01*
Y040594D02*
Y041283D01*
X070872Y040594D02*
Y041283D01*
X068708Y041397D02*
X069082D01*
X068708Y042086D02*
X069082D01*
Y041397D02*
Y042086D01*
X068708Y041397D02*
Y042086D01*
X071507Y040594D02*
X071881D01*
X071507Y041283D02*
X071881D01*
Y040594D02*
Y041283D01*
X071507Y040594D02*
Y041283D01*
X068694Y045521D02*
Y04621D01*
X069068Y045521D02*
Y04621D01*
X068694D02*
X069068D01*
X068694Y045521D02*
X069068D01*
X073798Y048258D02*
Y048632D01*
X073109Y048258D02*
Y048632D01*
X073798D01*
X073109Y048258D02*
X073798D01*
X073798Y047705D02*
Y048079D01*
X073109Y047705D02*
Y048079D01*
X073798D01*
X073109Y047705D02*
X073798D01*
X071118Y057567D02*
X071807D01*
X071118Y057193D02*
X071807D01*
Y057567D01*
X071118Y057193D02*
Y057567D01*
X078288Y047462D02*
Y048151D01*
X078662Y047462D02*
Y048151D01*
X078288D02*
X078662D01*
X078288Y047462D02*
X078662D01*
X076264Y045786D02*
Y04616D01*
X076953Y045786D02*
Y04616D01*
X076264Y045786D02*
X076953D01*
X076264Y04616D02*
X076953D01*
X080407Y043415D02*
Y043789D01*
X081096Y043415D02*
Y043789D01*
X080407Y043415D02*
X081096D01*
X080407Y043789D02*
X081096D01*
X072288Y036809D02*
X072977D01*
X072288Y037183D02*
X072977D01*
X072288Y036809D02*
Y037183D01*
X072977Y036809D02*
Y037183D01*
X070439Y034416D02*
Y03479D01*
X071128Y034416D02*
Y03479D01*
X070439Y034416D02*
X071128D01*
X070439Y03479D02*
X071128D01*
X071166Y036809D02*
Y037183D01*
X071855Y036809D02*
Y037183D01*
X071166Y036809D02*
X071855D01*
X071166Y037183D02*
X071855D01*
X071643Y034789D02*
X072332D01*
X071643Y034415D02*
X072332D01*
Y034789D01*
X071643Y034415D02*
Y034789D01*
X070113Y035525D02*
X071294D01*
X070113Y036076D02*
X071294D01*
Y035525D02*
Y036076D01*
X070113Y035525D02*
Y036076D01*
X071693Y036119D02*
X072874D01*
X071693Y035568D02*
X072874D01*
X071693D02*
Y036119D01*
X072874Y035568D02*
Y036119D01*
X074048Y036809D02*
Y037183D01*
X073359Y036809D02*
Y037183D01*
X074048D01*
X073359Y036809D02*
X074048D01*
X071694Y063789D02*
Y064478D01*
X072068Y063789D02*
Y064478D01*
X071694Y063789D02*
X072068D01*
X071694Y064478D02*
X072068D01*
X074035Y063789D02*
Y064478D01*
X074409Y063789D02*
Y064478D01*
X074035Y063789D02*
X074409D01*
X074035Y064478D02*
X074409D01*
X070911Y063789D02*
Y064478D01*
X071284Y063789D02*
Y064478D01*
X070911Y063789D02*
X071284D01*
X070911Y064478D02*
X071284D01*
X072473Y063789D02*
Y064478D01*
X072847Y063789D02*
Y064478D01*
X072473Y063789D02*
X072847D01*
X072473Y064478D02*
X072847D01*
X070132Y063789D02*
Y064478D01*
X070506Y063789D02*
Y064478D01*
X070132Y063789D02*
X070506D01*
X070132Y064478D02*
X070506D01*
X070466Y036253D02*
Y036627D01*
X069777Y036253D02*
Y036627D01*
Y036253D02*
X070466D01*
X069777Y036627D02*
X070466D01*
X069745Y036139D02*
X070434D01*
X069745Y035765D02*
X070434D01*
X069745D02*
Y036139D01*
X070434Y035765D02*
Y036139D01*
X06956Y034356D02*
X069934D01*
X06956Y035045D02*
X069934D01*
X06956Y034356D02*
Y035045D01*
X069934Y034356D02*
Y035045D01*
X074485Y033273D02*
X074859D01*
X074485Y032584D02*
X074859D01*
Y033273D01*
X074485Y032584D02*
Y033273D01*
X071064Y032068D02*
Y032442D01*
X070375Y032068D02*
Y032442D01*
Y032068D02*
X071064D01*
X070375Y032442D02*
X071064D01*
X078395Y048545D02*
Y048919D01*
X079084Y048545D02*
Y048919D01*
X078395Y048545D02*
X079084D01*
X078395Y048919D02*
X079084D01*
X068569Y063789D02*
Y064478D01*
X068943Y063789D02*
Y064478D01*
X068569Y063789D02*
X068943D01*
X068569Y064478D02*
X068943D01*
X069348Y063789D02*
Y064478D01*
X069722Y063789D02*
Y064478D01*
X069348Y063789D02*
X069722D01*
X069348Y064478D02*
X069722D01*
X068082Y048911D02*
X068771D01*
X068082Y048537D02*
X068771D01*
X068082D02*
Y048911D01*
X068771Y048537D02*
Y048911D01*
X079174Y036809D02*
X079863D01*
X079174Y037183D02*
X079863D01*
X079174Y036809D02*
Y037183D01*
X079863Y036809D02*
Y037183D01*
X076333Y035583D02*
X077514D01*
X076333Y036134D02*
X077514D01*
Y035583D02*
Y036134D01*
X076333Y035583D02*
Y036134D01*
X077928Y033438D02*
X078302D01*
X077928Y032749D02*
X078302D01*
X077928D02*
Y033438D01*
X078302Y032749D02*
Y033438D01*
X077928Y033894D02*
Y034583D01*
X078302Y033894D02*
Y034583D01*
X077928D02*
X078302D01*
X077928Y033894D02*
X078302D01*
X077156Y033964D02*
X07753D01*
X077156Y034653D02*
X07753D01*
Y033964D02*
Y034653D01*
X077156Y033964D02*
Y034653D01*
X07775Y035583D02*
Y036134D01*
X078932Y035583D02*
Y036134D01*
X07775D02*
X078932D01*
X07775Y035583D02*
X078932D01*
X078478Y036809D02*
Y037183D01*
X077789Y036809D02*
Y037183D01*
X078478D01*
X077789Y036809D02*
X078478D01*
X076633Y033964D02*
X077007D01*
X076633Y034653D02*
X077007D01*
Y033964D02*
Y034653D01*
X076633Y033964D02*
Y034653D01*
X069216Y041055D02*
Y041606D01*
X070397Y041055D02*
Y041606D01*
X069216Y041055D02*
X070397D01*
X069216Y041606D02*
X070397D01*
X07147Y042513D02*
X072159D01*
X07147Y042139D02*
X072159D01*
X07147D02*
Y042513D01*
X072159Y042139D02*
Y042513D01*
X069356Y039769D02*
X070045D01*
X069356Y039395D02*
X070045D01*
X069356D02*
Y039769D01*
X070045Y039395D02*
Y039769D01*
X068109Y04023D02*
X068798D01*
X068109Y039856D02*
X068798D01*
X068109D02*
Y04023D01*
X068798Y039856D02*
Y04023D01*
X070048Y039868D02*
Y040242D01*
X069359Y039868D02*
Y040242D01*
Y039868D02*
X070048D01*
X069359Y040242D02*
X070048D01*
X068109Y03954D02*
X068798D01*
X068109Y039166D02*
X068798D01*
X068109D02*
Y03954D01*
X068798Y039166D02*
Y03954D01*
X06811Y038966D02*
X068799D01*
X06811Y038592D02*
X068799D01*
X06811D02*
Y038966D01*
X068799Y038592D02*
Y038966D01*
X066836Y038709D02*
X06721D01*
X066836Y039398D02*
X06721D01*
X066836Y038709D02*
Y039398D01*
X06721Y038709D02*
Y039398D01*
X067426Y039408D02*
X0678D01*
X067426Y038719D02*
X0678D01*
Y039408D01*
X067426Y038719D02*
Y039408D01*
X070808Y037059D02*
Y037748D01*
X071182Y037059D02*
Y037748D01*
X070808Y037059D02*
X071182D01*
X070808Y037748D02*
X071182D01*
X070497Y040699D02*
Y041388D01*
X070871Y040699D02*
Y041388D01*
X070497Y040699D02*
X070871D01*
X070497Y041388D02*
X070871D01*
X072308Y040923D02*
Y041612D01*
X072682Y040923D02*
Y041612D01*
X072308Y040923D02*
X072682D01*
X072308Y041612D02*
X072682D01*
X080964Y038848D02*
Y039222D01*
X081653Y038848D02*
Y039222D01*
X080964Y038848D02*
X081653D01*
X080964Y039222D02*
X081653D01*
X081653Y038275D02*
Y038649D01*
X080964Y038275D02*
Y038649D01*
X081653D01*
X080964Y038275D02*
X081653D01*
X08095Y040185D02*
X081639D01*
X08095Y03981D02*
X081639D01*
Y040185D01*
X08095Y03981D02*
Y040185D01*
X067916Y036758D02*
X06829D01*
X067916Y036069D02*
X06829D01*
X067916D02*
Y036758D01*
X06829Y036069D02*
Y036758D01*
X068589Y036616D02*
Y03699D01*
X069278Y036616D02*
Y03699D01*
X068589Y036616D02*
X069278D01*
X068589Y03699D02*
X069278D01*
X066813Y035793D02*
X068273D01*
X066813Y035153D02*
Y035793D01*
Y035153D02*
X068273D01*
Y035793D01*
X070544Y049958D02*
Y050647D01*
X070918Y049958D02*
Y050647D01*
X070544Y049958D02*
X070918D01*
X070544Y050647D02*
X070918D01*
X072064Y049053D02*
X072616D01*
X072064Y050234D02*
X072616D01*
Y049053D02*
Y050234D01*
X072064Y049053D02*
Y050234D01*
X070497Y049268D02*
Y049957D01*
X070872Y049268D02*
Y049957D01*
X070497D02*
X070872D01*
X070497Y049268D02*
X070872D01*
X07033Y051099D02*
Y051788D01*
X069956Y051099D02*
Y051788D01*
Y051099D02*
X07033D01*
X069956Y051788D02*
X07033D01*
X069907Y049268D02*
Y049957D01*
X070281Y049268D02*
Y049957D01*
X069907D02*
X070281D01*
X069907Y049268D02*
X070281D01*
X071118Y057783D02*
X071807D01*
X071118Y058157D02*
X071807D01*
X071118Y057783D02*
Y058157D01*
X071807Y057783D02*
Y058157D01*
X070386Y057369D02*
Y058058D01*
X07076Y057369D02*
Y058058D01*
X070386D02*
X07076D01*
X070386Y057369D02*
X07076D01*
X072297Y057783D02*
X072986D01*
X072297Y058157D02*
X072986D01*
X072297Y057783D02*
Y058157D01*
X072986Y057783D02*
Y058157D01*
X073463Y057769D02*
Y058143D01*
X074152Y057769D02*
Y058143D01*
X073463Y057769D02*
X074152D01*
X073463Y058143D02*
X074152D01*
X074389Y050039D02*
X074763D01*
X074389Y04935D02*
X074763D01*
Y050039D01*
X074389Y04935D02*
Y050039D01*
X075355Y047907D02*
Y048458D01*
X074174Y047907D02*
Y048458D01*
X075355D01*
X074174Y047907D02*
X075355D01*
X075162Y046393D02*
Y046767D01*
X074473Y046393D02*
Y046767D01*
Y046393D02*
X075162D01*
X074473Y046767D02*
X075162D01*
X068541Y047287D02*
X06923D01*
X068541Y047661D02*
X06923D01*
X068541Y047287D02*
Y047661D01*
X06923Y047287D02*
Y047661D01*
X076478Y040204D02*
Y041664D01*
X077118D01*
Y040204D02*
Y041664D01*
X076478Y040204D02*
X077118D01*
X080672Y041836D02*
X081046D01*
X080672Y042525D02*
X081046D01*
X080672Y041836D02*
Y042525D01*
X081046Y041836D02*
Y042525D01*
X081312Y041848D02*
X081686D01*
X081312Y042537D02*
X081686D01*
X081312Y041848D02*
Y042537D01*
X081686Y041848D02*
Y042537D01*
X081312Y040766D02*
X081686D01*
X081312Y041455D02*
X081686D01*
X081312Y040766D02*
Y041455D01*
X081686Y040766D02*
Y041455D01*
X07997Y031069D02*
X08143D01*
Y031709D01*
X07997D02*
X08143D01*
X07997Y031069D02*
Y031709D01*
X077916Y038215D02*
Y039195D01*
X079255Y038215D02*
Y039195D01*
X077916D02*
X079255D01*
X077916Y038215D02*
X079255D01*
X068541Y047955D02*
X06923D01*
X068541Y048329D02*
X06923D01*
X068541Y047955D02*
Y048329D01*
X06923Y047955D02*
Y048329D01*
X065599Y045512D02*
Y046694D01*
X065047Y045512D02*
Y046694D01*
X065599D01*
X065047Y045512D02*
X065599D01*
X067376Y046313D02*
X068065D01*
X067376Y046687D02*
X068065D01*
X067376Y046313D02*
Y046687D01*
X068065Y046313D02*
Y046687D01*
X080749Y034592D02*
X081438D01*
X080749Y034966D02*
X081438D01*
X080749Y034592D02*
Y034966D01*
X081438Y034592D02*
Y034966D01*
X081442Y035261D02*
Y035635D01*
X080753Y035261D02*
Y035635D01*
X081442D01*
X080753Y035261D02*
X081442D01*
X079274Y035583D02*
Y036134D01*
X080455Y035583D02*
Y036134D01*
X079274D02*
X080455D01*
X079274Y035583D02*
X080455D01*
X068844Y050417D02*
Y050791D01*
X069533Y050417D02*
Y050791D01*
X068844D02*
X069533D01*
X068844Y050417D02*
X069533D01*
X067294Y050427D02*
Y050801D01*
X067983Y050427D02*
Y050801D01*
X067294D02*
X067983D01*
X067294Y050427D02*
X067983D01*
X067176Y050029D02*
X06755D01*
X067176Y04934D02*
X06755D01*
Y050029D01*
X067176Y04934D02*
Y050029D01*
X0688Y040411D02*
Y040785D01*
X068111Y040411D02*
Y040785D01*
Y040411D02*
X0688D01*
X068111Y040785D02*
X0688D01*
D12*
X068937Y049379D02*
G03*
X068937Y049379I-000039J0D01*
G01*
D13*
X070676Y061192D02*
G03*
X070235Y061633I-000441J0D01*
G01*
X061235D02*
G03*
X060794Y061192I0J-000441D01*
G01*
Y052251D02*
G03*
X061294Y051751I0005J0D01*
G01*
X070176D02*
G03*
X070676Y052251I0J0005D01*
G01*
X070083Y030293D02*
G03*
X069653Y030714I-000425J-000005D01*
G01*
X069634Y026463D02*
G03*
X069847Y026673I000002J000211D01*
G01*
X06276D02*
G03*
X062973Y026463I000211J000002D01*
G01*
X070037Y028733D02*
G03*
X069847Y028527I000008J-000198D01*
G01*
X062944Y030713D02*
G03*
X062523Y030284I000005J-000425D01*
G01*
X06276Y028543D02*
G03*
X062553Y028733I-000198J-000008D01*
G01*
X070083Y029324D02*
G03*
X070293Y029104I000215J-000005D01*
G01*
X062303Y029104D02*
G03*
X062524Y029313I000005J000215D01*
G01*
X070676Y052442D02*
Y061192D01*
X061335Y061633D02*
X070235D01*
X070135D02*
X070235D01*
X070676Y060942D02*
Y061192D01*
X060794Y052251D02*
Y061142D01*
X061235Y061633D02*
X061535D01*
X060794Y060692D02*
Y061192D01*
X061294Y051751D02*
X070085D01*
X061294D02*
X061485D01*
X060794Y052251D02*
Y052492D01*
X070085Y051751D02*
X070176D01*
X070676Y052251D02*
Y052442D01*
X072363Y028733D02*
Y029103D01*
X071853Y028733D02*
Y029104D01*
X070593Y028773D02*
Y029083D01*
X062014Y028763D02*
Y029073D01*
X060754Y028743D02*
Y029053D01*
X060233Y028733D02*
Y029104D01*
X069403Y030714D02*
Y031076D01*
X063203Y030723D02*
Y031073D01*
X069847Y026673D02*
Y028527D01*
X06276Y026673D02*
Y028543D01*
X069553Y029104D02*
X072363D01*
X062944Y030714D02*
X069653D01*
X060233Y029104D02*
X069553D01*
X060233Y028733D02*
X072363D01*
X063203Y031076D02*
X069403D01*
D14*
X070083Y029324D02*
Y030293D01*
X062524Y029313D02*
Y030284D01*
X062973Y026463D02*
X069634D01*
D15*
X075283Y030822D02*
X076283D01*
X072283Y027005D02*
X072823Y026465D01*
X075753D01*
X076283Y03037D02*
Y030822D01*
X073943Y026465D02*
X074593D01*
X074283Y03037D02*
Y031972D01*
X072283Y030822D02*
X073283D01*
X072283Y03037D02*
Y030822D01*
X073943Y026465D02*
Y027155D01*
X073283Y030822D02*
Y031972D01*
X076283Y026995D02*
Y028635D01*
X074613Y026485D02*
Y027165D01*
X074593Y026465D02*
X074613Y026485D01*
X073953Y027165D02*
X074613D01*
X075753Y026465D02*
X076283Y026995D01*
X072283Y03037D02*
X076283D01*
Y028635D02*
Y03037D01*
X073943Y027155D02*
X073953Y027165D01*
X075283Y030822D02*
Y031972D01*
X073283D02*
X075283D01*
X072283Y028635D02*
Y03037D01*
Y027005D02*
Y028635D01*
Y027005D02*
Y028575D01*
X076283Y026995D02*
Y028645D01*
X075753Y026465D02*
X076283Y026995D01*
Y028635D02*
Y03037D01*
X072283D02*
X076283D01*
X072283Y028585D02*
Y03037D01*
Y027005D02*
X072823Y026465D01*
X075753D01*
X073943D02*
X074593D01*
X073943D02*
Y027155D01*
X074593Y026465D02*
X074613Y026485D01*
Y027165D01*
X073953D02*
X074613D01*
X073943Y027155D02*
X073953Y027165D01*
X070759Y040256D02*
X072532D01*
Y038286D02*
Y040256D01*
X070562Y038286D02*
X072532D01*
X070562D02*
Y040059D01*
X070759Y040256D01*
X079173Y030822D02*
X080173D01*
X076173Y027005D02*
X076713Y026465D01*
X079643D01*
X080173Y03037D02*
Y030822D01*
X077833Y026465D02*
X078483D01*
X078173Y03037D02*
Y031972D01*
X076173Y030822D02*
X077173D01*
X076173Y03037D02*
Y030822D01*
X077833Y026465D02*
Y027155D01*
X077173Y030822D02*
Y031972D01*
X080173Y026995D02*
Y028635D01*
X078503Y026485D02*
Y027165D01*
X078483Y026465D02*
X078503Y026485D01*
X077843Y027165D02*
X078503D01*
X079643Y026465D02*
X080173Y026995D01*
X076173Y03037D02*
X080173D01*
Y028635D02*
Y03037D01*
X077833Y027155D02*
X077843Y027165D01*
X079173Y030822D02*
Y031972D01*
X077173D02*
X079173D01*
X076173Y028635D02*
Y03037D01*
Y027005D02*
Y028635D01*
Y027005D02*
Y028575D01*
X080173Y026995D02*
Y028645D01*
X079643Y026465D02*
X080173Y026995D01*
Y028635D02*
Y03037D01*
X076173D02*
X080173D01*
X076173Y028585D02*
Y03037D01*
Y027005D02*
X076713Y026465D01*
X079643D01*
X077833D02*
X078483D01*
X077833D02*
Y027155D01*
X078483Y026465D02*
X078503Y026485D01*
Y027165D01*
X077843D02*
X078503D01*
X077833Y027155D02*
X077843Y027165D01*
D16*
X067864Y050097D02*
X068672D01*
X067864Y04929D02*
Y050097D01*
Y04929D02*
X068672D01*
Y050097D01*
M02*
