G04*
G04 #@! TF.GenerationSoftware,Altium Limited,Altium Designer,21.0.8 (223)*
G04*
G04 Layer_Physical_Order=1*
G04 Layer_Color=255*
%FSTAX24Y24*%
%MOIN*%
G70*
G04*
G04 #@! TF.SameCoordinates,D94166DE-144D-4B7D-845D-6ED18FE10B1D*
G04*
G04*
G04 #@! TF.FilePolarity,Positive*
G04*
G01*
G75*
%ADD12C,0.0079*%
%ADD15C,0.0100*%
%ADD24R,0.0472X0.1024*%
%ADD25R,0.0984X0.1811*%
%ADD27R,0.0394X0.0472*%
%ADD28R,0.0315X0.0354*%
%ADD29R,0.0591X0.0866*%
%ADD31O,0.0236X0.0748*%
%ADD32R,0.0098X0.0108*%
%ADD33R,0.0108X0.0098*%
%ADD34R,0.0600X0.1260*%
%ADD35R,0.1378X0.0984*%
%ADD36R,0.0472X0.0984*%
%ADD37R,0.2480X0.0846*%
%ADD38R,0.1063X0.0827*%
%ADD39O,0.0236X0.0846*%
%ADD40R,0.0110X0.0315*%
%ADD41R,0.0315X0.0110*%
%ADD42R,0.0295X0.0276*%
%ADD43R,0.0354X0.0315*%
%ADD44R,0.0201X0.0437*%
%ADD46R,0.0453X0.0236*%
%ADD48R,0.0236X0.0453*%
%ADD49R,0.0472X0.0394*%
%ADD82R,0.0945X0.0394*%
%ADD83R,0.1063X0.1063*%
%ADD84R,0.1457X0.1417*%
%ADD85R,0.0394X0.0945*%
%ADD86C,0.0080*%
%ADD87C,0.0080*%
%ADD88C,0.0118*%
%ADD89C,0.0150*%
%ADD90C,0.0197*%
%ADD91C,0.0133*%
%ADD92C,0.0068*%
%ADD93C,0.0256*%
%ADD94C,0.0433*%
%ADD95O,0.0750X0.0650*%
%ADD96R,0.0750X0.0650*%
%ADD97R,0.0787X0.0787*%
%ADD98C,0.0787*%
%ADD99C,0.0454*%
%ADD100C,0.0197*%
G36*
X074213Y065197D02*
Y065192D01*
X07422Y065173D01*
X074239Y065165D01*
X075759D01*
X075759Y062045D01*
X077271Y060533D01*
X077271Y056051D01*
X077383Y055938D01*
X078334D01*
X078786Y055486D01*
X078786Y051746D01*
X081872D01*
X081927Y05169D01*
X081927Y03677D01*
X081854Y03674D01*
X081792Y036802D01*
X081753Y036828D01*
X081707Y036837D01*
X081707Y036837D01*
X080906D01*
X080906Y036837D01*
X08086Y036828D01*
X080821Y036802D01*
X080755Y036736D01*
X080677Y036769D01*
Y037204D01*
X080283D01*
Y037322D01*
X080165D01*
Y037991D01*
X079995D01*
Y038123D01*
X080511D01*
X080557Y038132D01*
X080596Y038158D01*
X080596Y038158D01*
X080612Y038174D01*
X080682Y038195D01*
X080682Y038195D01*
Y038195D01*
X080682Y038195D01*
X080879D01*
Y038491D01*
X080958D01*
Y038569D01*
X081233D01*
Y038786D01*
X081233D01*
Y038948D01*
X080958D01*
Y039027D01*
X080879D01*
Y039322D01*
X080682D01*
Y039322D01*
X080664Y039304D01*
X080149D01*
Y039209D01*
X080062D01*
Y039285D01*
X079933D01*
Y039414D01*
X080012Y039456D01*
X080032Y039442D01*
X080118Y039425D01*
X080203Y039442D01*
X080275Y03949D01*
X080323Y039562D01*
X08034Y039648D01*
Y039791D01*
X080533D01*
Y039618D01*
X080995D01*
X081066Y0396D01*
X081119Y0396D01*
X081263D01*
Y039896D01*
Y040191D01*
X081119D01*
X081066Y040191D01*
X080995Y040173D01*
X080634D01*
X080634Y040173D01*
X080634Y040173D01*
X080533D01*
Y040115D01*
X08034D01*
Y040258D01*
X080323Y040343D01*
X080275Y040415D01*
X080203Y040463D01*
X080121Y040479D01*
X080115Y040482D01*
X080056Y040548D01*
Y040594D01*
X078679D01*
Y040548D01*
X078619Y040482D01*
X078614Y040479D01*
X078532Y040463D01*
X07846Y040415D01*
X078412Y040343D01*
X078395Y040258D01*
Y040047D01*
X078395Y040047D01*
X077835D01*
X077766Y040076D01*
X077687D01*
X077614Y040046D01*
X077558Y03999D01*
X077528Y039917D01*
Y039838D01*
X077558Y039765D01*
X077614Y039709D01*
X077687Y039679D01*
X077766D01*
X077835Y039708D01*
X078395D01*
X078395Y039708D01*
Y039648D01*
X0784Y039622D01*
X078397Y039543D01*
X078342Y039488D01*
Y039375D01*
X078172D01*
Y038705D01*
X078054D01*
Y038587D01*
X07766D01*
Y0382D01*
X077645Y038184D01*
X077582Y038147D01*
X077559Y038151D01*
X077559Y038151D01*
X077124D01*
X077091Y03823D01*
X077104Y038243D01*
X077137Y038323D01*
Y038409D01*
X077104Y038488D01*
X077043Y038549D01*
X076963Y038582D01*
X076877D01*
X076798Y038549D01*
X076737Y038488D01*
X076704Y038409D01*
Y038323D01*
X076737Y038243D01*
X07675Y03823D01*
X076742Y03819D01*
X07672Y038148D01*
X076689Y038142D01*
X07665Y038116D01*
X07665Y038116D01*
X076478Y037943D01*
X076478Y037943D01*
X076477Y037943D01*
X076469Y037931D01*
X07646Y037921D01*
X076456Y037912D01*
X076451Y037904D01*
X076448Y03789D01*
X076443Y037877D01*
X076444Y037867D01*
X076442Y037858D01*
Y035531D01*
X07644Y03553D01*
X07644Y03553D01*
X07644Y034555D01*
X076637Y034358D01*
X080873D01*
X080875Y034359D01*
X080953Y03428D01*
Y033686D01*
X080953Y033686D01*
X080935Y033673D01*
X080875Y033656D01*
X080778Y033753D01*
X080769Y033759D01*
X080762Y033766D01*
X08063Y033854D01*
X080621Y033858D01*
X080612Y033863D01*
X080466Y033924D01*
X080456Y033926D01*
X080446Y03393D01*
X080291Y033961D01*
X08028D01*
X080271Y033963D01*
X080112D01*
X080102Y033961D01*
X080092D01*
X079936Y03393D01*
X079927Y033926D01*
X079917Y033924D01*
X07977Y033863D01*
X079761Y033858D01*
X079752Y033854D01*
X07962Y033766D01*
X079613Y033759D01*
X079605Y033753D01*
X079492Y033641D01*
X079487Y033632D01*
X079479Y033625D01*
X079391Y033493D01*
X079387Y033484D01*
X079382Y033475D01*
X079321Y033328D01*
X079319Y033319D01*
X079315Y033309D01*
X079284Y033153D01*
Y033143D01*
X079282Y033134D01*
Y032975D01*
X079284Y032965D01*
Y032955D01*
X079315Y032799D01*
X079319Y032789D01*
X079321Y03278D01*
X079382Y032633D01*
X079387Y032624D01*
X079391Y032615D01*
X079479Y032483D01*
X079487Y032476D01*
X079492Y032467D01*
X079605Y032355D01*
X079613Y032349D01*
X07962Y032342D01*
X079752Y032254D01*
X079761Y03225D01*
X07977Y032245D01*
X079917Y032184D01*
X079927Y032182D01*
X079936Y032178D01*
X080092Y032147D01*
X080102D01*
X080112Y032145D01*
X080271D01*
X08028Y032147D01*
X080291D01*
X080446Y032178D01*
X080456Y032182D01*
X080466Y032184D01*
X080612Y032245D01*
X080621Y03225D01*
X08063Y032254D01*
X080762Y032342D01*
X080769Y032349D01*
X080778Y032355D01*
X08089Y032467D01*
X080896Y032476D01*
X080903Y032483D01*
X080991Y032615D01*
X080995Y032624D01*
X081001Y032633D01*
X081061Y03278D01*
X081063Y032789D01*
X081067Y032799D01*
X081098Y032955D01*
Y032965D01*
X0811Y032975D01*
Y033134D01*
X081098Y033143D01*
Y033153D01*
X081083Y033231D01*
X081087Y033238D01*
X081151Y033291D01*
X081164Y033289D01*
X081164Y033289D01*
X081763D01*
X081809Y033298D01*
X081848Y033324D01*
X081848Y033324D01*
X081854Y033329D01*
X081926Y033299D01*
X081926Y030332D01*
X081926Y030331D01*
Y030045D01*
X081899Y029945D01*
X081839Y029799D01*
X08176Y029662D01*
X081664Y029537D01*
X081552Y029425D01*
X081427Y029329D01*
X08129Y02925D01*
X081144Y02919D01*
X080991Y029149D01*
X080835Y029128D01*
X080756Y029128D01*
X080168D01*
X080168Y030372D01*
X080168Y030409D01*
X08017Y030413D01*
X080162Y030432D01*
X080143Y03044D01*
X080143Y03044D01*
X080096Y03044D01*
X07228D01*
X072233Y03044D01*
X072233Y03044D01*
X072215Y030432D01*
X072207Y030413D01*
X072207Y030413D01*
X072207Y030372D01*
Y02916D01*
X070266D01*
Y030571D01*
X070266Y030572D01*
X070266Y030572D01*
X070267Y030572D01*
X070254Y03071D01*
X070212Y030846D01*
X070145Y030972D01*
X070055Y031082D01*
X069944Y031173D01*
X069819Y03124D01*
X069682Y031281D01*
X069602Y031289D01*
X06954Y031295D01*
X069526Y031294D01*
X069448Y031294D01*
X068942D01*
Y031875D01*
X068027D01*
Y031294D01*
X067794D01*
Y032723D01*
X067865Y032743D01*
X068027D01*
Y032111D01*
X068942D01*
Y032781D01*
X068671D01*
X068639Y032859D01*
X069265Y033486D01*
X069296Y033532D01*
X069307Y033586D01*
Y035574D01*
X069478Y035746D01*
X069557Y035713D01*
Y035675D01*
X069559D01*
X069592Y035596D01*
X069564Y035568D01*
X069531Y035488D01*
Y035402D01*
X06956Y03533D01*
X069547Y035293D01*
X069523Y035251D01*
X069452D01*
Y034779D01*
X069452Y0347D01*
X069452Y034622D01*
Y034503D01*
X069747D01*
X070042D01*
Y034622D01*
X070042Y0347D01*
X070042Y034769D01*
X070098Y034825D01*
X070243D01*
X070267Y034789D01*
X070345Y034737D01*
X070437Y034719D01*
X070529Y034737D01*
X070607Y034789D01*
X070643Y034843D01*
X070649Y034845D01*
X070724D01*
X070731Y034843D01*
X070767Y034789D01*
X070845Y034737D01*
X070858Y034734D01*
Y035215D01*
X071016D01*
Y034734D01*
X071029Y034737D01*
X071107Y034789D01*
X071154Y034859D01*
X071187Y034866D01*
X071239Y034863D01*
X07128Y034802D01*
X071352Y034754D01*
X071437Y034737D01*
X071522Y034754D01*
X071594Y034802D01*
X071642Y034874D01*
X071647Y034896D01*
X071727D01*
X071731Y034874D01*
X07178Y034802D01*
X071852Y034754D01*
X071937Y034737D01*
X072022Y034754D01*
X072094Y034802D01*
X072142Y034874D01*
X072147Y034896D01*
X072227D01*
X072231Y034874D01*
X07228Y034802D01*
X072352Y034754D01*
X072437Y034737D01*
X072522Y034754D01*
X072594Y034802D01*
X072642Y034874D01*
X072647Y034896D01*
X072727D01*
X072731Y034874D01*
X07278Y034802D01*
X072852Y034754D01*
X072937Y034737D01*
X073022Y034754D01*
X073094Y034802D01*
X073142Y034874D01*
X073147Y034896D01*
X073227D01*
X073231Y034874D01*
X07328Y034802D01*
X073352Y034754D01*
X073437Y034737D01*
X073522Y034754D01*
X073594Y034802D01*
X073642Y034874D01*
X073647Y034896D01*
X073727D01*
X073731Y034874D01*
X07378Y034802D01*
X073852Y034754D01*
X073937Y034737D01*
X074022Y034754D01*
X074094Y034802D01*
X074142Y034874D01*
X074159Y034959D01*
Y035471D01*
X074142Y035556D01*
X074094Y035628D01*
X07408Y035638D01*
X07408Y035642D01*
Y036189D01*
X074723Y036833D01*
X074802Y0368D01*
Y036688D01*
X074999D01*
Y036905D01*
X074907D01*
X074874Y036984D01*
X075143Y037253D01*
X075174Y037299D01*
X075185Y037354D01*
X075185Y037354D01*
Y040544D01*
X075186Y040545D01*
X07519Y040552D01*
X075211Y040572D01*
X075241Y040645D01*
Y040724D01*
X075211Y040797D01*
X075155Y040853D01*
X075082Y040883D01*
X07503D01*
X074979Y040934D01*
X07497Y040955D01*
Y041023D01*
X07494Y041095D01*
X074884Y041151D01*
X074811Y041181D01*
X074732D01*
X074659Y041151D01*
X074637Y041129D01*
X074558Y041162D01*
Y04531D01*
X074559Y045311D01*
X07456Y045313D01*
X074564Y045319D01*
X074583Y045338D01*
X074613Y045411D01*
Y04549D01*
X074583Y045563D01*
X074527Y045618D01*
X074454Y045649D01*
X074375D01*
X074302Y045618D01*
X074246Y045563D01*
X074216Y04549D01*
Y045467D01*
X074172Y045438D01*
X074093D01*
X074021Y045408D01*
X073965Y045352D01*
X073957Y045334D01*
X073874Y045338D01*
X073854Y045385D01*
X073798Y045441D01*
X073726Y045472D01*
X073647D01*
X073574Y045441D01*
X073518Y045385D01*
X073488Y045313D01*
Y045234D01*
X073518Y045161D01*
X073532Y045146D01*
X073535Y045142D01*
X073537Y045139D01*
X073537Y045138D01*
X073538Y045137D01*
X073538Y045136D01*
X073538Y045136D01*
Y044834D01*
X073459Y044801D01*
X073103Y045158D01*
X073103Y045159D01*
X073101Y045167D01*
Y045196D01*
X073071Y045269D01*
X073015Y045325D01*
X072942Y045355D01*
X072863D01*
X07279Y045325D01*
X072734Y045269D01*
X072704Y045196D01*
Y045117D01*
X072734Y045045D01*
X07279Y044989D01*
X072863Y044959D01*
X072892D01*
X0729Y044957D01*
X072902Y044957D01*
X073295Y044564D01*
Y041889D01*
X073216Y041857D01*
X073186Y041887D01*
X073106Y04192D01*
X07302D01*
X07294Y041887D01*
X072879Y041826D01*
X072869Y041802D01*
X07279Y041817D01*
Y041818D01*
X072574D01*
Y041543D01*
X072416D01*
Y041818D01*
X072202D01*
X072202Y042007D01*
X07227Y042031D01*
X072365D01*
Y042248D01*
X07209D01*
Y042326D01*
X072011D01*
Y042622D01*
X071867D01*
X071814Y042622D01*
X071743Y042603D01*
X071281D01*
Y042049D01*
X0714D01*
Y041964D01*
X07139Y041958D01*
X071387Y041954D01*
X071383Y04195D01*
X071382Y041948D01*
X071336D01*
Y041797D01*
X071331Y041795D01*
X071326Y041788D01*
X071319Y041783D01*
X071313Y041773D01*
X071306Y041764D01*
X071304Y041755D01*
X0713Y041748D01*
X071299Y041736D01*
X071295Y041725D01*
X071296Y041717D01*
X071296Y041708D01*
X071296Y041708D01*
X071284Y041694D01*
X071135Y041545D01*
X071104Y041499D01*
X071093Y041444D01*
X071093Y041444D01*
Y040531D01*
X07098D01*
Y041043D01*
Y04124D01*
X070389D01*
Y040929D01*
X070042D01*
Y041232D01*
X06957D01*
Y040543D01*
X069671D01*
Y040482D01*
X069704Y040403D01*
X069704Y040402D01*
X069664Y040332D01*
X069171D01*
Y040276D01*
X069049D01*
X068989Y040321D01*
Y040418D01*
X06899Y040422D01*
X068989Y040423D01*
X06899Y040424D01*
X068989Y040427D01*
Y040875D01*
X068527D01*
X068456Y040893D01*
X068403Y040893D01*
X068259D01*
Y040598D01*
X06818D01*
Y040519D01*
X067905D01*
Y040339D01*
X067902D01*
Y039877D01*
X067901Y039874D01*
X067902Y03987D01*
X067901Y039867D01*
X067902Y039862D01*
Y039748D01*
X067902D01*
X067908Y039669D01*
X067902Y039649D01*
X067838Y039615D01*
X067795D01*
X067789Y039616D01*
X067784Y039615D01*
X067443D01*
X067438Y039616D01*
X067433Y039615D01*
X067427Y039615D01*
X067425Y039615D01*
X067318D01*
Y039605D01*
X067205D01*
X067199Y039606D01*
X067199Y039606D01*
X067199Y039606D01*
X067194Y039605D01*
X066853D01*
X066848Y039606D01*
X066848Y039606D01*
X066848Y039606D01*
X066842Y039605D01*
X066728D01*
Y03958D01*
X066668Y039576D01*
X066583D01*
Y045158D01*
X06025D01*
Y064011D01*
X06025Y064012D01*
X060264Y064191D01*
X060306Y064368D01*
X060375Y064535D01*
X06047Y06469D01*
X060588Y064827D01*
X060726Y064945D01*
X06088Y06504D01*
X061048Y065109D01*
X061224Y065152D01*
X061328Y06516D01*
X061405Y065165D01*
D01*
X061413Y065165D01*
X063884D01*
X063886Y065166D01*
X064011Y065149D01*
X064131Y0651D01*
X064234Y065021D01*
X064313Y064918D01*
X064363Y064798D01*
X064371Y064741D01*
X064379Y064666D01*
X064379Y064666D01*
X064379Y064666D01*
X064379Y064588D01*
Y0632D01*
X064379Y063125D01*
X064379Y063124D01*
X064379Y063124D01*
X064379Y063123D01*
X06438Y063123D01*
X06439Y063047D01*
X064425Y062962D01*
X064481Y062888D01*
X064554Y062832D01*
X06464Y062797D01*
X064683Y062791D01*
X064693Y062787D01*
X064706D01*
X064706Y062787D01*
X064706Y062787D01*
X067457D01*
X067533Y062787D01*
X067533Y062787D01*
X067534Y062787D01*
Y062787D01*
X067535Y062787D01*
X06761Y062797D01*
X067695Y062833D01*
X067769Y062889D01*
X067825Y062962D01*
X06786Y063047D01*
X067868Y063109D01*
X06787Y063114D01*
Y064666D01*
Y064851D01*
X067897Y064917D01*
X067954Y065003D01*
X068028Y065077D01*
X068114Y065135D01*
X068209Y065176D01*
X068311Y065197D01*
X068363Y065197D01*
X068365Y065197D01*
X074213Y065197D01*
D02*
G37*
G36*
X074479Y045375D02*
X074474Y045369D01*
X07447Y045362D01*
X074466Y045354D01*
X074463Y045347D01*
X07446Y045339D01*
X074458Y04533D01*
X074457Y045321D01*
X074456Y045312D01*
X074456Y045302D01*
X074377Y0453D01*
X074377Y04531D01*
X074376Y045319D01*
X074374Y045328D01*
X074372Y045337D01*
X07437Y045345D01*
X074366Y045352D01*
X074362Y04536D01*
X074358Y045366D01*
X074353Y045373D01*
X074347Y045379D01*
X074485Y045381D01*
X074479Y045375D01*
D02*
G37*
G36*
X073751Y045199D02*
X073745Y045193D01*
X073739Y045187D01*
X073735Y045181D01*
X073731Y045173D01*
X073727Y045166D01*
X073725Y045158D01*
X073722Y04515D01*
X073721Y045141D01*
X07372Y045131D01*
X07372Y045121D01*
X073641Y045127D01*
X073641Y045136D01*
X07364Y045146D01*
X073638Y045155D01*
X073636Y045163D01*
X073634Y045172D01*
X073631Y04518D01*
X073627Y045187D01*
X073623Y045194D01*
X073618Y045201D01*
X073613Y045207D01*
X073751Y045199D01*
D02*
G37*
G36*
X074196Y045163D02*
X074191Y045157D01*
X074187Y04515D01*
X074183Y045143D01*
X07418Y045135D01*
X074177Y045127D01*
X074175Y045118D01*
X074173Y04511D01*
X074173Y0451D01*
X074172Y04509D01*
X074094D01*
X074093Y0451D01*
X074092Y04511D01*
X074091Y045118D01*
X074089Y045127D01*
X074086Y045135D01*
X074083Y045143D01*
X074079Y04515D01*
X074075Y045157D01*
X07407Y045163D01*
X074064Y045169D01*
X074202D01*
X074196Y045163D01*
D02*
G37*
G36*
X073001Y045148D02*
X073002Y04514D01*
X073004Y045132D01*
X073006Y045124D01*
X07301Y045116D01*
X073013Y045109D01*
X073018Y045101D01*
X073023Y045094D01*
X073029Y045086D01*
X073036Y045079D01*
X07298Y045024D01*
X072973Y04503D01*
X072966Y045036D01*
X072959Y045042D01*
X072951Y045046D01*
X072943Y04505D01*
X072936Y045053D01*
X072928Y045056D01*
X07292Y045057D01*
X072912Y045058D01*
X072904Y045059D01*
X073001Y045156D01*
X073001Y045148D01*
D02*
G37*
G36*
X072161Y042151D02*
X072154Y042148D01*
X072148Y042144D01*
X072143Y042139D01*
X072139Y042132D01*
X072135Y042123D01*
X072133Y042112D01*
X072131Y0421D01*
X072129Y042087D01*
X072129Y042072D01*
X07205D01*
X07205Y042087D01*
X072049Y0421D01*
X072047Y042112D01*
X072044Y042123D01*
X07204Y042132D01*
X072036Y042139D01*
X072031Y042144D01*
X072025Y042148D01*
X072018Y042151D01*
X072011Y042151D01*
X072168D01*
X072161Y042151D01*
D02*
G37*
G36*
X071615Y042151D02*
X071608Y042148D01*
X071602Y042144D01*
X071597Y042139D01*
X071592Y042131D01*
X071589Y042122D01*
X071586Y042112D01*
X071584Y0421D01*
X071583Y042086D01*
X071582Y04207D01*
X071502D01*
X071502Y042086D01*
X071501Y0421D01*
X071499Y042112D01*
X071496Y042122D01*
X071492Y042131D01*
X071488Y042139D01*
X071483Y042144D01*
X071477Y042148D01*
X07147Y042151D01*
X071462Y042151D01*
X071622D01*
X071615Y042151D01*
D02*
G37*
G36*
X071583Y041952D02*
X071584Y041938D01*
X071586Y041926D01*
X071589Y041915D01*
X071592Y041906D01*
X071597Y041899D01*
X071602Y041893D01*
X071608Y041889D01*
X071615Y041887D01*
X071622Y041886D01*
X071462D01*
X07147Y041887D01*
X071477Y041889D01*
X071483Y041893D01*
X071488Y041899D01*
X071492Y041906D01*
X071496Y041915D01*
X071499Y041926D01*
X071501Y041938D01*
X071502Y041952D01*
X071502Y041967D01*
X071582D01*
X071583Y041952D01*
D02*
G37*
G36*
X071519Y041615D02*
X071512Y041619D01*
X071505Y041621D01*
X071496Y041621D01*
X071486Y041618D01*
X071475Y041613D01*
X071464Y041607D01*
X071451Y041598D01*
X071437Y041586D01*
X071406Y041558D01*
X071339Y041604D01*
X071356Y041621D01*
X071381Y041651D01*
X071391Y041664D01*
X071398Y041676D01*
X071402Y041687D01*
X071405Y041697D01*
X071404Y041705D01*
X071402Y041712D01*
X071397Y041717D01*
X071519Y041615D01*
D02*
G37*
G36*
X071947Y041615D02*
X071942Y041612D01*
X071937Y041609D01*
X071932Y041603D01*
X071928Y041597D01*
X071925Y041589D01*
X071923Y041579D01*
X071921Y041568D01*
X07192Y041555D01*
X07192Y041541D01*
X071841D01*
X071841Y041555D01*
X07184Y041568D01*
X071838Y041579D01*
X071836Y041589D01*
X071833Y041597D01*
X071829Y041603D01*
X071825Y041609D01*
X07182Y041612D01*
X071814Y041615D01*
X071807Y041615D01*
X071954D01*
X071947Y041615D01*
D02*
G37*
G36*
X071689Y04112D02*
X07157Y041118D01*
X071578Y041119D01*
X071584Y041122D01*
X07159Y041126D01*
X071595Y041131D01*
X0716Y041139D01*
X071603Y041147D01*
X071606Y041158D01*
X071608Y04117D01*
X071609Y041183D01*
X07161Y041198D01*
X071688D01*
X071689Y04112D01*
D02*
G37*
G36*
X07232Y040903D02*
X07232Y040911D01*
X072317Y040918D01*
X072313Y040924D01*
X072307Y040929D01*
X0723Y040933D01*
X072291Y040937D01*
X072281Y040939D01*
X072268Y040941D01*
X072255Y040943D01*
X072239Y040943D01*
Y041023D01*
X072255Y041023D01*
X072268Y041025D01*
X072281Y041027D01*
X072291Y041029D01*
X0723Y041033D01*
X072307Y041037D01*
X072313Y041043D01*
X072317Y041049D01*
X07232Y041055D01*
X07232Y041063D01*
Y040903D01*
D02*
G37*
G36*
X072083Y041055D02*
X072086Y041049D01*
X07209Y041043D01*
X072095Y041037D01*
X072102Y041033D01*
X072111Y041029D01*
X072122Y041027D01*
X072134Y041025D01*
X072147Y041023D01*
X072162Y041023D01*
Y040943D01*
X072147Y040943D01*
X072134Y040941D01*
X072122Y040939D01*
X072111Y040937D01*
X072102Y040933D01*
X072095Y040929D01*
X07209Y040924D01*
X072086Y040918D01*
X072083Y040911D01*
X072083Y040903D01*
Y041063D01*
X072083Y041055D01*
D02*
G37*
G36*
X074835Y040907D02*
X07483Y0409D01*
X074825Y040894D01*
X074822Y040886D01*
X074818Y040879D01*
X074816Y04087D01*
X074814Y040862D01*
X074812Y040853D01*
X074811Y040844D01*
X074811Y040834D01*
X074732D01*
X074732Y040844D01*
X074731Y040853D01*
X07473Y040862D01*
X074727Y04087D01*
X074725Y040879D01*
X074722Y040886D01*
X074718Y040894D01*
X074713Y0409D01*
X074708Y040907D01*
X074703Y040913D01*
X07484D01*
X074835Y040907D01*
D02*
G37*
G36*
X072007Y040847D02*
X072001Y040844D01*
X071995Y04084D01*
X07199Y040835D01*
X071986Y040828D01*
X071982Y040819D01*
X071979Y040808D01*
X071978Y040796D01*
X071976Y040783D01*
X071976Y040768D01*
X071896D01*
X071896Y040783D01*
X071895Y040796D01*
X071893Y040808D01*
X07189Y040819D01*
X071886Y040828D01*
X071882Y040835D01*
X071877Y04084D01*
X071871Y040844D01*
X071865Y040847D01*
X071857Y040848D01*
X072015D01*
X072007Y040847D01*
D02*
G37*
G36*
X072879Y041581D02*
X07294Y04152D01*
X072986Y041501D01*
X07297Y041463D01*
Y041377D01*
X073001Y041303D01*
X072966Y041289D01*
X072905Y041228D01*
X072872Y041148D01*
Y041062D01*
X072905Y040982D01*
X072966Y040922D01*
X073045Y040889D01*
X073132D01*
X073211Y040922D01*
X073216Y040926D01*
X073295Y040894D01*
Y039252D01*
X073231Y03921D01*
X073174D01*
X073129Y039257D01*
X073118Y039281D01*
X073123Y039293D01*
Y03938D01*
X07309Y039459D01*
X073029Y03952D01*
X07295Y039553D01*
X072864D01*
X072806Y039604D01*
Y039739D01*
X072747D01*
Y040074D01*
X072349D01*
Y040472D01*
X071966D01*
X071954Y040487D01*
X071946Y040576D01*
X072037Y040667D01*
X072037Y040667D01*
X072068Y040713D01*
X072079Y040768D01*
X072143Y040786D01*
X072218Y040778D01*
Y040734D01*
X072772D01*
Y041196D01*
X07279Y041267D01*
X07279D01*
X07279Y041267D01*
Y04159D01*
X072869Y041606D01*
X072879Y041581D01*
D02*
G37*
G36*
X07051Y040688D02*
X070509Y040695D01*
X070506Y040702D01*
X070502Y040708D01*
X070497Y040713D01*
X070489Y040718D01*
X07048Y040721D01*
X07047Y040724D01*
X070458Y040726D01*
X070444Y040727D01*
X070429Y040728D01*
Y040808D01*
X070444Y040808D01*
X070458Y040809D01*
X07047Y040811D01*
X07048Y040814D01*
X070489Y040818D01*
X070497Y040822D01*
X070502Y040827D01*
X070506Y040833D01*
X070509Y04084D01*
X07051Y040848D01*
Y040688D01*
D02*
G37*
G36*
X069923Y04084D02*
X069925Y040833D01*
X069929Y040827D01*
X069935Y040822D01*
X069942Y040818D01*
X069951Y040814D01*
X069962Y040811D01*
X069974Y040809D01*
X069988Y040808D01*
X070003Y040808D01*
Y040728D01*
X069988Y040727D01*
X069974Y040726D01*
X069962Y040724D01*
X069951Y040721D01*
X069942Y040718D01*
X069935Y040713D01*
X069929Y040708D01*
X069925Y040702D01*
X069923Y040695D01*
X069922Y040688D01*
Y040848D01*
X069923Y04084D01*
D02*
G37*
G36*
X069906Y040671D02*
X069907Y040662D01*
X069907Y040662D01*
X069923D01*
X06992Y040661D01*
X069917Y040659D01*
X069914Y040655D01*
X069912Y040649D01*
X069911Y040645D01*
X069911Y040645D01*
X069914Y040638D01*
X069918Y040631D01*
X069922Y040625D01*
X069927Y040619D01*
X069933Y040614D01*
X069939Y04061D01*
X069906Y040602D01*
X069906Y040597D01*
X069905Y040582D01*
X069826D01*
X069826Y040583D01*
X069805Y040578D01*
X069809Y040585D01*
X069812Y040592D01*
X069815Y040599D01*
X069818Y040607D01*
X06982Y040615D01*
X069822Y040623D01*
X069822Y040623D01*
X069819Y040633D01*
X069816Y040642D01*
X069811Y040649D01*
X069806Y040655D01*
X0698Y040659D01*
X069793Y040661D01*
X069786Y040662D01*
X069831D01*
X069905Y040681D01*
X069906Y040671D01*
D02*
G37*
G36*
X075106Y040608D02*
X075101Y040602D01*
X075097Y040595D01*
X075093Y040588D01*
X07509Y04058D01*
X075087Y040572D01*
X075085Y040564D01*
X075083Y040555D01*
X075083Y040545D01*
X075082Y040536D01*
X075002D01*
X075002Y040545D01*
X075001Y040555D01*
X075Y040564D01*
X074998Y040572D01*
X074995Y04058D01*
X074992Y040588D01*
X074988Y040595D01*
X074984Y040602D01*
X074979Y040608D01*
X074973Y040614D01*
X075111D01*
X075106Y040608D01*
D02*
G37*
G36*
X070757Y040611D02*
X07075Y040608D01*
X070744Y040604D01*
X070739Y040599D01*
X070734Y040591D01*
X070731Y040583D01*
X070728Y040572D01*
X070726Y04056D01*
X070725Y040547D01*
X070724Y040532D01*
X070644D01*
X070644Y040547D01*
X070643Y04056D01*
X070641Y040572D01*
X070638Y040583D01*
X070634Y040591D01*
X07063Y040599D01*
X070625Y040604D01*
X070619Y040608D01*
X070612Y040611D01*
X070604Y040611D01*
X070764D01*
X070757Y040611D01*
D02*
G37*
G36*
X071488Y040476D02*
X071491Y040432D01*
X071493Y040424D01*
X071494Y040419D01*
X071497Y040415D01*
X071499Y040412D01*
X071502Y040412D01*
X071394D01*
X071397Y040412D01*
X071399Y040415D01*
X071401Y040419D01*
X071403Y040424D01*
X071404Y040432D01*
X071406Y04044D01*
X071407Y040463D01*
X071408Y040492D01*
X071488D01*
X071488Y040476D01*
D02*
G37*
G36*
X071276D02*
X071278Y040451D01*
X07128Y04044D01*
X071283Y040432D01*
X071286Y040424D01*
X07129Y040419D01*
X071294Y040415D01*
X071299Y040412D01*
X071305Y040412D01*
X071197D01*
X071197Y040412D01*
X071197Y040415D01*
X071196Y040432D01*
X071196Y040492D01*
X071276D01*
X071276Y040476D01*
D02*
G37*
G36*
X068857Y040427D02*
X068858Y040422D01*
X068888D01*
X068882Y040419D01*
X068877Y040412D01*
X068872Y040399D01*
X068868Y040381D01*
X068865Y040358D01*
X068863Y040334D01*
X068867Y04026D01*
X068871Y040242D01*
X068875Y04023D01*
X06888Y040222D01*
X068885Y040219D01*
X068858D01*
X068857Y040166D01*
X068601D01*
X068601Y040215D01*
X068601Y040219D01*
X068573D01*
X068578Y040222D01*
X068583Y04023D01*
X068587Y040242D01*
X068591Y04026D01*
X068594Y040283D01*
X068595Y040299D01*
X068588Y040399D01*
X068584Y040412D01*
X06858Y040419D01*
X068575Y040422D01*
X0686D01*
X068601Y040475D01*
X068857D01*
X068857Y040427D01*
D02*
G37*
G36*
X070805Y040161D02*
X070804Y040167D01*
X070802Y040173D01*
X070798Y040178D01*
X070793Y040182D01*
X070786Y040185D01*
X070778Y040188D01*
X070769Y040191D01*
X070758Y040192D01*
X070745Y040193D01*
X070731Y040193D01*
Y040273D01*
X070745Y040274D01*
X070758Y040275D01*
X070769Y040276D01*
X070778Y040279D01*
X070786Y040281D01*
X070793Y040285D01*
X070798Y040289D01*
X070802Y040294D01*
X070804Y0403D01*
X070805Y040306D01*
Y040161D01*
D02*
G37*
G36*
X071105Y040098D02*
X071103Y040096D01*
X071101Y040092D01*
X071099Y040086D01*
X071097Y040079D01*
X071096Y040071D01*
X071094Y040049D01*
X071093Y04002D01*
X071015D01*
X071015Y040035D01*
X071011Y040079D01*
X071009Y040086D01*
X071008Y040092D01*
X071005Y040096D01*
X071003Y040098D01*
X071Y040099D01*
X071108D01*
X071105Y040098D01*
D02*
G37*
G36*
X070135Y040128D02*
X070138Y040121D01*
X070143Y040115D01*
X070149Y040109D01*
X070158Y040104D01*
X070168Y040101D01*
X07018Y040098D01*
X070195Y040096D01*
X07021Y040094D01*
X070228Y040094D01*
Y039994D01*
X07021Y039993D01*
X070195Y039992D01*
X07018Y03999D01*
X070168Y039987D01*
X070158Y039983D01*
X070149Y039978D01*
X070143Y039973D01*
X070138Y039967D01*
X070135Y039959D01*
X070134Y039951D01*
Y040136D01*
X070135Y040128D01*
D02*
G37*
G36*
X068888Y04021D02*
X068896Y040202D01*
X068908Y040195D01*
X068926Y040189D01*
X068949Y040183D01*
X068977Y040179D01*
X069049Y040173D01*
X069141Y040171D01*
Y039915D01*
X069093Y039915D01*
X068977Y039908D01*
X068949Y039903D01*
X068926Y039898D01*
X068908Y039892D01*
X068896Y039885D01*
X068888Y039876D01*
X068885Y039867D01*
Y040219D01*
X068888Y04021D01*
D02*
G37*
G36*
X080634Y039835D02*
X080633Y039846D01*
X080629Y039856D01*
X080624Y039865D01*
X080615Y039872D01*
X080605Y039879D01*
X080592Y039884D01*
X080576Y039888D01*
X080559Y039891D01*
X080538Y039893D01*
X080516Y039894D01*
Y040012D01*
X080538Y040012D01*
X080559Y040014D01*
X080576Y040017D01*
X080592Y040021D01*
X080605Y040027D01*
X080615Y040033D01*
X080624Y040041D01*
X080629Y04005D01*
X080633Y04006D01*
X080634Y040071D01*
Y039835D01*
D02*
G37*
G36*
X080235Y04006D02*
X080239Y04005D01*
X080245Y040041D01*
X080253Y040033D01*
X080264Y040027D01*
X080277Y040021D01*
X080293Y040017D01*
X080311Y040014D01*
X080331Y040012D01*
X080354Y040012D01*
Y039894D01*
X080331Y039893D01*
X080311Y039891D01*
X080293Y039888D01*
X080277Y039884D01*
X080264Y039879D01*
X080253Y039872D01*
X080245Y039865D01*
X080239Y039856D01*
X080235Y039846D01*
X080234Y039835D01*
Y040071D01*
X080235Y04006D01*
D02*
G37*
G36*
X077797Y039946D02*
X0778Y039945D01*
X077803Y039945D01*
X07782Y039944D01*
X077858Y039944D01*
Y039811D01*
X077796Y039809D01*
Y039946D01*
X077797Y039946D01*
D02*
G37*
G36*
X071094Y039864D02*
X071095Y039851D01*
X071097Y039839D01*
X0711Y039829D01*
X071103Y03982D01*
X071108Y039813D01*
X071113Y039807D01*
X071119Y039803D01*
X071125Y039801D01*
X071133Y0398D01*
X071017Y039801D01*
X071015Y03988D01*
X071093D01*
X071094Y039864D01*
D02*
G37*
G36*
X078501Y039744D02*
X078499Y039757D01*
X078495Y039768D01*
X078489Y039778D01*
X078479Y039787D01*
X078467Y039794D01*
X078452Y0398D01*
X078435Y039805D01*
X078415Y039808D01*
X078392Y03981D01*
X078367Y039811D01*
Y039944D01*
X078392Y039945D01*
X078415Y039947D01*
X078435Y03995D01*
X078452Y039955D01*
X078467Y039961D01*
X078479Y039968D01*
X078489Y039977D01*
X078495Y039987D01*
X078499Y039998D01*
X078501Y04001D01*
Y039744D01*
D02*
G37*
G36*
X070406Y039709D02*
X070405Y03971D01*
X070402Y039711D01*
X070397Y039711D01*
X070381Y039712D01*
X070306Y039713D01*
Y039813D01*
X070406Y039817D01*
Y039709D01*
D02*
G37*
G36*
X069269Y039502D02*
X069268Y03951D01*
X069266Y039517D01*
X069262Y039523D01*
X069256Y039528D01*
X069249Y039532D01*
X06924Y039536D01*
X06923Y039539D01*
X06922Y03954D01*
X069216Y03954D01*
X069208Y039538D01*
X0692Y039535D01*
X069192Y039532D01*
X069185Y039529D01*
X069178Y039525D01*
X069171Y03952D01*
X069165Y039515D01*
X06917Y039652D01*
X069176Y039646D01*
X069182Y039641D01*
X069189Y039637D01*
X069196Y039633D01*
X069203Y03963D01*
X069211Y039627D01*
X06922Y039625D01*
X069222Y039625D01*
X06923Y039626D01*
X06924Y039629D01*
X069249Y039632D01*
X069256Y039637D01*
X069262Y039642D01*
X069266Y039648D01*
X069268Y039655D01*
X069269Y039662D01*
Y039502D01*
D02*
G37*
G36*
X070134Y039755D02*
X070136Y039752D01*
X070141Y039749D01*
X070148Y039747D01*
X070156Y039745D01*
X070166Y039744D01*
X070192Y039742D01*
X070226Y039741D01*
Y039641D01*
X070208Y039641D01*
X070192Y039639D01*
X070178Y039637D01*
X070166Y039634D01*
X070155Y03963D01*
X070147Y039625D01*
X07014Y03962D01*
X070135Y039613D01*
X070132Y039606D01*
X070131Y039598D01*
X070133Y039758D01*
X070134Y039755D01*
D02*
G37*
G36*
X068329Y039865D02*
X068324Y039857D01*
X06832Y039844D01*
X068316Y039826D01*
X068313Y039803D01*
X068308Y039742D01*
X068308Y039709D01*
X068316Y03957D01*
X06832Y039552D01*
X068324Y03954D01*
X068329Y039532D01*
X068334Y039529D01*
X068022D01*
X068027Y039532D01*
X068032Y03954D01*
X068036Y039552D01*
X06804Y03957D01*
X068043Y039593D01*
X068047Y039655D01*
X068048Y039687D01*
X06804Y039826D01*
X068036Y039844D01*
X068032Y039857D01*
X068027Y039865D01*
X068022Y039867D01*
X068334D01*
X068329Y039865D01*
D02*
G37*
G36*
X072374Y039513D02*
X072373Y039515D01*
X072371Y039518D01*
X072367Y03952D01*
X072362Y039522D01*
X072355Y039523D01*
X072346Y039525D01*
X072324Y039526D01*
X072296Y039527D01*
Y039606D01*
X07231Y039606D01*
X072355Y039609D01*
X072362Y039611D01*
X072367Y039613D01*
X072371Y039615D01*
X072373Y039617D01*
X072374Y03962D01*
Y039513D01*
D02*
G37*
G36*
X072077Y039638D02*
X072079Y039631D01*
X072083Y039625D01*
X072089Y03962D01*
X072096Y039616D01*
X072105Y039612D01*
X072115Y039609D01*
X072127Y039607D01*
X072141Y039606D01*
X072156Y039606D01*
Y039527D01*
X072141Y039527D01*
X072127Y039525D01*
X072115Y039523D01*
X072105Y039521D01*
X072096Y039517D01*
X072089Y039513D01*
X072083Y039508D01*
X072079Y039502D01*
X072077Y039495D01*
X072076Y039488D01*
Y039645D01*
X072077Y039638D01*
D02*
G37*
G36*
X068022Y039474D02*
X068045Y039474D01*
Y039218D01*
X068022Y039218D01*
Y039177D01*
X068019Y039185D01*
X068011Y039192D01*
X067999Y039198D01*
X067981Y039203D01*
X067958Y039208D01*
X067929Y039212D01*
X067921Y039212D01*
X06783Y039205D01*
X067812Y039201D01*
X0678Y039195D01*
X067792Y039189D01*
X067789Y039183D01*
Y039218D01*
X067766Y039218D01*
Y039474D01*
X067789Y039474D01*
Y039495D01*
X067792Y039491D01*
X0678Y039488D01*
X067812Y039484D01*
X06783Y039482D01*
X067869Y039479D01*
X067929Y039483D01*
X067958Y039488D01*
X067981Y039494D01*
X067999Y039501D01*
X068011Y039509D01*
X068019Y039519D01*
X068022Y039529D01*
Y039474D01*
D02*
G37*
G36*
X067438Y039453D02*
X067455Y039453D01*
Y039197D01*
X067438Y039197D01*
Y039183D01*
X067435Y039185D01*
X067427Y039188D01*
X067414Y03919D01*
X067397Y039192D01*
X067357Y039194D01*
X067222Y039185D01*
X06721Y039181D01*
X067202Y039177D01*
X067199Y039173D01*
Y039197D01*
X067182Y039197D01*
Y039453D01*
X067199Y039453D01*
Y039485D01*
X067202Y039479D01*
X06721Y039474D01*
X067222Y039469D01*
X06724Y039465D01*
X067263Y039461D01*
X067298Y039458D01*
X067374Y039464D01*
X067397Y039468D01*
X067414Y039474D01*
X067427Y03948D01*
X067435Y039487D01*
X067438Y039495D01*
Y039453D01*
D02*
G37*
G36*
X079727Y03966D02*
X079723Y03965D01*
X079723Y039639D01*
X079725Y039625D01*
X079731Y039611D01*
X07974Y039594D01*
X079752Y039577D01*
X079767Y039557D01*
X079785Y039536D01*
X079807Y039514D01*
X079707Y039447D01*
X079691Y039462D01*
X079636Y039509D01*
X079625Y039517D01*
X079614Y039524D01*
X079604Y039529D01*
X079595Y039532D01*
X079587Y039534D01*
X079734Y039669D01*
X079727Y03966D01*
D02*
G37*
G36*
X072035Y039506D02*
X072028Y039499D01*
X072022Y039491D01*
X072017Y039484D01*
X072014Y039478D01*
X072011Y039471D01*
X07201Y039465D01*
X07201Y039458D01*
X072011Y039452D01*
X072013Y039447D01*
X072016Y039441D01*
X071887Y039468D01*
X071967Y03955D01*
X072035Y039506D01*
D02*
G37*
G36*
X072812Y039309D02*
X07281Y039316D01*
X072806Y039322D01*
X072802Y039327D01*
X072797Y039331D01*
X072792Y039335D01*
X072785Y039338D01*
X072777Y03934D01*
X072769Y039342D01*
X07276Y039343D01*
X072756Y039343D01*
X072752Y039343D01*
X072726Y039341D01*
X072716Y039339D01*
X072707Y039336D01*
X0727Y039333D01*
X072694Y03933D01*
X07269Y039326D01*
X072688Y039321D01*
X072687Y039316D01*
Y039423D01*
X072762D01*
X072874Y03943D01*
X072812Y039309D01*
D02*
G37*
G36*
X07297Y03926D02*
X072965Y039254D01*
X072961Y039247D01*
X072957Y03924D01*
X072954Y039232D01*
X072951Y039224D01*
X072949Y039216D01*
X072948Y039207D01*
X072947Y039197D01*
X072947Y039188D01*
X072867D01*
X072866Y039197D01*
X072866Y039207D01*
X072864Y039216D01*
X072862Y039224D01*
X072859Y039232D01*
X072856Y03924D01*
X072853Y039247D01*
X072848Y039254D01*
X072843Y03926D01*
X072838Y039266D01*
X072976D01*
X07297Y03926D01*
D02*
G37*
G36*
X07983Y039279D02*
X079832Y039258D01*
X079835Y039241D01*
X079839Y039225D01*
X079845Y039212D01*
X079851Y039201D01*
X079859Y039193D01*
X079868Y039187D01*
X079878Y039183D01*
X079889Y039182D01*
X079653D01*
X079664Y039183D01*
X079674Y039187D01*
X079683Y039193D01*
X07969Y039201D01*
X079697Y039212D01*
X079702Y039225D01*
X079706Y039241D01*
X079709Y039258D01*
X079711Y039279D01*
X079712Y039301D01*
X07983D01*
X07983Y039279D01*
D02*
G37*
G36*
X066848Y039173D02*
X066845Y039177D01*
X066837Y039181D01*
X066824Y039185D01*
X066807Y039188D01*
X066784Y039191D01*
X066722Y039195D01*
X066592Y039197D01*
Y039453D01*
X06664Y039453D01*
X066807Y039465D01*
X066824Y039469D01*
X066837Y039474D01*
X066845Y039479D01*
X066848Y039485D01*
Y039173D01*
D02*
G37*
G36*
X072374Y039119D02*
X072373Y039122D01*
X072371Y039124D01*
X072367Y039126D01*
X072362Y039128D01*
X072355Y03913D01*
X072346Y039131D01*
X072324Y039133D01*
X072296Y039133D01*
Y039212D01*
X07231Y039212D01*
X072355Y039216D01*
X072362Y039217D01*
X072367Y039219D01*
X072371Y039221D01*
X072373Y039224D01*
X072374Y039227D01*
Y039119D01*
D02*
G37*
G36*
X070406Y039227D02*
Y039119D01*
X070405Y03912D01*
X070402Y039122D01*
X070397Y039123D01*
X07039Y039124D01*
X07037Y039125D01*
X070306Y039127D01*
Y039227D01*
X070406Y039227D01*
D02*
G37*
G36*
X072077Y039244D02*
X072079Y039237D01*
X072083Y039231D01*
X072089Y039226D01*
X072096Y039222D01*
X072105Y039218D01*
X072115Y039216D01*
X072127Y039214D01*
X072141Y039212D01*
X072156Y039212D01*
Y039133D01*
X072141Y039133D01*
X072127Y039132D01*
X072115Y03913D01*
X072105Y039127D01*
X072096Y039123D01*
X072089Y039119D01*
X072083Y039114D01*
X072079Y039108D01*
X072077Y039101D01*
X072076Y039094D01*
Y039251D01*
X072077Y039244D01*
D02*
G37*
G36*
X071976Y03906D02*
X071977Y039035D01*
X071979Y039029D01*
X07198Y039023D01*
X071982Y039019D01*
X071984Y039015D01*
X071986Y039012D01*
X071988Y03901D01*
X071884D01*
X071886Y039012D01*
X071888Y039015D01*
X07189Y039019D01*
X071892Y039023D01*
X071893Y039029D01*
X071895Y039035D01*
X071896Y039042D01*
X071897Y03906D01*
X071897Y03907D01*
X071975D01*
X071976Y03906D01*
D02*
G37*
G36*
X08025Y038929D02*
X080249Y03894D01*
X080245Y03895D01*
X080239Y038959D01*
X080231Y038966D01*
X080221Y038973D01*
X080208Y038978D01*
X080192Y038982D01*
X080175Y038985D01*
X080154Y038987D01*
X080132Y038988D01*
Y039106D01*
X080154Y039106D01*
X080175Y039108D01*
X080192Y039111D01*
X080208Y039115D01*
X080221Y039121D01*
X080231Y039127D01*
X080239Y039135D01*
X080245Y039144D01*
X080249Y039154D01*
X08025Y039165D01*
Y038929D01*
D02*
G37*
G36*
X079961Y039154D02*
X079965Y039144D01*
X079971Y039135D01*
X079979Y039127D01*
X07999Y039121D01*
X080003Y039115D01*
X080018Y039111D01*
X080036Y039108D01*
X080057Y039106D01*
X080079Y039106D01*
Y038988D01*
X080057Y038987D01*
X080036Y038985D01*
X080018Y038982D01*
X080003Y038978D01*
X07999Y038973D01*
X079979Y038966D01*
X079971Y038959D01*
X079965Y03895D01*
X079961Y03894D01*
X07996Y038929D01*
Y039165D01*
X079961Y039154D01*
D02*
G37*
G36*
X071336Y039004D02*
X07133Y038997D01*
X071324Y03899D01*
X071318Y038982D01*
X071314Y038975D01*
X07131Y038967D01*
X071307Y038959D01*
X071304Y038952D01*
X071303Y038944D01*
X071302Y038936D01*
X071301Y038927D01*
X071204Y039025D01*
X071212Y039025D01*
X07122Y039026D01*
X071228Y039028D01*
X071236Y03903D01*
X071244Y039033D01*
X071251Y039037D01*
X071259Y039042D01*
X071266Y039047D01*
X071273Y039053D01*
X071281Y03906D01*
X071336Y039004D01*
D02*
G37*
G36*
X072767Y038951D02*
X072752Y038951D01*
X072726Y038948D01*
X072716Y038946D01*
X072707Y038944D01*
X0727Y038941D01*
X072694Y038937D01*
X07269Y038932D01*
X072688Y038928D01*
X072687Y038922D01*
Y03903D01*
X072688Y03903D01*
X07269Y03903D01*
X072707Y039031D01*
X072767Y039031D01*
Y038951D01*
D02*
G37*
G36*
X070406Y038922D02*
X070306Y038922D01*
Y039022D01*
X070325Y039022D01*
X070402Y039027D01*
X070405Y039028D01*
X070406Y03903D01*
Y038922D01*
D02*
G37*
G36*
X068023Y038902D02*
X068045Y038902D01*
Y038646D01*
X068023Y038646D01*
Y038603D01*
X068335D01*
X06833Y038601D01*
X068325Y038593D01*
X068321Y03858D01*
X068317Y038562D01*
X068314Y038539D01*
X068309Y038478D01*
X068309Y038471D01*
X068317Y03834D01*
X068321Y038322D01*
X068325Y03831D01*
X06833Y038302D01*
X068335Y038299D01*
X068023D01*
X068028Y038302D01*
X068033Y03831D01*
X068037Y038322D01*
X068041Y03834D01*
X068044Y038363D01*
X068048Y038425D01*
X068049Y038432D01*
X068041Y038562D01*
X068037Y03858D01*
X068033Y038593D01*
X068028Y038601D01*
X068023Y038603D01*
X06802Y038611D01*
X068012Y038619D01*
X068Y038625D01*
X067982Y03863D01*
X067959Y038635D01*
X067931Y038639D01*
X067907Y038641D01*
X067792Y038634D01*
X067789Y038631D01*
Y038646D01*
X067767Y038646D01*
Y038902D01*
X067789Y038902D01*
Y038944D01*
X067792Y038936D01*
X0678Y038929D01*
X067812Y038923D01*
X06783Y038917D01*
X067853Y038912D01*
X067882Y038909D01*
X067893Y038908D01*
X067931Y03891D01*
X067959Y038915D01*
X067982Y038921D01*
X068Y038928D01*
X068012Y038936D01*
X06802Y038945D01*
X068023Y038955D01*
Y038902D01*
D02*
G37*
G36*
X067438Y038902D02*
X067455Y038902D01*
Y038646D01*
X067438Y038646D01*
Y038631D01*
X067435Y038634D01*
X067427Y038637D01*
X067414Y038639D01*
X067397Y038641D01*
X067357Y038643D01*
X067222Y038634D01*
X06721Y03863D01*
X067202Y038626D01*
X067199Y038621D01*
Y038646D01*
X067182Y038646D01*
Y038902D01*
X067199Y038902D01*
Y038934D01*
X067202Y038928D01*
X06721Y038922D01*
X067222Y038918D01*
X06724Y038913D01*
X067263Y03891D01*
X067298Y038907D01*
X067374Y038912D01*
X067397Y038917D01*
X067414Y038923D01*
X067427Y038929D01*
X067435Y038936D01*
X067438Y038944D01*
Y038902D01*
D02*
G37*
G36*
X073191Y038913D02*
X073182Y038913D01*
X073173Y038912D01*
X073164Y03891D01*
X073155Y038908D01*
X073147Y038905D01*
X073138Y038901D01*
X073131Y038897D01*
X073123Y038892D01*
X073116Y038886D01*
X073109Y03888D01*
X073061Y038928D01*
X073067Y038935D01*
X073073Y038942D01*
X073078Y038949D01*
X073082Y038957D01*
X073086Y038965D01*
X073089Y038973D01*
X073091Y038982D01*
X073092Y038991D01*
X073093Y039D01*
X073094Y03901D01*
X073191Y038913D01*
D02*
G37*
G36*
X068958Y038937D02*
X068885Y038862D01*
X068833Y038954D01*
X068834Y038954D01*
X068835Y038956D01*
X068868Y038988D01*
X068888Y039007D01*
X068958Y038937D01*
D02*
G37*
G36*
X071202Y038828D02*
X071194Y038828D01*
X071186Y038827D01*
X071178Y038825D01*
X07117Y038823D01*
X071162Y038819D01*
X071154Y038816D01*
X071147Y038811D01*
X07114Y038806D01*
X071132Y0388D01*
X071125Y038793D01*
X07107Y038849D01*
X071076Y038856D01*
X071082Y038863D01*
X071088Y03887D01*
X071092Y038878D01*
X071096Y038886D01*
X071099Y038893D01*
X071102Y038901D01*
X071103Y038909D01*
X071104Y038917D01*
X071104Y038925D01*
X071202Y038828D01*
D02*
G37*
G36*
X071128Y03874D02*
X071122Y038745D01*
X071115Y038747D01*
X071106D01*
X071097Y038745D01*
X071086Y03874D01*
X071075Y038734D01*
X071062Y038725D01*
X071048Y038714D01*
X071017Y038685D01*
X070961Y03874D01*
X070977Y038756D01*
X071001Y038785D01*
X07101Y038798D01*
X071017Y03881D01*
X071021Y03882D01*
X071023Y03883D01*
Y038838D01*
X071021Y038845D01*
X071017Y038852D01*
X071128Y03874D01*
D02*
G37*
G36*
X072688Y03883D02*
X07269Y038828D01*
X072693Y038826D01*
X072698Y038824D01*
X072704Y038823D01*
X072711Y038822D01*
X07272Y038821D01*
X072742Y03882D01*
X072755Y038819D01*
Y038751D01*
X072742Y038751D01*
X07272Y038749D01*
X072711Y038747D01*
X072704Y038745D01*
X072698Y038742D01*
X072693Y038739D01*
X07269Y038735D01*
X072688Y03873D01*
X072687Y038725D01*
Y038833D01*
X072688Y03883D01*
D02*
G37*
G36*
X066848Y038621D02*
X066845Y038626D01*
X066837Y03863D01*
X066824Y038634D01*
X066807Y038637D01*
X066784Y03864D01*
X066722Y038644D01*
X066592Y038646D01*
Y038902D01*
X06664Y038902D01*
X066807Y038913D01*
X066824Y038918D01*
X066837Y038922D01*
X066845Y038928D01*
X066848Y038934D01*
Y038621D01*
D02*
G37*
G36*
X072688Y038634D02*
X07269Y038632D01*
X072694Y03863D01*
X072699Y038629D01*
X072707Y038628D01*
X072715Y038627D01*
X072737Y038626D01*
X072766Y038625D01*
Y038546D01*
X072751Y038546D01*
X072715Y038544D01*
X072707Y038542D01*
X072699Y03854D01*
X072694Y038538D01*
X07269Y038535D01*
X072688Y038532D01*
X072687Y038528D01*
Y038636D01*
X072688Y038634D01*
D02*
G37*
G36*
X070719Y038633D02*
X070722Y038631D01*
X070725Y038629D01*
X070731Y038627D01*
X070738Y038625D01*
X070747Y038624D01*
X070769Y038622D01*
X070797Y038622D01*
Y038543D01*
X070782Y038543D01*
X070738Y038539D01*
X070731Y038538D01*
X070725Y038536D01*
X070722Y038534D01*
X070719Y038531D01*
X070718Y038528D01*
Y038636D01*
X070719Y038633D01*
D02*
G37*
G36*
X073052Y038518D02*
X073046Y038523D01*
X073039Y038528D01*
X073032Y038533D01*
X073025Y038536D01*
X073017Y038539D01*
X073009Y038542D01*
X073Y038544D01*
X072991Y038545D01*
X072982Y038546D01*
X072972Y038546D01*
X072969Y038625D01*
X072979Y038626D01*
X072988Y038626D01*
X072997Y038628D01*
X073005Y03863D01*
X073013Y038633D01*
X073021Y038636D01*
X073028Y03864D01*
X073035Y038645D01*
X073041Y03865D01*
X073047Y038656D01*
X073052Y038518D01*
D02*
G37*
G36*
X072288Y038358D02*
X072291Y038351D01*
X072295Y038346D01*
X0723Y03834D01*
X072308Y038336D01*
X072316Y038333D01*
X072327Y03833D01*
X072339Y038328D01*
X072352Y038327D01*
X072368Y038326D01*
Y038247D01*
X072352Y038247D01*
X072339Y038246D01*
X072327Y038244D01*
X072316Y038241D01*
X072308Y038238D01*
X0723Y038233D01*
X072295Y038228D01*
X072291Y038222D01*
X072288Y038216D01*
X072288Y038208D01*
Y038366D01*
X072288Y038358D01*
D02*
G37*
G36*
X070805Y038208D02*
X070804Y038216D01*
X070801Y038222D01*
X070797Y038228D01*
X070792Y038233D01*
X070785Y038238D01*
X070776Y038241D01*
X070765Y038244D01*
X070753Y038246D01*
X07074Y038247D01*
X070725Y038247D01*
Y038326D01*
X07074Y038327D01*
X070753Y038328D01*
X070765Y03833D01*
X070776Y038333D01*
X070785Y038336D01*
X070792Y03834D01*
X070797Y038346D01*
X070801Y038351D01*
X070804Y038358D01*
X070805Y038366D01*
Y038208D01*
D02*
G37*
G36*
X068828Y03821D02*
X068844Y0382D01*
X068863Y038191D01*
X068883Y038184D01*
X068885Y038183D01*
Y038203D01*
X068886Y038196D01*
X068889Y038189D01*
X068893Y038183D01*
X068895Y038181D01*
X068906Y038178D01*
X068931Y038172D01*
X068958Y038168D01*
X068991Y038166D01*
X068994Y038166D01*
X069002Y038169D01*
X069008Y038172D01*
X069015Y038176D01*
X06902Y03818D01*
X069024Y038185D01*
X069028Y038191D01*
X069031Y038198D01*
X069046Y038163D01*
X069051Y038163D01*
Y038154D01*
X069088Y038073D01*
X069082Y038075D01*
X069075Y038077D01*
X069066Y038078D01*
X069046Y038081D01*
X069021Y038082D01*
X069015Y038083D01*
X068958Y038078D01*
X068931Y038074D01*
X068906Y038069D01*
X068895Y038066D01*
X068893Y038064D01*
X068889Y038058D01*
X068886Y038051D01*
X068885Y038043D01*
Y038063D01*
X068883Y038063D01*
X068863Y038055D01*
X068844Y038047D01*
X068828Y038037D01*
X068813Y038026D01*
Y038221D01*
X068828Y03821D01*
D02*
G37*
G36*
X072089Y03813D02*
X072087Y038127D01*
X072085Y038123D01*
X072083Y038118D01*
X072081Y038111D01*
X07208Y038102D01*
X072078Y03808D01*
X072078Y038052D01*
X071999D01*
X071999Y038067D01*
X071995Y038111D01*
X071994Y038118D01*
X071992Y038123D01*
X07199Y038127D01*
X071987Y03813D01*
X071984Y038131D01*
X072092D01*
X072089Y03813D01*
D02*
G37*
G36*
X071499D02*
X071496Y038127D01*
X071494Y038123D01*
X071492Y038118D01*
X071491Y038111D01*
X071489Y038102D01*
X071488Y03808D01*
X071487Y038052D01*
X071408D01*
X071408Y038067D01*
X071405Y038111D01*
X071403Y038118D01*
X071401Y038123D01*
X071399Y038127D01*
X071397Y03813D01*
X071394Y038131D01*
X071502D01*
X071499Y03813D01*
D02*
G37*
G36*
X071696Y03813D02*
X071693Y038127D01*
X071691Y038123D01*
X07169Y038118D01*
X071688Y038111D01*
X071687Y038102D01*
X071685Y038079D01*
X071685Y038051D01*
X071605D01*
X071604Y038066D01*
X071601Y038111D01*
X0716Y038118D01*
X071598Y038123D01*
X071596Y038127D01*
X071593Y03813D01*
X071591Y038131D01*
X071698D01*
X071696Y03813D01*
D02*
G37*
G36*
X070286Y038755D02*
Y038661D01*
X070562D01*
Y038503D01*
X070286D01*
Y038409D01*
X070246Y038347D01*
X070126Y038227D01*
X070106Y038223D01*
X070059Y038192D01*
X070029Y038146D01*
X070018Y038092D01*
Y038002D01*
X069995Y037978D01*
X069939Y03795D01*
X069884Y037964D01*
X069831Y037964D01*
X069687D01*
Y037669D01*
Y037373D01*
X069831D01*
X069884Y037373D01*
X069956Y037392D01*
X070417D01*
Y037946D01*
X070358D01*
X070325Y038025D01*
X070445Y038145D01*
X070727D01*
X070733Y038136D01*
X070737Y038133D01*
X070741Y038129D01*
X070743Y038127D01*
Y03807D01*
X071306D01*
Y037983D01*
X071259Y037936D01*
X070718D01*
Y037475D01*
X0707Y037403D01*
X0707Y03735D01*
Y037206D01*
X070995D01*
Y037128D01*
X071074D01*
Y036852D01*
X071231D01*
X07129Y036852D01*
X071362Y03687D01*
X071853D01*
Y03687D01*
X071872Y036888D01*
X072386D01*
Y037021D01*
X072862D01*
X072894Y036942D01*
X072336Y036385D01*
X072306Y036339D01*
X072295Y036284D01*
Y035639D01*
X07228Y035628D01*
X072231Y035556D01*
X072227Y035534D01*
X072147D01*
X072142Y035556D01*
X072094Y035628D01*
X072079Y035638D01*
X072079Y035641D01*
Y036085D01*
X072068Y03614D01*
X072037Y036186D01*
X071682Y036541D01*
X071636Y036572D01*
X071582Y036583D01*
X070654D01*
Y036718D01*
X070182D01*
X070139Y036718D01*
X07006Y036718D01*
X069812D01*
X069797Y036796D01*
X069834Y036812D01*
X069895Y036873D01*
X069928Y036952D01*
Y037039D01*
X069895Y037118D01*
X069834Y037179D01*
X069755Y037212D01*
X069669D01*
X069589Y037179D01*
X069528Y037118D01*
X069495Y037039D01*
Y036952D01*
X069528Y036873D01*
X069589Y036812D01*
X069627Y036796D01*
X069611Y036718D01*
X069588D01*
Y036594D01*
X069369D01*
X069315Y036584D01*
X069269Y036553D01*
X068603Y035887D01*
X068573Y035841D01*
X068562Y035787D01*
Y033708D01*
X068176Y033323D01*
X066583D01*
Y038523D01*
X066723D01*
X066728Y038523D01*
Y038502D01*
X066842D01*
X066848Y038501D01*
X066853Y038502D01*
X066856D01*
X066861Y038502D01*
X066862Y038502D01*
X067185D01*
X067186Y038502D01*
X067191Y038502D01*
X067194D01*
X067199Y038501D01*
X067205Y038502D01*
X067319D01*
Y038512D01*
X067429D01*
X067433Y038511D01*
X067435Y038511D01*
X067438Y038511D01*
X067443Y038512D01*
X067784D01*
X067789Y038511D01*
X067792Y038511D01*
X067794Y038511D01*
X067798Y038512D01*
X067834D01*
X067903Y038484D01*
Y038419D01*
X067903D01*
Y038305D01*
X067902Y038299D01*
X067903Y038296D01*
X067902Y038293D01*
X067903Y038289D01*
Y037846D01*
X067897D01*
Y037629D01*
X068172D01*
Y037551D01*
X068251D01*
Y037255D01*
X068395D01*
X068448Y037255D01*
X068519Y037273D01*
X068981D01*
Y037719D01*
X068982Y037721D01*
X068981Y037724D01*
X068982Y037727D01*
X068981Y03773D01*
Y037828D01*
X068981D01*
X068988Y037846D01*
X068994Y037922D01*
X069007Y03794D01*
X069039Y037968D01*
X069048Y037972D01*
X069062Y037976D01*
X069084Y037966D01*
X069163D01*
X069236Y037996D01*
X069292Y038052D01*
X069322Y038125D01*
Y038204D01*
X069292Y038277D01*
X069254Y038315D01*
X069254Y038315D01*
X069237Y038762D01*
X069292Y038819D01*
X07025D01*
X070286Y038755D01*
D02*
G37*
G36*
X0702Y037908D02*
X070201Y037895D01*
X070203Y037883D01*
X070206Y037872D01*
X070209Y037864D01*
X070213Y037856D01*
X070219Y037851D01*
X070224Y037847D01*
X070231Y037844D01*
X070239Y037844D01*
X070081D01*
X070089Y037844D01*
X070095Y037847D01*
X070101Y037851D01*
X070106Y037856D01*
X070111Y037864D01*
X070114Y037872D01*
X070117Y037883D01*
X070119Y037895D01*
X07012Y037908D01*
X070121Y037923D01*
X070199D01*
X0702Y037908D01*
D02*
G37*
G36*
X071685Y037832D02*
X071685Y037822D01*
X071687Y037803D01*
X071688Y037795D01*
X07169Y037786D01*
X071693Y037778D01*
X071696Y037771D01*
X0717Y037763D01*
X071704Y037756D01*
X071708Y03775D01*
X071572Y037772D01*
X071578Y037777D01*
X071584Y037782D01*
X071589Y037788D01*
X071593Y037795D01*
X071596Y037802D01*
X071599Y037809D01*
X071602Y037818D01*
X071603Y037827D01*
X071604Y037836D01*
X071605Y037846D01*
X071685Y037832D01*
D02*
G37*
G36*
X068852Y037947D02*
X068886D01*
X06888Y037945D01*
X068874Y037937D01*
X068869Y037924D01*
X068864Y037906D01*
X06886Y037883D01*
X068857Y037855D01*
X068857Y03785D01*
X068862Y037768D01*
X068865Y03775D01*
X06887Y037737D01*
X068874Y037729D01*
X06888Y037727D01*
X068852D01*
X068851Y037691D01*
X068596D01*
X068595Y037727D01*
X068567D01*
X068573Y037729D01*
X068577Y037737D01*
X068582Y03775D01*
X068585Y037768D01*
X068588Y037791D01*
X06859Y037814D01*
X068582Y037937D01*
X068578Y037945D01*
X068574Y037947D01*
X068595D01*
X068596Y037983D01*
X068851D01*
X068852Y037947D01*
D02*
G37*
G36*
X071171Y037788D02*
X071173Y037782D01*
X071177Y037777D01*
X071182Y037773D01*
X071188Y037769D01*
X071197Y037766D01*
X071206Y037763D01*
X071217Y037762D01*
X07123Y037761D01*
X071244Y03776D01*
Y037682D01*
X07123Y037681D01*
X071217Y03768D01*
X071206Y037679D01*
X071197Y037676D01*
X071188Y037673D01*
X071182Y03767D01*
X071177Y037665D01*
X071173Y03766D01*
X071171Y037654D01*
X07117Y037648D01*
Y037794D01*
X071171Y037788D01*
D02*
G37*
G36*
X071708Y037631D02*
X071703Y037622D01*
X071703Y037621D01*
X071701Y037618D01*
X071698Y037609D01*
X071696Y037602D01*
X071693Y037592D01*
X071691Y037577D01*
X071685Y037497D01*
X071685Y037472D01*
X071605Y037458D01*
X071603Y037502D01*
X0716Y037522D01*
X071597Y03754D01*
X071593Y037558D01*
X071588Y037573D01*
X071582Y037588D01*
X071575Y037601D01*
X071571Y037607D01*
X071565Y037614D01*
X071556Y037625D01*
X07159Y037628D01*
X071713Y03764D01*
X071708Y037631D01*
D02*
G37*
G36*
X071685Y037405D02*
X071686Y037392D01*
X071688Y037379D01*
X071691Y037369D01*
X071695Y03736D01*
X071699Y037353D01*
X071704Y037347D01*
X07171Y037343D01*
X071717Y03734D01*
X071724Y03734D01*
X071565D01*
X071572Y03734D01*
X071579Y037343D01*
X071585Y037347D01*
X07159Y037353D01*
X071595Y03736D01*
X071598Y037369D01*
X071601Y037379D01*
X071603Y037392D01*
X071604Y037405D01*
X071605Y037421D01*
X071685D01*
X071685Y037405D01*
D02*
G37*
G36*
X073538Y038262D02*
Y037947D01*
X072896Y037305D01*
X072386D01*
Y037442D01*
X07218D01*
Y03807D01*
X072349D01*
Y038127D01*
X072352Y038129D01*
X072355Y038133D01*
X07236Y038136D01*
X072366Y038145D01*
X073251D01*
X073305Y038156D01*
X073352Y038186D01*
X073459Y038294D01*
X073538Y038262D01*
D02*
G37*
G36*
X072285Y037235D02*
X072287Y037228D01*
X072291Y037222D01*
X072297Y037217D01*
X072304Y037213D01*
X072313Y037209D01*
X072323Y037206D01*
X072335Y037204D01*
X072349Y037203D01*
X072364Y037203D01*
Y037124D01*
X072349Y037124D01*
X072335Y037122D01*
X072323Y03712D01*
X072313Y037118D01*
X072304Y037114D01*
X072297Y03711D01*
X072291Y037105D01*
X072287Y037099D01*
X072285Y037092D01*
X072284Y037085D01*
Y037242D01*
X072285Y037235D01*
D02*
G37*
G36*
X079283Y040267D02*
X079283Y039527D01*
X079405Y039405D01*
X079405Y038732D01*
X079456Y038681D01*
X080558D01*
X080586Y038653D01*
Y038318D01*
X080511Y038244D01*
X079546D01*
X079479Y038177D01*
Y036822D01*
X079456Y036799D01*
X078227D01*
X078188Y036838D01*
Y037877D01*
X078227Y037917D01*
X078625D01*
X078668Y03796D01*
Y039267D01*
X078972Y03957D01*
X078972Y040291D01*
X079062Y040381D01*
X079168D01*
X079283Y040267D01*
D02*
G37*
G36*
X069689Y036373D02*
X069688Y036381D01*
X069686Y036388D01*
X069682Y036394D01*
X069677Y036399D01*
X06967Y036403D01*
X069661Y036407D01*
X069651Y036409D01*
X069639Y036411D01*
X069625Y036412D01*
X069611Y036413D01*
Y036492D01*
X069625Y036492D01*
X069639Y036493D01*
X069651Y036495D01*
X069661Y036498D01*
X06967Y036501D01*
X069677Y036506D01*
X069682Y036511D01*
X069686Y036517D01*
X069688Y036523D01*
X069689Y036531D01*
Y036373D01*
D02*
G37*
G36*
X070553Y036512D02*
X070555Y036505D01*
X070559Y036499D01*
X070565Y036494D01*
X070572Y03649D01*
X070581Y036486D01*
X070591Y036483D01*
X070603Y036481D01*
X070617Y03648D01*
X070632Y03648D01*
Y036401D01*
X070617Y036401D01*
X070603Y036399D01*
X070591Y036398D01*
X070581Y036395D01*
X070572Y036391D01*
X070565Y036387D01*
X070559Y036382D01*
X070555Y036376D01*
X070553Y036369D01*
X070552Y036362D01*
Y036519D01*
X070553Y036512D01*
D02*
G37*
G36*
X070521Y036023D02*
X070524Y036017D01*
X070527Y036011D01*
X070533Y036006D01*
X07054Y036001D01*
X070549Y035998D01*
X070559Y035995D01*
X070571Y035993D01*
X070585Y035992D01*
X0706Y035992D01*
Y035913D01*
X070585Y035912D01*
X070571Y035911D01*
X070559Y035909D01*
X070549Y035907D01*
X07054Y035903D01*
X070533Y035899D01*
X070527Y035894D01*
X070524Y035888D01*
X070521Y035881D01*
X07052Y035873D01*
Y036031D01*
X070521Y036023D01*
D02*
G37*
G36*
X069658Y035854D02*
X069657Y035861D01*
X069655Y035868D01*
X069651Y035874D01*
X069645Y035879D01*
X069638Y035883D01*
X069629Y035887D01*
X069619Y03589D01*
X069607Y035892D01*
X069594Y035893D01*
X069579Y035893D01*
Y035972D01*
X069594Y035972D01*
X069607Y035973D01*
X069619Y035975D01*
X069629Y035978D01*
X069638Y035982D01*
X069645Y035986D01*
X069651Y035991D01*
X069655Y035997D01*
X069657Y036004D01*
X069658Y036011D01*
Y035854D01*
D02*
G37*
G36*
X073477Y035641D02*
X07348Y035608D01*
X073482Y035594D01*
X073486Y035583D01*
X07349Y035574D01*
X073495Y035567D01*
X073501Y035561D01*
X073507Y035558D01*
X073515Y035557D01*
X073359D01*
X073366Y035558D01*
X073373Y035561D01*
X073379Y035567D01*
X073384Y035574D01*
X073388Y035583D01*
X073391Y035594D01*
X073394Y035608D01*
X073396Y035623D01*
X073397Y035641D01*
X073397Y03566D01*
X073476D01*
X073477Y035641D01*
D02*
G37*
G36*
X072977D02*
X07298Y035608D01*
X072982Y035594D01*
X072986Y035583D01*
X07299Y035574D01*
X072995Y035567D01*
X073001Y035561D01*
X073007Y035558D01*
X073015Y035557D01*
X072859D01*
X072866Y035558D01*
X072873Y035561D01*
X072879Y035567D01*
X072884Y035574D01*
X072888Y035583D01*
X072891Y035594D01*
X072894Y035608D01*
X072896Y035623D01*
X072897Y035641D01*
X072897Y03566D01*
X072976D01*
X072977Y035641D01*
D02*
G37*
G36*
X072477D02*
X07248Y035608D01*
X072482Y035594D01*
X072486Y035583D01*
X07249Y035574D01*
X072495Y035567D01*
X072501Y035561D01*
X072507Y035558D01*
X072515Y035557D01*
X072359D01*
X072366Y035558D01*
X072373Y035561D01*
X072379Y035567D01*
X072384Y035574D01*
X072388Y035583D01*
X072391Y035594D01*
X072394Y035608D01*
X072396Y035623D01*
X072397Y035641D01*
X072397Y03566D01*
X072476D01*
X072477Y035641D01*
D02*
G37*
G36*
X071977D02*
X07198Y035608D01*
X071982Y035594D01*
X071986Y035583D01*
X07199Y035574D01*
X071995Y035567D01*
X072001Y035561D01*
X072007Y035558D01*
X072015Y035557D01*
X071859D01*
X071866Y035558D01*
X071873Y035561D01*
X071879Y035567D01*
X071884Y035574D01*
X071888Y035583D01*
X071891Y035594D01*
X071894Y035608D01*
X071896Y035623D01*
X071897Y035641D01*
X071897Y03566D01*
X071976D01*
X071977Y035641D01*
D02*
G37*
G36*
X073977Y035641D02*
X07398Y035608D01*
X073983Y035594D01*
X073987Y035583D01*
X073991Y035573D01*
X073996Y035566D01*
X074002Y035561D01*
X074009Y035557D01*
X074016Y035556D01*
X073858D01*
X073865Y035557D01*
X073872Y035561D01*
X073878Y035566D01*
X073883Y035573D01*
X073887Y035583D01*
X073891Y035594D01*
X073893Y035608D01*
X073895Y035623D01*
X073896Y035641D01*
X073897Y035661D01*
X073977D01*
X073977Y035641D01*
D02*
G37*
G36*
X07146Y035645D02*
X071463Y035613D01*
X071466Y0356D01*
X071469Y03559D01*
X071474Y035581D01*
X071479Y035575D01*
X071484Y035571D01*
X071491Y035569D01*
X071498Y03557D01*
X071343Y035538D01*
X07135Y035541D01*
X071356Y035546D01*
X071362Y035552D01*
X071367Y035561D01*
X071371Y035571D01*
X071375Y035584D01*
X071377Y035598D01*
X071379Y035614D01*
X071381Y035633D01*
X071381Y035653D01*
X07146Y035665D01*
X07146Y035645D01*
D02*
G37*
G36*
X06981Y035369D02*
X069805Y035362D01*
X069801Y035356D01*
X069797Y035348D01*
X069794Y035341D01*
X069791Y035332D01*
X069789Y035324D01*
X069788Y035315D01*
X069787Y035306D01*
X069786Y035296D01*
X069708D01*
X069707Y035306D01*
X069707Y035315D01*
X069705Y035324D01*
X069703Y035332D01*
X0697Y035341D01*
X069697Y035348D01*
X069693Y035356D01*
X069689Y035362D01*
X069684Y035369D01*
X069678Y035375D01*
X069816D01*
X06981Y035369D01*
D02*
G37*
G36*
X069787Y035196D02*
X069788Y035183D01*
X06979Y035171D01*
X069793Y03516D01*
X069796Y035152D01*
X069801Y035145D01*
X069806Y035139D01*
X069812Y035135D01*
X069818Y035133D01*
X069826Y035132D01*
X069668D01*
X069676Y035133D01*
X069683Y035135D01*
X069688Y035139D01*
X069694Y035145D01*
X069698Y035152D01*
X069701Y03516D01*
X069704Y035171D01*
X069706Y035183D01*
X069707Y035196D01*
X069708Y035211D01*
X069786D01*
X069787Y035196D01*
D02*
G37*
G36*
X070333Y034907D02*
X070332Y034915D01*
X070328Y034921D01*
X070324Y034927D01*
X070317Y034932D01*
X070309Y034936D01*
X070299Y03494D01*
X070287Y034943D01*
X070274Y034945D01*
X070259Y034946D01*
X070242Y034946D01*
X07024Y035025D01*
X070256Y035025D01*
X07027Y035027D01*
X070282Y035028D01*
X070293Y035031D01*
X070302Y035035D01*
X070309Y035039D01*
X070314Y035044D01*
X070318Y03505D01*
X07032Y035057D01*
X07032Y035064D01*
X070333Y034907D01*
D02*
G37*
G36*
X069923Y035057D02*
X069925Y03505D01*
X069929Y035044D01*
X069935Y035039D01*
X069942Y035035D01*
X069951Y035031D01*
X069961Y035028D01*
X069973Y035027D01*
X069987Y035025D01*
X070002Y035025D01*
Y034946D01*
X069987Y034946D01*
X069973Y034945D01*
X069961Y034943D01*
X069951Y03494D01*
X069942Y034936D01*
X069935Y034932D01*
X069929Y034927D01*
X069925Y034921D01*
X069923Y034914D01*
X069922Y034907D01*
Y035064D01*
X069923Y035057D01*
D02*
G37*
G36*
X077729Y037862D02*
Y036718D01*
X077896Y036551D01*
X079707D01*
X079841Y036417D01*
Y034704D01*
X079679Y034543D01*
X078618D01*
X077873Y035287D01*
X076798D01*
X076562Y035523D01*
Y037858D01*
X076563Y037858D01*
X076735Y038031D01*
X077559D01*
X077729Y037862D01*
D02*
G37*
G36*
X081842Y036582D02*
Y033488D01*
X081763Y033409D01*
X081164D01*
X081074Y033499D01*
Y03433D01*
X080798Y034606D01*
Y036609D01*
X080906Y036717D01*
X081707D01*
X081842Y036582D01*
D02*
G37*
G36*
X066343Y032686D02*
X066344Y032672D01*
X066346Y03266D01*
X066349Y03265D01*
X066353Y032641D01*
X066357Y032634D01*
X066362Y032628D01*
X066368Y032624D01*
X066375Y032622D01*
X066382Y032621D01*
X066225D01*
X066232Y032622D01*
X066239Y032624D01*
X066245Y032628D01*
X06625Y032634D01*
X066254Y032641D01*
X066258Y03265D01*
X066261Y03266D01*
X066263Y032672D01*
X066264Y032686D01*
X066264Y032701D01*
X066343D01*
X066343Y032686D01*
D02*
G37*
G36*
X065253D02*
X065254Y032672D01*
X065256Y03266D01*
X065259Y03265D01*
X065262Y032641D01*
X065266Y032634D01*
X065272Y032628D01*
X065277Y032624D01*
X065284Y032622D01*
X065292Y032621D01*
X065134D01*
X065142Y032622D01*
X065148Y032624D01*
X065154Y032628D01*
X065159Y032634D01*
X065164Y032641D01*
X065167Y03265D01*
X06517Y03266D01*
X065172Y032672D01*
X065173Y032686D01*
X065174Y032701D01*
X065252D01*
X065253Y032686D01*
D02*
G37*
%LPC*%
G36*
X071375Y064666D02*
X07082D01*
Y064551D01*
X070596D01*
Y064666D01*
X070042D01*
Y064205D01*
X070023Y064133D01*
X070023Y06408D01*
Y063936D01*
X070614D01*
Y06408D01*
X070614Y064133D01*
X0706Y064188D01*
X070628Y064244D01*
X070652Y064267D01*
X070765D01*
X07082Y064211D01*
X07082Y064151D01*
X07082Y064073D01*
Y0636D01*
X070944D01*
Y06341D01*
X070942Y063409D01*
X070938Y063402D01*
X070917Y063381D01*
X070887Y063308D01*
Y063229D01*
X070917Y063156D01*
X070973Y063101D01*
X071046Y06307D01*
X071125D01*
X071198Y063101D01*
X071254Y063156D01*
X071284Y063229D01*
Y063308D01*
X071254Y063381D01*
X071233Y063402D01*
X071229Y063409D01*
X071228Y06341D01*
Y0636D01*
X071375D01*
Y064073D01*
X071375Y064115D01*
X071375Y064194D01*
Y064666D01*
D02*
G37*
G36*
X072937D02*
X072383D01*
Y064532D01*
X072158D01*
Y064666D01*
X071604D01*
Y064205D01*
X071586Y064133D01*
X071586Y06408D01*
Y063936D01*
X072176D01*
Y06408D01*
X072176Y064133D01*
X072167Y064168D01*
X072218Y064247D01*
X072327D01*
X072383Y064191D01*
Y064151D01*
X072383Y064073D01*
Y0636D01*
X072507D01*
Y063424D01*
X072406Y063324D01*
X072385D01*
X072312Y063294D01*
X072256Y063238D01*
X072226Y063165D01*
Y063086D01*
X072256Y063013D01*
X072312Y062957D01*
X072385Y062927D01*
X072464D01*
X072537Y062957D01*
X072592Y063013D01*
X072623Y063086D01*
Y063108D01*
X072768Y063253D01*
X072801Y063302D01*
X072813Y063361D01*
Y0636D01*
X072937D01*
Y064073D01*
X072937Y064115D01*
X072937Y064194D01*
Y064666D01*
D02*
G37*
G36*
X073739Y063779D02*
X073522D01*
Y063582D01*
X073739D01*
Y063779D01*
D02*
G37*
G36*
X073365D02*
X073148D01*
Y063582D01*
X073365D01*
Y063779D01*
D02*
G37*
G36*
X072176D02*
X07196D01*
Y063582D01*
X072176D01*
Y063779D01*
D02*
G37*
G36*
X071802D02*
X071586D01*
Y063582D01*
X071802D01*
Y063779D01*
D02*
G37*
G36*
X070614D02*
X070397D01*
Y063582D01*
X070614D01*
Y063779D01*
D02*
G37*
G36*
X07024D02*
X070023D01*
Y063582D01*
X07024D01*
Y063779D01*
D02*
G37*
G36*
X069051D02*
X068835D01*
Y063582D01*
X069051D01*
Y063779D01*
D02*
G37*
G36*
X068677D02*
X068461D01*
Y063582D01*
X068677D01*
Y063779D01*
D02*
G37*
G36*
X073721Y064666D02*
X073166D01*
Y064205D01*
X073148Y064133D01*
X073148Y06408D01*
Y063936D01*
X073739D01*
Y06408D01*
X073739Y064133D01*
X073724Y064192D01*
X073749Y064243D01*
X073776Y064271D01*
X073889D01*
X073945Y064215D01*
X073945Y064151D01*
X073945Y064073D01*
Y0636D01*
X074069D01*
Y063512D01*
X074059Y063502D01*
X074029Y063429D01*
Y06335D01*
X074059Y063277D01*
X074115Y063221D01*
X074188Y063191D01*
X074267D01*
X07434Y063221D01*
X074396Y063277D01*
X074426Y06335D01*
Y063429D01*
X074396Y063502D01*
X074376Y063522D01*
X074376Y0636D01*
X074499D01*
Y064073D01*
X074499Y064115D01*
X074499Y064194D01*
Y064666D01*
X073945D01*
Y064555D01*
X073721D01*
Y064666D01*
D02*
G37*
G36*
X069033D02*
X068479D01*
Y064205D01*
X068461Y064133D01*
X068461Y06408D01*
Y063936D01*
X069051D01*
Y06408D01*
X069051Y064133D01*
X069038Y064188D01*
X069066Y064244D01*
X069089Y064267D01*
X069202D01*
X069258Y064211D01*
X069258Y064151D01*
X069258Y064073D01*
Y0636D01*
X069393D01*
Y063202D01*
X069404Y063148D01*
X069434Y063102D01*
X069511Y063025D01*
X069557Y062994D01*
X069612Y062983D01*
X069779D01*
X06978Y062982D01*
X069787Y062978D01*
X069808Y062957D01*
X069881Y062927D01*
X06996D01*
X070033Y062957D01*
X070089Y063013D01*
X070119Y063086D01*
Y063165D01*
X070089Y063238D01*
X070033Y063294D01*
X06996Y063324D01*
X069881D01*
X069808Y063294D01*
X069787Y063273D01*
X06978Y063269D01*
X069779Y063268D01*
X069677D01*
Y0636D01*
X069812D01*
Y064073D01*
X069812Y064115D01*
X069812Y064194D01*
Y064666D01*
X069258D01*
Y064551D01*
X069033D01*
Y064666D01*
D02*
G37*
G36*
X062068Y064278D02*
X061917D01*
X061907Y064276D01*
X061897D01*
X061748Y064246D01*
X061739Y064242D01*
X061729Y06424D01*
X061589Y064183D01*
X061581Y064177D01*
X061572Y064173D01*
X061446Y064089D01*
X061439Y064082D01*
X061431Y064076D01*
X061324Y06397D01*
X061318Y063961D01*
X061311Y063954D01*
X061227Y063828D01*
X061223Y063819D01*
X061218Y063811D01*
X06116Y063671D01*
X061158Y063661D01*
X061154Y063652D01*
X061124Y063504D01*
Y063493D01*
X061122Y063484D01*
Y063332D01*
X061124Y063323D01*
Y063313D01*
X061154Y063164D01*
X061158Y063155D01*
X06116Y063145D01*
X061218Y063005D01*
X061223Y062997D01*
X061227Y062988D01*
X061311Y062862D01*
X061318Y062855D01*
X061324Y062847D01*
X061431Y06274D01*
X061439Y062734D01*
X061446Y062727D01*
X061572Y062643D01*
X061581Y062639D01*
X061589Y062633D01*
X061729Y062576D01*
X061739Y062574D01*
X061748Y06257D01*
X061897Y06254D01*
X061907D01*
X061917Y062538D01*
X062068D01*
X062078Y06254D01*
X062088D01*
X062236Y06257D01*
X062245Y062574D01*
X062255Y062576D01*
X062395Y062633D01*
X062403Y062639D01*
X062412Y062643D01*
X062538Y062727D01*
X062545Y062734D01*
X062554Y06274D01*
X062661Y062847D01*
X062666Y062855D01*
X062673Y062862D01*
X062757Y062988D01*
X062761Y062997D01*
X062767Y063005D01*
X062825Y063145D01*
X062827Y063155D01*
X06283Y063164D01*
X06286Y063313D01*
Y063323D01*
X062862Y063332D01*
Y063484D01*
X06286Y063493D01*
Y063504D01*
X06283Y063652D01*
X062827Y063661D01*
X062825Y063671D01*
X062767Y063811D01*
X062761Y063819D01*
X062757Y063828D01*
X062673Y063954D01*
X062666Y063961D01*
X062661Y06397D01*
X062554Y064076D01*
X062545Y064082D01*
X062538Y064089D01*
X062412Y064173D01*
X062403Y064177D01*
X062395Y064183D01*
X062255Y06424D01*
X062245Y064242D01*
X062236Y064246D01*
X062088Y064276D01*
X062078D01*
X062068Y064278D01*
D02*
G37*
G36*
X073361Y062263D02*
X073222D01*
Y062005D01*
X073361D01*
Y062263D01*
D02*
G37*
G36*
X073064D02*
X072924D01*
Y062005D01*
X073064D01*
Y062263D01*
D02*
G37*
G36*
X075112Y06231D02*
X075012D01*
X074901Y062295D01*
X074798Y062253D01*
X074709Y062184D01*
X074641Y062096D01*
X074598Y061992D01*
X074583Y061881D01*
X074598Y06177D01*
X074641Y061667D01*
X074709Y061578D01*
X074798Y06151D01*
X074901Y061467D01*
X075012Y061453D01*
X075112D01*
X075223Y061467D01*
X075326Y06151D01*
X075415Y061578D01*
X075483Y061667D01*
X075526Y06177D01*
X075541Y061881D01*
X075526Y061992D01*
X075483Y062096D01*
X075415Y062184D01*
X075326Y062253D01*
X075223Y062295D01*
X075112Y06231D01*
D02*
G37*
G36*
Y0613D02*
X075012D01*
X074901Y061285D01*
X074798Y061243D01*
X074709Y061174D01*
X074641Y061086D01*
X074598Y060982D01*
X074583Y060871D01*
X074598Y06076D01*
X074641Y060657D01*
X074709Y060568D01*
X074798Y0605D01*
X074901Y060457D01*
X075012Y060443D01*
X075112D01*
X075223Y060457D01*
X075326Y0605D01*
X075415Y060568D01*
X075483Y060657D01*
X075526Y06076D01*
X075541Y060871D01*
X075526Y060982D01*
X075483Y061086D01*
X075415Y061174D01*
X075326Y061243D01*
X075223Y061285D01*
X075112Y0613D01*
D02*
G37*
G36*
Y06032D02*
X075012D01*
X074901Y060305D01*
X074798Y060263D01*
X074709Y060194D01*
X074641Y060106D01*
X074598Y060002D01*
X074583Y059891D01*
X074598Y05978D01*
X074641Y059677D01*
X074709Y059588D01*
X074798Y05952D01*
X074901Y059477D01*
X075012Y059463D01*
X075112D01*
X075223Y059477D01*
X075326Y05952D01*
X075415Y059588D01*
X075483Y059677D01*
X075526Y05978D01*
X075541Y059891D01*
X075526Y060002D01*
X075483Y060106D01*
X075415Y060194D01*
X075326Y060263D01*
X075223Y060305D01*
X075112Y06032D01*
D02*
G37*
G36*
X071531Y062713D02*
X071476Y062702D01*
X07143Y062671D01*
X07113Y062372D01*
X071099Y062326D01*
X071089Y062271D01*
X071089Y062271D01*
Y059563D01*
X070836Y05931D01*
X070775D01*
X070775Y05931D01*
X070768Y059315D01*
X070747Y059335D01*
X070674Y059365D01*
X070595D01*
X070522Y059335D01*
X070467Y059279D01*
X070436Y059206D01*
Y059127D01*
X070467Y059054D01*
X070522Y058999D01*
X070595Y058968D01*
X070674D01*
X070747Y058999D01*
X070768Y059019D01*
X070775Y059023D01*
X070775Y059024D01*
X070895D01*
X070895Y059024D01*
X070949Y059035D01*
X070996Y059066D01*
X071332Y059402D01*
X071332Y059402D01*
X071363Y059449D01*
X071364Y059451D01*
X071442Y059443D01*
Y059443D01*
X071761D01*
X071794Y059364D01*
X071162Y058733D01*
X070689D01*
X070688Y058733D01*
X070681Y058738D01*
X070661Y058758D01*
X070588Y058788D01*
X070509D01*
X070436Y058758D01*
X07038Y058702D01*
X07035Y058629D01*
Y058551D01*
X07038Y058478D01*
X070436Y058422D01*
X070509Y058392D01*
X070588D01*
X070661Y058422D01*
X070681Y058442D01*
X070688Y058447D01*
X070689Y058447D01*
X071221D01*
X071222Y058447D01*
X071276Y058458D01*
X071322Y058489D01*
X071907Y059074D01*
X071986Y059041D01*
Y059023D01*
X072016Y05895D01*
X072072Y058894D01*
X072145Y058864D01*
X072224D01*
X072297Y058894D01*
X072317Y058915D01*
X072324Y058919D01*
X072325Y05892D01*
X072505D01*
X072505Y05892D01*
X07256Y058931D01*
X072606Y058962D01*
X07275Y059105D01*
X07275Y059105D01*
X072781Y059152D01*
X072791Y059206D01*
X072791Y059206D01*
Y059443D01*
X072843D01*
Y059978D01*
X072942D01*
Y059443D01*
X072942Y059443D01*
X072942D01*
X072936Y059367D01*
X072934Y059364D01*
Y059285D01*
X072965Y059212D01*
X073021Y059156D01*
X073093Y059126D01*
X073172D01*
X073245Y059156D01*
X073301Y059212D01*
X073331Y059285D01*
Y059364D01*
X073331Y059364D01*
X073343Y059443D01*
X073343D01*
X073343Y059443D01*
Y06008D01*
X073279D01*
Y060726D01*
X072393D01*
Y060962D01*
X073279D01*
Y06159D01*
X073361D01*
Y061848D01*
X073143D01*
X072924D01*
Y06171D01*
X072843D01*
Y062245D01*
X072442D01*
Y06171D01*
X072343D01*
Y062245D01*
X072286D01*
Y062389D01*
X072275Y062444D01*
X072244Y06249D01*
X072244Y06249D01*
X072063Y062671D01*
X072017Y062701D01*
X071962Y062712D01*
X071962Y062712D01*
X071534D01*
X071531Y062713D01*
D02*
G37*
G36*
X075595Y059364D02*
X07518D01*
Y058999D01*
X075595D01*
Y059364D01*
D02*
G37*
G36*
X074944D02*
X07453D01*
Y058999D01*
X074944D01*
Y059364D01*
D02*
G37*
G36*
X075595Y058763D02*
X07518D01*
Y058399D01*
X075595D01*
Y058763D01*
D02*
G37*
G36*
X074944D02*
X07453D01*
Y058399D01*
X074944D01*
Y058763D01*
D02*
G37*
G36*
X064809Y057283D02*
X064693D01*
X064579Y05726D01*
X064471Y057216D01*
X064375Y057151D01*
X064292Y057069D01*
X064228Y056972D01*
X064183Y056865D01*
X06416Y056751D01*
Y056634D01*
X064183Y05652D01*
X064228Y056413D01*
X064292Y056316D01*
X064375Y056234D01*
X064471Y056169D01*
X064579Y056125D01*
X064693Y056102D01*
X064809D01*
X064923Y056125D01*
X065031Y056169D01*
X065127Y056234D01*
X06521Y056316D01*
X065274Y056413D01*
X065319Y05652D01*
X065342Y056634D01*
Y056751D01*
X065319Y056865D01*
X065274Y056972D01*
X06521Y057069D01*
X065127Y057151D01*
X065031Y057216D01*
X064923Y05726D01*
X064809Y057283D01*
D02*
G37*
G36*
X063869Y051312D02*
X063783D01*
X063703Y05128D01*
X063642Y051219D01*
X063609Y051139D01*
Y051053D01*
X063642Y050973D01*
X063703Y050912D01*
X063783Y050879D01*
X063869D01*
X063948Y050912D01*
X064009Y050973D01*
X064042Y051053D01*
Y051139D01*
X064009Y051219D01*
X063948Y05128D01*
X063869Y051312D01*
D02*
G37*
G36*
X067285Y050909D02*
X067088D01*
Y050692D01*
X067285D01*
Y050909D01*
D02*
G37*
G36*
X068834Y050899D02*
X068638D01*
Y050683D01*
X068834D01*
Y050899D01*
D02*
G37*
G36*
X071026Y050854D02*
X07081D01*
Y050657D01*
X071026D01*
Y050854D01*
D02*
G37*
G36*
X070652D02*
X070436D01*
Y050657D01*
X070652D01*
Y050854D01*
D02*
G37*
G36*
X068834Y050525D02*
X068758D01*
Y050515D01*
X068757Y050523D01*
X068756Y050525D01*
X068638D01*
Y050309D01*
X068834D01*
Y050429D01*
X068834Y050429D01*
X068834D01*
Y050525D01*
D02*
G37*
G36*
X067285Y050535D02*
X067088D01*
Y050318D01*
X067285D01*
Y050535D01*
D02*
G37*
G36*
X074497Y050246D02*
X074281D01*
Y050049D01*
X074497D01*
Y050246D01*
D02*
G37*
G36*
X067659Y050236D02*
X067442D01*
Y050039D01*
X067659D01*
Y050236D01*
D02*
G37*
G36*
X073834Y050407D02*
X073755D01*
X073682Y050376D01*
X073661Y050356D01*
X073654Y050352D01*
X073653Y05035D01*
X072905D01*
X07285Y050339D01*
X072804Y050309D01*
X072682Y050187D01*
X072652Y050141D01*
X072641Y050087D01*
Y049861D01*
X072457D01*
Y049425D01*
X073109D01*
Y049861D01*
X072925D01*
Y050028D01*
X072963Y050066D01*
X073653D01*
X073654Y050065D01*
X073661Y05006D01*
X073682Y05004D01*
X073755Y05001D01*
X073834D01*
X073907Y05004D01*
X073963Y050096D01*
X073993Y050169D01*
Y050248D01*
X073963Y050321D01*
X073907Y050376D01*
X073834Y050407D01*
D02*
G37*
G36*
X07692Y052214D02*
X076003D01*
Y050281D01*
X076Y050257D01*
X075947Y050206D01*
X075933Y050206D01*
X075777D01*
Y050009D01*
X075993D01*
Y050108D01*
X075996Y050132D01*
X076049Y050183D01*
X076064Y050183D01*
X07692D01*
Y052214D01*
D02*
G37*
G36*
X069505Y051259D02*
X069419D01*
X069339Y051226D01*
X069278Y051165D01*
X069245Y051086D01*
Y051D01*
X069254Y050978D01*
X069202Y050899D01*
X068992D01*
Y050604D01*
Y050309D01*
X069285D01*
Y050059D01*
X069151D01*
Y049953D01*
X06874D01*
Y050156D01*
X068647D01*
Y05003D01*
X06866Y050029D01*
X0687Y050028D01*
Y04995D01*
X068685Y04995D01*
X068634Y049947D01*
X068628Y049945D01*
X068624Y049944D01*
X068622Y049943D01*
X068621Y049941D01*
Y049989D01*
X068489D01*
Y050156D01*
X068396D01*
Y050156D01*
X068337Y050166D01*
X068337Y050166D01*
X068321Y050166D01*
X068128D01*
Y050318D01*
X06819D01*
Y050909D01*
X068181D01*
X068128Y050988D01*
X068131Y050995D01*
Y051081D01*
X068098Y05116D01*
X068037Y051221D01*
X067958Y051254D01*
X067871D01*
X067792Y051221D01*
X067731Y05116D01*
X067698Y051081D01*
Y050995D01*
X067701Y050988D01*
X067648Y050909D01*
X067442D01*
Y050614D01*
Y050318D01*
X067807D01*
Y050089D01*
X067807Y050088D01*
X067804Y050083D01*
X0678Y050066D01*
X067795Y050049D01*
X067796Y050043D01*
X067794Y050037D01*
X067796Y049959D01*
X067796Y049959D01*
Y049871D01*
X067861D01*
X067906Y049841D01*
X067914Y049839D01*
X067915Y04984D01*
Y049839D01*
X067968Y049828D01*
Y049713D01*
X067796D01*
Y049713D01*
X067799Y049708D01*
X067809Y049697D01*
X067796D01*
Y049559D01*
X067659D01*
Y049685D01*
Y049728D01*
X06765Y049733D01*
X067636Y049739D01*
X067623Y049744D01*
X067609Y049748D01*
X067594Y049751D01*
X067579Y049752D01*
X067563Y049753D01*
X067658Y049832D01*
X067659Y049831D01*
Y049881D01*
X067363D01*
Y04996D01*
X067285D01*
Y050236D01*
X067068D01*
Y049918D01*
X067065Y049916D01*
X066989Y049894D01*
X066945Y049939D01*
X066865Y049972D01*
X066779D01*
X066699Y049939D01*
X066638Y049878D01*
X066605Y049798D01*
Y049712D01*
X066638Y049633D01*
X066699Y049572D01*
X066779Y049539D01*
X066779D01*
X066779Y049539D01*
X066781Y049537D01*
X067001Y049318D01*
X067001Y049318D01*
X067053Y049283D01*
X067068Y04928D01*
Y049133D01*
X067515D01*
Y048783D01*
X067515Y048783D01*
X067527Y048721D01*
X067562Y048669D01*
X067621Y04861D01*
X067621Y04861D01*
X067673Y048576D01*
X067734Y048563D01*
X067734Y048563D01*
X067875D01*
Y048429D01*
X068426D01*
Y048429D01*
X068444Y048447D01*
X068776D01*
X068788Y048437D01*
X070942Y046283D01*
X070988Y046252D01*
X071042Y046241D01*
X071795D01*
X071796Y04624D01*
X071803Y046236D01*
X071824Y046215D01*
X071897Y046185D01*
X071976D01*
X072048Y046215D01*
X072104Y046271D01*
X072134Y046344D01*
Y046423D01*
X072168Y046473D01*
X07228D01*
X072328Y046426D01*
X072401Y046396D01*
X072479D01*
X072552Y046426D01*
X072562Y046435D01*
X072641Y046403D01*
X072641Y046394D01*
X072641Y046394D01*
X072641Y046393D01*
Y046297D01*
X072907D01*
Y046454D01*
X072698D01*
X072692D01*
X072692D01*
X072682Y046454D01*
X072664Y046478D01*
X072627Y046527D01*
X072638Y046554D01*
Y046633D01*
X072616Y046687D01*
X072669Y046748D01*
X07267Y046748D01*
X07273Y046748D01*
X073312D01*
Y046915D01*
X073387Y046932D01*
X07339Y046932D01*
X073446Y046877D01*
X073487Y04686D01*
X073526Y046826D01*
X073545Y046774D01*
Y046374D01*
X073813D01*
X073866Y046295D01*
X073863Y046289D01*
Y046202D01*
X073896Y046123D01*
X073957Y046062D01*
X074037Y046029D01*
X074123D01*
X074202Y046062D01*
X074224Y046083D01*
X074226Y046085D01*
X074667D01*
X075026Y045726D01*
Y041291D01*
X075026Y041291D01*
X075038Y041229D01*
X075073Y041177D01*
X075468Y040781D01*
Y036905D01*
X075157D01*
Y03661D01*
X075078D01*
Y036531D01*
X074802D01*
Y036314D01*
X074849D01*
Y035864D01*
X074849Y035785D01*
X074849D01*
Y035785D01*
X074849D01*
Y035588D01*
X075145D01*
Y035509D01*
X075223D01*
Y035234D01*
X075342D01*
Y035234D01*
X07546D01*
Y032547D01*
X075475Y032471D01*
X075517Y032408D01*
X075951Y031974D01*
X075968Y031956D01*
X075987Y03191D01*
X076048Y031849D01*
X076095Y03183D01*
X076635Y031289D01*
X076699Y031247D01*
X076775Y031232D01*
X077229D01*
Y030753D01*
X077937D01*
Y031973D01*
X077229D01*
Y031625D01*
X076856D01*
X076374Y032108D01*
X076354Y032156D01*
X076293Y032217D01*
X076246Y032236D01*
X075853Y032628D01*
Y035234D01*
X075932D01*
Y035785D01*
Y036336D01*
X075905D01*
Y036905D01*
X07579D01*
Y037587D01*
X075868Y03764D01*
X075893Y037629D01*
X075979D01*
X076059Y037662D01*
X07612Y037723D01*
X076153Y037803D01*
Y037889D01*
X07612Y037969D01*
X076059Y038029D01*
X075979Y038062D01*
X075893D01*
X075868Y038052D01*
X07579Y038105D01*
Y039213D01*
X075847Y039252D01*
X075926D01*
X075999Y039282D01*
X076055Y039338D01*
X076085Y039411D01*
Y03949D01*
X076055Y039563D01*
X075999Y039618D01*
X075926Y039649D01*
X075847D01*
X07579Y039687D01*
Y040848D01*
X075777Y040909D01*
X075743Y040961D01*
X075743Y040961D01*
X075347Y041357D01*
Y041839D01*
X075425Y041871D01*
X075434Y041863D01*
X075434Y041863D01*
X075473Y041837D01*
X075473Y041837D01*
X075473Y041837D01*
X075519Y041828D01*
X075519Y041828D01*
X076327Y041828D01*
X076359Y041796D01*
X076359Y041464D01*
X076359Y041464D01*
X076368Y041418D01*
X076394Y041379D01*
X076394Y041379D01*
X076444Y041329D01*
Y04127D01*
X076539D01*
X076557Y041266D01*
X076557Y041266D01*
X077062D01*
X07708Y04127D01*
X077153D01*
Y041307D01*
X07722Y041374D01*
X077246Y041414D01*
X077255Y04146D01*
X077255Y04146D01*
X077255Y041619D01*
X077271Y041635D01*
X0786Y041635D01*
X078611Y041625D01*
X079015D01*
X079018Y041656D01*
X079019Y041688D01*
Y041688D01*
X079009Y04186D01*
X079007Y041872D01*
X079004Y041881D01*
X079231D01*
X079228Y041872D01*
X079226Y04186D01*
X079224Y041844D01*
X07922Y041805D01*
X079217Y041722D01*
X079216Y041683D01*
X079217Y041656D01*
X07922Y041625D01*
X080061D01*
X080115Y041687D01*
X080121Y04169D01*
X080203Y041706D01*
X080224Y04172D01*
X080229Y041722D01*
X080231Y041723D01*
X080233Y041724D01*
X080237Y041727D01*
X080239Y041728D01*
X080243Y04173D01*
X08025Y041732D01*
X08026Y041734D01*
X08027Y041736D01*
X080312Y041739D01*
X080579D01*
X080582Y041739D01*
Y041648D01*
X081136D01*
Y041739D01*
X08114Y041739D01*
X081219D01*
X081222Y041739D01*
Y041659D01*
X081222D01*
X081222Y041644D01*
X081222D01*
Y041182D01*
X081204Y041111D01*
X081204Y041058D01*
Y040914D01*
X081499D01*
X081794D01*
Y041058D01*
X081794Y041111D01*
X081776Y041182D01*
Y041644D01*
X081776D01*
X081776Y041659D01*
X081776D01*
Y042121D01*
X081794Y042193D01*
X081794Y042246D01*
Y042744D01*
X081228D01*
X081204Y042744D01*
X081204Y042744D01*
X081155Y042732D01*
Y042732D01*
X081011D01*
Y042844D01*
X080997Y042913D01*
X080958Y042972D01*
X079875Y044055D01*
Y046131D01*
X079875Y046131D01*
X079866Y046177D01*
X07984Y046217D01*
X079444Y046612D01*
X079405Y046638D01*
X079359Y046647D01*
X079359Y046647D01*
X078796D01*
X07875Y046638D01*
X078711Y046612D01*
X078664Y046565D01*
X078638Y046526D01*
X078629Y04648D01*
X078629Y04648D01*
Y04582D01*
X078562D01*
Y045525D01*
Y04523D01*
X078629D01*
Y044803D01*
X078467Y044642D01*
X07807D01*
Y044642D01*
X075353D01*
X075347Y044718D01*
Y045793D01*
X075347Y045793D01*
X075334Y045854D01*
X0753Y045906D01*
X0753Y045906D01*
X075077Y046129D01*
X075107Y046202D01*
X075288D01*
X075288Y046202D01*
X075335Y046211D01*
X075374Y046237D01*
X075374Y046237D01*
X075413Y046277D01*
X075439Y046316D01*
X075448Y046362D01*
X075448Y046362D01*
Y046497D01*
X075638Y046686D01*
X077136D01*
X077219Y046603D01*
Y046086D01*
X077228Y04604D01*
X077254Y046001D01*
X077254Y046001D01*
X077384Y045871D01*
Y045866D01*
X07739D01*
X077418Y045838D01*
X077457Y045811D01*
X077503Y045802D01*
X077503Y045802D01*
X078021D01*
X078067Y045811D01*
X078106Y045838D01*
X078106Y045838D01*
X078226Y045958D01*
X078252Y045997D01*
X078261Y046043D01*
X078261Y046043D01*
Y046912D01*
X078356Y047007D01*
X080133D01*
X080179Y047016D01*
X080218Y047042D01*
X080218Y047042D01*
X080986Y04781D01*
X081524D01*
X08157Y047819D01*
X081609Y047845D01*
X08172Y047956D01*
X08172Y047956D01*
X081746Y047995D01*
X081755Y048041D01*
X081755Y048041D01*
Y048435D01*
X081746Y048481D01*
X08172Y04852D01*
X08172Y04852D01*
X081659Y048581D01*
X08162Y048607D01*
X081574Y048616D01*
X081574Y048616D01*
X08047D01*
X08047Y048616D01*
X080423Y048607D01*
X080384Y048581D01*
X080384Y048581D01*
X080022Y048218D01*
X077472D01*
X077472Y048218D01*
X077425Y048209D01*
X077386Y048183D01*
X077386Y048183D01*
X077176Y047972D01*
X077176Y047972D01*
X077014Y047811D01*
X075551D01*
X07548Y047882D01*
Y04793D01*
X07548Y04793D01*
X075478Y047942D01*
X075523Y048012D01*
X075536Y048021D01*
X075641D01*
Y048218D01*
X075424D01*
Y048137D01*
X075346Y048109D01*
X075325Y048123D01*
X075279Y048132D01*
X075279Y048132D01*
X074905D01*
X074875Y048138D01*
X074829Y048128D01*
X07479Y048102D01*
X07479Y048102D01*
X074768Y048081D01*
X074742Y048042D01*
X074733Y047996D01*
X074733Y047996D01*
Y047385D01*
X074612D01*
Y047681D01*
X074609Y047696D01*
Y048066D01*
X074173D01*
Y047685D01*
X074133Y047663D01*
X074094Y047656D01*
X074057Y047692D01*
X074011Y047723D01*
X073957Y047734D01*
X073888D01*
Y047869D01*
X073416D01*
X073373Y047869D01*
X073295Y047869D01*
X072822D01*
Y047742D01*
X072672D01*
Y047877D01*
X07221D01*
X072139Y047895D01*
X072086Y047895D01*
X071942D01*
Y0476D01*
Y047305D01*
X072086D01*
X072139Y047305D01*
X07221Y047323D01*
X072672D01*
Y047458D01*
X072822D01*
Y047315D01*
X072918D01*
Y047184D01*
X072659D01*
Y046824D01*
X072659Y046767D01*
X07259Y046725D01*
X072552Y046762D01*
X072479Y046792D01*
X072401D01*
X072328Y046762D01*
X072325Y04676D01*
X072324Y04676D01*
X072322Y046759D01*
X072319Y046759D01*
X072316Y046758D01*
X072058D01*
X072048Y04676D01*
X071619D01*
X069608Y048771D01*
Y048974D01*
X069723D01*
Y049436D01*
X069741Y049507D01*
X069741D01*
X069741Y049507D01*
Y050059D01*
X069606D01*
Y050309D01*
X06974D01*
Y050899D01*
X069722D01*
X069669Y050978D01*
X069678Y051D01*
Y051086D01*
X069645Y051165D01*
X069584Y051226D01*
X069505Y051259D01*
D02*
G37*
G36*
X071026Y050499D02*
X070436D01*
Y050356D01*
X070436Y050303D01*
X070454Y050231D01*
Y04977D01*
X070454D01*
Y049726D01*
X070454D01*
Y049254D01*
X070454Y049211D01*
X070454D01*
Y049175D01*
X070454D01*
Y04866D01*
X070723D01*
Y048052D01*
X070722Y048051D01*
X070717Y048044D01*
X070697Y048023D01*
X070667Y04795D01*
Y047871D01*
X070697Y047799D01*
X070753Y047743D01*
X070826Y047712D01*
X070905D01*
X070978Y047743D01*
X071033Y047799D01*
X071064Y047871D01*
Y04795D01*
X071033Y048023D01*
X071013Y048044D01*
X071009Y048051D01*
X071007Y048052D01*
Y04866D01*
X071008D01*
Y048758D01*
X071009Y048761D01*
X071008Y048765D01*
Y04901D01*
X071052Y049034D01*
X071087Y049047D01*
X07116Y049017D01*
X071246D01*
X071325Y04905D01*
X071386Y049111D01*
X071419Y04919D01*
Y049276D01*
X071386Y049356D01*
X071325Y049417D01*
X071246Y04945D01*
X07116D01*
X071087Y04942D01*
X071052Y049433D01*
X071008Y049457D01*
Y049726D01*
X071008D01*
Y04977D01*
X071008D01*
Y049876D01*
X071571D01*
Y049799D01*
X072224D01*
Y050235D01*
X071571D01*
Y050162D01*
X071064D01*
X071023Y050203D01*
X071011Y050241D01*
X071026Y050303D01*
X071026Y050356D01*
Y050499D01*
D02*
G37*
G36*
X079693Y050436D02*
X078641D01*
Y050293D01*
X078614Y050229D01*
Y050143D01*
X07862Y050129D01*
X078567Y050051D01*
X078407D01*
Y049539D01*
X078643D01*
Y049783D01*
X079693D01*
Y050436D01*
D02*
G37*
G36*
X07817Y050051D02*
X077934D01*
Y049539D01*
X07817D01*
Y050051D01*
D02*
G37*
G36*
X072242Y049506D02*
X071976D01*
Y049348D01*
X072242D01*
Y049506D01*
D02*
G37*
G36*
X071818D02*
X071553D01*
Y049348D01*
X071818D01*
Y049506D01*
D02*
G37*
G36*
X072242Y049191D02*
X071976D01*
Y049033D01*
X072242D01*
Y049191D01*
D02*
G37*
G36*
X071818D02*
X071553D01*
Y049033D01*
X071818D01*
Y049191D01*
D02*
G37*
G36*
X078643Y049303D02*
X078407D01*
Y048791D01*
X078643D01*
Y049303D01*
D02*
G37*
G36*
X07817D02*
X077934D01*
Y048791D01*
X07817D01*
Y049303D01*
D02*
G37*
G36*
X072607Y048723D02*
X072529D01*
X072456Y048693D01*
X0724Y048637D01*
X072373Y048574D01*
X072316Y048598D01*
X072237D01*
X072164Y048567D01*
X072108Y048511D01*
X072085Y048455D01*
X072028Y048436D01*
X071999Y048434D01*
X07197Y048464D01*
X071897Y048494D01*
X071818D01*
X071745Y048464D01*
X071719Y048438D01*
X071668Y048417D01*
X071616Y048438D01*
X071591Y048464D01*
X071518Y048494D01*
X071439D01*
X071366Y048464D01*
X07131Y048408D01*
X07128Y048335D01*
Y048256D01*
X07131Y048184D01*
X071366Y048128D01*
X071439Y048097D01*
X071518D01*
X071591Y048128D01*
X071616Y048153D01*
X071668Y048175D01*
X071719Y048153D01*
X071745Y048128D01*
X071818Y048097D01*
X071897D01*
X07197Y048128D01*
X072026Y048184D01*
X072049Y04824D01*
X072106Y048259D01*
X072134Y048261D01*
X072164Y048231D01*
X072237Y048201D01*
X072316D01*
X072389Y048231D01*
X072445Y048287D01*
X072471Y04835D01*
X072529Y048327D01*
X072607D01*
X07268Y048357D01*
X072736Y048413D01*
X072766Y048486D01*
Y048565D01*
X072736Y048637D01*
X07268Y048693D01*
X072607Y048723D01*
D02*
G37*
G36*
X073274Y049145D02*
X073188D01*
X073109Y049112D01*
X073048Y049051D01*
X073023Y048992D01*
X073009D01*
X07293Y048959D01*
X072869Y048898D01*
X072836Y048818D01*
Y048732D01*
X072869Y048652D01*
X07293Y048591D01*
X073009Y048559D01*
X073095D01*
X073175Y048591D01*
X073236Y048652D01*
X07326Y048712D01*
X073274D01*
X073354Y048745D01*
X073415Y048806D01*
X073448Y048886D01*
Y048972D01*
X073415Y049051D01*
X073354Y049112D01*
X073274Y049145D01*
D02*
G37*
G36*
X074871Y050246D02*
X074655D01*
Y04997D01*
X074576D01*
Y049891D01*
X074281D01*
Y049694D01*
X074275Y049691D01*
X074275D01*
X074236Y049665D01*
X074236Y049665D01*
X074181Y04961D01*
X074155Y049571D01*
X074146Y049525D01*
X074146Y049525D01*
X074146Y048505D01*
X074146Y048505D01*
X074155Y048459D01*
X074181Y04842D01*
X074181Y04842D01*
X074296Y048305D01*
X074296Y048305D01*
X074335Y048279D01*
X074381Y04827D01*
X074381Y04827D01*
X074921D01*
X074968Y048279D01*
X074971Y048281D01*
X075001D01*
Y048301D01*
X075007Y048305D01*
X075201Y0485D01*
X075424D01*
Y048375D01*
X07572D01*
X076015D01*
Y0485D01*
X076531D01*
X076531Y0485D01*
X076578Y048509D01*
X076617Y048535D01*
X076757Y048675D01*
X076783Y048714D01*
X076792Y04876D01*
X076792Y04876D01*
Y04949D01*
X076783Y049536D01*
X076757Y049575D01*
X076757Y049575D01*
X076667Y049665D01*
X076628Y049691D01*
X076581Y049701D01*
X076581Y049701D01*
X075993D01*
Y049852D01*
X075698D01*
Y049931D01*
X075619D01*
Y050206D01*
X075432D01*
Y05022D01*
X075216D01*
Y049944D01*
X075058D01*
Y05022D01*
X074871D01*
Y050246D01*
D02*
G37*
G36*
X076015Y048218D02*
X075798D01*
Y048021D01*
X076015D01*
Y048218D01*
D02*
G37*
G36*
X071785Y047895D02*
X071588D01*
Y047679D01*
X071785D01*
Y047895D01*
D02*
G37*
G36*
Y047521D02*
X071588D01*
Y047305D01*
X071785D01*
Y047521D01*
D02*
G37*
G36*
X061854Y048157D02*
X061832Y048152D01*
X061811D01*
X06179Y048144D01*
X061769Y04814D01*
X061751Y048128D01*
X061731Y048119D01*
X061716Y048104D01*
X061697Y048092D01*
X061685Y048074D01*
X06167Y048058D01*
X061662Y048038D01*
X06165Y04802D01*
X061645Y047999D01*
X061637Y047979D01*
Y047957D01*
X061633Y047936D01*
X061637Y047914D01*
Y047893D01*
X061641Y047884D01*
Y047736D01*
X06164Y047727D01*
X061637Y047708D01*
X061566D01*
Y047594D01*
X061565Y047589D01*
X061566Y047583D01*
Y047574D01*
X061566Y047573D01*
X061566Y047573D01*
Y04721D01*
X061566Y047157D01*
X061575Y04712D01*
X061527Y047041D01*
X061418D01*
Y047313D01*
X060468D01*
Y046463D01*
X061418D01*
Y046735D01*
X061584D01*
Y046624D01*
X062138D01*
Y046728D01*
X067723D01*
X068781Y04567D01*
Y044111D01*
X068766Y044096D01*
X068736Y044023D01*
Y043944D01*
X068766Y043871D01*
X068822Y043816D01*
X068895Y043785D01*
X068974D01*
X069047Y043816D01*
X069102Y043871D01*
X069133Y043944D01*
Y044023D01*
X069102Y044096D01*
X069087Y044111D01*
Y045734D01*
X069075Y045792D01*
X069042Y045842D01*
X067895Y04699D01*
X067845Y047023D01*
X067786Y047034D01*
X062191D01*
X062145Y047113D01*
X062157Y047157D01*
X062157Y04721D01*
Y047573D01*
X062157Y047573D01*
X062157Y047574D01*
Y047583D01*
X062158Y047589D01*
X062157Y047594D01*
Y047708D01*
X062085D01*
X062082Y047742D01*
Y047928D01*
X062065Y048013D01*
X062041Y048048D01*
X062037Y048058D01*
X062029Y048066D01*
X062017Y048084D01*
X06201Y048092D01*
X061992Y048104D01*
X061976Y048119D01*
X061956Y048128D01*
X061938Y04814D01*
X061917Y048144D01*
X061897Y048152D01*
X061875D01*
X061854Y048157D01*
D02*
G37*
G36*
X073064Y046454D02*
Y046297D01*
X07333D01*
Y046454D01*
X073064D01*
D02*
G37*
G36*
X076941Y046581D02*
X076854D01*
X076775Y046548D01*
X076714Y046487D01*
X076681Y046407D01*
Y046321D01*
X076706Y046259D01*
X076686Y046213D01*
Y045708D01*
X077021D01*
Y046181D01*
X077021Y046181D01*
X077021D01*
X077073Y046234D01*
X077081Y046241D01*
X077114Y046321D01*
Y046407D01*
X077081Y046487D01*
X07702Y046548D01*
X076941Y046581D01*
D02*
G37*
G36*
X061062Y046356D02*
Y045996D01*
X061465D01*
X061464Y046004D01*
X061415Y046122D01*
X061338Y046222D01*
X061237Y0463D01*
X061119Y046348D01*
X061062Y046356D01*
D02*
G37*
G36*
X060825D02*
X060768Y046348D01*
X06065Y0463D01*
X060549Y046222D01*
X060472Y046122D01*
X060423Y046004D01*
X060422Y045996D01*
X060825D01*
Y046356D01*
D02*
G37*
G36*
X07333Y046139D02*
X073064D01*
Y045982D01*
X07333D01*
Y046139D01*
D02*
G37*
G36*
X072907D02*
X072641D01*
Y045982D01*
X072907D01*
Y046139D01*
D02*
G37*
G36*
X06656Y045947D02*
X066474D01*
X066395Y045914D01*
X066382Y045901D01*
X066369Y045914D01*
X066289Y045947D01*
X066203D01*
X066123Y045914D01*
X066062Y045853D01*
X066029Y045773D01*
Y045687D01*
X066062Y045608D01*
X066123Y045547D01*
X066203Y045514D01*
X066289D01*
X066369Y045547D01*
X066382Y04556D01*
X066395Y045547D01*
X066474Y045514D01*
X06656D01*
X06664Y045547D01*
X066701Y045608D01*
X066734Y045687D01*
Y045773D01*
X066701Y045853D01*
X06664Y045914D01*
X06656Y045947D01*
D02*
G37*
G36*
X066945Y046294D02*
X066859D01*
X06678Y046261D01*
X066719Y0462D01*
X066686Y046121D01*
Y046035D01*
X066719Y045955D01*
X06678Y045894D01*
X066859Y045861D01*
X066945D01*
X067025Y045894D01*
X067086Y045955D01*
X067119Y046035D01*
Y046121D01*
X067086Y0462D01*
X067025Y046261D01*
X066945Y046294D01*
D02*
G37*
G36*
X07645Y046181D02*
X076115D01*
Y045708D01*
X07645D01*
Y046181D01*
D02*
G37*
G36*
X078405Y04582D02*
X078208D01*
Y045604D01*
X078405D01*
Y04582D01*
D02*
G37*
G36*
X061465Y04576D02*
X061062D01*
Y045401D01*
X061119Y045408D01*
X061237Y045457D01*
X061338Y045534D01*
X061415Y045635D01*
X061464Y045752D01*
X061465Y04576D01*
D02*
G37*
G36*
X060825D02*
X060422D01*
X060423Y045752D01*
X060472Y045635D01*
X060549Y045534D01*
X06065Y045457D01*
X060768Y045408D01*
X060825Y045401D01*
Y04576D01*
D02*
G37*
G36*
X068442Y045809D02*
X068356D01*
X068276Y045776D01*
X068215Y045715D01*
X068182Y045635D01*
Y045549D01*
X068215Y045469D01*
X068276Y045408D01*
X068356Y045375D01*
X068442D01*
X068521Y045408D01*
X068582Y045469D01*
X068615Y045549D01*
Y045635D01*
X068582Y045715D01*
X068521Y045776D01*
X068442Y045809D01*
D02*
G37*
G36*
X078405Y045446D02*
X078208D01*
Y04523D01*
X078405D01*
Y045446D01*
D02*
G37*
G36*
X077021Y045472D02*
X076686D01*
Y044999D01*
X077021D01*
Y045472D01*
D02*
G37*
G36*
X07645D02*
X076115D01*
Y044999D01*
X07645D01*
Y045472D01*
D02*
G37*
G36*
X072802Y044616D02*
X072723D01*
X07265Y044586D01*
X072594Y04453D01*
X072564Y044457D01*
Y044399D01*
X072502Y044363D01*
X072491Y044361D01*
X072468Y044384D01*
X072395Y044414D01*
X072316D01*
X072243Y044384D01*
X072187Y044328D01*
X072157Y044255D01*
Y044177D01*
X072187Y044104D01*
X072243Y044048D01*
X072316Y044018D01*
X072395D01*
X072468Y044048D01*
X072524Y044104D01*
X072554Y044177D01*
Y044234D01*
X072616Y044271D01*
X072627Y044273D01*
X07265Y044249D01*
X072723Y044219D01*
X072802D01*
X072875Y044249D01*
X072931Y044305D01*
X072961Y044378D01*
Y044457D01*
X072931Y04453D01*
X072875Y044586D01*
X072802Y044616D01*
D02*
G37*
G36*
X081578Y044555D02*
X081066D01*
Y044318D01*
X081578D01*
Y044555D01*
D02*
G37*
G36*
X08083D02*
X080318D01*
Y044318D01*
X08083D01*
Y044555D01*
D02*
G37*
G36*
Y044082D02*
X080318D01*
Y043846D01*
X08083D01*
Y044082D01*
D02*
G37*
G36*
X081578D02*
X081066D01*
Y043846D01*
X081325D01*
X08135Y043767D01*
X081308Y043724D01*
X081275Y043645D01*
Y043559D01*
X081308Y043479D01*
X081369Y043418D01*
X081448Y043385D01*
X081534D01*
X081614Y043418D01*
X081675Y043479D01*
X081708Y043559D01*
Y043645D01*
X081675Y043724D01*
X081616Y043783D01*
X081603Y043805D01*
X081578Y043849D01*
X081578Y043886D01*
Y044082D01*
D02*
G37*
G36*
X070426Y043223D02*
X070347D01*
X070274Y043193D01*
X070219Y043137D01*
X070188Y043065D01*
Y042986D01*
X070219Y042913D01*
X070274Y042857D01*
X070347Y042827D01*
X070426D01*
X070499Y042857D01*
X070555Y042913D01*
X070585Y042986D01*
Y043065D01*
X070555Y043137D01*
X070499Y043193D01*
X070426Y043223D01*
D02*
G37*
G36*
X072168Y042622D02*
Y042405D01*
X072365D01*
Y042622D01*
X072168D01*
D02*
G37*
G36*
X069668Y042118D02*
X069196D01*
Y041839D01*
X069195Y041837D01*
X069196Y041831D01*
Y041758D01*
X069194Y041754D01*
X069178Y041731D01*
X069132Y041677D01*
X068992Y041537D01*
X06889D01*
X068877Y04154D01*
X068642D01*
X068586Y041594D01*
X068586Y041618D01*
Y041791D01*
X06829D01*
X067995D01*
Y041618D01*
X067995Y041594D01*
X067939Y04154D01*
X067594D01*
X067572Y041535D01*
X06755D01*
X06753Y041527D01*
X067509Y041523D01*
X067491Y041511D01*
X067471Y041502D01*
X067456Y041487D01*
X067437Y041475D01*
X067425Y041457D01*
X06741Y041442D01*
X067402Y041421D01*
X06739Y041403D01*
X067385Y041382D01*
X067377Y041362D01*
Y04134D01*
X067373Y041319D01*
X067377Y041298D01*
Y041276D01*
X067385Y041256D01*
X06739Y041234D01*
X067402Y041216D01*
X06741Y041196D01*
X067425Y041181D01*
X067437Y041163D01*
X067456Y041151D01*
X067471Y041135D01*
X067491Y041127D01*
X067509Y041115D01*
X06753Y041111D01*
X06755Y041102D01*
X067572D01*
X067594Y041098D01*
X068864D01*
X068877Y041096D01*
X069084D01*
X069168Y041112D01*
X06924Y04116D01*
X069437Y041357D01*
X06947Y041385D01*
X069488Y041398D01*
X069505Y041409D01*
X06952Y041418D01*
X069532Y041423D01*
X06954Y041426D01*
X069546Y041427D01*
X069558Y041428D01*
X069561Y041429D01*
X069668D01*
Y041535D01*
X069669Y041537D01*
X069668Y041543D01*
Y04155D01*
X069669Y041557D01*
X069668Y041559D01*
Y042118D01*
D02*
G37*
G36*
X07098Y041595D02*
X070763D01*
Y041398D01*
X07098D01*
Y041595D01*
D02*
G37*
G36*
X06833Y045156D02*
X068251D01*
X068178Y045126D01*
X068122Y04507D01*
X068092Y044997D01*
Y044918D01*
X068122Y044846D01*
X068143Y044825D01*
X068147Y044818D01*
X068148Y044817D01*
Y043265D01*
X068057D01*
X068057Y042739D01*
X068013Y042678D01*
X068013Y04265D01*
Y042216D01*
X067995Y042145D01*
X067995Y042092D01*
Y041948D01*
X06829D01*
X068586D01*
Y042092D01*
X068586Y042145D01*
X068572Y042199D01*
X068601Y042256D01*
X068623Y042278D01*
X068877D01*
X068877Y042278D01*
X070014D01*
X070037Y042255D01*
Y042099D01*
X069962D01*
Y041447D01*
X070389D01*
Y041398D01*
X070606D01*
Y041595D01*
X070398D01*
Y042099D01*
X070323D01*
Y042314D01*
X070323Y042314D01*
X070312Y042369D01*
X070281Y042415D01*
X070174Y042522D01*
X070128Y042553D01*
X070073Y042563D01*
X070073Y042563D01*
X06902D01*
Y04271D01*
X069123D01*
Y043265D01*
X06865D01*
X068608Y043265D01*
X068529Y043265D01*
X068433D01*
Y044817D01*
X068434Y044818D01*
X068438Y044825D01*
X068459Y044846D01*
X068489Y044918D01*
Y044997D01*
X068459Y04507D01*
X068403Y045126D01*
X06833Y045156D01*
D02*
G37*
G36*
X068101Y040893D02*
X067905D01*
Y040677D01*
X068101D01*
Y040893D01*
D02*
G37*
G36*
X081794Y040756D02*
X081578D01*
Y04056D01*
X081794D01*
Y040756D01*
D02*
G37*
G36*
X08142D02*
X081204D01*
Y04056D01*
X08142D01*
Y040756D01*
D02*
G37*
G36*
X077153Y040599D02*
X076877D01*
Y040362D01*
X077033D01*
Y040454D01*
X077034Y040443D01*
X077038Y040433D01*
X077044Y040424D01*
X077052Y040416D01*
X077063Y04041D01*
X077076Y040405D01*
X077091Y0404D01*
X077109Y040398D01*
X077129Y040396D01*
X077151Y040395D01*
Y040362D01*
X077153D01*
Y040599D01*
D02*
G37*
G36*
X07672D02*
X076444D01*
Y040362D01*
X076454D01*
Y040408D01*
X076475Y040409D01*
X076494Y04041D01*
X07651Y040413D01*
X076525Y040416D01*
X076537Y040421D01*
X076547Y040426D01*
X076555Y040433D01*
X07656Y04044D01*
X076563Y040449D01*
X076564Y040458D01*
Y040362D01*
X07672D01*
Y040599D01*
D02*
G37*
G36*
X08142Y040191D02*
Y039974D01*
X081617D01*
Y040191D01*
X08142D01*
D02*
G37*
G36*
X077153Y040205D02*
X076877D01*
Y039969D01*
X077153D01*
Y040205D01*
D02*
G37*
G36*
X07672D02*
X076444D01*
Y039969D01*
X07672D01*
Y040205D01*
D02*
G37*
G36*
X081617Y039817D02*
X08142D01*
Y0396D01*
X081617D01*
Y039817D01*
D02*
G37*
G36*
X081233Y039322D02*
X081036D01*
Y039106D01*
X081233D01*
Y039322D01*
D02*
G37*
G36*
X077936Y039375D02*
X07766D01*
Y038823D01*
X077936D01*
Y039375D01*
D02*
G37*
G36*
X081233Y038412D02*
X081036D01*
Y038195D01*
X081233D01*
Y038412D01*
D02*
G37*
G36*
X080677Y037991D02*
X080401D01*
Y03744D01*
X080677D01*
Y037991D01*
D02*
G37*
G36*
X075066Y035431D02*
X074849D01*
Y035234D01*
X075066D01*
Y035431D01*
D02*
G37*
G36*
X070042Y034346D02*
X069826D01*
Y034149D01*
X070042D01*
Y034346D01*
D02*
G37*
G36*
X069668D02*
X069452D01*
Y034149D01*
X069668D01*
Y034346D01*
D02*
G37*
G36*
X072775Y034344D02*
X072696D01*
X072623Y034313D01*
X072567Y034258D01*
X072537Y034185D01*
Y034106D01*
X072567Y034033D01*
X072623Y033977D01*
X072696Y033947D01*
X072775D01*
X072848Y033977D01*
X072863Y033992D01*
X073376D01*
X073409Y033913D01*
X073336Y033841D01*
X073306Y033795D01*
X073295Y03374D01*
Y033591D01*
X07328Y033581D01*
X073231Y033509D01*
X073227Y033487D01*
X073147D01*
X073142Y033509D01*
X073094Y033581D01*
X073022Y033629D01*
X072937Y033646D01*
X072852Y033629D01*
X07278Y033581D01*
X072731Y033509D01*
X072727Y033487D01*
X072647D01*
X072642Y033509D01*
X072594Y033581D01*
X072522Y033629D01*
X072437Y033646D01*
X072352Y033629D01*
X07228Y033581D01*
X072231Y033509D01*
X072227Y033487D01*
X072147D01*
X072142Y033509D01*
X072094Y033581D01*
X072022Y033629D01*
X071937Y033646D01*
X071852Y033629D01*
X07178Y033581D01*
X071731Y033509D01*
X071727Y033487D01*
X071647D01*
X071642Y033509D01*
X071594Y033581D01*
X071522Y033629D01*
X071437Y033646D01*
X071352Y033629D01*
X07128Y033581D01*
X071231Y033509D01*
X071227Y033487D01*
X071147D01*
X071142Y033509D01*
X071094Y033581D01*
X071043Y033615D01*
X071038Y033642D01*
X071007Y033688D01*
X07084Y033856D01*
X070794Y033887D01*
X070739Y033897D01*
X07006D01*
Y034035D01*
X069505D01*
Y033574D01*
X069487Y033502D01*
X069487Y033449D01*
Y032951D01*
X069589D01*
X069618Y032873D01*
X069618Y032873D01*
X069618Y032872D01*
X06959Y032804D01*
Y032718D01*
X069623Y032638D01*
X069683Y032578D01*
X069763Y032545D01*
X069849D01*
X069929Y032578D01*
X06999Y032638D01*
X070023Y032718D01*
Y032804D01*
X069994Y032872D01*
X070012Y032919D01*
X070034Y032951D01*
X070078D01*
Y033449D01*
X070078Y033502D01*
X07007Y033535D01*
X070121Y033613D01*
X070206D01*
X070248Y033535D01*
X070231Y033509D01*
X070214Y033424D01*
Y032912D01*
X070231Y032827D01*
X07028Y032755D01*
X070294Y032745D01*
X070295Y032742D01*
Y032533D01*
X070186D01*
Y031978D01*
X070395D01*
X070448Y031968D01*
X070501Y031978D01*
X070701Y031978D01*
X07078Y031978D01*
X070962D01*
X070995Y031972D01*
X071029Y031978D01*
X071253D01*
Y032428D01*
X071253Y032432D01*
X071253Y032436D01*
Y032469D01*
X071305Y032521D01*
X071383Y032489D01*
Y032002D01*
X071898D01*
Y032002D01*
X071934D01*
Y032002D01*
X072414D01*
X072457Y031988D01*
X072483Y031937D01*
Y031927D01*
Y031783D01*
X072779D01*
X073074D01*
Y031927D01*
X073074Y03198D01*
X073062Y032028D01*
X073129Y032069D01*
X073131D01*
X073203Y032043D01*
Y031931D01*
X073216Y031863D01*
X073255Y031805D01*
X073324Y031735D01*
X073352Y031703D01*
X073357Y031697D01*
Y030771D01*
X074029D01*
Y031645D01*
X074108Y031661D01*
X074118Y031635D01*
X074174Y031579D01*
X074247Y031549D01*
X074326D01*
X074399Y031579D01*
X074455Y031635D01*
X074459Y031645D01*
X074538Y03163D01*
Y030771D01*
X07521D01*
Y031955D01*
X075176D01*
X075146Y032028D01*
X07519Y032073D01*
X075223Y032122D01*
X075235Y032181D01*
Y033595D01*
X075223Y033653D01*
X07519Y033703D01*
X074639Y034253D01*
X07459Y034286D01*
X074531Y034298D01*
X072863D01*
X072848Y034313D01*
X072775Y034344D01*
D02*
G37*
G36*
X07766Y032653D02*
X077499D01*
Y032602D01*
X077712D01*
X07766Y032653D01*
D02*
G37*
G36*
X077263Y032622D02*
X077247Y032606D01*
X07722Y032602D01*
X077263D01*
Y032622D01*
D02*
G37*
G36*
X077626Y032519D02*
X07754D01*
X07746Y032486D01*
X077399Y032425D01*
X077366Y032345D01*
Y032259D01*
X077399Y03218D01*
X07746Y032119D01*
X07754Y032086D01*
X077626D01*
X077706Y032119D01*
X077766Y03218D01*
X077799Y032259D01*
Y032345D01*
X077766Y032425D01*
X077706Y032486D01*
X077626Y032519D01*
D02*
G37*
G36*
X079158Y032013D02*
X078882D01*
Y031481D01*
X079158D01*
Y032013D01*
D02*
G37*
G36*
X078646D02*
X07837D01*
Y031481D01*
X078646D01*
Y032013D01*
D02*
G37*
G36*
X073074Y031625D02*
X072857D01*
Y031429D01*
X073074D01*
Y031625D01*
D02*
G37*
G36*
X0727D02*
X072483D01*
Y031429D01*
X0727D01*
Y031625D01*
D02*
G37*
G36*
X079158Y031245D02*
X078882D01*
Y030714D01*
X079158D01*
Y031245D01*
D02*
G37*
G36*
X078646D02*
X07837D01*
Y030714D01*
X078646D01*
Y031245D01*
D02*
G37*
%LPD*%
G36*
X070923Y06433D02*
X070922Y064338D01*
X07092Y064344D01*
X070916Y06435D01*
X07091Y064355D01*
X070903Y06436D01*
X070894Y064363D01*
X070884Y064366D01*
X070872Y064368D01*
X070858Y064369D01*
X070843Y06437D01*
Y064448D01*
X070858Y064449D01*
X070872Y06445D01*
X070884Y064452D01*
X070894Y064455D01*
X070903Y064458D01*
X07091Y064462D01*
X070916Y064468D01*
X07092Y064473D01*
X070922Y06448D01*
X070923Y064488D01*
Y06433D01*
D02*
G37*
G36*
X070494Y06448D02*
X070497Y064473D01*
X070501Y064468D01*
X070506Y064462D01*
X070514Y064458D01*
X070522Y064455D01*
X070533Y064452D01*
X070545Y06445D01*
X070558Y064449D01*
X070573Y064448D01*
Y06437D01*
X070558Y064369D01*
X070545Y064368D01*
X070533Y064366D01*
X070522Y064363D01*
X070514Y06436D01*
X070506Y064355D01*
X070501Y06435D01*
X070497Y064344D01*
X070494Y064338D01*
X070494Y06433D01*
Y064488D01*
X070494Y06448D01*
D02*
G37*
G36*
X071157Y063701D02*
X07115Y063698D01*
X071144Y063694D01*
X071139Y063689D01*
X071135Y063682D01*
X071131Y063673D01*
X071129Y063663D01*
X071127Y063651D01*
X071125Y063638D01*
X071125Y063623D01*
X071046D01*
X071046Y063638D01*
X071045Y063651D01*
X071043Y063663D01*
X07104Y063673D01*
X071036Y063682D01*
X071032Y063689D01*
X071027Y063694D01*
X071021Y063698D01*
X071014Y063701D01*
X071007Y063701D01*
X071164D01*
X071157Y063701D01*
D02*
G37*
G36*
X071125Y063408D02*
X071126Y063399D01*
X071128Y06339D01*
X07113Y063382D01*
X071132Y063373D01*
X071136Y063366D01*
X07114Y063358D01*
X071144Y063352D01*
X071149Y063345D01*
X071155Y063339D01*
X071017D01*
X071022Y063345D01*
X071027Y063352D01*
X071032Y063358D01*
X071036Y063366D01*
X071039Y063373D01*
X071042Y063382D01*
X071044Y06339D01*
X071045Y063399D01*
X071046Y063408D01*
X071046Y063418D01*
X071125D01*
X071125Y063408D01*
D02*
G37*
G36*
X072485Y064309D02*
X072484Y064317D01*
X072482Y064324D01*
X072478Y06433D01*
X072472Y064335D01*
X072465Y064339D01*
X072456Y064343D01*
X072445Y064346D01*
X072433Y064348D01*
X072419Y064349D01*
X072404Y064349D01*
Y064429D01*
X072419Y06443D01*
X072433Y064431D01*
X072445Y064433D01*
X072456Y064436D01*
X072465Y064439D01*
X072472Y064444D01*
X072478Y064449D01*
X072482Y064455D01*
X072484Y064462D01*
X072485Y064469D01*
Y064309D01*
D02*
G37*
G36*
X072057Y064462D02*
X072059Y064455D01*
X072063Y064449D01*
X072069Y064444D01*
X072076Y064439D01*
X072085Y064436D01*
X072096Y064433D01*
X072108Y064431D01*
X072122Y06443D01*
X072137Y064429D01*
Y064349D01*
X072122Y064349D01*
X072108Y064348D01*
X072096Y064346D01*
X072085Y064343D01*
X072076Y064339D01*
X072069Y064335D01*
X072063Y06433D01*
X072059Y064324D01*
X072057Y064317D01*
X072056Y064309D01*
Y064469D01*
X072057Y064462D01*
D02*
G37*
G36*
X07275Y0637D02*
X072742Y063697D01*
X072734Y063692D01*
X072728Y063685D01*
X072722Y063676D01*
X072718Y063665D01*
X072714Y063652D01*
X072712Y063637D01*
X07271Y06362D01*
X07271Y063601D01*
X07261D01*
X072609Y06362D01*
X072608Y063637D01*
X072605Y063652D01*
X072602Y063665D01*
X072597Y063676D01*
X072592Y063685D01*
X072585Y063692D01*
X072578Y063697D01*
X072569Y0637D01*
X07256Y063701D01*
X07276D01*
X07275Y0637D01*
D02*
G37*
G36*
X072561Y063192D02*
X072554Y063184D01*
X072542Y06317D01*
X072536Y063163D01*
X072532Y063156D01*
X072529Y06315D01*
X072526Y063143D01*
X072524Y063138D01*
X072523Y063132D01*
X072523Y063126D01*
X072425Y063224D01*
X072431Y063224D01*
X072436Y063225D01*
X072442Y063227D01*
X072448Y06323D01*
X072455Y063233D01*
X072461Y063238D01*
X072468Y063243D01*
X072476Y063249D01*
X072491Y063263D01*
X072561Y063192D01*
D02*
G37*
G36*
X074048Y064334D02*
X074047Y064342D01*
X074044Y064348D01*
X07404Y064354D01*
X074035Y064359D01*
X074028Y064364D01*
X074019Y064367D01*
X074008Y06437D01*
X073996Y064372D01*
X073983Y064373D01*
X073968Y064373D01*
Y064452D01*
X073983Y064453D01*
X073996Y064454D01*
X074008Y064456D01*
X074019Y064459D01*
X074028Y064462D01*
X074035Y064466D01*
X07404Y064472D01*
X074044Y064477D01*
X074047Y064484D01*
X074048Y064492D01*
Y064334D01*
D02*
G37*
G36*
X073619Y064484D02*
X073622Y064477D01*
X073626Y064472D01*
X073631Y064466D01*
X073638Y064462D01*
X073647Y064459D01*
X073657Y064456D01*
X073669Y064454D01*
X073683Y064453D01*
X073698Y064452D01*
Y064373D01*
X073683Y064373D01*
X073669Y064372D01*
X073657Y06437D01*
X073647Y064367D01*
X073638Y064364D01*
X073631Y064359D01*
X073626Y064354D01*
X073622Y064348D01*
X073619Y064342D01*
X073618Y064334D01*
Y064492D01*
X073619Y064484D01*
D02*
G37*
G36*
X074313Y0637D02*
X074304Y063697D01*
X074297Y063692D01*
X07429Y063685D01*
X074285Y063676D01*
X07428Y063665D01*
X074277Y063652D01*
X074274Y063637D01*
X074273Y06362D01*
X074272Y063601D01*
X074172D01*
X074172Y06362D01*
X07417Y063637D01*
X074168Y063652D01*
X074164Y063665D01*
X07416Y063676D01*
X074154Y063685D01*
X074148Y063692D01*
X07414Y063697D01*
X074132Y0637D01*
X074122Y063701D01*
X074322D01*
X074313Y0637D01*
D02*
G37*
G36*
X074272Y063525D02*
X074274Y063506D01*
X074276Y063498D01*
X074277Y06349D01*
X07428Y063483D01*
X074282Y063477D01*
X074285Y063472D01*
X074289Y063467D01*
X074293Y063463D01*
X074155Y063456D01*
X074158Y06346D01*
X074161Y063465D01*
X074164Y06347D01*
X074166Y063477D01*
X074168Y063484D01*
X07417Y063492D01*
X074171Y0635D01*
X074172Y063519D01*
X074172Y06353D01*
X074272Y063536D01*
X074272Y063525D01*
D02*
G37*
G36*
X06936Y06433D02*
X069359Y064338D01*
X069357Y064344D01*
X069353Y06435D01*
X069347Y064355D01*
X06934Y06436D01*
X069331Y064363D01*
X069321Y064366D01*
X069309Y064368D01*
X069295Y064369D01*
X06928Y06437D01*
Y064448D01*
X069295Y064449D01*
X069309Y06445D01*
X069321Y064452D01*
X069331Y064455D01*
X06934Y064458D01*
X069347Y064462D01*
X069353Y064468D01*
X069357Y064473D01*
X069359Y06448D01*
X06936Y064488D01*
Y06433D01*
D02*
G37*
G36*
X068932Y06448D02*
X068934Y064473D01*
X068938Y064468D01*
X068944Y064462D01*
X068951Y064458D01*
X06896Y064455D01*
X06897Y064452D01*
X068982Y06445D01*
X068996Y064449D01*
X069011Y064448D01*
Y06437D01*
X068996Y064369D01*
X068982Y064368D01*
X06897Y064366D01*
X06896Y064363D01*
X068951Y06436D01*
X068944Y064355D01*
X068938Y06435D01*
X068934Y064344D01*
X068932Y064338D01*
X068931Y06433D01*
Y064488D01*
X068932Y06448D01*
D02*
G37*
G36*
X069606Y063701D02*
X069599Y063698D01*
X069594Y063694D01*
X069588Y063689D01*
X069584Y063682D01*
X069581Y063673D01*
X069578Y063663D01*
X069576Y063651D01*
X069575Y063638D01*
X069574Y063623D01*
X069496D01*
X069495Y063638D01*
X069494Y063651D01*
X069492Y063663D01*
X069489Y063673D01*
X069486Y063682D01*
X069481Y063689D01*
X069476Y063694D01*
X06947Y063698D01*
X069464Y063701D01*
X069456Y063701D01*
X069614D01*
X069606Y063701D01*
D02*
G37*
G36*
X06985Y063057D02*
X069844Y063062D01*
X069838Y063067D01*
X069831Y063072D01*
X069824Y063075D01*
X069816Y063079D01*
X069808Y063081D01*
X069799Y063083D01*
X06979Y063085D01*
X069781Y063086D01*
X069771Y063086D01*
Y063165D01*
X069781Y063165D01*
X06979Y063166D01*
X069799Y063167D01*
X069808Y06317D01*
X069816Y063172D01*
X069824Y063175D01*
X069831Y063179D01*
X069838Y063184D01*
X069844Y063189D01*
X06985Y063194D01*
Y063057D01*
D02*
G37*
G36*
X072183Y062209D02*
X072184Y062195D01*
X072186Y062183D01*
X072189Y062172D01*
X072193Y062163D01*
X072197Y062156D01*
X072202Y06215D01*
X072208Y062146D01*
X072215Y062144D01*
X072223Y062143D01*
X072063D01*
X07207Y062144D01*
X072077Y062146D01*
X072083Y06215D01*
X072088Y062156D01*
X072093Y062163D01*
X072096Y062172D01*
X072099Y062183D01*
X072101Y062195D01*
X072102Y062209D01*
X072103Y062224D01*
X072183D01*
X072183Y062209D01*
D02*
G37*
G36*
X072169Y059544D02*
X072164Y059542D01*
X072159Y059539D01*
X072155Y059533D01*
X072151Y059527D01*
X072149Y059519D01*
X072146Y059509D01*
X072145Y059498D01*
X072144Y059486D01*
X072143Y059472D01*
X072064D01*
X072063Y059486D01*
X072062Y059509D01*
X07206Y059518D01*
X072059Y059526D01*
X072056Y059533D01*
X072054Y059538D01*
X072051Y059541D01*
X072047Y059543D01*
X072044Y059544D01*
X072176Y059545D01*
X072169Y059544D01*
D02*
G37*
G36*
X072721Y059544D02*
X072714Y059542D01*
X072708Y059538D01*
X072703Y059532D01*
X072699Y059525D01*
X072695Y059516D01*
X072692Y059506D01*
X07269Y059493D01*
X072689Y05948D01*
X072689Y059464D01*
X072609D01*
X072608Y05948D01*
X072607Y059493D01*
X072605Y059506D01*
X072602Y059516D01*
X072599Y059525D01*
X072594Y059532D01*
X072589Y059538D01*
X072583Y059542D01*
X072576Y059544D01*
X072569Y059545D01*
X072729D01*
X072721Y059544D01*
D02*
G37*
G36*
X07321D02*
X073203Y059542D01*
X073197Y059538D01*
X073192Y059532D01*
X073188Y059525D01*
X073184Y059516D01*
X073181Y059506D01*
X073179Y059493D01*
X073178Y05948D01*
X073178Y059468D01*
X073178Y059461D01*
X073179Y059452D01*
X07318Y059443D01*
X073182Y059434D01*
X073185Y059426D01*
X073188Y059418D01*
X073191Y059411D01*
X073195Y059404D01*
X0732Y059397D01*
X073205Y059391D01*
X073068Y059398D01*
X073073Y059404D01*
X073079Y05941D01*
X073083Y059416D01*
X073087Y059423D01*
X07309Y059431D01*
X073093Y059439D01*
X073095Y059447D01*
X073097Y059456D01*
X073098Y059465D01*
X073098Y05947D01*
X073097Y05948D01*
X073096Y059493D01*
X073094Y059506D01*
X073091Y059516D01*
X073088Y059525D01*
X073084Y059532D01*
X073078Y059538D01*
X073072Y059542D01*
X073066Y059544D01*
X073058Y059545D01*
X073218D01*
X07321Y059544D01*
D02*
G37*
G36*
X070711Y05923D02*
X070717Y059225D01*
X070724Y059221D01*
X070731Y059217D01*
X070739Y059214D01*
X070747Y059211D01*
X070756Y059209D01*
X070765Y059208D01*
X070774Y059207D01*
X070784Y059207D01*
Y059127D01*
X070774Y059127D01*
X070765Y059126D01*
X070756Y059124D01*
X070747Y059122D01*
X070739Y05912D01*
X070731Y059116D01*
X070724Y059113D01*
X070717Y059108D01*
X070711Y059103D01*
X070705Y059098D01*
Y059236D01*
X070711Y05923D01*
D02*
G37*
G36*
X07226Y059126D02*
X072267Y059121D01*
X072273Y059117D01*
X072281Y059113D01*
X072288Y05911D01*
X072296Y059107D01*
X072305Y059105D01*
X072314Y059104D01*
X072323Y059103D01*
X072333Y059102D01*
Y059023D01*
X072323Y059022D01*
X072314Y059021D01*
X072305Y05902D01*
X072296Y059018D01*
X072288Y059015D01*
X072281Y059012D01*
X072273Y059008D01*
X072267Y059004D01*
X07226Y058999D01*
X072254Y058994D01*
Y059131D01*
X07226Y059126D01*
D02*
G37*
G36*
X070624Y058653D02*
X070631Y058649D01*
X070638Y058644D01*
X070645Y05864D01*
X070652Y058637D01*
X070661Y058635D01*
X070669Y058633D01*
X070678Y058631D01*
X070687Y05863D01*
X070697Y05863D01*
Y05855D01*
X070687Y05855D01*
X070678Y058549D01*
X070669Y058547D01*
X070661Y058545D01*
X070652Y058543D01*
X070645Y05854D01*
X070638Y058536D01*
X070631Y058532D01*
X070624Y058527D01*
X070619Y058521D01*
Y058659D01*
X070624Y058653D01*
D02*
G37*
G36*
X073724Y050139D02*
X073718Y050145D01*
X073712Y05015D01*
X073705Y050154D01*
X073698Y050158D01*
X07369Y050161D01*
X073682Y050164D01*
X073673Y050166D01*
X073664Y050168D01*
X073655Y050168D01*
X073645Y050169D01*
Y050248D01*
X073655Y050248D01*
X073664Y050249D01*
X073673Y05025D01*
X073682Y050252D01*
X07369Y050255D01*
X073698Y050258D01*
X073705Y050262D01*
X073712Y050266D01*
X073718Y050271D01*
X073724Y050277D01*
Y050139D01*
D02*
G37*
G36*
X072823Y049824D02*
X072824Y04981D01*
X072826Y049798D01*
X072829Y049788D01*
X072832Y049779D01*
X072836Y049772D01*
X072842Y049766D01*
X072848Y049762D01*
X072854Y04976D01*
X072862Y049759D01*
X072704D01*
X072712Y04976D01*
X072718Y049762D01*
X072724Y049766D01*
X072729Y049772D01*
X072734Y049779D01*
X072737Y049788D01*
X07274Y049798D01*
X072742Y04981D01*
X072743Y049824D01*
X072744Y049839D01*
X072822D01*
X072823Y049824D01*
D02*
G37*
G36*
X069527Y050968D02*
X069522Y050962D01*
X069518Y050955D01*
X069514Y050947D01*
X069511Y05094D01*
X069508Y050931D01*
X069506Y050923D01*
X069505Y050914D01*
X069504Y050904D01*
X069504Y050895D01*
X069425Y050892D01*
X069425Y050902D01*
X069424Y050912D01*
X069422Y050921D01*
X06942Y050929D01*
X069417Y050937D01*
X069414Y050945D01*
X06941Y050952D01*
X069406Y050959D01*
X0694Y050965D01*
X069395Y050971D01*
X069532Y050974D01*
X069527Y050968D01*
D02*
G37*
G36*
X067978Y050962D02*
X067973Y050955D01*
X067968Y050948D01*
X067964Y050941D01*
X067961Y050933D01*
X067959Y050925D01*
X067956Y050917D01*
X067955Y050908D01*
X067954Y050898D01*
X067954Y050889D01*
X067875D01*
X067875Y050898D01*
X067874Y050908D01*
X067872Y050917D01*
X06787Y050925D01*
X067868Y050933D01*
X067864Y050941D01*
X067861Y050948D01*
X067856Y050955D01*
X067851Y050962D01*
X067846Y050968D01*
X067983D01*
X067978Y050962D01*
D02*
G37*
G36*
X067954Y050853D02*
X067955Y05084D01*
X067957Y050828D01*
X06796Y050817D01*
X067964Y050808D01*
X067968Y050801D01*
X067973Y050796D01*
X067979Y050792D01*
X067986Y050789D01*
X067993Y050788D01*
X067836D01*
X067843Y050789D01*
X06785Y050792D01*
X067856Y050796D01*
X067861Y050801D01*
X067865Y050808D01*
X067869Y050817D01*
X067872Y050828D01*
X067873Y05084D01*
X067875Y050853D01*
X067875Y050868D01*
X067954D01*
X067954Y050853D01*
D02*
G37*
G36*
X069504Y050843D02*
X069505Y05083D01*
X069507Y050818D01*
X06951Y050807D01*
X069513Y050799D01*
X069518Y050791D01*
X069523Y050786D01*
X069529Y050782D01*
X069536Y050779D01*
X069543Y050779D01*
X069386D01*
X069393Y050779D01*
X0694Y050782D01*
X069406Y050786D01*
X069411Y050791D01*
X069415Y050799D01*
X069419Y050807D01*
X069421Y050818D01*
X069423Y05083D01*
X069425Y050843D01*
X069425Y050858D01*
X069504D01*
X069504Y050843D01*
D02*
G37*
G36*
X068039Y050438D02*
X068032Y050436D01*
X068026Y050432D01*
X068021Y050426D01*
X068017Y050419D01*
X068013Y05041D01*
X068011Y0504D01*
X068009Y050388D01*
X068008Y050374D01*
X068007Y050359D01*
X067928D01*
X067928Y050374D01*
X067927Y050388D01*
X067925Y0504D01*
X067922Y05041D01*
X067919Y050419D01*
X067914Y050426D01*
X067909Y050432D01*
X067903Y050436D01*
X067897Y050438D01*
X067889Y050439D01*
X068047D01*
X068039Y050438D01*
D02*
G37*
G36*
X069517Y050428D02*
X06951Y050426D01*
X069505Y050422D01*
X069499Y050416D01*
X069495Y050409D01*
X069492Y0504D01*
X069489Y05039D01*
X069487Y050378D01*
X069486Y050364D01*
X069485Y050349D01*
X069407D01*
X069406Y050364D01*
X069405Y050378D01*
X069403Y05039D01*
X0694Y0504D01*
X069397Y050409D01*
X069392Y050416D01*
X069387Y050422D01*
X069381Y050426D01*
X069375Y050428D01*
X069367Y050429D01*
X069525D01*
X069517Y050428D01*
D02*
G37*
G36*
X068209Y050111D02*
X068212Y050059D01*
X068213Y050054D01*
X068214Y05005D01*
X068216Y050048D01*
X068218Y050047D01*
X068122D01*
X068123Y050048D01*
X068125Y05005D01*
X068126Y050054D01*
X068127Y050059D01*
X068128Y050067D01*
X068129Y050085D01*
X06813Y050126D01*
X068209D01*
X068209Y050111D01*
D02*
G37*
G36*
X068007Y050101D02*
X068011Y050057D01*
X068012Y05005D01*
X068014Y050044D01*
X068016Y05004D01*
X068018Y050038D01*
X068021Y050037D01*
X067915D01*
X067917Y050038D01*
X06792Y05004D01*
X067922Y050044D01*
X067924Y05005D01*
X067925Y050057D01*
X067926Y050065D01*
X067928Y050087D01*
X067928Y050116D01*
X068007D01*
X068007Y050101D01*
D02*
G37*
G36*
X069486Y050003D02*
X069487Y04999D01*
X069489Y049978D01*
X069492Y049968D01*
X069495Y049959D01*
X069499Y049952D01*
X069505Y049946D01*
X06951Y049942D01*
X069517Y04994D01*
X069525Y049939D01*
X069367D01*
X069375Y04994D01*
X069381Y049942D01*
X069387Y049946D01*
X069392Y049952D01*
X069397Y049959D01*
X0694Y049968D01*
X069403Y049978D01*
X069405Y04999D01*
X069406Y050003D01*
X069407Y050018D01*
X069485D01*
X069486Y050003D01*
D02*
G37*
G36*
X068622Y049839D02*
X068624Y049837D01*
X068628Y049836D01*
X068634Y049835D01*
X068641Y049834D01*
X06866Y049832D01*
X0687Y049832D01*
Y049753D01*
X068685Y049753D01*
X068634Y04975D01*
X068628Y049749D01*
X068624Y049747D01*
X068622Y049746D01*
X068621Y049744D01*
Y04984D01*
X068622Y049839D01*
D02*
G37*
G36*
X069271Y049713D02*
X06927Y049721D01*
X069268Y049728D01*
X069264Y049734D01*
X069258Y049739D01*
X069251Y049743D01*
X069242Y049746D01*
X069232Y049749D01*
X06922Y049751D01*
X069206Y049752D01*
X069191Y049753D01*
Y049832D01*
X069206Y049832D01*
X06922Y049833D01*
X069232Y049835D01*
X069242Y049838D01*
X069251Y049841D01*
X069258Y049846D01*
X069264Y049851D01*
X069268Y049857D01*
X06927Y049863D01*
X069271Y049871D01*
Y049713D01*
D02*
G37*
G36*
X066916Y049724D02*
X066915Y049716D01*
X066916Y049709D01*
X066917Y049701D01*
X066919Y049694D01*
X066922Y049686D01*
X066927Y049679D01*
X066931Y049671D01*
X066937Y049664D01*
X066944Y049657D01*
X066874Y049616D01*
X066867Y049622D01*
X066853Y049634D01*
X066845Y049639D01*
X066838Y049644D01*
X066831Y049648D01*
X066823Y049652D01*
X066816Y049655D01*
X066808Y049657D01*
X0668Y049659D01*
X066917Y049732D01*
X066916Y049724D01*
D02*
G37*
G36*
X068622Y049642D02*
X068624Y04964D01*
X068628Y049639D01*
X068634Y049638D01*
X068641Y049637D01*
X06866Y049636D01*
X068701Y049635D01*
Y049555D01*
X068686Y049555D01*
X068628Y049551D01*
X068624Y04955D01*
X068622Y049549D01*
X068621Y049547D01*
Y049643D01*
X068622Y049642D01*
D02*
G37*
G36*
X067915Y049547D02*
X067914Y049549D01*
X067912Y04955D01*
X06791Y049552D01*
X067905Y049553D01*
X0679Y049554D01*
X067893Y049555D01*
X067877Y049556D01*
X067855Y049556D01*
Y049635D01*
X067867Y049635D01*
X0679Y049637D01*
X067905Y049638D01*
X06791Y049639D01*
X067912Y04964D01*
X067914Y049642D01*
X067915Y049643D01*
Y049547D01*
D02*
G37*
G36*
X067188Y049358D02*
X067188Y049364D01*
X067186Y04937D01*
X067182Y049375D01*
X067177Y04938D01*
X06717Y049383D01*
X067162Y049386D01*
X067152Y049389D01*
X067141Y049391D01*
X067128Y049392D01*
X067114Y049392D01*
Y049471D01*
X067128Y049471D01*
X067141Y049472D01*
X067152Y049474D01*
X067162Y049476D01*
X06717Y049479D01*
X067177Y049483D01*
X067182Y049487D01*
X067186Y049492D01*
X067188Y049498D01*
X067188Y049504D01*
Y049358D01*
D02*
G37*
G36*
X068622Y049445D02*
X068624Y049443D01*
X068628Y049442D01*
X068634Y049441D01*
X068641Y04944D01*
X06866Y049439D01*
X0687Y049438D01*
Y049359D01*
X068685Y049359D01*
X068634Y049356D01*
X068628Y049355D01*
X068624Y049354D01*
X068622Y049352D01*
X068621Y04935D01*
Y049446D01*
X068622Y049445D01*
D02*
G37*
G36*
X067915Y04935D02*
X067914Y049352D01*
X067912Y049354D01*
X067908Y049355D01*
X067902Y049356D01*
X067895Y049357D01*
X067876Y049358D01*
X067836Y049359D01*
Y049438D01*
X067851Y049438D01*
X067902Y049441D01*
X067908Y049442D01*
X067912Y049443D01*
X067914Y049445D01*
X067915Y049446D01*
Y04935D01*
D02*
G37*
G36*
X069282Y049453D02*
X069336Y049407D01*
X069351Y049398D01*
X069364Y04939D01*
X069376Y049386D01*
X069386Y049384D01*
X069395Y049385D01*
X069403Y049388D01*
X06927Y049295D01*
X069275Y0493D01*
X069278Y049307D01*
X069279Y049315D01*
X069277Y049324D01*
X069272Y049335D01*
X069266Y049347D01*
X069256Y04936D01*
X069244Y049375D01*
X069213Y049408D01*
X069261Y049473D01*
X069282Y049453D01*
D02*
G37*
G36*
X067539Y04947D02*
X067541Y049463D01*
X067545Y049457D01*
X067551Y049452D01*
X067558Y049448D01*
X067567Y049444D01*
X067577Y049441D01*
X067589Y049439D01*
X067603Y049438D01*
X067618Y049438D01*
Y0494D01*
X067675Y049438D01*
X067793Y049359D01*
X067779Y049358D01*
X067765Y049356D01*
X067753Y049352D01*
X067743Y049346D01*
X067734Y049339D01*
X067727Y049331D01*
X067722Y049321D01*
X067718Y049309D01*
X067716Y049295D01*
X067715Y04928D01*
X067636D01*
X067635Y049295D01*
X067633Y049309D01*
X067629Y049321D01*
X067623Y049331D01*
X067616Y049339D01*
X067608Y049346D01*
X067597Y049352D01*
X067586Y049356D01*
X067583Y049356D01*
X067577Y049356D01*
X067567Y049353D01*
X067558Y049349D01*
X067551Y049345D01*
X067545Y04934D01*
X067541Y049334D01*
X067539Y049327D01*
X067538Y04932D01*
Y049477D01*
X067539Y04947D01*
D02*
G37*
G36*
X068413Y04934D02*
X068411Y049338D01*
X06841Y049334D01*
X068409Y04933D01*
X068408Y049323D01*
X068407Y049307D01*
X068406Y049272D01*
X068327D01*
X068327Y049285D01*
X068324Y04933D01*
X068323Y049334D01*
X068322Y049338D01*
X06832Y04934D01*
X068318Y049341D01*
X068414D01*
X068413Y04934D01*
D02*
G37*
G36*
X068216Y04934D02*
X068214Y049337D01*
X068213Y049334D01*
X068212Y049328D01*
X068211Y049321D01*
X06821Y049302D01*
X068209Y049262D01*
X06813D01*
X06813Y049277D01*
X068127Y049328D01*
X068126Y049334D01*
X068125Y049337D01*
X068123Y04934D01*
X068122Y049341D01*
X068218D01*
X068216Y04934D01*
D02*
G37*
G36*
X069538Y049076D02*
X069531Y049073D01*
X069525Y049069D01*
X06952Y049064D01*
X069516Y049056D01*
X069512Y049047D01*
X069509Y049037D01*
X069507Y049025D01*
X069506Y049011D01*
X069506Y048996D01*
X069426D01*
X069425Y049011D01*
X069424Y049025D01*
X069422Y049037D01*
X069419Y049047D01*
X069416Y049056D01*
X069411Y049064D01*
X069406Y049069D01*
X0694Y049073D01*
X069393Y049076D01*
X069386Y049077D01*
X069546D01*
X069538Y049076D01*
D02*
G37*
G36*
X068705Y048959D02*
X068706Y048946D01*
X068708Y048935D01*
X06871Y048925D01*
X068713Y048917D01*
X068717Y048911D01*
X068721Y048905D01*
X068726Y048902D01*
X068732Y048899D01*
X068738Y048899D01*
X068592D01*
X068599Y048899D01*
X068604Y048902D01*
X068609Y048905D01*
X068614Y048911D01*
X068617Y048917D01*
X068621Y048925D01*
X068623Y048935D01*
X068625Y048946D01*
X068626Y048959D01*
X068626Y048973D01*
X068705D01*
X068705Y048959D01*
D02*
G37*
G36*
X068209Y048963D02*
X068211Y04895D01*
X068212Y048938D01*
X068215Y048927D01*
X068219Y048919D01*
X068223Y048911D01*
X068228Y048906D01*
X068234Y048902D01*
X068241Y048899D01*
X068248Y048899D01*
X068091D01*
X068098Y048899D01*
X068105Y048902D01*
X068111Y048906D01*
X068116Y048911D01*
X06812Y048919D01*
X068124Y048927D01*
X068127Y048938D01*
X068129Y04895D01*
X06813Y048963D01*
X06813Y048979D01*
X068209D01*
X068209Y048963D01*
D02*
G37*
G36*
X067994Y048645D02*
X067994Y048653D01*
X067991Y048659D01*
X067987Y048665D01*
X067982Y04867D01*
X067975Y048675D01*
X067966Y048678D01*
X067956Y048681D01*
X067944Y048683D01*
X067931Y048684D01*
X067916Y048685D01*
Y048763D01*
X067931Y048764D01*
X067944Y048765D01*
X067956Y048767D01*
X067966Y04877D01*
X067975Y048773D01*
X067982Y048777D01*
X067987Y048783D01*
X067991Y048788D01*
X067994Y048795D01*
X067994Y048803D01*
Y048645D01*
D02*
G37*
G36*
X068853Y048672D02*
X068852Y048664D01*
X068853Y048655D01*
X068855Y048646D01*
X06886Y048635D01*
X068867Y048623D01*
X068875Y048611D01*
X068886Y048597D01*
X068914Y048568D01*
X068878Y048492D01*
X068861Y048509D01*
X06883Y048535D01*
X068817Y048544D01*
X068805Y048551D01*
X068795Y048555D01*
X068786Y048557D01*
X068778Y048557D01*
X068772Y048554D01*
X068766Y048549D01*
X068857Y048679D01*
X068853Y048672D01*
D02*
G37*
G36*
X081635Y048435D02*
Y048041D01*
X081524Y04793D01*
X080936D01*
X080133Y047127D01*
X078306D01*
X078141Y046962D01*
Y046043D01*
X078021Y045923D01*
X077503D01*
X07734Y046086D01*
Y046653D01*
X077186Y046807D01*
X075588D01*
X075328Y046547D01*
Y046362D01*
X075288Y046322D01*
X074903D01*
X074853Y046372D01*
Y047996D01*
X074875Y048017D01*
X074881Y048011D01*
X075279D01*
X07536Y04793D01*
Y047832D01*
X075501Y04769D01*
X077064D01*
X077261Y047887D01*
X077472Y048098D01*
X080072D01*
X08047Y048496D01*
X081574D01*
X081635Y048435D01*
D02*
G37*
G36*
X072925Y047521D02*
X072924Y047529D01*
X072922Y047535D01*
X072918Y047541D01*
X072912Y047546D01*
X072905Y047551D01*
X072896Y047554D01*
X072886Y047557D01*
X072874Y047559D01*
X07286Y04756D01*
X072845Y047561D01*
Y047639D01*
X07286Y04764D01*
X072874Y047641D01*
X072886Y047643D01*
X072896Y047646D01*
X072905Y047649D01*
X072912Y047653D01*
X072918Y047659D01*
X072922Y047664D01*
X072924Y047671D01*
X072925Y047679D01*
Y047521D01*
D02*
G37*
G36*
X07257Y047671D02*
X072573Y047664D01*
X072577Y047659D01*
X072582Y047653D01*
X072589Y047649D01*
X072598Y047646D01*
X072609Y047643D01*
X072621Y047641D01*
X072634Y04764D01*
X072649Y047639D01*
Y047561D01*
X072634Y04756D01*
X072621Y047559D01*
X072609Y047557D01*
X072598Y047554D01*
X072589Y047551D01*
X072582Y047546D01*
X072577Y047541D01*
X072573Y047535D01*
X07257Y047529D01*
X072569Y047521D01*
Y047679D01*
X07257Y047671D01*
D02*
G37*
G36*
X073788Y047663D02*
X07379Y047657D01*
X073794Y047651D01*
X0738Y047646D01*
X073807Y047641D01*
X073816Y047638D01*
X073826Y047635D01*
X073838Y047633D01*
X073851Y047632D01*
X073866Y047631D01*
Y047553D01*
X073851Y047552D01*
X073838Y047551D01*
X073826Y047549D01*
X073816Y047546D01*
X073807Y047543D01*
X0738Y047538D01*
X073794Y047533D01*
X07379Y047527D01*
X073788Y047521D01*
X073787Y047513D01*
Y047671D01*
X073788Y047663D01*
D02*
G37*
G36*
X074043Y047489D02*
X074044Y04748D01*
X074045Y047471D01*
X074047Y047462D01*
X07405Y047454D01*
X074053Y047447D01*
X074057Y047439D01*
X074061Y047433D01*
X074066Y047426D01*
X074072Y04742D01*
X073934D01*
X07394Y047426D01*
X073945Y047433D01*
X073949Y047439D01*
X073953Y047447D01*
X073956Y047454D01*
X073959Y047462D01*
X073961Y047471D01*
X073962Y04748D01*
X073963Y047489D01*
X073964Y047499D01*
X074042D01*
X074043Y047489D01*
D02*
G37*
G36*
X073131Y047416D02*
X073125Y047414D01*
X073119Y04741D01*
X073114Y047404D01*
X073109Y047397D01*
X073106Y047388D01*
X073103Y047378D01*
X073101Y047366D01*
X0731Y047352D01*
X073099Y047337D01*
X073021D01*
X07302Y047352D01*
X073019Y047366D01*
X073017Y047378D01*
X073014Y047388D01*
X073011Y047397D01*
X073007Y047404D01*
X073001Y04741D01*
X072996Y047414D01*
X072989Y047416D01*
X072981Y047417D01*
X073139D01*
X073131Y047416D01*
D02*
G37*
G36*
X074508Y047514D02*
X074508Y047513D01*
X074508Y04751D01*
X074509Y047402D01*
X074509D01*
X07451Y047379D01*
X074511Y047359D01*
X074514Y047341D01*
X074518Y047326D01*
X074524Y047313D01*
X07453Y047302D01*
X074538Y047293D01*
X074547Y047287D01*
X074557Y047284D01*
X074568Y047283D01*
X074386Y047284D01*
X074387Y047285D01*
X074388Y047288D01*
X074388Y047294D01*
X07439Y047313D01*
X074391Y047398D01*
X07439Y047419D01*
X074388Y047439D01*
X074385Y047457D01*
X074381Y047473D01*
X074376Y047486D01*
X07437Y047496D01*
X074362Y047505D01*
X074353Y047511D01*
X074343Y047514D01*
X074332Y047516D01*
X074508Y047514D01*
D02*
G37*
G36*
X0731Y047146D02*
X073101Y047133D01*
X073103Y047121D01*
X073106Y047111D01*
X073109Y047102D01*
X073114Y047095D01*
X073119Y047089D01*
X073125Y047085D01*
X073131Y047083D01*
X073139Y047082D01*
X072981D01*
X072989Y047083D01*
X072996Y047085D01*
X073001Y047089D01*
X073007Y047095D01*
X073011Y047102D01*
X073014Y047111D01*
X073017Y047121D01*
X073019Y047133D01*
X07302Y047146D01*
X073021Y047162D01*
X073099D01*
X0731Y047146D01*
D02*
G37*
G36*
X074664Y046932D02*
X074654Y046928D01*
X074645Y046922D01*
X074637Y046914D01*
X074631Y046903D01*
X074626Y04689D01*
X074622Y046875D01*
X074619Y046857D01*
X074617Y046844D01*
X074619Y046831D01*
X074622Y046813D01*
X074626Y046798D01*
X074631Y046785D01*
X074637Y046774D01*
X074645Y046766D01*
X074654Y04676D01*
X074664Y046756D01*
X074675Y046755D01*
X074439D01*
X07445Y046756D01*
X07446Y04676D01*
X074469Y046766D01*
X074477Y046774D01*
X074483Y046785D01*
X074489Y046798D01*
X074493Y046813D01*
X074496Y046831D01*
X074497Y046844D01*
X074496Y046857D01*
X074493Y046875D01*
X074489Y04689D01*
X074483Y046903D01*
X074477Y046914D01*
X074469Y046922D01*
X07446Y046928D01*
X07445Y046932D01*
X074439Y046933D01*
X074675D01*
X074664Y046932D01*
D02*
G37*
G36*
X072356Y046542D02*
X072352Y046549D01*
X072347Y046554D01*
X072341Y046559D01*
X072335Y046564D01*
X072328Y046567D01*
X07232Y04657D01*
X072312Y046573D01*
X072304Y046574D01*
X072294Y046575D01*
X072284Y046576D01*
X072304Y046656D01*
X072314Y046656D01*
X072333Y046657D01*
X072341Y046659D01*
X07235Y046661D01*
X072358Y046663D01*
X072365Y046666D01*
X072373Y046669D01*
X07238Y046673D01*
X072387Y046677D01*
X072356Y046542D01*
D02*
G37*
G36*
X069155Y049321D02*
X069167Y049308D01*
X069169Y049306D01*
Y049299D01*
X069168Y049295D01*
X069169Y049291D01*
Y048974D01*
X069323D01*
Y048712D01*
X069323Y048712D01*
X069334Y048657D01*
X069365Y048611D01*
X071378Y046598D01*
X071348Y046525D01*
X071101D01*
X068973Y048653D01*
X068963Y048664D01*
X068959Y048669D01*
Y049001D01*
X068802D01*
X068797Y049027D01*
X068766Y049074D01*
X068681Y049158D01*
X068711Y049231D01*
X06874D01*
Y049453D01*
X069023D01*
X069155Y049321D01*
D02*
G37*
G36*
X074097Y046698D02*
X074101Y046688D01*
X074107Y046679D01*
X074115Y046672D01*
X074126Y046666D01*
X074139Y04666D01*
X074154Y046656D01*
X074172Y046653D01*
X074192Y046652D01*
X074214Y046651D01*
Y046533D01*
X074192Y046532D01*
X074172Y046531D01*
X074154Y046528D01*
X074139Y046524D01*
X074126Y046518D01*
X074115Y046512D01*
X074107Y046505D01*
X074101Y046496D01*
X074097Y046486D01*
X074096Y046475D01*
Y046709D01*
X074097Y046698D01*
D02*
G37*
G36*
X074386Y046474D02*
X074385Y046485D01*
X074381Y046495D01*
X074375Y046504D01*
X074367Y046512D01*
X074357Y046518D01*
X074344Y046523D01*
X074328Y046528D01*
X074311Y046531D01*
X07429Y046532D01*
X074268Y046533D01*
Y046651D01*
X07429Y046652D01*
X074311Y046653D01*
X074328Y046656D01*
X074344Y04666D01*
X074357Y046666D01*
X074367Y046672D01*
X074375Y04668D01*
X074381Y046689D01*
X074385Y046699D01*
X074386Y04671D01*
Y046474D01*
D02*
G37*
G36*
X071866Y046314D02*
X07186Y04632D01*
X071853Y046325D01*
X071846Y046329D01*
X071839Y046333D01*
X071832Y046337D01*
X071823Y046339D01*
X071815Y046341D01*
X071806Y046343D01*
X071797Y046344D01*
X071787Y046344D01*
Y046423D01*
X071797Y046423D01*
X071806Y046424D01*
X071815Y046425D01*
X071823Y046427D01*
X071832Y04643D01*
X071839Y046433D01*
X071846Y046437D01*
X071853Y046442D01*
X07186Y046447D01*
X071866Y046452D01*
Y046314D01*
D02*
G37*
G36*
X074156Y046309D02*
X074162Y046304D01*
X074169Y046299D01*
X074177Y046296D01*
X074184Y046292D01*
X074192Y04629D01*
X074201Y046288D01*
X07421Y046286D01*
X074219Y046285D01*
X074229Y046285D01*
Y046206D01*
X074219Y046206D01*
X07421Y046205D01*
X074201Y046204D01*
X074192Y046201D01*
X074184Y046199D01*
X074177Y046196D01*
X074169Y046192D01*
X074162Y046187D01*
X074156Y046182D01*
X07415Y046177D01*
Y046314D01*
X074156Y046309D01*
D02*
G37*
G36*
X079755Y046131D02*
Y043911D01*
X079521Y043677D01*
X077643D01*
Y044521D01*
X078517D01*
X078749Y044753D01*
Y04648D01*
X078796Y046527D01*
X079359D01*
X079755Y046131D01*
D02*
G37*
G36*
X080028Y043391D02*
X080003Y043312D01*
X079934Y043283D01*
X079846D01*
X079781Y043271D01*
X079725Y043234D01*
X079497Y043006D01*
X079461Y042951D01*
X079448Y042886D01*
Y042711D01*
X079447Y042703D01*
X079432Y042689D01*
X079386Y042661D01*
X079373Y042658D01*
X079369Y042657D01*
X079358Y042661D01*
X079314Y042718D01*
X079256Y042762D01*
X079236Y042771D01*
Y042216D01*
X078999D01*
Y042771D01*
X078979Y042762D01*
X078921Y042718D01*
X07891Y042704D01*
X078885Y042696D01*
X078812Y042701D01*
X078472Y043041D01*
X078472Y043041D01*
X078448Y043058D01*
X078433Y043067D01*
X078387Y043077D01*
X078387Y043151D01*
X078387Y043556D01*
X079521D01*
X079521Y043556D01*
X079567Y043565D01*
X079606Y043591D01*
X079717Y043702D01*
X080028Y043391D01*
D02*
G37*
G36*
X079972Y043045D02*
X079971Y043045D01*
X079969Y043046D01*
X079966Y043046D01*
X079949Y043047D01*
X079911Y043047D01*
Y04318D01*
X079972Y043183D01*
Y043045D01*
D02*
G37*
G36*
X08089Y042708D02*
X080892Y042688D01*
X080895Y04267D01*
X080899Y042655D01*
X080904Y042642D01*
X080911Y042631D01*
X080918Y042623D01*
X080927Y042617D01*
X080937Y042614D01*
X080948Y042612D01*
X080712D01*
X080723Y042614D01*
X080733Y042617D01*
X080742Y042623D01*
X08075Y042631D01*
X080757Y042642D01*
X080762Y042655D01*
X080766Y04267D01*
X080769Y042688D01*
X080771Y042708D01*
X080771Y042731D01*
X080889D01*
X08089Y042708D01*
D02*
G37*
G36*
X079684Y042727D02*
X07969Y042664D01*
X079693Y042646D01*
X079697Y04263D01*
X079701Y042615D01*
X079707Y042602D01*
X079713Y042591D01*
X07972Y042581D01*
X079515D01*
X079522Y042591D01*
X079528Y042602D01*
X079534Y042615D01*
X079538Y04263D01*
X079542Y042646D01*
X079545Y042664D01*
X07955Y042704D01*
X079551Y042727D01*
X079551Y042751D01*
X079684D01*
X079684Y042727D01*
D02*
G37*
G36*
X081324Y04235D02*
X081323Y042361D01*
X08132Y042371D01*
X081314Y04238D01*
X081305Y042388D01*
X081295Y042394D01*
X081281Y0424D01*
X081266Y042404D01*
X081248Y042407D01*
X081228Y042408D01*
X081205Y042409D01*
Y042527D01*
X081228Y042528D01*
X081248Y04253D01*
X081266Y042532D01*
X081281Y042537D01*
X081295Y042542D01*
X081305Y042548D01*
X081314Y042556D01*
X08132Y042565D01*
X081323Y042575D01*
X081324Y042586D01*
Y04235D01*
D02*
G37*
G36*
X081035Y042575D02*
X081039Y042565D01*
X081045Y042556D01*
X081053Y042548D01*
X081064Y042542D01*
X081077Y042537D01*
X081092Y042532D01*
X08111Y04253D01*
X081131Y042528D01*
X081153Y042527D01*
Y042409D01*
X081131Y042408D01*
X08111Y042407D01*
X081092Y042404D01*
X081077Y0424D01*
X081064Y042394D01*
X081053Y042388D01*
X081045Y04238D01*
X081039Y042371D01*
X081035Y042361D01*
X081034Y04235D01*
Y042586D01*
X081035Y042575D01*
D02*
G37*
G36*
X080233Y042029D02*
X080234Y042018D01*
X080239Y042008D01*
X080248Y041999D01*
X08026Y041992D01*
X080275Y041986D01*
X080293Y041981D01*
X080315Y041978D01*
X08034Y041976D01*
X080368Y041975D01*
X080345Y041842D01*
X080321Y041842D01*
X080258Y041837D01*
X08024Y041834D01*
X080224Y04183D01*
X08021Y041826D01*
X080197Y041821D01*
X080186Y041816D01*
X080176Y041809D01*
X080234Y042042D01*
X080233Y042029D01*
D02*
G37*
G36*
X081324Y041776D02*
X081323Y041789D01*
X081319Y0418D01*
X081312Y04181D01*
X081303Y041818D01*
X081291Y041826D01*
X081276Y041832D01*
X081259Y041836D01*
X081238Y04184D01*
X081216Y041842D01*
X08119Y041842D01*
Y041975D01*
X081216Y041976D01*
X081238Y041978D01*
X081259Y041981D01*
X081276Y041986D01*
X081291Y041992D01*
X081303Y041999D01*
X081312Y042008D01*
X081319Y042018D01*
X081323Y042029D01*
X081324Y042042D01*
Y041776D01*
D02*
G37*
G36*
X081035Y042029D02*
X081039Y042018D01*
X081046Y042008D01*
X081055Y041999D01*
X081068Y041992D01*
X081082Y041986D01*
X0811Y041981D01*
X08112Y041978D01*
X081143Y041976D01*
X081168Y041975D01*
Y041842D01*
X081143Y041842D01*
X08112Y04184D01*
X0811Y041836D01*
X081082Y041832D01*
X081068Y041826D01*
X081055Y041818D01*
X081046Y04181D01*
X081039Y0418D01*
X081035Y041789D01*
X081034Y041776D01*
Y042042D01*
X081035Y042029D01*
D02*
G37*
G36*
X080684Y041776D02*
X080683Y041789D01*
X080679Y0418D01*
X080672Y04181D01*
X080663Y041818D01*
X080651Y041826D01*
X080636Y041832D01*
X080619Y041836D01*
X080599Y04184D01*
X080576Y041842D01*
X08055Y041842D01*
Y041975D01*
X080576Y041976D01*
X080599Y041978D01*
X080619Y041981D01*
X080636Y041986D01*
X080651Y041992D01*
X080663Y041999D01*
X080672Y042008D01*
X080679Y042018D01*
X080683Y042029D01*
X080684Y042042D01*
Y041776D01*
D02*
G37*
G36*
X08162Y041761D02*
X081608Y041756D01*
X081598Y04175D01*
X08159Y04174D01*
X081582Y041728D01*
X081576Y041714D01*
X081572Y041696D01*
X081568Y041676D01*
X081566Y041653D01*
X081566Y041652D01*
X081566Y04165D01*
X081568Y041628D01*
X081572Y041608D01*
X081576Y041591D01*
X081582Y041576D01*
X08159Y041564D01*
X081598Y041555D01*
X081608Y041548D01*
X08162Y041544D01*
X081632Y041543D01*
X081366D01*
X081379Y041544D01*
X08139Y041548D01*
X0814Y041555D01*
X081409Y041564D01*
X081416Y041576D01*
X081422Y041591D01*
X081427Y041608D01*
X08143Y041628D01*
X081432Y04165D01*
X081432Y041652D01*
X081432Y041653D01*
X08143Y041676D01*
X081427Y041696D01*
X081422Y041714D01*
X081416Y041728D01*
X081409Y04174D01*
X0814Y04175D01*
X08139Y041756D01*
X081379Y041761D01*
X081366Y041762D01*
X081632D01*
X08162Y041761D01*
D02*
G37*
G36*
X078743Y0426D02*
X078743Y041846D01*
X078653Y041755D01*
X077221Y041755D01*
X077135Y041669D01*
X077135Y04146D01*
X077062Y041386D01*
X076557D01*
X076479Y041464D01*
X076479Y041846D01*
X076377Y041948D01*
X075519Y041948D01*
X075407Y04206D01*
X075407Y042858D01*
X075505Y042956D01*
X078387Y042956D01*
X078743Y0426D01*
D02*
G37*
G36*
X075669Y036849D02*
X07567Y036836D01*
X075672Y036824D01*
X075675Y036813D01*
X075678Y036804D01*
X075683Y036797D01*
X075688Y036792D01*
X075694Y036788D01*
X0757Y036785D01*
X075708Y036784D01*
X07555D01*
X075558Y036785D01*
X075564Y036788D01*
X07557Y036792D01*
X075575Y036797D01*
X07558Y036804D01*
X075583Y036813D01*
X075586Y036824D01*
X075588Y036836D01*
X075589Y036849D01*
X07559Y036864D01*
X075668D01*
X075669Y036849D01*
D02*
G37*
G36*
X075708Y036434D02*
X075701Y036432D01*
X075696Y036428D01*
X07569Y036422D01*
X075686Y036415D01*
X075683Y036406D01*
X07568Y036396D01*
X075678Y036384D01*
X075677Y03637D01*
X075676Y036355D01*
X075597D01*
X075597Y03637D01*
X075596Y036384D01*
X075594Y036396D01*
X075591Y036406D01*
X075588Y036415D01*
X075583Y036422D01*
X075578Y036428D01*
X075572Y036432D01*
X075566Y036434D01*
X075558Y036435D01*
X075716D01*
X075708Y036434D01*
D02*
G37*
G36*
X075677Y03628D02*
X075678Y036267D01*
X07568Y036255D01*
X075683Y036244D01*
X075686Y036236D01*
X07569Y036228D01*
X075696Y036223D01*
X075701Y036219D01*
X075708Y036216D01*
X075716Y036216D01*
X075558D01*
X075566Y036216D01*
X075572Y036219D01*
X075578Y036223D01*
X075583Y036228D01*
X075588Y036236D01*
X075591Y036244D01*
X075594Y036255D01*
X075596Y036267D01*
X075597Y03628D01*
X075597Y036296D01*
X075676D01*
X075677Y03628D01*
D02*
G37*
G36*
X075462Y035968D02*
X075461Y035975D01*
X075459Y035982D01*
X075455Y035988D01*
X075449Y035993D01*
X075442Y035998D01*
X075433Y036001D01*
X075423Y036004D01*
X075411Y036006D01*
X075397Y036007D01*
X075391Y036007D01*
X075384Y036007D01*
X075371Y036006D01*
X075359Y036004D01*
X075348Y036001D01*
X075339Y035998D01*
X075332Y035993D01*
X075327Y035988D01*
X075323Y035982D01*
X07532Y035975D01*
X075319Y035968D01*
Y036125D01*
X07532Y036118D01*
X075323Y036111D01*
X075327Y036105D01*
X075332Y0361D01*
X075339Y036096D01*
X075348Y036092D01*
X075359Y03609D01*
X075371Y036088D01*
X075384Y036086D01*
X075391Y036086D01*
X075397Y036086D01*
X075411Y036088D01*
X075423Y03609D01*
X075433Y036092D01*
X075442Y036096D01*
X075449Y0361D01*
X075455Y036105D01*
X075459Y036111D01*
X075461Y036118D01*
X075462Y036125D01*
Y035968D01*
D02*
G37*
G36*
X075792Y035352D02*
X07578Y035347D01*
X075768Y03534D01*
X075759Y035329D01*
X07575Y035316D01*
X075744Y035299D01*
X075738Y03528D01*
X075735Y035257D01*
X075732Y035232D01*
X075732Y035203D01*
X075582D01*
X075581Y035232D01*
X075579Y035257D01*
X075575Y03528D01*
X07557Y035299D01*
X075563Y035316D01*
X075555Y035329D01*
X075545Y03534D01*
X075534Y035347D01*
X075521Y035352D01*
X075507Y035353D01*
X075807D01*
X075792Y035352D01*
D02*
G37*
G36*
X076136Y032174D02*
X076174Y032137D01*
X076177Y032135D01*
X07618Y032132D01*
X076183Y032131D01*
X076184Y03213D01*
X076073Y032019D01*
X076072Y032021D01*
X076072Y032021D01*
X076007Y03209D01*
X075975Y032122D01*
X076081Y032228D01*
X076136Y032174D01*
D02*
G37*
G36*
X077349Y031279D02*
X077348Y031293D01*
X077343Y031306D01*
X077336Y031317D01*
X077325Y031327D01*
X077311Y031335D01*
X077295Y031342D01*
X077275Y031347D01*
X077252Y031351D01*
X077227Y031353D01*
X077198Y031354D01*
Y031504D01*
X077227Y031504D01*
X077252Y031507D01*
X077275Y03151D01*
X077295Y031516D01*
X077311Y031522D01*
X077325Y031531D01*
X077336Y03154D01*
X077343Y031552D01*
X077348Y031564D01*
X077349Y031579D01*
Y031279D01*
D02*
G37*
G36*
X071673Y049939D02*
X071672Y049947D01*
X07167Y049954D01*
X071666Y04996D01*
X07166Y049965D01*
X071653Y049969D01*
X071644Y049973D01*
X071633Y049976D01*
X071621Y049978D01*
X071607Y049979D01*
X071592Y049979D01*
Y050059D01*
X071607Y05006D01*
X071621Y050061D01*
X071633Y050063D01*
X071644Y050066D01*
X071653Y050069D01*
X07166Y050074D01*
X071666Y050079D01*
X07167Y050085D01*
X071672Y050092D01*
X071673Y050099D01*
Y049939D01*
D02*
G37*
G36*
X070907Y050092D02*
X070909Y050085D01*
X070913Y050079D01*
X070919Y050074D01*
X070926Y050069D01*
X070935Y050066D01*
X070946Y050063D01*
X070958Y050061D01*
X070972Y05006D01*
X070987Y050059D01*
Y049979D01*
X070972Y049979D01*
X070958Y049978D01*
X070946Y049976D01*
X070935Y049973D01*
X070926Y049969D01*
X070919Y049965D01*
X070913Y04996D01*
X070909Y049954D01*
X070907Y049947D01*
X070906Y049939D01*
Y050099D01*
X070907Y050092D01*
D02*
G37*
G36*
X070788Y04987D02*
X070781Y049868D01*
X070775Y049864D01*
X07077Y049858D01*
X070766Y049851D01*
X070762Y049842D01*
X070759Y049832D01*
X070757Y04982D01*
X070756Y049806D01*
X070756Y049791D01*
X070676D01*
X070675Y049806D01*
X070674Y04982D01*
X070672Y049832D01*
X070669Y049842D01*
X070666Y049851D01*
X070661Y049858D01*
X070656Y049864D01*
X07065Y049868D01*
X070643Y04987D01*
X070636Y049871D01*
X070796D01*
X070788Y04987D01*
D02*
G37*
G36*
X070756Y04969D02*
X070757Y049676D01*
X070759Y049664D01*
X070762Y049653D01*
X070766Y049644D01*
X07077Y049637D01*
X070775Y049631D01*
X070781Y049627D01*
X070788Y049625D01*
X070796Y049624D01*
X070636D01*
X070643Y049625D01*
X07065Y049627D01*
X070656Y049631D01*
X070661Y049637D01*
X070666Y049644D01*
X070669Y049653D01*
X070672Y049664D01*
X070674Y049676D01*
X070675Y04969D01*
X070676Y049705D01*
X070756D01*
X070756Y04969D01*
D02*
G37*
G36*
X070907Y048761D02*
X070906Y048758D01*
X070906Y048754D01*
X070905Y048733D01*
X070905Y048683D01*
X070826D01*
X070825Y048698D01*
X070824Y048711D01*
X070822Y048723D01*
X07082Y048733D01*
X070816Y048742D01*
X070812Y048749D01*
X070807Y048754D01*
X070801Y048758D01*
X070794Y048761D01*
X070786Y048761D01*
X070907D01*
X070907Y048761D01*
D02*
G37*
G36*
X070905Y04805D02*
X070906Y048041D01*
X070907Y048032D01*
X070909Y048024D01*
X070912Y048015D01*
X070915Y048008D01*
X070919Y048D01*
X070923Y047994D01*
X070929Y047987D01*
X070934Y047981D01*
X070796D01*
X070802Y047987D01*
X070807Y047994D01*
X070811Y048D01*
X070815Y048008D01*
X070818Y048015D01*
X070821Y048024D01*
X070823Y048032D01*
X070825Y048041D01*
X070826Y04805D01*
X070826Y04806D01*
X070905D01*
X070905Y04805D01*
D02*
G37*
G36*
X076671Y04949D02*
Y04876D01*
X076531Y04862D01*
X075151D01*
X074921Y04839D01*
X074381D01*
X074266Y048505D01*
X074266Y049525D01*
X074321Y04958D01*
X076581D01*
X076671Y04949D01*
D02*
G37*
G36*
X06196Y047748D02*
X061967Y047685D01*
X061972Y04766D01*
X061979Y047638D01*
X061988Y04762D01*
X061998Y047607D01*
X062009Y047597D01*
X062023Y047591D01*
X062037Y047589D01*
X061685D01*
X0617Y047591D01*
X061713Y047597D01*
X061725Y047607D01*
X061735Y04762D01*
X061743Y047638D01*
X06175Y04766D01*
X061756Y047685D01*
X06176Y047715D01*
X061762Y047748D01*
X061763Y047786D01*
X06196D01*
X06196Y047748D01*
D02*
G37*
G36*
X061687Y046788D02*
X061686Y046798D01*
X061682Y046806D01*
X061677Y046814D01*
X06167Y04682D01*
X061661Y046826D01*
X06165Y04683D01*
X061637Y046834D01*
X061622Y046836D01*
X061605Y046838D01*
X061585Y046838D01*
Y046938D01*
X061605Y046939D01*
X061622Y04694D01*
X061637Y046943D01*
X06165Y046946D01*
X061661Y046951D01*
X06167Y046956D01*
X061677Y046963D01*
X061682Y04697D01*
X061686Y046979D01*
X061687Y046988D01*
Y046788D01*
D02*
G37*
G36*
X061317Y046979D02*
X06132Y04697D01*
X061325Y046963D01*
X061332Y046956D01*
X061341Y046951D01*
X061353Y046946D01*
X061366Y046943D01*
X061381Y04694D01*
X061398Y046939D01*
X061417Y046938D01*
Y046838D01*
X061398Y046838D01*
X061381Y046836D01*
X061366Y046834D01*
X061353Y04683D01*
X061341Y046826D01*
X061332Y04682D01*
X061325Y046814D01*
X06132Y046806D01*
X061317Y046798D01*
X061316Y046788D01*
Y046988D01*
X061317Y046979D01*
D02*
G37*
G36*
X062037Y046972D02*
X06204Y046963D01*
X062045Y046956D01*
X062052Y046949D01*
X062061Y046944D01*
X062072Y046939D01*
X062086Y046936D01*
X062101Y046933D01*
X062118Y046932D01*
X062137Y046931D01*
Y046831D01*
X062118Y046831D01*
X062101Y046829D01*
X062086Y046827D01*
X062072Y046823D01*
X062061Y046819D01*
X062052Y046813D01*
X062045Y046807D01*
X06204Y046799D01*
X062037Y046791D01*
X062036Y046781D01*
Y046981D01*
X062037Y046972D01*
D02*
G37*
G36*
X068984Y044117D02*
X068986Y044098D01*
X068987Y044089D01*
X068989Y044082D01*
X068991Y044075D01*
X068993Y044068D01*
X068996Y044063D01*
X068999Y044058D01*
X069003Y044054D01*
X068865D01*
X068869Y044058D01*
X068872Y044063D01*
X068875Y044068D01*
X068877Y044075D01*
X068879Y044082D01*
X068881Y044089D01*
X068882Y044098D01*
X068883Y044107D01*
X068884Y044128D01*
X068984D01*
X068984Y044117D01*
D02*
G37*
G36*
X069549Y041548D02*
X06953Y041547D01*
X069509Y041542D01*
X069488Y041535D01*
X069466Y041526D01*
X069443Y041513D01*
X069419Y041498D01*
X069395Y04148D01*
X069343Y041435D01*
X069315Y041409D01*
X069176Y041548D01*
X069214Y041587D01*
X069274Y041658D01*
X069296Y04169D01*
X069312Y041719D01*
X069323Y041745D01*
X069329Y041769D01*
X06933Y041791D01*
X069325Y04181D01*
X069315Y041826D01*
X069549Y041548D01*
D02*
G37*
G36*
X068354Y044882D02*
X068349Y044875D01*
X068344Y044868D01*
X06834Y044861D01*
X068337Y044853D01*
X068334Y044845D01*
X068332Y044837D01*
X068331Y044828D01*
X06833Y044818D01*
X06833Y044809D01*
X068251D01*
X068251Y044818D01*
X06825Y044828D01*
X068248Y044837D01*
X068246Y044845D01*
X068244Y044853D01*
X06824Y044861D01*
X068237Y044868D01*
X068232Y044875D01*
X068227Y044882D01*
X068222Y044888D01*
X068359D01*
X068354Y044882D01*
D02*
G37*
G36*
X06833Y043227D02*
X068331Y043214D01*
X068333Y043202D01*
X068336Y043191D01*
X06834Y043182D01*
X068344Y043175D01*
X068349Y04317D01*
X068355Y043166D01*
X068362Y043163D01*
X068369Y043162D01*
X068212D01*
X068219Y043163D01*
X068226Y043166D01*
X068232Y04317D01*
X068237Y043175D01*
X068241Y043182D01*
X068245Y043191D01*
X068247Y043202D01*
X068249Y043214D01*
X068251Y043227D01*
X068251Y043242D01*
X06833D01*
X06833Y043227D01*
D02*
G37*
G36*
X068949Y042812D02*
X068943Y04281D01*
X068937Y042806D01*
X068931Y0428D01*
X068927Y042793D01*
X068923Y042784D01*
X068921Y042773D01*
X068919Y042761D01*
X068917Y042747D01*
X068917Y042732D01*
X068837D01*
X068837Y042747D01*
X068835Y042761D01*
X068833Y042773D01*
X068831Y042784D01*
X068827Y042793D01*
X068823Y0428D01*
X068817Y042806D01*
X068811Y04281D01*
X068805Y042812D01*
X068797Y042813D01*
X068957D01*
X068949Y042812D01*
D02*
G37*
G36*
X068918Y042526D02*
X06892Y042512D01*
X068924Y0425D01*
X06893Y04249D01*
X068937Y042481D01*
X068946Y042474D01*
X068956Y042468D01*
X068968Y042464D01*
X068982Y042462D01*
X068997Y042461D01*
X068997Y042461D01*
X068997D01*
X068997Y042461D01*
X068957Y042381D01*
X068877D01*
X068757Y042461D01*
X068757Y042461D01*
X068757D01*
X068757Y042461D01*
X068772Y042462D01*
X068786Y042464D01*
X068798Y042468D01*
X068808Y042474D01*
X068817Y042481D01*
X068824Y04249D01*
X06883Y0425D01*
X068834Y042512D01*
X068836Y042526D01*
X068837Y042541D01*
X068917D01*
X068918Y042526D01*
D02*
G37*
G36*
X068466Y042493D02*
X068468Y042486D01*
X068472Y04248D01*
X068478Y042475D01*
X068485Y042471D01*
X068494Y042467D01*
X068505Y042464D01*
X068517Y042462D01*
X068531Y042461D01*
X068546Y042461D01*
Y042381D01*
X068531Y04238D01*
X068517Y042379D01*
X068505Y042377D01*
X068494Y042374D01*
X068485Y042371D01*
X068478Y042366D01*
X068472Y042361D01*
X068468Y042355D01*
X068466Y042348D01*
X068465Y042341D01*
Y042501D01*
X068466Y042493D01*
D02*
G37*
G36*
X070221Y042063D02*
X070222Y042049D01*
X070224Y042037D01*
X070227Y042026D01*
X07023Y042017D01*
X070235Y04201D01*
X07024Y042004D01*
X070246Y042D01*
X070253Y041998D01*
X07026Y041997D01*
X0701D01*
X070108Y041998D01*
X070115Y042D01*
X070121Y042004D01*
X070126Y04201D01*
X07013Y042017D01*
X070134Y042026D01*
X070137Y042037D01*
X070139Y042049D01*
X07014Y042063D01*
X07014Y042078D01*
X07022D01*
X070221Y042063D01*
D02*
G37*
G36*
X07281Y03421D02*
X072814Y034207D01*
X07282Y034204D01*
X072826Y034202D01*
X072833Y0342D01*
X072841Y034198D01*
X072849Y034197D01*
X072859Y034196D01*
X072879Y034195D01*
Y034095D01*
X072868Y034095D01*
X072849Y034093D01*
X072841Y034092D01*
X072833Y03409D01*
X072826Y034088D01*
X07282Y034086D01*
X072814Y034083D01*
X07281Y03408D01*
X072806Y034076D01*
Y034214D01*
X07281Y03421D01*
D02*
G37*
G36*
X069958Y033827D02*
X06996Y03382D01*
X069964Y033814D01*
X06997Y033809D01*
X069977Y033805D01*
X069986Y033801D01*
X069996Y033798D01*
X070008Y033796D01*
X070022Y033795D01*
X070037Y033795D01*
Y033716D01*
X070022Y033716D01*
X070008Y033714D01*
X069996Y033712D01*
X069986Y03371D01*
X069977Y033706D01*
X06997Y033702D01*
X069964Y033697D01*
X06996Y033691D01*
X069958Y033684D01*
X069957Y033677D01*
Y033834D01*
X069958Y033827D01*
D02*
G37*
G36*
X073477Y033593D02*
X07348Y03356D01*
X073482Y033547D01*
X073486Y033536D01*
X07349Y033526D01*
X073495Y033519D01*
X073501Y033514D01*
X073507Y033511D01*
X073515Y03351D01*
X073359D01*
X073366Y033511D01*
X073373Y033514D01*
X073379Y033519D01*
X073384Y033526D01*
X073388Y033536D01*
X073391Y033547D01*
X073394Y03356D01*
X073396Y033576D01*
X073397Y033593D01*
X073397Y033613D01*
X073476D01*
X073477Y033593D01*
D02*
G37*
G36*
X070946Y033578D02*
X070948Y033555D01*
X070949Y033549D01*
X07095Y033545D01*
X070951Y033541D01*
X070953Y033539D01*
X070955Y033538D01*
X070957Y033538D01*
X070857Y033509D01*
X070859Y03351D01*
X070861Y033513D01*
X070862Y033517D01*
X070864Y033523D01*
X070865Y03353D01*
X070866Y033549D01*
X070867Y033588D01*
X070946D01*
X070946Y033578D01*
D02*
G37*
G36*
X074704Y033424D02*
X074705Y03341D01*
X074707Y033398D01*
X07471Y033388D01*
X074714Y033379D01*
X074718Y033372D01*
X074723Y033366D01*
X074729Y033362D01*
X074736Y03336D01*
X074743Y033359D01*
X074586D01*
X074593Y03336D01*
X0746Y033362D01*
X074606Y033366D01*
X074611Y033372D01*
X074615Y033379D01*
X074619Y033388D01*
X074622Y033398D01*
X074623Y03341D01*
X074625Y033424D01*
X074625Y033439D01*
X074704D01*
X074704Y033424D01*
D02*
G37*
G36*
X069854Y03307D02*
X069847Y033067D01*
X069841Y033063D01*
X069836Y033058D01*
X069832Y033051D01*
X069828Y033042D01*
X069825Y033032D01*
X069823Y03302D01*
X069822Y033007D01*
X069822Y032992D01*
X069743D01*
X069743Y033007D01*
X069742Y03302D01*
X06974Y033032D01*
X069737Y033042D01*
X069733Y033051D01*
X069729Y033058D01*
X069724Y033063D01*
X069718Y033067D01*
X069711Y03307D01*
X069704Y033071D01*
X069861D01*
X069854Y03307D01*
D02*
G37*
G36*
X069822Y032907D02*
X069823Y032898D01*
X069825Y032889D01*
X069827Y032881D01*
X06983Y032874D01*
X069834Y032867D01*
X069839Y032861D01*
X069844Y032855D01*
X06985Y03285D01*
X069856Y032846D01*
X069722Y032813D01*
X069726Y03282D01*
X06973Y032827D01*
X069733Y032834D01*
X069736Y032842D01*
X069738Y03285D01*
X06974Y032859D01*
X069741Y032868D01*
X069743Y032886D01*
X069743Y032896D01*
X069822Y032917D01*
X069822Y032907D01*
D02*
G37*
G36*
X072431Y032796D02*
X072425Y032801D01*
X072418Y032803D01*
X072411Y032804D01*
X072402Y032802D01*
X072392Y032799D01*
X072382Y032793D01*
X072371Y032785D01*
X072358Y032776D01*
X072345Y032764D01*
X072331Y032751D01*
X072275Y032806D01*
X072289Y032821D01*
X07231Y032846D01*
X072318Y032857D01*
X072323Y032868D01*
X072327Y032877D01*
X072328Y032886D01*
X072328Y032894D01*
X072325Y032901D01*
X072321Y032907D01*
X072431Y032796D01*
D02*
G37*
G36*
X071967Y032798D02*
X071957Y032796D01*
X071946Y032794D01*
X071935Y03279D01*
X071925Y032786D01*
X071914Y03278D01*
X071904Y032774D01*
X071894Y032767D01*
X071883Y032759D01*
X071873Y032751D01*
X071863Y032741D01*
X071792Y032781D01*
X071805Y032795D01*
X071825Y032819D01*
X071832Y03283D01*
X071837Y03284D01*
X07184Y032848D01*
X07184Y032856D01*
X071838Y032863D01*
X071834Y032868D01*
X071828Y032872D01*
X071967Y032798D01*
D02*
G37*
G36*
X071467D02*
X07146Y032797D01*
X071452Y032794D01*
X071444Y032791D01*
X071436Y032787D01*
X071427Y032781D01*
X071418Y032775D01*
X071398Y032759D01*
X071388Y03275D01*
X071377Y032739D01*
X071299Y032772D01*
X071312Y032786D01*
X071332Y03281D01*
X071339Y032821D01*
X071343Y03283D01*
X071345Y032839D01*
X071345Y032846D01*
X071343Y032852D01*
X071339Y032857D01*
X071333Y032861D01*
X071467Y032798D01*
D02*
G37*
G36*
X074007Y032825D02*
X074001Y032822D01*
X073995Y032817D01*
X07399Y03281D01*
X073986Y0328D01*
X073982Y032789D01*
X07398Y032776D01*
X073978Y03276D01*
X073977Y032743D01*
X073976Y032723D01*
X073897D01*
X073897Y032743D01*
X073894Y032776D01*
X073891Y032789D01*
X073888Y0328D01*
X073884Y03281D01*
X073879Y032817D01*
X073873Y032822D01*
X073866Y032825D01*
X073859Y032826D01*
X074015D01*
X074007Y032825D01*
D02*
G37*
G36*
X070507D02*
X070501Y032822D01*
X070495Y032817D01*
X07049Y03281D01*
X070486Y0328D01*
X070482Y032789D01*
X07048Y032776D01*
X070478Y03276D01*
X070477Y032743D01*
X070476Y032723D01*
X070397D01*
X070397Y032743D01*
X070394Y032776D01*
X070391Y032789D01*
X070388Y0328D01*
X070384Y03281D01*
X070379Y032817D01*
X070373Y032822D01*
X070366Y032825D01*
X070359Y032826D01*
X070515D01*
X070507Y032825D01*
D02*
G37*
G36*
X072996Y03281D02*
X072985Y032805D01*
X072973Y032799D01*
X07295Y032784D01*
X072937Y032776D01*
X072912Y032755D01*
X072885Y032731D01*
X072871Y032718D01*
X072808Y032765D01*
X072821Y03278D01*
X072842Y032804D01*
X072848Y032815D01*
X072852Y032824D01*
X072854Y032832D01*
X072854Y032839D01*
X072851Y032844D01*
X072846Y032848D01*
X072838Y032851D01*
X072996Y03281D01*
D02*
G37*
G36*
X073977Y032585D02*
X073978Y032572D01*
X07398Y03256D01*
X073982Y032549D01*
X073986Y032541D01*
X07399Y032533D01*
X073995Y032528D01*
X074001Y032524D01*
X074008Y032522D01*
X074016Y032521D01*
X073858D01*
X073866Y032522D01*
X073872Y032524D01*
X073878Y032528D01*
X073883Y032533D01*
X073888Y032541D01*
X073891Y032549D01*
X073894Y03256D01*
X073896Y032572D01*
X073897Y032585D01*
X073897Y032601D01*
X073976D01*
X073977Y032585D01*
D02*
G37*
G36*
X072232Y032519D02*
X072233Y032505D01*
X072235Y032493D01*
X072238Y032483D01*
X072241Y032474D01*
X072246Y032467D01*
X072251Y032461D01*
X072257Y032457D01*
X072263Y032455D01*
X072271Y032454D01*
X072113D01*
X072121Y032455D01*
X072127Y032457D01*
X072133Y032461D01*
X072138Y032467D01*
X072143Y032474D01*
X072146Y032483D01*
X072149Y032493D01*
X072151Y032505D01*
X072152Y032519D01*
X072153Y032534D01*
X072231D01*
X072232Y032519D01*
D02*
G37*
G36*
X071681D02*
X071682Y032505D01*
X071684Y032493D01*
X071686Y032483D01*
X07169Y032474D01*
X071694Y032467D01*
X071699Y032461D01*
X071705Y032457D01*
X071712Y032455D01*
X07172Y032454D01*
X071562D01*
X07157Y032455D01*
X071576Y032457D01*
X071582Y032461D01*
X071587Y032467D01*
X071592Y032474D01*
X071595Y032483D01*
X071598Y032493D01*
X0716Y032505D01*
X071601Y032519D01*
X071601Y032534D01*
X07168D01*
X071681Y032519D01*
D02*
G37*
G36*
X071126Y032491D02*
X071128Y032467D01*
X07113Y032458D01*
X071132Y03245D01*
X071135Y032443D01*
X071139Y032438D01*
X071142Y032434D01*
X071147Y032432D01*
X071151Y032431D01*
X071014Y03243D01*
X07102Y032431D01*
X071026Y032433D01*
X071031Y032437D01*
X071035Y032442D01*
X071039Y032449D01*
X071042Y032457D01*
X071044Y032467D01*
X071046Y032478D01*
X071047Y03249D01*
X071047Y032505D01*
X071126D01*
X071126Y032491D01*
D02*
G37*
G36*
X070477Y032495D02*
X070478Y032481D01*
X07048Y032469D01*
X070482Y032459D01*
X070486Y03245D01*
X07049Y032443D01*
X070495Y032437D01*
X070501Y032433D01*
X070508Y032431D01*
X070516Y03243D01*
X070358D01*
X070366Y032431D01*
X070372Y032433D01*
X070378Y032437D01*
X070383Y032443D01*
X070388Y03245D01*
X070391Y032459D01*
X070394Y032469D01*
X070396Y032481D01*
X070397Y032495D01*
X070397Y03251D01*
X070476D01*
X070477Y032495D01*
D02*
G37*
G36*
X072818Y032475D02*
X07282Y032462D01*
X072822Y03245D01*
X072824Y03244D01*
X072828Y032431D01*
X072832Y032424D01*
X072837Y032419D01*
X072843Y032415D01*
X07285Y032412D01*
X072857Y032412D01*
X0727D01*
X072707Y032412D01*
X072714Y032415D01*
X07272Y032419D01*
X072725Y032424D01*
X072729Y032431D01*
X072733Y03244D01*
X072736Y03245D01*
X072738Y032462D01*
X072739Y032475D01*
X072739Y03249D01*
X072818D01*
X072818Y032475D01*
D02*
G37*
G36*
X074763Y032496D02*
X074754Y032493D01*
X074747Y032488D01*
X07474Y032481D01*
X074735Y032472D01*
X07473Y032461D01*
X074727Y032448D01*
X074724Y032433D01*
X074723Y032416D01*
X074722Y032397D01*
X074622D01*
X074622Y032416D01*
X07462Y032433D01*
X074618Y032448D01*
X074614Y032461D01*
X07461Y032472D01*
X074604Y032481D01*
X074598Y032488D01*
X07459Y032493D01*
X074582Y032496D01*
X074572Y032497D01*
X074772D01*
X074763Y032496D01*
D02*
G37*
G36*
X073517Y03217D02*
X073504Y032165D01*
X073493Y032158D01*
X073483Y032147D01*
X073475Y032133D01*
X073468Y032117D01*
X073463Y032097D01*
X073459Y032074D01*
X073457Y032049D01*
X073456Y03202D01*
X073306D01*
X073305Y032049D01*
X073303Y032074D01*
X073299Y032097D01*
X073294Y032117D01*
X073287Y032133D01*
X073279Y032147D01*
X073269Y032158D01*
X073258Y032165D01*
X073245Y03217D01*
X073231Y032171D01*
X073531D01*
X073517Y03217D01*
D02*
G37*
G36*
X074924Y031935D02*
X074926Y031918D01*
X074928Y031903D01*
X074932Y031889D01*
X074936Y031878D01*
X074942Y031869D01*
X074948Y031862D01*
X074956Y031857D01*
X074964Y031854D01*
X074974Y031853D01*
X074774D01*
X074783Y031854D01*
X074792Y031857D01*
X074799Y031862D01*
X074806Y031869D01*
X074811Y031878D01*
X074816Y031889D01*
X074819Y031903D01*
X074822Y031918D01*
X074823Y031935D01*
X074824Y031954D01*
X074924D01*
X074924Y031935D01*
D02*
G37*
G36*
X074333Y031883D02*
X074334Y031864D01*
X074336Y031855D01*
X074338Y031848D01*
X07434Y031841D01*
X074342Y031835D01*
X074345Y031829D01*
X074349Y031824D01*
X074352Y03182D01*
X074215Y031815D01*
X074218Y031819D01*
X074221Y031824D01*
X074224Y03183D01*
X074226Y031836D01*
X074228Y031843D01*
X07423Y031851D01*
X074231Y031859D01*
X074232Y031878D01*
X074233Y031889D01*
X074333Y031894D01*
X074333Y031883D01*
D02*
G37*
G36*
X073483Y031936D02*
X073561Y031868D01*
X073576Y031859D01*
X073588Y031853D01*
X073598Y03185D01*
X073606Y03185D01*
X073611Y031853D01*
X073459Y031701D01*
X073462Y031706D01*
X073462Y031714D01*
X073459Y031724D01*
X073453Y031736D01*
X073444Y031751D01*
X073431Y031767D01*
X073398Y031806D01*
X073352Y031854D01*
X073458Y03196D01*
X073483Y031936D01*
D02*
G37*
%LPC*%
G36*
X06953Y037964D02*
X069333D01*
Y037748D01*
X06953D01*
Y037964D01*
D02*
G37*
G36*
Y03759D02*
X069333D01*
Y037373D01*
X06953D01*
Y03759D01*
D02*
G37*
G36*
X068094Y037472D02*
X067897D01*
Y037255D01*
X068094D01*
Y037472D01*
D02*
G37*
G36*
X070916Y037049D02*
X0707D01*
Y036852D01*
X070916D01*
Y037049D01*
D02*
G37*
G36*
X067338Y037007D02*
X067208D01*
X067083Y036973D01*
X06697Y036908D01*
X066878Y036816D01*
X066813Y036704D01*
X06678Y036578D01*
Y036448D01*
X066813Y036323D01*
X066878Y03621D01*
X06697Y036118D01*
X067083Y036053D01*
X067208Y03602D01*
X067338D01*
X067464Y036053D01*
X067577Y036118D01*
X067669Y03621D01*
X067734Y036323D01*
X067767Y036448D01*
Y036578D01*
X067734Y036704D01*
X067669Y036816D01*
X067577Y036908D01*
X067464Y036973D01*
X067338Y037007D01*
D02*
G37*
G36*
X067785Y035025D02*
X066762D01*
Y034001D01*
X067785D01*
Y035025D01*
D02*
G37*
%LPD*%
D12*
X068704Y033649D02*
Y035787D01*
X068235Y033181D02*
X068704Y033649D01*
X065475Y033181D02*
X068235D01*
X065213Y032918D02*
X065475Y033181D01*
X070731Y048918D02*
X070747D01*
X070865Y047911D02*
Y0488D01*
X070747Y048918D02*
X070865Y0488D01*
X070731Y048892D02*
X070846Y049007D01*
X075629Y03661D02*
Y040848D01*
X075186Y041291D02*
X075629Y040848D01*
X075186Y041291D02*
Y045793D01*
X074414Y04545D02*
X074416Y045448D01*
Y037933D02*
Y045448D01*
X072937Y036453D02*
X074416Y037933D01*
X074133Y03798D02*
Y04524D01*
X072437Y036284D02*
X074133Y03798D01*
X07408Y046246D02*
X074733D01*
X075186Y045793D01*
X07509Y036047D02*
X075623D01*
X075637Y036061D02*
Y036537D01*
X075599Y036574D02*
X075637Y036537D01*
X075623Y036047D02*
X075637Y036061D01*
X071042Y046383D02*
X071914D01*
X07193Y046368D01*
X068702Y048724D02*
X071042Y046383D01*
X067114Y049431D02*
X067341D01*
X067374Y049398D01*
X066822Y049723D02*
X067114Y049431D01*
X066822Y049723D02*
Y049755D01*
X067374Y049398D02*
X067675D01*
X068788D02*
X068983Y049203D01*
Y049175D02*
Y049203D01*
X074003Y04735D02*
Y047546D01*
X073957Y047592D02*
X074003Y047546D01*
X073631Y047592D02*
X073957D01*
X07306Y046942D02*
Y047572D01*
X07308Y047592D01*
X072414Y0476D02*
X073056D01*
X072903Y045157D02*
X073437Y044623D01*
X07368Y037889D02*
Y045267D01*
X073686Y045273D01*
X073437Y038473D02*
Y044623D01*
X068665Y04876D02*
X068702Y048724D01*
X068568Y049398D02*
X068788D01*
X067658Y049792D02*
X067968D01*
X067547D02*
X067658D01*
X067855Y049595D02*
X067968D01*
X067658Y049792D02*
X067855Y049595D01*
X067501Y049838D02*
X067547Y049792D01*
X067383Y04996D02*
X067501Y049842D01*
X067363Y04996D02*
X067383D01*
X067501Y049838D02*
Y049842D01*
X071881Y041695D02*
X071936Y041751D01*
X071649Y041082D02*
Y041309D01*
X071881Y041541D02*
Y041695D01*
X071649Y041309D02*
X071881Y041541D01*
X071542Y040983D02*
X071551D01*
X071649Y041082D01*
X06817Y049994D02*
Y050172D01*
X068591Y050594D02*
X068903D01*
X06817Y050172D02*
X068591Y050594D01*
X071946Y041751D02*
X072044Y041849D01*
Y041859D01*
X071936Y041751D02*
X071946D01*
X072044Y041859D02*
X07209Y041904D01*
Y042326D01*
X071054Y039764D02*
Y040255D01*
Y039764D02*
X071547Y039271D01*
X070859Y038582D02*
X071203Y038926D01*
X071547Y039271D01*
X070562Y038582D02*
X070859D01*
X071937Y039464D02*
X072039Y039566D01*
X072531D01*
X071937Y039433D02*
Y039464D01*
X071936Y03907D02*
X072039Y039173D01*
X071936Y038976D02*
Y03907D01*
X072039Y039173D02*
X072531D01*
X067363Y04996D02*
X067455Y049868D01*
X068903Y050594D02*
X068913Y050604D01*
Y050137D02*
Y050604D01*
X068913Y050604D01*
X068766Y049989D02*
X068913Y050137D01*
X068568Y049989D02*
X068766D01*
X069535Y063202D02*
Y063858D01*
Y063202D02*
X069612Y063125D01*
X06992D01*
X069535Y063858D02*
X069555D01*
X071086Y063846D02*
X071097Y063858D01*
X071086Y063269D02*
Y063846D01*
X067675Y048783D02*
Y049398D01*
X067968D01*
X072905Y050208D02*
X073794D01*
X072783Y050087D02*
X072905Y050208D01*
X072783Y049643D02*
Y050087D01*
X071037Y037721D02*
X071244D01*
X070995Y037679D02*
X071037Y037721D01*
X071244D02*
X071448Y037925D01*
Y038287D01*
X066303Y032792D02*
X066397Y032885D01*
X068464D01*
X069164Y033586D01*
X073251Y038287D02*
X073437Y038473D01*
X072235Y038287D02*
X073251D01*
X072937Y035215D02*
Y036453D01*
X072955Y037163D02*
X07368Y037889D01*
X073116Y038586D02*
X07312Y038589D01*
X072531Y038582D02*
X072534Y038586D01*
X073116D01*
X0722Y037163D02*
X072955D01*
X072437Y035215D02*
Y036284D01*
X074772Y037492D02*
Y040983D01*
X073437Y035215D02*
Y036158D01*
X074772Y037492D01*
X072038Y037345D02*
Y038287D01*
Y037345D02*
X0722Y037183D01*
Y037163D02*
Y037183D01*
X067734Y048724D02*
X068151D01*
X067675Y048783D02*
X067734Y048724D01*
X067914Y050614D02*
Y051038D01*
X069464Y050604D02*
Y05104D01*
X069462Y051043D02*
X069464Y05104D01*
X069446Y050585D02*
X069464Y050604D01*
X069446Y049783D02*
Y050585D01*
X069437Y049792D02*
X069446Y049783D01*
X068568Y049792D02*
X069437D01*
X068665Y04876D02*
Y048973D01*
X068366Y049272D02*
X068665Y048973D01*
X068366Y049272D02*
Y049394D01*
X06817Y048743D02*
Y049394D01*
X068151Y048724D02*
X06817Y048743D01*
X067968Y049989D02*
Y05056D01*
X067914Y050614D02*
X067968Y05056D01*
X06829Y043011D02*
Y044958D01*
Y043011D02*
X068314Y042988D01*
X07016Y0377D02*
Y038092D01*
X070386Y038287D02*
X070857D01*
X07016Y03806D02*
X070386Y038287D01*
X069783Y032817D02*
Y033227D01*
Y032817D02*
X069806Y032793D01*
Y032761D02*
Y032793D01*
X069789Y034934D02*
X06984Y034986D01*
X069747Y034976D02*
Y035445D01*
X074527Y033838D02*
X074664Y0337D01*
Y033208D02*
Y0337D01*
X073447Y064413D02*
X0742D01*
X073444Y064409D02*
X073447Y064413D01*
X071078Y064409D02*
X071097Y064389D01*
X070319Y064409D02*
X071078D01*
X069475D02*
X069507Y064377D01*
X068756Y064409D02*
X069475D01*
X071937Y035445D02*
Y036085D01*
X071924Y035433D02*
X071937Y035445D01*
X071582Y03644D02*
X071937Y036085D01*
X070397Y03644D02*
X071582D01*
X07142Y035377D02*
X071448Y03535D01*
X07142Y035377D02*
Y035751D01*
X07122Y035952D02*
X07142Y035751D01*
X070365Y035952D02*
X07122D01*
X068704Y035787D02*
X069369Y036452D01*
X069464Y035933D02*
X069814D01*
X069164Y035633D02*
X069464Y035933D01*
X069164Y033586D02*
Y035633D01*
X066303Y031993D02*
Y032792D01*
X069369Y036452D02*
X069818D01*
X065213Y031993D02*
Y032918D01*
X070364Y034986D02*
X07042Y035042D01*
Y03507D01*
X06984Y034986D02*
X070364D01*
X069783Y033755D02*
X070739D01*
X070907Y033588D01*
Y033415D02*
Y033588D01*
X073534Y033838D02*
X074527D01*
X073437Y03374D02*
X073534Y033838D01*
X073437Y033168D02*
Y03374D01*
X072779Y032681D02*
X072907Y032809D01*
X072779Y032255D02*
Y032681D01*
X073924Y03235D02*
X073937Y032362D01*
Y033168D01*
X072907Y032809D02*
Y033138D01*
X072937Y033168D01*
X072192Y032667D02*
X072448Y032923D01*
X072192Y032279D02*
Y032667D01*
X072448Y032923D02*
Y032972D01*
X071087Y032347D02*
Y032505D01*
X070995Y032114D02*
X071087Y032205D01*
X071407Y032824D02*
Y032923D01*
X071087Y032505D02*
X071407Y032824D01*
Y032923D02*
X071424Y03294D01*
X071937Y03287D02*
Y033036D01*
X071641Y032574D02*
X071937Y03287D01*
X071641Y032279D02*
Y032574D01*
X070437Y032121D02*
X070448Y03211D01*
X070437Y032263D02*
Y033168D01*
D15*
X067786Y046881D02*
X068934Y045734D01*
Y043984D02*
Y045734D01*
X07266Y063361D02*
Y063858D01*
X072424Y063125D02*
X07266Y063361D01*
X061861Y046881D02*
X067786D01*
X074874Y031973D02*
X075082Y032181D01*
Y033595D01*
X074531Y034145D02*
X075082Y033595D01*
X072704Y034145D02*
X074531D01*
X074222Y063394D02*
X074227Y063389D01*
X074222Y063394D02*
Y063858D01*
X06999Y040044D02*
X070228D01*
X070309Y039963D02*
X070394D01*
X069979Y040055D02*
X06999Y040044D01*
X070228D02*
X070309Y039963D01*
X070298Y039763D02*
X070562D01*
X070226Y039691D02*
X070298Y039763D01*
X068923Y038972D02*
X070562D01*
X06873Y038799D02*
X068838Y038906D01*
X068857D02*
X068923Y038972D01*
X06873Y038779D02*
Y038799D01*
X068838Y038906D02*
X068857D01*
X068729Y039334D02*
X068886Y039177D01*
X070562D01*
X060943Y046888D02*
X061854D01*
X061861Y046881D01*
X070084Y039691D02*
X070226D01*
X069976Y039584D02*
X070084Y039691D01*
X069976Y039582D02*
Y039584D01*
X074874Y031363D02*
Y031973D01*
X074283Y031933D02*
X074672Y032322D01*
Y032653D01*
X074283Y031751D02*
Y031933D01*
Y031751D02*
X074286Y031748D01*
D24*
X07922Y037322D02*
D03*
X080283D02*
D03*
X077392D02*
D03*
X078455D02*
D03*
X078054Y038705D02*
D03*
X079117D02*
D03*
D25*
X079283Y035543D02*
D03*
X08133D02*
D03*
D27*
X079Y04622D02*
D03*
X077699D02*
D03*
D28*
X075078Y03661D02*
D03*
X075629D02*
D03*
X079035Y045525D02*
D03*
X078483D02*
D03*
X081342Y039896D02*
D03*
X08079D02*
D03*
X072414Y0476D02*
D03*
X071863D02*
D03*
X074542Y047108D02*
D03*
X075094D02*
D03*
X080406Y038491D02*
D03*
X080958D02*
D03*
X071641Y032279D02*
D03*
X072192D02*
D03*
X07016Y037669D02*
D03*
X069609D02*
D03*
X06873Y038123D02*
D03*
X068179D02*
D03*
X073631Y047592D02*
D03*
X07308D02*
D03*
X068723Y037551D02*
D03*
X068172D02*
D03*
X068865Y042988D02*
D03*
X068314D02*
D03*
X072129Y037165D02*
D03*
X071578D02*
D03*
X073381Y032346D02*
D03*
X073932D02*
D03*
X080958Y039027D02*
D03*
X080406D02*
D03*
X070397Y03644D02*
D03*
X069846D02*
D03*
X069814Y035952D02*
D03*
X070365D02*
D03*
X070995Y032255D02*
D03*
X070444D02*
D03*
X068151Y048724D02*
D03*
X068702D02*
D03*
X071538Y042326D02*
D03*
X07209D02*
D03*
X069425Y039582D02*
D03*
X069976D02*
D03*
X068178Y040043D02*
D03*
X068729D02*
D03*
X069979Y040055D02*
D03*
X069428D02*
D03*
X068178Y039353D02*
D03*
X068729D02*
D03*
X068179Y038779D02*
D03*
X06873D02*
D03*
X075094Y04658D02*
D03*
X074542D02*
D03*
X068913Y050604D02*
D03*
X069464D02*
D03*
X067363Y050614D02*
D03*
X067914D02*
D03*
X068731Y040598D02*
D03*
X06818D02*
D03*
D29*
X076568Y04559D02*
D03*
Y047244D02*
D03*
D31*
X073937Y035215D02*
D03*
X073437D02*
D03*
X072937D02*
D03*
X072437D02*
D03*
X071937D02*
D03*
X071437D02*
D03*
X070937D02*
D03*
X070437D02*
D03*
X073937Y033168D02*
D03*
X073437D02*
D03*
X072937D02*
D03*
X072437D02*
D03*
X071937D02*
D03*
X071437D02*
D03*
X070937D02*
D03*
X070437D02*
D03*
D32*
X068366Y049394D02*
D03*
X06817D02*
D03*
Y049994D02*
D03*
X068366D02*
D03*
D33*
X067968Y049398D02*
D03*
Y049595D02*
D03*
Y049792D02*
D03*
Y049989D02*
D03*
X068568D02*
D03*
Y049792D02*
D03*
Y049595D02*
D03*
Y049398D02*
D03*
D34*
X068485Y031993D02*
D03*
X067394D02*
D03*
X066303D02*
D03*
X065213D02*
D03*
X064122D02*
D03*
D35*
X077381Y033251D02*
D03*
Y036007D02*
D03*
D36*
X074874Y031363D02*
D03*
X073693D02*
D03*
X078764D02*
D03*
X077583D02*
D03*
D37*
X076712Y042467D02*
D03*
Y0441D02*
D03*
D38*
X079367Y041085D02*
D03*
D39*
X078618Y039953D02*
D03*
X079117D02*
D03*
X079618D02*
D03*
X080118D02*
D03*
X078618Y042216D02*
D03*
X079117D02*
D03*
X079618D02*
D03*
X080118D02*
D03*
D40*
X070857Y040255D02*
D03*
X071054D02*
D03*
X071251D02*
D03*
X071448D02*
D03*
X071645D02*
D03*
X071841D02*
D03*
X072038D02*
D03*
X072235D02*
D03*
Y038287D02*
D03*
X072038D02*
D03*
X071841D02*
D03*
X071645D02*
D03*
X071448D02*
D03*
X071251D02*
D03*
X071054D02*
D03*
X070857D02*
D03*
D41*
X072531Y03996D02*
D03*
Y039763D02*
D03*
Y039566D02*
D03*
Y03937D02*
D03*
Y039173D02*
D03*
Y038976D02*
D03*
Y038779D02*
D03*
Y038582D02*
D03*
X070562D02*
D03*
Y038779D02*
D03*
Y038976D02*
D03*
Y039173D02*
D03*
Y03937D02*
D03*
Y039566D02*
D03*
Y039763D02*
D03*
Y03996D02*
D03*
D42*
X071936Y040983D02*
D03*
Y041751D02*
D03*
X071542D02*
D03*
Y040983D02*
D03*
D43*
X06829Y04187D02*
D03*
Y042421D02*
D03*
X075637Y036061D02*
D03*
Y035509D02*
D03*
X075145Y035509D02*
D03*
Y036061D02*
D03*
X073444Y064409D02*
D03*
Y063858D02*
D03*
X07572Y048297D02*
D03*
Y048848D02*
D03*
X075698Y049931D02*
D03*
Y049379D02*
D03*
X072779Y031704D02*
D03*
Y032255D02*
D03*
X069446Y049232D02*
D03*
Y049783D02*
D03*
X075137Y049393D02*
D03*
Y049944D02*
D03*
X079785Y039027D02*
D03*
Y038476D02*
D03*
X061861Y046881D02*
D03*
Y047433D02*
D03*
X070731Y049469D02*
D03*
Y048918D02*
D03*
X069783Y033227D02*
D03*
Y033778D02*
D03*
X071881Y063858D02*
D03*
Y064409D02*
D03*
X074222Y063858D02*
D03*
Y064409D02*
D03*
X071097Y063858D02*
D03*
Y064409D02*
D03*
X07266Y063858D02*
D03*
Y064409D02*
D03*
X070319Y063858D02*
D03*
Y064409D02*
D03*
X069747Y034425D02*
D03*
Y034976D02*
D03*
X074672Y033204D02*
D03*
Y032653D02*
D03*
X068756Y063858D02*
D03*
Y064409D02*
D03*
X069535Y063858D02*
D03*
Y064409D02*
D03*
X067023Y038778D02*
D03*
Y039329D02*
D03*
X067613Y039339D02*
D03*
Y038788D02*
D03*
X070995Y037128D02*
D03*
Y037679D02*
D03*
X070684Y040768D02*
D03*
Y041319D02*
D03*
X072495Y040992D02*
D03*
Y041543D02*
D03*
X070731Y050027D02*
D03*
Y050578D02*
D03*
X074576Y04997D02*
D03*
Y049419D02*
D03*
X080859Y041905D02*
D03*
Y042456D02*
D03*
X081499Y041917D02*
D03*
Y042468D02*
D03*
X081499Y040835D02*
D03*
Y041386D02*
D03*
X067363Y04996D02*
D03*
Y049409D02*
D03*
D44*
X073143Y059761D02*
D03*
X072643D02*
D03*
X072143D02*
D03*
X071643D02*
D03*
X072643Y061927D02*
D03*
X073143D02*
D03*
X072143D02*
D03*
X071643D02*
D03*
D46*
X073871Y046592D02*
D03*
X072985Y046218D02*
D03*
Y046966D02*
D03*
X072783Y049643D02*
D03*
X071897Y049269D02*
D03*
Y050017D02*
D03*
D48*
X069806Y040887D02*
D03*
X069432Y041773D02*
D03*
X07018D02*
D03*
X074765Y048625D02*
D03*
X075139Y04774D02*
D03*
X074391D02*
D03*
D49*
X076798Y041585D02*
D03*
Y040284D02*
D03*
D82*
X080948Y0442D02*
D03*
X079137D02*
D03*
D83*
X071547Y039271D02*
D03*
D84*
X072393Y060844D02*
D03*
D85*
X078288Y049421D02*
D03*
Y04761D02*
D03*
D86*
X071231Y062271D02*
X071531Y06257D01*
X070895Y059167D02*
X071231Y059503D01*
Y062271D01*
X070635Y059167D02*
X070895D01*
X071531Y06257D02*
X071962D01*
X072143Y062066D02*
Y062389D01*
Y062066D02*
X0722Y062009D01*
X071962Y06257D02*
X072143Y062389D01*
X068877Y042421D02*
Y042976D01*
Y042421D02*
X068877D01*
X06829D02*
X068877D01*
X06829Y042421D02*
X06829Y042421D01*
X070716Y050019D02*
X071895D01*
X071897Y050017D01*
X070716Y049485D02*
X070731Y049469D01*
X070716Y049485D02*
Y050019D01*
X068865Y042988D02*
X068877Y042976D01*
X07018Y041773D02*
Y042314D01*
X068877Y042421D02*
X070073D01*
X07018Y042314D01*
X071881Y064409D02*
X071901Y064389D01*
X072657D01*
D87*
X070548Y05859D02*
X071222D01*
X072104Y05962D02*
X072151Y059667D01*
X072104Y059472D02*
Y05962D01*
X071222Y05859D02*
X072104Y059472D01*
X073133Y059324D02*
X073138Y059329D01*
Y059756D02*
X073143Y059761D01*
X073138Y059329D02*
Y059756D01*
X069466Y048712D02*
X07156Y046618D01*
X072048Y046616D02*
X072418D01*
X07156Y046618D02*
X072048D01*
X07193Y046383D02*
X071936D01*
X069466Y048712D02*
Y049204D01*
X072649Y059206D02*
Y059677D01*
X072505Y059062D02*
X072649Y059206D01*
X072184Y059062D02*
X072505D01*
X072418Y046616D02*
X07244Y046594D01*
X069466Y049204D02*
X06947Y049208D01*
X072546Y038991D02*
X072786D01*
X072907Y039301D02*
X072912Y039307D01*
X072531Y03937D02*
X072544Y039383D01*
X072907Y039112D02*
Y039301D01*
X07286Y039383D02*
X072907Y039337D01*
X072544Y039383D02*
X07286D01*
X072531Y038976D02*
X072546Y038991D01*
X072786D02*
X072907Y039112D01*
X071645Y037167D02*
Y038287D01*
X069866Y040787D02*
X069884Y040768D01*
X069806Y040846D02*
X069866Y040787D01*
Y040548D02*
X069888Y040526D01*
X069866Y040548D02*
Y040787D01*
X069806Y040846D02*
Y040887D01*
X071645Y037167D02*
X071649Y037163D01*
X075042Y037354D02*
Y040685D01*
X073937Y036248D02*
X075042Y037354D01*
X073937Y035215D02*
Y036248D01*
X069309Y049349D02*
Y049369D01*
X068568Y049595D02*
X069082D01*
X069309Y049369D01*
X069426Y049232D02*
X069446D01*
X069309Y049349D02*
X069426Y049232D01*
X071448Y040255D02*
Y04063D01*
X071495Y040677D01*
X071845D01*
X071936Y040768D01*
X071448Y040137D02*
Y040255D01*
X071936Y040768D02*
Y040983D01*
X072487D01*
X071435Y041653D02*
X071533Y041751D01*
X071542D01*
X071435Y041643D02*
Y041653D01*
X071236Y041444D02*
X071435Y041643D01*
X071236Y040343D02*
Y041444D01*
X06873Y038123D02*
X069051D01*
X069092Y038165D01*
X069124D01*
X070684Y04028D02*
X070731Y040233D01*
X070684Y04028D02*
Y040768D01*
X070731Y040233D02*
X070842D01*
X069097Y039586D02*
X069101Y039582D01*
X069425D01*
X069884Y040768D02*
X070684D01*
X070684Y040768D02*
X070684Y040768D01*
X071538Y042326D02*
X071542Y042322D01*
Y041751D02*
Y042322D01*
X072487Y040983D02*
X072495Y040992D01*
D88*
X079612Y044062D02*
X08083Y042844D01*
Y042485D02*
Y042844D01*
X079361Y044062D02*
X079612D01*
X079241Y044183D02*
X079361Y044062D01*
X076215Y040588D02*
X076454Y040349D01*
X075993Y040588D02*
X076215D01*
X076733Y040349D02*
X076848Y040234D01*
X075978Y040603D02*
X075993Y040588D01*
X076454Y040349D02*
X076733D01*
X076848Y040234D02*
Y040294D01*
X074497Y046592D02*
X074529Y046623D01*
X074557Y046595D02*
X074594Y046559D01*
X074557Y046595D02*
Y047093D01*
X074542Y047108D02*
X074557Y047093D01*
X07445Y047183D02*
Y047681D01*
X074391Y04774D02*
X07445Y047681D01*
Y047183D02*
X074515Y047118D01*
X073871Y046592D02*
X074497D01*
X077233Y040336D02*
X07783Y040934D01*
X076848Y040294D02*
X07689Y040336D01*
X077233D01*
X079117Y041377D02*
X079129Y041366D01*
X080871Y042468D02*
X081499D01*
X08083Y042485D02*
X080859Y042456D01*
X080871Y042468D01*
X080735Y039953D02*
X08079Y039897D01*
X080118Y039953D02*
X080735D01*
X079785Y039027D02*
X079805Y039047D01*
X080393D01*
X079618Y03962D02*
X079771Y039467D01*
X079618Y03962D02*
Y039953D01*
X079771Y039074D02*
Y039467D01*
D89*
X075657Y032547D02*
X076775Y031429D01*
X075657Y032547D02*
Y035509D01*
X076775Y031429D02*
X077518D01*
X077583Y031363D01*
X073381Y031931D02*
X073613Y031699D01*
X073381Y031931D02*
Y032346D01*
X073613Y031519D02*
Y031699D01*
D90*
X067594Y041319D02*
X068877D01*
X069084Y041316D02*
X069432Y041665D01*
X068877Y041316D02*
X069084D01*
X069432Y041665D02*
Y041773D01*
X079117Y041377D02*
Y042216D01*
X061854Y047936D02*
X061861Y047928D01*
Y047433D02*
Y047928D01*
D91*
X079618Y042216D02*
Y042886D01*
X079846Y043114D02*
X080042D01*
X079618Y042886D02*
X079846Y043114D01*
X080165Y041909D02*
X081436D01*
X081499Y041389D02*
X081499Y041389D01*
Y041917D01*
X080118Y041957D02*
Y042216D01*
Y041957D02*
X080165Y041909D01*
X07857Y039877D02*
X078618Y039925D01*
Y039953D01*
X077727Y039877D02*
X07857D01*
D92*
X073192Y039011D02*
Y039011D01*
X072967Y038785D02*
X073192Y039011D01*
X072537Y038785D02*
X072967D01*
X072531Y038779D02*
X072537Y038785D01*
D93*
X068723Y038117D02*
X06873Y038123D01*
X068723Y037551D02*
Y038117D01*
X069258Y040043D02*
X069258Y040043D01*
X068729Y040043D02*
X069258D01*
X068729Y040596D02*
X068731Y040598D01*
X068729Y040043D02*
Y040596D01*
X066588Y038774D02*
X068174D01*
X068179Y038123D02*
Y038779D01*
X068174Y038774D02*
X068179Y038779D01*
X068178Y039353D02*
Y040043D01*
X068171Y039346D02*
X068178Y039353D01*
X066588Y039325D02*
X0676D01*
X067621Y039346D02*
X068171D01*
X067613Y039339D02*
X067621Y039346D01*
X066312Y039325D02*
X066588D01*
X0676D02*
X067613Y039339D01*
X062203Y042994D02*
X064703D01*
X062203Y035594D02*
X064203D01*
Y038773D01*
X061703Y043494D02*
X065203D01*
X061703Y035094D02*
X064703D01*
Y042994D01*
X066203Y039433D02*
Y044494D01*
X061203Y043994D02*
X065703D01*
Y034094D02*
Y043994D01*
X065203Y034594D02*
Y043494D01*
X061203Y034594D02*
X065203D01*
X066204Y038774D02*
X066588D01*
X066308Y039327D02*
X066311Y039324D01*
X066518D01*
X066518Y039325D01*
X066203Y039433D02*
X066312Y039325D01*
X061703Y035094D02*
Y043494D01*
X062203Y035594D02*
Y042994D01*
X061203Y034594D02*
Y043994D01*
X060703Y034094D02*
X065703D01*
X060703D02*
Y044494D01*
X066203D01*
D94*
X064751Y056692D02*
D03*
D95*
X060943Y045878D02*
D03*
X075062Y060871D02*
D03*
Y059891D02*
D03*
Y061881D02*
D03*
D96*
X060943Y046888D02*
D03*
X075062Y058881D02*
D03*
D97*
X067273Y034513D02*
D03*
D98*
Y036513D02*
D03*
D99*
X061157Y03081D02*
D03*
D100*
X070548Y05859D02*
D03*
X070635Y059167D02*
D03*
X072005Y044064D02*
D03*
X068399Y045592D02*
D03*
X072954Y037657D02*
D03*
X073168Y040212D02*
D03*
X077583Y032302D02*
D03*
X067836Y048091D02*
D03*
X075787Y045555D02*
D03*
X075552Y064377D02*
D03*
X075546Y0637D02*
D03*
X062174Y051692D02*
D03*
X062203Y053484D02*
D03*
X064414Y053867D02*
D03*
Y053581D02*
D03*
X064914Y052216D02*
D03*
X064561D02*
D03*
X064409Y054153D02*
D03*
X064414Y053296D02*
D03*
X065097Y054104D02*
D03*
X064414Y055582D02*
D03*
X065092Y053244D02*
D03*
X063968Y056523D02*
D03*
X065517Y056942D02*
D03*
X064407Y054435D02*
D03*
X065519Y056444D02*
D03*
X064414Y05501D02*
D03*
Y055868D02*
D03*
X064407Y054724D02*
D03*
X064046Y057049D02*
D03*
X065097Y054913D02*
D03*
X064222Y057261D02*
D03*
X064438Y057405D02*
D03*
X065401Y056218D02*
D03*
X065227Y056039D02*
D03*
X065399Y057149D02*
D03*
X06496Y057466D02*
D03*
X064243Y056072D02*
D03*
X065564Y056696D02*
D03*
X065097Y054373D02*
D03*
X063968Y05681D02*
D03*
X065202Y05734D02*
D03*
X065097Y054643D02*
D03*
X064688Y05749D02*
D03*
X065086Y055818D02*
D03*
X064056Y056261D02*
D03*
X064414Y055296D02*
D03*
X070865Y047911D02*
D03*
X07617Y032033D02*
D03*
X073133Y059324D02*
D03*
X074414Y04545D02*
D03*
X074133Y04524D02*
D03*
X07408Y046246D02*
D03*
X075214Y034181D02*
D03*
X066822Y049755D02*
D03*
X068983Y049175D02*
D03*
X063826Y051096D02*
D03*
X073052Y048775D02*
D03*
X075903Y040275D02*
D03*
X075887Y03945D02*
D03*
X074003Y04735D02*
D03*
X075794Y045965D02*
D03*
X075978Y040603D02*
D03*
X075885Y041185D02*
D03*
X073558Y047045D02*
D03*
X073231Y048929D02*
D03*
X071629Y037691D02*
D03*
X070387Y043025D02*
D03*
X073089Y041105D02*
D03*
X073187Y04142D02*
D03*
X073063Y041704D02*
D03*
X072355Y044216D02*
D03*
X072763Y044418D02*
D03*
X072903Y045157D02*
D03*
X072568Y048525D02*
D03*
X072277Y048399D02*
D03*
X07244Y046594D02*
D03*
X071936Y046383D02*
D03*
X073686Y045273D02*
D03*
X068934Y043984D02*
D03*
X081118Y044921D02*
D03*
X077086Y056011D02*
D03*
Y056507D02*
D03*
Y057003D02*
D03*
Y057499D02*
D03*
Y057995D02*
D03*
Y05849D02*
D03*
Y058986D02*
D03*
Y059482D02*
D03*
Y059978D02*
D03*
X075775Y061685D02*
D03*
X078072Y055775D02*
D03*
X076201Y061258D02*
D03*
X077054Y060405D02*
D03*
X076628Y060831D02*
D03*
X078135Y051787D02*
D03*
X078761Y051123D02*
D03*
X077897Y051543D02*
D03*
X078895Y051395D02*
D03*
X067914Y051038D02*
D03*
X07783Y040934D02*
D03*
X062995Y04912D02*
D03*
X060944Y059027D02*
D03*
X060943Y051719D02*
D03*
X060944Y053484D02*
D03*
Y060413D02*
D03*
Y061799D02*
D03*
Y05487D02*
D03*
Y056255D02*
D03*
Y057641D02*
D03*
X0767Y032334D02*
D03*
X074275Y059259D02*
D03*
X0767Y039488D02*
D03*
X081302Y039472D02*
D03*
X080078Y051003D02*
D03*
X079334Y042826D02*
D03*
X078727Y043153D02*
D03*
X077672Y040468D02*
D03*
X077239Y040499D02*
D03*
X077258Y040881D02*
D03*
X08053Y044921D02*
D03*
X081412Y045287D02*
D03*
X080824D02*
D03*
X081525Y044966D02*
D03*
X080393Y047011D02*
D03*
X080901Y049147D02*
D03*
X080649Y051011D02*
D03*
X071905Y056393D02*
D03*
X07191Y056891D02*
D03*
X072008Y054405D02*
D03*
X072075Y052287D02*
D03*
X072016Y053433D02*
D03*
X071941Y055421D02*
D03*
X072216Y051165D02*
D03*
X06983Y031901D02*
D03*
X071357Y034031D02*
D03*
X080794Y030476D02*
D03*
X075975Y030814D02*
D03*
X076763Y033452D02*
D03*
X079538Y051007D02*
D03*
X067479Y043373D02*
D03*
X067273Y042562D02*
D03*
X0682Y033771D02*
D03*
X068247Y034688D02*
D03*
X081137Y030476D02*
D03*
X080468D02*
D03*
X071137Y030212D02*
D03*
X069168Y032736D02*
D03*
X070814Y031181D02*
D03*
X071731Y031244D02*
D03*
X075999Y031118D02*
D03*
X074944Y035165D02*
D03*
X07316Y040476D02*
D03*
X073105Y037931D02*
D03*
X069739Y038422D02*
D03*
X063054Y051692D02*
D03*
X064609Y050354D02*
D03*
X064109Y052033D02*
D03*
X065995Y050354D02*
D03*
Y051583D02*
D03*
X063403Y059027D02*
D03*
Y060413D02*
D03*
Y061799D02*
D03*
X069551Y053484D02*
D03*
X067023Y053431D02*
D03*
X068322Y053484D02*
D03*
X062174Y05487D02*
D03*
X069551D02*
D03*
X067092D02*
D03*
X068322D02*
D03*
X062174Y056255D02*
D03*
X069551D02*
D03*
X067092D02*
D03*
X068322D02*
D03*
X062174Y057641D02*
D03*
X065862D02*
D03*
X069551D02*
D03*
X067092D02*
D03*
X068322D02*
D03*
X064633Y059027D02*
D03*
X062174D02*
D03*
X065862D02*
D03*
X069551D02*
D03*
X067092D02*
D03*
X068322D02*
D03*
X064633Y060413D02*
D03*
X062174D02*
D03*
X065862D02*
D03*
X067092D02*
D03*
X068322D02*
D03*
Y061799D02*
D03*
X067092D02*
D03*
X069551D02*
D03*
X065862D02*
D03*
X062174D02*
D03*
X064633D02*
D03*
X071792Y044897D02*
D03*
X071053D02*
D03*
X072532D02*
D03*
X070314D02*
D03*
X071828Y045488D02*
D03*
X071089D02*
D03*
X072567D02*
D03*
X070349Y046007D02*
D03*
X072567D02*
D03*
X071089D02*
D03*
X071828D02*
D03*
X075495Y050992D02*
D03*
X074655D02*
D03*
X072974D02*
D03*
X073814D02*
D03*
X075436Y052287D02*
D03*
X074596D02*
D03*
X072915D02*
D03*
X073755D02*
D03*
X075377Y053433D02*
D03*
X074537D02*
D03*
X072856D02*
D03*
X073696D02*
D03*
X075369Y054405D02*
D03*
X074529D02*
D03*
X072848D02*
D03*
X073688D02*
D03*
X073622Y055421D02*
D03*
X072781D02*
D03*
X074462D02*
D03*
X075302D02*
D03*
X080905Y037334D02*
D03*
Y036948D02*
D03*
X08166Y036996D02*
D03*
Y037372D02*
D03*
X067334Y038375D02*
D03*
X066972D02*
D03*
X067421Y039737D02*
D03*
X067039Y039764D02*
D03*
X066676Y033698D02*
D03*
Y034283D02*
D03*
Y036039D02*
D03*
Y037795D02*
D03*
Y03838D02*
D03*
Y036624D02*
D03*
Y037209D02*
D03*
X066716Y040929D02*
D03*
Y040349D02*
D03*
Y042088D02*
D03*
Y041509D02*
D03*
Y043828D02*
D03*
Y043248D02*
D03*
Y044408D02*
D03*
Y042668D02*
D03*
Y044988D02*
D03*
Y039769D02*
D03*
X064298Y045287D02*
D03*
X064953D02*
D03*
X065608D02*
D03*
X066263D02*
D03*
X060596Y045259D02*
D03*
X061251D02*
D03*
X061906D02*
D03*
X062561D02*
D03*
X062988Y045287D02*
D03*
X063643D02*
D03*
X078513Y050936D02*
D03*
X077786Y050476D02*
D03*
X078166Y051539D02*
D03*
X078145Y052035D02*
D03*
X078381Y053011D02*
D03*
X075546Y064972D02*
D03*
X075572Y063223D02*
D03*
Y062653D02*
D03*
X078446Y055033D02*
D03*
Y054482D02*
D03*
Y053931D02*
D03*
Y053381D02*
D03*
Y055583D02*
D03*
X079255Y051332D02*
D03*
X079805D02*
D03*
X080356D02*
D03*
X080907D02*
D03*
X081457D02*
D03*
X078629Y053185D02*
D03*
X078647Y053645D02*
D03*
Y054195D02*
D03*
Y054746D02*
D03*
Y055297D02*
D03*
X081182Y051565D02*
D03*
X080631D02*
D03*
X080081D02*
D03*
X07953D02*
D03*
X078903Y051631D02*
D03*
X081733Y051565D02*
D03*
X079771Y0407D02*
D03*
X07946D02*
D03*
X079751Y041066D02*
D03*
X079448D02*
D03*
X079727Y041413D02*
D03*
X079436D02*
D03*
X079145D02*
D03*
X080873Y041066D02*
D03*
X080467D02*
D03*
X080061D02*
D03*
X079145D02*
D03*
X078843D02*
D03*
X078437D02*
D03*
X080869Y0407D02*
D03*
X080463D02*
D03*
X080057D02*
D03*
X079149D02*
D03*
X078839D02*
D03*
X078433D02*
D03*
X078448Y041413D02*
D03*
X078855D02*
D03*
X080073D02*
D03*
X080479D02*
D03*
X080885D02*
D03*
X071203Y039383D02*
D03*
Y038926D02*
D03*
X071936D02*
D03*
X071937Y039383D02*
D03*
X076897Y046364D02*
D03*
X066517Y04573D02*
D03*
X066246D02*
D03*
X066902Y046078D02*
D03*
X061854Y047936D02*
D03*
X076747Y041901D02*
D03*
X07692Y038366D02*
D03*
X075936Y037846D02*
D03*
X081491Y043602D02*
D03*
X080042Y043114D02*
D03*
X072184Y059062D02*
D03*
X06992Y063125D02*
D03*
X071086Y063269D02*
D03*
X081223Y033763D02*
D03*
Y033527D02*
D03*
X081483D02*
D03*
X081743D02*
D03*
X081483Y033763D02*
D03*
X081743D02*
D03*
X072424Y063125D02*
D03*
X073794Y050208D02*
D03*
X080113Y03848D02*
D03*
X077726Y039877D02*
D03*
X074227Y063389D02*
D03*
X073396Y036576D02*
D03*
X069888Y040526D02*
D03*
X073192Y039011D02*
D03*
X072907Y039337D02*
D03*
X07312Y038589D02*
D03*
X069462Y051043D02*
D03*
X074772Y040983D02*
D03*
X075042Y040685D02*
D03*
X067594Y041319D02*
D03*
X06829Y044958D02*
D03*
X071203Y049233D02*
D03*
X071857Y048296D02*
D03*
X071478D02*
D03*
X069124Y038165D02*
D03*
X069097Y039586D02*
D03*
X069806Y032761D02*
D03*
X069747Y035445D02*
D03*
X069712Y036996D02*
D03*
X072735Y034145D02*
D03*
X074286Y031748D02*
D03*
X078831Y050186D02*
D03*
X079466D02*
D03*
X079148D02*
D03*
X079307Y050006D02*
D03*
X07899D02*
D03*
X081507Y048346D02*
D03*
X081247D02*
D03*
X081252Y048116D02*
D03*
X080997D02*
D03*
X080987Y048346D02*
D03*
X081507Y048116D02*
D03*
X076543Y048943D02*
D03*
X076263Y048933D02*
D03*
X076543Y049193D02*
D03*
X076283D02*
D03*
X076523Y049423D02*
D03*
X076283D02*
D03*
X064203Y038773D02*
D03*
X066203D02*
D03*
M02*
