G04*
G04 #@! TF.GenerationSoftware,Altium Limited,Altium Designer,19.0.15 (446)*
G04*
G04 Layer_Color=8388736*
%FSTAX24Y24*%
%MOIN*%
G70*
G01*
G75*
%ADD37R,0.1064X0.0552*%
%ADD38R,0.0690X0.0198*%
%ADD39R,0.0434X0.0395*%
%ADD40R,0.0395X0.0434*%
%ADD41R,0.0552X0.0474*%
%ADD42R,0.0533X0.0316*%
%ADD43R,0.0316X0.0513*%
%ADD44C,0.0671*%
%ADD45R,0.1104X0.0671*%
%ADD46R,0.0316X0.0474*%
%ADD47R,0.0926X0.2560*%
%ADD48R,0.1104X0.0552*%
%ADD49R,0.0946X0.0671*%
%ADD50R,0.1064X0.1891*%
%ADD51O,0.0690X0.0178*%
%ADD52O,0.0178X0.0690*%
%ADD53R,0.0671X0.0671*%
%ADD54O,0.2049X0.0867*%
%ADD55O,0.1655X0.0671*%
%ADD56O,0.0730X0.0830*%
%ADD57R,0.0730X0.0830*%
D37*
X040521Y016622D02*
D03*
Y015441D02*
D03*
Y020933D02*
D03*
Y019752D02*
D03*
Y025244D02*
D03*
Y024063D02*
D03*
D38*
X03668Y021167D02*
D03*
Y021423D02*
D03*
Y021679D02*
D03*
Y021935D02*
D03*
Y022191D02*
D03*
Y022447D02*
D03*
Y022703D02*
D03*
Y022959D02*
D03*
X034318D02*
D03*
Y022703D02*
D03*
Y022447D02*
D03*
Y022191D02*
D03*
Y021935D02*
D03*
Y021679D02*
D03*
Y021423D02*
D03*
Y021167D02*
D03*
X03668Y01751D02*
D03*
Y017766D02*
D03*
Y018022D02*
D03*
Y018277D02*
D03*
Y018533D02*
D03*
Y018789D02*
D03*
Y019045D02*
D03*
Y019301D02*
D03*
X034317D02*
D03*
Y019045D02*
D03*
Y018789D02*
D03*
Y018533D02*
D03*
Y018277D02*
D03*
Y018022D02*
D03*
Y017766D02*
D03*
Y01751D02*
D03*
D39*
X022078Y023748D02*
D03*
Y024299D02*
D03*
X020501Y024303D02*
D03*
Y023752D02*
D03*
X021298Y023752D02*
D03*
Y024303D02*
D03*
X020501Y02226D02*
D03*
Y022811D02*
D03*
X020499Y018465D02*
D03*
Y019016D02*
D03*
X024495Y017327D02*
D03*
Y016776D02*
D03*
X024495Y01813D02*
D03*
Y018681D02*
D03*
X024495Y021067D02*
D03*
Y020516D02*
D03*
X024497Y021921D02*
D03*
Y022472D02*
D03*
X021838Y026165D02*
D03*
Y025614D02*
D03*
X033267Y026165D02*
D03*
Y025614D02*
D03*
X030885Y026165D02*
D03*
Y025614D02*
D03*
X027735Y026165D02*
D03*
Y025614D02*
D03*
X025373Y026165D02*
D03*
Y025614D02*
D03*
X033621Y012921D02*
D03*
Y01237D02*
D03*
X032822Y012921D02*
D03*
Y01237D02*
D03*
X032023Y012921D02*
D03*
Y01237D02*
D03*
X025424Y012287D02*
D03*
Y011736D02*
D03*
X024444Y014736D02*
D03*
Y014185D02*
D03*
X023787Y014736D02*
D03*
Y014185D02*
D03*
X026661Y013752D02*
D03*
Y013201D02*
D03*
D40*
X021922Y020201D02*
D03*
X021371D02*
D03*
X021369Y020881D02*
D03*
X02192D02*
D03*
X021922Y021522D02*
D03*
X021371D02*
D03*
X021922Y022182D02*
D03*
X021371D02*
D03*
X021922Y022843D02*
D03*
X021371D02*
D03*
X021921Y016492D02*
D03*
X02137D02*
D03*
X021369Y017138D02*
D03*
X02192D02*
D03*
X02192Y017791D02*
D03*
X021369D02*
D03*
X02192Y019063D02*
D03*
X021369D02*
D03*
X02192Y018433D02*
D03*
X021369D02*
D03*
X035586Y020496D02*
D03*
X036137D02*
D03*
X033767D02*
D03*
X034318D02*
D03*
X033766Y016862D02*
D03*
X034317D02*
D03*
X035585D02*
D03*
X036136D02*
D03*
X034317Y01611D02*
D03*
X034869D02*
D03*
X034318Y015461D02*
D03*
X034869D02*
D03*
X02434Y01316D02*
D03*
X023789D02*
D03*
D41*
X020497Y020204D02*
D03*
Y021505D02*
D03*
X020496Y016483D02*
D03*
Y017784D02*
D03*
X026661Y0112D02*
D03*
Y012501D02*
D03*
X019476Y01445D02*
D03*
Y013149D02*
D03*
D42*
X023674Y016776D02*
D03*
X022789Y016402D02*
D03*
Y01715D02*
D03*
X023674Y018689D02*
D03*
X022789Y018315D02*
D03*
Y019063D02*
D03*
X023674Y020512D02*
D03*
X022789Y020138D02*
D03*
Y020886D02*
D03*
X023676Y022469D02*
D03*
X022791Y022094D02*
D03*
Y022843D02*
D03*
D43*
X034326Y014736D02*
D03*
X035074D02*
D03*
Y013634D02*
D03*
X0347D02*
D03*
X034326D02*
D03*
D44*
X03242Y01674D02*
D03*
Y014354D02*
D03*
X020649Y025157D02*
D03*
X024192D02*
D03*
X026554D02*
D03*
X029704D02*
D03*
X032066D02*
D03*
D45*
X030881Y011902D02*
D03*
Y013083D02*
D03*
D46*
X025887Y013159D02*
D03*
X025513D02*
D03*
X025139D02*
D03*
Y014182D02*
D03*
X025513D02*
D03*
X025887D02*
D03*
D47*
X029422Y012934D02*
D03*
X027789D02*
D03*
D48*
X024145Y01235D02*
D03*
Y011287D02*
D03*
D49*
X021019Y014843D02*
D03*
X022672D02*
D03*
D50*
X020629Y013055D02*
D03*
X022676D02*
D03*
D51*
X030651Y021343D02*
D03*
Y021146D02*
D03*
Y020949D02*
D03*
Y020752D02*
D03*
Y020555D02*
D03*
Y020358D02*
D03*
Y020161D02*
D03*
Y019965D02*
D03*
Y019768D02*
D03*
Y019571D02*
D03*
Y019374D02*
D03*
Y019177D02*
D03*
X027482D02*
D03*
Y019374D02*
D03*
Y019571D02*
D03*
Y019768D02*
D03*
Y019965D02*
D03*
Y020161D02*
D03*
Y020358D02*
D03*
Y020555D02*
D03*
Y020752D02*
D03*
Y020949D02*
D03*
Y021146D02*
D03*
Y021343D02*
D03*
D52*
X030149Y018675D02*
D03*
X029952D02*
D03*
X029755D02*
D03*
X029558D02*
D03*
X029361D02*
D03*
X029165D02*
D03*
X028968D02*
D03*
X028771D02*
D03*
X028574D02*
D03*
X028377D02*
D03*
X02818D02*
D03*
X027983D02*
D03*
Y021844D02*
D03*
X02818D02*
D03*
X028377D02*
D03*
X028574D02*
D03*
X028771D02*
D03*
X028968D02*
D03*
X029165D02*
D03*
X029361D02*
D03*
X029558D02*
D03*
X029755D02*
D03*
X029952D02*
D03*
X030149D02*
D03*
D53*
X020649Y026157D02*
D03*
X024192D02*
D03*
X026554D02*
D03*
X029704D02*
D03*
X032066D02*
D03*
D54*
X017499Y014437D02*
D03*
Y016012D02*
D03*
D55*
Y026248D02*
D03*
Y02487D02*
D03*
Y023492D02*
D03*
Y019161D02*
D03*
Y021917D02*
D03*
Y017783D02*
D03*
Y020539D02*
D03*
D56*
X027755Y016106D02*
D03*
X029745D02*
D03*
X028765D02*
D03*
X026745D02*
D03*
D57*
X030755D02*
D03*
M02*
