M48
;Layer_Color=9474304
;FILE_FORMAT=2:4
INCH,LZ
;TYPE=PLATED
T1F00S00C0.0118
T2F00S00C0.0354
T3F00S00C0.0360
T4F00S00C0.0394
%
T01
X015448Y011677
Y012634
X01642
Y011677
X017393
Y012634
X018365
Y011677
X022283Y011858
X022537
X022792
X023046
X0236Y013677
X02395
X024301
X024652
X024791Y014738
X03242Y014354
X034322Y01419
X034696
X03507
X035298Y015468
X033633Y013444
X033628Y011894
X032813
X032018
X03445
X036779Y012047
X03746
Y012854
X036779
X038987Y014437
Y014988
X039669
Y014437
X040184Y016096
X040533
X040881
X038948Y01676
X037422Y01751
Y018533
X035954Y018789
X035946Y018277
X03595Y017766
X035172Y016862
X035306Y016126
X03242Y01674
X032375Y018027
X032857
Y018551
X032375
X031893
Y018027
X033361Y020154
Y0205
X033267Y022047
X032831
X032395
X031959
X031523
X035952Y021933
Y022445
X03595Y021423
X036763Y020547
X037141
X037519
X037418Y021167
X037422Y022191
X038948Y022272
Y021591
X039755
Y022272
X040519Y023256
X039606Y025866
Y026283
X038924
Y025866
X033271Y025232
X035172Y020504
X039389Y019752
X031231Y021343
X030893Y021756
Y02226
X030165Y021142
X029944Y019206
X028172Y019197
X028168Y020543
X027964Y021146
X027482Y021565
X026712Y020949
X024497Y021484
X022791Y021579
Y019528
X021922Y019845
X022789Y017722
X024495Y017717
X022789Y015785
X021921Y016146
X021838Y025209
X025373Y02522
X027731Y025232
X030885Y025205
X030149Y017602
T02
X017499Y014437
Y016012
Y017783
Y019161
Y020539
Y021917
Y023492
Y02487
Y026248
T03
X026745Y016106
X027755
X028765
X029745
X030755
T04
X032066Y025157
Y026157
X029704
Y025157
X026554
Y026157
X024192
Y025157
X020649
Y026157
M30
