G04*
G04 #@! TF.GenerationSoftware,Altium Limited,Altium Designer,21.2.1 (34)*
G04*
G04 Layer_Color=16711935*
%FSTAX24Y24*%
%MOIN*%
G70*
G04*
G04 #@! TF.SameCoordinates,4AC015DC-E3C4-4AC6-9BA4-5EE9E9B64A6E*
G04*
G04*
G04 #@! TF.FilePolarity,Negative*
G04*
G01*
G75*
%ADD46C,0.0671*%
%ADD47R,0.0680X0.1340*%
%ADD49R,0.0434X0.0395*%
%ADD51R,0.0552X0.1064*%
%ADD65R,0.0552X0.0474*%
%ADD66C,0.0474*%
%ADD68R,0.0395X0.0434*%
%ADD69R,0.0316X0.0533*%
%ADD70R,0.0474X0.0552*%
%ADD71C,0.0513*%
%ADD72C,0.0867*%
%ADD73R,0.0867X0.0867*%
%ADD74R,0.0671X0.0671*%
%ADD75C,0.0277*%
%ADD128R,0.0188X0.0178*%
%ADD129R,0.0178X0.0188*%
%ADD130R,0.0316X0.0277*%
%ADD131C,0.1064*%
%ADD132R,0.0474X0.0474*%
%ADD133R,0.0513X0.0946*%
%ADD134R,0.0789X0.1261*%
%ADD135R,0.0178X0.0208*%
%ADD136R,0.0159X0.0208*%
%ADD137R,0.0178X0.0178*%
%ADD138R,0.0395X0.0198*%
%ADD139R,0.0198X0.0395*%
%ADD140R,0.0395X0.0474*%
%ADD141O,0.0710X0.0316*%
%ADD142O,0.0316X0.0710*%
%ADD143R,0.0867X0.0867*%
%ADD144R,0.0308X0.0828*%
%ADD145R,0.0308X0.0946*%
%ADD146R,0.0336X0.0525*%
%ADD147R,0.0375X0.0525*%
%ADD148R,0.0277X0.0316*%
%ADD149R,0.0130X0.0315*%
D46*
X061553Y08472D02*
D03*
X060553D02*
D03*
X059553D02*
D03*
D47*
X04933Y06723D02*
D03*
X048239D02*
D03*
X047149D02*
D03*
X046058D02*
D03*
D49*
X060551Y070482D02*
D03*
Y071033D02*
D03*
X051326Y093273D02*
D03*
Y092722D02*
D03*
X049221Y094367D02*
D03*
Y093815D02*
D03*
X049221Y092776D02*
D03*
Y093327D02*
D03*
X04796Y092404D02*
D03*
Y092956D02*
D03*
X050043Y068454D02*
D03*
Y069005D02*
D03*
X05499Y078371D02*
D03*
Y07782D02*
D03*
X053909Y078371D02*
D03*
Y07782D02*
D03*
X054268Y07314D02*
D03*
Y073691D02*
D03*
X053628Y07314D02*
D03*
Y073691D02*
D03*
X052892Y072135D02*
D03*
Y071584D02*
D03*
X062251Y071076D02*
D03*
Y070525D02*
D03*
X062894Y071076D02*
D03*
Y070525D02*
D03*
X061528Y071076D02*
D03*
Y070525D02*
D03*
X058985Y071087D02*
D03*
Y070536D02*
D03*
X058293Y070525D02*
D03*
Y071076D02*
D03*
X059619Y07106D02*
D03*
Y070509D02*
D03*
X055093Y071076D02*
D03*
Y070525D02*
D03*
X056375Y071076D02*
D03*
Y070525D02*
D03*
X057933Y073295D02*
D03*
Y073846D02*
D03*
X061334Y076995D02*
D03*
Y077547D02*
D03*
X057107Y071076D02*
D03*
Y070525D02*
D03*
X062554Y073297D02*
D03*
Y073848D02*
D03*
X056886Y073295D02*
D03*
Y073846D02*
D03*
X061134Y073297D02*
D03*
Y073848D02*
D03*
X055479Y073297D02*
D03*
Y073848D02*
D03*
X059713Y073297D02*
D03*
Y073848D02*
D03*
X055718Y070525D02*
D03*
Y071076D02*
D03*
X058689Y073846D02*
D03*
Y073295D02*
D03*
X050242Y093777D02*
D03*
Y094328D02*
D03*
X050256Y092738D02*
D03*
Y093289D02*
D03*
X051324Y093761D02*
D03*
Y094312D02*
D03*
X060694Y087397D02*
D03*
Y086846D02*
D03*
D51*
X056265Y0666D02*
D03*
X055083D02*
D03*
X058974D02*
D03*
X060155D02*
D03*
D65*
X050043Y069565D02*
D03*
Y070865D02*
D03*
X061553Y086844D02*
D03*
Y085543D02*
D03*
D66*
X046984Y093824D02*
D03*
X04796Y093815D02*
D03*
D68*
X05499Y080265D02*
D03*
X055541D02*
D03*
X049213Y080597D02*
D03*
X049764D02*
D03*
X052296Y081001D02*
D03*
X051745D02*
D03*
X0523Y080472D02*
D03*
X051749D02*
D03*
X054862Y081035D02*
D03*
X054311D02*
D03*
X053245D02*
D03*
X053796D02*
D03*
X051319Y077878D02*
D03*
X050768D02*
D03*
X051319Y077327D02*
D03*
X050768D02*
D03*
X049213Y0812D02*
D03*
X049764D02*
D03*
X051947Y074235D02*
D03*
X052498D02*
D03*
X051719Y072135D02*
D03*
X05227D02*
D03*
X051719Y071584D02*
D03*
X05227D02*
D03*
X052831Y094313D02*
D03*
X05228D02*
D03*
X046018Y083621D02*
D03*
X045467D02*
D03*
X045494Y083039D02*
D03*
X046045D02*
D03*
X045494Y082399D02*
D03*
X046045D02*
D03*
X06224Y069815D02*
D03*
X061689D02*
D03*
X049213Y079895D02*
D03*
X049764D02*
D03*
X050892Y073499D02*
D03*
X050341D02*
D03*
X050892Y072858D02*
D03*
X050341D02*
D03*
D69*
X049114Y079181D02*
D03*
X049862D02*
D03*
X049488Y078296D02*
D03*
X05099Y079438D02*
D03*
X050616Y078552D02*
D03*
X051364D02*
D03*
X053894Y071628D02*
D03*
X054268Y072514D02*
D03*
X05352D02*
D03*
X052518Y073583D02*
D03*
X052144Y072697D02*
D03*
X052892D02*
D03*
X050242Y072273D02*
D03*
X05099D02*
D03*
X050616Y071387D02*
D03*
X060098Y071762D02*
D03*
X05935D02*
D03*
X059724Y072648D02*
D03*
X055846Y071762D02*
D03*
X055098D02*
D03*
X055472Y072648D02*
D03*
X061516Y071762D02*
D03*
X060768D02*
D03*
X061142Y072648D02*
D03*
X062933Y071762D02*
D03*
X062185D02*
D03*
X062559Y072648D02*
D03*
X057264Y071762D02*
D03*
X056516D02*
D03*
X05689Y072648D02*
D03*
X057933Y072648D02*
D03*
X058681D02*
D03*
X058307Y071762D02*
D03*
D70*
X056363Y069815D02*
D03*
X055062D02*
D03*
X059459Y069811D02*
D03*
X06076D02*
D03*
D71*
X05874Y092864D02*
D03*
D72*
X052518Y069739D02*
D03*
D73*
X048839Y089843D02*
D03*
X050335D02*
D03*
X051831D02*
D03*
X053327D02*
D03*
X054823D02*
D03*
X053327Y083858D02*
D03*
X051831D02*
D03*
X050335D02*
D03*
X048839D02*
D03*
Y085433D02*
D03*
X052518Y067739D02*
D03*
D74*
X058553Y08472D02*
D03*
D75*
X052206Y083218D02*
D03*
X042604Y083602D02*
D03*
X043876Y084774D02*
D03*
D128*
X054286Y079392D02*
D03*
Y079195D02*
D03*
X054887D02*
D03*
Y079392D02*
D03*
D129*
X054291Y078993D02*
D03*
X054488D02*
D03*
X054685D02*
D03*
X054882D02*
D03*
Y079593D02*
D03*
X054685D02*
D03*
X054488D02*
D03*
X054291D02*
D03*
D130*
X059432Y089602D02*
D03*
X059038D02*
D03*
X060503Y089602D02*
D03*
X060896D02*
D03*
X058008Y090797D02*
D03*
X058402D02*
D03*
X0601Y092837D02*
D03*
X059706D02*
D03*
X046221Y08764D02*
D03*
X045828D02*
D03*
X045433Y08685D02*
D03*
X045827D02*
D03*
D131*
X05874Y092864D02*
D03*
D132*
X045827Y088186D02*
D03*
D133*
X045256Y088776D02*
D03*
X046398D02*
D03*
D134*
X052512Y066993D02*
D03*
Y070536D02*
D03*
D135*
X059432Y090788D02*
D03*
Y090562D02*
D03*
D136*
X059599Y090788D02*
D03*
Y090562D02*
D03*
D137*
X059767Y090675D02*
D03*
D138*
X052116Y079546D02*
D03*
Y079349D02*
D03*
Y079743D02*
D03*
X05312Y079546D02*
D03*
Y079743D02*
D03*
Y079349D02*
D03*
D139*
X052224Y079034D02*
D03*
X052421D02*
D03*
X052618D02*
D03*
X052815D02*
D03*
X053012D02*
D03*
X052618Y080058D02*
D03*
X052421D02*
D03*
X052224D02*
D03*
X052815D02*
D03*
X053012D02*
D03*
D140*
X051555Y082992D02*
D03*
D141*
X047106Y083303D02*
D03*
Y08291D02*
D03*
Y082516D02*
D03*
X056555Y089996D02*
D03*
Y089602D02*
D03*
Y089209D02*
D03*
Y088815D02*
D03*
Y088421D02*
D03*
Y088028D02*
D03*
Y087634D02*
D03*
Y08724D02*
D03*
Y086846D02*
D03*
Y086453D02*
D03*
Y086059D02*
D03*
Y085665D02*
D03*
Y085272D02*
D03*
Y084878D02*
D03*
Y084484D02*
D03*
Y084091D02*
D03*
Y083697D02*
D03*
X047106D02*
D03*
Y084091D02*
D03*
Y084484D02*
D03*
Y084878D02*
D03*
Y085272D02*
D03*
Y085665D02*
D03*
Y086059D02*
D03*
Y086453D02*
D03*
Y086846D02*
D03*
Y08724D02*
D03*
Y087634D02*
D03*
Y088028D02*
D03*
Y088421D02*
D03*
Y088815D02*
D03*
Y089209D02*
D03*
Y089602D02*
D03*
Y089996D02*
D03*
X056555Y09039D02*
D03*
X056555Y090787D02*
D03*
Y091181D02*
D03*
Y082516D02*
D03*
Y082909D02*
D03*
Y083303D02*
D03*
X047106Y091181D02*
D03*
Y090787D02*
D03*
Y090394D02*
D03*
D142*
X048681Y091571D02*
D03*
X049075D02*
D03*
X049468D02*
D03*
X049862D02*
D03*
X050256D02*
D03*
X05065D02*
D03*
X051043D02*
D03*
X051437D02*
D03*
X051831D02*
D03*
X052224D02*
D03*
X052618D02*
D03*
X053012D02*
D03*
X053405D02*
D03*
X053799D02*
D03*
X054193D02*
D03*
X054587D02*
D03*
X05498D02*
D03*
Y082122D02*
D03*
X054587D02*
D03*
X054193D02*
D03*
X053799D02*
D03*
X053405D02*
D03*
X053012D02*
D03*
X052618D02*
D03*
X052224D02*
D03*
X051831D02*
D03*
X051437D02*
D03*
X051043D02*
D03*
X05065D02*
D03*
X050256D02*
D03*
X049862D02*
D03*
X049468D02*
D03*
X049075D02*
D03*
X048681D02*
D03*
D143*
X054823Y088347D02*
D03*
Y086851D02*
D03*
Y085355D02*
D03*
Y083858D02*
D03*
X053327Y086851D02*
D03*
X051831Y088347D02*
D03*
X048839D02*
D03*
Y086851D02*
D03*
X051831Y085355D02*
D03*
X050335Y086851D02*
D03*
D144*
X049622Y100551D02*
D03*
X05474D02*
D03*
D145*
Y095827D02*
D03*
X049622D02*
D03*
D146*
X053157Y095242D02*
D03*
D147*
X050283D02*
D03*
X052783D02*
D03*
X052283D02*
D03*
X051783D02*
D03*
X051283D02*
D03*
X050783D02*
D03*
D148*
X060568Y0918D02*
D03*
Y092193D02*
D03*
X058875Y0904D02*
D03*
Y090794D02*
D03*
X04626Y086457D02*
D03*
Y08685D02*
D03*
X057478Y090794D02*
D03*
Y0904D02*
D03*
X045827Y086824D02*
D03*
Y087217D02*
D03*
X045Y08685D02*
D03*
Y086457D02*
D03*
D149*
X060189Y09067D02*
D03*
X060386D02*
D03*
X060583D02*
D03*
Y091036D02*
D03*
X060386D02*
D03*
X060189D02*
D03*
M02*
