M48
;Layer_Color=9474304
;FILE_FORMAT=2:4
INCH,LZ
;TYPE=PLATED
T1F00S00C0.0118
T2F00S00C0.0315
T3F00S00C0.0350
T4F00S00C0.0354
T5F00S00C0.0394
%
T01
X041806Y069562
X042381Y06956
X042981
X04358
X04418
X04478
X045379
X045979
X046579
X04544Y075079
X047428Y075074
X048007Y074657
Y074057
Y073458
Y072858
X048014Y072389
X047995Y072015
X048007Y071374
Y070775
Y070175
X047778Y06956
X047178
X047096Y06825
X049261Y069562
X050616Y069565
X052097Y068562
X052913Y068552
X053385Y067519
X054696Y067739
X055083Y068241
X055335Y068871
X056831Y068861
X056587Y06781
X057187
X057787
X058251Y067816
X05849Y068157
X059724Y068178
Y068448
X060032
Y068178
Y067908
X060339
X060339Y068178
Y068448
X060358Y069515
X058974Y069251
X059724Y067908
X061622Y066694
X062389Y066482
Y067206
X061011Y071194
X061113Y074181
X061762Y074547
X061661Y075696
X06183Y077267
X060867Y07689
X060229Y07783
X060188Y07812
X059803
Y07783
X05941
X058913Y076273
X059112Y075465
X058385Y075615
Y074454
X057445Y073887
X05676Y074282
X055481Y074365
X054128Y07438
X054239Y075895
X053174Y075606
X052097Y075532
Y075896
X051733Y075762
Y075374
X051342Y075511
X051389Y075167
X052097Y075133
X051342Y075903
X050198Y075895
X0502Y07438
X050533Y074187
X049261Y073899
X049794Y072655
X051379Y072858
X051692Y071168
X053971Y070051
X054128Y069354
X054239Y066714
Y066297
X052645Y065562
X055988Y06781
X056989Y070057
X057546Y070666
X057883Y070865
X05676Y075895
X05551Y0777
X054808Y077159
X053357Y077267
Y0777
X051161Y07689
X048014
Y076355
Y077496
Y078096
X052913Y073579
X062554Y074235
Y071702
Y069098
Y077581
X060775Y078126
X060207Y078412
X05978
X059383
X059387Y078126
X058553
X05802Y078482
X057597Y079155
X058014Y079621
X059801Y079969
X061334Y079155
X056847Y078412
X055442Y078371
X05551Y079214
X055541Y079548
X055442Y081015
X054488Y080138
X054059Y079888
X05352Y079969
X053473Y080303
X053628Y079392
X053327Y078371
X052813Y078552
X052419
X051947Y078428
X052936Y081423
X05301Y082768
X053174Y083095
X052618Y083014
X052206Y083218
X052029Y082826
X05112Y083071
X049948Y082992
X049536Y083071
X04796
X048073Y083602
X048073Y0849
X047784Y084878
Y085272
X048094
Y08567
X047784Y085665
X04796Y086357
X047919Y087037
X047859Y087635
X047851Y088254
X047872Y088736
X048014Y089996
X047878Y090787
X048639Y090598
X049132Y090576
X049948Y092228
X050335
X051183
X051541
X051818Y093128
X052293Y093399
X052936Y093348
X053379
X053157Y092999
X053379Y092602
X052936
X053012Y091083
X053405Y090479
X053815Y090767
X054736Y090938
X05551Y090798
X057154Y091036
X057536Y091255
X057919Y09114
X058301
X058684
X059067
X059432Y091255
X059879Y091181
X059803Y09158
Y091945
X059432
X059377Y092348
X059706Y092457
X0601Y09245
X060189Y092088
X060212Y091696
X060937Y091541
Y091945
Y092348
X060895Y09273
X061282Y092663
X061352Y092202
Y0918
X061282Y091373
X061352Y090938
Y09048
X060937Y09033
Y090733
Y091137
X061149Y089996
X0601Y08988
Y09033
X059803Y090153
X059275
X058414Y089996
X058402Y09039
X057919
Y089996
X057262
X057154Y0904
X058512Y089611
X058357Y0918
X058268Y092201
X058639Y092088
X059067
X058875Y0918
X057919Y091945
X057759Y092254
X058005Y092481
X057919Y09283
Y093191
X058078Y093492
X057626
X057536Y093065
X057547Y092663
X05587Y093065
X059123Y093644
X059432Y093437
X059803Y093586
X059767Y093191
X060175
X060284Y093527
X060808Y093399
X060583Y093065
X061086
X062402Y093423
Y091776
Y090128
X059767Y088027
X059123Y087397
X05802Y08736
X057626Y087528
X057262Y086697
X055739Y086491
X05587Y08527
X055635Y084079
X05587Y083095
X053883Y084504
Y085182
X054078Y08626
X051324
X050783Y085981
X049862Y085772
X0502Y081139
X048439Y081526
X047918Y081567
X048014Y081094
X048317Y080807
X048014Y080494
Y079895
Y079295
Y078695
X048183Y082058
X047319Y081567
X05112Y08988
X052607Y089826
X055646Y088186
X059803Y083095
X050783Y093128
X049707Y093031
X046873Y092538
X045494Y092278
Y091679
Y091079
Y090479
Y08988
X045972Y089648
X045006
X044919Y087828
X045392
X045378Y087301
X044931
X045392Y086362
X045827Y086357
X045006Y085906
X044877Y08549
X044277
X043677
X043078
X042478
X041878
X042767Y084635
X042604Y083602
X043706Y083514
X043677Y08253
X043721Y081567
X043121
X042521
X041922
X042604Y082266
X04432Y081567
X04492
X04552
X046119
X046719
X046137Y08416
X045827
X045006Y084706
X043876Y084774
X04644Y087301
X046442Y087996
X045494Y092878
Y093478
Y094077
Y094677
Y095277
Y095876
Y096476
Y097076
X045891Y097432
X046282Y097828
X046192Y096449
X047363Y094513
X046984Y093824
X04796Y093815
X04923Y095126
X049288Y096754
X049229Y097118
X049132Y097828
X051329Y098681
X052977Y098569
X053627
X054823
X055238Y098568
Y09699
X054638
X054038
X053439
X052839
X053272Y096095
X053439Y094513
X055701Y094706
X055739Y09592
X057386
X057348Y094706
X057919Y093815
X058357Y093761
X058344Y094118
X058774
X05874Y093777
X059104Y094002
X059432Y093815
X058996Y094706
X059034Y09592
X060681
X060643Y094706
X062291
X062329Y09592
X061725Y0972
X0601
X05815
X05646
X057626Y099094
T02
X052518Y067739
T03
X052518Y069739
T04
X058553Y08472
X059553
X060553
X061553
T05
X05874Y092864
M30
