G04*
G04 #@! TF.GenerationSoftware,Altium Limited,Altium Designer,21.2.1 (34)*
G04*
G04 Layer_Color=32768*
%FSTAX24Y24*%
%MOIN*%
G70*
G04*
G04 #@! TF.SameCoordinates,4AC015DC-E3C4-4AC6-9BA4-5EE9E9B64A6E*
G04*
G04*
G04 #@! TF.FilePolarity,Positive*
G04*
G01*
G75*
%ADD11C,0.0079*%
%ADD12C,0.0098*%
%ADD15C,0.0050*%
%ADD155C,0.0059*%
D11*
X046263Y097118D02*
G03*
X046263Y097118I-000039J0D01*
G01*
D12*
X051578Y085987D02*
Y086487D01*
X051328Y086237D02*
X051828D01*
X057113Y081542D02*
Y082042D01*
X056863Y081792D02*
X057363D01*
D15*
X0465Y097352D02*
X048862D01*
Y095383D02*
Y097352D01*
X0465Y095383D02*
X048862D01*
X0465D02*
Y097352D01*
D155*
X052877Y084869D02*
Y087625D01*
X050279Y084869D02*
X052877D01*
X050279D02*
Y087625D01*
X052877D01*
X062991Y0739D02*
Y075987D01*
X060668D02*
X062991D01*
X060668Y0739D02*
Y075987D01*
Y0739D02*
X062991D01*
X061633Y074944D02*
X062027D01*
X06183Y074747D02*
Y075141D01*
X055814Y080404D02*
Y08316D01*
X058412D01*
Y080404D02*
Y08316D01*
X055814Y080404D02*
X058412D01*
M02*
