G04*
G04 #@! TF.GenerationSoftware,Altium Limited,Altium Designer,21.2.1 (34)*
G04*
G04 Layer_Color=65535*
%FSTAX24Y24*%
%MOIN*%
G70*
G04*
G04 #@! TF.SameCoordinates,4AC015DC-E3C4-4AC6-9BA4-5EE9E9B64A6E*
G04*
G04*
G04 #@! TF.FilePolarity,Positive*
G04*
G01*
G75*
%ADD10C,0.0070*%
%ADD11C,0.0079*%
%ADD12C,0.0098*%
%ADD13C,0.0039*%
%ADD14C,0.0070*%
%ADD15C,0.0050*%
%ADD16C,0.0100*%
%ADD17R,0.2420X0.0330*%
%ADD18R,0.0397X0.0040*%
%ADD19R,0.0690X0.0180*%
%ADD20R,0.0180X0.0690*%
G36*
X058555Y086189D02*
X058559Y086189D01*
X058563Y086189D01*
X058569Y086188D01*
X058574Y086187D01*
X05858Y086186D01*
X058587Y086185D01*
X058601Y086182D01*
X058608Y08618D01*
X058615Y086177D01*
X058622Y086175D01*
X05863Y086171D01*
X05863Y086171D01*
X058631Y08617D01*
X058633Y086169D01*
X058636Y086168D01*
X058639Y086166D01*
X058643Y086164D01*
X058647Y086161D01*
X058651Y086158D01*
X058656Y086154D01*
X05866Y08615D01*
X058665Y086146D01*
X05867Y086141D01*
X058675Y086136D01*
X058679Y086131D01*
X058683Y086125D01*
X058687Y086119D01*
X058687Y086118D01*
X058687Y086117D01*
X058688Y086115D01*
X05869Y086112D01*
X058691Y086109D01*
X058693Y086105D01*
X058694Y086101D01*
X058696Y086096D01*
X058698Y08609D01*
X0587Y086084D01*
X058701Y086077D01*
X058702Y08607D01*
X058704Y086063D01*
X058705Y086055D01*
X058705Y086047D01*
X058705Y086039D01*
Y086033D01*
X058705Y08603D01*
X058705Y086027D01*
X058704Y086023D01*
X058704Y086019D01*
X058703Y08601D01*
X058701Y086D01*
X058698Y085989D01*
X058695Y085979D01*
Y085979D01*
X058694Y085978D01*
X058694Y085977D01*
X058693Y085975D01*
X058692Y085973D01*
X05869Y08597D01*
X058687Y085964D01*
X058683Y085957D01*
X058678Y08595D01*
X058672Y085944D01*
X058665Y085938D01*
X058665Y085937D01*
X058664Y085937D01*
X058663Y085936D01*
X058662Y085935D01*
X05866Y085934D01*
X058658Y085932D01*
X058655Y085931D01*
X058652Y085929D01*
X058648Y085927D01*
X058645Y085925D01*
X05864Y085923D01*
X058636Y085921D01*
X058626Y085918D01*
X058616Y085915D01*
X058606Y085951D01*
X058606D01*
X058607Y085951D01*
X058608Y085952D01*
X05861Y085952D01*
X058611Y085953D01*
X058614Y085954D01*
X058619Y085956D01*
X058625Y085958D01*
X058631Y085961D01*
X058637Y085964D01*
X058642Y085968D01*
X058642Y085968D01*
X058644Y08597D01*
X058646Y085972D01*
X05865Y085975D01*
X058653Y08598D01*
X058657Y085984D01*
X05866Y08599D01*
X058663Y085997D01*
Y085997D01*
X058663Y085998D01*
X058664Y085999D01*
X058664Y086D01*
X058665Y086002D01*
X058666Y086004D01*
X058667Y086009D01*
X058669Y086015D01*
X05867Y086022D01*
X058671Y08603D01*
X058671Y086038D01*
Y086043D01*
X058671Y086045D01*
Y086048D01*
X058671Y086051D01*
X05867Y086055D01*
X058669Y086062D01*
X058668Y08607D01*
X058666Y086078D01*
X058663Y086086D01*
Y086086D01*
X058662Y086087D01*
X058662Y086088D01*
X058661Y086089D01*
X05866Y086093D01*
X058657Y086097D01*
X058654Y086103D01*
X05865Y086108D01*
X058645Y086113D01*
X05864Y086118D01*
X05864Y086119D01*
X058638Y08612D01*
X058635Y086123D01*
X058632Y086125D01*
X058627Y086128D01*
X058622Y086131D01*
X058617Y086134D01*
X058611Y086137D01*
X05861D01*
X058609Y086137D01*
X058608Y086138D01*
X058606Y086139D01*
X058603Y08614D01*
X0586Y086141D01*
X058597Y086142D01*
X058593Y086143D01*
X058588Y086144D01*
X058583Y086145D01*
X058573Y086146D01*
X058562Y086148D01*
X05855Y086148D01*
X058549D01*
X058548D01*
X058546D01*
X058543Y086148D01*
X058539D01*
X058536Y086148D01*
X058531Y086147D01*
X058526Y086147D01*
X058515Y086145D01*
X058504Y086143D01*
X058493Y086139D01*
X058482Y086135D01*
X058481Y086134D01*
X05848Y086134D01*
X058479Y086133D01*
X058477Y086132D01*
X058475Y086131D01*
X058473Y086129D01*
X058467Y086124D01*
X05846Y086119D01*
X058453Y086112D01*
X058447Y086104D01*
X058444Y086099D01*
X058441Y086094D01*
Y086094D01*
X058441Y086093D01*
X05844Y086092D01*
X058439Y08609D01*
X058438Y086087D01*
X058437Y086084D01*
X058436Y086081D01*
X058435Y086077D01*
X058434Y086073D01*
X058433Y086069D01*
X05843Y086059D01*
X058429Y086049D01*
X058428Y086038D01*
Y086035D01*
X058429Y086033D01*
Y086031D01*
X058429Y086028D01*
X058429Y086025D01*
X05843Y086021D01*
X058431Y086014D01*
X058433Y086005D01*
X058435Y085996D01*
X058438Y085987D01*
Y085987D01*
X058438Y085986D01*
X058439Y085985D01*
X05844Y085983D01*
X058441Y085981D01*
X058442Y085979D01*
X058445Y085973D01*
X058448Y085967D01*
X058452Y08596D01*
X058455Y085955D01*
X058459Y085949D01*
X058516D01*
Y086038D01*
X058552D01*
Y08591D01*
X058439D01*
X058439Y08591D01*
X058438Y085911D01*
X058437Y085913D01*
X058435Y085915D01*
X058434Y085918D01*
X058432Y085921D01*
X058429Y085925D01*
X058426Y085929D01*
X058424Y085933D01*
X058421Y085938D01*
X058415Y085948D01*
X058409Y085959D01*
X058404Y085971D01*
Y085971D01*
X058404Y085972D01*
X058403Y085974D01*
X058402Y085977D01*
X058402Y085979D01*
X058401Y085983D01*
X058399Y085986D01*
X058398Y085991D01*
X058397Y085996D01*
X058396Y086001D01*
X058394Y086011D01*
X058393Y086023D01*
X058393Y086035D01*
Y08604D01*
X058393Y086043D01*
X058393Y086047D01*
X058394Y086051D01*
X058394Y086057D01*
X058395Y086062D01*
X058396Y086068D01*
X058397Y086075D01*
X058399Y086081D01*
X058401Y086088D01*
X058403Y086095D01*
X058405Y086102D01*
X058408Y086109D01*
X058412Y086116D01*
X058412Y086117D01*
X058413Y086118D01*
X058414Y08612D01*
X058415Y086122D01*
X058417Y086125D01*
X058419Y086129D01*
X058422Y086133D01*
X058426Y086137D01*
X058429Y086141D01*
X058434Y086146D01*
X058438Y08615D01*
X058443Y086155D01*
X058448Y086159D01*
X058454Y086164D01*
X05846Y086168D01*
X058467Y086171D01*
X058467Y086172D01*
X058468Y086172D01*
X05847Y086173D01*
X058473Y086174D01*
X058476Y086176D01*
X05848Y086177D01*
X058485Y086179D01*
X05849Y086181D01*
X058496Y086182D01*
X058502Y086184D01*
X058509Y086186D01*
X058516Y086187D01*
X058523Y086188D01*
X058531Y086189D01*
X058539Y086189D01*
X058547Y08619D01*
X058548D01*
X058549D01*
X058552D01*
X058555Y086189D01*
D02*
G37*
G36*
X0587Y08581D02*
X058462Y085651D01*
X0587D01*
Y085613D01*
X058397D01*
Y085654D01*
X058635Y085813D01*
X058397D01*
Y085851D01*
X0587D01*
Y08581D01*
D02*
G37*
G36*
Y085433D02*
X0587Y085429D01*
Y085426D01*
X0587Y085422D01*
X058699Y085413D01*
X058698Y085404D01*
X058697Y085395D01*
X058696Y085391D01*
X058696Y085387D01*
Y085387D01*
X058695Y085386D01*
X058695Y085385D01*
X058694Y085383D01*
X058694Y085381D01*
X058693Y085378D01*
X058691Y085372D01*
X058688Y085365D01*
X058684Y085358D01*
X05868Y08535D01*
X058674Y085343D01*
X058674Y085343D01*
X058673Y085342D01*
X058672Y085341D01*
X05867Y085339D01*
X058668Y085337D01*
X058666Y085335D01*
X058663Y085332D01*
X05866Y08533D01*
X058656Y085327D01*
X058652Y085324D01*
X058648Y085321D01*
X058643Y085318D01*
X058633Y085312D01*
X058622Y085307D01*
X058622D01*
X058621Y085307D01*
X058619Y085306D01*
X058617Y085305D01*
X058614Y085304D01*
X05861Y085304D01*
X058606Y085303D01*
X058601Y085301D01*
X058596Y0853D01*
X058591Y085299D01*
X058585Y085298D01*
X058579Y085297D01*
X058572Y085296D01*
X058565Y085296D01*
X05855Y085295D01*
X05855D01*
X058549D01*
X058547D01*
X058544D01*
X058541Y085296D01*
X058538D01*
X058534Y085296D01*
X05853Y085296D01*
X05852Y085297D01*
X05851Y085299D01*
X058499Y085301D01*
X058489Y085304D01*
X058489D01*
X058488Y085304D01*
X058486Y085304D01*
X058485Y085305D01*
X058482Y085306D01*
X05848Y085307D01*
X058474Y085309D01*
X058467Y085312D01*
X058459Y085316D01*
X058452Y08532D01*
X058445Y085324D01*
X058445D01*
X058444Y085325D01*
X058443Y085325D01*
X058442Y085326D01*
X058439Y085329D01*
X058435Y085332D01*
X058431Y085336D01*
X058426Y085341D01*
X058422Y085346D01*
X058417Y085352D01*
Y085352D01*
X058417Y085352D01*
X058416Y085354D01*
X058414Y085358D01*
X058412Y085362D01*
X05841Y085367D01*
X058407Y085373D01*
X058405Y085381D01*
X058402Y085388D01*
Y085388D01*
X058402Y085389D01*
Y08539D01*
X058402Y085392D01*
X058401Y085394D01*
X058401Y085396D01*
X0584Y085399D01*
X0584Y085402D01*
X058399Y085409D01*
X058398Y085417D01*
X058398Y085427D01*
X058397Y085436D01*
Y085546D01*
X0587D01*
Y085433D01*
D02*
G37*
G36*
X060729Y085991D02*
X060729Y085987D01*
Y085983D01*
X060729Y08598D01*
X060728Y085971D01*
X060728Y085962D01*
X060727Y085953D01*
X060726Y085949D01*
X060725Y085945D01*
Y085945D01*
X060725Y085944D01*
X060724Y085943D01*
X060724Y085941D01*
X060723Y085939D01*
X060722Y085936D01*
X06072Y08593D01*
X060717Y085923D01*
X060713Y085916D01*
X060709Y085908D01*
X060703Y085901D01*
X060703Y085901D01*
X060702Y0859D01*
X060701Y085899D01*
X0607Y085897D01*
X060698Y085895D01*
X060695Y085893D01*
X060692Y08589D01*
X060689Y085888D01*
X060686Y085885D01*
X060682Y085882D01*
X060677Y085879D01*
X060673Y085876D01*
X060663Y08587D01*
X060651Y085865D01*
X060651D01*
X06065Y085865D01*
X060648Y085864D01*
X060646Y085863D01*
X060643Y085862D01*
X060639Y085861D01*
X060635Y085861D01*
X060631Y085859D01*
X060625Y085858D01*
X06062Y085857D01*
X060614Y085856D01*
X060608Y085855D01*
X060601Y085854D01*
X060594Y085854D01*
X06058Y085853D01*
X060579D01*
X060578D01*
X060576D01*
X060574D01*
X060571Y085854D01*
X060567D01*
X060563Y085854D01*
X060559Y085854D01*
X060549Y085855D01*
X060539Y085857D01*
X060529Y085859D01*
X060518Y085861D01*
X060518D01*
X060517Y085862D01*
X060516Y085862D01*
X060514Y085863D01*
X060512Y085864D01*
X060509Y085865D01*
X060503Y085867D01*
X060496Y08587D01*
X060488Y085874D01*
X060481Y085878D01*
X060474Y085882D01*
X060474D01*
X060474Y085883D01*
X060473Y085883D01*
X060471Y085884D01*
X060468Y085887D01*
X060464Y08589D01*
X06046Y085894D01*
X060455Y085899D01*
X060451Y085904D01*
X060447Y08591D01*
Y08591D01*
X060446Y08591D01*
X060445Y085912D01*
X060443Y085916D01*
X060441Y08592D01*
X060439Y085925D01*
X060436Y085931D01*
X060434Y085939D01*
X060432Y085946D01*
Y085946D01*
X060431Y085947D01*
Y085948D01*
X060431Y08595D01*
X060431Y085952D01*
X06043Y085954D01*
X06043Y085957D01*
X060429Y08596D01*
X060428Y085967D01*
X060427Y085975D01*
X060427Y085984D01*
X060427Y085994D01*
Y086104D01*
X060729D01*
Y085991D01*
D02*
G37*
G36*
Y085674D02*
X060729Y085667D01*
X060729Y085659D01*
X060728Y085652D01*
X060728Y085645D01*
X060727Y085641D01*
X060727Y085638D01*
Y085638D01*
X060726Y085637D01*
Y085636D01*
X060726Y085635D01*
X060725Y085633D01*
X060725Y08563D01*
X060723Y085625D01*
X060721Y085619D01*
X060719Y085613D01*
X060716Y085607D01*
X060712Y085601D01*
Y0856D01*
X060712Y0856D01*
X06071Y085598D01*
X060708Y085595D01*
X060705Y085592D01*
X060701Y085588D01*
X060695Y085584D01*
X06069Y08558D01*
X060683Y085576D01*
X060683D01*
X060682Y085576D01*
X060681Y085575D01*
X06068Y085575D01*
X060678Y085574D01*
X060676Y085574D01*
X060671Y085572D01*
X060665Y08557D01*
X060658Y085568D01*
X06065Y085567D01*
X060642Y085567D01*
X060641D01*
X06064D01*
X060638D01*
X060635Y085567D01*
X060632Y085568D01*
X060628Y085568D01*
X060624Y085569D01*
X060619Y08557D01*
X060614Y085571D01*
X060609Y085573D01*
X060604Y085575D01*
X060598Y085577D01*
X060592Y08558D01*
X060587Y085583D01*
X060582Y085587D01*
X060576Y085592D01*
X060576Y085592D01*
X060575Y085593D01*
X060574Y085594D01*
X060572Y085596D01*
X06057Y085599D01*
X060568Y085603D01*
X060565Y085607D01*
X060563Y085612D01*
X060561Y085618D01*
X060558Y085624D01*
X060556Y085632D01*
X060554Y085639D01*
X060552Y085649D01*
X060551Y085658D01*
X06055Y085669D01*
X06055Y085681D01*
Y085758D01*
X060427D01*
Y085798D01*
X060729D01*
Y085674D01*
D02*
G37*
G36*
X059719Y085991D02*
X059719Y085987D01*
Y085983D01*
X059719Y08598D01*
X059718Y085971D01*
X059717Y085962D01*
X059716Y085953D01*
X059715Y085949D01*
X059715Y085945D01*
Y085945D01*
X059714Y085944D01*
X059714Y085943D01*
X059713Y085941D01*
X059713Y085939D01*
X059712Y085936D01*
X05971Y08593D01*
X059707Y085923D01*
X059703Y085916D01*
X059699Y085908D01*
X059693Y085901D01*
X059693Y085901D01*
X059692Y0859D01*
X059691Y085899D01*
X059689Y085897D01*
X059687Y085895D01*
X059685Y085893D01*
X059682Y08589D01*
X059679Y085888D01*
X059675Y085885D01*
X059671Y085882D01*
X059667Y085879D01*
X059663Y085876D01*
X059652Y08587D01*
X059641Y085865D01*
X059641D01*
X05964Y085865D01*
X059638Y085864D01*
X059636Y085863D01*
X059633Y085862D01*
X059629Y085861D01*
X059625Y085861D01*
X059621Y085859D01*
X059615Y085858D01*
X05961Y085857D01*
X059604Y085856D01*
X059598Y085855D01*
X059591Y085854D01*
X059584Y085854D01*
X059569Y085853D01*
X059569D01*
X059568D01*
X059566D01*
X059563D01*
X059561Y085854D01*
X059557D01*
X059553Y085854D01*
X059549Y085854D01*
X059539Y085855D01*
X059529Y085857D01*
X059519Y085859D01*
X059508Y085861D01*
X059508D01*
X059507Y085862D01*
X059505Y085862D01*
X059504Y085863D01*
X059501Y085864D01*
X059499Y085865D01*
X059493Y085867D01*
X059486Y08587D01*
X059478Y085874D01*
X059471Y085878D01*
X059464Y085882D01*
X059464D01*
X059463Y085883D01*
X059462Y085883D01*
X059461Y085884D01*
X059458Y085887D01*
X059454Y08589D01*
X05945Y085894D01*
X059445Y085899D01*
X059441Y085904D01*
X059437Y08591D01*
Y08591D01*
X059436Y08591D01*
X059435Y085912D01*
X059433Y085916D01*
X059431Y08592D01*
X059429Y085925D01*
X059426Y085931D01*
X059424Y085939D01*
X059421Y085946D01*
Y085946D01*
X059421Y085947D01*
Y085948D01*
X059421Y08595D01*
X05942Y085952D01*
X05942Y085954D01*
X059419Y085957D01*
X059419Y08596D01*
X059418Y085967D01*
X059417Y085975D01*
X059417Y085984D01*
X059417Y085994D01*
Y086104D01*
X059719D01*
Y085991D01*
D02*
G37*
G36*
Y085758D02*
X059481Y085598D01*
X059719D01*
Y08556D01*
X059417D01*
Y085601D01*
X059654Y08576D01*
X059417D01*
Y085799D01*
X059719D01*
Y085758D01*
D02*
G37*
G36*
X044654Y077046D02*
X044434Y076967D01*
X044434D01*
X044433Y076967D01*
X044431Y076966D01*
X044429Y076966D01*
X044427Y076965D01*
X044424Y076964D01*
X044421Y076963D01*
X044418Y076962D01*
X04441Y07696D01*
X044402Y076957D01*
X044393Y076954D01*
X044384Y076952D01*
X044385D01*
X044385Y076951D01*
X044387Y076951D01*
X044389Y07695D01*
X044391Y07695D01*
X044394Y076949D01*
X044397Y076948D01*
X0444Y076947D01*
X044407Y076945D01*
X044416Y076942D01*
X044425Y076939D01*
X044434Y076935D01*
X044654Y076854D01*
Y076813D01*
X044351Y076931D01*
Y076972D01*
X044654Y07709D01*
Y077046D01*
D02*
G37*
G36*
Y076736D02*
X044416Y076577D01*
X044654D01*
Y076539D01*
X044351D01*
Y07658D01*
X044589Y076739D01*
X044351D01*
Y076777D01*
X044654D01*
Y076736D01*
D02*
G37*
G36*
X044509Y076481D02*
X044513Y076481D01*
X044517Y07648D01*
X044522Y07648D01*
X044528Y076479D01*
X044534Y076478D01*
X044541Y076477D01*
X044555Y076473D01*
X044562Y076472D01*
X044569Y076469D01*
X044576Y076466D01*
X044583Y076463D01*
X044584Y076463D01*
X044585Y076462D01*
X044587Y076461D01*
X04459Y07646D01*
X044593Y076458D01*
X044597Y076455D01*
X044601Y076452D01*
X044605Y07645D01*
X04461Y076446D01*
X044614Y076442D01*
X044619Y076438D01*
X044624Y076433D01*
X044628Y076428D01*
X044633Y076422D01*
X044637Y076416D01*
X044641Y07641D01*
X044641Y07641D01*
X044641Y076409D01*
X044642Y076407D01*
X044643Y076404D01*
X044645Y076401D01*
X044646Y076397D01*
X044648Y076392D01*
X04465Y076387D01*
X044652Y076382D01*
X044653Y076375D01*
X044655Y076369D01*
X044656Y076362D01*
X044658Y076354D01*
X044659Y076347D01*
X044659Y076338D01*
X044659Y07633D01*
Y076325D01*
X044659Y076322D01*
X044659Y076318D01*
X044658Y076315D01*
X044658Y07631D01*
X044657Y076301D01*
X044655Y076291D01*
X044652Y076281D01*
X044648Y076271D01*
Y07627D01*
X044648Y076269D01*
X044647Y076268D01*
X044646Y076267D01*
X044645Y076264D01*
X044644Y076262D01*
X044641Y076256D01*
X044637Y076249D01*
X044632Y076242D01*
X044626Y076235D01*
X044619Y076229D01*
X044619Y076229D01*
X044618Y076228D01*
X044617Y076228D01*
X044616Y076227D01*
X044614Y076226D01*
X044611Y076224D01*
X044609Y076222D01*
X044605Y076221D01*
X044602Y076219D01*
X044599Y076217D01*
X044594Y076215D01*
X04459Y076213D01*
X04458Y076209D01*
X044569Y076206D01*
X04456Y076243D01*
X04456D01*
X04456Y076243D01*
X044562Y076243D01*
X044563Y076244D01*
X044565Y076245D01*
X044567Y076245D01*
X044573Y076247D01*
X044579Y07625D01*
X044584Y076253D01*
X04459Y076256D01*
X044596Y07626D01*
X044596Y07626D01*
X044598Y076262D01*
X0446Y076264D01*
X044603Y076267D01*
X044607Y076271D01*
X04461Y076276D01*
X044614Y076282D01*
X044617Y076288D01*
Y076289D01*
X044617Y076289D01*
X044618Y07629D01*
X044618Y076292D01*
X044619Y076293D01*
X04462Y076296D01*
X044621Y076301D01*
X044622Y076307D01*
X044624Y076314D01*
X044625Y076322D01*
X044625Y07633D01*
Y076334D01*
X044625Y076337D01*
Y07634D01*
X044624Y076343D01*
X044624Y076346D01*
X044623Y076353D01*
X044622Y076362D01*
X04462Y07637D01*
X044617Y076377D01*
Y076378D01*
X044616Y076378D01*
X044616Y076379D01*
X044615Y076381D01*
X044613Y076384D01*
X044611Y076389D01*
X044607Y076394D01*
X044603Y076399D01*
X044599Y076405D01*
X044594Y07641D01*
X044594Y076411D01*
X044592Y076412D01*
X044589Y076414D01*
X044585Y076417D01*
X044581Y07642D01*
X044576Y076423D01*
X04457Y076426D01*
X044564Y076429D01*
X044564D01*
X044563Y076429D01*
X044562Y07643D01*
X04456Y07643D01*
X044557Y076431D01*
X044554Y076432D01*
X04455Y076433D01*
X044546Y076434D01*
X044542Y076435D01*
X044537Y076436D01*
X044527Y076438D01*
X044516Y076439D01*
X044503Y07644D01*
X044503D01*
X044502D01*
X044499D01*
X044497Y07644D01*
X044493D01*
X044489Y076439D01*
X044485Y076439D01*
X04448Y076438D01*
X044469Y076437D01*
X044458Y076434D01*
X044446Y076431D01*
X044436Y076426D01*
X044435Y076426D01*
X044434Y076426D01*
X044433Y076425D01*
X044431Y076424D01*
X044429Y076422D01*
X044426Y07642D01*
X04442Y076416D01*
X044414Y07641D01*
X044407Y076403D01*
X044401Y076395D01*
X044398Y076391D01*
X044395Y076386D01*
Y076386D01*
X044395Y076385D01*
X044394Y076383D01*
X044393Y076381D01*
X044392Y076379D01*
X044391Y076376D01*
X04439Y076372D01*
X044389Y076369D01*
X044387Y076365D01*
X044386Y07636D01*
X044384Y076351D01*
X044383Y07634D01*
X044382Y076329D01*
Y076327D01*
X044382Y076325D01*
Y076322D01*
X044383Y07632D01*
X044383Y076317D01*
X044383Y076313D01*
X044384Y076306D01*
X044386Y076297D01*
X044389Y076288D01*
X044392Y076279D01*
Y076278D01*
X044392Y076278D01*
X044393Y076276D01*
X044394Y076274D01*
X044395Y076272D01*
X044396Y07627D01*
X044398Y076265D01*
X044402Y076258D01*
X044405Y076252D01*
X044409Y076246D01*
X044413Y076241D01*
X04447D01*
Y07633D01*
X044506D01*
Y076202D01*
X044393D01*
X044393Y076202D01*
X044392Y076203D01*
X044391Y076205D01*
X044389Y076207D01*
X044387Y076209D01*
X044385Y076213D01*
X044383Y076216D01*
X04438Y07622D01*
X044377Y076225D01*
X044375Y076229D01*
X044369Y07624D01*
X044363Y076251D01*
X044358Y076263D01*
Y076263D01*
X044357Y076264D01*
X044357Y076266D01*
X044356Y076268D01*
X044356Y076271D01*
X044355Y076274D01*
X044353Y076278D01*
X044352Y076282D01*
X044351Y076287D01*
X04435Y076292D01*
X044348Y076303D01*
X044347Y076315D01*
X044346Y076327D01*
Y076331D01*
X044347Y076334D01*
X044347Y076338D01*
X044347Y076343D01*
X044348Y076348D01*
X044349Y076354D01*
X04435Y07636D01*
X044351Y076366D01*
X044353Y076373D01*
X044355Y07638D01*
X044356Y076387D01*
X044359Y076394D01*
X044362Y076401D01*
X044365Y076408D01*
X044366Y076408D01*
X044366Y07641D01*
X044367Y076411D01*
X044369Y076414D01*
X044371Y076417D01*
X044373Y07642D01*
X044376Y076424D01*
X044379Y076429D01*
X044383Y076433D01*
X044387Y076437D01*
X044392Y076442D01*
X044397Y076447D01*
X044402Y076451D01*
X044408Y076455D01*
X044414Y076459D01*
X04442Y076463D01*
X044421Y076463D01*
X044422Y076464D01*
X044424Y076465D01*
X044427Y076466D01*
X04443Y076467D01*
X044434Y076469D01*
X044439Y076471D01*
X044444Y076472D01*
X04445Y076474D01*
X044456Y076475D01*
X044463Y076477D01*
X04447Y076478D01*
X044477Y07648D01*
X044485Y076481D01*
X044493Y076481D01*
X044501Y076481D01*
X044502D01*
X044503D01*
X044505D01*
X044509Y076481D01*
D02*
G37*
G36*
X044452Y076118D02*
X044452D01*
X044451D01*
X04445Y076118D01*
X044448Y076117D01*
X044446Y076117D01*
X044444Y076117D01*
X044438Y076115D01*
X044433Y076114D01*
X044426Y076112D01*
X04442Y076109D01*
X044414Y076106D01*
X044414Y076105D01*
X044412Y076104D01*
X044409Y076102D01*
X044406Y076098D01*
X044402Y076094D01*
X044398Y076089D01*
X044395Y076083D01*
X044391Y076075D01*
Y076075D01*
X044391Y076074D01*
X04439Y076073D01*
X04439Y076072D01*
X044389Y07607D01*
X044388Y076067D01*
X044387Y076065D01*
X044387Y076062D01*
X044385Y076055D01*
X044383Y076047D01*
X044382Y076038D01*
X044382Y076029D01*
Y076025D01*
X044382Y076023D01*
Y076021D01*
X044383Y076015D01*
X044384Y076009D01*
X044385Y076002D01*
X044386Y075995D01*
X044389Y075989D01*
Y075988D01*
X044389Y075988D01*
X044389Y075987D01*
X04439Y075986D01*
X044392Y075983D01*
X044394Y075979D01*
X044396Y075975D01*
X044399Y07597D01*
X044403Y075966D01*
X044407Y075962D01*
X044408Y075962D01*
X044409Y075961D01*
X044412Y07596D01*
X044415Y075958D01*
X044419Y075957D01*
X044423Y075955D01*
X044428Y075954D01*
X044433Y075954D01*
X044434D01*
X044434D01*
X044436D01*
X044438Y075954D01*
X044442Y075955D01*
X044446Y075956D01*
X04445Y075957D01*
X044454Y075959D01*
X044458Y075962D01*
X044458Y075962D01*
X04446Y075964D01*
X044462Y075966D01*
X044464Y075969D01*
X044467Y075972D01*
X04447Y075977D01*
X044473Y075983D01*
X044476Y075989D01*
X044476Y07599D01*
X044477Y075991D01*
X044477Y075992D01*
X044477Y075993D01*
X044478Y075995D01*
X044479Y075998D01*
X044479Y076001D01*
X04448Y076004D01*
X044482Y076008D01*
X044483Y076012D01*
X044484Y076017D01*
X044486Y076023D01*
X044487Y076029D01*
X044489Y076036D01*
X044491Y076043D01*
Y076043D01*
X044491Y076045D01*
X044492Y076047D01*
X044492Y07605D01*
X044493Y076053D01*
X044494Y076057D01*
X044496Y076061D01*
X044497Y076066D01*
X0445Y076076D01*
X044503Y076085D01*
X044505Y07609D01*
X044506Y076094D01*
X044508Y076098D01*
X04451Y076101D01*
Y076102D01*
X04451Y076102D01*
X044511Y076103D01*
X044512Y076105D01*
X044514Y076109D01*
X044517Y076113D01*
X044521Y076119D01*
X044526Y076124D01*
X044532Y076129D01*
X044538Y076134D01*
X044538D01*
X044538Y076134D01*
X044539Y076135D01*
X04454Y076135D01*
X044544Y076137D01*
X044549Y076139D01*
X044554Y076141D01*
X044561Y076143D01*
X044568Y076144D01*
X044576Y076144D01*
X044576D01*
X044577D01*
X044578D01*
X04458Y076144D01*
X044581D01*
X044584Y076144D01*
X04459Y076143D01*
X044596Y076141D01*
X044603Y076139D01*
X044611Y076136D01*
X044618Y076131D01*
X044619D01*
X044619Y076131D01*
X04462Y07613D01*
X044622Y076129D01*
X044625Y076126D01*
X04463Y076122D01*
X044635Y076116D01*
X04464Y07611D01*
X044644Y076102D01*
X044649Y076093D01*
Y076093D01*
X044649Y076092D01*
X04465Y076091D01*
X04465Y076089D01*
X044651Y076087D01*
X044652Y076084D01*
X044653Y076081D01*
X044654Y076077D01*
X044655Y076073D01*
X044656Y076069D01*
X044658Y07606D01*
X044659Y076049D01*
X044659Y076038D01*
Y076032D01*
X044659Y076029D01*
X044659Y076026D01*
X044658Y076022D01*
X044658Y076018D01*
X044657Y076009D01*
X044655Y075999D01*
X044652Y075988D01*
X044648Y075979D01*
Y075978D01*
X044647Y075978D01*
X044647Y075976D01*
X044646Y075974D01*
X044645Y075972D01*
X044643Y07597D01*
X04464Y075964D01*
X044636Y075958D01*
X04463Y075951D01*
X044624Y075945D01*
X044616Y075939D01*
X044616Y075939D01*
X044615Y075939D01*
X044614Y075938D01*
X044613Y075937D01*
X044611Y075936D01*
X044608Y075935D01*
X044605Y075934D01*
X044602Y075932D01*
X044596Y075929D01*
X044587Y075927D01*
X044579Y075925D01*
X044569Y075924D01*
X044566Y075962D01*
X044566D01*
X044567Y075963D01*
X044568D01*
X04457Y075963D01*
X044573Y075964D01*
X044576Y075964D01*
X044582Y075966D01*
X044589Y075969D01*
X044596Y075973D01*
X044603Y075978D01*
X044606Y075981D01*
X044609Y075984D01*
X044609Y075984D01*
X044609Y075984D01*
X04461Y075986D01*
X044611Y075987D01*
X044612Y075989D01*
X044613Y075991D01*
X044615Y075994D01*
X044616Y075997D01*
X044618Y076001D01*
X044619Y076004D01*
X04462Y076009D01*
X044621Y076013D01*
X044622Y076019D01*
X044623Y076024D01*
X044623Y07603D01*
Y07604D01*
X044623Y076042D01*
Y076045D01*
X044623Y076048D01*
X044622Y076052D01*
X044622Y076056D01*
X04462Y076065D01*
X044618Y076074D01*
X044615Y076082D01*
X044612Y076086D01*
X04461Y076089D01*
Y076089D01*
X044609Y07609D01*
X044608Y076092D01*
X044605Y076094D01*
X044601Y076097D01*
X044596Y0761D01*
X044591Y076103D01*
X044585Y076105D01*
X044581Y076105D01*
X044578Y076105D01*
X044578D01*
X044577D01*
X044575Y076105D01*
X044572Y076105D01*
X044569Y076104D01*
X044564Y076103D01*
X04456Y076101D01*
X044556Y076098D01*
X044551Y076094D01*
X044551Y076093D01*
X04455Y076093D01*
X044549Y076091D01*
X044548Y07609D01*
X044547Y076088D01*
X044546Y076085D01*
X044544Y076082D01*
X044543Y076079D01*
X044541Y076074D01*
X04454Y076069D01*
X044538Y076064D01*
X044536Y076057D01*
X044534Y07605D01*
X044531Y076042D01*
X044529Y076034D01*
Y076033D01*
X044529Y076031D01*
X044528Y076029D01*
X044527Y076026D01*
X044527Y076022D01*
X044525Y076017D01*
X044524Y076012D01*
X044523Y076007D01*
X04452Y075996D01*
X044517Y075985D01*
X044515Y07598D01*
X044514Y075975D01*
X044512Y07597D01*
X04451Y075967D01*
Y075966D01*
X04451Y075965D01*
X044509Y075964D01*
X044508Y075962D01*
X044507Y07596D01*
X044505Y075958D01*
X044502Y075952D01*
X044498Y075945D01*
X044492Y075939D01*
X044486Y075933D01*
X044483Y07593D01*
X044479Y075928D01*
X044479D01*
X044479Y075927D01*
X044478Y075926D01*
X044476Y075926D01*
X044475Y075925D01*
X044472Y075924D01*
X044467Y075921D01*
X044461Y075919D01*
X044454Y075917D01*
X044445Y075916D01*
X044437Y075915D01*
X044436D01*
X044436D01*
X044434D01*
X044433Y075915D01*
X04443D01*
X044428Y075916D01*
X044422Y075917D01*
X044415Y075918D01*
X044407Y075921D01*
X044399Y075924D01*
X044395Y075926D01*
X044391Y075929D01*
X044391D01*
X04439Y07593D01*
X044389Y07593D01*
X044388Y075932D01*
X044384Y075935D01*
X044379Y075939D01*
X044374Y075945D01*
X044368Y075952D01*
X044363Y07596D01*
X044358Y075969D01*
Y075969D01*
X044357Y07597D01*
X044357Y075971D01*
X044356Y075973D01*
X044356Y075976D01*
X044355Y075979D01*
X044353Y075982D01*
X044352Y075986D01*
X044351Y07599D01*
X04435Y075994D01*
X044348Y076004D01*
X044347Y076015D01*
X044346Y076027D01*
Y076031D01*
X044347Y076034D01*
Y076037D01*
X044347Y076041D01*
X044347Y076046D01*
X044348Y076051D01*
X044349Y076062D01*
X044351Y076073D01*
X044354Y076085D01*
X044358Y076096D01*
Y076096D01*
X044359Y076097D01*
X044359Y076099D01*
X04436Y076101D01*
X044362Y076103D01*
X044363Y076105D01*
X044367Y076112D01*
X044372Y076119D01*
X044378Y076126D01*
X044385Y076133D01*
X044394Y076139D01*
X044394Y07614D01*
X044395Y07614D01*
X044396Y076141D01*
X044398Y076142D01*
X0444Y076143D01*
X044403Y076144D01*
X044406Y076146D01*
X04441Y076147D01*
X044414Y076149D01*
X044418Y07615D01*
X044427Y076153D01*
X044437Y076155D01*
X044443Y076155D01*
X044449Y076156D01*
X044452Y076118D01*
D02*
G37*
G36*
X044509Y075875D02*
X044514D01*
X044519Y075875D01*
X044525Y075874D01*
X044531Y075874D01*
X044538Y075873D01*
X044545Y075873D01*
X04456Y075871D01*
X044574Y075868D01*
X044581Y075866D01*
X044587Y075864D01*
X044587D01*
X044588Y075864D01*
X04459Y075863D01*
X044592Y075862D01*
X044595Y075861D01*
X044598Y07586D01*
X044601Y075858D01*
X044605Y075856D01*
X044614Y075852D01*
X044622Y075846D01*
X04463Y075839D01*
X044634Y075836D01*
X044637Y075832D01*
X044638Y075831D01*
X044638Y075831D01*
X044639Y075829D01*
X04464Y075828D01*
X044642Y075826D01*
X044643Y075823D01*
X044644Y07582D01*
X044646Y075816D01*
X044648Y075813D01*
X044649Y075809D01*
X044651Y075804D01*
X044652Y075799D01*
X044653Y075794D01*
X044654Y075789D01*
X044655Y075783D01*
X044655Y075777D01*
Y075773D01*
X044655Y075771D01*
X044654Y075768D01*
X044654Y075762D01*
X044653Y075756D01*
X044651Y075749D01*
X044648Y075741D01*
X044645Y075734D01*
Y075734D01*
X044645Y075733D01*
X044644Y075732D01*
X044643Y075731D01*
X044641Y075728D01*
X044638Y075723D01*
X044634Y075718D01*
X044629Y075714D01*
X044623Y075708D01*
X044617Y075704D01*
X044616D01*
X044616Y075703D01*
X044615Y075703D01*
X044613Y075702D01*
X044612Y075701D01*
X044609Y075699D01*
X044607Y075698D01*
X044604Y075697D01*
X044598Y075694D01*
X04459Y075691D01*
X044581Y075688D01*
X044572Y075685D01*
X044571D01*
X04457Y075685D01*
X044569Y075684D01*
X044567Y075684D01*
X044564Y075683D01*
X044561Y075683D01*
X044557Y075682D01*
X044553Y075681D01*
X044548Y075681D01*
X044543Y07568D01*
X044537Y07568D01*
X044531Y075679D01*
X044524Y075679D01*
X044517Y075678D01*
X044509Y075678D01*
X0445D01*
X0445D01*
X044498D01*
X044495D01*
X044492D01*
X044487Y075678D01*
X044482Y075679D01*
X044476Y075679D01*
X04447Y075679D01*
X044463Y07568D01*
X044456Y075681D01*
X044442Y075683D01*
X044428Y075686D01*
X044421Y075687D01*
X044415Y075689D01*
X044414D01*
X044413Y07569D01*
X044411Y07569D01*
X044409Y075691D01*
X044406Y075693D01*
X044403Y075694D01*
X0444Y075695D01*
X044396Y075697D01*
X044388Y075702D01*
X044379Y075708D01*
X044371Y075714D01*
X044368Y075718D01*
X044364Y075722D01*
X044364Y075722D01*
X044363Y075723D01*
X044362Y075724D01*
X044361Y075726D01*
X04436Y075728D01*
X044358Y075731D01*
X044357Y075734D01*
X044355Y075737D01*
X044354Y075741D01*
X044352Y075745D01*
X044351Y075749D01*
X044349Y075754D01*
X044348Y075759D01*
X044347Y075765D01*
X044347Y075771D01*
X044346Y075777D01*
Y075779D01*
X044347Y075781D01*
X044347Y075784D01*
X044347Y075788D01*
X044348Y075792D01*
X044349Y075796D01*
X04435Y075802D01*
X044352Y075807D01*
X044354Y075813D01*
X044356Y075818D01*
X044359Y075824D01*
X044363Y07583D01*
X044367Y075835D01*
X044372Y07584D01*
X044377Y075845D01*
X044378Y075846D01*
X044379Y075847D01*
X044381Y075848D01*
X044385Y07585D01*
X044389Y075852D01*
X044394Y075855D01*
X0444Y075858D01*
X044407Y07586D01*
X044415Y075863D01*
X044424Y075866D01*
X044434Y075868D01*
X044445Y075871D01*
X044458Y075873D01*
X044471Y075874D01*
X044485Y075875D01*
X0445Y075875D01*
X044501D01*
X044503D01*
X044506D01*
X044509Y075875D01*
D02*
G37*
G36*
X044579Y075612D02*
X04458Y075611D01*
X044581Y075609D01*
X044581Y075607D01*
X044583Y075604D01*
X044585Y075601D01*
X044587Y075597D01*
X044589Y075593D01*
X044594Y075585D01*
X0446Y075576D01*
X044607Y075566D01*
X044614Y075557D01*
X044615Y075557D01*
X044615Y075556D01*
X044616Y075555D01*
X044618Y075553D01*
X04462Y075552D01*
X044622Y07555D01*
X044627Y075545D01*
X044633Y075539D01*
X04464Y075533D01*
X044647Y075529D01*
X044655Y075524D01*
Y0755D01*
X044351D01*
Y075537D01*
X044588D01*
X044587Y075538D01*
X044585Y07554D01*
X044583Y075543D01*
X04458Y075547D01*
X044576Y075552D01*
X044572Y075558D01*
X044567Y075565D01*
X044562Y075573D01*
Y075573D01*
X044561Y075574D01*
X044561Y075575D01*
X04456Y075576D01*
X044559Y075578D01*
X044558Y075581D01*
X044555Y075586D01*
X044552Y075592D01*
X044549Y075598D01*
X044546Y075605D01*
X044543Y075612D01*
X044579D01*
X044579Y075612D01*
D02*
G37*
G36*
X044654Y07526D02*
X044434Y075181D01*
X044434D01*
X044433Y075181D01*
X044431Y07518D01*
X044429Y07518D01*
X044427Y075179D01*
X044424Y075178D01*
X044421Y075177D01*
X044418Y075176D01*
X04441Y075173D01*
X044402Y075171D01*
X044393Y075168D01*
X044384Y075165D01*
X044385D01*
X044385Y075165D01*
X044387Y075165D01*
X044389Y075164D01*
X044391Y075163D01*
X044394Y075163D01*
X044397Y075162D01*
X0444Y075161D01*
X044407Y075159D01*
X044416Y075156D01*
X044425Y075152D01*
X044434Y075149D01*
X044654Y075067D01*
Y075027D01*
X044351Y075145D01*
Y075186D01*
X044654Y075304D01*
Y07526D01*
D02*
G37*
G36*
X044579Y074977D02*
X04458Y074976D01*
X044581Y074974D01*
X044581Y074972D01*
X044583Y074969D01*
X044585Y074966D01*
X044587Y074962D01*
X044589Y074959D01*
X044594Y07495D01*
X0446Y074941D01*
X044607Y074932D01*
X044614Y074923D01*
X044615Y074922D01*
X044615Y074922D01*
X044616Y07492D01*
X044618Y074919D01*
X04462Y074917D01*
X044622Y074915D01*
X044627Y07491D01*
X044633Y074904D01*
X04464Y074899D01*
X044647Y074894D01*
X044655Y07489D01*
Y074866D01*
X044351D01*
Y074903D01*
X044588D01*
X044587Y074903D01*
X044585Y074905D01*
X044583Y074908D01*
X04458Y074912D01*
X044576Y074917D01*
X044572Y074923D01*
X044567Y07493D01*
X044562Y074938D01*
Y074938D01*
X044561Y074939D01*
X044561Y07494D01*
X04456Y074942D01*
X044559Y074944D01*
X044558Y074946D01*
X044555Y074951D01*
X044552Y074957D01*
X044549Y074964D01*
X044546Y074971D01*
X044543Y074977D01*
X044579D01*
X044579Y074977D01*
D02*
G37*
G36*
X044394Y074707D02*
X044351D01*
Y07475D01*
X044394D01*
Y074707D01*
D02*
G37*
G36*
X044436Y074616D02*
X044436D01*
X044435Y074615D01*
X044433Y074615D01*
X044431Y074614D01*
X044428Y074614D01*
X044425Y074613D01*
X044418Y074611D01*
X044411Y074608D01*
X044403Y074604D01*
X044397Y0746D01*
X044394Y074597D01*
X044391Y074594D01*
Y074594D01*
X04439Y074594D01*
X044389Y074593D01*
X044388Y074592D01*
X044386Y074588D01*
X044384Y074584D01*
X044381Y074578D01*
X044379Y074572D01*
X044377Y074565D01*
X044377Y074557D01*
Y074554D01*
X044377Y074552D01*
X044377Y07455D01*
X044378Y074547D01*
X044379Y074541D01*
X044381Y074534D01*
X044384Y074526D01*
X044387Y074523D01*
X044389Y074519D01*
X044392Y074516D01*
X044395Y074512D01*
X044395Y074512D01*
X044396Y074511D01*
X044397Y07451D01*
X044398Y074509D01*
X0444Y074508D01*
X044402Y074506D01*
X044404Y074505D01*
X044407Y074503D01*
X044414Y0745D01*
X044421Y074497D01*
X04443Y074495D01*
X044435Y074494D01*
X04444Y074494D01*
X04444D01*
X044441D01*
X044442D01*
X044444Y074494D01*
X044446Y074495D01*
X044449Y074495D01*
X044455Y074496D01*
X044461Y074498D01*
X044468Y074501D01*
X044472Y074503D01*
X044475Y074505D01*
X044479Y074508D01*
X044482Y074511D01*
X044482Y074511D01*
X044482Y074512D01*
X044483Y074513D01*
X044484Y074514D01*
X044486Y074516D01*
X044487Y074518D01*
X04449Y074523D01*
X044493Y074529D01*
X044496Y074536D01*
X044498Y074544D01*
X044498Y074549D01*
X044499Y074553D01*
Y074555D01*
X044498Y074558D01*
Y074561D01*
X044498Y074565D01*
X044497Y074569D01*
X044496Y074574D01*
X044495Y07458D01*
X044527Y074576D01*
Y074575D01*
X044527Y074573D01*
X044526Y074571D01*
Y074567D01*
X044527Y074566D01*
Y074563D01*
X044527Y074561D01*
X044528Y074555D01*
X044529Y074549D01*
X044532Y074542D01*
X044535Y074534D01*
X044539Y074527D01*
Y074526D01*
X04454Y074526D01*
X04454Y074525D01*
X044541Y074524D01*
X044544Y074521D01*
X044548Y074517D01*
X044554Y074514D01*
X04456Y07451D01*
X044564Y074509D01*
X044568Y074508D01*
X044572Y074508D01*
X044577Y074507D01*
X044577D01*
X044578D01*
X044579D01*
X044581Y074508D01*
X044584Y074508D01*
X044589Y074509D01*
X044594Y074511D01*
X0446Y074513D01*
X044606Y074517D01*
X044608Y074519D01*
X044611Y074522D01*
X044612Y074522D01*
X044613Y074524D01*
X044615Y074527D01*
X044618Y074531D01*
X04462Y074536D01*
X044622Y074543D01*
X044624Y074549D01*
X044624Y074557D01*
Y074559D01*
X044624Y074561D01*
Y074563D01*
X044624Y074565D01*
X044623Y07457D01*
X044621Y074576D01*
X044619Y074582D01*
X044615Y074588D01*
X044611Y074594D01*
X04461Y074594D01*
X044608Y074596D01*
X044605Y074599D01*
X044601Y074601D01*
X044595Y074605D01*
X044588Y074607D01*
X04458Y07461D01*
X04457Y074612D01*
X044577Y074649D01*
X044577D01*
X044578Y074649D01*
X04458Y074648D01*
X044583Y074648D01*
X044586Y074647D01*
X044589Y074646D01*
X044593Y074645D01*
X044598Y074643D01*
X044607Y074639D01*
X044612Y074636D01*
X044617Y074633D01*
X044621Y07463D01*
X044626Y074627D01*
X04463Y074623D01*
X044634Y074618D01*
X044635Y074618D01*
X044635Y074617D01*
X044636Y074616D01*
X044638Y074614D01*
X044639Y074611D01*
X044641Y074609D01*
X044643Y074606D01*
X044645Y074602D01*
X044646Y074598D01*
X044648Y074593D01*
X04465Y074588D01*
X044652Y074583D01*
X044653Y074577D01*
X044654Y074571D01*
X044655Y074565D01*
X044655Y074558D01*
Y074554D01*
X044655Y074552D01*
X044654Y074549D01*
X044654Y074543D01*
X044652Y074536D01*
X04465Y074528D01*
X044648Y074521D01*
X044644Y074513D01*
Y074512D01*
X044644Y074512D01*
X044643Y074511D01*
X044642Y074509D01*
X04464Y074505D01*
X044637Y074501D01*
X044632Y074496D01*
X044627Y07449D01*
X044622Y074485D01*
X044615Y074481D01*
X044615D01*
X044615Y07448D01*
X044613Y07448D01*
X044612Y074479D01*
X04461Y074478D01*
X044608Y074477D01*
X044603Y074475D01*
X044598Y074473D01*
X044591Y074471D01*
X044584Y07447D01*
X044576Y074469D01*
X044576D01*
X044575D01*
X044574D01*
X044573D01*
X044569Y07447D01*
X044564Y074471D01*
X044559Y074472D01*
X044553Y074474D01*
X044547Y074477D01*
X04454Y07448D01*
X04454D01*
X04454Y074481D01*
X044538Y074482D01*
X044535Y074484D01*
X044531Y074488D01*
X044527Y074492D01*
X044523Y074498D01*
X044519Y074504D01*
X044515Y074511D01*
Y074511D01*
X044515Y07451D01*
X044514Y074509D01*
X044514Y074507D01*
X044513Y074505D01*
X044512Y074502D01*
X044509Y074496D01*
X044506Y074489D01*
X044501Y074483D01*
X044496Y074476D01*
X044489Y07447D01*
X044489Y074469D01*
X044488Y074469D01*
X044487Y074468D01*
X044485Y074467D01*
X044484Y074466D01*
X044481Y074465D01*
X044479Y074464D01*
X044476Y074462D01*
X044472Y074461D01*
X044469Y07446D01*
X04446Y074457D01*
X044451Y074455D01*
X044446Y074455D01*
X04444D01*
X04444D01*
X044439D01*
X044437Y074455D01*
X044434D01*
X04443Y074456D01*
X044426Y074456D01*
X044422Y074457D01*
X044417Y074458D01*
X044412Y07446D01*
X044407Y074462D01*
X044401Y074464D01*
X044396Y074467D01*
X04439Y07447D01*
X044384Y074474D01*
X044378Y074479D01*
X044373Y074484D01*
X044373Y074484D01*
X044372Y074485D01*
X044371Y074487D01*
X044369Y074489D01*
X044367Y074492D01*
X044365Y074495D01*
X044362Y074499D01*
X04436Y074504D01*
X044357Y074509D01*
X044355Y074514D01*
X044352Y07452D01*
X04435Y074527D01*
X044349Y074534D01*
X044347Y074541D01*
X044346Y074548D01*
X044346Y074557D01*
Y074558D01*
X044346Y074561D01*
Y074563D01*
X044347Y074567D01*
X044347Y074571D01*
X044348Y074575D01*
X044349Y07458D01*
X04435Y074585D01*
X044352Y07459D01*
X044354Y074596D01*
X044356Y074602D01*
X044359Y074607D01*
X044362Y074612D01*
X044365Y074618D01*
X04437Y074623D01*
X04437Y074623D01*
X044371Y074624D01*
X044372Y074625D01*
X044374Y074627D01*
X044376Y074629D01*
X044379Y074631D01*
X044382Y074634D01*
X044386Y074636D01*
X04439Y074639D01*
X044395Y074642D01*
X0444Y074644D01*
X044406Y074647D01*
X044412Y074648D01*
X044418Y07465D01*
X044424Y074652D01*
X044431Y074653D01*
X044436Y074616D01*
D02*
G37*
G36*
X061756Y08606D02*
X061536Y085982D01*
X061536D01*
X061535Y085981D01*
X061534Y085981D01*
X061532Y08598D01*
X061529Y085979D01*
X061527Y085978D01*
X061524Y085977D01*
X06152Y085976D01*
X061513Y085974D01*
X061504Y085971D01*
X061496Y085968D01*
X061487Y085966D01*
X061487D01*
X061488Y085965D01*
X061489Y085965D01*
X061491Y085964D01*
X061493Y085964D01*
X061496Y085963D01*
X061499Y085962D01*
X061502Y085961D01*
X06151Y085959D01*
X061518Y085956D01*
X061527Y085953D01*
X061536Y085949D01*
X061756Y085868D01*
Y085827D01*
X061454Y085945D01*
Y085986D01*
X061756Y086104D01*
Y08606D01*
D02*
G37*
G36*
Y085674D02*
X061756Y085671D01*
Y085667D01*
X061756Y085663D01*
X061755Y085659D01*
X061754Y085651D01*
X061752Y085641D01*
X06175Y085632D01*
X061747Y085624D01*
Y085623D01*
X061746Y085623D01*
X061746Y085622D01*
X061745Y08562D01*
X061743Y085616D01*
X06174Y085612D01*
X061736Y085606D01*
X061731Y085601D01*
X061725Y085596D01*
X061719Y085591D01*
X061718D01*
X061718Y08559D01*
X061717Y08559D01*
X061715Y085589D01*
X061714Y085588D01*
X061711Y085587D01*
X061706Y085585D01*
X061701Y085583D01*
X061694Y085581D01*
X061686Y085579D01*
X061679Y085579D01*
X061678D01*
X061678D01*
X061677D01*
X061675D01*
X061672Y085579D01*
X061667Y08558D01*
X061661Y085581D01*
X061655Y085583D01*
X061649Y085586D01*
X061642Y08559D01*
X061642D01*
X061641Y08559D01*
X061641Y085591D01*
X061639Y085592D01*
X061636Y085594D01*
X061632Y085597D01*
X061628Y085602D01*
X061623Y085607D01*
X061619Y085614D01*
X061615Y085621D01*
Y085621D01*
X061614Y08562D01*
X061614Y085618D01*
X061613Y085616D01*
X061612Y085614D01*
X061611Y085612D01*
X061608Y085606D01*
X061604Y085599D01*
X061599Y085592D01*
X061594Y085585D01*
X061587Y085579D01*
X061587Y085579D01*
X061586Y085578D01*
X061585Y085578D01*
X061584Y085577D01*
X061582Y085575D01*
X061579Y085574D01*
X061577Y085573D01*
X061574Y085572D01*
X061567Y085569D01*
X061559Y085566D01*
X061551Y085565D01*
X061546Y085564D01*
X061541D01*
X061541D01*
X06154D01*
X061539D01*
X061538D01*
X061536Y085564D01*
X061534D01*
X061528Y085565D01*
X061522Y085566D01*
X061516Y085568D01*
X061508Y08557D01*
X061501Y085573D01*
X061501D01*
X061501Y085574D01*
X0615Y085574D01*
X061498Y085575D01*
X061495Y085577D01*
X061491Y085579D01*
X061487Y085582D01*
X061482Y085586D01*
X061477Y085591D01*
X061473Y085595D01*
X061473Y085596D01*
X061472Y085598D01*
X06147Y085601D01*
X061468Y085605D01*
X061465Y085609D01*
X061463Y085615D01*
X06146Y085621D01*
X061458Y085629D01*
Y085629D01*
X061458Y08563D01*
Y085631D01*
X061458Y085632D01*
X061457Y085634D01*
X061457Y085636D01*
X061456Y085639D01*
X061456Y085642D01*
X061456Y085645D01*
X061455Y085649D01*
X061454Y085657D01*
X061454Y085667D01*
X061454Y085677D01*
Y085793D01*
X061756D01*
Y085674D01*
D02*
G37*
G36*
X04475Y067154D02*
X04475Y067154D01*
X044752Y067156D01*
X044755Y067158D01*
X044759Y067162D01*
X044764Y067165D01*
X04477Y06717D01*
X044777Y067174D01*
X044785Y067179D01*
X044785D01*
X044786Y06718D01*
X044787Y067181D01*
X044789Y067181D01*
X044791Y067183D01*
X044793Y067184D01*
X044798Y067186D01*
X044804Y067189D01*
X044811Y067193D01*
X044818Y067196D01*
X044824Y067198D01*
Y067163D01*
X044824Y067162D01*
X044823Y067162D01*
X044821Y067161D01*
X044819Y06716D01*
X044816Y067159D01*
X044813Y067157D01*
X044809Y067155D01*
X044806Y067153D01*
X044797Y067147D01*
X044788Y067141D01*
X044778Y067135D01*
X04477Y067127D01*
X044769Y067127D01*
X044769Y067126D01*
X044767Y067125D01*
X044766Y067123D01*
X044764Y067122D01*
X044762Y06712D01*
X044757Y067114D01*
X044751Y067108D01*
X044746Y067101D01*
X044741Y067094D01*
X044737Y067086D01*
X044713D01*
Y06739D01*
X04475D01*
Y067154D01*
D02*
G37*
G36*
X050684Y067395D02*
X050687Y067394D01*
X050691Y067394D01*
X050696Y067393D01*
X050701Y067392D01*
X050706Y067391D01*
X050712Y067389D01*
X050717Y067388D01*
X050723Y067385D01*
X050729Y067383D01*
X050734Y06738D01*
X050739Y067376D01*
X050745Y067372D01*
X050745Y067372D01*
X050746Y067371D01*
X050747Y06737D01*
X050749Y067368D01*
X050751Y067366D01*
X050753Y067363D01*
X050755Y06736D01*
X050758Y067356D01*
X050761Y067352D01*
X050763Y067347D01*
X050766Y067342D01*
X050768Y067337D01*
X05077Y067331D01*
X050772Y067325D01*
X050773Y067318D01*
X050774Y067311D01*
X050735Y067308D01*
Y067308D01*
X050735Y067309D01*
X050734Y06731D01*
X050734Y067312D01*
X050734Y067315D01*
X050733Y067318D01*
X050731Y067324D01*
X050729Y067331D01*
X050725Y067338D01*
X050721Y067345D01*
X050718Y067348D01*
X050715Y06735D01*
X050715D01*
X050715Y067351D01*
X050714Y067352D01*
X050712Y067353D01*
X050709Y067355D01*
X050705Y067357D01*
X050699Y06736D01*
X050692Y067362D01*
X050685Y067364D01*
X050681Y067364D01*
X050677Y067365D01*
X050674D01*
X050672Y067364D01*
X05067Y067364D01*
X050667Y067364D01*
X050661Y067362D01*
X050654Y06736D01*
X05065Y067358D01*
X050647Y067356D01*
X050643Y067354D01*
X050639Y067351D01*
X050635Y067348D01*
X050632Y067345D01*
X050631Y067344D01*
X050631Y067344D01*
X05063Y067343D01*
X050629Y067341D01*
X050627Y067339D01*
X050626Y067336D01*
X050624Y067333D01*
X050622Y06733D01*
X050621Y067327D01*
X050619Y067323D01*
X050617Y067318D01*
X050616Y067313D01*
X050615Y067308D01*
X050614Y067303D01*
X050613Y067297D01*
X050613Y067291D01*
Y06729D01*
Y067289D01*
Y067288D01*
X050613Y067286D01*
X050614Y067283D01*
X050614Y06728D01*
X050615Y067276D01*
X050615Y067272D01*
X050617Y067265D01*
X050621Y067256D01*
X050623Y067252D01*
X050625Y067248D01*
X050628Y067244D01*
X050631Y067241D01*
X050631Y06724D01*
X050632Y06724D01*
X050633Y067239D01*
X050634Y067238D01*
X050636Y067236D01*
X050638Y067235D01*
X050641Y067233D01*
X050644Y067231D01*
X050647Y067229D01*
X05065Y067228D01*
X050658Y067225D01*
X050663Y067224D01*
X050667Y067223D01*
X050672Y067222D01*
X050678Y067222D01*
X050681D01*
X050684Y067222D01*
X050688Y067223D01*
X050694Y067224D01*
X050699Y067225D01*
X050705Y067227D01*
X05071Y06723D01*
X050711Y067231D01*
X050713Y067232D01*
X050715Y067234D01*
X050719Y067236D01*
X050722Y067239D01*
X050726Y067243D01*
X050729Y067247D01*
X050733Y067252D01*
X050768Y067247D01*
X050738Y067091D01*
X050588D01*
Y067127D01*
X050709D01*
X050725Y067208D01*
X050725Y067208D01*
X050724Y067207D01*
X050722Y067206D01*
X05072Y067205D01*
X050718Y067204D01*
X050715Y067202D01*
X050711Y0672D01*
X050708Y067199D01*
X050704Y067197D01*
X050699Y067195D01*
X050689Y067192D01*
X050684Y067191D01*
X050679Y06719D01*
X050673Y067189D01*
X050668Y067189D01*
X050666D01*
X050664Y067189D01*
X050661D01*
X050658Y06719D01*
X050654Y06719D01*
X050649Y067191D01*
X050645Y067192D01*
X05064Y067194D01*
X050634Y067196D01*
X050629Y067198D01*
X050623Y067201D01*
X050618Y067204D01*
X050612Y067207D01*
X050606Y067212D01*
X050601Y067217D01*
X050601Y067217D01*
X0506Y067218D01*
X050599Y06722D01*
X050597Y067222D01*
X050595Y067224D01*
X050592Y067228D01*
X05059Y067231D01*
X050587Y067236D01*
X050585Y067241D01*
X050583Y067246D01*
X05058Y067252D01*
X050578Y067258D01*
X050576Y067265D01*
X050575Y067272D01*
X050574Y06728D01*
X050574Y067287D01*
Y067288D01*
Y067289D01*
Y067291D01*
X050574Y067294D01*
X050574Y067298D01*
X050575Y067302D01*
X050576Y067307D01*
X050577Y067312D01*
X050578Y067317D01*
X05058Y067323D01*
X050582Y067329D01*
X050584Y067335D01*
X050586Y067341D01*
X05059Y067347D01*
X050593Y067353D01*
X050598Y067358D01*
X050598Y067359D01*
X050599Y06736D01*
X050601Y067362D01*
X050603Y067364D01*
X050606Y067367D01*
X050609Y06737D01*
X050614Y067373D01*
X050619Y067377D01*
X050624Y06738D01*
X05063Y067384D01*
X050636Y067387D01*
X050644Y067389D01*
X050651Y067392D01*
X050659Y067393D01*
X050668Y067395D01*
X050677Y067395D01*
X050681D01*
X050684Y067395D01*
D02*
G37*
G36*
X047308Y065316D02*
X047311Y065316D01*
X047314Y065316D01*
X047318Y065315D01*
X047323Y065314D01*
X047332Y065312D01*
X047336Y06531D01*
X047341Y065308D01*
X047346Y065306D01*
X047351Y065303D01*
X047356Y0653D01*
X04736Y065297D01*
X04736Y065296D01*
X047361Y065296D01*
X047362Y065295D01*
X047364Y065293D01*
X047365Y065291D01*
X047367Y065289D01*
X047369Y065286D01*
X047372Y065282D01*
X047374Y065279D01*
X047376Y065275D01*
X047378Y06527D01*
X047381Y065265D01*
X047383Y06526D01*
X047384Y065254D01*
X047386Y065248D01*
X047387Y065241D01*
X047351Y065238D01*
Y065239D01*
X04735Y065239D01*
Y065241D01*
X04735Y065243D01*
X047349Y065245D01*
X047349Y065247D01*
X047347Y065253D01*
X047345Y065258D01*
X047342Y065264D01*
X047338Y06527D01*
X047336Y065273D01*
X047334Y065275D01*
X047333Y065275D01*
X047331Y065276D01*
X047328Y065278D01*
X047325Y06528D01*
X04732Y065282D01*
X047314Y065284D01*
X047308Y065286D01*
X047301Y065286D01*
X047298D01*
X047295Y065286D01*
X047291Y065285D01*
X047286Y065284D01*
X047281Y065283D01*
X047276Y065281D01*
X047271Y065278D01*
X04727Y065278D01*
X047269Y065277D01*
X047267Y065275D01*
X047264Y065273D01*
X04726Y06527D01*
X047257Y065266D01*
X047253Y065262D01*
X04725Y065257D01*
X047249Y065257D01*
X047248Y065255D01*
X047247Y065252D01*
X047245Y065248D01*
X047243Y065243D01*
X047241Y065237D01*
X047238Y06523D01*
X047236Y065222D01*
Y065222D01*
X047236Y065221D01*
X047235Y06522D01*
X047235Y065218D01*
X047235Y065216D01*
X047234Y065214D01*
X047234Y065211D01*
X047233Y065208D01*
X047232Y065201D01*
X047231Y065194D01*
X047231Y065185D01*
X04723Y065177D01*
Y065176D01*
Y065175D01*
Y065173D01*
Y06517D01*
X047231Y06517D01*
X047231Y065171D01*
X047232Y065172D01*
X047235Y065175D01*
X047238Y065179D01*
X047243Y065184D01*
X047248Y065189D01*
X047254Y065194D01*
X047261Y065198D01*
X047261D01*
X047262Y065198D01*
X047263Y065199D01*
X047264Y0652D01*
X047266Y065201D01*
X047268Y065201D01*
X047273Y065203D01*
X04728Y065206D01*
X047287Y065207D01*
X047295Y065209D01*
X047303Y065209D01*
X047305D01*
X047307Y065209D01*
X047309D01*
X047312Y065208D01*
X047316Y065208D01*
X04732Y065207D01*
X047325Y065206D01*
X04733Y065204D01*
X047335Y065202D01*
X04734Y0652D01*
X047345Y065197D01*
X047351Y065194D01*
X047356Y065191D01*
X047361Y065187D01*
X047366Y065182D01*
X047367Y065182D01*
X047367Y065181D01*
X047369Y065179D01*
X04737Y065177D01*
X047372Y065174D01*
X047374Y065171D01*
X047377Y065167D01*
X047379Y065163D01*
X047382Y065158D01*
X047384Y065152D01*
X047386Y065147D01*
X047388Y06514D01*
X04739Y065133D01*
X047391Y065126D01*
X047392Y065118D01*
X047392Y06511D01*
Y06511D01*
Y065108D01*
X047392Y065106D01*
Y065103D01*
X047391Y065099D01*
X047391Y065094D01*
X04739Y065089D01*
X047389Y065084D01*
X047387Y065078D01*
X047386Y065072D01*
X047383Y065066D01*
X047381Y06506D01*
X047378Y065053D01*
X047374Y065047D01*
X04737Y065042D01*
X047365Y065036D01*
X047365Y065036D01*
X047364Y065035D01*
X047362Y065033D01*
X04736Y065032D01*
X047358Y065029D01*
X047354Y065027D01*
X047351Y065025D01*
X047347Y065022D01*
X047342Y065019D01*
X047337Y065017D01*
X047331Y065014D01*
X047325Y065012D01*
X047319Y06501D01*
X047312Y065009D01*
X047305Y065008D01*
X047297Y065008D01*
X047294D01*
X047292Y065008D01*
X04729D01*
X047287Y065009D01*
X047283Y065009D01*
X04728Y06501D01*
X047271Y065012D01*
X047262Y065015D01*
X047258Y065016D01*
X047253Y065019D01*
X047248Y065021D01*
X047244Y065024D01*
X047243Y065024D01*
X047243Y065025D01*
X047241Y065026D01*
X04724Y065027D01*
X047237Y065029D01*
X047235Y06503D01*
X047232Y065033D01*
X04723Y065035D01*
X047227Y065038D01*
X047224Y065042D01*
X047221Y065046D01*
X047217Y06505D01*
X047214Y065054D01*
X047211Y065059D01*
X047209Y065064D01*
X047206Y065069D01*
Y06507D01*
X047205Y065071D01*
X047205Y065072D01*
X047204Y065075D01*
X047203Y065078D01*
X047202Y065081D01*
X047201Y065086D01*
X0472Y065091D01*
X047199Y065096D01*
X047197Y065103D01*
X047196Y06511D01*
X047195Y065117D01*
X047195Y065126D01*
X047194Y065134D01*
X047193Y065144D01*
Y065154D01*
Y065155D01*
Y065157D01*
Y06516D01*
X047194Y065164D01*
Y065169D01*
X047194Y065174D01*
X047194Y065181D01*
X047195Y065188D01*
X047196Y065195D01*
X047196Y065202D01*
X047199Y065218D01*
X047202Y065233D01*
X047204Y06524D01*
X047206Y065247D01*
Y065247D01*
X047207Y065248D01*
X047207Y06525D01*
X047208Y065252D01*
X04721Y065255D01*
X047211Y065258D01*
X047213Y065262D01*
X047215Y065266D01*
X047221Y065274D01*
X047227Y065283D01*
X047235Y065291D01*
X047239Y065295D01*
X047244Y065299D01*
X047244Y065299D01*
X047245Y065299D01*
X047246Y0653D01*
X047248Y065301D01*
X04725Y065303D01*
X047253Y065304D01*
X047256Y065306D01*
X04726Y065308D01*
X047264Y065309D01*
X047269Y065311D01*
X047273Y065312D01*
X047279Y065314D01*
X04729Y065316D01*
X047296Y065316D01*
X047302Y065317D01*
X047305D01*
X047308Y065316D01*
D02*
G37*
G36*
X049312D02*
X049316D01*
X04932Y065316D01*
X049324Y065316D01*
X04933Y065315D01*
X04934Y065314D01*
X049352Y065312D01*
X049363Y065309D01*
X049375Y065305D01*
X049375D01*
X049376Y065304D01*
X049377Y065303D01*
X049379Y065302D01*
X049381Y065301D01*
X049384Y0653D01*
X04939Y065296D01*
X049397Y065291D01*
X049404Y065285D01*
X049412Y065277D01*
X049418Y065269D01*
X049418Y065269D01*
X049419Y065268D01*
X049419Y065267D01*
X04942Y065265D01*
X049421Y065262D01*
X049423Y06526D01*
X049424Y065256D01*
X049426Y065253D01*
X049427Y065249D01*
X049429Y065245D01*
X049431Y065235D01*
X049433Y065225D01*
X049434Y06522D01*
X049434Y065214D01*
X049397Y065211D01*
Y065211D01*
Y065212D01*
X049396Y065213D01*
X049396Y065215D01*
X049396Y065217D01*
X049395Y065219D01*
X049394Y065224D01*
X049392Y06523D01*
X04939Y065236D01*
X049388Y065243D01*
X049384Y065249D01*
X049384Y065249D01*
X049382Y065251D01*
X04938Y065254D01*
X049377Y065257D01*
X049373Y065261D01*
X049367Y065264D01*
X049361Y065268D01*
X049354Y065272D01*
X049354D01*
X049353Y065272D01*
X049352Y065273D01*
X04935Y065273D01*
X049348Y065274D01*
X049346Y065275D01*
X049343Y065276D01*
X04934Y065276D01*
X049334Y065278D01*
X049325Y065279D01*
X049317Y06528D01*
X049307Y065281D01*
X049303D01*
X049301Y06528D01*
X049299D01*
X049294Y06528D01*
X049288Y065279D01*
X049281Y065278D01*
X049274Y065276D01*
X049267Y065274D01*
X049267D01*
X049267Y065274D01*
X049266Y065274D01*
X049264Y065273D01*
X049261Y065271D01*
X049257Y065269D01*
X049253Y065267D01*
X049249Y065263D01*
X049245Y06526D01*
X049241Y065255D01*
X049241Y065255D01*
X04924Y065254D01*
X049238Y065251D01*
X049236Y065248D01*
X049235Y065244D01*
X049234Y065239D01*
X049233Y065234D01*
X049232Y06523D01*
Y065229D01*
Y065229D01*
Y065227D01*
X049233Y065224D01*
X049233Y065221D01*
X049234Y065217D01*
X049236Y065213D01*
X049238Y065209D01*
X049241Y065205D01*
X049241Y065204D01*
X049242Y065203D01*
X049244Y065201D01*
X049247Y065198D01*
X049251Y065196D01*
X049256Y065193D01*
X049261Y06519D01*
X049268Y065187D01*
X049269Y065187D01*
X049269Y065186D01*
X049271Y065186D01*
X049272Y065186D01*
X049274Y065185D01*
X049276Y065184D01*
X049279Y065183D01*
X049283Y065182D01*
X049286Y065181D01*
X049291Y06518D01*
X049296Y065179D01*
X049301Y065177D01*
X049307Y065176D01*
X049314Y065174D01*
X049322Y065172D01*
X049322D01*
X049323Y065172D01*
X049326Y065171D01*
X049328Y065171D01*
X049332Y06517D01*
X049336Y065169D01*
X04934Y065167D01*
X049344Y065166D01*
X049354Y065163D01*
X049364Y06516D01*
X049368Y065158D01*
X049373Y065156D01*
X049377Y065155D01*
X04938Y065153D01*
X04938D01*
X049381Y065152D01*
X049382Y065152D01*
X049383Y065151D01*
X049387Y065149D01*
X049392Y065146D01*
X049398Y065141D01*
X049403Y065137D01*
X049408Y065131D01*
X049412Y065125D01*
Y065125D01*
X049413Y065125D01*
X049413Y065124D01*
X049414Y065122D01*
X049416Y065119D01*
X049418Y065114D01*
X049419Y065109D01*
X049421Y065102D01*
X049422Y065095D01*
X049423Y065087D01*
Y065087D01*
Y065086D01*
Y065085D01*
X049422Y065083D01*
Y065081D01*
X049422Y065079D01*
X049421Y065073D01*
X049419Y065067D01*
X049418Y06506D01*
X049414Y065052D01*
X04941Y065045D01*
Y065044D01*
X049409Y065044D01*
X049409Y065043D01*
X049408Y065041D01*
X049404Y065038D01*
X0494Y065033D01*
X049395Y065028D01*
X049388Y065023D01*
X049381Y065018D01*
X049372Y065014D01*
X049372D01*
X049371Y065014D01*
X049369Y065013D01*
X049368Y065012D01*
X049365Y065012D01*
X049362Y065011D01*
X049359Y06501D01*
X049356Y065009D01*
X049352Y065008D01*
X049347Y065007D01*
X049338Y065005D01*
X049328Y065004D01*
X049317Y065004D01*
X049311D01*
X049308Y065004D01*
X049304Y065004D01*
X049301Y065005D01*
X049296Y065005D01*
X049287Y065006D01*
X049277Y065008D01*
X049267Y065011D01*
X049257Y065015D01*
X049257D01*
X049256Y065015D01*
X049255Y065016D01*
X049253Y065017D01*
X049251Y065018D01*
X049248Y065019D01*
X049243Y065023D01*
X049236Y065027D01*
X04923Y065033D01*
X049223Y065039D01*
X049218Y065047D01*
X049217Y065047D01*
X049217Y065048D01*
X049216Y065049D01*
X049215Y06505D01*
X049214Y065052D01*
X049213Y065054D01*
X049212Y065057D01*
X049211Y06506D01*
X049208Y065067D01*
X049206Y065075D01*
X049204Y065084D01*
X049203Y065094D01*
X049241Y065097D01*
Y065097D01*
X049241Y065096D01*
Y065094D01*
X049242Y065092D01*
X049242Y06509D01*
X049243Y065087D01*
X049245Y065081D01*
X049248Y065074D01*
X049252Y065067D01*
X049256Y06506D01*
X049259Y065057D01*
X049262Y065054D01*
X049263Y065054D01*
X049263Y065053D01*
X049264Y065053D01*
X049266Y065052D01*
X049268Y065051D01*
X04927Y06505D01*
X049273Y065048D01*
X049275Y065047D01*
X049279Y065045D01*
X049283Y065044D01*
X049287Y065043D01*
X049292Y065042D01*
X049297Y065041D01*
X049303Y06504D01*
X049309Y065039D01*
X049318D01*
X049321Y06504D01*
X049324D01*
X049327Y06504D01*
X049331Y06504D01*
X049335Y065041D01*
X049344Y065043D01*
X049352Y065045D01*
X04936Y065048D01*
X049364Y06505D01*
X049368Y065053D01*
X049368D01*
X049368Y065053D01*
X04937Y065055D01*
X049373Y065058D01*
X049376Y065062D01*
X049379Y065067D01*
X049381Y065072D01*
X049383Y065078D01*
X049384Y065081D01*
X049384Y065085D01*
Y065085D01*
Y065086D01*
X049384Y065088D01*
X049383Y06509D01*
X049383Y065094D01*
X049381Y065098D01*
X049379Y065103D01*
X049377Y065107D01*
X049373Y065111D01*
X049372Y065112D01*
X049371Y065112D01*
X04937Y065113D01*
X049368Y065114D01*
X049366Y065115D01*
X049364Y065117D01*
X049361Y065118D01*
X049357Y06512D01*
X049353Y065122D01*
X049348Y065123D01*
X049342Y065125D01*
X049336Y065127D01*
X049329Y065129D01*
X049321Y065132D01*
X049312Y065133D01*
X049312D01*
X04931Y065134D01*
X049308Y065134D01*
X049304Y065135D01*
X0493Y065136D01*
X049296Y065137D01*
X049291Y065138D01*
X049286Y06514D01*
X049275Y065143D01*
X049263Y065146D01*
X049258Y065148D01*
X049254Y065149D01*
X049249Y065151D01*
X049245Y065152D01*
X049245D01*
X049244Y065153D01*
X049243Y065154D01*
X049241Y065155D01*
X049239Y065156D01*
X049236Y065157D01*
X049231Y065161D01*
X049224Y065165D01*
X049218Y065171D01*
X049212Y065177D01*
X049209Y06518D01*
X049206Y065183D01*
Y065184D01*
X049206Y065184D01*
X049205Y065185D01*
X049204Y065187D01*
X049203Y065188D01*
X049202Y065191D01*
X0492Y065196D01*
X049197Y065202D01*
X049195Y065209D01*
X049194Y065217D01*
X049194Y065226D01*
Y065227D01*
Y065227D01*
Y065229D01*
X049194Y06523D01*
Y065233D01*
X049194Y065235D01*
X049195Y065241D01*
X049197Y065248D01*
X049199Y065255D01*
X049203Y065263D01*
X049205Y065268D01*
X049208Y065272D01*
Y065272D01*
X049208Y065273D01*
X049209Y065274D01*
X04921Y065275D01*
X049213Y065279D01*
X049218Y065284D01*
X049223Y065289D01*
X04923Y065295D01*
X049238Y0653D01*
X049247Y065305D01*
X049248D01*
X049249Y065305D01*
X04925Y065306D01*
X049252Y065307D01*
X049254Y065307D01*
X049257Y065308D01*
X04926Y06531D01*
X049264Y065311D01*
X049268Y065312D01*
X049273Y065313D01*
X049283Y065315D01*
X049294Y065316D01*
X049305Y065317D01*
X049309D01*
X049312Y065316D01*
D02*
G37*
G36*
X04914Y065009D02*
X04908D01*
X049009Y065223D01*
Y065224D01*
X049008Y065225D01*
X049008Y065226D01*
X049007Y065228D01*
X049006Y065231D01*
X049005Y065234D01*
X049003Y06524D01*
X049001Y065247D01*
X048998Y065255D01*
X048996Y065262D01*
X048995Y065265D01*
X048994Y065268D01*
Y065268D01*
X048994Y065267D01*
X048993Y065266D01*
X048993Y065265D01*
X048992Y065263D01*
X048992Y065261D01*
X048991Y065258D01*
X04899Y065256D01*
X048989Y065253D01*
X048988Y065249D01*
X048987Y065245D01*
X048985Y06524D01*
X048984Y065236D01*
X048982Y065231D01*
X04898Y065225D01*
X048978Y065219D01*
X048905Y065009D01*
X048851D01*
Y065312D01*
X04889D01*
Y065058D01*
X048978Y065312D01*
X049014D01*
X049102Y065054D01*
Y065312D01*
X04914D01*
Y065009D01*
D02*
G37*
G36*
X047731D02*
X047671D01*
X047599Y065223D01*
Y065224D01*
X047599Y065225D01*
X047598Y065226D01*
X047597Y065228D01*
X047597Y065231D01*
X047596Y065234D01*
X047594Y06524D01*
X047591Y065247D01*
X047589Y065255D01*
X047587Y065262D01*
X047586Y065265D01*
X047585Y065268D01*
Y065268D01*
X047584Y065267D01*
X047584Y065266D01*
X047584Y065265D01*
X047583Y065263D01*
X047582Y065261D01*
X047582Y065258D01*
X047581Y065256D01*
X04758Y065253D01*
X047578Y065249D01*
X047577Y065245D01*
X047576Y06524D01*
X047574Y065236D01*
X047573Y065231D01*
X047571Y065225D01*
X047569Y065219D01*
X047496Y065009D01*
X047442D01*
Y065312D01*
X04748D01*
Y065058D01*
X047569Y065312D01*
X047605D01*
X047692Y065054D01*
Y065312D01*
X047731D01*
Y065009D01*
D02*
G37*
G36*
X047144D02*
X047083D01*
X047012Y065223D01*
Y065224D01*
X047011Y065225D01*
X047011Y065226D01*
X04701Y065228D01*
X047009Y065231D01*
X047008Y065234D01*
X047006Y06524D01*
X047004Y065247D01*
X047001Y065255D01*
X046999Y065262D01*
X046998Y065265D01*
X046997Y065268D01*
Y065268D01*
X046997Y065267D01*
X046997Y065266D01*
X046996Y065265D01*
X046996Y065263D01*
X046995Y065261D01*
X046994Y065258D01*
X046993Y065256D01*
X046992Y065253D01*
X046991Y065249D01*
X04699Y065245D01*
X046988Y06524D01*
X046987Y065236D01*
X046985Y065231D01*
X046983Y065225D01*
X046981Y065219D01*
X046908Y065009D01*
X046854D01*
Y065312D01*
X046893D01*
Y065058D01*
X046981Y065312D01*
X047018D01*
X047105Y065054D01*
Y065312D01*
X047144D01*
Y065009D01*
D02*
G37*
G36*
X048242Y065316D02*
X048246Y065316D01*
X04825Y065316D01*
X048256Y065315D01*
X048262Y065314D01*
X048268Y065313D01*
X048274Y065312D01*
X048281Y06531D01*
X048288Y065308D01*
X048294Y065306D01*
X048301Y065303D01*
X048307Y0653D01*
X048313Y065297D01*
X048313Y065296D01*
X048314Y065296D01*
X048316Y065295D01*
X048318Y065293D01*
X048321Y065291D01*
X048324Y065289D01*
X048327Y065286D01*
X048331Y065282D01*
X048334Y065278D01*
X048338Y065274D01*
X048342Y065269D01*
X048346Y065264D01*
X04835Y065258D01*
X048353Y065253D01*
X048356Y065246D01*
X04836Y065239D01*
X04836Y065239D01*
X04836Y065237D01*
X048361Y065235D01*
X048362Y065233D01*
X048363Y065229D01*
X048365Y065225D01*
X048366Y06522D01*
X048368Y065215D01*
X048369Y065209D01*
X048371Y065203D01*
X048372Y065196D01*
X048373Y065189D01*
X048375Y065174D01*
X048375Y065166D01*
X048375Y065158D01*
Y065157D01*
Y065156D01*
Y065153D01*
X048375Y06515D01*
X048375Y065146D01*
X048374Y065141D01*
X048374Y065136D01*
X048373Y06513D01*
X048372Y065124D01*
X048371Y065117D01*
X048368Y065103D01*
X048366Y065096D01*
X048363Y065089D01*
X048361Y065082D01*
X048357Y065075D01*
X048357Y065075D01*
X048356Y065074D01*
X048355Y065072D01*
X048354Y06507D01*
X048352Y065067D01*
X04835Y065063D01*
X048347Y06506D01*
X048344Y065055D01*
X048341Y065051D01*
X048337Y065047D01*
X048333Y065043D01*
X048328Y065038D01*
X048323Y065034D01*
X048318Y065029D01*
X048312Y065026D01*
X048306Y065022D01*
X048306Y065022D01*
X048305Y065021D01*
X048303Y06502D01*
X0483Y065019D01*
X048297Y065018D01*
X048293Y065016D01*
X048289Y065014D01*
X048285Y065013D01*
X048279Y065011D01*
X048273Y065009D01*
X048268Y065008D01*
X048261Y065007D01*
X048248Y065004D01*
X04824Y065004D01*
X048233Y065004D01*
X048229D01*
X048225Y065004D01*
X048221Y065004D01*
X048217Y065005D01*
X048212Y065006D01*
X048206Y065007D01*
X0482Y065008D01*
X048194Y065009D01*
X048188Y065011D01*
X048181Y065013D01*
X048175Y065016D01*
X048169Y065019D01*
X048162Y065023D01*
X048156Y065027D01*
X048156Y065027D01*
X048155Y065028D01*
X048153Y065029D01*
X048151Y065031D01*
X048149Y065033D01*
X048146Y065036D01*
X048143Y06504D01*
X048139Y065044D01*
X048136Y065048D01*
X048132Y065053D01*
X048128Y065058D01*
X048125Y065064D01*
X048122Y06507D01*
X048119Y065077D01*
X048116Y065084D01*
X048113Y065092D01*
X048152Y065101D01*
Y065101D01*
X048153Y0651D01*
X048153Y065098D01*
X048154Y065095D01*
X048155Y065093D01*
X048157Y06509D01*
X04816Y065083D01*
X048165Y065075D01*
X04817Y065067D01*
X048176Y065059D01*
X04818Y065056D01*
X048183Y065053D01*
X048184Y065052D01*
X048184Y065052D01*
X048185Y065051D01*
X048187Y06505D01*
X048189Y065049D01*
X048191Y065048D01*
X048194Y065047D01*
X048197Y065045D01*
X048201Y065044D01*
X048204Y065043D01*
X048213Y06504D01*
X048223Y065038D01*
X048228Y065038D01*
X048237D01*
X048239Y065038D01*
X048242Y065038D01*
X048246Y065039D01*
X04825Y065039D01*
X048254Y06504D01*
X048263Y065042D01*
X048273Y065045D01*
X048278Y065047D01*
X048283Y065049D01*
X048288Y065052D01*
X048292Y065055D01*
X048292Y065055D01*
X048293Y065055D01*
X048294Y065056D01*
X048296Y065058D01*
X048298Y065059D01*
X0483Y065062D01*
X048302Y065064D01*
X048305Y065067D01*
X048308Y06507D01*
X048311Y065073D01*
X048316Y065081D01*
X048321Y06509D01*
X048325Y0651D01*
Y0651D01*
X048325Y065101D01*
X048326Y065103D01*
X048326Y065105D01*
X048327Y065107D01*
X048328Y06511D01*
X048329Y065114D01*
X04833Y065117D01*
X048331Y065122D01*
X048331Y065126D01*
X048333Y065136D01*
X048334Y065147D01*
X048334Y065158D01*
Y065158D01*
Y065159D01*
Y065161D01*
X048334Y065164D01*
Y065168D01*
X048333Y065172D01*
X048333Y065176D01*
X048333Y065181D01*
X048332Y065186D01*
X048332Y065191D01*
X04833Y065203D01*
X048327Y065214D01*
X048323Y065225D01*
Y065226D01*
X048322Y065227D01*
X048322Y065228D01*
X048321Y06523D01*
X04832Y065233D01*
X048318Y065235D01*
X048314Y065241D01*
X04831Y065249D01*
X048304Y065255D01*
X048296Y065262D01*
X048292Y065265D01*
X048288Y065268D01*
X048288D01*
X048287Y065269D01*
X048286Y06527D01*
X048284Y065271D01*
X048282Y065272D01*
X048279Y065273D01*
X048276Y065274D01*
X048273Y065275D01*
X048265Y065278D01*
X048256Y06528D01*
X048247Y065282D01*
X048242Y065282D01*
X048237Y065282D01*
X048233D01*
X048231Y065282D01*
X048228Y065282D01*
X048225Y065281D01*
X048221Y065281D01*
X048217Y06528D01*
X048208Y065278D01*
X048203Y065276D01*
X048198Y065274D01*
X048193Y065272D01*
X048189Y065269D01*
X048184Y065266D01*
X04818Y065263D01*
X048179Y065263D01*
X048179Y065262D01*
X048177Y065261D01*
X048176Y065259D01*
X048174Y065257D01*
X048172Y065255D01*
X048169Y065252D01*
X048167Y065249D01*
X048164Y065245D01*
X048162Y06524D01*
X048159Y065236D01*
X048156Y065231D01*
X048154Y065225D01*
X048152Y065219D01*
X048149Y065212D01*
X048148Y065205D01*
X048108Y065215D01*
Y065216D01*
X048108Y065218D01*
X048109Y06522D01*
X04811Y065224D01*
X048112Y065228D01*
X048114Y065233D01*
X048116Y065238D01*
X048118Y065243D01*
X048121Y06525D01*
X048125Y065255D01*
X048128Y065262D01*
X048132Y065268D01*
X048137Y065274D01*
X048142Y06528D01*
X048148Y065286D01*
X048153Y065291D01*
X048154Y065291D01*
X048155Y065292D01*
X048157Y065293D01*
X048159Y065295D01*
X048162Y065297D01*
X048166Y065299D01*
X04817Y065301D01*
X048176Y065304D01*
X048181Y065306D01*
X048187Y065308D01*
X048194Y065311D01*
X048201Y065313D01*
X048209Y065314D01*
X048216Y065316D01*
X048225Y065316D01*
X048233Y065317D01*
X048238D01*
X048242Y065316D01*
D02*
G37*
G36*
X048787Y065009D02*
X048674D01*
X048671Y065009D01*
X048667D01*
X048663Y065009D01*
X048654Y06501D01*
X048645Y065011D01*
X048636Y065012D01*
X048632Y065013D01*
X048629Y065013D01*
X048628D01*
X048627Y065014D01*
X048626Y065014D01*
X048624Y065015D01*
X048622Y065015D01*
X048619Y065016D01*
X048613Y065018D01*
X048606Y065021D01*
X048599Y065025D01*
X048592Y065029D01*
X048584Y065035D01*
X048584Y065035D01*
X048583Y065036D01*
X048582Y065037D01*
X04858Y065039D01*
X048579Y065041D01*
X048576Y065043D01*
X048574Y065046D01*
X048571Y065049D01*
X048568Y065053D01*
X048565Y065057D01*
X048562Y065061D01*
X048559Y065066D01*
X048554Y065076D01*
X048549Y065087D01*
Y065087D01*
X048548Y065088D01*
X048548Y06509D01*
X048547Y065092D01*
X048546Y065095D01*
X048545Y065099D01*
X048544Y065103D01*
X048542Y065108D01*
X048541Y065113D01*
X04854Y065118D01*
X048539Y065124D01*
X048538Y065131D01*
X048538Y065137D01*
X048537Y065144D01*
X048537Y065159D01*
Y065159D01*
Y06516D01*
Y065162D01*
Y065165D01*
X048537Y065168D01*
Y065171D01*
X048537Y065175D01*
X048538Y065179D01*
X048538Y065189D01*
X04854Y065199D01*
X048542Y06521D01*
X048545Y06522D01*
Y06522D01*
X048545Y065221D01*
X048546Y065223D01*
X048546Y065224D01*
X048547Y065227D01*
X048548Y065229D01*
X04855Y065235D01*
X048553Y065242D01*
X048557Y06525D01*
X048561Y065257D01*
X048565Y065264D01*
Y065264D01*
X048566Y065265D01*
X048567Y065266D01*
X048568Y065267D01*
X04857Y06527D01*
X048574Y065274D01*
X048578Y065278D01*
X048582Y065283D01*
X048587Y065287D01*
X048593Y065292D01*
X048593D01*
X048594Y065292D01*
X048596Y065293D01*
X048599Y065295D01*
X048603Y065297D01*
X048608Y065299D01*
X048615Y065302D01*
X048622Y065304D01*
X048629Y065307D01*
X04863D01*
X04863Y065307D01*
X048631D01*
X048633Y065307D01*
X048635Y065308D01*
X048638Y065308D01*
X04864Y065309D01*
X048643Y065309D01*
X04865Y06531D01*
X048659Y065311D01*
X048668Y065311D01*
X048678Y065312D01*
X048787D01*
Y065009D01*
D02*
G37*
G36*
X047933Y065316D02*
X047937Y065316D01*
X047942Y065316D01*
X047946Y065315D01*
X047952Y065314D01*
X047957Y065313D01*
X047964Y065312D01*
X04797Y06531D01*
X047976Y065308D01*
X047983Y065306D01*
X047989Y065303D01*
X047996Y0653D01*
X048003Y065296D01*
X048003Y065296D01*
X048004Y065295D01*
X048006Y065294D01*
X048008Y065292D01*
X048011Y06529D01*
X048014Y065288D01*
X048018Y065285D01*
X048022Y065281D01*
X048026Y065277D01*
X04803Y065273D01*
X048034Y065269D01*
X048038Y065264D01*
X048043Y065258D01*
X048046Y065253D01*
X04805Y065246D01*
X048054Y06524D01*
X048054Y065239D01*
X048054Y065238D01*
X048055Y065236D01*
X048056Y065234D01*
X048058Y06523D01*
X048059Y065226D01*
X048061Y065222D01*
X048062Y065217D01*
X048064Y065212D01*
X048066Y065206D01*
X048067Y065199D01*
X048068Y065193D01*
X04807Y065179D01*
X04807Y065172D01*
X048071Y065164D01*
Y065164D01*
Y065163D01*
Y065162D01*
Y065161D01*
X04807Y065159D01*
Y065157D01*
X04807Y065152D01*
X048069Y065146D01*
X048068Y065138D01*
X048067Y06513D01*
X048066Y065121D01*
X048064Y065112D01*
X048061Y065102D01*
X048058Y065092D01*
X048054Y065083D01*
X048049Y065073D01*
X048044Y065064D01*
X048038Y065054D01*
X04803Y065046D01*
X04803Y065046D01*
X048028Y065044D01*
X048026Y065042D01*
X048023Y06504D01*
X048019Y065036D01*
X048014Y065033D01*
X048009Y065029D01*
X048002Y065025D01*
X047995Y065021D01*
X047987Y065017D01*
X047979Y065013D01*
X047969Y06501D01*
X047959Y065008D01*
X047949Y065006D01*
X047938Y065004D01*
X047926Y065004D01*
X047922D01*
X047919Y065004D01*
X047915Y065004D01*
X047911Y065005D01*
X047906Y065005D01*
X047901Y065006D01*
X047895Y065007D01*
X047889Y065009D01*
X047883Y06501D01*
X047876Y065012D01*
X04787Y065014D01*
X047863Y065017D01*
X047857Y06502D01*
X04785Y065024D01*
X04785Y065024D01*
X047849Y065025D01*
X047847Y065026D01*
X047845Y065027D01*
X047842Y065029D01*
X047839Y065032D01*
X047835Y065035D01*
X047831Y065038D01*
X047827Y065042D01*
X047823Y065046D01*
X047819Y065051D01*
X047814Y065056D01*
X04781Y065061D01*
X047806Y065067D01*
X047802Y065073D01*
X047799Y06508D01*
X047799Y06508D01*
X047798Y065081D01*
X047797Y065083D01*
X047796Y065086D01*
X047795Y065089D01*
X047793Y065093D01*
X047792Y065098D01*
X04779Y065103D01*
X047788Y065109D01*
X047787Y065115D01*
X047785Y065122D01*
X047784Y065129D01*
X047783Y065136D01*
X047782Y065144D01*
X047781Y065152D01*
X047781Y065161D01*
Y065161D01*
Y065163D01*
Y065165D01*
X047781Y065169D01*
X047782Y065173D01*
X047782Y065177D01*
X047783Y065182D01*
X047783Y065188D01*
X047784Y065194D01*
X047786Y065201D01*
X047787Y065208D01*
X047789Y065215D01*
X047791Y065222D01*
X047794Y065229D01*
X047797Y065236D01*
X0478Y065243D01*
X0478Y065243D01*
X047801Y065245D01*
X047802Y065247D01*
X047803Y065249D01*
X047805Y065252D01*
X047807Y065255D01*
X04781Y065259D01*
X047813Y065264D01*
X047817Y065268D01*
X047821Y065273D01*
X047825Y065277D01*
X04783Y065282D01*
X047835Y065286D01*
X04784Y06529D01*
X047846Y065295D01*
X047853Y065298D01*
X047853Y065298D01*
X047854Y065299D01*
X047856Y0653D01*
X047859Y065301D01*
X047862Y065302D01*
X047865Y065304D01*
X04787Y065306D01*
X047875Y065307D01*
X04788Y065309D01*
X047885Y065311D01*
X047892Y065312D01*
X047898Y065314D01*
X047912Y065316D01*
X047919Y065316D01*
X047926Y065317D01*
X04793D01*
X047933Y065316D01*
D02*
G37*
G36*
X05241Y084383D02*
X052493D01*
Y084348D01*
X05241D01*
Y084265D01*
X052376D01*
Y084348D01*
X052293D01*
Y084383D01*
X052376D01*
Y084465D01*
X05241D01*
Y084383D01*
D02*
G37*
G36*
X060215Y074362D02*
X060297D01*
Y074327D01*
X060215D01*
Y074244D01*
X06018D01*
Y074327D01*
X060098D01*
Y074362D01*
X06018D01*
Y074445D01*
X060215D01*
Y074362D01*
D02*
G37*
G36*
X059334Y067354D02*
X059276D01*
Y067572D01*
X059276Y067572D01*
X059275Y067571D01*
X059273Y067569D01*
X059271Y067568D01*
X059268Y067565D01*
X059264Y067562D01*
X05926Y067559D01*
X059255Y067556D01*
X05925Y067552D01*
X059244Y067549D01*
X059238Y067545D01*
X059231Y067541D01*
X059225Y067538D01*
X059217Y067534D01*
X059209Y067531D01*
X059202Y067529D01*
Y067581D01*
X059202D01*
X059203Y067582D01*
X059204Y067582D01*
X059205Y067583D01*
X059208Y067584D01*
X05921Y067585D01*
X059213Y067586D01*
X059216Y067588D01*
X059224Y067591D01*
X059232Y067596D01*
X059241Y067602D01*
X059251Y067609D01*
X059251Y06761D01*
X059252Y06761D01*
X059253Y067611D01*
X059255Y067613D01*
X059257Y067615D01*
X05926Y067617D01*
X059262Y06762D01*
X059265Y067623D01*
X059271Y067631D01*
X059277Y067639D01*
X059283Y067648D01*
X059285Y067653D01*
X059287Y067658D01*
X059334D01*
Y067354D01*
D02*
G37*
G36*
X05916Y067606D02*
X05907D01*
Y067354D01*
X059009D01*
Y067606D01*
X058919D01*
Y067657D01*
X05916D01*
Y067606D01*
D02*
G37*
G36*
X058745Y067406D02*
X058897D01*
Y067354D01*
X058684D01*
Y067654D01*
X058745D01*
Y067406D01*
D02*
G37*
G36*
X058651Y067354D02*
X058584D01*
X058557Y067423D01*
X058436D01*
X058411Y067354D01*
X058346D01*
X058464Y067657D01*
X058529D01*
X058651Y067354D01*
D02*
G37*
G36*
X059856Y06767D02*
X059861Y067669D01*
X059867Y067669D01*
X059873Y067668D01*
X059879Y067667D01*
X059886Y067666D01*
X059893Y067664D01*
X059901Y067662D01*
X059908Y06766D01*
X059915Y067657D01*
X059922Y067654D01*
X059929Y067651D01*
X059935Y067646D01*
X059935Y067646D01*
X059936Y067645D01*
X059938Y067644D01*
X05994Y067642D01*
X059943Y067639D01*
X059945Y067637D01*
X059949Y067633D01*
X059952Y067629D01*
X059956Y067625D01*
X059959Y06762D01*
X059963Y067614D01*
X059966Y067609D01*
X059969Y067603D01*
X059972Y067596D01*
X059974Y067589D01*
X059976Y067581D01*
X059915Y067569D01*
Y06757D01*
X059915Y06757D01*
X059915Y067572D01*
X059914Y067573D01*
X059913Y067575D01*
X059912Y067577D01*
X05991Y067582D01*
X059906Y067588D01*
X059902Y067594D01*
X059897Y067599D01*
X059891Y067605D01*
X059891D01*
X05989Y067605D01*
X059889Y067606D01*
X059888Y067607D01*
X059886Y067608D01*
X059884Y067609D01*
X059882Y06761D01*
X059879Y067611D01*
X059873Y067613D01*
X059865Y067616D01*
X059857Y067617D01*
X059847Y067618D01*
X059843D01*
X059841Y067617D01*
X059837Y067617D01*
X059833Y067616D01*
X059829Y067615D01*
X059824Y067614D01*
X059819Y067613D01*
X059814Y067611D01*
X059809Y06761D01*
X059803Y067607D01*
X059798Y067604D01*
X059793Y067601D01*
X059788Y067597D01*
X059783Y067592D01*
X059783Y067592D01*
X059782Y067591D01*
X059781Y06759D01*
X05978Y067587D01*
X059778Y067585D01*
X059776Y067581D01*
X059774Y067578D01*
X059772Y067573D01*
X059769Y067568D01*
X059767Y067563D01*
X059765Y067556D01*
X059763Y067549D01*
X059762Y067542D01*
X059761Y067534D01*
X05976Y067526D01*
X05976Y067517D01*
Y067516D01*
Y067514D01*
X05976Y067511D01*
Y067508D01*
X05976Y067503D01*
X059761Y067498D01*
X059762Y067492D01*
X059763Y067486D01*
X059764Y06748D01*
X059766Y067473D01*
X059768Y067467D01*
X05977Y06746D01*
X059773Y067453D01*
X059776Y067447D01*
X05978Y067441D01*
X059784Y067436D01*
X059784Y067435D01*
X059785Y067435D01*
X059786Y067433D01*
X059788Y067431D01*
X059791Y067429D01*
X059793Y067427D01*
X059797Y067425D01*
X059801Y067422D01*
X059805Y06742D01*
X05981Y067417D01*
X059815Y067415D01*
X05982Y067413D01*
X059826Y067411D01*
X059833Y06741D01*
X059839Y067409D01*
X059846Y067409D01*
X05985D01*
X059851Y067409D01*
X059854D01*
X059859Y06741D01*
X059864Y067411D01*
X059871Y067412D01*
X059878Y067414D01*
X059885Y067416D01*
X059885D01*
X059886Y067417D01*
X059887Y067417D01*
X059888Y067418D01*
X059892Y067419D01*
X059896Y067422D01*
X059902Y067424D01*
X059907Y067427D01*
X059913Y06743D01*
X059918Y067434D01*
Y067473D01*
X059848D01*
Y067524D01*
X05998D01*
Y067403D01*
X05998Y067403D01*
X059979Y067403D01*
X059978Y067402D01*
X059976Y0674D01*
X059974Y067399D01*
X059972Y067397D01*
X059969Y067395D01*
X059966Y067392D01*
X059962Y06739D01*
X059958Y067387D01*
X059953Y067385D01*
X059948Y067382D01*
X059943Y067379D01*
X059937Y067376D01*
X059931Y067373D01*
X059924Y067371D01*
X059924D01*
X059923Y06737D01*
X059921Y067369D01*
X059918Y067368D01*
X059915Y067367D01*
X059911Y067366D01*
X059906Y067365D01*
X059901Y067364D01*
X059896Y067363D01*
X05989Y067361D01*
X059884Y06736D01*
X059878Y067359D01*
X059864Y067357D01*
X059857Y067357D01*
X05985Y067357D01*
X059846D01*
X059842Y067357D01*
X059838Y067357D01*
X059833Y067358D01*
X059828Y067358D01*
X059822Y067359D01*
X059816Y06736D01*
X059809Y067362D01*
X059802Y067363D01*
X059795Y067365D01*
X059788Y067367D01*
X059781Y06737D01*
X059774Y067373D01*
X059767Y067376D01*
X059767Y067377D01*
X059766Y067377D01*
X059764Y067378D01*
X059761Y06738D01*
X059759Y067382D01*
X059755Y067385D01*
X059752Y067387D01*
X059748Y067391D01*
X059743Y067395D01*
X059739Y067399D01*
X059735Y067404D01*
X05973Y067409D01*
X059726Y067414D01*
X059722Y06742D01*
X059718Y067426D01*
X059715Y067433D01*
X059714Y067434D01*
X059714Y067435D01*
X059713Y067437D01*
X059712Y06744D01*
X059711Y067443D01*
X059709Y067447D01*
X059707Y067452D01*
X059706Y067457D01*
X059704Y067463D01*
X059702Y067469D01*
X059701Y067476D01*
X059699Y067483D01*
X059698Y06749D01*
X059698Y067498D01*
X059697Y067506D01*
X059697Y067514D01*
Y067515D01*
Y067516D01*
Y067519D01*
X059697Y067522D01*
X059698Y067526D01*
X059698Y067531D01*
X059698Y067536D01*
X059699Y067542D01*
X0597Y067549D01*
X059702Y067555D01*
X059703Y067562D01*
X059705Y067569D01*
X059707Y067577D01*
X05971Y067584D01*
X059713Y067591D01*
X059717Y067598D01*
X059717Y067598D01*
X059718Y0676D01*
X059718Y067602D01*
X05972Y067604D01*
X059722Y067607D01*
X059725Y067611D01*
X059728Y067615D01*
X059731Y067619D01*
X059735Y067624D01*
X059739Y067628D01*
X059744Y067633D01*
X059749Y067638D01*
X059755Y067642D01*
X059761Y067647D01*
X059768Y067651D01*
X059775Y067655D01*
X059775Y067655D01*
X059776Y067655D01*
X059778Y067656D01*
X05978Y067657D01*
X059783Y067658D01*
X059786Y06766D01*
X05979Y067661D01*
X059795Y067662D01*
X0598Y067664D01*
X059805Y067665D01*
X059811Y067666D01*
X059818Y067668D01*
X059824Y067669D01*
X059832Y067669D01*
X059839Y06767D01*
X059853D01*
X059856Y06767D01*
D02*
G37*
G36*
X060277Y067362D02*
X060216D01*
X060093Y067561D01*
Y067362D01*
X060037D01*
Y067665D01*
X060096D01*
X060221Y067462D01*
Y067665D01*
X060277D01*
Y067362D01*
D02*
G37*
G36*
X060463Y067665D02*
X06047D01*
X060475Y067664D01*
X060484Y067664D01*
X060493Y067662D01*
X060502Y067661D01*
X060507Y06766D01*
X060511Y067659D01*
X060511D01*
X060512Y067659D01*
X060513Y067658D01*
X060515Y067657D01*
X060518Y067657D01*
X06052Y067655D01*
X060526Y067652D01*
X060534Y067649D01*
X060541Y067644D01*
X060549Y067638D01*
X060556Y067631D01*
X060557Y067631D01*
X060557Y06763D01*
X060558Y067629D01*
X060559Y067628D01*
X060561Y067626D01*
X060563Y067623D01*
X060565Y067621D01*
X060567Y067617D01*
X060569Y067614D01*
X060572Y067611D01*
X060577Y067602D01*
X060581Y067592D01*
X060585Y067582D01*
Y067582D01*
X060585Y067581D01*
X060586Y067579D01*
X060587Y067577D01*
X060587Y067574D01*
X060588Y06757D01*
X060589Y067567D01*
X06059Y067562D01*
X060591Y067557D01*
X060592Y067552D01*
X060593Y067546D01*
X060594Y06754D01*
X060594Y067533D01*
X060595Y067526D01*
X060595Y067518D01*
Y06751D01*
Y06751D01*
Y067509D01*
Y067507D01*
Y067504D01*
X060595Y067501D01*
Y067497D01*
X060595Y067493D01*
X060594Y067488D01*
X060593Y067478D01*
X060591Y067467D01*
X060589Y067457D01*
X060586Y067446D01*
Y067446D01*
X060585Y067445D01*
X060584Y067443D01*
X060584Y067441D01*
X060582Y067438D01*
X060581Y067435D01*
X06058Y067431D01*
X060578Y067427D01*
X060573Y067419D01*
X060567Y06741D01*
X060561Y067401D01*
X060553Y067393D01*
X060553Y067392D01*
X060553Y067392D01*
X060552Y067391D01*
X06055Y06739D01*
X060549Y067389D01*
X060547Y067387D01*
X060545Y067385D01*
X060542Y067384D01*
X060536Y06738D01*
X060529Y067376D01*
X06052Y067372D01*
X060511Y067368D01*
X06051D01*
X06051Y067368D01*
X060509Y067368D01*
X060507Y067367D01*
X060505Y067367D01*
X060502Y067366D01*
X060499Y067366D01*
X060496Y067365D01*
X060493Y067365D01*
X060489Y067364D01*
X060484Y067364D01*
X060479Y067363D01*
X060474Y067363D01*
X060469Y067363D01*
X060463Y067362D01*
X060342D01*
Y067665D01*
X060459D01*
X060463Y067665D01*
D02*
G37*
G36*
X055772Y06767D02*
X055777Y067669D01*
X055783Y067669D01*
X055789Y067668D01*
X055795Y067667D01*
X055802Y067666D01*
X055809Y067664D01*
X055817Y067663D01*
X055824Y06766D01*
X055831Y067657D01*
X055838Y067654D01*
X055845Y067651D01*
X055851Y067646D01*
X055851Y067646D01*
X055852Y067645D01*
X055854Y067644D01*
X055856Y067642D01*
X055859Y06764D01*
X055862Y067637D01*
X055865Y067633D01*
X055868Y067629D01*
X055872Y067625D01*
X055875Y06762D01*
X055879Y067615D01*
X055882Y067609D01*
X055885Y067603D01*
X055888Y067596D01*
X05589Y067589D01*
X055892Y067581D01*
X055831Y06757D01*
Y06757D01*
X055831Y067571D01*
X055831Y067572D01*
X05583Y067573D01*
X055829Y067575D01*
X055828Y067578D01*
X055826Y067583D01*
X055823Y067588D01*
X055818Y067594D01*
X055813Y0676D01*
X055807Y067605D01*
X055807D01*
X055807Y067605D01*
X055806Y067606D01*
X055804Y067607D01*
X055802Y067608D01*
X0558Y067609D01*
X055798Y06761D01*
X055795Y067611D01*
X055789Y067614D01*
X055781Y067616D01*
X055773Y067617D01*
X055763Y067618D01*
X055759D01*
X055757Y067618D01*
X055753Y067617D01*
X055749Y067617D01*
X055745Y067616D01*
X05574Y067615D01*
X055735Y067613D01*
X05573Y067612D01*
X055725Y06761D01*
X05572Y067607D01*
X055714Y067604D01*
X055709Y067601D01*
X055704Y067597D01*
X0557Y067592D01*
X055699Y067592D01*
X055699Y067591D01*
X055697Y06759D01*
X055696Y067587D01*
X055694Y067585D01*
X055692Y067582D01*
X05569Y067578D01*
X055688Y067573D01*
X055685Y067568D01*
X055684Y067563D01*
X055682Y067557D01*
X05568Y06755D01*
X055678Y067542D01*
X055677Y067535D01*
X055676Y067526D01*
X055676Y067517D01*
Y067516D01*
Y067515D01*
X055676Y067512D01*
Y067508D01*
X055677Y067503D01*
X055677Y067499D01*
X055678Y067493D01*
X055679Y067486D01*
X05568Y06748D01*
X055682Y067473D01*
X055684Y067467D01*
X055686Y06746D01*
X055689Y067453D01*
X055692Y067447D01*
X055696Y067441D01*
X0557Y067436D01*
X0557Y067436D01*
X055701Y067435D01*
X055703Y067433D01*
X055704Y067432D01*
X055707Y06743D01*
X055709Y067427D01*
X055713Y067425D01*
X055717Y067422D01*
X055721Y06742D01*
X055726Y067418D01*
X055731Y067415D01*
X055736Y067413D01*
X055743Y067412D01*
X055749Y06741D01*
X055755Y067409D01*
X055763Y067409D01*
X055766D01*
X055767Y067409D01*
X05577D01*
X055775Y06741D01*
X055781Y067411D01*
X055787Y067412D01*
X055794Y067414D01*
X055801Y067417D01*
X055801D01*
X055802Y067417D01*
X055803Y067417D01*
X055804Y067418D01*
X055808Y067419D01*
X055812Y067422D01*
X055818Y067424D01*
X055823Y067427D01*
X055829Y067431D01*
X055834Y067435D01*
Y067473D01*
X055765D01*
Y067524D01*
X055896D01*
Y067403D01*
X055896Y067403D01*
X055895Y067403D01*
X055894Y067402D01*
X055892Y0674D01*
X05589Y067399D01*
X055888Y067397D01*
X055885Y067395D01*
X055882Y067393D01*
X055878Y06739D01*
X055874Y067387D01*
X055869Y067385D01*
X055864Y067382D01*
X055859Y067379D01*
X055853Y067377D01*
X055847Y067374D01*
X05584Y067371D01*
X05584D01*
X055839Y06737D01*
X055837Y06737D01*
X055834Y067369D01*
X055831Y067368D01*
X055827Y067366D01*
X055822Y067365D01*
X055817Y067364D01*
X055812Y067363D01*
X055806Y067361D01*
X0558Y06736D01*
X055794Y067359D01*
X05578Y067358D01*
X055773Y067357D01*
X055767Y067357D01*
X055762D01*
X055759Y067357D01*
X055754Y067358D01*
X055749Y067358D01*
X055744Y067358D01*
X055738Y067359D01*
X055732Y06736D01*
X055725Y067362D01*
X055719Y067363D01*
X055711Y067365D01*
X055704Y067367D01*
X055697Y06737D01*
X05569Y067373D01*
X055684Y067377D01*
X055683Y067377D01*
X055682Y067378D01*
X05568Y067378D01*
X055678Y06738D01*
X055675Y067382D01*
X055671Y067385D01*
X055668Y067388D01*
X055664Y067391D01*
X05566Y067395D01*
X055655Y067399D01*
X055651Y067404D01*
X055646Y067409D01*
X055642Y067415D01*
X055638Y06742D01*
X055634Y067427D01*
X055631Y067434D01*
X05563Y067434D01*
X05563Y067435D01*
X055629Y067437D01*
X055628Y06744D01*
X055627Y067443D01*
X055625Y067448D01*
X055623Y067452D01*
X055622Y067458D01*
X05562Y067463D01*
X055619Y06747D01*
X055617Y067476D01*
X055616Y067483D01*
X055615Y067491D01*
X055614Y067498D01*
X055613Y067506D01*
X055613Y067514D01*
Y067515D01*
Y067516D01*
Y067519D01*
X055613Y067522D01*
X055614Y067526D01*
X055614Y067531D01*
X055615Y067537D01*
X055616Y067542D01*
X055617Y067549D01*
X055618Y067556D01*
X05562Y067562D01*
X055621Y06757D01*
X055623Y067577D01*
X055626Y067584D01*
X055629Y067591D01*
X055633Y067598D01*
X055633Y067599D01*
X055634Y0676D01*
X055635Y067602D01*
X055636Y067604D01*
X055639Y067607D01*
X055641Y067611D01*
X055644Y067615D01*
X055647Y067619D01*
X055651Y067624D01*
X055656Y067628D01*
X05566Y067633D01*
X055665Y067638D01*
X055671Y067643D01*
X055677Y067647D01*
X055684Y067651D01*
X055691Y067655D01*
X055691Y067655D01*
X055692Y067656D01*
X055694Y067656D01*
X055696Y067657D01*
X055699Y067659D01*
X055702Y06766D01*
X055706Y067661D01*
X055711Y067663D01*
X055716Y067664D01*
X055721Y067665D01*
X055727Y067666D01*
X055734Y067668D01*
X055741Y067669D01*
X055748Y067669D01*
X055755Y06767D01*
X055769D01*
X055772Y06767D01*
D02*
G37*
G36*
X056193Y067362D02*
X056132D01*
X05601Y067561D01*
Y067362D01*
X055953D01*
Y067665D01*
X056012D01*
X056137Y067462D01*
Y067665D01*
X056193D01*
Y067362D01*
D02*
G37*
G36*
X056379Y067665D02*
X056386D01*
X056391Y067665D01*
X0564Y067664D01*
X056409Y067663D01*
X056419Y067661D01*
X056423Y06766D01*
X056427Y067659D01*
X056427D01*
X056428Y067659D01*
X056429Y067658D01*
X056431Y067658D01*
X056434Y067657D01*
X056436Y067656D01*
X056442Y067653D01*
X05645Y067649D01*
X056457Y067644D01*
X056465Y067638D01*
X056472Y067631D01*
X056473Y067631D01*
X056473Y06763D01*
X056474Y067629D01*
X056476Y067628D01*
X056477Y067626D01*
X056479Y067624D01*
X056481Y067621D01*
X056483Y067618D01*
X056485Y067614D01*
X056488Y067611D01*
X056493Y067602D01*
X056497Y067593D01*
X056501Y067582D01*
Y067582D01*
X056502Y067581D01*
X056502Y067579D01*
X056503Y067577D01*
X056504Y067574D01*
X056505Y067571D01*
X056505Y067567D01*
X056506Y067562D01*
X056507Y067558D01*
X056508Y067552D01*
X056509Y067546D01*
X05651Y06754D01*
X05651Y067533D01*
X056511Y067526D01*
X056511Y067519D01*
Y067511D01*
Y06751D01*
Y067509D01*
Y067507D01*
Y067504D01*
X056511Y067501D01*
Y067498D01*
X056511Y067493D01*
X05651Y067489D01*
X056509Y067479D01*
X056507Y067468D01*
X056505Y067457D01*
X056502Y067446D01*
Y067446D01*
X056501Y067445D01*
X056501Y067443D01*
X0565Y067441D01*
X056499Y067438D01*
X056497Y067435D01*
X056496Y067431D01*
X056494Y067427D01*
X056489Y067419D01*
X056483Y06741D01*
X056477Y067401D01*
X056469Y067393D01*
X056469Y067393D01*
X056469Y067392D01*
X056468Y067391D01*
X056466Y06739D01*
X056465Y067389D01*
X056463Y067387D01*
X056461Y067386D01*
X056458Y067384D01*
X056452Y06738D01*
X056445Y067376D01*
X056436Y067372D01*
X056427Y067369D01*
X056426D01*
X056426Y067368D01*
X056425Y067368D01*
X056423Y067368D01*
X056421Y067367D01*
X056419Y067367D01*
X056416Y067366D01*
X056412Y067366D01*
X056409Y067365D01*
X056405Y067364D01*
X0564Y067364D01*
X056395Y067363D01*
X05639Y067363D01*
X056385Y067363D01*
X056379Y067362D01*
X056258D01*
Y067665D01*
X056376D01*
X056379Y067665D01*
D02*
G37*
G36*
X055145Y067513D02*
X05525Y067355D01*
X055176D01*
X055109Y067458D01*
X055041Y067355D01*
X054968D01*
X055073Y067513D01*
X054978Y067658D01*
X05505D01*
X055109Y067567D01*
X05517Y067658D01*
X055241D01*
X055145Y067513D01*
D02*
G37*
G36*
X054834Y067658D02*
X054839D01*
X054844Y067657D01*
X054849Y067657D01*
X054861Y067656D01*
X054873Y067654D01*
X054878Y067654D01*
X054884Y067652D01*
X054889Y067651D01*
X054893Y06765D01*
X054893D01*
X054894Y06765D01*
X054895Y067649D01*
X054896Y067648D01*
X054898Y067647D01*
X0549Y067646D01*
X054906Y067643D01*
X054911Y067639D01*
X054917Y067634D01*
X054923Y067628D01*
X054928Y067621D01*
Y06762D01*
X054929Y06762D01*
X054929Y067619D01*
X05493Y067617D01*
X054931Y067615D01*
X054932Y067613D01*
X054934Y06761D01*
X054935Y067607D01*
X054937Y0676D01*
X054939Y067592D01*
X054941Y067583D01*
X054941Y067573D01*
Y067573D01*
Y067571D01*
Y06757D01*
X054941Y067568D01*
X054941Y067565D01*
X05494Y067561D01*
X05494Y067557D01*
X054939Y067553D01*
X054936Y067544D01*
X054935Y06754D01*
X054933Y067535D01*
X054931Y06753D01*
X054928Y067526D01*
X054925Y067521D01*
X054921Y067517D01*
X054921Y067516D01*
X05492Y067516D01*
X054919Y067515D01*
X054918Y067513D01*
X054916Y067511D01*
X054913Y067509D01*
X05491Y067507D01*
X054906Y067505D01*
X054902Y067502D01*
X054898Y0675D01*
X054893Y067498D01*
X054888Y067495D01*
X054882Y067493D01*
X054875Y067491D01*
X054869Y06749D01*
X054861Y067488D01*
X054862D01*
X054862Y067488D01*
X054863Y067488D01*
X054865Y067487D01*
X054868Y067484D01*
X054873Y067481D01*
X054878Y067477D01*
X054884Y067473D01*
X054889Y067468D01*
X054894Y067463D01*
X054895Y067463D01*
X054896Y067462D01*
X054896Y067461D01*
X054898Y067459D01*
X054899Y067457D01*
X054901Y067455D01*
X054903Y067452D01*
X054906Y067449D01*
X054908Y067445D01*
X054911Y067441D01*
X054914Y067437D01*
X054917Y067432D01*
X054921Y067426D01*
X054925Y067421D01*
X054929Y067414D01*
X054966Y067355D01*
X054893D01*
X054849Y067421D01*
X054848Y067422D01*
X054848Y067423D01*
X054846Y067425D01*
X054845Y067427D01*
X054843Y06743D01*
X054841Y067433D01*
X054836Y06744D01*
X05483Y067447D01*
X054825Y067455D01*
X054822Y067458D01*
X05482Y067461D01*
X054818Y067464D01*
X054816Y067466D01*
X054816Y067466D01*
X054815Y067467D01*
X054813Y067468D01*
X054811Y06747D01*
X054808Y067473D01*
X054805Y067475D01*
X054801Y067477D01*
X054798Y067478D01*
X054797Y067478D01*
X054796Y067479D01*
X054793Y067479D01*
X05479Y06748D01*
X054786Y067481D01*
X054781Y067481D01*
X054774Y067482D01*
X054755D01*
Y067355D01*
X054694D01*
Y067658D01*
X05483D01*
X054834Y067658D01*
D02*
G37*
%LPC*%
G36*
X058664Y085506D02*
X058433D01*
Y085436D01*
X058434Y085433D01*
Y08543D01*
X058434Y085424D01*
X058435Y085416D01*
X058435Y085408D01*
X058437Y085401D01*
X058438Y085394D01*
Y085394D01*
X058439Y085393D01*
X058439Y085392D01*
X058439Y085391D01*
X058441Y085388D01*
X058442Y085384D01*
X058445Y08538D01*
X058447Y085375D01*
X058451Y085371D01*
X058454Y085367D01*
X058455Y085366D01*
X058455Y085366D01*
X058457Y085365D01*
X05846Y085362D01*
X058464Y085359D01*
X05847Y085355D01*
X058476Y085352D01*
X058484Y085348D01*
X058493Y085345D01*
X058493D01*
X058494Y085345D01*
X058495Y085344D01*
X058497Y085344D01*
X058499Y085343D01*
X058502Y085342D01*
X058505Y085342D01*
X058509Y085341D01*
X058513Y08534D01*
X058517Y085339D01*
X058522Y085339D01*
X058527Y085338D01*
X058538Y085337D01*
X058551Y085337D01*
X058552D01*
X058553D01*
X058556D01*
X058559Y085337D01*
X058563D01*
X058567Y085337D01*
X058572Y085338D01*
X058578Y085339D01*
X05859Y085341D01*
X058602Y085343D01*
X058613Y085347D01*
X058619Y08535D01*
X058624Y085352D01*
X058624Y085353D01*
X058625Y085353D01*
X058626Y085354D01*
X058628Y085355D01*
X05863Y085357D01*
X058632Y085359D01*
X058638Y085363D01*
X058643Y085368D01*
X058649Y085375D01*
X058654Y085382D01*
X058656Y085386D01*
X058658Y08539D01*
Y085391D01*
X058659Y085391D01*
X058659Y085392D01*
X058659Y085393D01*
X05866Y085395D01*
X05866Y085397D01*
X058661Y0854D01*
X058661Y085403D01*
X058662Y085406D01*
X058662Y08541D01*
X058663Y085414D01*
X058663Y085419D01*
X058664Y085424D01*
X058664Y08543D01*
X058664Y085436D01*
Y085506D01*
D02*
G37*
G36*
X060694Y086064D02*
X060462D01*
Y085994D01*
X060463Y085991D01*
Y085988D01*
X060463Y085982D01*
X060464Y085974D01*
X060465Y085966D01*
X060466Y085959D01*
X060468Y085952D01*
Y085952D01*
X060468Y085951D01*
X060468Y08595D01*
X060469Y085949D01*
X06047Y085946D01*
X060472Y085942D01*
X060474Y085938D01*
X060477Y085933D01*
X06048Y085929D01*
X060483Y085925D01*
X060484Y085924D01*
X060484Y085924D01*
X060486Y085922D01*
X060489Y08592D01*
X060494Y085917D01*
X060499Y085913D01*
X060506Y08591D01*
X060513Y085906D01*
X060522Y085903D01*
X060522D01*
X060523Y085902D01*
X060524Y085902D01*
X060526Y085901D01*
X060528Y085901D01*
X060531Y0859D01*
X060535Y0859D01*
X060538Y085899D01*
X060542Y085898D01*
X060547Y085897D01*
X060551Y085897D01*
X060557Y085896D01*
X060568Y085895D01*
X06058Y085895D01*
X060581D01*
X060582D01*
X060585D01*
X060588Y085895D01*
X060592D01*
X060597Y085895D01*
X060602Y085896D01*
X060607Y085897D01*
X060619Y085899D01*
X060631Y085901D01*
X060643Y085905D01*
X060648Y085908D01*
X060653Y08591D01*
X060653Y085911D01*
X060654Y085911D01*
X060655Y085912D01*
X060657Y085913D01*
X060659Y085915D01*
X060662Y085917D01*
X060667Y085921D01*
X060673Y085926D01*
X060678Y085933D01*
X060684Y08594D01*
X060686Y085944D01*
X060687Y085948D01*
Y085949D01*
X060688Y085949D01*
X060688Y08595D01*
X060688Y085951D01*
X060689Y085953D01*
X060689Y085955D01*
X06069Y085958D01*
X060691Y085961D01*
X060691Y085964D01*
X060692Y085968D01*
X060692Y085972D01*
X060693Y085977D01*
X060693Y085982D01*
X060693Y085988D01*
X060694Y085994D01*
Y086064D01*
D02*
G37*
G36*
Y085758D02*
X060585D01*
Y085676D01*
X060586Y085674D01*
Y085671D01*
X060586Y085667D01*
X060587Y085663D01*
X060587Y085658D01*
X060589Y085649D01*
X060592Y08564D01*
X060593Y085636D01*
X060595Y085632D01*
X060597Y085628D01*
X0606Y085625D01*
X0606Y085624D01*
X060601Y085624D01*
X060602Y085623D01*
X060603Y085622D01*
X060606Y085619D01*
X06061Y085616D01*
X060616Y085614D01*
X060623Y085611D01*
X060631Y085609D01*
X060636Y085609D01*
X060641Y085608D01*
X060641D01*
X060642D01*
X060643D01*
X060644D01*
X060647Y085609D01*
X060652Y08561D01*
X060657Y085611D01*
X060662Y085613D01*
X060668Y085615D01*
X060673Y085618D01*
X060674Y085618D01*
X060675Y08562D01*
X060678Y085622D01*
X06068Y085625D01*
X060683Y085629D01*
X060686Y085633D01*
X060689Y085638D01*
X060691Y085643D01*
Y085644D01*
X060691Y085645D01*
X060692Y085648D01*
X060692Y085652D01*
Y085654D01*
X060693Y085657D01*
X060693Y08566D01*
X060693Y085663D01*
Y085667D01*
X060694Y085671D01*
Y085758D01*
D02*
G37*
G36*
X059684Y086064D02*
X059452D01*
Y085994D01*
X059453Y085991D01*
Y085988D01*
X059453Y085982D01*
X059454Y085974D01*
X059455Y085966D01*
X059456Y085959D01*
X059458Y085952D01*
Y085952D01*
X059458Y085951D01*
X059458Y08595D01*
X059458Y085949D01*
X05946Y085946D01*
X059461Y085942D01*
X059464Y085938D01*
X059466Y085933D01*
X05947Y085929D01*
X059473Y085925D01*
X059474Y085924D01*
X059474Y085924D01*
X059476Y085922D01*
X059479Y08592D01*
X059483Y085917D01*
X059489Y085913D01*
X059496Y08591D01*
X059503Y085906D01*
X059512Y085903D01*
X059512D01*
X059513Y085902D01*
X059514Y085902D01*
X059516Y085901D01*
X059518Y085901D01*
X059521Y0859D01*
X059524Y0859D01*
X059528Y085899D01*
X059532Y085898D01*
X059537Y085897D01*
X059541Y085897D01*
X059546Y085896D01*
X059558Y085895D01*
X05957Y085895D01*
X059571D01*
X059572D01*
X059575D01*
X059578Y085895D01*
X059582D01*
X059586Y085895D01*
X059591Y085896D01*
X059597Y085897D01*
X059609Y085899D01*
X059621Y085901D01*
X059632Y085905D01*
X059638Y085908D01*
X059643Y08591D01*
X059643Y085911D01*
X059644Y085911D01*
X059645Y085912D01*
X059647Y085913D01*
X059649Y085915D01*
X059651Y085917D01*
X059657Y085921D01*
X059663Y085926D01*
X059668Y085933D01*
X059673Y08594D01*
X059675Y085944D01*
X059677Y085948D01*
Y085949D01*
X059678Y085949D01*
X059678Y08595D01*
X059678Y085951D01*
X059679Y085953D01*
X059679Y085955D01*
X05968Y085958D01*
X059681Y085961D01*
X059681Y085964D01*
X059682Y085968D01*
X059682Y085972D01*
X059683Y085977D01*
X059683Y085982D01*
X059683Y085988D01*
X059684Y085994D01*
Y086064D01*
D02*
G37*
G36*
X0445Y075837D02*
X0445D01*
X044499D01*
X044499D01*
X044497D01*
X044496D01*
X044493D01*
X044488Y075837D01*
X044482Y075837D01*
X044476Y075836D01*
X044468Y075836D01*
X04446Y075835D01*
X044443Y075833D01*
X044435Y075832D01*
X044427Y07583D01*
X044419Y075828D01*
X044413Y075825D01*
X044406Y075823D01*
X044401Y07582D01*
X044401Y075819D01*
X0444Y075819D01*
X044399Y075818D01*
X044397Y075816D01*
X044396Y075815D01*
X044394Y075813D01*
X044389Y075808D01*
X044384Y075802D01*
X044381Y075794D01*
X044379Y07579D01*
X044378Y075786D01*
X044377Y075781D01*
X044377Y075777D01*
Y075776D01*
X044377Y075774D01*
Y075773D01*
X044377Y07577D01*
X044378Y075768D01*
X04438Y075762D01*
X044381Y075758D01*
X044383Y075755D01*
X044385Y075752D01*
X044387Y075748D01*
X04439Y075744D01*
X044393Y075741D01*
X044397Y075737D01*
X044401Y075734D01*
X044402Y075734D01*
X044403Y075733D01*
X044404Y075732D01*
X044406Y075731D01*
X044409Y07573D01*
X044413Y075728D01*
X044418Y075727D01*
X044423Y075725D01*
X044429Y075723D01*
X044437Y075722D01*
X044444Y07572D01*
X044454Y075719D01*
X044464Y075718D01*
X044475Y075717D01*
X044487Y075716D01*
X0445Y075716D01*
X044501D01*
X044501D01*
X044502D01*
X044504D01*
X044505D01*
X044507D01*
X044513Y075716D01*
X044519Y075717D01*
X044525Y075717D01*
X044533Y075717D01*
X044541Y075718D01*
X044558Y07572D01*
X044566Y075722D01*
X044574Y075724D01*
X044581Y075726D01*
X044588Y075728D01*
X044594Y075731D01*
X0446Y075734D01*
X0446Y075734D01*
X044601Y075735D01*
X044602Y075735D01*
X044603Y075737D01*
X044605Y075739D01*
X044607Y075741D01*
X04461Y075743D01*
X044612Y075746D01*
X044616Y075752D01*
X04462Y075759D01*
X044622Y075763D01*
X044623Y075768D01*
X044624Y075772D01*
X044624Y075777D01*
Y075779D01*
X044624Y075781D01*
X044623Y075783D01*
X044623Y075786D01*
X044622Y075792D01*
X044619Y075798D01*
X044617Y075802D01*
X044615Y075805D01*
X044613Y075809D01*
X04461Y075812D01*
X044606Y075815D01*
X044602Y075818D01*
X044602Y075818D01*
X044601Y075819D01*
X0446Y07582D01*
X044597Y075821D01*
X044594Y075822D01*
X04459Y075824D01*
X044585Y075826D01*
X044579Y075828D01*
X044573Y075829D01*
X044565Y075831D01*
X044557Y075833D01*
X044548Y075834D01*
X044538Y075836D01*
X044526Y075836D01*
X044514Y075837D01*
X0445Y075837D01*
D02*
G37*
G36*
X061721Y085753D02*
X061629D01*
Y085681D01*
X061629Y085678D01*
Y085673D01*
X06163Y085666D01*
X06163Y08566D01*
X061631Y085654D01*
X061632Y085651D01*
X061632Y085649D01*
Y085649D01*
X061633Y085648D01*
X061633Y085646D01*
X061634Y085644D01*
X061636Y08564D01*
X061638Y085637D01*
X061641Y085633D01*
X061644Y085629D01*
X061647Y085626D01*
X061648Y085626D01*
X061649Y085625D01*
X061652Y085623D01*
X061655Y085622D01*
X061659Y085621D01*
X061663Y085619D01*
X061668Y085618D01*
X061674Y085618D01*
X061674D01*
X061675D01*
X061677D01*
X061679Y085618D01*
X061683Y085619D01*
X061687Y08562D01*
X061692Y085621D01*
X061696Y085623D01*
X061701Y085626D01*
X061701Y085626D01*
X061702Y085627D01*
X061704Y085629D01*
X061707Y085631D01*
X061709Y085634D01*
X061712Y085637D01*
X061714Y085641D01*
X061716Y085646D01*
X061717Y085647D01*
Y085648D01*
X061717Y085649D01*
X061717Y08565D01*
X061718Y085652D01*
X061718Y085655D01*
X061719Y085657D01*
X061719Y08566D01*
X061719Y085663D01*
X06172Y085667D01*
X06172Y085671D01*
X06172Y085676D01*
Y085681D01*
X061721Y085686D01*
Y085753D01*
D02*
G37*
G36*
X061593D02*
X061489D01*
Y085671D01*
X06149Y085666D01*
Y085662D01*
X06149Y085657D01*
X06149Y085653D01*
X061491Y08565D01*
Y085649D01*
X061491Y085648D01*
X061492Y085645D01*
X061493Y085642D01*
X061494Y085638D01*
X061495Y085635D01*
X061497Y085631D01*
X061499Y085627D01*
X061499Y085627D01*
X0615Y085625D01*
X061501Y085624D01*
X061503Y085621D01*
X061505Y085619D01*
X061508Y085616D01*
X061512Y085614D01*
X061516Y085612D01*
X061516Y085611D01*
X061518Y085611D01*
X06152Y08561D01*
X061523Y085608D01*
X061527Y085607D01*
X061531Y085606D01*
X061536Y085606D01*
X061541Y085605D01*
X061541D01*
X061542D01*
X061543D01*
X061544D01*
X061547Y085606D01*
X061551Y085606D01*
X061556Y085608D01*
X061561Y085609D01*
X061566Y085611D01*
X061571Y085614D01*
X061571Y085615D01*
X061573Y085616D01*
X061575Y085618D01*
X061578Y08562D01*
X06158Y085624D01*
X061583Y085628D01*
X061586Y085633D01*
X061588Y085638D01*
Y085639D01*
X061588Y085639D01*
X061589Y08564D01*
X061589Y085641D01*
X061589Y085643D01*
X06159Y085645D01*
X06159Y085647D01*
X061591Y08565D01*
X061591Y085653D01*
X061592Y085656D01*
X061592Y08566D01*
X061593Y085664D01*
X061593Y085673D01*
X061593Y085683D01*
Y085753D01*
D02*
G37*
G36*
X047294Y065176D02*
X047291D01*
X047289Y065176D01*
X047287Y065175D01*
X047285Y065175D01*
X047279Y065174D01*
X047272Y065172D01*
X047265Y065169D01*
X047262Y065167D01*
X047258Y065164D01*
X047255Y065161D01*
X047251Y065158D01*
X047251Y065158D01*
X047251Y065157D01*
X04725Y065156D01*
X047249Y065155D01*
X047247Y065153D01*
X047246Y065151D01*
X047245Y065148D01*
X047243Y065145D01*
X047242Y065142D01*
X04724Y065138D01*
X047239Y065134D01*
X047237Y06513D01*
X047236Y065125D01*
X047235Y06512D01*
X047235Y065114D01*
X047235Y065108D01*
Y065108D01*
Y065107D01*
Y065105D01*
X047235Y065103D01*
X047235Y0651D01*
X047236Y065097D01*
X047236Y065094D01*
X047237Y06509D01*
X047239Y065082D01*
X047242Y065073D01*
X047244Y065069D01*
X047246Y065065D01*
X047249Y065061D01*
X047252Y065058D01*
X047252Y065057D01*
X047252Y065057D01*
X047253Y065056D01*
X047255Y065055D01*
X047256Y065053D01*
X047258Y065052D01*
X047263Y065048D01*
X047269Y065045D01*
X047276Y065042D01*
X04728Y06504D01*
X047284Y065039D01*
X047288Y065039D01*
X047293Y065039D01*
X047295D01*
X047297Y065039D01*
X047299Y065039D01*
X047302Y06504D01*
X047308Y065041D01*
X047314Y065044D01*
X047318Y065045D01*
X047322Y065047D01*
X047325Y06505D01*
X047329Y065052D01*
X047332Y065055D01*
X047336Y065059D01*
X047336Y065059D01*
X047337Y06506D01*
X047338Y065061D01*
X047339Y065063D01*
X04734Y065065D01*
X047342Y065067D01*
X047343Y06507D01*
X047345Y065073D01*
X047347Y065077D01*
X047348Y065081D01*
X04735Y065085D01*
X047351Y06509D01*
X047353Y0651D01*
X047354Y065106D01*
X047354Y065111D01*
Y065112D01*
Y065113D01*
Y065114D01*
X047354Y065116D01*
X047353Y065119D01*
X047353Y065122D01*
X047352Y065128D01*
X04735Y065136D01*
X047347Y065143D01*
X047345Y065147D01*
X047343Y065151D01*
X04734Y065155D01*
X047337Y065158D01*
X047337Y065159D01*
X047336Y065159D01*
X047335Y06516D01*
X047334Y065161D01*
X047332Y065162D01*
X04733Y065164D01*
X047328Y065166D01*
X047325Y065167D01*
X047319Y065171D01*
X047311Y065173D01*
X047303Y065175D01*
X047298Y065176D01*
X047294Y065176D01*
D02*
G37*
G36*
X048747Y065276D02*
X048677D01*
X048675Y065276D01*
X048672D01*
X048665Y065275D01*
X048658Y065275D01*
X04865Y065274D01*
X048642Y065272D01*
X048635Y065271D01*
X048635D01*
X048635Y06527D01*
X048634Y06527D01*
X048632Y06527D01*
X048629Y065268D01*
X048625Y065267D01*
X048621Y065264D01*
X048617Y065262D01*
X048612Y065258D01*
X048608Y065255D01*
X048608Y065255D01*
X048607Y065254D01*
X048606Y065252D01*
X048603Y065249D01*
X0486Y065245D01*
X048597Y065239D01*
X048593Y065233D01*
X048589Y065225D01*
X048586Y065216D01*
Y065216D01*
X048586Y065215D01*
X048585Y065214D01*
X048585Y065212D01*
X048584Y06521D01*
X048583Y065207D01*
X048583Y065204D01*
X048582Y0652D01*
X048581Y065196D01*
X04858Y065192D01*
X04858Y065187D01*
X048579Y065182D01*
X048578Y065171D01*
X048578Y065158D01*
Y065157D01*
Y065156D01*
Y065153D01*
X048578Y06515D01*
Y065146D01*
X048579Y065142D01*
X048579Y065137D01*
X04858Y065131D01*
X048582Y065119D01*
X048584Y065107D01*
X048588Y065096D01*
X048591Y06509D01*
X048594Y065085D01*
X048594Y065085D01*
X048594Y065084D01*
X048595Y065083D01*
X048597Y065081D01*
X048598Y065079D01*
X0486Y065077D01*
X048604Y065071D01*
X04861Y065066D01*
X048616Y06506D01*
X048623Y065055D01*
X048627Y065053D01*
X048632Y065051D01*
X048632D01*
X048632Y06505D01*
X048633Y06505D01*
X048635Y06505D01*
X048637Y06505D01*
X048639Y065049D01*
X048641Y065048D01*
X048644Y065048D01*
X048647Y065047D01*
X048651Y065047D01*
X048656Y065046D01*
X04866Y065046D01*
X048665Y065045D01*
X048671Y065045D01*
X048677Y065045D01*
X048747D01*
Y065276D01*
D02*
G37*
G36*
X047926Y065282D02*
X047924D01*
X047922Y065282D01*
X047919Y065282D01*
X047915Y065281D01*
X047911Y065281D01*
X047905Y06528D01*
X0479Y065278D01*
X047894Y065277D01*
X047888Y065275D01*
X047882Y065272D01*
X047876Y065269D01*
X04787Y065265D01*
X047863Y065261D01*
X047858Y065256D01*
X047852Y065251D01*
X047852Y065251D01*
X047851Y065249D01*
X047849Y065248D01*
X047847Y065245D01*
X047845Y065242D01*
X047842Y065238D01*
X04784Y065233D01*
X047837Y065228D01*
X047835Y065222D01*
X047832Y065215D01*
X047829Y065208D01*
X047827Y065199D01*
X047825Y065191D01*
X047824Y065181D01*
X047823Y065171D01*
X047822Y065161D01*
Y06516D01*
Y065159D01*
Y065157D01*
X047823Y065154D01*
Y065151D01*
X047823Y065148D01*
X047823Y065143D01*
X047824Y065139D01*
X047825Y065129D01*
X047828Y065118D01*
X047831Y065107D01*
X047835Y065096D01*
Y065096D01*
X047836Y065095D01*
X047837Y065093D01*
X047838Y065091D01*
X047839Y065089D01*
X04784Y065087D01*
X047844Y06508D01*
X04785Y065073D01*
X047856Y065067D01*
X047863Y06506D01*
X047872Y065053D01*
X047872Y065053D01*
X047873Y065053D01*
X047874Y065052D01*
X047876Y065051D01*
X047878Y06505D01*
X047881Y065049D01*
X047884Y065047D01*
X047887Y065046D01*
X047891Y065044D01*
X047895Y065043D01*
X047904Y06504D01*
X047915Y065039D01*
X04792Y065038D01*
X047928D01*
X04793Y065038D01*
X047933D01*
X047937Y065039D01*
X047941Y06504D01*
X047945Y065041D01*
X047951Y065042D01*
X047956Y065043D01*
X047962Y065045D01*
X047968Y065048D01*
X047974Y06505D01*
X047981Y065054D01*
X047987Y065058D01*
X047993Y065062D01*
X047999Y065068D01*
X047999Y065068D01*
X048Y065069D01*
X048002Y065071D01*
X048004Y065073D01*
X048006Y065076D01*
X048008Y06508D01*
X048011Y065085D01*
X048014Y06509D01*
X048017Y065097D01*
X04802Y065104D01*
X048022Y065112D01*
X048025Y065121D01*
X048026Y065131D01*
X048028Y065141D01*
X048029Y065152D01*
X048029Y065165D01*
Y065166D01*
Y065167D01*
X048029Y06517D01*
Y065174D01*
X048028Y065179D01*
X048028Y065184D01*
X048027Y06519D01*
X048026Y065196D01*
X048024Y065203D01*
X048022Y06521D01*
X04802Y065217D01*
X048017Y065224D01*
X048014Y065232D01*
X04801Y065238D01*
X048005Y065245D01*
X048Y065251D01*
X048Y065252D01*
X047999Y065253D01*
X047997Y065254D01*
X047995Y065256D01*
X047992Y065258D01*
X047988Y065261D01*
X047984Y065264D01*
X04798Y065267D01*
X047975Y06527D01*
X047969Y065273D01*
X047963Y065275D01*
X047957Y065277D01*
X04795Y065279D01*
X047942Y065281D01*
X047935Y065282D01*
X047926Y065282D01*
D02*
G37*
G36*
X058496Y067587D02*
X058455Y067474D01*
X058538D01*
X058496Y067587D01*
D02*
G37*
G36*
X060443Y067614D02*
X060403D01*
Y067413D01*
X060457D01*
X060462Y067414D01*
X060469Y067414D01*
X060475Y067414D01*
X06048Y067415D01*
X060483Y067416D01*
X060485Y067416D01*
X060486D01*
X060486Y067416D01*
X060488Y067417D01*
X060491Y067418D01*
X060494Y067419D01*
X060498Y067421D01*
X060502Y067423D01*
X060506Y067426D01*
X06051Y067429D01*
X06051Y067429D01*
X060512Y06743D01*
X060514Y067433D01*
X060516Y067436D01*
X060518Y06744D01*
X060521Y067445D01*
X060523Y067451D01*
X060526Y067458D01*
Y067458D01*
X060526Y067459D01*
X060527Y06746D01*
X060527Y067462D01*
X060527Y067464D01*
X060528Y067466D01*
X060529Y067469D01*
X060529Y067472D01*
X06053Y067476D01*
X06053Y067481D01*
X060531Y067485D01*
X060531Y06749D01*
X060532Y067495D01*
X060532Y067501D01*
X060532Y067507D01*
Y067513D01*
Y067514D01*
Y067515D01*
Y067517D01*
Y067519D01*
X060532Y067522D01*
Y067526D01*
X060532Y067529D01*
Y067533D01*
X060531Y067542D01*
X06053Y067551D01*
X060528Y06756D01*
X060527Y067564D01*
X060526Y067567D01*
Y067568D01*
X060526Y067568D01*
X060525Y067569D01*
X060525Y06757D01*
X060523Y067574D01*
X060521Y067578D01*
X060519Y067583D01*
X060516Y067588D01*
X060513Y067592D01*
X060509Y067596D01*
X060508Y067597D01*
X060507Y067598D01*
X060504Y0676D01*
X060501Y067602D01*
X060497Y067605D01*
X060492Y067607D01*
X060486Y067609D01*
X06048Y067611D01*
X060479D01*
X060479Y067611D01*
X060477D01*
X060476Y067611D01*
X060474Y067612D01*
X060472Y067612D01*
X060469Y067612D01*
X060466D01*
X060462Y067613D01*
X060458Y067613D01*
X060454Y067613D01*
X060448D01*
X060443Y067614D01*
D02*
G37*
G36*
X056359Y067614D02*
X056319D01*
Y067414D01*
X056373D01*
X056379Y067414D01*
X056385Y067414D01*
X056391Y067415D01*
X056397Y067415D01*
X056399Y067416D01*
X056402Y067416D01*
X056402D01*
X056402Y067417D01*
X056404Y067417D01*
X056407Y067418D01*
X05641Y067419D01*
X056414Y067421D01*
X056418Y067423D01*
X056422Y067426D01*
X056426Y067429D01*
X056426Y067429D01*
X056428Y067431D01*
X05643Y067433D01*
X056432Y067436D01*
X056434Y06744D01*
X056437Y067445D01*
X05644Y067451D01*
X056442Y067458D01*
Y067459D01*
X056442Y067459D01*
X056443Y06746D01*
X056443Y067462D01*
X056443Y067464D01*
X056444Y067466D01*
X056445Y067469D01*
X056445Y067473D01*
X056446Y067477D01*
X056446Y067481D01*
X056447Y067485D01*
X056447Y06749D01*
X056448Y067496D01*
X056448Y067501D01*
X056448Y067507D01*
Y067514D01*
Y067514D01*
Y067515D01*
Y067517D01*
Y06752D01*
X056448Y067522D01*
Y067526D01*
X056448Y067529D01*
Y067534D01*
X056447Y067542D01*
X056446Y067551D01*
X056444Y06756D01*
X056443Y067564D01*
X056442Y067567D01*
Y067568D01*
X056442Y067568D01*
X056442Y067569D01*
X056441Y06757D01*
X05644Y067574D01*
X056438Y067578D01*
X056435Y067583D01*
X056432Y067588D01*
X056429Y067592D01*
X056425Y067597D01*
X056424Y067597D01*
X056423Y067598D01*
X05642Y0676D01*
X056417Y067603D01*
X056413Y067605D01*
X056408Y067607D01*
X056402Y067609D01*
X056396Y067611D01*
X056396D01*
X056395Y067611D01*
X056394D01*
X056392Y067612D01*
X05639Y067612D01*
X056388Y067612D01*
X056385Y067613D01*
X056382D01*
X056379Y067613D01*
X056374Y067613D01*
X05637Y067614D01*
X056364D01*
X056359Y067614D01*
D02*
G37*
G36*
X05482Y067607D02*
X054755D01*
Y06753D01*
X054811D01*
X054814Y06753D01*
X054823D01*
X054833Y067531D01*
X054842Y067531D01*
X054846Y067532D01*
X054849Y067532D01*
X054853Y067533D01*
X054855Y067533D01*
X054855Y067534D01*
X054857Y067534D01*
X054859Y067535D01*
X054861Y067536D01*
X054864Y067538D01*
X054867Y06754D01*
X05487Y067543D01*
X054872Y067546D01*
X054873Y067547D01*
X054873Y067548D01*
X054874Y06755D01*
X054875Y067552D01*
X054876Y067556D01*
X054877Y06756D01*
X054878Y067564D01*
X054878Y067569D01*
Y06757D01*
Y06757D01*
Y067572D01*
X054878Y067574D01*
X054877Y067578D01*
X054876Y067582D01*
X054875Y067586D01*
X054873Y06759D01*
X05487Y067594D01*
X05487Y067594D01*
X054869Y067595D01*
X054867Y067597D01*
X054864Y067599D01*
X054861Y067601D01*
X054857Y067603D01*
X054852Y067604D01*
X054847Y067606D01*
X054847D01*
X054845Y067606D01*
X054843D01*
X054841Y067606D01*
X054836D01*
X054833Y067607D01*
X054825D01*
X05482Y067607D01*
D02*
G37*
%LPD*%
D10*
X06324Y086939D02*
G03*
X063681Y08738I0J000441D01*
G01*
Y09638D02*
G03*
X06324Y096821I-000441J0D01*
G01*
X054299D02*
G03*
X053799Y096321I0J-0005D01*
G01*
Y087439D02*
G03*
X054299Y086939I0005J0D01*
G01*
X051474Y064561D02*
G03*
X051683Y06434I000215J-000005D01*
G01*
X043694Y06434D02*
G03*
X043915Y06455I000005J000215D01*
G01*
X044335Y06595D02*
G03*
X043914Y065521I000005J-000425D01*
G01*
X051474Y06553D02*
G03*
X051044Y065951I-000425J-000005D01*
G01*
X05449Y086939D02*
X06324D01*
X063681Y08738D02*
Y09628D01*
Y08738D02*
Y08748D01*
X06299Y086939D02*
X06324D01*
X054299Y096821D02*
X06319D01*
X063681Y09608D02*
Y09638D01*
X06274Y096821D02*
X06324D01*
X053799Y08753D02*
Y096321D01*
Y09613D02*
Y096321D01*
X054299Y096821D02*
X05454D01*
X053799Y087439D02*
Y08753D01*
X054299Y086939D02*
X05449D01*
X050794Y065951D02*
Y066313D01*
X044594D02*
X050794D01*
X044335Y065951D02*
X051044D01*
X043694Y06434D02*
X051644Y06434D01*
X044594Y06596D02*
Y06631D01*
D11*
X058819Y077908D02*
G03*
X058819Y078323I0J000208D01*
G01*
X046263Y097118D02*
G03*
X046263Y097118I-000039J0D01*
G01*
X050638Y081873D02*
G03*
X051053Y081873I000208J0D01*
G01*
X058819Y078323D02*
Y078701D01*
Y07753D02*
Y077908D01*
Y07753D02*
X060787D01*
X058819Y078701D02*
X060787D01*
Y07753D02*
Y078701D01*
X051053Y081873D02*
X051771D01*
X04992D02*
X050638D01*
X04992Y079905D02*
Y081873D01*
X051771Y079905D02*
Y081873D01*
X04992Y079905D02*
X051761D01*
X058053Y08422D02*
Y08522D01*
X062053D01*
X058053Y08422D02*
X062053D01*
Y08522D01*
X050641Y069376D02*
Y069691D01*
X050996D01*
X050641Y06851D02*
Y068825D01*
Y06851D02*
X050996D01*
X055388Y076164D02*
X055742D01*
X055388D02*
Y076479D01*
Y077345D02*
X055742D01*
X055388Y07703D02*
Y077345D01*
X051576Y071543D02*
Y071897D01*
X051261Y071543D02*
X051576D01*
X050395D02*
Y071897D01*
Y071543D02*
X05071D01*
X048944Y071683D02*
Y072037D01*
X049259D01*
X050125Y071683D02*
Y072037D01*
X04981D02*
X050125D01*
X053622Y076637D02*
Y076991D01*
X053937D01*
X054803Y076637D02*
Y076991D01*
X054488D02*
X054803D01*
X057299Y07096D02*
Y071314D01*
X056984Y07096D02*
X057299D01*
X056118D02*
Y071314D01*
Y07096D02*
X056433D01*
D12*
X058768Y077175D02*
G03*
X058768Y077175I-000049J0D01*
G01*
X050709Y076602D02*
G03*
X050709Y076602I-000049J0D01*
G01*
X049478Y082001D02*
G03*
X049478Y082001I-000049J0D01*
G01*
X051516Y068471D02*
G03*
X051516Y068471I-000049J0D01*
G01*
X056262Y076124D02*
G03*
X056262Y076124I-000049J0D01*
G01*
X051665Y072368D02*
G03*
X051665Y072368I-000049J0D01*
G01*
X048953Y071211D02*
G03*
X048953Y071211I-000049J0D01*
G01*
X053631Y076166D02*
G03*
X053631Y076166I-000049J0D01*
G01*
X057388Y071785D02*
G03*
X057388Y071785I-000049J0D01*
G01*
X050239Y087576D02*
X051148D01*
X050239Y085434D02*
Y087576D01*
Y085434D02*
X050775Y084898D01*
X051148D01*
X052008Y087576D02*
X052917D01*
Y085434D02*
Y087576D01*
X052381Y084898D02*
X052917Y085434D01*
X052008Y084898D02*
X052381D01*
X057543Y080453D02*
X058452D01*
Y082595D01*
X057916Y08313D02*
X058452Y082595D01*
X057543Y08313D02*
X057916D01*
X055774Y080453D02*
X056683D01*
X055774D02*
Y082595D01*
X05631Y08313D01*
X056683D01*
D13*
X052283Y078247D02*
G03*
X052126Y078247I-000079J0D01*
G01*
X0493Y078591D02*
G03*
X049772Y078591I000236J000236D01*
G01*
Y079556D02*
G03*
X0493Y079556I-000236J-000236D01*
G01*
X059297Y07624D02*
G03*
X059297Y075768I000236J-000236D01*
G01*
X060262D02*
G03*
X060262Y07624I-000236J000236D01*
G01*
X052577Y077313D02*
G03*
X05305Y077313I000236J000236D01*
G01*
Y078278D02*
G03*
X052577Y078278I-000236J-000236D01*
G01*
X050872Y083256D02*
G03*
X050399Y083256I-000236J-000236D01*
G01*
Y08229D02*
G03*
X050872Y08229I000236J000236D01*
G01*
X056683Y075619D02*
G03*
X05621Y075619I-000236J-000236D01*
G01*
Y074654D02*
G03*
X056683Y074654I000236J000236D01*
G01*
X053369Y075676D02*
G03*
X053369Y075204I000236J-000236D01*
G01*
X054335D02*
G03*
X054335Y075676I-000236J000236D01*
G01*
X050138Y069838D02*
G03*
X05061Y069838I000236J000236D01*
G01*
Y070804D02*
G03*
X050138Y070804I-000236J-000236D01*
G01*
X055122Y083209D02*
G03*
X054649Y083209I-000236J-000236D01*
G01*
Y082243D02*
G03*
X055122Y082243I000236J000236D01*
G01*
X056877Y076272D02*
G03*
X057349Y076272I000236J000236D01*
G01*
Y077237D02*
G03*
X056877Y077237I-000236J-000236D01*
G01*
X055636Y083221D02*
G03*
X055164Y083221I-000236J-000236D01*
G01*
Y082255D02*
G03*
X055636Y082255I000236J000236D01*
G01*
X050145Y085087D02*
G03*
X049672Y085087I-000236J-000236D01*
G01*
Y084121D02*
G03*
X050145Y084121I000236J000236D01*
G01*
X049609Y085087D02*
G03*
X049136Y085087I-000236J-000236D01*
G01*
Y084121D02*
G03*
X049609Y084121I000236J000236D01*
G01*
X049064Y085087D02*
G03*
X048591Y085087I-000236J-000236D01*
G01*
Y084121D02*
G03*
X049064Y084121I000236J000236D01*
G01*
X048496Y085087D02*
G03*
X048024Y085087I-000236J-000236D01*
G01*
Y084121D02*
G03*
X048496Y084121I000236J000236D01*
G01*
X057061Y075512D02*
G03*
X057061Y07504I000236J-000236D01*
G01*
X058026D02*
G03*
X058026Y075512I-000236J000236D01*
G01*
X050591Y073021D02*
G03*
X051063Y073021I000236J000236D01*
G01*
Y073987D02*
G03*
X050591Y073987I-000236J-000236D01*
G01*
X048887Y074685D02*
G03*
X048887Y074213I000236J-000236D01*
G01*
X049853D02*
G03*
X049853Y074685I-000236J000236D01*
G01*
X049439Y073415D02*
G03*
X049439Y072943I000236J-000236D01*
G01*
X050404D02*
G03*
X050404Y073415I-000236J000236D01*
G01*
X048228Y074872D02*
G03*
X048701Y074872I000236J000236D01*
G01*
Y075837D02*
G03*
X048228Y075837I-000236J-000236D01*
G01*
X048078D02*
G03*
X047606Y075837I-000236J-000236D01*
G01*
Y074872D02*
G03*
X048078Y074872I000236J000236D01*
G01*
X050404Y077283D02*
G03*
X050404Y077756I-000236J000236D01*
G01*
X049439D02*
G03*
X049439Y077283I000236J-000236D01*
G01*
X048887Y076496D02*
G03*
X048887Y076024I000236J-000236D01*
G01*
X049853D02*
G03*
X049853Y076496I-000236J000236D01*
G01*
X050591Y077313D02*
G03*
X051063Y077313I000236J000236D01*
G01*
Y078278D02*
G03*
X050591Y078278I-000236J-000236D01*
G01*
X057344Y070371D02*
G03*
X057344Y069899I000236J-000236D01*
G01*
X05831D02*
G03*
X05831Y070371I-000236J000236D01*
G01*
X056609Y072808D02*
G03*
X057081Y072808I000236J000236D01*
G01*
Y073774D02*
G03*
X056609Y073774I-000236J-000236D01*
G01*
X055566Y068591D02*
G03*
X055566Y069063I-000236J000236D01*
G01*
X054601D02*
G03*
X054601Y068591I000236J-000236D01*
G01*
X055011Y09882D02*
X055084Y098894D01*
X054584Y098894D02*
X054658Y09882D01*
X055011D01*
X055084Y09894D02*
Y099154D01*
X054584Y09894D02*
Y099154D01*
Y099587D02*
Y09988D01*
X055084D01*
Y099587D02*
Y09988D01*
Y098894D02*
Y09894D01*
X054584Y098894D02*
Y09894D01*
X06076Y070335D02*
Y073515D01*
X0588Y070335D02*
X06076D01*
X0588D02*
Y073515D01*
X06076D01*
X060442Y073588D02*
Y074768D01*
X058742D02*
X060442D01*
X058742Y073588D02*
Y074768D01*
Y073588D02*
X060442D01*
X063064Y080021D02*
Y082631D01*
X060444D02*
X063064D01*
X060444Y080021D02*
Y082631D01*
Y080011D02*
Y080021D01*
Y080011D02*
X063064D01*
Y080021D01*
X052126Y078247D02*
X052283D01*
X051182Y077284D02*
Y078149D01*
X05244D01*
X051182Y077284D02*
X052438D01*
X05244Y077286D01*
Y078149D01*
X055689Y068904D02*
Y070086D01*
X056398Y068904D02*
Y070086D01*
X056314Y068904D02*
X056398D01*
X055689D02*
X055773D01*
X055689Y070086D02*
X055773D01*
X056314D02*
X056398D01*
X048241Y071639D02*
X048741D01*
X048241Y072659D02*
X048741D01*
X048241Y071639D02*
Y071899D01*
Y072399D02*
Y072659D01*
X048741Y072399D02*
Y072659D01*
Y071639D02*
Y071899D01*
X049854Y079324D02*
Y079584D01*
Y078564D02*
Y078824D01*
X050354Y078564D02*
Y078824D01*
Y079324D02*
Y079584D01*
X049854Y078564D02*
X050354D01*
X049854Y079584D02*
X050354D01*
X051317Y079578D02*
X051817D01*
X051317Y078558D02*
X051817D01*
Y079318D02*
Y079578D01*
Y078558D02*
Y078818D01*
X051317Y078558D02*
Y078818D01*
Y079318D02*
Y079578D01*
X050422Y079324D02*
Y079584D01*
Y078564D02*
Y078824D01*
X050922Y078564D02*
Y078824D01*
Y079324D02*
Y079584D01*
X050422Y078564D02*
X050922D01*
X050422Y079584D02*
X050922D01*
X053962Y077561D02*
X054462D01*
X053962Y078581D02*
X054462D01*
X053962Y077561D02*
Y077821D01*
Y078321D02*
Y078581D01*
X054462Y078321D02*
Y078581D01*
Y077561D02*
Y077821D01*
X048898Y069413D02*
X049158D01*
X048138D02*
X048398D01*
X048138Y068913D02*
X048398D01*
X048898D02*
X049158D01*
X048138D02*
Y069413D01*
X049158Y068913D02*
Y069413D01*
X05745Y077004D02*
Y077264D01*
Y076244D02*
Y076504D01*
X05795Y076244D02*
Y076504D01*
Y077004D02*
Y077264D01*
X05745Y076244D02*
X05795D01*
X05745Y077264D02*
X05795D01*
X057918Y077331D02*
Y077831D01*
X056898Y077331D02*
Y077831D01*
X057658Y077331D02*
X057918D01*
X056898D02*
X057158D01*
X056898Y077831D02*
X057158D01*
X057658D02*
X057918D01*
X053342Y074582D02*
X053602D01*
X054102D02*
X054362D01*
X054102Y075082D02*
X054362D01*
X053342D02*
X053602D01*
X054362Y074582D02*
Y075082D01*
X053342Y074582D02*
Y075082D01*
X048941Y070441D02*
X049201D01*
X049701D02*
X049961D01*
X049701Y070941D02*
X049961D01*
X048941D02*
X049201D01*
X049961Y070441D02*
Y070941D01*
X048941Y070441D02*
Y070941D01*
X050742Y069942D02*
X051002D01*
X051501D02*
X051761D01*
X051501Y070442D02*
X051761D01*
X050742D02*
X051002D01*
X051761Y069942D02*
Y070442D01*
X050742Y069942D02*
Y070442D01*
X049477Y069121D02*
Y069381D01*
Y068361D02*
Y068621D01*
X049977Y068361D02*
Y068621D01*
Y069121D02*
Y069381D01*
X049477Y068361D02*
X049977D01*
X049477Y069381D02*
X049977D01*
X049696Y069653D02*
Y069737D01*
Y070278D02*
Y070361D01*
X048515Y070278D02*
Y070361D01*
Y069653D02*
Y069737D01*
Y069653D02*
X049696D01*
X048515Y070361D02*
X049696D01*
X048741Y070515D02*
Y070775D01*
Y071275D02*
Y071535D01*
X048241Y071275D02*
Y071535D01*
Y070515D02*
Y070775D01*
Y071535D02*
X048741D01*
X048241Y070515D02*
X048741D01*
X050281Y083733D02*
Y084914D01*
X05099Y083733D02*
Y084914D01*
X050906Y083733D02*
X05099D01*
X050281D02*
X050365D01*
X050281Y084914D02*
X050365D01*
X050906D02*
X05099D01*
X051974Y072787D02*
X052474D01*
X051974Y073807D02*
X052474D01*
X051974Y072787D02*
Y073047D01*
Y073547D02*
Y073807D01*
X052474Y073547D02*
Y073807D01*
Y072787D02*
Y073047D01*
X061832Y077004D02*
X062092D01*
X061072D02*
X061332D01*
X061072Y076504D02*
X061332D01*
X061832D02*
X062092D01*
X061072D02*
Y077004D01*
X062092Y076504D02*
Y077004D01*
X063155Y078317D02*
Y079499D01*
X062447Y078317D02*
Y079499D01*
X062531D01*
X063072D02*
X063155D01*
X063072Y078317D02*
X063155D01*
X062447D02*
X062531D01*
X062983Y077004D02*
X063243D01*
X062223D02*
X062483D01*
X062223Y076504D02*
X062483D01*
X062983D02*
X063243D01*
X062223D02*
Y077004D01*
X063243Y076504D02*
Y077004D01*
X050171Y074069D02*
X050431D01*
X049411D02*
X049671D01*
X049411Y073569D02*
X049671D01*
X050171D02*
X050431D01*
X049411D02*
Y074069D01*
X050431Y073569D02*
Y074069D01*
X049897Y098894D02*
Y09894D01*
X050397Y098894D02*
Y09894D01*
Y099587D02*
Y09988D01*
X049897D02*
X050397D01*
X049897Y099587D02*
Y09988D01*
Y09894D02*
Y099154D01*
X050397Y09894D02*
Y099154D01*
X04997Y09882D02*
X050323D01*
X049897Y098894D02*
X04997Y09882D01*
X050323D02*
X050397Y098894D01*
X051459Y098894D02*
Y09894D01*
X051959Y098894D02*
Y09894D01*
Y099587D02*
Y09988D01*
X051459D02*
X051959D01*
X051459Y099587D02*
Y09988D01*
Y09894D02*
Y099154D01*
X051959Y09894D02*
Y099154D01*
X051533Y09882D02*
X051886D01*
X051459Y098894D02*
X051533Y09882D01*
X051886D02*
X051959Y098894D01*
X053022Y098894D02*
Y09894D01*
X053522Y098894D02*
Y09894D01*
Y099587D02*
Y09988D01*
X053022D02*
X053522D01*
X053022Y099587D02*
Y09988D01*
Y09894D02*
Y099154D01*
X053522Y09894D02*
Y099154D01*
X053095Y09882D02*
X053448D01*
X053022Y098894D02*
X053095Y09882D01*
X053448D02*
X053522Y098894D01*
X04962Y075289D02*
X04988D01*
X04886D02*
X04912D01*
X04886Y074789D02*
X04912D01*
X04962D02*
X04988D01*
X04886D02*
Y075289D01*
X04988Y074789D02*
Y075289D01*
X050171Y07714D02*
X050431D01*
X049411D02*
X049671D01*
X049411Y07664D02*
X049671D01*
X050171D02*
X050431D01*
X049411D02*
Y07714D01*
X050431Y07664D02*
Y07714D01*
X04962Y075919D02*
X04988D01*
X04886D02*
X04912D01*
X04886Y075419D02*
X04912D01*
X04962D02*
X04988D01*
X04886D02*
Y075919D01*
X04988Y075419D02*
Y075919D01*
X055546Y075386D02*
Y075646D01*
Y074627D02*
Y074887D01*
X056046Y074627D02*
Y074887D01*
Y075386D02*
Y075646D01*
X055546Y074627D02*
X056046D01*
X055546Y075646D02*
X056046D01*
X056903Y072617D02*
X057163D01*
X056143D02*
X056403D01*
X056143Y072117D02*
X056403D01*
X056903D02*
X057163D01*
X056143D02*
Y072617D01*
X057163Y072117D02*
Y072617D01*
X057323Y068322D02*
X057583D01*
X058083D02*
X058343D01*
X058083Y068822D02*
X058343D01*
X057323D02*
X057583D01*
X058343Y068322D02*
Y068822D01*
X057323Y068322D02*
Y068822D01*
X058081Y069604D02*
X058341D01*
X057321D02*
X057581D01*
X057321Y069104D02*
X057581D01*
X058081D02*
X058341D01*
X057321D02*
Y069604D01*
X058341Y069104D02*
Y069604D01*
X050676Y09962D02*
Y09988D01*
Y09886D02*
Y09912D01*
X051176Y09886D02*
Y09912D01*
Y09962D02*
Y09988D01*
X050676Y09886D02*
X051176D01*
X050676Y09988D02*
X051176D01*
X052238Y09962D02*
Y09988D01*
Y09886D02*
Y09912D01*
X052738Y09886D02*
Y09912D01*
Y09962D02*
Y09988D01*
X052238Y09886D02*
X052738D01*
X052238Y09988D02*
X052738D01*
X053801Y09962D02*
Y09988D01*
Y09886D02*
Y09912D01*
X054301Y09886D02*
Y09912D01*
Y09962D02*
Y09988D01*
X053801Y09886D02*
X054301D01*
X053801Y09988D02*
X054301D01*
X048874Y068816D02*
X049134D01*
X048114D02*
X048374D01*
X048114Y068316D02*
X048374D01*
X048874D02*
X049134D01*
X048114D02*
Y068816D01*
X049134Y068316D02*
Y068816D01*
X058048Y077521D02*
Y077781D01*
Y076761D02*
Y077021D01*
X058548Y076761D02*
Y077021D01*
Y077521D02*
Y077781D01*
X058048Y076761D02*
X058548D01*
X058048Y077781D02*
X058548D01*
X057033Y074396D02*
X057293D01*
X057793D02*
X058053D01*
X057793Y074896D02*
X058053D01*
X057033D02*
X057293D01*
X058053Y074396D02*
Y074896D01*
X057033Y074396D02*
Y074896D01*
X057793Y076117D02*
X058053D01*
X057033D02*
X057293D01*
X057033Y075617D02*
X057293D01*
X057793D02*
X058053D01*
X057033D02*
Y076117D01*
X058053Y075617D02*
Y076117D01*
X055363Y09962D02*
Y09988D01*
Y09886D02*
Y09912D01*
X055863Y09886D02*
Y09912D01*
Y09962D02*
Y09988D01*
X055363Y09886D02*
X055863D01*
X055363Y09988D02*
X055863D01*
X059449Y068465D02*
X059533D01*
X060074D02*
X060157D01*
X060074Y069646D02*
X060157D01*
X059449D02*
X059533D01*
X059449Y068465D02*
Y069646D01*
X060157Y068465D02*
Y069646D01*
D14*
X043915Y06455D02*
Y065521D01*
X051474Y064561D02*
Y06553D01*
D15*
X063037Y072971D02*
X063287D01*
Y070131D02*
Y072971D01*
X063037Y070131D02*
X063287D01*
X060887D02*
X061137D01*
X060887D02*
Y072971D01*
X061137D01*
X060887Y072121D02*
X063287D01*
X0465Y097352D02*
X048862D01*
X0465Y095383D02*
X048862D01*
Y095391D01*
Y097344D02*
Y097352D01*
X0465Y095383D02*
Y095391D01*
Y097344D02*
Y097352D01*
D16*
X053674Y06435D02*
X057674D01*
X054674Y066059D02*
Y067209D01*
X053674Y066059D02*
X054674D01*
X053674Y065607D02*
Y066059D01*
X057674Y065607D02*
Y066059D01*
X056674D02*
X057674D01*
X056674D02*
Y067209D01*
X054674D02*
X056674D01*
X053674Y06435D02*
Y065607D01*
X057674D01*
Y06435D02*
Y065607D01*
X055674D02*
Y067209D01*
X050768Y076319D02*
X050925Y076476D01*
X052718Y074526D02*
Y074625D01*
X05262Y074526D02*
X052718D01*
X050748D02*
X050847D01*
X050748D02*
Y074625D01*
X05262Y076496D02*
X052718D01*
Y076398D02*
Y076496D01*
X06098Y075994D02*
X062984D01*
X06068Y075694D02*
X06098Y075994D01*
X06068Y074194D02*
X060973Y0739D01*
X062991D01*
Y074624D01*
Y075254D02*
Y075987D01*
X06068Y075244D02*
Y075694D01*
Y074194D02*
Y074634D01*
X059564Y065607D02*
Y067209D01*
X061564Y06435D02*
Y065607D01*
X057564D02*
X061564D01*
X057564Y06435D02*
Y065607D01*
X058564Y067209D02*
X060564D01*
Y066059D02*
Y067209D01*
Y066059D02*
X061564D01*
Y065607D02*
Y066059D01*
X057564Y065607D02*
Y066059D01*
X058564D01*
Y067209D01*
X057564Y06435D02*
X061564D01*
X056449Y083764D02*
Y083364D01*
X056649Y083564D02*
X056249D01*
D17*
X062077Y072066D02*
D03*
D18*
X054836Y09884D02*
D03*
X050149Y09884D02*
D03*
X051711Y09884D02*
D03*
X053274Y09884D02*
D03*
D19*
X056048Y069205D02*
D03*
X050641Y084033D02*
D03*
X062796Y079198D02*
D03*
X059798Y069345D02*
D03*
D20*
X048815Y070002D02*
D03*
M02*
