G04*
G04 #@! TF.GenerationSoftware,Altium Limited,Altium Designer,19.0.15 (446)*
G04*
G04 Layer_Color=65535*
%FSTAX24Y24*%
%MOIN*%
G70*
G01*
G75*
%ADD10C,0.0098*%
%ADD11C,0.0039*%
%ADD12C,0.0079*%
%ADD13C,0.0070*%
%ADD14C,0.0060*%
%ADD15R,0.0140X0.1100*%
%ADD16R,0.0690X0.0180*%
G36*
X012319Y011378D02*
X012282D01*
Y011614D01*
X012282Y011614D01*
X01228Y011612D01*
X012277Y01161D01*
X012273Y011607D01*
X012268Y011603D01*
X012262Y011598D01*
X012255Y011593D01*
X012247Y011589D01*
X012246D01*
X012246Y011588D01*
X012243Y011586D01*
X012239Y011584D01*
X012234Y011582D01*
X012228Y011579D01*
X012221Y011575D01*
X012214Y011572D01*
X012208Y01157D01*
Y011606D01*
X012208D01*
X012209Y011607D01*
X012211Y011607D01*
X012213Y011608D01*
X012216Y01161D01*
X012219Y011611D01*
X012226Y011616D01*
X012235Y01162D01*
X012244Y011627D01*
X012253Y011634D01*
X012262Y011641D01*
X012263Y011641D01*
X012263Y011642D01*
X012264Y011643D01*
X012266Y011645D01*
X01227Y011649D01*
X012275Y011654D01*
X01228Y01166D01*
X012286Y011667D01*
X012291Y011674D01*
X012295Y011682D01*
X012319D01*
Y011378D01*
D02*
G37*
G36*
X012014Y01168D02*
X012023Y011679D01*
X012031Y011679D01*
X01204Y011677D01*
X012048Y011676D01*
X012048D01*
X012049Y011676D01*
X01205D01*
X012052Y011675D01*
X012057Y011673D01*
X012063Y011671D01*
X01207Y011668D01*
X012077Y011664D01*
X012085Y01166D01*
X012092Y011654D01*
X012092Y011654D01*
X012093Y011653D01*
X012094Y011652D01*
X012096Y011651D01*
X0121Y011646D01*
X012105Y01164D01*
X012111Y011633D01*
X012117Y011624D01*
X012123Y011614D01*
X012127Y011603D01*
Y011602D01*
X012128Y011601D01*
X012129Y0116D01*
X012129Y011597D01*
X012131Y011594D01*
X012131Y01159D01*
X012132Y011586D01*
X012134Y011582D01*
X012135Y011577D01*
X012136Y011571D01*
X012138Y011559D01*
X012139Y011545D01*
X01214Y01153D01*
Y01153D01*
Y011529D01*
Y011527D01*
Y011525D01*
X012139Y011522D01*
Y011518D01*
X012139Y01151D01*
X012138Y0115D01*
X012136Y01149D01*
X012134Y01148D01*
X012131Y011469D01*
Y011469D01*
X012131Y011468D01*
X012131Y011467D01*
X01213Y011465D01*
X012128Y01146D01*
X012126Y011454D01*
X012123Y011447D01*
X01212Y01144D01*
X012115Y011433D01*
X012111Y011426D01*
X01211Y011425D01*
X012109Y011423D01*
X012106Y011419D01*
X012103Y011416D01*
X012099Y011411D01*
X012094Y011407D01*
X012089Y011402D01*
X012083Y011398D01*
X012082Y011398D01*
X012081Y011396D01*
X012078Y011395D01*
X012073Y011392D01*
X012068Y01139D01*
X012062Y011388D01*
X012055Y011385D01*
X012047Y011383D01*
X012046D01*
X012045Y011382D01*
X012044Y011382D01*
X012039Y011381D01*
X012033Y011381D01*
X012026Y01138D01*
X012018Y011379D01*
X012009Y011378D01*
X011999Y011378D01*
X01189D01*
Y01168D01*
X012006D01*
X012014Y01168D01*
D02*
G37*
G36*
X015074Y015604D02*
X015037D01*
Y015841D01*
X015036Y01584D01*
X015034Y015838D01*
X015031Y015836D01*
X015027Y015833D01*
X015022Y015829D01*
X015016Y015824D01*
X015009Y01582D01*
X015001Y015815D01*
X015001D01*
X015Y015814D01*
X014998Y015813D01*
X014993Y01581D01*
X014988Y015808D01*
X014982Y015805D01*
X014975Y015802D01*
X014969Y015799D01*
X014962Y015796D01*
Y015832D01*
X014963D01*
X014964Y015833D01*
X014965Y015833D01*
X014967Y015834D01*
X01497Y015836D01*
X014973Y015838D01*
X014981Y015842D01*
X014989Y015847D01*
X014998Y015853D01*
X015007Y01586D01*
X015016Y015867D01*
X015017Y015868D01*
X015017Y015868D01*
X015019Y015869D01*
X01502Y015871D01*
X015024Y015875D01*
X01503Y01588D01*
X015035Y015886D01*
X01504Y015893D01*
X015045Y0159D01*
X01505Y015908D01*
X015074D01*
Y015604D01*
D02*
G37*
G36*
X014839D02*
X014801D01*
Y015841D01*
X014801Y01584D01*
X014799Y015838D01*
X014796Y015836D01*
X014792Y015833D01*
X014787Y015829D01*
X014781Y015824D01*
X014774Y01582D01*
X014766Y015815D01*
X014766D01*
X014765Y015814D01*
X014763Y015813D01*
X014758Y01581D01*
X014753Y015808D01*
X014747Y015805D01*
X01474Y015802D01*
X014734Y015799D01*
X014727Y015796D01*
Y015832D01*
X014728D01*
X014728Y015833D01*
X01473Y015833D01*
X014732Y015834D01*
X014735Y015836D01*
X014738Y015838D01*
X014746Y015842D01*
X014754Y015847D01*
X014763Y015853D01*
X014772Y01586D01*
X014781Y015867D01*
X014782Y015868D01*
X014782Y015868D01*
X014784Y015869D01*
X014785Y015871D01*
X014789Y015875D01*
X014794Y01588D01*
X0148Y015886D01*
X014805Y015893D01*
X01481Y0159D01*
X014815Y015908D01*
X014839D01*
Y015604D01*
D02*
G37*
G36*
X014553Y015906D02*
X014557D01*
X014566Y015906D01*
X014576Y015904D01*
X014586Y015903D01*
X014596Y015901D01*
X014601Y0159D01*
X014605Y015898D01*
X014605D01*
X014606Y015898D01*
X014608Y015897D01*
X014612Y015895D01*
X014617Y015892D01*
X014622Y015888D01*
X014628Y015883D01*
X014633Y015876D01*
X014638Y015869D01*
Y015869D01*
X014639Y015869D01*
X014641Y015866D01*
X014642Y015862D01*
X014645Y015856D01*
X014647Y015849D01*
X014649Y015841D01*
X014651Y015833D01*
X014651Y015824D01*
Y015824D01*
Y015823D01*
Y015821D01*
X014651Y015819D01*
Y015816D01*
X01465Y015813D01*
X014648Y015805D01*
X014646Y015796D01*
X014642Y015787D01*
X014637Y015778D01*
X014634Y015774D01*
X01463Y015769D01*
X01463Y015769D01*
X014629Y015768D01*
X014628Y015767D01*
X014626Y015766D01*
X014624Y015764D01*
X014621Y015762D01*
X014618Y01576D01*
X014614Y015758D01*
X01461Y015755D01*
X014605Y015753D01*
X0146Y015751D01*
X014594Y015748D01*
X014588Y015747D01*
X014581Y015744D01*
X014574Y015743D01*
X014566Y015742D01*
X014567Y015741D01*
X014569Y015741D01*
X014571Y015739D01*
X014575Y015737D01*
X014583Y015732D01*
X014586Y015729D01*
X01459Y015727D01*
X014591Y015726D01*
X014593Y015723D01*
X014596Y01572D01*
X014601Y015716D01*
X014606Y015709D01*
X014611Y015703D01*
X014617Y015695D01*
X014623Y015686D01*
X014675Y015604D01*
X014625D01*
X014586Y015667D01*
Y015668D01*
X014585Y015668D01*
X014584Y01567D01*
X014583Y015671D01*
X014579Y015676D01*
X014576Y015682D01*
X014571Y015689D01*
X014566Y015696D01*
X014561Y015703D01*
X014557Y015709D01*
X014556Y015709D01*
X014555Y015711D01*
X014553Y015713D01*
X01455Y015716D01*
X014543Y015723D01*
X01454Y015726D01*
X014536Y015729D01*
X014536Y015729D01*
X014535Y01573D01*
X014533Y01573D01*
X014531Y015732D01*
X014528Y015733D01*
X014525Y015734D01*
X014518Y015737D01*
X014517D01*
X014517Y015737D01*
X014515D01*
X014513Y015737D01*
X01451Y015738D01*
X014506D01*
X014501Y015738D01*
X01445D01*
Y015604D01*
X014409D01*
Y015907D01*
X01455D01*
X014553Y015906D01*
D02*
G37*
G36*
X013815Y01563D02*
X013778D01*
Y015866D01*
X013777Y015866D01*
X013775Y015864D01*
X013773Y015862D01*
X013768Y015858D01*
X013763Y015855D01*
X013757Y01585D01*
X01375Y015845D01*
X013742Y015841D01*
X013742D01*
X013742Y01584D01*
X013739Y015838D01*
X013735Y015836D01*
X013729Y015834D01*
X013723Y015831D01*
X013717Y015827D01*
X01371Y015824D01*
X013704Y015822D01*
Y015858D01*
X013704D01*
X013705Y015858D01*
X013707Y015859D01*
X013709Y01586D01*
X013711Y015862D01*
X013714Y015863D01*
X013722Y015868D01*
X013731Y015872D01*
X013739Y015879D01*
X013749Y015886D01*
X013758Y015893D01*
X013758Y015893D01*
X013759Y015894D01*
X01376Y015895D01*
X013762Y015896D01*
X013766Y015901D01*
X013771Y015906D01*
X013776Y015912D01*
X013782Y015919D01*
X013787Y015926D01*
X013791Y015934D01*
X013815D01*
Y01563D01*
D02*
G37*
G36*
X01353Y015932D02*
X013534D01*
X013543Y015931D01*
X013552Y01593D01*
X013563Y015929D01*
X013572Y015927D01*
X013577Y015925D01*
X013581Y015924D01*
X013582D01*
X013582Y015924D01*
X013585Y015922D01*
X013589Y015921D01*
X013593Y015917D01*
X013599Y015914D01*
X013604Y015908D01*
X01361Y015902D01*
X013615Y015895D01*
Y015895D01*
X013615Y015894D01*
X013617Y015892D01*
X013619Y015887D01*
X013621Y015882D01*
X013624Y015875D01*
X013626Y015867D01*
X013627Y015859D01*
X013627Y01585D01*
Y015849D01*
Y015848D01*
Y015847D01*
X013627Y015844D01*
Y015841D01*
X013627Y015838D01*
X013625Y015831D01*
X013622Y015822D01*
X013619Y015813D01*
X013614Y015804D01*
X01361Y015799D01*
X013607Y015795D01*
X013606Y015795D01*
X013606Y015794D01*
X013604Y015793D01*
X013603Y015792D01*
X0136Y01579D01*
X013598Y015788D01*
X013594Y015786D01*
X013591Y015783D01*
X013586Y015781D01*
X013582Y015779D01*
X013576Y015776D01*
X013571Y015774D01*
X013564Y015772D01*
X013558Y01577D01*
X01355Y015769D01*
X013542Y015768D01*
X013543Y015767D01*
X013545Y015766D01*
X013548Y015765D01*
X013551Y015763D01*
X013559Y015758D01*
X013563Y015755D01*
X013566Y015752D01*
X013567Y015751D01*
X013569Y015749D01*
X013573Y015746D01*
X013577Y015741D01*
X013582Y015735D01*
X013588Y015729D01*
X013593Y015721D01*
X0136Y015712D01*
X013652Y01563D01*
X013602D01*
X013562Y015693D01*
Y015693D01*
X013561Y015694D01*
X01356Y015695D01*
X013559Y015697D01*
X013556Y015702D01*
X013552Y015708D01*
X013547Y015715D01*
X013542Y015722D01*
X013537Y015728D01*
X013533Y015734D01*
X013533Y015735D01*
X013531Y015737D01*
X013529Y015739D01*
X013526Y015742D01*
X01352Y015749D01*
X013516Y015752D01*
X013513Y015754D01*
X013512Y015755D01*
X013511Y015755D01*
X01351Y015756D01*
X013507Y015758D01*
X013504Y015759D01*
X013501Y01576D01*
X013494Y015762D01*
X013494D01*
X013493Y015763D01*
X013491D01*
X013489Y015763D01*
X013486Y015764D01*
X013482D01*
X013478Y015764D01*
X013426D01*
Y01563D01*
X013386D01*
Y015932D01*
X013526D01*
X01353Y015932D01*
D02*
G37*
G36*
X014018Y015933D02*
X014023Y015932D01*
X01403Y015931D01*
X014037Y015929D01*
X014044Y015927D01*
X014051Y015924D01*
X014052D01*
X014052Y015923D01*
X014054Y015922D01*
X014058Y01592D01*
X014062Y015917D01*
X014067Y015912D01*
X014072Y015907D01*
X014077Y015902D01*
X014082Y015895D01*
X014082Y015894D01*
X014084Y015892D01*
X014086Y015888D01*
X014089Y015883D01*
X014092Y015876D01*
X014095Y015869D01*
X014098Y01586D01*
X014101Y01585D01*
Y01585D01*
X014101Y015849D01*
X014102Y015848D01*
X014102Y015845D01*
X014103Y015843D01*
X014103Y01584D01*
X014104Y015836D01*
X014104Y015831D01*
X014105Y015827D01*
X014106Y015821D01*
X014106Y015815D01*
X014107Y015809D01*
X014107Y015802D01*
Y015795D01*
X014108Y015787D01*
Y015779D01*
Y015778D01*
Y015777D01*
Y015774D01*
Y01577D01*
X014107Y015765D01*
Y01576D01*
X014107Y015754D01*
X014106Y015748D01*
X014105Y015734D01*
X014103Y01572D01*
X0141Y015706D01*
X014099Y015699D01*
X014096Y015693D01*
Y015692D01*
X014096Y015692D01*
X014095Y01569D01*
X014094Y015688D01*
X014093Y015685D01*
X014092Y015681D01*
X014088Y015674D01*
X014084Y015666D01*
X014078Y015657D01*
X014071Y01565D01*
X014064Y015642D01*
X014063D01*
X014063Y015641D01*
X014061Y01564D01*
X01406Y01564D01*
X014058Y015638D01*
X014055Y015636D01*
X014049Y015633D01*
X014041Y01563D01*
X014032Y015627D01*
X014021Y015626D01*
X014009Y015625D01*
X014005D01*
X014002Y015625D01*
X013998Y015626D01*
X013994Y015626D01*
X013989Y015627D01*
X013984Y015629D01*
X013978Y01563D01*
X013973Y015632D01*
X013967Y015635D01*
X013961Y015638D01*
X013956Y015641D01*
X01395Y015646D01*
X013945Y01565D01*
X01394Y015656D01*
X01394Y015656D01*
X013939Y015657D01*
X013937Y01566D01*
X013935Y015663D01*
X013933Y015667D01*
X013931Y015672D01*
X013928Y015678D01*
X013925Y015685D01*
X013922Y015693D01*
X01392Y015702D01*
X013917Y015713D01*
X013915Y015724D01*
X013913Y015736D01*
X013912Y015749D01*
X013911Y015764D01*
X01391Y015779D01*
Y015779D01*
Y015781D01*
Y015784D01*
Y015788D01*
X013911Y015792D01*
Y015798D01*
X013911Y015803D01*
X013912Y01581D01*
X013913Y015824D01*
X013915Y015838D01*
X013918Y015852D01*
X013919Y015859D01*
X013921Y015865D01*
Y015866D01*
X013922Y015867D01*
X013922Y015869D01*
X013923Y015871D01*
X013924Y015874D01*
X013926Y015877D01*
X013929Y015884D01*
X013934Y015892D01*
X01394Y0159D01*
X013946Y015909D01*
X013954Y015916D01*
X013954D01*
X013955Y015917D01*
X013956Y015917D01*
X013958Y015918D01*
X01396Y01592D01*
X013963Y015921D01*
X013969Y015925D01*
X013977Y015928D01*
X013986Y015931D01*
X013997Y015933D01*
X014009Y015934D01*
X014013D01*
X014018Y015933D01*
D02*
G37*
G36*
X011374Y01487D02*
X011376D01*
X011379Y01487D01*
X011386Y014868D01*
X011395Y014867D01*
X011404Y014864D01*
X011413Y01486D01*
X011422Y014854D01*
X011423D01*
X011423Y014854D01*
X011424Y014853D01*
X011426Y014851D01*
X01143Y014848D01*
X011436Y014843D01*
X011442Y014837D01*
X011448Y014829D01*
X011454Y01482D01*
X011459Y014809D01*
Y014809D01*
X01146Y014808D01*
X011461Y014806D01*
X011461Y014804D01*
X011462Y014801D01*
X011464Y014797D01*
X011465Y014792D01*
X011466Y014788D01*
X011467Y014782D01*
X011468Y014775D01*
X011469Y014768D01*
X01147Y014761D01*
X011471Y014753D01*
X011472Y014744D01*
X011472Y014734D01*
Y014724D01*
Y014724D01*
Y014722D01*
Y014719D01*
Y014715D01*
X011472Y01471D01*
Y014704D01*
X011472Y014698D01*
X011471Y014691D01*
X011469Y014676D01*
X011467Y01466D01*
X011464Y014646D01*
X011462Y014638D01*
X01146Y014632D01*
Y014631D01*
X011459Y01463D01*
X011458Y014629D01*
X011458Y014626D01*
X011456Y014623D01*
X011454Y01462D01*
X01145Y014612D01*
X011445Y014604D01*
X011439Y014595D01*
X011431Y014587D01*
X011422Y01458D01*
X011422D01*
X011421Y014579D01*
X01142Y014578D01*
X011418Y014577D01*
X011415Y014576D01*
X011413Y014574D01*
X011409Y014572D01*
X011406Y014571D01*
X011397Y014567D01*
X011387Y014564D01*
X011376Y014563D01*
X011364Y014562D01*
X011361D01*
X011358Y014562D01*
X011355D01*
X011352Y014563D01*
X011343Y014564D01*
X011334Y014566D01*
X011325Y01457D01*
X011315Y014575D01*
X01131Y014578D01*
X011306Y014581D01*
X011305Y014582D01*
X011305Y014582D01*
X011304Y014584D01*
X011302Y014585D01*
X011301Y014587D01*
X011298Y01459D01*
X011294Y014596D01*
X01129Y014604D01*
X011285Y014613D01*
X011282Y014624D01*
X011279Y014637D01*
X011315Y01464D01*
Y014639D01*
X011315Y014639D01*
Y014638D01*
X011316Y014636D01*
X011317Y014631D01*
X011319Y014626D01*
X011321Y01462D01*
X011324Y014614D01*
X011328Y014608D01*
X011332Y014603D01*
X011333Y014603D01*
X011334Y014601D01*
X011337Y0146D01*
X011341Y014598D01*
X011346Y014596D01*
X011351Y014594D01*
X011358Y014593D01*
X011365Y014592D01*
X011368D01*
X011371Y014593D01*
X011375Y014593D01*
X01138Y014594D01*
X011385Y014595D01*
X01139Y014597D01*
X011395Y0146D01*
X011395Y0146D01*
X011397Y014601D01*
X011399Y014603D01*
X011402Y014605D01*
X011406Y014608D01*
X011409Y014612D01*
X011413Y014616D01*
X011416Y014621D01*
X011416Y014621D01*
X011417Y014623D01*
X011419Y014626D01*
X011421Y01463D01*
X011423Y014636D01*
X011425Y014642D01*
X011427Y014649D01*
X01143Y014657D01*
Y014657D01*
X01143Y014657D01*
Y014659D01*
X01143Y01466D01*
X011431Y014665D01*
X011433Y01467D01*
X011433Y014677D01*
X011434Y014685D01*
X011435Y014693D01*
X011435Y014702D01*
Y014702D01*
Y014704D01*
Y014706D01*
Y014709D01*
X011435Y014709D01*
X011433Y014706D01*
X01143Y014703D01*
X011427Y014699D01*
X011423Y014695D01*
X011418Y01469D01*
X011412Y014685D01*
X011405Y014681D01*
X011404Y01468D01*
X011401Y014679D01*
X011397Y014677D01*
X011392Y014675D01*
X011386Y014673D01*
X011379Y014671D01*
X011371Y01467D01*
X011363Y01467D01*
X011359D01*
X011357Y01467D01*
X011353Y01467D01*
X01135Y014671D01*
X011345Y014672D01*
X011341Y014673D01*
X011331Y014676D01*
X011326Y014678D01*
X01132Y014681D01*
X011315Y014684D01*
X011309Y014688D01*
X011304Y014692D01*
X011299Y014697D01*
X011299Y014697D01*
X011298Y014698D01*
X011297Y014699D01*
X011295Y014702D01*
X011293Y014705D01*
X011291Y014708D01*
X011289Y014712D01*
X011287Y014716D01*
X011284Y014721D01*
X011282Y014726D01*
X01128Y014732D01*
X011277Y014738D01*
X011276Y014745D01*
X011275Y014753D01*
X011274Y01476D01*
X011274Y014768D01*
Y014769D01*
Y014771D01*
Y014773D01*
X011274Y014776D01*
X011274Y01478D01*
X011275Y014785D01*
X011276Y014789D01*
X011277Y014795D01*
X01128Y014806D01*
X011282Y014813D01*
X011285Y014819D01*
X011288Y014825D01*
X011292Y014831D01*
X011296Y014837D01*
X011301Y014842D01*
X011301Y014843D01*
X011302Y014844D01*
X011303Y014845D01*
X011305Y014847D01*
X011308Y014849D01*
X011312Y014851D01*
X011315Y014854D01*
X011319Y014857D01*
X011324Y014859D01*
X011329Y014861D01*
X011341Y014866D01*
X011347Y014868D01*
X011354Y014869D01*
X011361Y01487D01*
X011368Y014871D01*
X011371D01*
X011374Y01487D01*
D02*
G37*
G36*
X011128Y014869D02*
X011132D01*
X011141Y014868D01*
X011151Y014867D01*
X011161Y014866D01*
X011171Y014864D01*
X011176Y014862D01*
X01118Y014861D01*
X01118D01*
X01118Y014861D01*
X011183Y014859D01*
X011187Y014858D01*
X011192Y014854D01*
X011197Y014851D01*
X011203Y014845D01*
X011208Y014839D01*
X011213Y014832D01*
Y014832D01*
X011214Y014831D01*
X011215Y014829D01*
X011217Y014824D01*
X01122Y014819D01*
X011222Y014812D01*
X011224Y014804D01*
X011225Y014796D01*
X011226Y014787D01*
Y014786D01*
Y014785D01*
Y014784D01*
X011225Y014782D01*
Y014778D01*
X011225Y014775D01*
X011223Y014768D01*
X011221Y014759D01*
X011217Y01475D01*
X011212Y014741D01*
X011208Y014736D01*
X011205Y014732D01*
X011205Y014732D01*
X011204Y014731D01*
X011203Y01473D01*
X011201Y014729D01*
X011199Y014727D01*
X011196Y014725D01*
X011193Y014723D01*
X011189Y01472D01*
X011185Y014718D01*
X01118Y014716D01*
X011175Y014713D01*
X011169Y014711D01*
X011163Y014709D01*
X011156Y014707D01*
X011149Y014706D01*
X011141Y014705D01*
X011142Y014704D01*
X011143Y014703D01*
X011146Y014702D01*
X011149Y0147D01*
X011157Y014695D01*
X011161Y014692D01*
X011165Y014689D01*
X011166Y014688D01*
X011168Y014686D01*
X011171Y014683D01*
X011176Y014678D01*
X01118Y014672D01*
X011186Y014666D01*
X011192Y014658D01*
X011198Y014649D01*
X01125Y014567D01*
X0112D01*
X01116Y01463D01*
Y01463D01*
X011159Y014631D01*
X011159Y014632D01*
X011157Y014634D01*
X011154Y014639D01*
X01115Y014645D01*
X011146Y014652D01*
X011141Y014659D01*
X011136Y014665D01*
X011132Y014671D01*
X011131Y014672D01*
X01113Y014674D01*
X011128Y014676D01*
X011125Y014679D01*
X011118Y014686D01*
X011114Y014689D01*
X011111Y014691D01*
X011111Y014692D01*
X01111Y014692D01*
X011108Y014693D01*
X011105Y014695D01*
X011103Y014696D01*
X0111Y014697D01*
X011093Y014699D01*
X011092D01*
X011091Y0147D01*
X01109D01*
X011087Y0147D01*
X011084Y014701D01*
X011081D01*
X011076Y014701D01*
X011024D01*
Y014567D01*
X010984D01*
Y014869D01*
X011125D01*
X011128Y014869D01*
D02*
G37*
G36*
X010498D02*
X010502D01*
X010511Y014868D01*
X010521Y014867D01*
X010531Y014866D01*
X010541Y014864D01*
X010546Y014862D01*
X01055Y014861D01*
X01055D01*
X010551Y014861D01*
X010553Y014859D01*
X010557Y014858D01*
X010562Y014854D01*
X010567Y014851D01*
X010573Y014845D01*
X010578Y014839D01*
X010583Y014832D01*
Y014832D01*
X010584Y014831D01*
X010586Y014829D01*
X010587Y014824D01*
X01059Y014819D01*
X010592Y014812D01*
X010594Y014804D01*
X010596Y014796D01*
X010596Y014787D01*
Y014786D01*
Y014785D01*
Y014784D01*
X010596Y014782D01*
Y014778D01*
X010595Y014775D01*
X010593Y014768D01*
X010591Y014759D01*
X010587Y01475D01*
X010582Y014741D01*
X010579Y014736D01*
X010575Y014732D01*
X010575Y014732D01*
X010574Y014731D01*
X010573Y01473D01*
X010571Y014729D01*
X010569Y014727D01*
X010566Y014725D01*
X010563Y014723D01*
X010559Y01472D01*
X010555Y014718D01*
X01055Y014716D01*
X010545Y014713D01*
X010539Y014711D01*
X010533Y014709D01*
X010526Y014707D01*
X010519Y014706D01*
X010511Y014705D01*
X010512Y014704D01*
X010513Y014703D01*
X010516Y014702D01*
X01052Y0147D01*
X010527Y014695D01*
X010531Y014692D01*
X010535Y014689D01*
X010536Y014688D01*
X010538Y014686D01*
X010541Y014683D01*
X010546Y014678D01*
X010551Y014672D01*
X010556Y014666D01*
X010562Y014658D01*
X010568Y014649D01*
X01062Y014567D01*
X01057D01*
X01053Y01463D01*
Y01463D01*
X01053Y014631D01*
X010529Y014632D01*
X010527Y014634D01*
X010524Y014639D01*
X01052Y014645D01*
X010516Y014652D01*
X010511Y014659D01*
X010506Y014665D01*
X010502Y014671D01*
X010501Y014672D01*
X0105Y014674D01*
X010498Y014676D01*
X010495Y014679D01*
X010488Y014686D01*
X010485Y014689D01*
X010481Y014691D01*
X010481Y014692D01*
X01048Y014692D01*
X010478Y014693D01*
X010475Y014695D01*
X010473Y014696D01*
X01047Y014697D01*
X010463Y014699D01*
X010462D01*
X010461Y0147D01*
X01046D01*
X010457Y0147D01*
X010454Y014701D01*
X010451D01*
X010446Y014701D01*
X010395D01*
Y014567D01*
X010354D01*
Y014869D01*
X010495D01*
X010498Y014869D01*
D02*
G37*
G36*
X010749Y01487D02*
X010752Y01487D01*
X010756Y014869D01*
X01076Y014869D01*
X010765Y014868D01*
X010775Y014865D01*
X010786Y014861D01*
X010791Y014858D01*
X010796Y014855D01*
X010801Y014851D01*
X010806Y014847D01*
X010806Y014847D01*
X010807Y014847D01*
X010808Y014845D01*
X01081Y014844D01*
X010811Y014841D01*
X010814Y014838D01*
X010818Y014832D01*
X010822Y014823D01*
X010826Y014814D01*
X010829Y014803D01*
X01083Y014797D01*
X01083Y014791D01*
Y014791D01*
Y01479D01*
Y014788D01*
X01083Y014784D01*
X010829Y014779D01*
X010828Y014773D01*
X010825Y014767D01*
X010823Y014761D01*
X010819Y014754D01*
X010818Y014754D01*
X010817Y014752D01*
X010814Y014749D01*
X010811Y014746D01*
X010806Y014742D01*
X0108Y014738D01*
X010794Y014734D01*
X010786Y01473D01*
X010786D01*
X010787Y01473D01*
X010788Y014729D01*
X01079Y014729D01*
X010795Y014726D01*
X010801Y014723D01*
X010808Y014719D01*
X010815Y014714D01*
X010821Y014708D01*
X010828Y014701D01*
Y014701D01*
X010828Y0147D01*
X01083Y014698D01*
X010832Y014693D01*
X010835Y014688D01*
X010838Y014681D01*
X01084Y014672D01*
X010842Y014663D01*
X010842Y014653D01*
Y014653D01*
Y014651D01*
Y014649D01*
X010842Y014646D01*
X010842Y014643D01*
X010841Y014639D01*
X01084Y014635D01*
X010839Y01463D01*
X010836Y01462D01*
X010834Y014615D01*
X010831Y014609D01*
X010828Y014604D01*
X010824Y014598D01*
X01082Y014593D01*
X010815Y014588D01*
X010814Y014587D01*
X010814Y014587D01*
X010812Y014585D01*
X01081Y014584D01*
X010807Y014582D01*
X010804Y01458D01*
X0108Y014577D01*
X010796Y014575D01*
X010791Y014572D01*
X010785Y01457D01*
X010779Y014568D01*
X010773Y014566D01*
X010766Y014564D01*
X010759Y014563D01*
X010751Y014562D01*
X010743Y014562D01*
X010738D01*
X010735Y014562D01*
X010731Y014563D01*
X010727Y014563D01*
X010722Y014564D01*
X010717Y014565D01*
X010705Y014568D01*
X010699Y01457D01*
X010693Y014573D01*
X010687Y014576D01*
X010681Y014579D01*
X010676Y014583D01*
X01067Y014588D01*
X01067Y014588D01*
X010669Y014589D01*
X010668Y014591D01*
X010666Y014593D01*
X010664Y014595D01*
X010662Y014598D01*
X010659Y014602D01*
X010657Y014606D01*
X010654Y014611D01*
X010652Y014616D01*
X010648Y014627D01*
X010646Y014633D01*
X010645Y01464D01*
X010644Y014647D01*
X010643Y014654D01*
Y014654D01*
Y014655D01*
Y014657D01*
X010644Y014659D01*
Y014661D01*
X010644Y014664D01*
X010645Y014671D01*
X010647Y014679D01*
X010649Y014687D01*
X010653Y014695D01*
X010658Y014703D01*
Y014704D01*
X010659Y014704D01*
X010661Y014706D01*
X010664Y01471D01*
X010669Y014714D01*
X010675Y014719D01*
X010683Y014723D01*
X010691Y014727D01*
X010701Y01473D01*
X0107D01*
X0107Y014731D01*
X010699Y014731D01*
X010697Y014732D01*
X010693Y014734D01*
X010688Y014736D01*
X010682Y01474D01*
X010676Y014744D01*
X010671Y014749D01*
X010666Y014754D01*
X010666Y014755D01*
X010665Y014757D01*
X010663Y014761D01*
X010661Y014765D01*
X010659Y014771D01*
X010657Y014777D01*
X010656Y014785D01*
X010655Y014792D01*
Y014793D01*
Y014794D01*
Y014795D01*
X010656Y014798D01*
X010656Y014801D01*
X010657Y014804D01*
X010658Y014812D01*
X010661Y01482D01*
X010665Y01483D01*
X010668Y014834D01*
X010671Y014839D01*
X010675Y014844D01*
X010679Y014848D01*
X010679Y014848D01*
X01068Y014849D01*
X010682Y01485D01*
X010683Y014851D01*
X010686Y014853D01*
X010689Y014855D01*
X010692Y014857D01*
X010696Y014859D01*
X0107Y014861D01*
X010705Y014864D01*
X01071Y014865D01*
X010716Y014867D01*
X010728Y01487D01*
X010735Y01487D01*
X010742Y014871D01*
X010746D01*
X010749Y01487D01*
D02*
G37*
G36*
X014633Y014921D02*
X014633Y014917D01*
Y014913D01*
X014632Y014904D01*
X014631Y014895D01*
X01463Y014884D01*
X014627Y014874D01*
X014626Y01487D01*
X014625Y014866D01*
Y014865D01*
X014624Y014865D01*
X014623Y014862D01*
X014621Y014858D01*
X014618Y014853D01*
X014614Y014848D01*
X014609Y014843D01*
X014603Y014837D01*
X014596Y014832D01*
X014596D01*
X014595Y014832D01*
X014592Y01483D01*
X014588Y014828D01*
X014582Y014825D01*
X014576Y014823D01*
X014568Y014821D01*
X01456Y01482D01*
X014551Y014819D01*
X01455D01*
X014549D01*
X014547D01*
X014545Y01482D01*
X014542D01*
X014539Y01482D01*
X014532Y014822D01*
X014523Y014825D01*
X014514Y014828D01*
X014505Y014833D01*
X0145Y014837D01*
X014496Y01484D01*
X014495Y014841D01*
X014495Y014841D01*
X014494Y014843D01*
X014492Y014844D01*
X014491Y014846D01*
X014489Y014849D01*
X014487Y014853D01*
X014484Y014856D01*
X014482Y01486D01*
X01448Y014865D01*
X014477Y01487D01*
X014475Y014876D01*
X014473Y014883D01*
X014471Y014889D01*
X01447Y014897D01*
X014468Y014905D01*
X014468Y014904D01*
X014467Y014902D01*
X014465Y014899D01*
X014464Y014896D01*
X014459Y014888D01*
X014456Y014884D01*
X014453Y014881D01*
X014452Y01488D01*
X01445Y014877D01*
X014447Y014874D01*
X014442Y01487D01*
X014436Y014865D01*
X014429Y014859D01*
X014422Y014853D01*
X014413Y014847D01*
X014331Y014795D01*
Y014845D01*
X014394Y014885D01*
X014394D01*
X014395Y014886D01*
X014396Y014887D01*
X014398Y014888D01*
X014403Y014891D01*
X014409Y014895D01*
X014415Y0149D01*
X014422Y014905D01*
X014429Y014909D01*
X014435Y014914D01*
X014436Y014914D01*
X014437Y014915D01*
X01444Y014918D01*
X014443Y014921D01*
X01445Y014927D01*
X014453Y014931D01*
X014455Y014934D01*
X014456Y014935D01*
X014456Y014936D01*
X014457Y014937D01*
X014458Y01494D01*
X01446Y014943D01*
X014461Y014946D01*
X014463Y014953D01*
Y014953D01*
X014464Y014954D01*
Y014956D01*
X014464Y014958D01*
X014464Y014961D01*
Y014964D01*
X014465Y014969D01*
Y015021D01*
X014331D01*
Y015061D01*
X014633D01*
Y014921D01*
D02*
G37*
G36*
X014629Y014573D02*
X0146D01*
X014599Y014574D01*
X014599Y014575D01*
X014597Y014576D01*
X014594Y014578D01*
X014591Y014581D01*
X014588Y014584D01*
X014583Y014588D01*
X014578Y014592D01*
X014573Y014596D01*
X014567Y0146D01*
X01456Y014605D01*
X014553Y01461D01*
X014545Y014615D01*
X014537Y014621D01*
X014527Y014626D01*
X014518Y014631D01*
X014518Y014631D01*
X014516Y014632D01*
X014513Y014634D01*
X014509Y014636D01*
X014505Y014638D01*
X014499Y014641D01*
X014493Y014644D01*
X014486Y014647D01*
X014478Y01465D01*
X014471Y014654D01*
X014462Y014658D01*
X014453Y014661D01*
X014434Y014668D01*
X014414Y014675D01*
X014413D01*
X014412Y014675D01*
X01441Y014676D01*
X014407Y014676D01*
X014404Y014677D01*
X014399Y014678D01*
X014395Y01468D01*
X014389Y01468D01*
X014383Y014682D01*
X014377Y014683D01*
X014363Y014685D01*
X014347Y014687D01*
X014331Y014689D01*
Y014727D01*
X014331D01*
X014332D01*
X014334D01*
X014337Y014726D01*
X01434D01*
X014345Y014726D01*
X014349Y014725D01*
X014355Y014725D01*
X014361Y014724D01*
X014367Y014723D01*
X014374Y014722D01*
X014382Y014721D01*
X01439Y014719D01*
X014398Y014718D01*
X014416Y014713D01*
X014417D01*
X014419Y014713D01*
X014421Y014712D01*
X014425Y014711D01*
X014429Y014709D01*
X014435Y014707D01*
X014441Y014706D01*
X014447Y014703D01*
X014455Y0147D01*
X014462Y014698D01*
X014479Y014691D01*
X014496Y014683D01*
X014514Y014675D01*
X014514Y014674D01*
X014516Y014673D01*
X014518Y014672D01*
X014522Y01467D01*
X014526Y014668D01*
X01453Y014665D01*
X014536Y014662D01*
X014541Y014659D01*
X014554Y01465D01*
X014567Y014641D01*
X014581Y014631D01*
X014593Y014621D01*
Y014769D01*
X014629D01*
Y014573D01*
D02*
G37*
G36*
X012129Y013164D02*
X012008D01*
X011992Y013083D01*
X011992Y013083D01*
X011993Y013084D01*
X011994Y013084D01*
X011997Y013086D01*
X011999Y013087D01*
X012002Y013089D01*
X012009Y013092D01*
X012018Y013096D01*
X012028Y013099D01*
X012038Y013101D01*
X012043Y013102D01*
X012053D01*
X012056Y013101D01*
X012059Y013101D01*
X012063Y013101D01*
X012067Y0131D01*
X012072Y013098D01*
X012083Y013095D01*
X012088Y013093D01*
X012094Y01309D01*
X0121Y013087D01*
X012105Y013084D01*
X012111Y013079D01*
X012116Y013074D01*
X012116Y013074D01*
X012117Y013073D01*
X012119Y013072D01*
X01212Y01307D01*
X012122Y013067D01*
X012125Y013063D01*
X012127Y01306D01*
X01213Y013055D01*
X012132Y01305D01*
X012135Y013045D01*
X012137Y013039D01*
X012139Y013033D01*
X012141Y013026D01*
X012142Y013019D01*
X012143Y013011D01*
X012143Y013004D01*
Y013003D01*
Y013002D01*
Y013D01*
X012143Y012997D01*
X012143Y012993D01*
X012142Y012989D01*
X012141Y012984D01*
X01214Y01298D01*
X012138Y012968D01*
X012133Y012956D01*
X012131Y01295D01*
X012127Y012945D01*
X012124Y012938D01*
X012119Y012933D01*
X012119Y012932D01*
X012118Y012931D01*
X012116Y012929D01*
X012114Y012927D01*
X012111Y012924D01*
X012108Y012921D01*
X012103Y012918D01*
X012098Y012914D01*
X012093Y012911D01*
X012087Y012908D01*
X01208Y012905D01*
X012074Y012902D01*
X012066Y0129D01*
X012058Y012898D01*
X012049Y012897D01*
X01204Y012896D01*
X012036D01*
X012033Y012897D01*
X012029Y012897D01*
X012025Y012897D01*
X012021Y012898D01*
X012016Y012899D01*
X012005Y012902D01*
X011994Y012906D01*
X011988Y012908D01*
X011983Y012911D01*
X011977Y012915D01*
X011972Y012919D01*
X011972Y012919D01*
X011971Y01292D01*
X01197Y012921D01*
X011968Y012923D01*
X011966Y012925D01*
X011964Y012928D01*
X011961Y012931D01*
X011959Y012935D01*
X011956Y012939D01*
X011954Y012944D01*
X011949Y012955D01*
X011945Y012967D01*
X011944Y012973D01*
X011943Y01298D01*
X011982Y012983D01*
Y012983D01*
Y012982D01*
X011982Y012981D01*
X011983Y012979D01*
X011984Y012974D01*
X011986Y012967D01*
X011988Y012961D01*
X011992Y012953D01*
X011996Y012947D01*
X012001Y012941D01*
X012002Y01294D01*
X012004Y012938D01*
X012008Y012936D01*
X012012Y012934D01*
X012018Y012931D01*
X012024Y012929D01*
X012032Y012927D01*
X01204Y012927D01*
X012042D01*
X012044Y012927D01*
X012049Y012928D01*
X012056Y012929D01*
X012063Y012931D01*
X01207Y012935D01*
X012078Y01294D01*
X012082Y012943D01*
X012085Y012947D01*
X012086Y012947D01*
X012086Y012948D01*
X012087Y012949D01*
X012088Y01295D01*
X012091Y012955D01*
X012095Y012961D01*
X012098Y012969D01*
X012101Y012978D01*
X012103Y012989D01*
X012104Y012994D01*
Y013001D01*
Y013001D01*
Y013002D01*
Y013004D01*
X012104Y013006D01*
Y013008D01*
X012103Y013011D01*
X012102Y013018D01*
X0121Y013027D01*
X012097Y013035D01*
X012092Y013043D01*
X012086Y01305D01*
Y013051D01*
X012085Y013051D01*
X012083Y013053D01*
X012079Y013056D01*
X012074Y01306D01*
X012067Y013063D01*
X012059Y013066D01*
X01205Y013068D01*
X012045Y013069D01*
X012036D01*
X012033Y013069D01*
X012028Y013068D01*
X012023Y013067D01*
X012018Y013066D01*
X012012Y013063D01*
X012007Y013061D01*
X012006Y01306D01*
X012004Y01306D01*
X012002Y013057D01*
X011998Y013055D01*
X011995Y013052D01*
X011991Y013048D01*
X011987Y013044D01*
X011984Y013039D01*
X011949Y013044D01*
X011979Y0132D01*
X012129D01*
Y013164D01*
D02*
G37*
G36*
X011797Y013203D02*
X011801D01*
X01181Y013203D01*
X01182Y013202D01*
X011831Y0132D01*
X01184Y013198D01*
X011845Y013197D01*
X011849Y013195D01*
X011849D01*
X01185Y013195D01*
X011852Y013194D01*
X011856Y013192D01*
X011861Y013189D01*
X011866Y013185D01*
X011872Y01318D01*
X011877Y013174D01*
X011883Y013167D01*
Y013166D01*
X011883Y013166D01*
X011885Y013163D01*
X011886Y013159D01*
X011889Y013153D01*
X011891Y013147D01*
X011893Y013139D01*
X011895Y01313D01*
X011895Y013121D01*
Y013121D01*
Y01312D01*
Y013118D01*
X011895Y013116D01*
Y013113D01*
X011894Y01311D01*
X011893Y013102D01*
X01189Y013094D01*
X011886Y013084D01*
X011881Y013075D01*
X011878Y013071D01*
X011874Y013067D01*
X011874Y013066D01*
X011873Y013066D01*
X011872Y013064D01*
X01187Y013063D01*
X011868Y013061D01*
X011865Y01306D01*
X011862Y013057D01*
X011859Y013055D01*
X011854Y013053D01*
X011849Y01305D01*
X011844Y013048D01*
X011838Y013046D01*
X011832Y013044D01*
X011825Y013042D01*
X011818Y01304D01*
X01181Y013039D01*
X011811Y013039D01*
X011813Y013038D01*
X011815Y013036D01*
X011819Y013034D01*
X011827Y013029D01*
X011831Y013026D01*
X011834Y013024D01*
X011835Y013023D01*
X011837Y013021D01*
X011841Y013017D01*
X011845Y013013D01*
X01185Y013007D01*
X011855Y013D01*
X011861Y012992D01*
X011867Y012983D01*
X011919Y012901D01*
X011869D01*
X01183Y012964D01*
Y012965D01*
X011829Y012966D01*
X011828Y012967D01*
X011827Y012969D01*
X011824Y012973D01*
X01182Y01298D01*
X011815Y012986D01*
X01181Y012993D01*
X011805Y013D01*
X011801Y013006D01*
X0118Y013006D01*
X011799Y013008D01*
X011797Y013011D01*
X011794Y013014D01*
X011787Y01302D01*
X011784Y013023D01*
X01178Y013026D01*
X01178Y013026D01*
X011779Y013027D01*
X011777Y013028D01*
X011775Y013029D01*
X011772Y01303D01*
X011769Y013032D01*
X011762Y013034D01*
X011761D01*
X011761Y013034D01*
X011759D01*
X011757Y013035D01*
X011754Y013035D01*
X01175D01*
X011745Y013036D01*
X011694D01*
Y012901D01*
X011654D01*
Y013204D01*
X011794D01*
X011797Y013203D01*
D02*
G37*
G36*
X012064Y01239D02*
X012105D01*
Y012356D01*
X012064D01*
Y012283D01*
X012027D01*
Y012356D01*
X011895D01*
Y01239D01*
X012034Y012586D01*
X012064D01*
Y01239D01*
D02*
G37*
G36*
X011762Y012585D02*
X011766D01*
X011776Y012585D01*
X011785Y012584D01*
X011796Y012582D01*
X011805Y01258D01*
X01181Y012579D01*
X011814Y012578D01*
X011814D01*
X011815Y012577D01*
X011818Y012576D01*
X011821Y012574D01*
X011826Y012571D01*
X011832Y012567D01*
X011837Y012562D01*
X011842Y012556D01*
X011848Y012549D01*
Y012548D01*
X011848Y012548D01*
X01185Y012545D01*
X011852Y012541D01*
X011854Y012535D01*
X011856Y012529D01*
X011859Y012521D01*
X01186Y012512D01*
X01186Y012503D01*
Y012503D01*
Y012502D01*
Y0125D01*
X01186Y012498D01*
Y012495D01*
X011859Y012492D01*
X011858Y012484D01*
X011855Y012476D01*
X011852Y012467D01*
X011846Y012457D01*
X011843Y012453D01*
X011839Y012449D01*
X011839Y012448D01*
X011838Y012448D01*
X011837Y012446D01*
X011835Y012445D01*
X011833Y012443D01*
X011831Y012442D01*
X011827Y012439D01*
X011824Y012437D01*
X011819Y012435D01*
X011814Y012432D01*
X011809Y01243D01*
X011804Y012428D01*
X011797Y012426D01*
X01179Y012424D01*
X011783Y012422D01*
X011775Y012421D01*
X011776Y012421D01*
X011778Y01242D01*
X01178Y012418D01*
X011784Y012416D01*
X011792Y012412D01*
X011796Y012408D01*
X011799Y012406D01*
X0118Y012405D01*
X011802Y012403D01*
X011806Y012399D01*
X01181Y012395D01*
X011815Y012389D01*
X011821Y012382D01*
X011826Y012374D01*
X011832Y012366D01*
X011884Y012283D01*
X011835D01*
X011795Y012346D01*
Y012347D01*
X011794Y012348D01*
X011793Y012349D01*
X011792Y012351D01*
X011789Y012356D01*
X011785Y012362D01*
X01178Y012368D01*
X011775Y012375D01*
X01177Y012382D01*
X011766Y012388D01*
X011766Y012388D01*
X011764Y01239D01*
X011762Y012393D01*
X011759Y012396D01*
X011752Y012402D01*
X011749Y012405D01*
X011745Y012408D01*
X011745Y012408D01*
X011744Y012409D01*
X011742Y01241D01*
X01174Y012411D01*
X011737Y012412D01*
X011734Y012414D01*
X011727Y012416D01*
X011727D01*
X011726Y012416D01*
X011724D01*
X011722Y012417D01*
X011719Y012417D01*
X011715D01*
X01171Y012418D01*
X011659D01*
Y012283D01*
X011619D01*
Y012586D01*
X011759D01*
X011762Y012585D01*
D02*
G37*
G36*
X013231Y015933D02*
X013234Y015933D01*
X013238Y015932D01*
X013243Y015931D01*
X013248Y015931D01*
X013259Y015928D01*
X013271Y015923D01*
X013276Y015921D01*
X013282Y015917D01*
X013287Y015914D01*
X013292Y015909D01*
X013293Y015909D01*
X013293Y015908D01*
X013294Y015907D01*
X013296Y015905D01*
X013298Y015903D01*
X0133Y0159D01*
X013303Y015896D01*
X013305Y015893D01*
X01331Y015884D01*
X013314Y015874D01*
X013316Y015869D01*
X013317Y015862D01*
X013317Y015856D01*
X013318Y01585D01*
Y015849D01*
Y015847D01*
X013317Y015843D01*
X013317Y015838D01*
X013316Y015833D01*
X013314Y015827D01*
X013313Y01582D01*
X01331Y015814D01*
X01331Y015813D01*
X013309Y015811D01*
X013307Y015807D01*
X013304Y015803D01*
X013301Y015797D01*
X013297Y015791D01*
X013291Y015784D01*
X013285Y015777D01*
X013284Y015776D01*
X013282Y015773D01*
X01328Y015771D01*
X013278Y015769D01*
X013275Y015766D01*
X013272Y015763D01*
X013268Y015759D01*
X013264Y015755D01*
X013259Y015751D01*
X013254Y015746D01*
X013248Y015741D01*
X013242Y015736D01*
X013235Y01573D01*
X013228Y015724D01*
X013228Y015723D01*
X013227Y015723D01*
X013225Y015721D01*
X013223Y01572D01*
X01322Y015717D01*
X013217Y015714D01*
X01321Y015709D01*
X013203Y015702D01*
X013196Y015695D01*
X01319Y01569D01*
X013187Y015688D01*
X013185Y015685D01*
X013185Y015685D01*
X013183Y015684D01*
X013182Y015682D01*
X013179Y015679D01*
X013177Y015676D01*
X013175Y015673D01*
X013169Y015666D01*
X013318D01*
Y01563D01*
X013118D01*
Y01563D01*
Y015632D01*
Y015635D01*
X013118Y015638D01*
X013119Y015642D01*
X01312Y015647D01*
X01312Y015651D01*
X013122Y015656D01*
Y015656D01*
X013123Y015657D01*
X013123Y015659D01*
X013125Y015663D01*
X013128Y015668D01*
X013131Y015674D01*
X013136Y015681D01*
X013141Y015688D01*
X013147Y015696D01*
Y015696D01*
X013147Y015697D01*
X01315Y015699D01*
X013154Y015703D01*
X013159Y015709D01*
X013166Y015716D01*
X013174Y015723D01*
X013184Y015732D01*
X013195Y015741D01*
X013196Y015742D01*
X013197Y015743D01*
X0132Y015745D01*
X013203Y015748D01*
X013207Y015751D01*
X013212Y015755D01*
X013217Y01576D01*
X013222Y015765D01*
X013233Y015775D01*
X013244Y015785D01*
X013249Y015791D01*
X013254Y015796D01*
X013259Y015801D01*
X013262Y015806D01*
Y015806D01*
X013263Y015806D01*
X013264Y015808D01*
X013265Y01581D01*
X013268Y015814D01*
X013271Y01582D01*
X013274Y015827D01*
X013277Y015834D01*
X013279Y015843D01*
X01328Y015851D01*
Y015851D01*
Y015851D01*
X013279Y015854D01*
X013279Y015858D01*
X013278Y015863D01*
X013276Y015869D01*
X013273Y015876D01*
X013269Y015882D01*
X013264Y015888D01*
X013263Y015889D01*
X013261Y01589D01*
X013258Y015893D01*
X013253Y015896D01*
X013247Y015898D01*
X01324Y015901D01*
X013231Y015903D01*
X013222Y015903D01*
X01322D01*
X013218Y015903D01*
X013213Y015902D01*
X013206Y015901D01*
X0132Y015899D01*
X013193Y015896D01*
X013186Y015892D01*
X013179Y015887D01*
X013178Y015886D01*
X013176Y015884D01*
X013174Y01588D01*
X013171Y015875D01*
X013168Y015869D01*
X013165Y015861D01*
X013164Y015852D01*
X013163Y015842D01*
X013125Y015846D01*
Y015847D01*
X013125Y015848D01*
Y01585D01*
X013126Y015853D01*
X013127Y015857D01*
X013127Y015861D01*
X013129Y015865D01*
X01313Y01587D01*
X013134Y015881D01*
X013139Y015891D01*
X013142Y015896D01*
X013146Y015902D01*
X01315Y015907D01*
X013154Y015911D01*
X013154Y015911D01*
X013155Y015912D01*
X013157Y015913D01*
X013159Y015914D01*
X013161Y015916D01*
X013165Y015918D01*
X013168Y01592D01*
X013172Y015922D01*
X013177Y015924D01*
X013182Y015927D01*
X013188Y015928D01*
X013194Y01593D01*
X013201Y015931D01*
X013208Y015933D01*
X013215Y015933D01*
X013223Y015934D01*
X013227D01*
X013231Y015933D01*
D02*
G37*
G36*
X012947Y015937D02*
X012951D01*
X012955Y015937D01*
X01296Y015936D01*
X012965Y015935D01*
X012977Y015933D01*
X01299Y015929D01*
X013002Y015924D01*
X013009Y015921D01*
X013016Y015917D01*
X013016Y015917D01*
X013017Y015917D01*
X013019Y015915D01*
X013021Y015914D01*
X013024Y015912D01*
X013027Y015909D01*
X013035Y015903D01*
X013043Y015895D01*
X013051Y015886D01*
X01306Y015874D01*
X013067Y015862D01*
Y015861D01*
X013068Y01586D01*
X013068Y015858D01*
X013069Y015855D01*
X013071Y015852D01*
X013072Y015848D01*
X013074Y015843D01*
X013076Y015838D01*
X013077Y015832D01*
X013079Y015826D01*
X013081Y01582D01*
X013082Y015813D01*
X013084Y015797D01*
X013085Y015781D01*
Y015781D01*
Y015779D01*
Y015778D01*
Y015775D01*
X013084Y015772D01*
Y015768D01*
X013084Y015763D01*
X013083Y015759D01*
X013082Y015748D01*
X01308Y015737D01*
X013077Y015725D01*
X013073Y015714D01*
Y015713D01*
X013073Y015713D01*
X013072Y015711D01*
X013071Y015709D01*
X01307Y015706D01*
X013068Y015703D01*
X013065Y015696D01*
X01306Y015688D01*
X013054Y015679D01*
X013047Y015671D01*
X013039Y015662D01*
X01304D01*
X01304Y015661D01*
X013042Y01566D01*
X013044Y015659D01*
X013046Y015657D01*
X013049Y015655D01*
X013056Y015651D01*
X013064Y015647D01*
X013072Y015642D01*
X013082Y015638D01*
X01309Y015634D01*
X013078Y015606D01*
X013078D01*
X013077Y015607D01*
X013075Y015608D01*
X013073Y015609D01*
X01307Y01561D01*
X013066Y015612D01*
X013062Y015613D01*
X013058Y015616D01*
X013048Y015621D01*
X013037Y015627D01*
X013026Y015635D01*
X013013Y015643D01*
X013013D01*
X013012Y015643D01*
X01301Y015642D01*
X013008Y01564D01*
X013004Y015639D01*
X013001Y015637D01*
X012996Y015636D01*
X012991Y015634D01*
X012986Y015633D01*
X012981Y015631D01*
X012968Y015628D01*
X012954Y015626D01*
X012946Y015625D01*
X012939Y015625D01*
X012935D01*
X012932Y015625D01*
X012929D01*
X012924Y015626D01*
X012919Y015626D01*
X012914Y015627D01*
X012903Y015629D01*
X01289Y015633D01*
X012877Y015638D01*
X012871Y015641D01*
X012864Y015644D01*
X012864Y015645D01*
X012863Y015645D01*
X012861Y015647D01*
X012859Y015648D01*
X012856Y01565D01*
X012853Y015653D01*
X012846Y015659D01*
X012837Y015667D01*
X012829Y015676D01*
X012821Y015687D01*
X012813Y0157D01*
Y0157D01*
X012812Y015702D01*
X012811Y015703D01*
X012811Y015706D01*
X012809Y015709D01*
X012808Y015713D01*
X012806Y015718D01*
X012804Y015723D01*
X012803Y015729D01*
X012801Y015735D01*
X0128Y015742D01*
X012798Y015749D01*
X012796Y015765D01*
X012795Y015781D01*
Y015781D01*
Y015783D01*
Y015785D01*
X012796Y015788D01*
Y015792D01*
X012796Y015797D01*
X012797Y015802D01*
X012797Y015808D01*
X0128Y01582D01*
X012803Y015834D01*
X012807Y015848D01*
X012813Y015862D01*
X012814Y015863D01*
X012814Y015864D01*
X012815Y015866D01*
X012817Y015869D01*
X012818Y015872D01*
X012821Y015875D01*
X012827Y015883D01*
X012834Y015892D01*
X012843Y015901D01*
X012853Y01591D01*
X012865Y015918D01*
X012865Y015919D01*
X012867Y015919D01*
X012868Y01592D01*
X012871Y015921D01*
X012874Y015923D01*
X012877Y015924D01*
X012882Y015926D01*
X012887Y015928D01*
X012892Y01593D01*
X012898Y015931D01*
X012911Y015935D01*
X012925Y015937D01*
X012932Y015938D01*
X012944D01*
X012947Y015937D01*
D02*
G37*
G36*
X01405Y01467D02*
X014013D01*
Y014906D01*
X014013Y014906D01*
X01401Y014904D01*
X014008Y014902D01*
X014004Y014899D01*
X013999Y014895D01*
X013993Y01489D01*
X013986Y014885D01*
X013978Y014881D01*
X013977D01*
X013977Y01488D01*
X013974Y014878D01*
X01397Y014876D01*
X013965Y014874D01*
X013958Y014871D01*
X013952Y014868D01*
X013945Y014864D01*
X013939Y014862D01*
Y014898D01*
X013939D01*
X01394Y014899D01*
X013942Y014899D01*
X013944Y0149D01*
X013947Y014902D01*
X01395Y014903D01*
X013957Y014908D01*
X013966Y014913D01*
X013975Y014919D01*
X013984Y014926D01*
X013993Y014933D01*
X013993Y014934D01*
X013994Y014934D01*
X013995Y014935D01*
X013997Y014937D01*
X014001Y014941D01*
X014006Y014946D01*
X014011Y014952D01*
X014017Y014959D01*
X014022Y014966D01*
X014026Y014974D01*
X01405D01*
Y01467D01*
D02*
G37*
G36*
X013734Y014977D02*
X013738D01*
X013742Y014977D01*
X013747Y014976D01*
X013753Y014975D01*
X013764Y014973D01*
X013777Y014969D01*
X01379Y014964D01*
X013796Y014961D01*
X013803Y014958D01*
X013803Y014957D01*
X013804Y014957D01*
X013806Y014955D01*
X013809Y014954D01*
X013811Y014952D01*
X013815Y014949D01*
X013822Y014943D01*
X01383Y014935D01*
X013839Y014926D01*
X013847Y014914D01*
X013854Y014902D01*
Y014901D01*
X013855Y0149D01*
X013856Y014898D01*
X013857Y014895D01*
X013858Y014892D01*
X01386Y014888D01*
X013861Y014883D01*
X013863Y014878D01*
X013865Y014872D01*
X013866Y014866D01*
X013868Y01486D01*
X013869Y014853D01*
X013871Y014837D01*
X013872Y014821D01*
Y014821D01*
Y014819D01*
Y014818D01*
Y014815D01*
X013872Y014812D01*
Y014808D01*
X013871Y014803D01*
X013871Y014799D01*
X013869Y014788D01*
X013867Y014777D01*
X013865Y014765D01*
X013861Y014754D01*
Y014753D01*
X01386Y014753D01*
X013859Y014751D01*
X013858Y014749D01*
X013857Y014746D01*
X013856Y014743D01*
X013852Y014736D01*
X013848Y014728D01*
X013841Y014719D01*
X013834Y014711D01*
X013827Y014702D01*
X013827D01*
X013828Y014701D01*
X013829Y0147D01*
X013831Y014699D01*
X013834Y014697D01*
X013837Y014695D01*
X013843Y014691D01*
X013851Y014687D01*
X01386Y014682D01*
X013869Y014678D01*
X013878Y014674D01*
X013866Y014646D01*
X013865D01*
X013865Y014647D01*
X013863Y014648D01*
X01386Y014649D01*
X013857Y01465D01*
X013854Y014652D01*
X01385Y014653D01*
X013845Y014656D01*
X013836Y014661D01*
X013825Y014667D01*
X013813Y014675D01*
X013801Y014684D01*
X0138D01*
X013799Y014683D01*
X013797Y014682D01*
X013795Y01468D01*
X013792Y014679D01*
X013788Y014677D01*
X013784Y014676D01*
X013779Y014674D01*
X013774Y014673D01*
X013768Y014671D01*
X013755Y014668D01*
X013741Y014666D01*
X013734Y014665D01*
X013726Y014665D01*
X013723D01*
X013719Y014665D01*
X013716D01*
X013712Y014666D01*
X013707Y014667D01*
X013702Y014667D01*
X01369Y01467D01*
X013678Y014673D01*
X013664Y014678D01*
X013658Y014681D01*
X013652Y014684D01*
X013651Y014685D01*
X01365Y014685D01*
X013649Y014687D01*
X013646Y014688D01*
X013643Y01469D01*
X01364Y014693D01*
X013633Y014699D01*
X013625Y014707D01*
X013616Y014716D01*
X013608Y014727D01*
X013601Y01474D01*
Y01474D01*
X0136Y014742D01*
X013599Y014743D01*
X013598Y014746D01*
X013597Y01475D01*
X013595Y014753D01*
X013593Y014758D01*
X013592Y014764D01*
X01359Y014769D01*
X013588Y014775D01*
X013587Y014782D01*
X013585Y014789D01*
X013584Y014805D01*
X013583Y014821D01*
Y014821D01*
Y014823D01*
Y014825D01*
X013583Y014828D01*
Y014832D01*
X013584Y014837D01*
X013584Y014842D01*
X013585Y014848D01*
X013587Y014861D01*
X01359Y014874D01*
X013594Y014888D01*
X013601Y014902D01*
X013601Y014903D01*
X013601Y014904D01*
X013602Y014906D01*
X013604Y014909D01*
X013606Y014912D01*
X013608Y014915D01*
X013614Y014923D01*
X013621Y014932D01*
X01363Y014941D01*
X01364Y014951D01*
X013652Y014958D01*
X013653Y014959D01*
X013654Y014959D01*
X013656Y01496D01*
X013658Y014961D01*
X013661Y014963D01*
X013665Y014965D01*
X013669Y014966D01*
X013674Y014968D01*
X01368Y01497D01*
X013685Y014972D01*
X013698Y014975D01*
X013712Y014977D01*
X013719Y014978D01*
X013731D01*
X013734Y014977D01*
D02*
G37*
G36*
X012085Y014072D02*
X012085Y014069D01*
Y014065D01*
X012084Y014056D01*
X012083Y014046D01*
X012082Y014036D01*
X012079Y014026D01*
X012078Y014021D01*
X012077Y014017D01*
Y014017D01*
X012076Y014016D01*
X012075Y014014D01*
X012073Y01401D01*
X01207Y014005D01*
X012066Y014D01*
X012061Y013994D01*
X012055Y013989D01*
X012048Y013984D01*
X012047D01*
X012047Y013983D01*
X012044Y013981D01*
X01204Y01398D01*
X012034Y013977D01*
X012028Y013975D01*
X01202Y013973D01*
X012012Y013971D01*
X012002Y013971D01*
X012002D01*
X012001D01*
X011999D01*
X011997Y013971D01*
X011994D01*
X011991Y013972D01*
X011984Y013974D01*
X011975Y013976D01*
X011966Y01398D01*
X011957Y013985D01*
X011952Y013988D01*
X011948Y013992D01*
X011947Y013992D01*
X011947Y013993D01*
X011946Y013994D01*
X011944Y013996D01*
X011943Y013998D01*
X011941Y014001D01*
X011939Y014004D01*
X011936Y014008D01*
X011934Y014012D01*
X011932Y014017D01*
X011929Y014022D01*
X011927Y014028D01*
X011925Y014034D01*
X011923Y014041D01*
X011922Y014048D01*
X01192Y014056D01*
X01192Y014055D01*
X011919Y014054D01*
X011917Y014051D01*
X011916Y014047D01*
X011911Y01404D01*
X011908Y014036D01*
X011905Y014032D01*
X011904Y014031D01*
X011902Y014029D01*
X011898Y014026D01*
X011894Y014021D01*
X011888Y014016D01*
X011881Y014011D01*
X011874Y014005D01*
X011865Y013999D01*
X011783Y013947D01*
Y013997D01*
X011846Y014036D01*
X011846D01*
X011847Y014037D01*
X011848Y014038D01*
X01185Y01404D01*
X011855Y014043D01*
X011861Y014047D01*
X011867Y014051D01*
X011874Y014056D01*
X011881Y014061D01*
X011887Y014065D01*
X011888Y014066D01*
X011889Y014067D01*
X011892Y014069D01*
X011895Y014072D01*
X011902Y014079D01*
X011905Y014082D01*
X011907Y014086D01*
X011908Y014086D01*
X011908Y014087D01*
X011909Y014089D01*
X01191Y014092D01*
X011912Y014094D01*
X011913Y014097D01*
X011915Y014104D01*
Y014105D01*
X011916Y014106D01*
Y014107D01*
X011916Y014109D01*
X011916Y014113D01*
Y014116D01*
X011917Y014121D01*
Y014172D01*
X011783D01*
Y014213D01*
X012085D01*
Y014072D01*
D02*
G37*
G36*
X011932Y013925D02*
X011938D01*
X011945Y013924D01*
X011954Y013923D01*
X011963Y013922D01*
X011973Y013921D01*
X011983Y013919D01*
X011994Y013917D01*
X012004Y013915D01*
X012015Y013911D01*
X012025Y013908D01*
X012034Y013903D01*
X012044Y013898D01*
X012051Y013893D01*
X012052Y013892D01*
X012053Y013891D01*
X012054Y01389D01*
X012057Y013887D01*
X01206Y013885D01*
X012062Y013881D01*
X012066Y013877D01*
X012069Y013873D01*
X012072Y013867D01*
X012075Y013862D01*
X012078Y013855D01*
X012081Y013849D01*
X012083Y013841D01*
X012085Y013833D01*
X012086Y013825D01*
X012086Y013816D01*
Y013813D01*
X012086Y01381D01*
Y013807D01*
X012086Y013804D01*
X012084Y013795D01*
X012082Y013786D01*
X012078Y013776D01*
X012073Y013767D01*
X01207Y013762D01*
X012066Y013758D01*
X012066Y013757D01*
X012065Y013757D01*
X012064Y013756D01*
X012063Y013754D01*
X012061Y013752D01*
X012058Y01375D01*
X012052Y013745D01*
X012044Y013741D01*
X012034Y013736D01*
X012023Y013732D01*
X012011Y01373D01*
X012008Y013767D01*
X012009D01*
X012009Y013767D01*
X012012Y013768D01*
X012016Y013769D01*
X01202Y013771D01*
X012026Y013773D01*
X012031Y013775D01*
X012036Y013778D01*
X01204Y013781D01*
X012041Y013782D01*
X012042Y013784D01*
X012045Y013787D01*
X012048Y013791D01*
X012051Y013797D01*
X012053Y013803D01*
X012055Y013811D01*
X012056Y013818D01*
Y013821D01*
X012055Y013825D01*
X012054Y013829D01*
X012053Y013834D01*
X012051Y013839D01*
X012049Y013845D01*
X012046Y01385D01*
X012045Y013851D01*
X012044Y013853D01*
X012041Y013856D01*
X012036Y01386D01*
X012031Y013864D01*
X012025Y013869D01*
X012017Y013873D01*
X012008Y013878D01*
X012008D01*
X012007Y013878D01*
X012006Y013879D01*
X012004Y01388D01*
X012001Y01388D01*
X011998Y013881D01*
X011995Y013882D01*
X01199Y013883D01*
X011985Y013884D01*
X01198Y013885D01*
X011975Y013886D01*
X011968Y013886D01*
X011961Y013887D01*
X011954Y013887D01*
X011947Y013888D01*
X011939D01*
X011939Y013887D01*
X011942Y013886D01*
X011945Y013883D01*
X01195Y013879D01*
X011955Y013874D01*
X01196Y013869D01*
X011964Y013863D01*
X011969Y013856D01*
Y013855D01*
X011969Y013855D01*
X011971Y013852D01*
X011972Y013848D01*
X011974Y013843D01*
X011976Y013837D01*
X011977Y01383D01*
X011978Y013822D01*
X011979Y013814D01*
Y013811D01*
X011978Y013808D01*
X011978Y013805D01*
X011978Y013801D01*
X011977Y013797D01*
X011975Y013793D01*
X011972Y013783D01*
X01197Y013777D01*
X011967Y013772D01*
X011964Y013767D01*
X011961Y013761D01*
X011956Y013756D01*
X011951Y013751D01*
X011951Y013751D01*
X01195Y01375D01*
X011949Y013749D01*
X011947Y013747D01*
X011943Y013745D01*
X01194Y013743D01*
X011937Y013741D01*
X011932Y013738D01*
X011927Y013735D01*
X011922Y013733D01*
X011916Y013731D01*
X01191Y013729D01*
X011903Y013728D01*
X011896Y013726D01*
X011888Y013725D01*
X011881Y013725D01*
X01188D01*
X011879D01*
X011878D01*
X011876D01*
X011873Y013725D01*
X011871D01*
X011864Y013727D01*
X011855Y013728D01*
X011846Y01373D01*
X011837Y013733D01*
X011828Y013738D01*
X011827D01*
X011827Y013738D01*
X011825Y013739D01*
X011824Y01374D01*
X011819Y013742D01*
X011814Y013746D01*
X011808Y013751D01*
X011801Y013757D01*
X011795Y013764D01*
X01179Y013771D01*
Y013772D01*
X01179Y013772D01*
X011789Y013773D01*
X011788Y013775D01*
X011786Y01378D01*
X011784Y013785D01*
X011781Y013793D01*
X01178Y013801D01*
X011778Y01381D01*
X011777Y01382D01*
Y013822D01*
X011778Y013825D01*
Y013828D01*
X011778Y013832D01*
X011779Y013836D01*
X01178Y013842D01*
X011782Y013847D01*
X011784Y013853D01*
X011786Y013859D01*
X011788Y013865D01*
X011792Y013872D01*
X011796Y013878D01*
X0118Y013884D01*
X011805Y01389D01*
X011812Y013896D01*
X011812Y013896D01*
X011813Y013897D01*
X011815Y013898D01*
X011818Y0139D01*
X011822Y013903D01*
X011826Y013905D01*
X011832Y013908D01*
X011838Y01391D01*
X011846Y013913D01*
X011854Y013916D01*
X011863Y013918D01*
X011873Y01392D01*
X011884Y013922D01*
X011897Y013924D01*
X01191Y013925D01*
X011924Y013925D01*
X011924D01*
X011925D01*
X011926D01*
X011928D01*
X011932Y013925D01*
D02*
G37*
G36*
X019057Y014734D02*
Y014733D01*
Y014732D01*
Y01473D01*
Y014726D01*
X019056Y014723D01*
Y014718D01*
X019056Y014713D01*
X019055Y014708D01*
X019054Y014696D01*
X019052Y014684D01*
X01905Y014672D01*
X019048Y014666D01*
X019046Y014661D01*
Y01466D01*
X019046Y01466D01*
X019045Y014658D01*
X019044Y014657D01*
X019041Y014652D01*
X019037Y014646D01*
X019032Y014639D01*
X019026Y014632D01*
X019018Y014624D01*
X019009Y014618D01*
X019008D01*
X019007Y014617D01*
X019006Y014616D01*
X019004Y014615D01*
X019001Y014614D01*
X018998Y014612D01*
X018994Y014611D01*
X01899Y014609D01*
X018985Y014608D01*
X01898Y014606D01*
X018974Y014605D01*
X018967Y014604D01*
X018961Y014603D01*
X018954Y014602D01*
X018938Y014601D01*
X018934D01*
X018931Y014601D01*
X018928D01*
X018923Y014602D01*
X018919Y014602D01*
X018914Y014603D01*
X018903Y014605D01*
X018891Y014607D01*
X01888Y014611D01*
X018869Y014615D01*
X018868D01*
X018867Y014616D01*
X018866Y014617D01*
X018864Y014618D01*
X01886Y014622D01*
X018854Y014626D01*
X018847Y014633D01*
X018841Y01464D01*
X018835Y014648D01*
X01883Y014658D01*
Y014658D01*
X01883Y014659D01*
X018829Y014661D01*
X018829Y014663D01*
X018828Y014666D01*
X018827Y014669D01*
X018825Y014673D01*
X018825Y014678D01*
X018824Y014683D01*
X018822Y014689D01*
X018822Y014695D01*
X018821Y014702D01*
X01882Y014709D01*
X018819Y014717D01*
X018819Y014725D01*
Y014734D01*
Y014909D01*
X018859D01*
Y014734D01*
Y014733D01*
Y014732D01*
Y01473D01*
Y014727D01*
X01886Y014724D01*
Y01472D01*
X01886Y014712D01*
X018861Y014702D01*
X018862Y014693D01*
X018864Y014684D01*
X018865Y01468D01*
X018866Y014676D01*
X018867Y014675D01*
X018867Y014673D01*
X01887Y01467D01*
X018872Y014665D01*
X018875Y014661D01*
X01888Y014656D01*
X018885Y014651D01*
X018891Y014647D01*
X018892Y014647D01*
X018894Y014646D01*
X018898Y014644D01*
X018903Y014643D01*
X018909Y01464D01*
X018917Y014639D01*
X018926Y014638D01*
X018935Y014637D01*
X018939D01*
X018942Y014638D01*
X018946D01*
X01895Y014638D01*
X018959Y01464D01*
X01897Y014642D01*
X01898Y014646D01*
X018989Y01465D01*
X018994Y014654D01*
X018998Y014657D01*
X018998Y014657D01*
X018999Y014658D01*
X018999Y014659D01*
X019001Y014661D01*
X019002Y014664D01*
X019004Y014666D01*
X019006Y01467D01*
X019007Y014674D01*
X019009Y014679D01*
X01901Y014685D01*
X019012Y014691D01*
X019013Y014698D01*
X019015Y014706D01*
X019016Y014714D01*
X019016Y014724D01*
Y014734D01*
Y014909D01*
X019057D01*
Y014734D01*
D02*
G37*
G36*
X019248Y014606D02*
X019211D01*
Y014843D01*
X01921Y014842D01*
X019208Y014841D01*
X019206Y014838D01*
X019201Y014835D01*
X019196Y014831D01*
X01919Y014827D01*
X019183Y014822D01*
X019175Y014817D01*
X019175D01*
X019175Y014816D01*
X019172Y014815D01*
X019168Y014813D01*
X019162Y01481D01*
X019156Y014807D01*
X01915Y014804D01*
X019143Y014801D01*
X019137Y014798D01*
Y014834D01*
X019137D01*
X019138Y014835D01*
X01914Y014835D01*
X019142Y014837D01*
X019144Y014838D01*
X019148Y01484D01*
X019155Y014844D01*
X019164Y014849D01*
X019172Y014855D01*
X019182Y014862D01*
X019191Y014869D01*
X019191Y01487D01*
X019192Y01487D01*
X019193Y014872D01*
X019195Y014873D01*
X019199Y014877D01*
X019204Y014882D01*
X019209Y014889D01*
X019215Y014896D01*
X01922Y014903D01*
X019224Y01491D01*
X019248D01*
Y014606D01*
D02*
G37*
G36*
X015719Y015661D02*
X015719Y015657D01*
Y015653D01*
X015718Y015644D01*
X015717Y015635D01*
X015716Y015624D01*
X015714Y015615D01*
X015712Y01561D01*
X015711Y015606D01*
Y015605D01*
X015711Y015605D01*
X015709Y015602D01*
X015708Y015598D01*
X015704Y015594D01*
X015701Y015588D01*
X015695Y015583D01*
X015689Y015577D01*
X015682Y015572D01*
X015682D01*
X015681Y015572D01*
X015679Y01557D01*
X015674Y015568D01*
X015669Y015566D01*
X015662Y015563D01*
X015654Y015561D01*
X015646Y01556D01*
X015637Y01556D01*
X015636D01*
X015635D01*
X015634D01*
X015632Y01556D01*
X015628D01*
X015625Y01556D01*
X015618Y015562D01*
X015609Y015565D01*
X0156Y015568D01*
X015591Y015574D01*
X015586Y015577D01*
X015582Y015581D01*
X015582Y015581D01*
X015581Y015581D01*
X01558Y015583D01*
X015579Y015584D01*
X015577Y015587D01*
X015575Y015589D01*
X015573Y015593D01*
X01557Y015596D01*
X015568Y015601D01*
X015566Y015605D01*
X015563Y015611D01*
X015561Y015616D01*
X015559Y015623D01*
X015557Y015629D01*
X015556Y015637D01*
X015555Y015645D01*
X015554Y015644D01*
X015553Y015642D01*
X015552Y015639D01*
X01555Y015636D01*
X015545Y015628D01*
X015542Y015624D01*
X015539Y015621D01*
X015538Y01562D01*
X015536Y015618D01*
X015533Y015614D01*
X015528Y01561D01*
X015522Y015605D01*
X015516Y015599D01*
X015508Y015594D01*
X015499Y015587D01*
X015417Y015535D01*
Y015585D01*
X01548Y015625D01*
X01548D01*
X015481Y015626D01*
X015482Y015627D01*
X015484Y015628D01*
X015489Y015631D01*
X015495Y015635D01*
X015502Y01564D01*
X015509Y015645D01*
X015515Y01565D01*
X015521Y015654D01*
X015522Y015654D01*
X015524Y015656D01*
X015526Y015658D01*
X015529Y015661D01*
X015536Y015667D01*
X015539Y015671D01*
X015541Y015674D01*
X015542Y015675D01*
X015542Y015676D01*
X015543Y015678D01*
X015545Y01568D01*
X015546Y015683D01*
X015547Y015686D01*
X015549Y015693D01*
Y015693D01*
X01555Y015694D01*
Y015696D01*
X01555Y015698D01*
X015551Y015701D01*
Y015705D01*
X015551Y015709D01*
Y015761D01*
X015417D01*
Y015801D01*
X015719D01*
Y015661D01*
D02*
G37*
G36*
X015502Y015474D02*
X015501D01*
X0155Y015474D01*
X015499Y015473D01*
X015496Y015473D01*
X015494Y015473D01*
X015491Y015472D01*
X015484Y015469D01*
X015476Y015466D01*
X015469Y015463D01*
X015462Y015458D01*
X015456Y015453D01*
X015455Y015452D01*
X015454Y01545D01*
X015451Y015447D01*
X015449Y015442D01*
X015447Y015437D01*
X015444Y015431D01*
X015443Y015423D01*
X015442Y015415D01*
Y015413D01*
X015443Y015411D01*
X015443Y015406D01*
X015444Y0154D01*
X015447Y015393D01*
X01545Y015386D01*
X015454Y015378D01*
X01546Y015371D01*
X015461Y01537D01*
X015464Y015368D01*
X015468Y015365D01*
X015473Y015362D01*
X015479Y015359D01*
X015487Y015356D01*
X015496Y015354D01*
X015505Y015353D01*
X015506D01*
X015507D01*
X015508D01*
X01551Y015353D01*
X015514Y015354D01*
X01552Y015355D01*
X015527Y015357D01*
X015534Y01536D01*
X015541Y015364D01*
X015548Y01537D01*
X015548Y015371D01*
X01555Y015373D01*
X015553Y015376D01*
X015556Y015381D01*
X015559Y015387D01*
X015562Y015395D01*
X015563Y015403D01*
X015564Y015412D01*
Y015416D01*
X015564Y015419D01*
X015563Y015423D01*
X015562Y015428D01*
X015562Y015433D01*
X01556Y015438D01*
X015593Y015434D01*
Y015432D01*
X015593Y01543D01*
Y015424D01*
X015593Y01542D01*
X015594Y015414D01*
X015596Y015407D01*
X015598Y0154D01*
X015601Y015393D01*
X015605Y015386D01*
Y015385D01*
X015605Y015385D01*
X015607Y015383D01*
X01561Y015379D01*
X015614Y015376D01*
X01562Y015372D01*
X015626Y015369D01*
X015634Y015367D01*
X015638Y015366D01*
X015643D01*
X015643D01*
X015644D01*
X015646D01*
X01565Y015367D01*
X015655Y015368D01*
X01566Y01537D01*
X015666Y015372D01*
X015671Y015376D01*
X015677Y01538D01*
X015677Y015381D01*
X015679Y015383D01*
X015681Y015386D01*
X015683Y01539D01*
X015686Y015395D01*
X015688Y015401D01*
X01569Y015408D01*
X01569Y015416D01*
Y01542D01*
X015689Y015424D01*
X015688Y015429D01*
X015687Y015435D01*
X015684Y01544D01*
X015681Y015446D01*
X015677Y015452D01*
X015676Y015452D01*
X015674Y015454D01*
X015671Y015457D01*
X015666Y01546D01*
X015661Y015463D01*
X015654Y015466D01*
X015645Y015469D01*
X015636Y01547D01*
X015642Y015508D01*
X015643D01*
X015644Y015507D01*
X015646Y015507D01*
X015649Y015506D01*
X015652Y015505D01*
X015655Y015504D01*
X015663Y015501D01*
X015673Y015497D01*
X015683Y015492D01*
X015692Y015485D01*
X0157Y015477D01*
X015701Y015476D01*
X015701Y015476D01*
X015702Y015474D01*
X015703Y015473D01*
X015705Y01547D01*
X015707Y015467D01*
X015708Y015464D01*
X015711Y01546D01*
X015714Y015452D01*
X015718Y015442D01*
X01572Y01543D01*
X015721Y015424D01*
Y015413D01*
X01572Y015408D01*
X015719Y015402D01*
X015718Y015395D01*
X015716Y015387D01*
X015713Y015379D01*
X01571Y015372D01*
Y015371D01*
X015709Y015371D01*
X015708Y015368D01*
X015705Y015364D01*
X015702Y01536D01*
X015698Y015355D01*
X015693Y015349D01*
X015687Y015344D01*
X015681Y01534D01*
X01568Y015339D01*
X015678Y015338D01*
X015674Y015336D01*
X015669Y015334D01*
X015663Y015332D01*
X015657Y01533D01*
X015649Y015329D01*
X015642Y015328D01*
X015641D01*
X015638D01*
X015635Y015329D01*
X01563Y01533D01*
X015625Y015331D01*
X015618Y015333D01*
X015612Y015336D01*
X015606Y015339D01*
X015605Y01534D01*
X015604Y015341D01*
X0156Y015344D01*
X015597Y015347D01*
X015593Y015352D01*
X015589Y015357D01*
X015585Y015363D01*
X015581Y01537D01*
Y01537D01*
X01558Y015369D01*
X01558Y015368D01*
X015579Y015366D01*
X015578Y015361D01*
X015575Y015355D01*
X015572Y015348D01*
X015567Y015341D01*
X015562Y015334D01*
X015555Y015328D01*
X015554Y015328D01*
X015552Y015326D01*
X015547Y015324D01*
X015541Y015321D01*
X015534Y015318D01*
X015526Y015316D01*
X015517Y015314D01*
X015506Y015313D01*
X015506D01*
X015504D01*
X015502D01*
X0155Y015314D01*
X015496Y015314D01*
X015492Y015315D01*
X015488Y015316D01*
X015483Y015317D01*
X015472Y01532D01*
X015467Y015323D01*
X015461Y015326D01*
X015456Y015329D01*
X01545Y015333D01*
X015444Y015338D01*
X015439Y015343D01*
X015439Y015343D01*
X015438Y015344D01*
X015437Y015346D01*
X015435Y015348D01*
X015433Y015351D01*
X01543Y015354D01*
X015428Y015358D01*
X015426Y015363D01*
X015423Y015368D01*
X01542Y015373D01*
X015418Y015379D01*
X015416Y015386D01*
X015414Y015393D01*
X015413Y0154D01*
X015412Y015407D01*
X015412Y015416D01*
Y01542D01*
X015412Y015422D01*
X015413Y015426D01*
X015413Y01543D01*
X015414Y015434D01*
X015415Y015439D01*
X015417Y015449D01*
X015422Y01546D01*
X015424Y015466D01*
X015427Y015471D01*
X015431Y015476D01*
X015435Y015482D01*
X015436Y015482D01*
X015437Y015483D01*
X015438Y015484D01*
X01544Y015486D01*
X015442Y015488D01*
X015445Y01549D01*
X015448Y015493D01*
X015452Y015495D01*
X015456Y015498D01*
X015461Y015501D01*
X015471Y015505D01*
X015483Y015509D01*
X01549Y015511D01*
X015497Y015511D01*
X015502Y015474D01*
D02*
G37*
G36*
X016523Y015647D02*
X016522Y015644D01*
Y01564D01*
X016522Y015631D01*
X016521Y015621D01*
X016519Y01561D01*
X016517Y015601D01*
X016516Y015596D01*
X016515Y015592D01*
Y015592D01*
X016514Y015591D01*
X016513Y015589D01*
X016511Y015585D01*
X016508Y01558D01*
X016504Y015575D01*
X016499Y015569D01*
X016493Y015564D01*
X016486Y015558D01*
X016485D01*
X016485Y015558D01*
X016482Y015556D01*
X016478Y015554D01*
X016472Y015552D01*
X016466Y01555D01*
X016458Y015547D01*
X016449Y015546D01*
X01644Y015546D01*
X01644D01*
X016439D01*
X016437D01*
X016435Y015546D01*
X016432D01*
X016429Y015547D01*
X016421Y015548D01*
X016413Y015551D01*
X016404Y015554D01*
X016394Y01556D01*
X01639Y015563D01*
X016386Y015567D01*
X016385Y015567D01*
X016385Y015568D01*
X016383Y015569D01*
X016382Y015571D01*
X01638Y015573D01*
X016379Y015575D01*
X016376Y015579D01*
X016374Y015582D01*
X016372Y015587D01*
X016369Y015592D01*
X016367Y015597D01*
X016365Y015603D01*
X016363Y015609D01*
X016361Y015616D01*
X016359Y015623D01*
X016358Y015631D01*
X016358Y01563D01*
X016357Y015628D01*
X016355Y015626D01*
X016353Y015622D01*
X016349Y015614D01*
X016345Y01561D01*
X016343Y015607D01*
X016342Y015606D01*
X01634Y015604D01*
X016336Y0156D01*
X016332Y015596D01*
X016326Y015591D01*
X016319Y015586D01*
X016311Y01558D01*
X016303Y015574D01*
X01622Y015522D01*
Y015572D01*
X016283Y015611D01*
X016284D01*
X016285Y015612D01*
X016286Y015613D01*
X016288Y015614D01*
X016293Y015617D01*
X016299Y015621D01*
X016305Y015626D01*
X016312Y015631D01*
X016319Y015636D01*
X016325Y01564D01*
X016325Y015641D01*
X016327Y015642D01*
X01633Y015644D01*
X016333Y015647D01*
X016339Y015654D01*
X016342Y015657D01*
X016345Y015661D01*
X016345Y015661D01*
X016346Y015662D01*
X016347Y015664D01*
X016348Y015666D01*
X016349Y015669D01*
X016351Y015672D01*
X016353Y015679D01*
Y015679D01*
X016353Y01568D01*
Y015682D01*
X016354Y015684D01*
X016354Y015687D01*
Y015691D01*
X016355Y015696D01*
Y015747D01*
X01622D01*
Y015787D01*
X016523D01*
Y015647D01*
D02*
G37*
G36*
X016229Y015503D02*
X016233Y015502D01*
X016237Y015502D01*
X016241Y015501D01*
X016246Y015499D01*
X016247D01*
X016247Y015499D01*
X01625Y015498D01*
X016254Y015496D01*
X016259Y015493D01*
X016265Y01549D01*
X016272Y015485D01*
X016279Y015481D01*
X016286Y015475D01*
X016287D01*
X016287Y015474D01*
X01629Y015471D01*
X016294Y015468D01*
X0163Y015462D01*
X016306Y015455D01*
X016314Y015447D01*
X016323Y015437D01*
X016332Y015426D01*
X016332Y015426D01*
X016334Y015424D01*
X016336Y015421D01*
X016338Y015418D01*
X016342Y015414D01*
X016346Y015409D01*
X01635Y015405D01*
X016355Y015399D01*
X016366Y015388D01*
X016376Y015377D01*
X016381Y015372D01*
X016387Y015367D01*
X016391Y015363D01*
X016396Y015359D01*
X016397D01*
X016397Y015358D01*
X016398Y015357D01*
X0164Y015357D01*
X016405Y015353D01*
X016411Y01535D01*
X016418Y015347D01*
X016425Y015344D01*
X016433Y015342D01*
X016441Y015341D01*
X016442D01*
X016442D01*
X016445Y015342D01*
X016449Y015342D01*
X016454Y015343D01*
X01646Y015345D01*
X016466Y015348D01*
X016472Y015352D01*
X016478Y015357D01*
X016479Y015358D01*
X016481Y01536D01*
X016483Y015364D01*
X016486Y015368D01*
X016489Y015374D01*
X016491Y015381D01*
X016493Y01539D01*
X016494Y015399D01*
Y015402D01*
X016493Y015403D01*
X016493Y015409D01*
X016491Y015415D01*
X01649Y015421D01*
X016487Y015429D01*
X016483Y015436D01*
X016477Y015442D01*
X016477Y015443D01*
X016474Y015445D01*
X016471Y015447D01*
X016466Y01545D01*
X01646Y015453D01*
X016452Y015456D01*
X016443Y015457D01*
X016433Y015458D01*
X016437Y015496D01*
X016437D01*
X016439Y015496D01*
X016441D01*
X016444Y015495D01*
X016447Y015495D01*
X016451Y015494D01*
X016456Y015492D01*
X016461Y015491D01*
X016471Y015488D01*
X016482Y015482D01*
X016487Y015479D01*
X016492Y015475D01*
X016497Y015471D01*
X016501Y015467D01*
X016502Y015467D01*
X016502Y015466D01*
X016504Y015464D01*
X016505Y015462D01*
X016507Y01546D01*
X016508Y015457D01*
X016511Y015453D01*
X016513Y015449D01*
X016515Y015444D01*
X016517Y015439D01*
X016519Y015433D01*
X016521Y015427D01*
X016522Y01542D01*
X016523Y015413D01*
X016524Y015406D01*
X016524Y015398D01*
Y015394D01*
X016524Y015391D01*
X016523Y015387D01*
X016523Y015383D01*
X016522Y015378D01*
X016521Y015373D01*
X016518Y015362D01*
X016514Y01535D01*
X016511Y015345D01*
X016508Y015339D01*
X016504Y015334D01*
X0165Y015329D01*
X016499Y015329D01*
X016499Y015328D01*
X016497Y015327D01*
X016495Y015325D01*
X016493Y015323D01*
X01649Y015321D01*
X016487Y015318D01*
X016483Y015316D01*
X016475Y015312D01*
X016464Y015307D01*
X016459Y015305D01*
X016453Y015305D01*
X016447Y015304D01*
X01644Y015303D01*
X016439D01*
X016437D01*
X016434Y015304D01*
X016429Y015304D01*
X016424Y015305D01*
X016418Y015307D01*
X016411Y015308D01*
X016404Y015311D01*
X016404Y015312D01*
X016401Y015312D01*
X016398Y015314D01*
X016393Y015317D01*
X016388Y01532D01*
X016381Y015325D01*
X016375Y01533D01*
X016367Y015336D01*
X016366Y015337D01*
X016364Y015339D01*
X016362Y015341D01*
X016359Y015343D01*
X016357Y015346D01*
X016353Y01535D01*
X01635Y015353D01*
X016346Y015357D01*
X016342Y015362D01*
X016337Y015367D01*
X016332Y015373D01*
X016326Y015379D01*
X016321Y015386D01*
X016314Y015393D01*
X016314Y015393D01*
X016313Y015394D01*
X016312Y015396D01*
X01631Y015398D01*
X016307Y015401D01*
X016305Y015404D01*
X016299Y015411D01*
X016293Y015418D01*
X016286Y015425D01*
X01628Y015431D01*
X016278Y015434D01*
X016276Y015436D01*
X016276Y015436D01*
X016274Y015438D01*
X016272Y01544D01*
X01627Y015442D01*
X016267Y015444D01*
X016264Y015447D01*
X016256Y015452D01*
Y015303D01*
X01622D01*
Y015503D01*
X016221D01*
X016223D01*
X016225D01*
X016229Y015503D01*
D02*
G37*
G36*
X018933Y015157D02*
X018896D01*
Y015394D01*
X018895Y015393D01*
X018893Y015392D01*
X018891Y015389D01*
X018886Y015386D01*
X018882Y015382D01*
X018875Y015378D01*
X018868Y015373D01*
X018861Y015368D01*
X01886D01*
X01886Y015368D01*
X018857Y015366D01*
X018853Y015364D01*
X018847Y015361D01*
X018841Y015358D01*
X018835Y015355D01*
X018828Y015352D01*
X018822Y015349D01*
Y015385D01*
X018822D01*
X018823Y015386D01*
X018825Y015386D01*
X018827Y015388D01*
X018829Y015389D01*
X018833Y015391D01*
X01884Y015395D01*
X018849Y0154D01*
X018857Y015406D01*
X018867Y015413D01*
X018876Y015421D01*
X018876Y015421D01*
X018877Y015421D01*
X018878Y015423D01*
X01888Y015424D01*
X018884Y015428D01*
X018889Y015434D01*
X018894Y01544D01*
X0189Y015447D01*
X018905Y015454D01*
X018909Y015461D01*
X018933D01*
Y015157D01*
D02*
G37*
G36*
X018648Y015459D02*
X018652D01*
X018661Y015459D01*
X01867Y015458D01*
X018681Y015456D01*
X018691Y015454D01*
X018695Y015453D01*
X018699Y015452D01*
X0187D01*
X0187Y015451D01*
X018703Y01545D01*
X018707Y015448D01*
X018712Y015445D01*
X018717Y015441D01*
X018722Y015436D01*
X018728Y01543D01*
X018733Y015423D01*
Y015422D01*
X018733Y015422D01*
X018735Y015419D01*
X018737Y015415D01*
X018739Y015409D01*
X018742Y015403D01*
X018744Y015395D01*
X018745Y015386D01*
X018746Y015377D01*
Y015377D01*
Y015376D01*
Y015374D01*
X018745Y015372D01*
Y015369D01*
X018745Y015366D01*
X018743Y015359D01*
X01874Y01535D01*
X018737Y015341D01*
X018732Y015331D01*
X018728Y015327D01*
X018725Y015323D01*
X018724Y015322D01*
X018724Y015322D01*
X018722Y01532D01*
X018721Y015319D01*
X018719Y015317D01*
X018716Y015316D01*
X018712Y015313D01*
X018709Y015311D01*
X018705Y015309D01*
X0187Y015307D01*
X018694Y015304D01*
X018689Y015302D01*
X018682Y0153D01*
X018676Y015298D01*
X018668Y015296D01*
X01866Y015295D01*
X018661Y015295D01*
X018663Y015294D01*
X018666Y015292D01*
X018669Y01529D01*
X018677Y015286D01*
X018681Y015282D01*
X018684Y01528D01*
X018685Y015279D01*
X018687Y015277D01*
X018691Y015273D01*
X018695Y015269D01*
X0187Y015263D01*
X018706Y015256D01*
X018712Y015248D01*
X018718Y01524D01*
X01877Y015157D01*
X01872D01*
X01868Y01522D01*
Y015221D01*
X018679Y015222D01*
X018678Y015223D01*
X018677Y015225D01*
X018674Y01523D01*
X01867Y015236D01*
X018665Y015242D01*
X01866Y015249D01*
X018656Y015256D01*
X018651Y015262D01*
X018651Y015262D01*
X018649Y015264D01*
X018647Y015267D01*
X018644Y01527D01*
X018638Y015276D01*
X018634Y015279D01*
X018631Y015282D01*
X01863Y015282D01*
X018629Y015283D01*
X018628Y015284D01*
X018625Y015285D01*
X018622Y015286D01*
X018619Y015288D01*
X018612Y01529D01*
X018612D01*
X018611Y01529D01*
X018609D01*
X018607Y015291D01*
X018604Y015291D01*
X018601D01*
X018596Y015292D01*
X018544D01*
Y015157D01*
X018504D01*
Y01546D01*
X018644D01*
X018648Y015459D01*
D02*
G37*
G36*
X017724Y01223D02*
X017686D01*
Y012467D01*
X017686Y012466D01*
X017684Y012465D01*
X017681Y012462D01*
X017677Y012459D01*
X017672Y012455D01*
X017666Y012451D01*
X017659Y012446D01*
X017651Y012441D01*
X017651D01*
X01765Y012441D01*
X017648Y012439D01*
X017643Y012437D01*
X017638Y012434D01*
X017632Y012431D01*
X017625Y012428D01*
X017619Y012425D01*
X017612Y012422D01*
Y012458D01*
X017613D01*
X017613Y012459D01*
X017615Y012459D01*
X017617Y012461D01*
X01762Y012462D01*
X017623Y012464D01*
X017631Y012468D01*
X017639Y012473D01*
X017648Y012479D01*
X017657Y012486D01*
X017666Y012493D01*
X017667Y012494D01*
X017667Y012494D01*
X017669Y012496D01*
X01767Y012497D01*
X017674Y012501D01*
X017679Y012507D01*
X017685Y012513D01*
X01769Y01252D01*
X017695Y012527D01*
X0177Y012534D01*
X017724D01*
Y01223D01*
D02*
G37*
G36*
X017402Y012266D02*
X017551D01*
Y01223D01*
X017362D01*
Y012533D01*
X017402D01*
Y012266D01*
D02*
G37*
G36*
X016326Y010394D02*
X016289D01*
Y01063D01*
X016288Y01063D01*
X016286Y010628D01*
X016284Y010625D01*
X016279Y010622D01*
X016274Y010618D01*
X016268Y010614D01*
X016261Y010609D01*
X016253Y010604D01*
X016253D01*
X016253Y010604D01*
X01625Y010602D01*
X016246Y0106D01*
X01624Y010597D01*
X016234Y010594D01*
X016228Y010591D01*
X016221Y010588D01*
X016215Y010586D01*
Y010621D01*
X016215D01*
X016216Y010622D01*
X016218Y010623D01*
X01622Y010624D01*
X016222Y010625D01*
X016225Y010627D01*
X016233Y010631D01*
X016242Y010636D01*
X01625Y010642D01*
X01626Y010649D01*
X016269Y010657D01*
X016269Y010657D01*
X01627Y010658D01*
X016271Y010659D01*
X016273Y01066D01*
X016277Y010665D01*
X016282Y01067D01*
X016287Y010676D01*
X016293Y010683D01*
X016298Y01069D01*
X016302Y010697D01*
X016326D01*
Y010394D01*
D02*
G37*
G36*
X016149Y01066D02*
X015985D01*
Y010567D01*
X016127D01*
Y010531D01*
X015985D01*
Y010394D01*
X015945D01*
Y010696D01*
X016149D01*
Y01066D01*
D02*
G37*
G36*
X016615Y01132D02*
X016615Y011312D01*
X016615Y011303D01*
X016614Y011294D01*
X016612Y011286D01*
X016611Y011278D01*
Y011278D01*
X016611Y011277D01*
Y011276D01*
X01661Y011274D01*
X016608Y011269D01*
X016606Y011263D01*
X016603Y011256D01*
X016599Y011248D01*
X016595Y011241D01*
X016589Y011234D01*
X016589Y011234D01*
X016588Y011233D01*
X016587Y011232D01*
X016586Y01123D01*
X016581Y011226D01*
X016575Y011221D01*
X016568Y011215D01*
X016559Y011209D01*
X016549Y011203D01*
X016538Y011198D01*
X016537D01*
X016536Y011198D01*
X016535Y011197D01*
X016532Y011196D01*
X016529Y011195D01*
X016525Y011194D01*
X016521Y011193D01*
X016517Y011192D01*
X016512Y011191D01*
X016506Y01119D01*
X016494Y011188D01*
X01648Y011186D01*
X016466Y011186D01*
X016465D01*
X016464D01*
X016462D01*
X01646D01*
X016457Y011186D01*
X016453D01*
X016445Y011187D01*
X016435Y011188D01*
X016425Y011189D01*
X016415Y011192D01*
X016404Y011194D01*
X016404D01*
X016403Y011195D01*
X016402Y011195D01*
X0164Y011196D01*
X016395Y011197D01*
X016389Y0112D01*
X016382Y011203D01*
X016375Y011206D01*
X016368Y01121D01*
X016361Y011215D01*
X01636Y011215D01*
X016358Y011217D01*
X016355Y01122D01*
X016351Y011223D01*
X016346Y011227D01*
X016342Y011232D01*
X016337Y011237D01*
X016333Y011242D01*
X016333Y011243D01*
X016331Y011245D01*
X01633Y011248D01*
X016327Y011252D01*
X016325Y011258D01*
X016323Y011264D01*
X01632Y011271D01*
X016318Y011279D01*
Y011279D01*
X016317Y011281D01*
X016317Y011282D01*
X016316Y011286D01*
X016316Y011293D01*
X016315Y0113D01*
X016314Y011308D01*
X016313Y011317D01*
X016313Y011327D01*
Y011436D01*
X016615D01*
Y01132D01*
D02*
G37*
G36*
X016321Y011151D02*
X016325Y011151D01*
X01633Y01115D01*
X016334Y011149D01*
X016339Y011147D01*
X016339D01*
X01634Y011147D01*
X016342Y011146D01*
X016346Y011144D01*
X016351Y011141D01*
X016358Y011138D01*
X016365Y011134D01*
X016372Y011129D01*
X016379Y011123D01*
X016379D01*
X01638Y011122D01*
X016382Y01112D01*
X016386Y011116D01*
X016392Y01111D01*
X016399Y011103D01*
X016407Y011095D01*
X016415Y011085D01*
X016424Y011074D01*
X016425Y011074D01*
X016426Y011072D01*
X016428Y011069D01*
X016431Y011066D01*
X016434Y011062D01*
X016438Y011057D01*
X016443Y011053D01*
X016448Y011047D01*
X016458Y011036D01*
X016469Y011025D01*
X016474Y01102D01*
X016479Y011015D01*
X016484Y011011D01*
X016489Y011007D01*
X016489D01*
X01649Y011006D01*
X016491Y011006D01*
X016493Y011005D01*
X016497Y011002D01*
X016503Y010998D01*
X01651Y010995D01*
X016518Y010992D01*
X016526Y01099D01*
X016534Y010989D01*
X016534D01*
X016535D01*
X016537Y01099D01*
X016542Y01099D01*
X016546Y010992D01*
X016552Y010993D01*
X016559Y010996D01*
X016565Y011D01*
X016571Y011006D01*
X016572Y011006D01*
X016573Y011009D01*
X016576Y011012D01*
X016579Y011016D01*
X016581Y011023D01*
X016584Y01103D01*
X016586Y011038D01*
X016586Y011047D01*
Y01105D01*
X016586Y011051D01*
X016585Y011057D01*
X016584Y011063D01*
X016582Y011069D01*
X016579Y011077D01*
X016575Y011084D01*
X01657Y01109D01*
X016569Y011091D01*
X016567Y011093D01*
X016563Y011096D01*
X016558Y011098D01*
X016552Y011101D01*
X016544Y011104D01*
X016535Y011106D01*
X016525Y011106D01*
X016529Y011144D01*
X01653D01*
X016531Y011144D01*
X016533D01*
X016536Y011144D01*
X01654Y011143D01*
X016544Y011142D01*
X016549Y011141D01*
X016553Y011139D01*
X016564Y011136D01*
X016574Y01113D01*
X01658Y011127D01*
X016585Y011123D01*
X01659Y01112D01*
X016594Y011115D01*
X016594Y011115D01*
X016595Y011114D01*
X016596Y011113D01*
X016597Y01111D01*
X016599Y011108D01*
X016601Y011105D01*
X016603Y011101D01*
X016605Y011097D01*
X016608Y011092D01*
X01661Y011087D01*
X016611Y011081D01*
X016613Y011075D01*
X016615Y011068D01*
X016616Y011061D01*
X016616Y011054D01*
X016617Y011046D01*
Y011042D01*
X016616Y011039D01*
X016616Y011035D01*
X016615Y011031D01*
X016615Y011026D01*
X016614Y011021D01*
X016611Y01101D01*
X016606Y010999D01*
X016604Y010993D01*
X016601Y010987D01*
X016597Y010982D01*
X016592Y010977D01*
X016592Y010977D01*
X016591Y010976D01*
X01659Y010975D01*
X016588Y010973D01*
X016586Y010971D01*
X016583Y010969D01*
X01658Y010967D01*
X016576Y010964D01*
X016567Y01096D01*
X016557Y010955D01*
X016552Y010954D01*
X016545Y010953D01*
X016539Y010952D01*
X016533Y010951D01*
X016532D01*
X01653D01*
X016526Y010952D01*
X016521Y010952D01*
X016516Y010953D01*
X01651Y010955D01*
X016504Y010957D01*
X016497Y010959D01*
X016496Y01096D01*
X016494Y01096D01*
X01649Y010962D01*
X016486Y010965D01*
X01648Y010968D01*
X016474Y010973D01*
X016467Y010978D01*
X01646Y010984D01*
X016459Y010985D01*
X016456Y010987D01*
X016454Y010989D01*
X016452Y010992D01*
X016449Y010994D01*
X016446Y010998D01*
X016442Y011001D01*
X016438Y011006D01*
X016434Y01101D01*
X016429Y011015D01*
X016424Y011021D01*
X016419Y011027D01*
X016413Y011034D01*
X016407Y011041D01*
X016407Y011041D01*
X016406Y011042D01*
X016404Y011044D01*
X016403Y011046D01*
X0164Y011049D01*
X016397Y011052D01*
X016392Y011059D01*
X016385Y011066D01*
X016379Y011073D01*
X016373Y011079D01*
X016371Y011082D01*
X016368Y011084D01*
X016368Y011085D01*
X016367Y011086D01*
X016365Y011088D01*
X016362Y01109D01*
X016359Y011092D01*
X016356Y011095D01*
X016349Y0111D01*
Y010951D01*
X016313D01*
Y011151D01*
X016313D01*
X016315D01*
X016318D01*
X016321Y011151D01*
D02*
G37*
G36*
X019453Y014527D02*
X019457D01*
X019461Y014527D01*
X019467Y014526D01*
X019473Y014525D01*
X019485Y014523D01*
X019499Y01452D01*
X019513Y014516D01*
X019527Y01451D01*
X019527Y014509D01*
X019529Y014509D01*
X01953Y014508D01*
X019533Y014506D01*
X019536Y014504D01*
X019539Y014502D01*
X019547Y014497D01*
X019556Y014489D01*
X019564Y01448D01*
X019573Y01447D01*
X019581Y014459D01*
X019581Y014458D01*
X019582Y014457D01*
X019582Y014455D01*
X019584Y014453D01*
X019585Y014449D01*
X019586Y014446D01*
X019588Y014441D01*
X01959Y014437D01*
X019592Y014431D01*
X019593Y014426D01*
X019596Y014413D01*
X019598Y0144D01*
X019599Y014385D01*
Y014381D01*
X019599Y014378D01*
X019598Y014374D01*
X019598Y014369D01*
X019597Y014364D01*
X019596Y014358D01*
X019593Y014347D01*
X019589Y014334D01*
X019587Y014327D01*
X019584Y014321D01*
X01958Y014315D01*
X019576Y014309D01*
X019575Y014308D01*
X019575Y014307D01*
X019574Y014306D01*
X019571Y014303D01*
X019569Y014301D01*
X019566Y014298D01*
X019563Y014295D01*
X019559Y014292D01*
X019555Y014288D01*
X01955Y014285D01*
X019544Y014281D01*
X019539Y014277D01*
X019532Y014274D01*
X019526Y014271D01*
X019519Y014268D01*
X019511Y014265D01*
X019502Y014305D01*
X019502D01*
X019503Y014305D01*
X019505Y014306D01*
X019507Y014307D01*
X019509Y014308D01*
X019513Y014309D01*
X01952Y014313D01*
X019528Y014317D01*
X019536Y014322D01*
X019543Y014329D01*
X01955Y014336D01*
X01955Y014337D01*
X019552Y014339D01*
X019554Y014344D01*
X019557Y014349D01*
X01956Y014357D01*
X019563Y014365D01*
X019564Y014375D01*
X019565Y014386D01*
Y014389D01*
X019564Y014392D01*
Y014395D01*
X019564Y014398D01*
X019563Y014407D01*
X019561Y014416D01*
X019558Y014425D01*
X019554Y014435D01*
X019548Y014445D01*
Y014445D01*
X019547Y014445D01*
X019545Y014448D01*
X019541Y014452D01*
X019536Y014457D01*
X01953Y014463D01*
X019522Y014468D01*
X019513Y014473D01*
X019503Y014477D01*
X019502D01*
X019502Y014478D01*
X0195Y014478D01*
X019498Y014479D01*
X019495Y014479D01*
X019492Y01448D01*
X019485Y014482D01*
X019476Y014483D01*
X019467Y014485D01*
X019456Y014486D01*
X019445Y014486D01*
X019444D01*
X019443D01*
X019441D01*
X019438D01*
X019435Y014486D01*
X019431D01*
X019427Y014486D01*
X019422Y014485D01*
X019412Y014484D01*
X0194Y014482D01*
X019389Y014479D01*
X019377Y014476D01*
X019377D01*
X019376Y014475D01*
X019375Y014474D01*
X019373Y014473D01*
X019367Y014471D01*
X019361Y014467D01*
X019354Y014462D01*
X019347Y014456D01*
X01934Y014449D01*
X019334Y014441D01*
Y01444D01*
X019334Y014439D01*
X019333Y014438D01*
X019332Y014436D01*
X019331Y014434D01*
X01933Y014431D01*
X019327Y014425D01*
X019325Y014417D01*
X019322Y014409D01*
X019321Y014399D01*
X01932Y014389D01*
Y014386D01*
X019321Y014383D01*
Y01438D01*
X019321Y014377D01*
X019323Y014369D01*
X019325Y01436D01*
X019328Y014351D01*
X019333Y014341D01*
X019336Y014337D01*
X019339Y014332D01*
X01934Y014332D01*
X01934Y014331D01*
X019342Y01433D01*
X019343Y014328D01*
X019345Y014327D01*
X019348Y014324D01*
X01935Y014322D01*
X019354Y01432D01*
X019358Y014317D01*
X019362Y014314D01*
X019367Y014311D01*
X019372Y014309D01*
X019377Y014306D01*
X019384Y014304D01*
X01939Y014302D01*
X019397Y0143D01*
X019387Y01426D01*
X019387D01*
X019385Y014261D01*
X019382Y014261D01*
X019379Y014263D01*
X019375Y014264D01*
X01937Y014266D01*
X019365Y014268D01*
X019359Y014271D01*
X019347Y014277D01*
X019335Y014285D01*
X019328Y014289D01*
X019322Y014294D01*
X019317Y014299D01*
X019312Y014306D01*
X019311Y014306D01*
X019311Y014307D01*
X01931Y014309D01*
X019308Y014311D01*
X019306Y014315D01*
X019304Y014318D01*
X019301Y014323D01*
X019299Y014328D01*
X019297Y014334D01*
X019294Y01434D01*
X019292Y014346D01*
X01929Y014353D01*
X019288Y014361D01*
X019287Y014368D01*
X019287Y014377D01*
X019286Y014386D01*
Y01439D01*
X019287Y014394D01*
Y014398D01*
X019287Y014403D01*
X019288Y014408D01*
X019289Y014414D01*
X019291Y014427D01*
X019294Y01444D01*
X019299Y014453D01*
X019302Y014459D01*
X019306Y014465D01*
X019306Y014466D01*
X019307Y014466D01*
X019308Y014468D01*
X01931Y01447D01*
X019311Y014473D01*
X019314Y014476D01*
X019317Y014479D01*
X019321Y014483D01*
X019325Y014486D01*
X019328Y01449D01*
X019339Y014498D01*
X01935Y014505D01*
X019363Y014512D01*
X019364D01*
X019365Y014513D01*
X019367Y014513D01*
X01937Y014514D01*
X019374Y014515D01*
X019378Y014517D01*
X019383Y014518D01*
X019388Y01452D01*
X019394Y014521D01*
X0194Y014523D01*
X019414Y014525D01*
X019429Y014527D01*
X019445Y014528D01*
X019445D01*
X019447D01*
X01945D01*
X019453Y014527D01*
D02*
G37*
G36*
X019441Y014227D02*
X019447D01*
X019454Y014227D01*
X019462Y014226D01*
X019471Y014225D01*
X019481Y014224D01*
X019491Y014222D01*
X019502Y01422D01*
X019513Y014217D01*
X019523Y014214D01*
X019533Y01421D01*
X019543Y014206D01*
X019552Y014201D01*
X01956Y014195D01*
X019561Y014195D01*
X019561Y014194D01*
X019563Y014192D01*
X019566Y01419D01*
X019568Y014188D01*
X019571Y014184D01*
X019575Y01418D01*
X019578Y014175D01*
X019581Y01417D01*
X019584Y014164D01*
X019587Y014158D01*
X01959Y014151D01*
X019592Y014144D01*
X019594Y014136D01*
X019595Y014128D01*
X019595Y014119D01*
Y014115D01*
X019595Y014113D01*
Y01411D01*
X019594Y014106D01*
X019592Y014098D01*
X01959Y014089D01*
X019587Y014079D01*
X019582Y01407D01*
X019578Y014065D01*
X019575Y01406D01*
X019575Y01406D01*
X019574Y01406D01*
X019573Y014058D01*
X019571Y014057D01*
X019569Y014055D01*
X019567Y014053D01*
X019561Y014048D01*
X019553Y014043D01*
X019543Y014039D01*
X019532Y014035D01*
X01952Y014032D01*
X019517Y01407D01*
X019517D01*
X019518Y01407D01*
X01952Y01407D01*
X019524Y014072D01*
X019529Y014074D01*
X019534Y014075D01*
X01954Y014078D01*
X019544Y014081D01*
X019548Y014084D01*
X019549Y014085D01*
X019551Y014087D01*
X019554Y01409D01*
X019557Y014094D01*
X019559Y0141D01*
X019562Y014106D01*
X019564Y014113D01*
X019564Y014121D01*
Y014124D01*
X019564Y014128D01*
X019563Y014132D01*
X019562Y014137D01*
X01956Y014142D01*
X019558Y014147D01*
X019554Y014153D01*
X019554Y014153D01*
X019552Y014156D01*
X019549Y014159D01*
X019545Y014163D01*
X01954Y014167D01*
X019533Y014172D01*
X019526Y014176D01*
X019517Y014181D01*
X019516D01*
X019516Y014181D01*
X019514Y014181D01*
X019512Y014182D01*
X01951Y014183D01*
X019507Y014184D01*
X019503Y014185D01*
X019499Y014185D01*
X019494Y014187D01*
X019489Y014188D01*
X019483Y014188D01*
X019477Y014189D01*
X01947Y01419D01*
X019463Y01419D01*
X019455Y014191D01*
X019447D01*
X019448Y01419D01*
X01945Y014188D01*
X019454Y014185D01*
X019458Y014181D01*
X019464Y014177D01*
X019468Y014171D01*
X019473Y014165D01*
X019477Y014158D01*
Y014158D01*
X019478Y014157D01*
X019479Y014155D01*
X019481Y014151D01*
X019483Y014146D01*
X019484Y014139D01*
X019486Y014133D01*
X019487Y014125D01*
X019488Y014117D01*
Y014114D01*
X019487Y014111D01*
X019487Y014108D01*
X019486Y014104D01*
X019485Y0141D01*
X019484Y014095D01*
X019481Y014085D01*
X019479Y01408D01*
X019476Y014075D01*
X019473Y01407D01*
X019469Y014064D01*
X019465Y014059D01*
X01946Y014054D01*
X01946Y014053D01*
X019459Y014053D01*
X019457Y014051D01*
X019455Y01405D01*
X019452Y014048D01*
X019449Y014046D01*
X019445Y014043D01*
X019441Y014041D01*
X019436Y014038D01*
X019431Y014036D01*
X019425Y014034D01*
X019419Y014032D01*
X019412Y01403D01*
X019405Y014029D01*
X019397Y014028D01*
X019389Y014028D01*
X019389D01*
X019388D01*
X019387D01*
X019384D01*
X019382Y014028D01*
X019379D01*
X019372Y014029D01*
X019364Y014031D01*
X019355Y014033D01*
X019346Y014036D01*
X019336Y01404D01*
X019336D01*
X019335Y014041D01*
X019334Y014042D01*
X019332Y014042D01*
X019328Y014045D01*
X019322Y014049D01*
X019316Y014054D01*
X01931Y01406D01*
X019304Y014067D01*
X019299Y014074D01*
Y014074D01*
X019298Y014075D01*
X019297Y014076D01*
X019297Y014078D01*
X019295Y014082D01*
X019293Y014088D01*
X01929Y014095D01*
X019288Y014104D01*
X019287Y014113D01*
X019286Y014123D01*
Y014125D01*
X019287Y014127D01*
Y014131D01*
X019287Y014135D01*
X019288Y014139D01*
X019289Y014144D01*
X01929Y01415D01*
X019292Y014156D01*
X019294Y014162D01*
X019297Y014168D01*
X019301Y014174D01*
X019304Y014181D01*
X019309Y014187D01*
X019314Y014193D01*
X01932Y014198D01*
X019321Y014199D01*
X019322Y0142D01*
X019324Y014201D01*
X019327Y014203D01*
X019331Y014205D01*
X019335Y014208D01*
X019341Y01421D01*
X019347Y014213D01*
X019354Y014216D01*
X019363Y014219D01*
X019372Y014221D01*
X019382Y014223D01*
X019393Y014225D01*
X019405Y014226D01*
X019419Y014227D01*
X019432Y014228D01*
X019433D01*
X019433D01*
X019435D01*
X019436D01*
X019441Y014227D01*
D02*
G37*
G36*
X018654Y016016D02*
X018658Y016015D01*
X018663Y016015D01*
X018667Y016015D01*
X018673Y016013D01*
X018685Y016011D01*
X018698Y016007D01*
X018705Y016004D01*
X018711Y016001D01*
X018717Y015997D01*
X018723Y015993D01*
X018723Y015993D01*
X018724Y015992D01*
X018726Y015991D01*
X018728Y015989D01*
X01873Y015987D01*
X018733Y015984D01*
X018736Y01598D01*
X01874Y015977D01*
X018743Y015972D01*
X018747Y015967D01*
X018751Y015962D01*
X018754Y015956D01*
X018757Y015949D01*
X018761Y015943D01*
X018764Y015936D01*
X018766Y015928D01*
X018727Y015919D01*
Y015919D01*
X018726Y01592D01*
X018726Y015922D01*
X018725Y015924D01*
X018724Y015927D01*
X018722Y01593D01*
X018719Y015937D01*
X018715Y015945D01*
X018709Y015953D01*
X018703Y01596D01*
X018696Y015967D01*
X018695Y015968D01*
X018692Y01597D01*
X018688Y015972D01*
X018682Y015975D01*
X018675Y015977D01*
X018666Y01598D01*
X018656Y015982D01*
X018646Y015982D01*
X018642D01*
X01864Y015982D01*
X018637D01*
X018633Y015981D01*
X018625Y01598D01*
X018616Y015978D01*
X018606Y015975D01*
X018596Y015971D01*
X018587Y015965D01*
X018587D01*
X018586Y015964D01*
X018583Y015962D01*
X018579Y015959D01*
X018574Y015953D01*
X018569Y015947D01*
X018563Y015939D01*
X018559Y01593D01*
X018554Y01592D01*
Y01592D01*
X018554Y015919D01*
X018553Y015918D01*
X018553Y015915D01*
X018552Y015913D01*
X018551Y01591D01*
X01855Y015902D01*
X018548Y015894D01*
X018546Y015884D01*
X018545Y015873D01*
X018545Y015862D01*
Y015862D01*
Y01586D01*
Y015858D01*
Y015855D01*
X018545Y015852D01*
Y015848D01*
X018546Y015844D01*
X018546Y015839D01*
X018548Y015829D01*
X01855Y015817D01*
X018552Y015806D01*
X018556Y015795D01*
Y015794D01*
X018556Y015793D01*
X018557Y015792D01*
X018558Y01579D01*
X018561Y015785D01*
X018565Y015779D01*
X018569Y015772D01*
X018576Y015764D01*
X018583Y015758D01*
X018591Y015751D01*
X018591D01*
X018592Y015751D01*
X018594Y01575D01*
X018595Y015749D01*
X018597Y015748D01*
X0186Y015747D01*
X018606Y015744D01*
X018614Y015742D01*
X018623Y01574D01*
X018632Y015738D01*
X018642Y015738D01*
X018646D01*
X018648Y015738D01*
X018651D01*
X018654Y015738D01*
X018662Y01574D01*
X018671Y015742D01*
X01868Y015746D01*
X01869Y015751D01*
X018695Y015753D01*
X018699Y015757D01*
X0187Y015757D01*
X0187Y015758D01*
X018701Y015759D01*
X018703Y01576D01*
X018705Y015762D01*
X018707Y015765D01*
X01871Y015768D01*
X018712Y015771D01*
X018715Y015775D01*
X018718Y015779D01*
X01872Y015784D01*
X018723Y015789D01*
X018725Y015795D01*
X018727Y015801D01*
X018729Y015807D01*
X018731Y015814D01*
X018771Y015804D01*
Y015804D01*
X018771Y015802D01*
X01877Y0158D01*
X018769Y015796D01*
X018767Y015792D01*
X018766Y015787D01*
X018764Y015782D01*
X018761Y015776D01*
X018755Y015764D01*
X018747Y015752D01*
X018742Y015746D01*
X018737Y01574D01*
X018732Y015734D01*
X018726Y015729D01*
X018726Y015729D01*
X018725Y015728D01*
X018722Y015727D01*
X01872Y015725D01*
X018717Y015723D01*
X018713Y015721D01*
X018708Y015719D01*
X018704Y015717D01*
X018698Y015714D01*
X018692Y015712D01*
X018685Y01571D01*
X018678Y015707D01*
X018671Y015706D01*
X018663Y015705D01*
X018655Y015704D01*
X018646Y015703D01*
X018641D01*
X018638Y015704D01*
X018634D01*
X018629Y015704D01*
X018624Y015705D01*
X018618Y015706D01*
X018605Y015708D01*
X018592Y015712D01*
X018579Y015717D01*
X018573Y01572D01*
X018566Y015723D01*
X018566Y015724D01*
X018565Y015724D01*
X018563Y015725D01*
X018562Y015727D01*
X018559Y015729D01*
X018556Y015731D01*
X018552Y015734D01*
X018549Y015738D01*
X018545Y015742D01*
X018542Y015746D01*
X018534Y015756D01*
X018526Y015768D01*
X01852Y015781D01*
Y015781D01*
X018519Y015783D01*
X018518Y015785D01*
X018517Y015787D01*
X018516Y015791D01*
X018515Y015795D01*
X018513Y0158D01*
X018512Y015805D01*
X01851Y015811D01*
X018509Y015817D01*
X018507Y015831D01*
X018505Y015846D01*
X018504Y015862D01*
Y015862D01*
Y015864D01*
Y015867D01*
X018504Y01587D01*
Y015874D01*
X018505Y015879D01*
X018505Y015884D01*
X018506Y01589D01*
X018508Y015903D01*
X018511Y015917D01*
X018516Y015931D01*
X018522Y015944D01*
X018522Y015945D01*
X018523Y015946D01*
X018524Y015948D01*
X018525Y01595D01*
X018527Y015953D01*
X018529Y015956D01*
X018535Y015964D01*
X018542Y015973D01*
X018551Y015982D01*
X018561Y015991D01*
X018573Y015998D01*
X018573Y015998D01*
X018575Y015999D01*
X018576Y016D01*
X018579Y016001D01*
X018582Y016002D01*
X018586Y016004D01*
X01859Y016005D01*
X018595Y016007D01*
X0186Y016009D01*
X018606Y016011D01*
X018618Y016013D01*
X018632Y016015D01*
X018646Y016016D01*
X018651D01*
X018654Y016016D01*
D02*
G37*
G36*
X018992Y015972D02*
X018871D01*
X018854Y01589D01*
X018855Y01589D01*
X018856Y015891D01*
X018857Y015892D01*
X018859Y015893D01*
X018862Y015894D01*
X018865Y015896D01*
X018872Y0159D01*
X018881Y015903D01*
X01889Y015906D01*
X018901Y015908D01*
X018906Y015909D01*
X018916D01*
X018918Y015909D01*
X018922Y015908D01*
X018926Y015908D01*
X01893Y015907D01*
X018935Y015906D01*
X018945Y015903D01*
X018951Y0159D01*
X018957Y015897D01*
X018962Y015894D01*
X018968Y015891D01*
X018973Y015887D01*
X018979Y015882D01*
X018979Y015881D01*
X01898Y01588D01*
X018981Y015879D01*
X018983Y015877D01*
X018985Y015874D01*
X018987Y015871D01*
X01899Y015867D01*
X018993Y015862D01*
X018995Y015858D01*
X018997Y015852D01*
X019Y015846D01*
X019002Y01584D01*
X019003Y015834D01*
X019005Y015826D01*
X019006Y015819D01*
X019006Y015811D01*
Y01581D01*
Y015809D01*
Y015807D01*
X019006Y015804D01*
X019005Y0158D01*
X019005Y015797D01*
X019004Y015792D01*
X019003Y015787D01*
X019Y015776D01*
X018996Y015764D01*
X018993Y015758D01*
X01899Y015752D01*
X018986Y015746D01*
X018982Y01574D01*
X018982Y01574D01*
X018981Y015738D01*
X018979Y015737D01*
X018977Y015734D01*
X018974Y015732D01*
X01897Y015728D01*
X018966Y015725D01*
X018961Y015722D01*
X018956Y015718D01*
X01895Y015715D01*
X018943Y015712D01*
X018936Y015709D01*
X018929Y015707D01*
X01892Y015705D01*
X018912Y015704D01*
X018902Y015703D01*
X018899D01*
X018895Y015704D01*
X018892Y015704D01*
X018888Y015705D01*
X018883Y015705D01*
X018878Y015706D01*
X018868Y015709D01*
X018857Y015713D01*
X018851Y015716D01*
X018845Y015719D01*
X01884Y015722D01*
X018835Y015726D01*
X018834Y015727D01*
X018833Y015727D01*
X018833Y015729D01*
X018831Y015731D01*
X018829Y015733D01*
X018826Y015735D01*
X018824Y015739D01*
X018822Y015743D01*
X018819Y015747D01*
X018816Y015751D01*
X018812Y015762D01*
X018808Y015774D01*
X018806Y015781D01*
X018805Y015788D01*
X018844Y015791D01*
Y01579D01*
Y01579D01*
X018845Y015788D01*
X018845Y015786D01*
X018847Y015781D01*
X018848Y015775D01*
X018851Y015768D01*
X018854Y015761D01*
X018859Y015754D01*
X018864Y015748D01*
X018865Y015748D01*
X018867Y015746D01*
X01887Y015744D01*
X018875Y015741D01*
X01888Y015738D01*
X018887Y015736D01*
X018894Y015734D01*
X018902Y015734D01*
X018905D01*
X018907Y015734D01*
X018912Y015735D01*
X018918Y015737D01*
X018926Y015739D01*
X018933Y015742D01*
X018941Y015748D01*
X018944Y015751D01*
X018948Y015754D01*
X018948Y015755D01*
X018949Y015755D01*
X01895Y015756D01*
X018951Y015758D01*
X018954Y015762D01*
X018958Y015769D01*
X018961Y015776D01*
X018964Y015785D01*
X018966Y015796D01*
X018967Y015802D01*
Y015808D01*
Y015808D01*
Y015809D01*
Y015811D01*
X018966Y015813D01*
Y015816D01*
X018966Y015819D01*
X018965Y015826D01*
X018962Y015834D01*
X018959Y015842D01*
X018955Y01585D01*
X018949Y015858D01*
Y015858D01*
X018948Y015859D01*
X018946Y015861D01*
X018942Y015864D01*
X018937Y015867D01*
X01893Y01587D01*
X018922Y015873D01*
X018913Y015876D01*
X018907Y015876D01*
X018899D01*
X018895Y015876D01*
X018891Y015876D01*
X018886Y015874D01*
X018881Y015873D01*
X018875Y015871D01*
X018869Y015868D01*
X018869Y015868D01*
X018867Y015867D01*
X018864Y015865D01*
X018861Y015862D01*
X018857Y015859D01*
X018854Y015855D01*
X01885Y015852D01*
X018847Y015847D01*
X018812Y015852D01*
X018841Y016007D01*
X018992D01*
Y015972D01*
D02*
G37*
G36*
X019835Y016055D02*
X019839Y016055D01*
X019844Y016054D01*
X019848Y016054D01*
X019854Y016053D01*
X019866Y01605D01*
X019879Y016046D01*
X019886Y016043D01*
X019892Y01604D01*
X019898Y016036D01*
X019904Y016033D01*
X019904Y016032D01*
X019905Y016032D01*
X019907Y01603D01*
X019909Y016028D01*
X019911Y016026D01*
X019914Y016023D01*
X019918Y016019D01*
X019921Y016016D01*
X019925Y016012D01*
X019928Y016006D01*
X019932Y016001D01*
X019935Y015995D01*
X019938Y015989D01*
X019942Y015982D01*
X019945Y015975D01*
X019947Y015967D01*
X019908Y015958D01*
Y015959D01*
X019907Y01596D01*
X019907Y015961D01*
X019906Y015963D01*
X019905Y015966D01*
X019904Y01597D01*
X0199Y015977D01*
X019896Y015984D01*
X01989Y015992D01*
X019884Y016D01*
X019877Y016006D01*
X019876Y016007D01*
X019873Y016009D01*
X019869Y016011D01*
X019863Y016014D01*
X019856Y016017D01*
X019848Y016019D01*
X019838Y016021D01*
X019827Y016022D01*
X019823D01*
X019821Y016021D01*
X019818D01*
X019814Y016021D01*
X019806Y016019D01*
X019797Y016018D01*
X019787Y016015D01*
X019777Y01601D01*
X019768Y016005D01*
X019768D01*
X019767Y016004D01*
X019764Y016001D01*
X01976Y015998D01*
X019755Y015993D01*
X01975Y015986D01*
X019744Y015979D01*
X01974Y01597D01*
X019735Y01596D01*
Y015959D01*
X019735Y015958D01*
X019734Y015957D01*
X019734Y015955D01*
X019733Y015952D01*
X019732Y015949D01*
X019731Y015942D01*
X019729Y015933D01*
X019727Y015923D01*
X019727Y015913D01*
X019726Y015901D01*
Y015901D01*
Y0159D01*
Y015897D01*
Y015895D01*
X019727Y015892D01*
Y015888D01*
X019727Y015884D01*
X019727Y015879D01*
X019729Y015868D01*
X019731Y015857D01*
X019734Y015845D01*
X019737Y015834D01*
Y015834D01*
X019737Y015833D01*
X019738Y015832D01*
X019739Y015829D01*
X019742Y015824D01*
X019746Y015818D01*
X019751Y015811D01*
X019757Y015804D01*
X019764Y015797D01*
X019772Y015791D01*
X019772D01*
X019773Y01579D01*
X019775Y01579D01*
X019776Y015789D01*
X019779Y015788D01*
X019781Y015786D01*
X019787Y015784D01*
X019795Y015781D01*
X019804Y015779D01*
X019814Y015777D01*
X019824Y015777D01*
X019827D01*
X019829Y015777D01*
X019832D01*
X019835Y015778D01*
X019843Y015779D01*
X019852Y015782D01*
X019862Y015785D01*
X019871Y01579D01*
X019876Y015793D01*
X01988Y015796D01*
X019881Y015797D01*
X019881Y015797D01*
X019883Y015798D01*
X019884Y0158D01*
X019886Y015802D01*
X019888Y015804D01*
X019891Y015807D01*
X019893Y015811D01*
X019896Y015814D01*
X019899Y015819D01*
X019901Y015823D01*
X019904Y015828D01*
X019906Y015834D01*
X019908Y01584D01*
X019911Y015847D01*
X019912Y015854D01*
X019952Y015844D01*
Y015843D01*
X019952Y015842D01*
X019951Y015839D01*
X01995Y015835D01*
X019949Y015832D01*
X019947Y015827D01*
X019945Y015821D01*
X019942Y015816D01*
X019936Y015804D01*
X019928Y015791D01*
X019923Y015785D01*
X019918Y015779D01*
X019913Y015774D01*
X019907Y015769D01*
X019907Y015768D01*
X019906Y015767D01*
X019904Y015766D01*
X019901Y015765D01*
X019898Y015762D01*
X019894Y01576D01*
X01989Y015758D01*
X019885Y015756D01*
X019879Y015753D01*
X019873Y015751D01*
X019866Y015749D01*
X019859Y015747D01*
X019852Y015745D01*
X019844Y015744D01*
X019836Y015743D01*
X019827Y015743D01*
X019822D01*
X019819Y015743D01*
X019815D01*
X01981Y015744D01*
X019805Y015745D01*
X019799Y015745D01*
X019786Y015748D01*
X019773Y015751D01*
X01976Y015756D01*
X019754Y015759D01*
X019748Y015762D01*
X019747Y015763D01*
X019746Y015763D01*
X019744Y015765D01*
X019743Y015766D01*
X01974Y015768D01*
X019737Y015771D01*
X019734Y015774D01*
X01973Y015777D01*
X019727Y015781D01*
X019723Y015785D01*
X019715Y015795D01*
X019707Y015807D01*
X019701Y01582D01*
Y015821D01*
X0197Y015822D01*
X019699Y015824D01*
X019698Y015827D01*
X019697Y01583D01*
X019696Y015835D01*
X019694Y015839D01*
X019693Y015845D01*
X019692Y01585D01*
X01969Y015857D01*
X019688Y01587D01*
X019686Y015886D01*
X019685Y015901D01*
Y015902D01*
Y015904D01*
Y015906D01*
X019685Y015909D01*
Y015914D01*
X019686Y015918D01*
X019686Y015924D01*
X019687Y015929D01*
X019689Y015942D01*
X019692Y015956D01*
X019697Y01597D01*
X019703Y015984D01*
X019703Y015984D01*
X019704Y015985D01*
X019705Y015987D01*
X019706Y015989D01*
X019708Y015992D01*
X01971Y015996D01*
X019716Y016004D01*
X019724Y016012D01*
X019732Y016021D01*
X019742Y01603D01*
X019754Y016037D01*
X019755Y016038D01*
X019756Y016038D01*
X019758Y016039D01*
X01976Y01604D01*
X019763Y016042D01*
X019767Y016043D01*
X019771Y016045D01*
X019776Y016047D01*
X019781Y016048D01*
X019787Y01605D01*
X019799Y016053D01*
X019813Y016055D01*
X019828Y016056D01*
X019832D01*
X019835Y016055D01*
D02*
G37*
G36*
X020143Y015855D02*
X020184D01*
Y015821D01*
X020143D01*
Y015748D01*
X020105D01*
Y015821D01*
X019974D01*
Y015855D01*
X020112Y01605D01*
X020143D01*
Y015855D01*
D02*
G37*
G36*
X015043Y015078D02*
X015048D01*
X015052Y015078D01*
X015058Y015077D01*
X015063Y015077D01*
X015076Y015074D01*
X01509Y015071D01*
X015104Y015067D01*
X015117Y015061D01*
X015118Y01506D01*
X015119Y01506D01*
X015121Y015059D01*
X015123Y015057D01*
X015126Y015056D01*
X01513Y015053D01*
X015138Y015048D01*
X015146Y01504D01*
X015155Y015032D01*
X015164Y015021D01*
X015171Y01501D01*
X015172Y015009D01*
X015172Y015008D01*
X015173Y015006D01*
X015174Y015004D01*
X015176Y015001D01*
X015177Y014997D01*
X015179Y014993D01*
X01518Y014988D01*
X015182Y014983D01*
X015184Y014977D01*
X015186Y014965D01*
X015189Y014951D01*
X01519Y014936D01*
Y014932D01*
X015189Y014929D01*
X015189Y014925D01*
X015188Y01492D01*
X015188Y014915D01*
X015186Y01491D01*
X015184Y014898D01*
X01518Y014885D01*
X015177Y014878D01*
X015174Y014872D01*
X01517Y014866D01*
X015166Y01486D01*
X015166Y014859D01*
X015165Y014858D01*
X015164Y014857D01*
X015162Y014855D01*
X01516Y014852D01*
X015157Y014849D01*
X015153Y014846D01*
X01515Y014843D01*
X015145Y014839D01*
X01514Y014836D01*
X015135Y014832D01*
X015129Y014828D01*
X015123Y014825D01*
X015116Y014822D01*
X015109Y014819D01*
X015101Y014817D01*
X015092Y014856D01*
X015093D01*
X015093Y014856D01*
X015095Y014857D01*
X015097Y014858D01*
X0151Y014859D01*
X015103Y01486D01*
X01511Y014864D01*
X015118Y014868D01*
X015126Y014873D01*
X015134Y01488D01*
X01514Y014887D01*
X015141Y014888D01*
X015143Y01489D01*
X015145Y014895D01*
X015148Y0149D01*
X015151Y014908D01*
X015153Y014916D01*
X015155Y014926D01*
X015155Y014937D01*
Y014941D01*
X015155Y014943D01*
Y014946D01*
X015155Y014949D01*
X015153Y014958D01*
X015152Y014967D01*
X015148Y014976D01*
X015144Y014987D01*
X015138Y014996D01*
Y014996D01*
X015138Y014997D01*
X015135Y015D01*
X015132Y015004D01*
X015127Y015008D01*
X01512Y015014D01*
X015113Y015019D01*
X015103Y015024D01*
X015093Y015028D01*
X015093D01*
X015092Y015029D01*
X015091Y015029D01*
X015089Y01503D01*
X015086Y015031D01*
X015083Y015032D01*
X015075Y015033D01*
X015067Y015035D01*
X015057Y015036D01*
X015047Y015037D01*
X015035Y015038D01*
X015035D01*
X015034D01*
X015031D01*
X015029D01*
X015026Y015037D01*
X015022D01*
X015017Y015037D01*
X015013Y015036D01*
X015002Y015035D01*
X014991Y015033D01*
X014979Y01503D01*
X014968Y015027D01*
X014968D01*
X014967Y015026D01*
X014965Y015025D01*
X014963Y015025D01*
X014958Y015022D01*
X014952Y015018D01*
X014945Y015013D01*
X014937Y015007D01*
X014931Y015D01*
X014925Y014992D01*
Y014991D01*
X014924Y01499D01*
X014923Y014989D01*
X014923Y014987D01*
X014922Y014985D01*
X01492Y014983D01*
X014918Y014976D01*
X014915Y014969D01*
X014913Y01496D01*
X014911Y01495D01*
X014911Y01494D01*
Y014937D01*
X014911Y014935D01*
Y014931D01*
X014912Y014928D01*
X014913Y014921D01*
X014916Y014911D01*
X014919Y014902D01*
X014924Y014893D01*
X014926Y014888D01*
X01493Y014883D01*
X01493Y014883D01*
X014931Y014883D01*
X014932Y014881D01*
X014933Y014879D01*
X014936Y014878D01*
X014938Y014876D01*
X014941Y014873D01*
X014944Y014871D01*
X014948Y014868D01*
X014953Y014865D01*
X014957Y014862D01*
X014962Y01486D01*
X014968Y014858D01*
X014974Y014855D01*
X014981Y014853D01*
X014988Y014851D01*
X014978Y014811D01*
X014977D01*
X014975Y014812D01*
X014973Y014813D01*
X014969Y014814D01*
X014965Y014815D01*
X014961Y014817D01*
X014955Y014819D01*
X01495Y014822D01*
X014937Y014828D01*
X014925Y014836D01*
X014919Y014841D01*
X014913Y014845D01*
X014908Y014851D01*
X014902Y014857D01*
X014902Y014857D01*
X014901Y014858D01*
X0149Y01486D01*
X014899Y014862D01*
X014896Y014866D01*
X014894Y014869D01*
X014892Y014874D01*
X01489Y014879D01*
X014887Y014885D01*
X014885Y014891D01*
X014883Y014897D01*
X014881Y014904D01*
X014879Y014912D01*
X014878Y01492D01*
X014877Y014928D01*
X014877Y014937D01*
Y014942D01*
X014877Y014945D01*
Y014949D01*
X014878Y014954D01*
X014878Y014959D01*
X014879Y014965D01*
X014881Y014978D01*
X014885Y014991D01*
X01489Y015004D01*
X014893Y01501D01*
X014896Y015016D01*
X014897Y015017D01*
X014897Y015018D01*
X014899Y015019D01*
X0149Y015021D01*
X014902Y015024D01*
X014905Y015027D01*
X014908Y01503D01*
X014911Y015034D01*
X014915Y015037D01*
X014919Y015041D01*
X014929Y015049D01*
X014941Y015056D01*
X014954Y015063D01*
X014954D01*
X014956Y015064D01*
X014958Y015064D01*
X014961Y015066D01*
X014964Y015066D01*
X014968Y015068D01*
X014973Y01507D01*
X014978Y015071D01*
X014984Y015072D01*
X014991Y015074D01*
X015004Y015076D01*
X01502Y015078D01*
X015035Y015079D01*
X015036D01*
X015037D01*
X01504D01*
X015043Y015078D01*
D02*
G37*
G36*
X014967Y01474D02*
X014966D01*
X014965Y014739D01*
X014964Y014739D01*
X014961Y014738D01*
X014959Y014738D01*
X014956Y014737D01*
X014949Y014735D01*
X014941Y014732D01*
X014934Y014728D01*
X014927Y014723D01*
X014921Y014718D01*
X01492Y014717D01*
X014919Y014716D01*
X014916Y014712D01*
X014914Y014708D01*
X014912Y014702D01*
X014909Y014696D01*
X014908Y014689D01*
X014907Y014681D01*
Y014678D01*
X014908Y014676D01*
X014908Y014671D01*
X014909Y014665D01*
X014912Y014658D01*
X014915Y014651D01*
X014919Y014643D01*
X014925Y014636D01*
X014926Y014636D01*
X014929Y014633D01*
X014933Y014631D01*
X014938Y014627D01*
X014944Y014624D01*
X014952Y014621D01*
X014961Y014619D01*
X01497Y014618D01*
X014971D01*
X014971D01*
X014973D01*
X014975Y014619D01*
X014979Y014619D01*
X014985Y01462D01*
X014992Y014622D01*
X014999Y014625D01*
X015006Y014629D01*
X015013Y014635D01*
X015013Y014636D01*
X015015Y014638D01*
X015018Y014642D01*
X015021Y014647D01*
X015024Y014653D01*
X015027Y01466D01*
X015028Y014668D01*
X015029Y014678D01*
Y014682D01*
X015029Y014685D01*
X015028Y014689D01*
X015027Y014693D01*
X015027Y014698D01*
X015025Y014704D01*
X015058Y014699D01*
Y014697D01*
X015058Y014695D01*
Y01469D01*
X015058Y014685D01*
X015059Y014679D01*
X015061Y014673D01*
X015063Y014665D01*
X015066Y014658D01*
X01507Y014651D01*
Y01465D01*
X01507Y01465D01*
X015072Y014648D01*
X015075Y014645D01*
X015079Y014641D01*
X015085Y014638D01*
X015091Y014635D01*
X015099Y014633D01*
X015103Y014632D01*
X015108D01*
X015108D01*
X015109D01*
X015111D01*
X015115Y014633D01*
X01512Y014633D01*
X015125Y014635D01*
X015131Y014637D01*
X015136Y014641D01*
X015141Y014646D01*
X015142Y014646D01*
X015144Y014648D01*
X015146Y014651D01*
X015148Y014655D01*
X015151Y014661D01*
X015153Y014667D01*
X015155Y014674D01*
X015155Y014682D01*
Y014685D01*
X015154Y014689D01*
X015153Y014694D01*
X015152Y0147D01*
X015149Y014706D01*
X015146Y014712D01*
X015141Y014717D01*
X015141Y014718D01*
X015139Y01472D01*
X015136Y014722D01*
X015131Y014725D01*
X015126Y014728D01*
X015119Y014731D01*
X01511Y014734D01*
X015101Y014736D01*
X015107Y014773D01*
X015108D01*
X015109Y014772D01*
X015111Y014772D01*
X015114Y014772D01*
X015117Y014771D01*
X01512Y014769D01*
X015128Y014767D01*
X015138Y014762D01*
X015148Y014757D01*
X015157Y014751D01*
X015165Y014742D01*
X015165Y014742D01*
X015166Y014741D01*
X015167Y01474D01*
X015168Y014738D01*
X01517Y014736D01*
X015172Y014733D01*
X015173Y01473D01*
X015176Y014726D01*
X015179Y014717D01*
X015183Y014707D01*
X015185Y014695D01*
X015186Y014689D01*
Y014678D01*
X015185Y014673D01*
X015184Y014668D01*
X015183Y014661D01*
X015181Y014653D01*
X015178Y014645D01*
X015175Y014637D01*
Y014636D01*
X015174Y014636D01*
X015173Y014633D01*
X01517Y014629D01*
X015167Y014625D01*
X015163Y01462D01*
X015158Y014615D01*
X015152Y014609D01*
X015146Y014605D01*
X015145Y014605D01*
X015143Y014603D01*
X015139Y014602D01*
X015134Y014599D01*
X015128Y014597D01*
X015122Y014595D01*
X015114Y014594D01*
X015107Y014594D01*
X015106D01*
X015103D01*
X0151Y014594D01*
X015095Y014595D01*
X015089Y014596D01*
X015083Y014598D01*
X015077Y014601D01*
X015071Y014605D01*
X01507Y014605D01*
X015068Y014606D01*
X015065Y014609D01*
X015062Y014612D01*
X015058Y014617D01*
X015054Y014622D01*
X01505Y014628D01*
X015046Y014636D01*
Y014635D01*
X015045Y014634D01*
X015045Y014633D01*
X015044Y014631D01*
X015043Y014626D01*
X01504Y01462D01*
X015037Y014613D01*
X015032Y014606D01*
X015027Y0146D01*
X01502Y014594D01*
X015019Y014593D01*
X015016Y014591D01*
X015012Y014589D01*
X015006Y014586D01*
X014999Y014584D01*
X014991Y014581D01*
X014982Y014579D01*
X014971Y014579D01*
X014971D01*
X014969D01*
X014967D01*
X014964Y014579D01*
X014961Y01458D01*
X014957Y014581D01*
X014953Y014581D01*
X014948Y014582D01*
X014937Y014586D01*
X014932Y014588D01*
X014926Y014591D01*
X014921Y014595D01*
X014915Y014598D01*
X014909Y014603D01*
X014904Y014608D01*
X014904Y014609D01*
X014903Y014609D01*
X014902Y014611D01*
X0149Y014613D01*
X014898Y014616D01*
X014895Y014619D01*
X014893Y014623D01*
X014891Y014628D01*
X014888Y014633D01*
X014885Y014639D01*
X014883Y014644D01*
X014881Y014651D01*
X014879Y014658D01*
X014878Y014665D01*
X014877Y014673D01*
X014877Y014681D01*
Y014685D01*
X014877Y014688D01*
X014878Y014691D01*
X014878Y014695D01*
X014879Y014699D01*
X01488Y014704D01*
X014882Y014715D01*
X014887Y014726D01*
X014889Y014731D01*
X014892Y014737D01*
X014896Y014742D01*
X0149Y014747D01*
X014901Y014747D01*
X014902Y014748D01*
X014903Y01475D01*
X014905Y014751D01*
X014907Y014753D01*
X01491Y014755D01*
X014913Y014758D01*
X014917Y014761D01*
X014921Y014763D01*
X014926Y014766D01*
X014936Y014771D01*
X014948Y014775D01*
X014955Y014776D01*
X014962Y014777D01*
X014967Y01474D01*
D02*
G37*
G36*
X013468Y012952D02*
X013473D01*
X013477Y012952D01*
X013483Y012951D01*
X013488Y012951D01*
X013501Y012948D01*
X013515Y012945D01*
X013529Y012941D01*
X013543Y012935D01*
X013543Y012934D01*
X013544Y012934D01*
X013546Y012933D01*
X013548Y012931D01*
X013551Y01293D01*
X013555Y012927D01*
X013563Y012922D01*
X013571Y012914D01*
X01358Y012906D01*
X013589Y012896D01*
X013596Y012884D01*
X013597Y012883D01*
X013597Y012882D01*
X013598Y01288D01*
X013599Y012878D01*
X013601Y012875D01*
X013602Y012871D01*
X013604Y012867D01*
X013606Y012862D01*
X013607Y012857D01*
X013609Y012851D01*
X013612Y012839D01*
X013614Y012825D01*
X013615Y01281D01*
Y012806D01*
X013614Y012803D01*
X013614Y012799D01*
X013613Y012794D01*
X013613Y012789D01*
X013612Y012784D01*
X013609Y012772D01*
X013605Y012759D01*
X013602Y012752D01*
X013599Y012746D01*
X013596Y01274D01*
X013592Y012734D01*
X013591Y012733D01*
X013591Y012733D01*
X013589Y012731D01*
X013587Y012729D01*
X013585Y012726D01*
X013582Y012723D01*
X013578Y01272D01*
X013575Y012717D01*
X013571Y012713D01*
X013565Y01271D01*
X01356Y012706D01*
X013554Y012702D01*
X013548Y012699D01*
X013541Y012696D01*
X013534Y012693D01*
X013526Y012691D01*
X013517Y01273D01*
X013518D01*
X013519Y01273D01*
X01352Y012731D01*
X013523Y012732D01*
X013525Y012733D01*
X013529Y012734D01*
X013536Y012738D01*
X013543Y012742D01*
X013551Y012747D01*
X013559Y012754D01*
X013565Y012761D01*
X013566Y012762D01*
X013568Y012764D01*
X01357Y012769D01*
X013573Y012774D01*
X013576Y012782D01*
X013578Y01279D01*
X01358Y0128D01*
X013581Y012811D01*
Y012815D01*
X01358Y012817D01*
Y01282D01*
X01358Y012823D01*
X013578Y012832D01*
X013577Y012841D01*
X013574Y012851D01*
X013569Y012861D01*
X013564Y01287D01*
Y01287D01*
X013563Y012871D01*
X013561Y012874D01*
X013557Y012878D01*
X013552Y012882D01*
X013545Y012888D01*
X013538Y012893D01*
X013529Y012898D01*
X013519Y012902D01*
X013518D01*
X013517Y012903D01*
X013516Y012903D01*
X013514Y012904D01*
X013511Y012905D01*
X013508Y012906D01*
X013501Y012907D01*
X013492Y012909D01*
X013482Y01291D01*
X013472Y012911D01*
X01346Y012912D01*
X01346D01*
X013459D01*
X013457D01*
X013454D01*
X013451Y012911D01*
X013447D01*
X013443Y012911D01*
X013438Y01291D01*
X013427Y012909D01*
X013416Y012907D01*
X013405Y012904D01*
X013393Y012901D01*
X013393D01*
X013392Y0129D01*
X013391Y012899D01*
X013388Y012899D01*
X013383Y012896D01*
X013377Y012892D01*
X01337Y012887D01*
X013363Y012881D01*
X013356Y012874D01*
X01335Y012866D01*
Y012865D01*
X013349Y012864D01*
X013349Y012863D01*
X013348Y012861D01*
X013347Y012859D01*
X013346Y012857D01*
X013343Y012851D01*
X01334Y012843D01*
X013338Y012834D01*
X013336Y012824D01*
X013336Y012814D01*
Y012811D01*
X013336Y012809D01*
Y012805D01*
X013337Y012802D01*
X013339Y012795D01*
X013341Y012785D01*
X013344Y012776D01*
X013349Y012767D01*
X013352Y012762D01*
X013355Y012757D01*
X013356Y012757D01*
X013356Y012757D01*
X013357Y012755D01*
X013359Y012753D01*
X013361Y012752D01*
X013363Y01275D01*
X013366Y012747D01*
X01337Y012745D01*
X013374Y012742D01*
X013378Y012739D01*
X013382Y012736D01*
X013387Y012734D01*
X013393Y012732D01*
X013399Y012729D01*
X013406Y012727D01*
X013413Y012726D01*
X013403Y012685D01*
X013402D01*
X013401Y012686D01*
X013398Y012687D01*
X013394Y012688D01*
X013391Y012689D01*
X013386Y012691D01*
X013381Y012693D01*
X013375Y012696D01*
X013363Y012702D01*
X01335Y01271D01*
X013344Y012715D01*
X013338Y012719D01*
X013333Y012725D01*
X013328Y012731D01*
X013327Y012731D01*
X013326Y012732D01*
X013325Y012734D01*
X013324Y012736D01*
X013322Y01274D01*
X013319Y012743D01*
X013317Y012748D01*
X013315Y012753D01*
X013312Y012759D01*
X01331Y012765D01*
X013308Y012771D01*
X013306Y012778D01*
X013304Y012786D01*
X013303Y012794D01*
X013302Y012802D01*
X013302Y012811D01*
Y012816D01*
X013302Y012819D01*
Y012823D01*
X013303Y012828D01*
X013304Y012833D01*
X013304Y012839D01*
X013307Y012852D01*
X01331Y012865D01*
X013315Y012878D01*
X013318Y012884D01*
X013322Y01289D01*
X013322Y012891D01*
X013322Y012892D01*
X013324Y012893D01*
X013325Y012895D01*
X013327Y012898D01*
X01333Y012901D01*
X013333Y012904D01*
X013336Y012908D01*
X01334Y012911D01*
X013344Y012915D01*
X013354Y012923D01*
X013366Y01293D01*
X013379Y012937D01*
X01338D01*
X013381Y012938D01*
X013383Y012938D01*
X013386Y01294D01*
X013389Y012941D01*
X013394Y012942D01*
X013398Y012944D01*
X013404Y012945D01*
X013409Y012946D01*
X013416Y012948D01*
X013429Y01295D01*
X013445Y012952D01*
X01346Y012953D01*
X013461D01*
X013463D01*
X013465D01*
X013468Y012952D01*
D02*
G37*
G36*
X013315Y012656D02*
X013319Y012656D01*
X013324Y012655D01*
X013328Y012654D01*
X013333Y012652D01*
X013333D01*
X013334Y012652D01*
X013336Y012651D01*
X01334Y012649D01*
X013346Y012646D01*
X013352Y012643D01*
X013359Y012639D01*
X013366Y012634D01*
X013373Y012628D01*
X013374D01*
X013374Y012627D01*
X013377Y012625D01*
X013381Y012621D01*
X013386Y012615D01*
X013393Y012608D01*
X013401Y0126D01*
X013409Y01259D01*
X013419Y012579D01*
X013419Y012579D01*
X01342Y012577D01*
X013422Y012574D01*
X013425Y012571D01*
X013429Y012567D01*
X013433Y012563D01*
X013437Y012558D01*
X013442Y012552D01*
X013452Y012541D01*
X013463Y01253D01*
X013468Y012525D01*
X013473Y01252D01*
X013478Y012516D01*
X013483Y012512D01*
X013483D01*
X013484Y012511D01*
X013485Y012511D01*
X013487Y01251D01*
X013491Y012507D01*
X013497Y012503D01*
X013504Y0125D01*
X013512Y012497D01*
X01352Y012495D01*
X013528Y012494D01*
X013528D01*
X013529D01*
X013531Y012495D01*
X013536Y012495D01*
X01354Y012497D01*
X013547Y012498D01*
X013553Y012501D01*
X013559Y012505D01*
X013565Y012511D01*
X013566Y012511D01*
X013568Y012514D01*
X01357Y012517D01*
X013573Y012521D01*
X013575Y012528D01*
X013578Y012535D01*
X01358Y012543D01*
X01358Y012552D01*
Y012555D01*
X01358Y012556D01*
X013579Y012562D01*
X013578Y012568D01*
X013576Y012574D01*
X013573Y012582D01*
X013569Y012589D01*
X013564Y012595D01*
X013563Y012596D01*
X013561Y012598D01*
X013557Y012601D01*
X013552Y012603D01*
X013546Y012606D01*
X013538Y012609D01*
X01353Y012611D01*
X013519Y012611D01*
X013523Y012649D01*
X013524D01*
X013525Y012649D01*
X013527D01*
X01353Y012649D01*
X013534Y012648D01*
X013538Y012647D01*
X013543Y012646D01*
X013547Y012644D01*
X013558Y012641D01*
X013568Y012635D01*
X013574Y012632D01*
X013579Y012629D01*
X013584Y012625D01*
X013588Y01262D01*
X013589Y01262D01*
X013589Y012619D01*
X01359Y012618D01*
X013592Y012615D01*
X013593Y012613D01*
X013595Y01261D01*
X013597Y012606D01*
X013599Y012602D01*
X013602Y012597D01*
X013604Y012592D01*
X013606Y012586D01*
X013607Y01258D01*
X013609Y012573D01*
X01361Y012566D01*
X01361Y012559D01*
X013611Y012551D01*
Y012547D01*
X01361Y012544D01*
X01361Y01254D01*
X013609Y012536D01*
X013609Y012531D01*
X013608Y012526D01*
X013605Y012515D01*
X0136Y012504D01*
X013598Y012498D01*
X013595Y012492D01*
X013591Y012487D01*
X013586Y012482D01*
X013586Y012482D01*
X013585Y012481D01*
X013584Y01248D01*
X013582Y012478D01*
X01358Y012476D01*
X013577Y012474D01*
X013574Y012472D01*
X01357Y012469D01*
X013561Y012465D01*
X013551Y01246D01*
X013546Y012459D01*
X01354Y012458D01*
X013533Y012457D01*
X013527Y012456D01*
X013526D01*
X013524D01*
X01352Y012457D01*
X013516Y012457D01*
X01351Y012458D01*
X013504Y01246D01*
X013498Y012462D01*
X013491Y012464D01*
X01349Y012465D01*
X013488Y012465D01*
X013485Y012467D01*
X01348Y01247D01*
X013474Y012473D01*
X013468Y012478D01*
X013461Y012483D01*
X013454Y012489D01*
X013453Y01249D01*
X01345Y012492D01*
X013448Y012494D01*
X013446Y012497D01*
X013443Y012499D01*
X01344Y012503D01*
X013436Y012506D01*
X013433Y012511D01*
X013428Y012515D01*
X013423Y01252D01*
X013419Y012526D01*
X013413Y012532D01*
X013407Y012539D01*
X013401Y012546D01*
X013401Y012546D01*
X0134Y012547D01*
X013398Y012549D01*
X013397Y012551D01*
X013394Y012554D01*
X013391Y012557D01*
X013386Y012564D01*
X013379Y012571D01*
X013373Y012578D01*
X013367Y012584D01*
X013365Y012587D01*
X013363Y012589D01*
X013362Y01259D01*
X013361Y012591D01*
X013359Y012593D01*
X013356Y012595D01*
X013353Y012597D01*
X01335Y0126D01*
X013343Y012605D01*
Y012456D01*
X013307D01*
Y012656D01*
X013308D01*
X013309D01*
X013312D01*
X013315Y012656D01*
D02*
G37*
G36*
X015701Y012591D02*
X015705Y01259D01*
X01571Y01259D01*
X015715Y012589D01*
X01572Y012588D01*
X015732Y012585D01*
X015745Y012581D01*
X015752Y012579D01*
X015758Y012576D01*
X015764Y012572D01*
X01577Y012568D01*
X015771Y012568D01*
X015771Y012567D01*
X015773Y012566D01*
X015775Y012564D01*
X015778Y012561D01*
X015781Y012558D01*
X015784Y012555D01*
X015787Y012551D01*
X015791Y012547D01*
X015794Y012542D01*
X015798Y012536D01*
X015802Y012531D01*
X015805Y012524D01*
X015808Y012518D01*
X015811Y012511D01*
X015813Y012503D01*
X015774Y012494D01*
Y012494D01*
X015774Y012495D01*
X015773Y012497D01*
X015772Y012499D01*
X015771Y012502D01*
X01577Y012505D01*
X015766Y012512D01*
X015762Y01252D01*
X015757Y012528D01*
X01575Y012535D01*
X015743Y012542D01*
X015742Y012543D01*
X01574Y012544D01*
X015735Y012547D01*
X015729Y01255D01*
X015722Y012552D01*
X015714Y012555D01*
X015704Y012557D01*
X015693Y012557D01*
X015689D01*
X015687Y012557D01*
X015684D01*
X015681Y012556D01*
X015672Y012555D01*
X015663Y012553D01*
X015653Y01255D01*
X015643Y012546D01*
X015634Y01254D01*
X015634D01*
X015633Y012539D01*
X01563Y012537D01*
X015626Y012533D01*
X015622Y012528D01*
X015616Y012522D01*
X015611Y012514D01*
X015606Y012505D01*
X015601Y012495D01*
Y012495D01*
X015601Y012494D01*
X015601Y012492D01*
X0156Y01249D01*
X015599Y012488D01*
X015598Y012484D01*
X015597Y012477D01*
X015595Y012468D01*
X015594Y012459D01*
X015593Y012448D01*
X015592Y012437D01*
Y012436D01*
Y012435D01*
Y012433D01*
Y01243D01*
X015593Y012427D01*
Y012423D01*
X015593Y012419D01*
X015594Y012414D01*
X015595Y012404D01*
X015597Y012392D01*
X0156Y012381D01*
X015603Y01237D01*
Y012369D01*
X015604Y012368D01*
X015604Y012367D01*
X015605Y012365D01*
X015608Y012359D01*
X015612Y012353D01*
X015617Y012346D01*
X015623Y012339D01*
X01563Y012332D01*
X015638Y012326D01*
X015639D01*
X015639Y012326D01*
X015641Y012325D01*
X015643Y012324D01*
X015645Y012323D01*
X015647Y012322D01*
X015653Y012319D01*
X015661Y012317D01*
X01567Y012314D01*
X01568Y012313D01*
X01569Y012312D01*
X015693D01*
X015695Y012313D01*
X015698D01*
X015702Y012313D01*
X015709Y012315D01*
X015719Y012317D01*
X015728Y012321D01*
X015737Y012325D01*
X015742Y012328D01*
X015747Y012332D01*
X015747Y012332D01*
X015747Y012332D01*
X015749Y012334D01*
X01575Y012335D01*
X015752Y012337D01*
X015754Y01234D01*
X015757Y012342D01*
X015759Y012346D01*
X015762Y01235D01*
X015765Y012354D01*
X015768Y012359D01*
X01577Y012364D01*
X015772Y01237D01*
X015774Y012376D01*
X015777Y012382D01*
X015778Y012389D01*
X015819Y012379D01*
Y012379D01*
X015818Y012377D01*
X015817Y012374D01*
X015816Y012371D01*
X015815Y012367D01*
X015813Y012362D01*
X015811Y012357D01*
X015808Y012351D01*
X015802Y012339D01*
X015794Y012327D01*
X015789Y012321D01*
X015785Y012314D01*
X015779Y012309D01*
X015773Y012304D01*
X015773Y012304D01*
X015772Y012303D01*
X01577Y012302D01*
X015768Y0123D01*
X015764Y012298D01*
X015761Y012296D01*
X015756Y012294D01*
X015751Y012291D01*
X015745Y012289D01*
X015739Y012287D01*
X015733Y012284D01*
X015726Y012282D01*
X015718Y01228D01*
X01571Y01228D01*
X015702Y012279D01*
X015693Y012278D01*
X015688D01*
X015685Y012279D01*
X015681D01*
X015676Y012279D01*
X015671Y01228D01*
X015665Y012281D01*
X015652Y012283D01*
X015639Y012287D01*
X015626Y012291D01*
X01562Y012294D01*
X015614Y012298D01*
X015613Y012298D01*
X015612Y012299D01*
X015611Y0123D01*
X015609Y012302D01*
X015606Y012304D01*
X015603Y012306D01*
X0156Y012309D01*
X015596Y012313D01*
X015593Y012317D01*
X015589Y012321D01*
X015581Y012331D01*
X015573Y012342D01*
X015567Y012356D01*
Y012356D01*
X015566Y012357D01*
X015566Y012359D01*
X015564Y012362D01*
X015563Y012366D01*
X015562Y01237D01*
X01556Y012375D01*
X015559Y01238D01*
X015558Y012386D01*
X015556Y012392D01*
X015554Y012406D01*
X015552Y012421D01*
X015551Y012437D01*
Y012437D01*
Y012439D01*
Y012442D01*
X015552Y012445D01*
Y012449D01*
X015552Y012453D01*
X015552Y012459D01*
X015553Y012465D01*
X015556Y012477D01*
X015559Y012491D01*
X015563Y012505D01*
X015569Y012519D01*
X01557Y012519D01*
X01557Y012521D01*
X015571Y012522D01*
X015573Y012525D01*
X015574Y012528D01*
X015577Y012531D01*
X015582Y012539D01*
X01559Y012548D01*
X015598Y012557D01*
X015608Y012565D01*
X01562Y012573D01*
X015621Y012573D01*
X015622Y012574D01*
X015624Y012575D01*
X015626Y012576D01*
X015629Y012577D01*
X015633Y012578D01*
X015637Y01258D01*
X015642Y012582D01*
X015647Y012584D01*
X015653Y012585D01*
X015665Y012588D01*
X015679Y01259D01*
X015694Y012591D01*
X015698D01*
X015701Y012591D01*
D02*
G37*
G36*
X015993Y012283D02*
X015955D01*
Y01252D01*
X015955Y012519D01*
X015953Y012518D01*
X01595Y012515D01*
X015946Y012512D01*
X015941Y012508D01*
X015935Y012504D01*
X015928Y012499D01*
X01592Y012494D01*
X01592D01*
X015919Y012494D01*
X015917Y012492D01*
X015912Y01249D01*
X015907Y012487D01*
X015901Y012484D01*
X015894Y012481D01*
X015888Y012478D01*
X015881Y012475D01*
Y012511D01*
X015882D01*
X015882Y012512D01*
X015884Y012512D01*
X015886Y012514D01*
X015889Y012515D01*
X015892Y012517D01*
X015899Y012521D01*
X015908Y012526D01*
X015917Y012532D01*
X015926Y012539D01*
X015935Y012547D01*
X015936Y012547D01*
X015936Y012547D01*
X015937Y012549D01*
X015939Y01255D01*
X015943Y012554D01*
X015948Y01256D01*
X015954Y012566D01*
X015959Y012573D01*
X015964Y01258D01*
X015969Y012587D01*
X015993D01*
Y012283D01*
D02*
G37*
%LPC*%
G36*
X012Y011645D02*
X01193D01*
Y011414D01*
X012002D01*
X012005Y011414D01*
X012011Y011415D01*
X012019Y011415D01*
X012027Y011416D01*
X012034Y011417D01*
X012041Y011419D01*
X012042Y011419D01*
X012044Y01142D01*
X012047Y011421D01*
X012051Y011423D01*
X012055Y011426D01*
X01206Y011428D01*
X012064Y011431D01*
X012069Y011435D01*
X012069Y011436D01*
X012071Y011437D01*
X012073Y01144D01*
X012076Y011445D01*
X01208Y011451D01*
X012084Y011457D01*
X012087Y011464D01*
X01209Y011473D01*
Y011473D01*
X012091Y011474D01*
X012091Y011475D01*
X012092Y011477D01*
X012092Y011479D01*
X012093Y011482D01*
X012094Y011485D01*
X012095Y011489D01*
X012096Y011498D01*
X012097Y011508D01*
X012098Y011519D01*
X012099Y011531D01*
Y011532D01*
Y011534D01*
Y011536D01*
X012098Y011539D01*
Y011543D01*
X012098Y011548D01*
X012097Y011553D01*
X012097Y011558D01*
X012095Y01157D01*
X012092Y011582D01*
X012088Y011593D01*
X012086Y011599D01*
X012083Y011604D01*
Y011604D01*
X012082Y011605D01*
X012081Y011607D01*
X01208Y011608D01*
X012077Y011613D01*
X012072Y011618D01*
X012067Y011624D01*
X01206Y011629D01*
X012053Y011634D01*
X012045Y011638D01*
X012044Y011638D01*
X012042Y011639D01*
X012038Y01164D01*
X012032Y011641D01*
X012025Y011642D01*
X012016Y011644D01*
X012011Y011644D01*
X012006D01*
X012Y011645D01*
D02*
G37*
G36*
X014545Y015873D02*
X01445D01*
Y015773D01*
X01454D01*
X014545Y015773D01*
X014551Y015774D01*
X014558Y015774D01*
X014565Y015775D01*
X014572Y015776D01*
X014578Y015778D01*
X014579Y015779D01*
X014581Y015779D01*
X014583Y015781D01*
X014587Y015782D01*
X014591Y015785D01*
X014595Y015788D01*
X014599Y015792D01*
X014602Y015796D01*
X014602Y015797D01*
X014603Y015799D01*
X014604Y015801D01*
X014606Y015805D01*
X014607Y015809D01*
X014609Y015813D01*
X01461Y015818D01*
X01461Y015824D01*
Y015824D01*
Y015824D01*
X01461Y015827D01*
X014609Y015831D01*
X014608Y015836D01*
X014606Y015841D01*
X014603Y015848D01*
X0146Y015853D01*
X014594Y015859D01*
X014593Y015859D01*
X014591Y015861D01*
X014588Y015863D01*
X014582Y015866D01*
X014576Y015869D01*
X014567Y015871D01*
X014557Y015872D01*
X014545Y015873D01*
D02*
G37*
G36*
X013521Y015899D02*
X013426D01*
Y015799D01*
X013516D01*
X013521Y015799D01*
X013527Y015799D01*
X013534Y0158D01*
X013541Y015801D01*
X013548Y015802D01*
X013555Y015804D01*
X013555Y015804D01*
X013557Y015805D01*
X01356Y015806D01*
X013563Y015808D01*
X013567Y015811D01*
X013571Y015814D01*
X013575Y015818D01*
X013578Y015822D01*
X013579Y015823D01*
X013579Y015824D01*
X013581Y015827D01*
X013582Y015831D01*
X013584Y015834D01*
X013585Y015839D01*
X013586Y015844D01*
X013586Y015849D01*
Y01585D01*
Y01585D01*
X013586Y015853D01*
X013586Y015857D01*
X013585Y015862D01*
X013582Y015867D01*
X01358Y015873D01*
X013576Y015879D01*
X013571Y015885D01*
X01357Y015885D01*
X013568Y015887D01*
X013564Y015889D01*
X013558Y015892D01*
X013552Y015894D01*
X013543Y015896D01*
X013533Y015898D01*
X013521Y015899D01*
D02*
G37*
G36*
X014009Y015903D02*
X014006D01*
X014004Y015903D01*
X013999Y015902D01*
X013994Y0159D01*
X013987Y015898D01*
X01398Y015894D01*
X013977Y015891D01*
X013973Y015889D01*
X01397Y015885D01*
X013967Y015881D01*
Y015881D01*
X013966Y01588D01*
X013965Y015878D01*
X013964Y015876D01*
X013963Y015872D01*
X013961Y015869D01*
X01396Y015864D01*
X013958Y015858D01*
X013956Y015851D01*
X013954Y015844D01*
X013953Y015836D01*
X013951Y015827D01*
X01395Y015816D01*
X013949Y015805D01*
X013949Y015792D01*
X013948Y015779D01*
Y015778D01*
Y015776D01*
Y015772D01*
X013949Y015767D01*
Y015761D01*
X013949Y015754D01*
X01395Y015747D01*
X01395Y015739D01*
X013953Y015722D01*
X013954Y015713D01*
X013956Y015706D01*
X013957Y015698D01*
X01396Y015691D01*
X013963Y015685D01*
X013966Y01568D01*
Y015679D01*
X013967Y015679D01*
X013969Y015676D01*
X013973Y015672D01*
X013978Y015668D01*
X013984Y015663D01*
X013992Y015659D01*
X014Y015656D01*
X014004Y015656D01*
X014009Y015655D01*
X014012D01*
X014013Y015656D01*
X014018Y015657D01*
X014024Y015658D01*
X01403Y015661D01*
X014038Y015666D01*
X014041Y015668D01*
X014045Y015672D01*
X014048Y015675D01*
X014052Y01568D01*
Y01568D01*
X014053Y015681D01*
X014054Y015682D01*
X014054Y015685D01*
X014056Y015688D01*
X014058Y015692D01*
X014059Y015696D01*
X014061Y015701D01*
X014062Y015708D01*
X014064Y015715D01*
X014066Y015723D01*
X014067Y015732D01*
X014068Y015742D01*
X014069Y015753D01*
X01407Y015765D01*
Y015779D01*
Y015779D01*
Y01578D01*
Y015782D01*
Y015786D01*
X014069Y015791D01*
Y015797D01*
X014069Y015804D01*
X014068Y015811D01*
X014068Y01582D01*
X014065Y015836D01*
X014064Y015844D01*
X014062Y015852D01*
X014061Y01586D01*
X014058Y015867D01*
X014055Y015873D01*
X014052Y015878D01*
Y015879D01*
X014051Y015879D01*
X014051Y01588D01*
X014049Y015882D01*
X014045Y015886D01*
X01404Y015891D01*
X014034Y015895D01*
X014026Y015899D01*
X014023Y015901D01*
X014018Y015902D01*
X014013Y015903D01*
X014009Y015903D01*
D02*
G37*
G36*
X011378Y01484D02*
X011371D01*
X011369Y01484D01*
X011364Y014839D01*
X011358Y014837D01*
X011351Y014835D01*
X011344Y014831D01*
X011336Y014827D01*
X011333Y014823D01*
X011329Y01482D01*
Y014819D01*
X011329Y014819D01*
X011328Y014817D01*
X011327Y014816D01*
X011324Y014812D01*
X011321Y014806D01*
X011317Y014798D01*
X011314Y014789D01*
X011312Y014778D01*
X011312Y014767D01*
Y014767D01*
Y014766D01*
Y014764D01*
X011312Y014762D01*
Y01476D01*
X011312Y014757D01*
X011314Y01475D01*
X011316Y014743D01*
X011319Y014735D01*
X011323Y014727D01*
X011329Y01472D01*
X011329Y014719D01*
X011332Y014718D01*
X011336Y014715D01*
X01134Y014712D01*
X011347Y014708D01*
X011354Y014705D01*
X011363Y014703D01*
X011372Y014702D01*
X011374D01*
X011376Y014703D01*
X011381Y014703D01*
X011387Y014705D01*
X011394Y014707D01*
X011401Y01471D01*
X011408Y014714D01*
X011414Y01472D01*
X011415Y014721D01*
X011417Y014724D01*
X01142Y014728D01*
X011423Y014733D01*
X011426Y01474D01*
X011429Y014749D01*
X01143Y014759D01*
X011431Y01477D01*
Y014771D01*
Y014771D01*
Y014773D01*
X011431Y014775D01*
Y014778D01*
X01143Y014782D01*
X011429Y014788D01*
X011427Y014797D01*
X011424Y014806D01*
X01142Y014814D01*
X011414Y014821D01*
Y014822D01*
X011413Y014822D01*
X011411Y014824D01*
X011408Y014827D01*
X011403Y014831D01*
X011397Y014834D01*
X01139Y014837D01*
X011382Y014839D01*
X011378Y01484D01*
D02*
G37*
G36*
X01112Y014836D02*
X011024D01*
Y014736D01*
X011114D01*
X01112Y014736D01*
X011126Y014736D01*
X011133Y014737D01*
X01114Y014738D01*
X011147Y014739D01*
X011153Y014741D01*
X011154Y014741D01*
X011156Y014742D01*
X011158Y014743D01*
X011162Y014745D01*
X011166Y014748D01*
X01117Y014751D01*
X011173Y014755D01*
X011177Y014759D01*
X011177Y01476D01*
X011178Y014761D01*
X011179Y014764D01*
X011181Y014768D01*
X011182Y014771D01*
X011184Y014776D01*
X011184Y014781D01*
X011185Y014786D01*
Y014787D01*
Y014787D01*
X011184Y01479D01*
X011184Y014794D01*
X011183Y014799D01*
X011181Y014804D01*
X011178Y01481D01*
X011174Y014816D01*
X011169Y014822D01*
X011168Y014822D01*
X011166Y014824D01*
X011163Y014826D01*
X011157Y014829D01*
X01115Y014831D01*
X011142Y014834D01*
X011132Y014835D01*
X01112Y014836D01*
D02*
G37*
G36*
X01049D02*
X010395D01*
Y014736D01*
X010485D01*
X01049Y014736D01*
X010496Y014736D01*
X010503Y014737D01*
X01051Y014738D01*
X010517Y014739D01*
X010523Y014741D01*
X010524Y014741D01*
X010526Y014742D01*
X010528Y014743D01*
X010532Y014745D01*
X010536Y014748D01*
X01054Y014751D01*
X010544Y014755D01*
X010547Y014759D01*
X010547Y01476D01*
X010548Y014761D01*
X010549Y014764D01*
X010551Y014768D01*
X010552Y014771D01*
X010554Y014776D01*
X010554Y014781D01*
X010555Y014786D01*
Y014787D01*
Y014787D01*
X010554Y01479D01*
X010554Y014794D01*
X010553Y014799D01*
X010551Y014804D01*
X010548Y01481D01*
X010544Y014816D01*
X010539Y014822D01*
X010538Y014822D01*
X010536Y014824D01*
X010533Y014826D01*
X010527Y014829D01*
X01052Y014831D01*
X010512Y014834D01*
X010502Y014835D01*
X01049Y014836D01*
D02*
G37*
G36*
X010743Y01484D02*
X010739D01*
X010735Y014839D01*
X01073Y014838D01*
X010724Y014837D01*
X010718Y014834D01*
X010713Y014831D01*
X010707Y014826D01*
X010707Y014826D01*
X010705Y014824D01*
X010703Y014821D01*
X0107Y014817D01*
X010698Y014812D01*
X010696Y014806D01*
X010694Y0148D01*
X010693Y014793D01*
Y014793D01*
Y014792D01*
X010694Y01479D01*
X010694Y014786D01*
X010695Y014781D01*
X010697Y014775D01*
X010699Y01477D01*
X010703Y014764D01*
X010707Y014758D01*
X010707Y014758D01*
X01071Y014756D01*
X010713Y014754D01*
X010717Y014752D01*
X010722Y014749D01*
X010728Y014747D01*
X010735Y014745D01*
X010743Y014745D01*
X010744D01*
X010746Y014745D01*
X01075Y014746D01*
X010755Y014747D01*
X010761Y014748D01*
X010767Y01475D01*
X010773Y014754D01*
X010778Y014758D01*
X010779Y014759D01*
X01078Y014761D01*
X010783Y014764D01*
X010785Y014768D01*
X010788Y014772D01*
X01079Y014778D01*
X010792Y014785D01*
X010792Y014792D01*
Y014792D01*
Y014792D01*
Y014795D01*
X010791Y014799D01*
X01079Y014804D01*
X010789Y014809D01*
X010786Y014815D01*
X010783Y01482D01*
X010778Y014826D01*
X010777Y014827D01*
X010775Y014828D01*
X010772Y01483D01*
X010768Y014833D01*
X010763Y014836D01*
X010757Y014838D01*
X01075Y01484D01*
X010743Y01484D01*
D02*
G37*
G36*
X010742Y014715D02*
X010739D01*
X010737Y014714D01*
X010732Y014714D01*
X010726Y014712D01*
X010719Y01471D01*
X010712Y014707D01*
X010705Y014703D01*
X010698Y014697D01*
X010697Y014696D01*
X010696Y014694D01*
X010693Y01469D01*
X01069Y014685D01*
X010686Y014679D01*
X010684Y014671D01*
X010682Y014663D01*
X010681Y014654D01*
Y014653D01*
Y014651D01*
X010682Y014648D01*
X010682Y014644D01*
X010683Y014639D01*
X010684Y014634D01*
X010686Y014629D01*
X010688Y014623D01*
X010689Y014623D01*
X01069Y014621D01*
X010691Y014618D01*
X010694Y014615D01*
X010697Y014611D01*
X010701Y014607D01*
X010705Y014604D01*
X01071Y0146D01*
X010711Y0146D01*
X010713Y014599D01*
X010716Y014598D01*
X01072Y014596D01*
X010725Y014595D01*
X010731Y014594D01*
X010737Y014593D01*
X010743Y014592D01*
X010745D01*
X010747Y014593D01*
X010752Y014593D01*
X010759Y014594D01*
X010766Y014597D01*
X010773Y014599D01*
X01078Y014604D01*
X010787Y014609D01*
X010788Y01461D01*
X01079Y014612D01*
X010793Y014616D01*
X010796Y014621D01*
X010799Y014627D01*
X010802Y014635D01*
X010804Y014643D01*
X010804Y014653D01*
Y014653D01*
Y014654D01*
Y014655D01*
X010804Y014657D01*
X010804Y014662D01*
X010802Y014668D01*
X0108Y014675D01*
X010797Y014682D01*
X010793Y01469D01*
X010787Y014697D01*
X010786Y014698D01*
X010783Y014699D01*
X01078Y014702D01*
X010774Y014706D01*
X010768Y014709D01*
X01076Y014712D01*
X010751Y014714D01*
X010742Y014715D01*
D02*
G37*
G36*
X014599Y015021D02*
X014499D01*
Y014931D01*
X0145Y014926D01*
X0145Y014919D01*
X014501Y014912D01*
X014502Y014905D01*
X014503Y014898D01*
X014505Y014892D01*
X014505Y014891D01*
X014506Y01489D01*
X014507Y014887D01*
X014509Y014884D01*
X014512Y01488D01*
X014515Y014876D01*
X014519Y014872D01*
X014523Y014869D01*
X014523Y014868D01*
X014525Y014867D01*
X014528Y014866D01*
X014531Y014864D01*
X014535Y014863D01*
X01454Y014862D01*
X014545Y014861D01*
X01455Y01486D01*
X014551D01*
X014551D01*
X014554Y014861D01*
X014558Y014861D01*
X014563Y014862D01*
X014568Y014864D01*
X014574Y014867D01*
X01458Y014871D01*
X014585Y014876D01*
X014586Y014877D01*
X014588Y014879D01*
X01459Y014883D01*
X014592Y014888D01*
X014595Y014895D01*
X014597Y014904D01*
X014599Y014914D01*
X014599Y014926D01*
Y015021D01*
D02*
G37*
G36*
X011789Y01317D02*
X011694D01*
Y01307D01*
X011784D01*
X011789Y01307D01*
X011795Y013071D01*
X011802Y013071D01*
X011809Y013072D01*
X011816Y013074D01*
X011822Y013075D01*
X011823Y013076D01*
X011825Y013077D01*
X011827Y013078D01*
X011831Y01308D01*
X011835Y013082D01*
X011839Y013085D01*
X011843Y013089D01*
X011846Y013094D01*
X011846Y013094D01*
X011847Y013096D01*
X011848Y013098D01*
X01185Y013102D01*
X011852Y013106D01*
X011853Y01311D01*
X011854Y013115D01*
X011854Y013121D01*
Y013121D01*
Y013122D01*
X011854Y013124D01*
X011853Y013128D01*
X011852Y013133D01*
X01185Y013139D01*
X011848Y013145D01*
X011844Y01315D01*
X011838Y013156D01*
X011838Y013157D01*
X011835Y013158D01*
X011832Y01316D01*
X011826Y013163D01*
X01182Y013166D01*
X011811Y013168D01*
X011801Y01317D01*
X011789Y01317D01*
D02*
G37*
G36*
X012027Y012526D02*
X011932Y01239D01*
X012027D01*
Y012526D01*
D02*
G37*
G36*
X011754Y012552D02*
X011659D01*
Y012452D01*
X011749D01*
X011754Y012453D01*
X01176Y012453D01*
X011767Y012453D01*
X011774Y012454D01*
X011781Y012456D01*
X011787Y012457D01*
X011788Y012458D01*
X01179Y012459D01*
X011793Y01246D01*
X011796Y012462D01*
X0118Y012464D01*
X011804Y012467D01*
X011808Y012471D01*
X011811Y012476D01*
X011811Y012476D01*
X011812Y012478D01*
X011814Y012481D01*
X011815Y012484D01*
X011817Y012488D01*
X011818Y012492D01*
X011819Y012498D01*
X011819Y012503D01*
Y012503D01*
Y012504D01*
X011819Y012506D01*
X011818Y01251D01*
X011818Y012516D01*
X011815Y012521D01*
X011813Y012527D01*
X011809Y012533D01*
X011804Y012538D01*
X011803Y012539D01*
X0118Y01254D01*
X011797Y012543D01*
X011791Y012545D01*
X011785Y012548D01*
X011776Y01255D01*
X011766Y012552D01*
X011754Y012552D01*
D02*
G37*
G36*
X01294Y015903D02*
X012936D01*
X012932Y015903D01*
X012929Y015902D01*
X012924Y015901D01*
X012919Y0159D01*
X012914Y015899D01*
X012908Y015897D01*
X012902Y015896D01*
X012896Y015893D01*
X01289Y01589D01*
X012884Y015886D01*
X012877Y015882D01*
X012871Y015878D01*
X012866Y015872D01*
X012865Y015872D01*
X012864Y015871D01*
X012863Y015869D01*
X012861Y015866D01*
X012859Y015863D01*
X012856Y015859D01*
X012854Y015855D01*
X012851Y015849D01*
X012848Y015843D01*
X012846Y015836D01*
X012843Y015829D01*
X012841Y01582D01*
X012839Y015812D01*
X012838Y015802D01*
X012837Y015792D01*
X012836Y015781D01*
Y01578D01*
Y015778D01*
Y015775D01*
X012837Y015771D01*
X012837Y015766D01*
X012838Y015761D01*
X012839Y015754D01*
X01284Y015747D01*
X012843Y015733D01*
X012846Y015725D01*
X012849Y015718D01*
X012852Y01571D01*
X012856Y015703D01*
X01286Y015696D01*
X012865Y01569D01*
X012866Y01569D01*
X012867Y015689D01*
X012868Y015687D01*
X01287Y015685D01*
X012874Y015683D01*
X012877Y01568D01*
X012881Y015678D01*
X012886Y015674D01*
X012891Y015671D01*
X012896Y015669D01*
X012902Y015666D01*
X012909Y015664D01*
X012916Y015662D01*
X012924Y01566D01*
X012932Y015659D01*
X01294Y015659D01*
X012944D01*
X012948Y015659D01*
X012953Y01566D01*
X01296Y015661D01*
X012966Y015662D01*
X012974Y015664D01*
X012981Y015667D01*
X01298Y015667D01*
X012978Y015669D01*
X012974Y015671D01*
X012969Y015674D01*
X012963Y015676D01*
X012956Y015679D01*
X012949Y015682D01*
X012941Y015684D01*
X012951Y015713D01*
X012951D01*
X012953Y015713D01*
X012954Y015712D01*
X012957Y015711D01*
X01296Y01571D01*
X012963Y015709D01*
X012971Y015706D01*
X01298Y015702D01*
X01299Y015697D01*
X012999Y015691D01*
X013008Y015684D01*
X013009Y015685D01*
X01301Y015685D01*
X013012Y015688D01*
X013014Y01569D01*
X013016Y015694D01*
X013019Y015698D01*
X013023Y015702D01*
X013026Y015708D01*
X013029Y015715D01*
X013032Y015722D01*
X013035Y01573D01*
X013038Y015738D01*
X01304Y015748D01*
X013042Y015758D01*
X013043Y015769D01*
X013043Y015781D01*
Y015781D01*
Y015782D01*
Y015784D01*
Y015787D01*
X013043Y01579D01*
Y015794D01*
X013043Y015798D01*
X013042Y015803D01*
X01304Y015813D01*
X013038Y015824D01*
X013035Y015834D01*
X013031Y015845D01*
Y015845D01*
X01303Y015846D01*
X01303Y015848D01*
X013029Y015849D01*
X013026Y015855D01*
X013022Y015861D01*
X013016Y015868D01*
X01301Y015875D01*
X013002Y015882D01*
X012994Y015888D01*
X012994D01*
X012993Y015889D01*
X012992Y015889D01*
X01299Y01589D01*
X012988Y015891D01*
X012985Y015893D01*
X012978Y015896D01*
X012971Y015898D01*
X012961Y015901D01*
X012951Y015903D01*
X01294Y015903D01*
D02*
G37*
G36*
X013727Y014943D02*
X013723D01*
X01372Y014943D01*
X013716Y014942D01*
X013712Y014941D01*
X013707Y014941D01*
X013702Y014939D01*
X013695Y014937D01*
X01369Y014936D01*
X013684Y014933D01*
X013677Y01493D01*
X013671Y014927D01*
X013665Y014922D01*
X013659Y014918D01*
X013653Y014912D01*
X013653Y014912D01*
X013652Y014911D01*
X01365Y014909D01*
X013649Y014906D01*
X013646Y014903D01*
X013644Y014899D01*
X013641Y014895D01*
X013639Y014889D01*
X013636Y014883D01*
X013633Y014876D01*
X013631Y014869D01*
X013629Y014861D01*
X013626Y014852D01*
X013625Y014842D01*
X013624Y014832D01*
X013624Y014821D01*
Y01482D01*
Y014818D01*
Y014815D01*
X013624Y014811D01*
X013625Y014806D01*
X013626Y014801D01*
X013626Y014794D01*
X013627Y014788D01*
X013631Y014773D01*
X013633Y014765D01*
X013636Y014758D01*
X013639Y01475D01*
X013643Y014743D01*
X013647Y014736D01*
X013653Y01473D01*
X013653Y01473D01*
X013654Y014729D01*
X013656Y014727D01*
X013658Y014726D01*
X013661Y014723D01*
X013664Y01472D01*
X013668Y014718D01*
X013673Y014715D01*
X013678Y014712D01*
X013684Y014709D01*
X01369Y014706D01*
X013696Y014704D01*
X013704Y014702D01*
X013711Y0147D01*
X013719Y014699D01*
X013727Y014699D01*
X013731D01*
X013735Y014699D01*
X01374Y0147D01*
X013747Y014701D01*
X013754Y014702D01*
X013761Y014704D01*
X013768Y014707D01*
X013767Y014707D01*
X013765Y014709D01*
X013761Y014711D01*
X013756Y014714D01*
X01375Y014716D01*
X013743Y014719D01*
X013736Y014722D01*
X013728Y014724D01*
X013738Y014753D01*
X013739D01*
X01374Y014753D01*
X013742Y014752D01*
X013744Y014751D01*
X013747Y01475D01*
X01375Y014749D01*
X013758Y014746D01*
X013768Y014742D01*
X013777Y014737D01*
X013786Y014731D01*
X013795Y014724D01*
X013796Y014725D01*
X013797Y014726D01*
X013799Y014728D01*
X013801Y01473D01*
X013804Y014734D01*
X013807Y014738D01*
X01381Y014743D01*
X013813Y014748D01*
X013816Y014755D01*
X01382Y014762D01*
X013823Y01477D01*
X013825Y014778D01*
X013828Y014788D01*
X01383Y014798D01*
X01383Y014809D01*
X013831Y014821D01*
Y014821D01*
Y014823D01*
Y014824D01*
Y014827D01*
X01383Y01483D01*
Y014834D01*
X01383Y014838D01*
X013829Y014843D01*
X013828Y014853D01*
X013826Y014864D01*
X013823Y014875D01*
X013818Y014885D01*
Y014885D01*
X013818Y014886D01*
X013817Y014888D01*
X013816Y014889D01*
X013813Y014895D01*
X013809Y014901D01*
X013804Y014908D01*
X013797Y014915D01*
X01379Y014922D01*
X013782Y014928D01*
X013781D01*
X013781Y014929D01*
X013779Y014929D01*
X013777Y01493D01*
X013775Y014931D01*
X013772Y014933D01*
X013766Y014936D01*
X013758Y014938D01*
X013749Y014941D01*
X013738Y014943D01*
X013727Y014943D01*
D02*
G37*
G36*
X012051Y014172D02*
X011951D01*
Y014082D01*
X011952Y014077D01*
X011952Y014071D01*
X011953Y014064D01*
X011954Y014057D01*
X011955Y01405D01*
X011957Y014044D01*
X011957Y014043D01*
X011958Y014041D01*
X011959Y014039D01*
X011961Y014035D01*
X011964Y014031D01*
X011967Y014027D01*
X011971Y014023D01*
X011975Y01402D01*
X011975Y01402D01*
X011977Y014019D01*
X01198Y014018D01*
X011983Y014016D01*
X011987Y014015D01*
X011992Y014013D01*
X011997Y014012D01*
X012002Y014012D01*
X012002D01*
X012003D01*
X012006Y014012D01*
X012009Y014013D01*
X012015Y014014D01*
X01202Y014016D01*
X012026Y014019D01*
X012032Y014023D01*
X012037Y014028D01*
X012038Y014029D01*
X01204Y014031D01*
X012042Y014034D01*
X012044Y01404D01*
X012047Y014047D01*
X012049Y014055D01*
X012051Y014065D01*
X012051Y014077D01*
Y014172D01*
D02*
G37*
G36*
X011881Y013882D02*
X01188D01*
X011878D01*
X011874Y013882D01*
X011869Y013881D01*
X011863Y01388D01*
X011857Y013879D01*
X01185Y013877D01*
X011844Y013874D01*
X011843Y013874D01*
X011841Y013873D01*
X011838Y013871D01*
X011834Y013868D01*
X01183Y013865D01*
X011825Y013861D01*
X011821Y013857D01*
X011817Y013852D01*
X011817Y013851D01*
X011816Y013849D01*
X011814Y013846D01*
X011813Y013842D01*
X011811Y013838D01*
X011809Y013832D01*
X011808Y013827D01*
X011808Y013821D01*
Y013818D01*
X011808Y013817D01*
X011809Y013812D01*
X01181Y013807D01*
X011813Y013801D01*
X011816Y013794D01*
X011821Y013787D01*
X011823Y013783D01*
X011827Y01378D01*
X011827D01*
X011828Y013779D01*
X01183Y013777D01*
X011835Y013775D01*
X01184Y013771D01*
X011848Y013768D01*
X011857Y013766D01*
X011867Y013764D01*
X011878Y013763D01*
X011879D01*
X01188D01*
X011881D01*
X011884Y013763D01*
X011886D01*
X011889Y013764D01*
X011896Y013765D01*
X011904Y013767D01*
X011912Y01377D01*
X01192Y013774D01*
X011928Y01378D01*
X011929Y013781D01*
X011931Y013783D01*
X011933Y013787D01*
X011937Y013791D01*
X01194Y013797D01*
X011943Y013804D01*
X011945Y013813D01*
X011946Y013822D01*
Y013825D01*
X011946Y013826D01*
X011945Y013831D01*
X011944Y013837D01*
X011942Y013843D01*
X011938Y013851D01*
X011934Y013858D01*
X011928Y013865D01*
X011927Y013866D01*
X011925Y013867D01*
X011921Y01387D01*
X011915Y013873D01*
X011909Y013877D01*
X0119Y01388D01*
X011891Y013881D01*
X011881Y013882D01*
D02*
G37*
G36*
X015686Y015761D02*
X015586D01*
Y015671D01*
X015586Y015666D01*
X015586Y01566D01*
X015587Y015653D01*
X015588Y015646D01*
X015589Y015639D01*
X015591Y015632D01*
X015591Y015632D01*
X015592Y01563D01*
X015593Y015627D01*
X015595Y015624D01*
X015598Y01562D01*
X015601Y015616D01*
X015605Y015612D01*
X015609Y015609D01*
X01561Y015608D01*
X015611Y015608D01*
X015614Y015606D01*
X015618Y015605D01*
X015621Y015603D01*
X015626Y015602D01*
X015631Y015601D01*
X015636Y015601D01*
X015637D01*
X015637D01*
X01564Y015601D01*
X015644Y015601D01*
X015649Y015602D01*
X015654Y015605D01*
X01566Y015607D01*
X015666Y015611D01*
X015672Y015616D01*
X015672Y015617D01*
X015674Y015619D01*
X015676Y015623D01*
X015679Y015629D01*
X015681Y015635D01*
X015683Y015644D01*
X015685Y015654D01*
X015686Y015666D01*
Y015761D01*
D02*
G37*
G36*
X016489Y015747D02*
X016389D01*
Y015657D01*
X01639Y015652D01*
X01639Y015646D01*
X01639Y015639D01*
X016391Y015632D01*
X016393Y015625D01*
X016394Y015619D01*
X016395Y015618D01*
X016396Y015616D01*
X016397Y015613D01*
X016399Y01561D01*
X016401Y015606D01*
X016404Y015602D01*
X016408Y015598D01*
X016413Y015595D01*
X016413Y015595D01*
X016415Y015594D01*
X016418Y015592D01*
X016421Y015591D01*
X016425Y015589D01*
X016429Y015588D01*
X016435Y015587D01*
X01644Y015587D01*
X01644D01*
X016441D01*
X016443Y015587D01*
X016447Y015588D01*
X016453Y015589D01*
X016458Y015591D01*
X016464Y015593D01*
X01647Y015597D01*
X016475Y015603D01*
X016476Y015603D01*
X016477Y015606D01*
X01648Y015609D01*
X016482Y015615D01*
X016485Y015621D01*
X016487Y01563D01*
X016489Y01564D01*
X016489Y015652D01*
Y015747D01*
D02*
G37*
G36*
X018639Y015426D02*
X018544D01*
Y015326D01*
X018634D01*
X018639Y015327D01*
X018646Y015327D01*
X018653Y015327D01*
X01866Y015328D01*
X018666Y01533D01*
X018673Y015331D01*
X018673Y015332D01*
X018675Y015333D01*
X018678Y015334D01*
X018681Y015336D01*
X018685Y015338D01*
X018689Y015341D01*
X018693Y015345D01*
X018696Y01535D01*
X018697Y01535D01*
X018698Y015352D01*
X018699Y015355D01*
X018701Y015358D01*
X018702Y015362D01*
X018703Y015366D01*
X018704Y015372D01*
X018705Y015377D01*
Y015377D01*
Y015378D01*
X018704Y01538D01*
X018704Y015384D01*
X018703Y01539D01*
X018701Y015395D01*
X018698Y015401D01*
X018694Y015407D01*
X018689Y015412D01*
X018688Y015413D01*
X018686Y015414D01*
X018682Y015417D01*
X018677Y015419D01*
X01867Y015422D01*
X018661Y015424D01*
X018651Y015426D01*
X018639Y015426D01*
D02*
G37*
G36*
X01658Y011396D02*
X016349D01*
Y011324D01*
X016349Y011321D01*
X01635Y011314D01*
X01635Y011307D01*
X016351Y011299D01*
X016352Y011291D01*
X016354Y011285D01*
X016355Y011284D01*
X016355Y011282D01*
X016356Y011279D01*
X016358Y011275D01*
X016361Y01127D01*
X016363Y011266D01*
X016366Y011262D01*
X01637Y011257D01*
X016371Y011257D01*
X016372Y011255D01*
X016375Y011252D01*
X01638Y011249D01*
X016386Y011246D01*
X016392Y011242D01*
X0164Y011238D01*
X016408Y011235D01*
X016408D01*
X016409Y011235D01*
X01641Y011234D01*
X016412Y011234D01*
X016414Y011234D01*
X016417Y011233D01*
X016421Y011232D01*
X016424Y011231D01*
X016433Y01123D01*
X016443Y011228D01*
X016454Y011228D01*
X016466Y011227D01*
X016467D01*
X016469D01*
X016471D01*
X016474Y011228D01*
X016478D01*
X016483Y011228D01*
X016488Y011228D01*
X016493Y011229D01*
X016505Y011231D01*
X016517Y011234D01*
X016528Y011238D01*
X016534Y01124D01*
X016539Y011243D01*
X016539D01*
X01654Y011244D01*
X016542Y011245D01*
X016543Y011245D01*
X016548Y011249D01*
X016553Y011253D01*
X016559Y011259D01*
X016564Y011266D01*
X016569Y011273D01*
X016573Y011281D01*
X016573Y011282D01*
X016574Y011284D01*
X016575Y011288D01*
X016576Y011293D01*
X016577Y0113D01*
X016579Y011309D01*
X016579Y011314D01*
Y01132D01*
X01658Y011326D01*
Y011396D01*
D02*
G37*
G36*
X019389Y014185D02*
X019388D01*
X019386D01*
X019382Y014185D01*
X019377Y014184D01*
X019372Y014183D01*
X019366Y014181D01*
X019359Y01418D01*
X019353Y014177D01*
X019352Y014177D01*
X019349Y014175D01*
X019346Y014174D01*
X019342Y014171D01*
X019339Y014168D01*
X019334Y014164D01*
X01933Y01416D01*
X019326Y014154D01*
X019325Y014153D01*
X019325Y014152D01*
X019323Y014149D01*
X019321Y014145D01*
X01932Y01414D01*
X019318Y014135D01*
X019317Y014129D01*
X019317Y014123D01*
Y014121D01*
X019317Y014119D01*
X019318Y014115D01*
X019319Y014109D01*
X019321Y014103D01*
X019325Y014096D01*
X019329Y014089D01*
X019332Y014086D01*
X019335Y014083D01*
X019336D01*
X019336Y014082D01*
X019339Y01408D01*
X019343Y014077D01*
X019349Y014074D01*
X019356Y014071D01*
X019365Y014068D01*
X019375Y014067D01*
X019387Y014066D01*
X019387D01*
X019388D01*
X01939D01*
X019392Y014066D01*
X019395D01*
X019398Y014067D01*
X019405Y014068D01*
X019413Y01407D01*
X019421Y014073D01*
X019429Y014077D01*
X019436Y014083D01*
X019437Y014084D01*
X019439Y014086D01*
X019442Y014089D01*
X019446Y014094D01*
X019449Y0141D01*
X019452Y014107D01*
X019454Y014115D01*
X019455Y014125D01*
Y014127D01*
X019454Y014129D01*
X019454Y014133D01*
X019453Y014139D01*
X01945Y014146D01*
X019447Y014153D01*
X019443Y01416D01*
X019436Y014167D01*
X019436Y014168D01*
X019433Y01417D01*
X019429Y014173D01*
X019424Y014176D01*
X019417Y014179D01*
X019409Y014182D01*
X0194Y014184D01*
X019389Y014185D01*
D02*
G37*
G36*
X020105Y01599D02*
X02001Y015855D01*
X020105D01*
Y01599D01*
D02*
G37*
%LPD*%
D10*
X011783Y015945D02*
G03*
X011783Y015945I-000049J0D01*
G01*
X012805Y013623D02*
G03*
X012805Y013623I-000049J0D01*
G01*
X01627Y014982D02*
G03*
X01627Y014982I-000049J0D01*
G01*
D11*
X015276Y014498D02*
G03*
X014803Y014498I-000236J-000236D01*
G01*
Y013533D02*
G03*
X015276Y013533I000236J000236D01*
G01*
X019685Y013869D02*
G03*
X019213Y013869I-000236J-000236D01*
G01*
Y012903D02*
G03*
X019685Y012903I000236J000236D01*
G01*
X017176Y012205D02*
G03*
X017176Y012677I-000236J000236D01*
G01*
X01621D02*
G03*
X01621Y012205I000236J-000236D01*
G01*
X017352Y016063D02*
G03*
X017352Y015591I000236J-000236D01*
G01*
X018317D02*
G03*
X018317Y016063I-000236J000236D01*
G01*
X014199Y014266D02*
Y014526D01*
Y013506D02*
Y013766D01*
X014699Y013506D02*
Y013766D01*
Y014266D02*
Y014526D01*
X014199Y013506D02*
X014699D01*
X014199Y014526D02*
X014699D01*
X010841Y014923D02*
Y015183D01*
Y015683D02*
Y015943D01*
X010341Y015683D02*
Y015943D01*
Y014923D02*
Y015183D01*
Y015943D02*
X010841D01*
X010341Y014923D02*
X010841D01*
X011431D02*
Y015183D01*
Y015683D02*
Y015943D01*
X010931Y015683D02*
Y015943D01*
Y014923D02*
Y015183D01*
Y015943D02*
X011431D01*
X010931Y014923D02*
X011431D01*
X013911Y015526D02*
X014171D01*
X013152D02*
X013412D01*
X013152Y015026D02*
X013412D01*
X013911D02*
X014171D01*
X013152D02*
Y015526D01*
X014171Y015026D02*
Y015526D01*
X014974Y015526D02*
X015234D01*
X014215D02*
X014475D01*
X014215Y015026D02*
X014475D01*
X014974D02*
X015234D01*
X014215D02*
Y015526D01*
X015234Y015026D02*
Y015526D01*
X012167Y012821D02*
X012427D01*
X012927D02*
X013187D01*
X012927Y013321D02*
X013187D01*
X012167D02*
X012427D01*
X013187Y012821D02*
Y013321D01*
X012167Y012821D02*
Y013321D01*
Y01223D02*
X012427D01*
X012927D02*
X013187D01*
X012927Y01273D02*
X013187D01*
X012167D02*
X012427D01*
X013187Y01223D02*
Y01273D01*
X012167Y01223D02*
Y01273D01*
X012219Y011029D02*
Y011219D01*
X010419Y011029D02*
Y011219D01*
X012219Y010119D02*
Y010309D01*
X010419Y010119D02*
X012219D01*
X010419D02*
Y010309D01*
Y011219D02*
X012219D01*
X011619D02*
X011639D01*
X011619Y010119D02*
Y011219D01*
X012152Y014526D02*
X012652D01*
X012152Y013506D02*
X012652D01*
Y014266D02*
Y014526D01*
Y013506D02*
Y013766D01*
X012152Y013506D02*
Y013766D01*
Y014266D02*
Y014526D01*
X016522Y015801D02*
Y016061D01*
Y015041D02*
Y015301D01*
X017022Y015041D02*
Y015301D01*
Y015801D02*
Y016061D01*
X016522Y015041D02*
X017022D01*
X016522Y016061D02*
X017022D01*
X015774Y015801D02*
Y016061D01*
Y015041D02*
Y015301D01*
X016274Y015041D02*
Y015301D01*
Y015801D02*
Y016061D01*
X015774Y015041D02*
X016274D01*
X015774Y016061D02*
X016274D01*
X017824Y010107D02*
X017834D01*
X017824D02*
Y012727D01*
X017834D01*
X020444D01*
Y010107D02*
Y012727D01*
X017834Y010107D02*
X020444D01*
X017325Y015026D02*
X017585D01*
X018084D02*
X018344D01*
X018084Y015526D02*
X018344D01*
X017325D02*
X017585D01*
X018344Y015026D02*
Y015526D01*
X017325Y015026D02*
Y015526D01*
X013678Y012087D02*
X015378D01*
X013678D02*
Y013267D01*
X015378D01*
Y012087D02*
Y013267D01*
X016732Y010551D02*
X016816D01*
X017357D02*
X017441D01*
X017357Y011732D02*
X017441D01*
X016732D02*
X016816D01*
X016732Y010551D02*
Y011732D01*
X017441Y010551D02*
Y011732D01*
X012662Y010083D02*
X015842D01*
X012662D02*
Y012043D01*
X015842D01*
Y010083D02*
Y012043D01*
D12*
X016953Y014882D02*
G03*
X017368Y014882I000208J0D01*
G01*
X012205Y015906D02*
X012559D01*
Y015591D02*
Y015906D01*
X012205Y014724D02*
X012559D01*
Y015039D01*
X012795Y014094D02*
Y014449D01*
X01311D01*
X013976Y014094D02*
Y014449D01*
X013661D02*
X013976D01*
X016575Y012913D02*
X017746D01*
Y014882D01*
X016575Y012913D02*
Y014882D01*
X016953D01*
X017368D02*
X017746D01*
D13*
X010416Y012436D02*
X011406D01*
X010406Y013436D02*
X011406D01*
X010406Y011436D02*
Y013436D01*
Y011436D02*
X011406D01*
Y013436D01*
X021193Y011265D02*
X022183D01*
X021193Y010265D02*
X022193D01*
Y012265D01*
X021193D02*
X022193D01*
X021193Y010265D02*
Y012265D01*
D14*
X021142Y011971D02*
Y012271D01*
X020992Y012111D02*
X021292D01*
X022532Y012901D02*
Y015681D01*
X021632D02*
X022532D01*
X019752Y012901D02*
Y015681D01*
Y012901D02*
X020652D01*
X021632D02*
X022532D01*
X019752Y015681D02*
X020652D01*
D15*
X011549Y010669D02*
D03*
D16*
X017082Y011432D02*
D03*
M02*
