G04*
G04 #@! TF.GenerationSoftware,Altium Limited,Altium Designer,19.0.15 (446)*
G04*
G04 Layer_Color=2752767*
%FSTAX24Y24*%
%MOIN*%
G70*
G01*
G75*
%ADD75C,0.0020*%
%ADD76C,0.0027*%
D75*
X020569Y025077D02*
Y025237D01*
X020729D01*
Y025077D01*
X020569D01*
Y026077D02*
Y026237D01*
X020729D01*
Y026077D01*
X020569D01*
X024112D02*
Y026237D01*
X024272D01*
Y026077D01*
X024112D01*
Y025077D02*
Y025237D01*
X024272D01*
Y025077D01*
X024112D01*
X026474Y026077D02*
Y026237D01*
X026634D01*
Y026077D01*
X026474D01*
Y025077D02*
Y025237D01*
X026634D01*
Y025077D01*
X026474D01*
X029624Y026077D02*
Y026237D01*
X029784D01*
Y026077D01*
X029624D01*
Y025077D02*
Y025237D01*
X029784D01*
Y025077D01*
X029624D01*
X031986Y026077D02*
Y026237D01*
X032146D01*
Y026077D01*
X031986D01*
Y025077D02*
Y025237D01*
X032146D01*
Y025077D01*
X031986D01*
X027755Y016026D02*
X027675Y016186D01*
X027835D01*
X027755Y016026D01*
X030755D02*
X030675Y016186D01*
X030835D01*
X030755Y016026D01*
X029745D02*
X029665Y016186D01*
X029825D01*
X029745Y016026D01*
X028765D02*
X028685Y016186D01*
X028845D01*
X028765Y016026D01*
X026745D02*
X026665Y016186D01*
X026825D01*
X026745Y016026D01*
X038948Y01668D02*
X038988Y01672D01*
X039028D01*
X038988Y01676D01*
X039028Y0168D01*
X038988D01*
X038948Y01684D01*
X038908Y0168D01*
X038868D01*
X038908Y01676D01*
X038868Y01672D01*
X038908D01*
X038948Y01668D01*
X040881Y016016D02*
X040921Y016056D01*
X040961D01*
X040921Y016096D01*
X040961Y016136D01*
X040921D01*
X040881Y016176D01*
X040841Y016136D01*
X040801D01*
X040841Y016096D01*
X040801Y016056D01*
X040841D01*
X040881Y016016D01*
X040533D02*
X040573Y016056D01*
X040613D01*
X040573Y016096D01*
X040613Y016136D01*
X040573D01*
X040533Y016176D01*
X040493Y016136D01*
X040453D01*
X040493Y016096D01*
X040453Y016056D01*
X040493D01*
X040533Y016016D01*
X040184D02*
X040224Y016056D01*
X040264D01*
X040224Y016096D01*
X040264Y016136D01*
X040224D01*
X040184Y016176D01*
X040144Y016136D01*
X040104D01*
X040144Y016096D01*
X040104Y016056D01*
X040144D01*
X040184Y016016D01*
X040519Y023176D02*
X040559Y023216D01*
X040599D01*
X040559Y023256D01*
X040599Y023296D01*
X040559D01*
X040519Y023336D01*
X040479Y023296D01*
X040439D01*
X040479Y023256D01*
X040439Y023216D01*
X040479D01*
X040519Y023176D01*
X025373Y02514D02*
X025413Y02518D01*
X025453D01*
X025413Y02522D01*
X025453Y02526D01*
X025413D01*
X025373Y0253D01*
X025333Y02526D01*
X025293D01*
X025333Y02522D01*
X025293Y02518D01*
X025333D01*
X025373Y02514D01*
X027731Y025152D02*
X027771Y025192D01*
X027812D01*
X027771Y025232D01*
X027812Y025272D01*
X027771D01*
X027731Y025312D01*
X027692Y025272D01*
X027652D01*
X027692Y025232D01*
X027652Y025192D01*
X027692D01*
X027731Y025152D01*
X03242Y014274D02*
X03246Y014314D01*
X0325D01*
X03246Y014354D01*
X0325Y014394D01*
X03246D01*
X03242Y014434D01*
X03238Y014394D01*
X03234D01*
X03238Y014354D01*
X03234Y014314D01*
X03238D01*
X03242Y014274D01*
Y01666D02*
X03246Y0167D01*
X0325D01*
X03246Y01674D01*
X0325Y01678D01*
X03246D01*
X03242Y01682D01*
X03238Y01678D01*
X03234D01*
X03238Y01674D01*
X03234Y0167D01*
X03238D01*
X03242Y01666D01*
X022791Y019448D02*
X022831Y019488D01*
X022871D01*
X022831Y019528D01*
X022871Y019568D01*
X022831D01*
X022791Y019608D01*
X022751Y019568D01*
X022711D01*
X022751Y019528D01*
X022711Y019488D01*
X022751D01*
X022791Y019448D01*
X03445Y011814D02*
X03449Y011854D01*
X03453D01*
X03449Y011894D01*
X03453Y011934D01*
X03449D01*
X03445Y011974D01*
X03441Y011934D01*
X03437D01*
X03441Y011894D01*
X03437Y011854D01*
X03441D01*
X03445Y011814D01*
X033628D02*
X033668Y011854D01*
X033708D01*
X033668Y011894D01*
X033708Y011934D01*
X033668D01*
X033628Y011974D01*
X033588Y011934D01*
X033548D01*
X033588Y011894D01*
X033548Y011854D01*
X033588D01*
X033628Y011814D01*
X032813D02*
X032853Y011854D01*
X032893D01*
X032853Y011894D01*
X032893Y011934D01*
X032853D01*
X032813Y011974D01*
X032773Y011934D01*
X032733D01*
X032773Y011894D01*
X032733Y011854D01*
X032773D01*
X032813Y011814D01*
X032018D02*
X032058Y011854D01*
X032098D01*
X032058Y011894D01*
X032098Y011934D01*
X032058D01*
X032018Y011974D01*
X031978Y011934D01*
X031938D01*
X031978Y011894D01*
X031938Y011854D01*
X031978D01*
X032018Y011814D01*
X037141Y020467D02*
X037181Y020507D01*
X037221D01*
X037181Y020547D01*
X037221Y020587D01*
X037181D01*
X037141Y020627D01*
X037101Y020587D01*
X037061D01*
X037101Y020547D01*
X037061Y020507D01*
X037101D01*
X037141Y020467D01*
X037519D02*
X037559Y020507D01*
X037599D01*
X037559Y020547D01*
X037599Y020587D01*
X037559D01*
X037519Y020627D01*
X037479Y020587D01*
X037439D01*
X037479Y020547D01*
X037439Y020507D01*
X037479D01*
X037519Y020467D01*
X036763D02*
X036803Y020507D01*
X036843D01*
X036803Y020547D01*
X036843Y020587D01*
X036803D01*
X036763Y020627D01*
X036723Y020587D01*
X036683D01*
X036723Y020547D01*
X036683Y020507D01*
X036723D01*
X036763Y020467D01*
X038948Y021511D02*
X038988Y021551D01*
X039028D01*
X038988Y021591D01*
X039028Y021631D01*
X038988D01*
X038948Y021671D01*
X038908Y021631D01*
X038868D01*
X038908Y021591D01*
X038868Y021551D01*
X038908D01*
X038948Y021511D01*
Y022192D02*
X038988Y022232D01*
X039028D01*
X038988Y022272D01*
X039028Y022312D01*
X038988D01*
X038948Y022352D01*
X038908Y022312D01*
X038868D01*
X038908Y022272D01*
X038868Y022232D01*
X038908D01*
X038948Y022192D01*
X039755Y021511D02*
X039795Y021551D01*
X039835D01*
X039795Y021591D01*
X039835Y021631D01*
X039795D01*
X039755Y021671D01*
X039715Y021631D01*
X039675D01*
X039715Y021591D01*
X039675Y021551D01*
X039715D01*
X039755Y021511D01*
Y022192D02*
X039795Y022232D01*
X039835D01*
X039795Y022272D01*
X039835Y022312D01*
X039795D01*
X039755Y022352D01*
X039715Y022312D01*
X039675D01*
X039715Y022272D01*
X039675Y022232D01*
X039715D01*
X039755Y022192D01*
X038924Y026203D02*
X038964Y026243D01*
X039004D01*
X038964Y026283D01*
X039004Y026323D01*
X038964D01*
X038924Y026363D01*
X038884Y026323D01*
X038844D01*
X038884Y026283D01*
X038844Y026243D01*
X038884D01*
X038924Y026203D01*
X039606D02*
X039646Y026243D01*
X039686D01*
X039646Y026283D01*
X039686Y026323D01*
X039646D01*
X039606Y026363D01*
X039566Y026323D01*
X039526D01*
X039566Y026283D01*
X039526Y026243D01*
X039566D01*
X039606Y026203D01*
X038924Y025786D02*
X038964Y025826D01*
X039004D01*
X038964Y025866D01*
X039004Y025906D01*
X038964D01*
X038924Y025946D01*
X038884Y025906D01*
X038844D01*
X038884Y025866D01*
X038844Y025826D01*
X038884D01*
X038924Y025786D01*
X039606D02*
X039646Y025826D01*
X039686D01*
X039646Y025866D01*
X039686Y025906D01*
X039646D01*
X039606Y025946D01*
X039566Y025906D01*
X039526D01*
X039566Y025866D01*
X039526Y025826D01*
X039566D01*
X039606Y025786D01*
X038987Y014908D02*
X039027Y014948D01*
X039067D01*
X039027Y014988D01*
X039067Y015028D01*
X039027D01*
X038987Y015068D01*
X038947Y015028D01*
X038907D01*
X038947Y014988D01*
X038907Y014948D01*
X038947D01*
X038987Y014908D01*
X039669D02*
X039708Y014948D01*
X039748D01*
X039708Y014988D01*
X039748Y015028D01*
X039708D01*
X039669Y015068D01*
X039629Y015028D01*
X039588D01*
X039629Y014988D01*
X039588Y014948D01*
X039629D01*
X039669Y014908D01*
X038987Y014357D02*
X039027Y014397D01*
X039067D01*
X039027Y014437D01*
X039067Y014477D01*
X039027D01*
X038987Y014517D01*
X038947Y014477D01*
X038907D01*
X038947Y014437D01*
X038907Y014397D01*
X038947D01*
X038987Y014357D01*
X039669D02*
X039708Y014397D01*
X039748D01*
X039708Y014437D01*
X039748Y014477D01*
X039708D01*
X039669Y014517D01*
X039629Y014477D01*
X039588D01*
X039629Y014437D01*
X039588Y014397D01*
X039629D01*
X039669Y014357D01*
X03746Y011967D02*
X0375Y012007D01*
X03754D01*
X0375Y012047D01*
X03754Y012087D01*
X0375D01*
X03746Y012127D01*
X03742Y012087D01*
X03738D01*
X03742Y012047D01*
X03738Y012007D01*
X03742D01*
X03746Y011967D01*
X036779D02*
X036819Y012007D01*
X036859D01*
X036819Y012047D01*
X036859Y012087D01*
X036819D01*
X036779Y012127D01*
X036739Y012087D01*
X036699D01*
X036739Y012047D01*
X036699Y012007D01*
X036739D01*
X036779Y011967D01*
X03746Y012774D02*
X0375Y012814D01*
X03754D01*
X0375Y012854D01*
X03754Y012894D01*
X0375D01*
X03746Y012934D01*
X03742Y012894D01*
X03738D01*
X03742Y012854D01*
X03738Y012814D01*
X03742D01*
X03746Y012774D01*
X036779D02*
X036819Y012814D01*
X036859D01*
X036819Y012854D01*
X036859Y012894D01*
X036819D01*
X036779Y012934D01*
X036739Y012894D01*
X036699D01*
X036739Y012854D01*
X036699Y012814D01*
X036739D01*
X036779Y012774D01*
X018365Y012554D02*
X018405Y012594D01*
X018445D01*
X018405Y012634D01*
X018445Y012674D01*
X018405D01*
X018365Y012714D01*
X018325Y012674D01*
X018285D01*
X018325Y012634D01*
X018285Y012594D01*
X018325D01*
X018365Y012554D01*
X017393D02*
X017433Y012594D01*
X017473D01*
X017433Y012634D01*
X017473Y012674D01*
X017433D01*
X017393Y012714D01*
X017353Y012674D01*
X017313D01*
X017353Y012634D01*
X017313Y012594D01*
X017353D01*
X017393Y012554D01*
X01642D02*
X01646Y012594D01*
X0165D01*
X01646Y012634D01*
X0165Y012674D01*
X01646D01*
X01642Y012714D01*
X01638Y012674D01*
X01634D01*
X01638Y012634D01*
X01634Y012594D01*
X01638D01*
X01642Y012554D01*
X015448D02*
X015488Y012594D01*
X015528D01*
X015488Y012634D01*
X015528Y012674D01*
X015488D01*
X015448Y012714D01*
X015408Y012674D01*
X015368D01*
X015408Y012634D01*
X015368Y012594D01*
X015408D01*
X015448Y012554D01*
X018365Y011597D02*
X018405Y011637D01*
X018445D01*
X018405Y011677D01*
X018445Y011717D01*
X018405D01*
X018365Y011757D01*
X018325Y011717D01*
X018285D01*
X018325Y011677D01*
X018285Y011637D01*
X018325D01*
X018365Y011597D01*
X017393D02*
X017433Y011637D01*
X017473D01*
X017433Y011677D01*
X017473Y011717D01*
X017433D01*
X017393Y011757D01*
X017353Y011717D01*
X017313D01*
X017353Y011677D01*
X017313Y011637D01*
X017353D01*
X017393Y011597D01*
X01642D02*
X01646Y011637D01*
X0165D01*
X01646Y011677D01*
X0165Y011717D01*
X01646D01*
X01642Y011757D01*
X01638Y011717D01*
X01634D01*
X01638Y011677D01*
X01634Y011637D01*
X01638D01*
X01642Y011597D01*
X015448D02*
X015488Y011637D01*
X015528D01*
X015488Y011677D01*
X015528Y011717D01*
X015488D01*
X015448Y011757D01*
X015408Y011717D01*
X015368D01*
X015408Y011677D01*
X015368Y011637D01*
X015408D01*
X015448Y011597D01*
X03507Y01411D02*
X03511Y01415D01*
X03515D01*
X03511Y01419D01*
X03515Y01423D01*
X03511D01*
X03507Y01427D01*
X03503Y01423D01*
X03499D01*
X03503Y01419D01*
X03499Y01415D01*
X03503D01*
X03507Y01411D01*
X034322D02*
X034362Y01415D01*
X034402D01*
X034362Y01419D01*
X034402Y01423D01*
X034362D01*
X034322Y01427D01*
X034282Y01423D01*
X034242D01*
X034282Y01419D01*
X034242Y01415D01*
X034282D01*
X034322Y01411D01*
X034696D02*
X034736Y01415D01*
X034776D01*
X034736Y01419D01*
X034776Y01423D01*
X034736D01*
X034696Y01427D01*
X034656Y01423D01*
X034616D01*
X034656Y01419D01*
X034616Y01415D01*
X034656D01*
X034696Y01411D01*
X035298Y015388D02*
X035338Y015429D01*
X035378D01*
X035338Y015468D01*
X035378Y015509D01*
X035338D01*
X035298Y015548D01*
X035258Y015509D01*
X035218D01*
X035258Y015468D01*
X035218Y015429D01*
X035258D01*
X035298Y015388D01*
X035306Y016046D02*
X035346Y016086D01*
X035386D01*
X035346Y016126D01*
X035386Y016166D01*
X035346D01*
X035306Y016206D01*
X035266Y016166D01*
X035226D01*
X035266Y016126D01*
X035226Y016086D01*
X035266D01*
X035306Y016046D01*
X033361Y020074D02*
X033401Y020114D01*
X033441D01*
X033401Y020154D01*
X033441Y020194D01*
X033401D01*
X033361Y020234D01*
X033321Y020194D01*
X033281D01*
X033321Y020154D01*
X033281Y020114D01*
X033321D01*
X033361Y020074D01*
X032375Y018471D02*
X032415Y018511D01*
X032455D01*
X032415Y018551D01*
X032455Y018591D01*
X032415D01*
X032375Y018631D01*
X032335Y018591D01*
X032295D01*
X032335Y018551D01*
X032295Y018511D01*
X032335D01*
X032375Y018471D01*
Y017947D02*
X032415Y017987D01*
X032455D01*
X032415Y018027D01*
X032455Y018067D01*
X032415D01*
X032375Y018107D01*
X032335Y018067D01*
X032295D01*
X032335Y018027D01*
X032295Y017987D01*
X032335D01*
X032375Y017947D01*
X032857D02*
X032897Y017987D01*
X032937D01*
X032897Y018027D01*
X032937Y018067D01*
X032897D01*
X032857Y018107D01*
X032817Y018067D01*
X032777D01*
X032817Y018027D01*
X032777Y017987D01*
X032817D01*
X032857Y017947D01*
X031893D02*
X031933Y017987D01*
X031973D01*
X031933Y018027D01*
X031973Y018067D01*
X031933D01*
X031893Y018107D01*
X031853Y018067D01*
X031813D01*
X031853Y018027D01*
X031813Y017987D01*
X031853D01*
X031893Y017947D01*
X032857Y018471D02*
X032897Y018511D01*
X032937D01*
X032897Y018551D01*
X032937Y018591D01*
X032897D01*
X032857Y018631D01*
X032817Y018591D01*
X032777D01*
X032817Y018551D01*
X032777Y018511D01*
X032817D01*
X032857Y018471D01*
X031893D02*
X031933Y018511D01*
X031973D01*
X031933Y018551D01*
X031973Y018591D01*
X031933D01*
X031893Y018631D01*
X031853Y018591D01*
X031813D01*
X031853Y018551D01*
X031813Y018511D01*
X031853D01*
X031893Y018471D01*
X030893Y021676D02*
X030933Y021716D01*
X030973D01*
X030933Y021756D01*
X030973Y021796D01*
X030933D01*
X030893Y021836D01*
X030853Y021796D01*
X030813D01*
X030853Y021756D01*
X030813Y021716D01*
X030853D01*
X030893Y021676D01*
Y02218D02*
X030933Y02222D01*
X030973D01*
X030933Y02226D01*
X030973Y0223D01*
X030933D01*
X030893Y02234D01*
X030853Y0223D01*
X030813D01*
X030853Y02226D01*
X030813Y02222D01*
X030853D01*
X030893Y02218D01*
X033361Y02042D02*
X033401Y02046D01*
X033441D01*
X033401Y0205D01*
X033441Y02054D01*
X033401D01*
X033361Y02058D01*
X033321Y02054D01*
X033281D01*
X033321Y0205D01*
X033281Y02046D01*
X033321D01*
X033361Y02042D01*
X024652Y013597D02*
X024692Y013637D01*
X024732D01*
X024692Y013677D01*
X024732Y013717D01*
X024692D01*
X024652Y013757D01*
X024612Y013717D01*
X024572D01*
X024612Y013677D01*
X024572Y013637D01*
X024612D01*
X024652Y013597D01*
X024301D02*
X024341Y013637D01*
X024381D01*
X024341Y013677D01*
X024381Y013717D01*
X024341D01*
X024301Y013757D01*
X024261Y013717D01*
X024221D01*
X024261Y013677D01*
X024221Y013637D01*
X024261D01*
X024301Y013597D01*
X02395D02*
X02399Y013637D01*
X02403D01*
X02399Y013677D01*
X02403Y013717D01*
X02399D01*
X02395Y013757D01*
X02391Y013717D01*
X02387D01*
X02391Y013677D01*
X02387Y013637D01*
X02391D01*
X02395Y013597D01*
X0236D02*
X02364Y013637D01*
X02368D01*
X02364Y013677D01*
X02368Y013717D01*
X02364D01*
X0236Y013757D01*
X02356Y013717D01*
X02352D01*
X02356Y013677D01*
X02352Y013637D01*
X02356D01*
X0236Y013597D01*
X022791Y021499D02*
X022831Y021539D01*
X022871D01*
X022831Y021579D01*
X022871Y021619D01*
X022831D01*
X022791Y021659D01*
X022751Y021619D01*
X022711D01*
X022751Y021579D01*
X022711Y021539D01*
X022751D01*
X022791Y021499D01*
X022789Y015705D02*
X022829Y015745D01*
X022869D01*
X022829Y015785D01*
X022869Y015825D01*
X022829D01*
X022789Y015865D01*
X022749Y015825D01*
X022709D01*
X022749Y015785D01*
X022709Y015745D01*
X022749D01*
X022789Y015705D01*
Y017642D02*
X022829Y017682D01*
X022869D01*
X022829Y017722D01*
X022869Y017762D01*
X022829D01*
X022789Y017802D01*
X022749Y017762D01*
X022709D01*
X022749Y017722D01*
X022709Y017682D01*
X022749D01*
X022789Y017642D01*
X026712Y020869D02*
X026752Y020909D01*
X026792D01*
X026752Y020949D01*
X026792Y020989D01*
X026752D01*
X026712Y021029D01*
X026672Y020989D01*
X026632D01*
X026672Y020949D01*
X026632Y020909D01*
X026672D01*
X026712Y020869D01*
X030149Y017522D02*
X030189Y017562D01*
X030229D01*
X030189Y017602D01*
X030229Y017642D01*
X030189D01*
X030149Y017682D01*
X030109Y017642D01*
X030069D01*
X030109Y017602D01*
X030069Y017562D01*
X030109D01*
X030149Y017522D01*
X031231Y021263D02*
X031271Y021303D01*
X031311D01*
X031271Y021343D01*
X031311Y021383D01*
X031271D01*
X031231Y021423D01*
X031191Y021383D01*
X031151D01*
X031191Y021343D01*
X031151Y021303D01*
X031191D01*
X031231Y021263D01*
X022792Y011778D02*
X022832Y011818D01*
X022872D01*
X022832Y011858D01*
X022872Y011898D01*
X022832D01*
X022792Y011938D01*
X022752Y011898D01*
X022712D01*
X022752Y011858D01*
X022712Y011818D01*
X022752D01*
X022792Y011778D01*
X022537D02*
X022577Y011818D01*
X022617D01*
X022577Y011858D01*
X022617Y011898D01*
X022577D01*
X022537Y011938D01*
X022497Y011898D01*
X022457D01*
X022497Y011858D01*
X022457Y011818D01*
X022497D01*
X022537Y011778D01*
X023046D02*
X023086Y011818D01*
X023126D01*
X023086Y011858D01*
X023126Y011898D01*
X023086D01*
X023046Y011938D01*
X023006Y011898D01*
X022966D01*
X023006Y011858D01*
X022966Y011818D01*
X023006D01*
X023046Y011778D01*
X022283D02*
X022323Y011818D01*
X022363D01*
X022323Y011858D01*
X022363Y011898D01*
X022323D01*
X022283Y011938D01*
X022243Y011898D01*
X022203D01*
X022243Y011858D01*
X022203Y011818D01*
X022243D01*
X022283Y011778D01*
X037422Y01743D02*
X037462Y01747D01*
X037502D01*
X037462Y01751D01*
X037502Y01755D01*
X037462D01*
X037422Y01759D01*
X037382Y01755D01*
X037342D01*
X037382Y01751D01*
X037342Y01747D01*
X037382D01*
X037422Y01743D01*
X037418Y021087D02*
X037458Y021127D01*
X037498D01*
X037458Y021167D01*
X037498Y021207D01*
X037458D01*
X037418Y021247D01*
X037378Y021207D01*
X037338D01*
X037378Y021167D01*
X037338Y021127D01*
X037378D01*
X037418Y021087D01*
X039389Y019672D02*
X039429Y019712D01*
X039469D01*
X039429Y019752D01*
X039469Y019792D01*
X039429D01*
X039389Y019832D01*
X039349Y019792D01*
X039309D01*
X039349Y019752D01*
X039309Y019712D01*
X039349D01*
X039389Y019672D01*
X021921Y016066D02*
X021961Y016106D01*
X022001D01*
X021961Y016146D01*
X022001Y016186D01*
X021961D01*
X021921Y016226D01*
X021881Y016186D01*
X021841D01*
X021881Y016146D01*
X021841Y016106D01*
X021881D01*
X021921Y016066D01*
X021922Y019765D02*
X021962Y019805D01*
X022002D01*
X021962Y019845D01*
X022002Y019885D01*
X021962D01*
X021922Y019925D01*
X021882Y019885D01*
X021842D01*
X021882Y019845D01*
X021842Y019805D01*
X021882D01*
X021922Y019765D01*
X024495Y017637D02*
X024535Y017677D01*
X024575D01*
X024535Y017717D01*
X024575Y017757D01*
X024535D01*
X024495Y017797D01*
X024455Y017757D01*
X024415D01*
X024455Y017717D01*
X024415Y017677D01*
X024455D01*
X024495Y017637D01*
X024497Y021404D02*
X024537Y021444D01*
X024577D01*
X024537Y021484D01*
X024577Y021524D01*
X024537D01*
X024497Y021564D01*
X024457Y021524D01*
X024417D01*
X024457Y021484D01*
X024417Y021444D01*
X024457D01*
X024497Y021404D01*
X028168Y020464D02*
X028208Y020503D01*
X028249D01*
X028208Y020543D01*
X028249Y020584D01*
X028208D01*
X028168Y020624D01*
X028128Y020584D01*
X028089D01*
X028128Y020543D01*
X028089Y020503D01*
X028128D01*
X028168Y020464D01*
X027964Y021066D02*
X028004Y021106D01*
X028044D01*
X028004Y021146D01*
X028044Y021186D01*
X028004D01*
X027964Y021226D01*
X027924Y021186D01*
X027884D01*
X027924Y021146D01*
X027884Y021106D01*
X027924D01*
X027964Y021066D01*
X030165Y021062D02*
X030205Y021102D01*
X030245D01*
X030205Y021142D01*
X030245Y021182D01*
X030205D01*
X030165Y021222D01*
X030125Y021182D01*
X030085D01*
X030125Y021142D01*
X030085Y021102D01*
X030125D01*
X030165Y021062D01*
X029944Y019126D02*
X029984Y019166D01*
X030024D01*
X029984Y019206D01*
X030024Y019246D01*
X029984D01*
X029944Y019286D01*
X029904Y019246D01*
X029864D01*
X029904Y019206D01*
X029864Y019166D01*
X029904D01*
X029944Y019126D01*
X028172Y019117D02*
X028212Y019157D01*
X028252D01*
X028212Y019197D01*
X028252Y019237D01*
X028212D01*
X028172Y019277D01*
X028132Y019237D01*
X028092D01*
X028132Y019197D01*
X028092Y019157D01*
X028132D01*
X028172Y019117D01*
X033633Y013364D02*
X033673Y013404D01*
X033713D01*
X033673Y013444D01*
X033713Y013484D01*
X033673D01*
X033633Y013524D01*
X033593Y013484D01*
X033553D01*
X033593Y013444D01*
X033553Y013404D01*
X033593D01*
X033633Y013364D01*
X024791Y014658D02*
X024831Y014698D01*
X024871D01*
X024831Y014738D01*
X024871Y014778D01*
X024831D01*
X024791Y014818D01*
X024751Y014778D01*
X024711D01*
X024751Y014738D01*
X024711Y014698D01*
X024751D01*
X024791Y014658D01*
X027482Y021485D02*
X027522Y021525D01*
X027562D01*
X027522Y021565D01*
X027562Y021605D01*
X027522D01*
X027482Y021645D01*
X027441Y021605D01*
X027401D01*
X027441Y021565D01*
X027401Y021525D01*
X027441D01*
X027482Y021485D01*
X021838Y025129D02*
X021878Y025169D01*
X021918D01*
X021878Y025209D01*
X021918Y025249D01*
X021878D01*
X021838Y025289D01*
X021798Y025249D01*
X021758D01*
X021798Y025209D01*
X021758Y025169D01*
X021798D01*
X021838Y025129D01*
X030885Y025125D02*
X030925Y025165D01*
X030965D01*
X030925Y025205D01*
X030965Y025245D01*
X030925D01*
X030885Y025285D01*
X030845Y025245D01*
X030805D01*
X030845Y025205D01*
X030805Y025165D01*
X030845D01*
X030885Y025125D01*
X033271Y025152D02*
X033311Y025192D01*
X033351D01*
X033311Y025232D01*
X033351Y025272D01*
X033311D01*
X033271Y025312D01*
X033231Y025272D01*
X033191D01*
X033231Y025232D01*
X033191Y025192D01*
X033231D01*
X033271Y025152D01*
X031523Y021967D02*
X031563Y022007D01*
X031603D01*
X031563Y022047D01*
X031603Y022087D01*
X031563D01*
X031523Y022127D01*
X031483Y022087D01*
X031443D01*
X031483Y022047D01*
X031443Y022007D01*
X031483D01*
X031523Y021967D01*
X031959D02*
X031999Y022007D01*
X032039D01*
X031999Y022047D01*
X032039Y022087D01*
X031999D01*
X031959Y022127D01*
X031919Y022087D01*
X031879D01*
X031919Y022047D01*
X031879Y022007D01*
X031919D01*
X031959Y021967D01*
X032395D02*
X032435Y022007D01*
X032475D01*
X032435Y022047D01*
X032475Y022087D01*
X032435D01*
X032395Y022127D01*
X032355Y022087D01*
X032315D01*
X032355Y022047D01*
X032315Y022007D01*
X032355D01*
X032395Y021967D01*
X032831D02*
X032871Y022007D01*
X032911D01*
X032871Y022047D01*
X032911Y022087D01*
X032871D01*
X032831Y022127D01*
X032791Y022087D01*
X032751D01*
X032791Y022047D01*
X032751Y022007D01*
X032791D01*
X032831Y021967D01*
X033267D02*
X033307Y022007D01*
X033347D01*
X033307Y022047D01*
X033347Y022087D01*
X033307D01*
X033267Y022127D01*
X033227Y022087D01*
X033187D01*
X033227Y022047D01*
X033187Y022007D01*
X033227D01*
X033267Y021967D01*
X035172Y020424D02*
X035212Y020464D01*
X035252D01*
X035212Y020504D01*
X035252Y020544D01*
X035212D01*
X035172Y020584D01*
X035132Y020544D01*
X035092D01*
X035132Y020504D01*
X035092Y020464D01*
X035132D01*
X035172Y020424D01*
Y016782D02*
X035212Y016822D01*
X035252D01*
X035212Y016862D01*
X035252Y016902D01*
X035212D01*
X035172Y016942D01*
X035132Y016902D01*
X035092D01*
X035132Y016862D01*
X035092Y016822D01*
X035132D01*
X035172Y016782D01*
X037422Y018453D02*
X037462Y018493D01*
X037502D01*
X037462Y018533D01*
X037502Y018573D01*
X037462D01*
X037422Y018613D01*
X037382Y018573D01*
X037342D01*
X037382Y018533D01*
X037342Y018493D01*
X037382D01*
X037422Y018453D01*
X03595Y017686D02*
X03599Y017726D01*
X03603D01*
X03599Y017766D01*
X03603Y017806D01*
X03599D01*
X03595Y017846D01*
X03591Y017806D01*
X03587D01*
X03591Y017766D01*
X03587Y017726D01*
X03591D01*
X03595Y017686D01*
X035946Y018197D02*
X035986Y018237D01*
X036026D01*
X035986Y018277D01*
X036026Y018317D01*
X035986D01*
X035946Y018357D01*
X035906Y018317D01*
X035866D01*
X035906Y018277D01*
X035866Y018237D01*
X035906D01*
X035946Y018197D01*
X035954Y018709D02*
X035994Y018749D01*
X036034D01*
X035994Y018789D01*
X036034Y018829D01*
X035994D01*
X035954Y018869D01*
X035914Y018829D01*
X035874D01*
X035914Y018789D01*
X035874Y018749D01*
X035914D01*
X035954Y018709D01*
X037422Y022111D02*
X037462Y022151D01*
X037502D01*
X037462Y022191D01*
X037502Y022231D01*
X037462D01*
X037422Y022271D01*
X037382Y022231D01*
X037342D01*
X037382Y022191D01*
X037342Y022151D01*
X037382D01*
X037422Y022111D01*
X035952Y022365D02*
X035992Y022405D01*
X036032D01*
X035992Y022445D01*
X036032Y022485D01*
X035992D01*
X035952Y022525D01*
X035912Y022485D01*
X035872D01*
X035912Y022445D01*
X035872Y022405D01*
X035912D01*
X035952Y022365D01*
Y021853D02*
X035992Y021893D01*
X036032D01*
X035992Y021933D01*
X036032Y021973D01*
X035992D01*
X035952Y022013D01*
X035912Y021973D01*
X035872D01*
X035912Y021933D01*
X035872Y021893D01*
X035912D01*
X035952Y021853D01*
X03595Y021343D02*
X03599Y021383D01*
X03603D01*
X03599Y021423D01*
X03603Y021463D01*
X03599D01*
X03595Y021503D01*
X03591Y021463D01*
X03587D01*
X03591Y021423D01*
X03587Y021383D01*
X03591D01*
X03595Y021343D01*
D76*
X017579Y014437D02*
G03*
X017579Y014437I-00008J0D01*
G01*
Y026248D02*
G03*
X017579Y026248I-00008J0D01*
G01*
Y02487D02*
G03*
X017579Y02487I-00008J0D01*
G01*
Y023492D02*
G03*
X017579Y023492I-00008J0D01*
G01*
Y019161D02*
G03*
X017579Y019161I-00008J0D01*
G01*
Y021917D02*
G03*
X017579Y021917I-00008J0D01*
G01*
Y017783D02*
G03*
X017579Y017783I-00008J0D01*
G01*
Y020539D02*
G03*
X017579Y020539I-00008J0D01*
G01*
Y016012D02*
G03*
X017579Y016012I-00008J0D01*
G01*
M02*
