G04*
G04 #@! TF.GenerationSoftware,Altium Limited,Altium Designer,19.0.15 (446)*
G04*
G04 Layer_Color=128*
%FSTAX24Y24*%
%MOIN*%
G70*
G01*
G75*
%ADD75C,0.0020*%
D75*
X020452Y025157D02*
X020846D01*
X020649Y024961D02*
Y025354D01*
X020452Y026157D02*
X020846D01*
X020649Y025961D02*
Y026354D01*
X023995Y026157D02*
X024389D01*
X024192Y025961D02*
Y026354D01*
X023995Y025157D02*
X024389D01*
X024192Y024961D02*
Y025354D01*
X026357Y026157D02*
X026751D01*
X026554Y025961D02*
Y026354D01*
X026357Y025157D02*
X026751D01*
X026554Y024961D02*
Y025354D01*
X029507Y026157D02*
X029901D01*
X029704Y025961D02*
Y026354D01*
X029507Y025157D02*
X029901D01*
X029704Y024961D02*
Y025354D01*
X031869Y026157D02*
X032263D01*
X032066Y025961D02*
Y026354D01*
X031869Y025157D02*
X032263D01*
X032066Y024961D02*
Y025354D01*
X017322Y014437D02*
X017676D01*
X017499Y01426D02*
Y014614D01*
X017322Y026248D02*
X017676D01*
X017499Y026071D02*
Y026425D01*
X017322Y02487D02*
X017676D01*
X017499Y024693D02*
Y025047D01*
X017322Y023492D02*
X017676D01*
X017499Y023315D02*
Y023669D01*
X017322Y019161D02*
X017676D01*
X017499Y018984D02*
Y019339D01*
X017322Y021917D02*
X017676D01*
X017499Y02174D02*
Y022094D01*
X017322Y017783D02*
X017676D01*
X017499Y017606D02*
Y017961D01*
X017322Y020539D02*
X017676D01*
X017499Y020362D02*
Y020717D01*
X017322Y016012D02*
X017676D01*
X017499Y015835D02*
Y016189D01*
X027575Y016106D02*
X027935D01*
X027755Y015926D02*
Y016286D01*
X030575Y016106D02*
X030935D01*
X030755Y015926D02*
Y016286D01*
X029565Y016106D02*
X029925D01*
X029745Y015926D02*
Y016286D01*
X028585Y016106D02*
X028945D01*
X028765Y015926D02*
Y016286D01*
X026565Y016106D02*
X026925D01*
X026745Y015926D02*
Y016286D01*
X038889Y01676D02*
X039007D01*
X038948Y016701D02*
Y016819D01*
X040822Y016096D02*
X04094D01*
X040881Y016037D02*
Y016156D01*
X040474Y016096D02*
X040592D01*
X040533Y016037D02*
Y016156D01*
X040125Y016096D02*
X040243D01*
X040184Y016037D02*
Y016156D01*
X04046Y023256D02*
X040578D01*
X040519Y023197D02*
Y023315D01*
X025314Y02522D02*
X025432D01*
X025373Y025161D02*
Y02528D01*
X027672Y025232D02*
X027791D01*
X027731Y025173D02*
Y025291D01*
X032361Y014354D02*
X03248D01*
X03242Y014295D02*
Y014413D01*
X032361Y01674D02*
X03248D01*
X03242Y016681D02*
Y016799D01*
X022731Y019528D02*
X02285D01*
X022791Y019468D02*
Y019587D01*
X034391Y011894D02*
X034509D01*
X03445Y011835D02*
Y011953D01*
X033569Y011894D02*
X033687D01*
X033628Y011835D02*
Y011953D01*
X032754Y011894D02*
X032872D01*
X032813Y011835D02*
Y011953D01*
X031959Y011894D02*
X032077D01*
X032018Y011835D02*
Y011953D01*
X037082Y020547D02*
X0372D01*
X037141Y020488D02*
Y020606D01*
X03746Y020547D02*
X037578D01*
X037519Y020488D02*
Y020606D01*
X036704Y020547D02*
X036822D01*
X036763Y020488D02*
Y020606D01*
X038889Y021591D02*
X039007D01*
X038948Y021532D02*
Y02165D01*
X038889Y022272D02*
X039007D01*
X038948Y022213D02*
Y022331D01*
X039696Y021591D02*
X039814D01*
X039755Y021532D02*
Y02165D01*
X039696Y022272D02*
X039814D01*
X039755Y022213D02*
Y022331D01*
X038865Y026283D02*
X038983D01*
X038924Y026224D02*
Y026343D01*
X039546Y026283D02*
X039665D01*
X039606Y026224D02*
Y026343D01*
X038865Y025866D02*
X038983D01*
X038924Y025807D02*
Y025925D01*
X039546Y025866D02*
X039665D01*
X039606Y025807D02*
Y025925D01*
X038928Y014988D02*
X039046D01*
X038987Y014929D02*
Y015047D01*
X039609Y014988D02*
X039728D01*
X039669Y014929D02*
Y015047D01*
X038928Y014437D02*
X039046D01*
X038987Y014378D02*
Y014496D01*
X039609Y014437D02*
X039728D01*
X039669Y014378D02*
Y014496D01*
X037401Y012047D02*
X037519D01*
X03746Y011988D02*
Y012106D01*
X03672Y012047D02*
X036838D01*
X036779Y011988D02*
Y012106D01*
X037401Y012854D02*
X037519D01*
X03746Y012795D02*
Y012913D01*
X03672Y012854D02*
X036838D01*
X036779Y012795D02*
Y012913D01*
X018306Y012634D02*
X018424D01*
X018365Y012575D02*
Y012693D01*
X017334Y012634D02*
X017452D01*
X017393Y012575D02*
Y012693D01*
X016361Y012634D02*
X01648D01*
X01642Y012575D02*
Y012693D01*
X015389Y012634D02*
X015507D01*
X015448Y012575D02*
Y012693D01*
X018306Y011677D02*
X018424D01*
X018365Y011618D02*
Y011736D01*
X017334Y011677D02*
X017452D01*
X017393Y011618D02*
Y011736D01*
X016361Y011677D02*
X01648D01*
X01642Y011618D02*
Y011736D01*
X015389Y011677D02*
X015507D01*
X015448Y011618D02*
Y011736D01*
X035011Y01419D02*
X035129D01*
X03507Y014131D02*
Y01425D01*
X034263Y01419D02*
X034381D01*
X034322Y014131D02*
Y01425D01*
X034637Y01419D02*
X034755D01*
X034696Y014131D02*
Y01425D01*
X035239Y015468D02*
X035357D01*
X035298Y015409D02*
Y015528D01*
X035247Y016126D02*
X035365D01*
X035306Y016067D02*
Y016185D01*
X033302Y020154D02*
X03342D01*
X033361Y020094D02*
Y020213D01*
X032316Y018551D02*
X032434D01*
X032375Y018492D02*
Y01861D01*
X032316Y018027D02*
X032434D01*
X032375Y017968D02*
Y018087D01*
X032798Y018027D02*
X032917D01*
X032857Y017968D02*
Y018087D01*
X031834Y018027D02*
X031952D01*
X031893Y017968D02*
Y018087D01*
X032798Y018551D02*
X032917D01*
X032857Y018492D02*
Y01861D01*
X031834Y018551D02*
X031952D01*
X031893Y018492D02*
Y01861D01*
X030834Y021756D02*
X030952D01*
X030893Y021697D02*
Y021815D01*
X030834Y02226D02*
X030952D01*
X030893Y022201D02*
Y022319D01*
X033302Y0205D02*
X03342D01*
X033361Y020441D02*
Y020559D01*
X024593Y013677D02*
X024711D01*
X024652Y013618D02*
Y013736D01*
X024242Y013677D02*
X02436D01*
X024301Y013618D02*
Y013736D01*
X023891Y013677D02*
X024009D01*
X02395Y013618D02*
Y013736D01*
X023541Y013677D02*
X023659D01*
X0236Y013618D02*
Y013736D01*
X022731Y021579D02*
X02285D01*
X022791Y02152D02*
Y021638D01*
X02273Y015785D02*
X022848D01*
X022789Y015726D02*
Y015844D01*
X02273Y017722D02*
X022848D01*
X022789Y017663D02*
Y017781D01*
X026653Y020949D02*
X026771D01*
X026712Y02089D02*
Y021008D01*
X03009Y017602D02*
X030208D01*
X030149Y017543D02*
Y017661D01*
X031172Y021343D02*
X031291D01*
X031231Y021283D02*
Y021402D01*
X022733Y011858D02*
X022851D01*
X022792Y011799D02*
Y011917D01*
X022478Y011858D02*
X022596D01*
X022537Y011799D02*
Y011917D01*
X022987Y011858D02*
X023106D01*
X023046Y011799D02*
Y011917D01*
X022224Y011858D02*
X022342D01*
X022283Y011799D02*
Y011917D01*
X037363Y01751D02*
X037482D01*
X037422Y017451D02*
Y017569D01*
X037359Y021167D02*
X037477D01*
X037418Y021108D02*
Y021226D01*
X03933Y019752D02*
X039448D01*
X039389Y019693D02*
Y019811D01*
X021862Y016146D02*
X02198D01*
X021921Y016087D02*
Y016206D01*
X021863Y019845D02*
X021981D01*
X021922Y019786D02*
Y019905D01*
X024436Y017717D02*
X024554D01*
X024495Y017657D02*
Y017776D01*
X024438Y021484D02*
X024556D01*
X024497Y021425D02*
Y021543D01*
X028109Y020543D02*
X028228D01*
X028168Y020484D02*
Y020603D01*
X027905Y021146D02*
X028023D01*
X027964Y021087D02*
Y021205D01*
X030106Y021142D02*
X030224D01*
X030165Y021083D02*
Y021201D01*
X029885Y019206D02*
X030003D01*
X029944Y019147D02*
Y019265D01*
X028113Y019197D02*
X028231D01*
X028172Y019138D02*
Y019256D01*
X033574Y013444D02*
X033692D01*
X033633Y013385D02*
Y013503D01*
X024732Y014738D02*
X02485D01*
X024791Y014679D02*
Y014797D01*
X027422Y021565D02*
X027541D01*
X027482Y021506D02*
Y021624D01*
X021779Y025209D02*
X021897D01*
X021838Y02515D02*
Y025268D01*
X030826Y025205D02*
X030944D01*
X030885Y025146D02*
Y025264D01*
X033212Y025232D02*
X03333D01*
X033271Y025173D02*
Y025291D01*
X031464Y022047D02*
X031582D01*
X031523Y021988D02*
Y022106D01*
X0319Y022047D02*
X032018D01*
X031959Y021988D02*
Y022106D01*
X032336Y022047D02*
X032454D01*
X032395Y021988D02*
Y022106D01*
X032772Y022047D02*
X03289D01*
X032831Y021988D02*
Y022106D01*
X033208Y022047D02*
X033326D01*
X033267Y021988D02*
Y022106D01*
X035113Y020504D02*
X035231D01*
X035172Y020445D02*
Y020563D01*
X035113Y016862D02*
X035231D01*
X035172Y016803D02*
Y016921D01*
X037363Y018533D02*
X037482D01*
X037422Y018474D02*
Y018593D01*
X035891Y017766D02*
X036009D01*
X03595Y017707D02*
Y017825D01*
X035887Y018277D02*
X036005D01*
X035946Y018218D02*
Y018336D01*
X035895Y018789D02*
X036013D01*
X035954Y01873D02*
Y018848D01*
X037363Y022191D02*
X037481D01*
X037422Y022132D02*
Y02225D01*
X035893Y022445D02*
X036011D01*
X035952Y022386D02*
Y022504D01*
X035893Y021933D02*
X036011D01*
X035952Y021874D02*
Y021992D01*
X035891Y021423D02*
X036009D01*
X03595Y021364D02*
Y021482D01*
M02*
