G04*
G04 #@! TF.GenerationSoftware,Altium Limited,Altium Designer,19.0.15 (446)*
G04*
G04 Layer_Color=32768*
%FSTAX24Y24*%
%MOIN*%
G70*
G01*
G75*
%ADD11C,0.0039*%
%ADD15C,0.0100*%
%ADD74C,0.0020*%
D11*
X028239Y021242D02*
Y021616D01*
X028052Y021429D02*
X028426D01*
X027989Y020919D02*
X028489D01*
X027989Y021939D02*
X028489D01*
Y020919D02*
Y021939D01*
X027989Y020919D02*
Y021939D01*
X028794Y021242D02*
Y021616D01*
X028607Y021429D02*
X028981D01*
X028544Y021939D02*
X029044D01*
X028544Y020919D02*
X029044D01*
X028544D02*
Y021939D01*
X029044Y020919D02*
Y021939D01*
X029346Y021242D02*
Y021616D01*
X029159Y021429D02*
X029533D01*
X029096Y021939D02*
X029596D01*
X029096Y020919D02*
X029596D01*
X029096D02*
Y021939D01*
X029596Y020919D02*
Y021939D01*
X029893Y021242D02*
Y021616D01*
X029706Y021429D02*
X03008D01*
X029643Y020919D02*
X030143D01*
X029643Y021939D02*
X030143D01*
Y020919D02*
Y021939D01*
X029643Y020919D02*
Y021939D01*
X027013Y021906D02*
X027387D01*
X0272Y021719D02*
Y022093D01*
X02771Y021656D02*
Y022156D01*
X02669Y021656D02*
Y022156D01*
X02771D01*
X02669Y021656D02*
X02771D01*
X028261Y019587D02*
X028635D01*
X028448Y0194D02*
Y019774D01*
X028958Y019337D02*
Y019837D01*
X027938Y019337D02*
Y019837D01*
X028958D01*
X027938Y019337D02*
X028958D01*
X028261Y020224D02*
X028635D01*
X028448Y020037D02*
Y020411D01*
X028958Y019974D02*
Y020474D01*
X027938Y019974D02*
Y020474D01*
X028958D01*
X027938Y019974D02*
X028958D01*
X029944Y019683D02*
Y020057D01*
X029757Y01987D02*
X030131D01*
X029694Y02038D02*
X030194D01*
X029694Y01936D02*
X030194D01*
X029694D02*
Y02038D01*
X030194Y01936D02*
Y02038D01*
X036493Y017766D02*
X036867D01*
X03668Y017579D02*
Y017953D01*
X03719Y017516D02*
Y018016D01*
X03617Y017516D02*
Y018016D01*
X03719D01*
X03617Y017516D02*
X03719D01*
X036493Y018277D02*
X036867D01*
X03668Y01809D02*
Y018464D01*
X03617Y018027D02*
Y018527D01*
X03719Y018027D02*
Y018527D01*
X03617Y018027D02*
X03719D01*
X03617Y018527D02*
X03719D01*
X036493Y018789D02*
X036867D01*
X03668Y018602D02*
Y018976D01*
X03617Y018539D02*
Y019039D01*
X03719Y018539D02*
Y019039D01*
X03617Y018539D02*
X03719D01*
X03617Y019039D02*
X03719D01*
X036493Y021423D02*
X036867D01*
X03668Y021236D02*
Y02161D01*
X03719Y021173D02*
Y021673D01*
X03617Y021173D02*
Y021673D01*
X03719D01*
X03617Y021173D02*
X03719D01*
X036493Y022447D02*
X036867D01*
X03668Y02226D02*
Y022634D01*
X03617Y022197D02*
Y022697D01*
X03719Y022197D02*
Y022697D01*
X03617Y022197D02*
X03719D01*
X03617Y022697D02*
X03719D01*
X036493Y021935D02*
X036867D01*
X03668Y021748D02*
Y022122D01*
X03617Y021685D02*
Y022185D01*
X03719Y021685D02*
Y022185D01*
X03617Y021685D02*
X03719D01*
X03617Y022185D02*
X03719D01*
X042144Y016031D02*
X04238D01*
X042262Y015913D02*
Y01615D01*
X042144Y020343D02*
X04238D01*
X042262Y020224D02*
Y020461D01*
X042144Y024654D02*
X04238D01*
X042262Y024535D02*
Y024772D01*
X037026Y020951D02*
Y023214D01*
X033984Y020951D02*
Y023214D01*
Y020951D02*
X037026D01*
X033984Y023214D02*
X037026D01*
X035303Y022063D02*
X035697D01*
X0355Y021866D02*
Y02226D01*
X037025Y017293D02*
Y019557D01*
X033983Y017293D02*
Y019557D01*
Y017293D02*
X037025D01*
X033983Y019557D02*
X037025D01*
X035302Y018406D02*
X035696D01*
X035499Y018209D02*
Y018602D01*
X021828Y023514D02*
Y024534D01*
X022328Y023514D02*
Y024534D01*
X021828Y023514D02*
X022328D01*
X021828Y024534D02*
X022328D01*
X021891Y024024D02*
X022265D01*
X022078Y023837D02*
Y024211D01*
X020751Y023518D02*
Y024538D01*
X020251Y023518D02*
Y024538D01*
X020751D01*
X020251Y023518D02*
X020751D01*
X020314Y024028D02*
X020688D01*
X020501Y023841D02*
Y024215D01*
X021048Y023518D02*
Y024538D01*
X021548Y023518D02*
Y024538D01*
X021048Y023518D02*
X021548D01*
X021048Y024538D02*
X021548D01*
X021111Y024028D02*
X021485D01*
X021298Y023841D02*
Y024215D01*
X020251Y022025D02*
Y023045D01*
X020751Y022025D02*
Y023045D01*
X020251Y022025D02*
X020751D01*
X020251Y023045D02*
X020751D01*
X020314Y022535D02*
X020688D01*
X020501Y022348D02*
Y022722D01*
X021137Y019951D02*
X022157D01*
X021137Y020451D02*
X022157D01*
Y019951D02*
Y020451D01*
X021137Y019951D02*
Y020451D01*
X021647Y020014D02*
Y020388D01*
X02146Y020201D02*
X021834D01*
X021135Y021131D02*
X022155D01*
X021135Y020631D02*
X022155D01*
X021135D02*
Y021131D01*
X022155Y020631D02*
Y021131D01*
X021645Y020694D02*
Y021068D01*
X021458Y020881D02*
X021832D01*
X021137Y021272D02*
X022157D01*
X021137Y021772D02*
X022157D01*
Y021272D02*
Y021772D01*
X021137Y021272D02*
Y021772D01*
X021647Y021335D02*
Y021709D01*
X02146Y021522D02*
X021834D01*
X021137Y021932D02*
X022157D01*
X021137Y022432D02*
X022157D01*
Y021932D02*
Y022432D01*
X021137Y021932D02*
Y022432D01*
X021647Y021995D02*
Y022369D01*
X02146Y022182D02*
X021834D01*
X021137Y022593D02*
X022157D01*
X021137Y023093D02*
X022157D01*
Y022593D02*
Y023093D01*
X021137Y022593D02*
Y023093D01*
X021647Y022656D02*
Y02303D01*
X02146Y022843D02*
X021834D01*
X020497Y020654D02*
Y021054D01*
X020297Y020854D02*
X020697D01*
X020135Y019977D02*
Y021731D01*
Y021731D02*
X020857D01*
X020859Y019977D02*
Y021731D01*
X020135Y019977D02*
X020859D01*
X020249Y01823D02*
Y01925D01*
X020749Y01823D02*
Y01925D01*
X020249Y01823D02*
X020749D01*
X020249Y01925D02*
X020749D01*
X020312Y01874D02*
X020686D01*
X020499Y018553D02*
Y018927D01*
X020496Y016934D02*
Y017334D01*
X020296Y017134D02*
X020696D01*
X020134Y016257D02*
Y018011D01*
Y018011D02*
X020856D01*
X020858Y016257D02*
Y018011D01*
X020134Y016257D02*
X020858D01*
X021136Y016242D02*
X022156D01*
X021136Y016742D02*
X022156D01*
Y016242D02*
Y016742D01*
X021136Y016242D02*
Y016742D01*
X021646Y016305D02*
Y016679D01*
X021459Y016492D02*
X021833D01*
X021135Y017388D02*
X022155D01*
X021135Y016888D02*
X022155D01*
X021135D02*
Y017388D01*
X022155Y016888D02*
Y017388D01*
X021645Y016951D02*
Y017325D01*
X021458Y017138D02*
X021832D01*
X021135Y017541D02*
X022155D01*
X021135Y018041D02*
X022155D01*
Y017541D02*
Y018041D01*
X021135Y017541D02*
Y018041D01*
X021645Y017604D02*
Y017978D01*
X021458Y017791D02*
X021832D01*
X021135Y018813D02*
X022155D01*
X021135Y019313D02*
X022155D01*
Y018813D02*
Y019313D01*
X021135Y018813D02*
Y019313D01*
X021645Y018876D02*
Y01925D01*
X021458Y019063D02*
X021832D01*
X021135Y018183D02*
X022155D01*
X021135Y018683D02*
X022155D01*
Y018183D02*
Y018683D01*
X021135Y018183D02*
Y018683D01*
X021645Y018246D02*
Y01862D01*
X021458Y018433D02*
X021832D01*
X023231Y016579D02*
Y016972D01*
X023035Y016776D02*
X023428D01*
X022464Y016087D02*
X023999D01*
X022464Y017465D02*
X023999D01*
Y016087D02*
Y017465D01*
X022464Y016087D02*
Y017465D01*
X023231Y018492D02*
Y018886D01*
X023035Y018689D02*
X023428D01*
X022464Y018D02*
X023999D01*
X022464Y019378D02*
X023999D01*
Y018D02*
Y019378D01*
X022464Y018D02*
Y019378D01*
X023231Y020315D02*
Y020709D01*
X023035Y020512D02*
X023428D01*
X022464Y019823D02*
X023999D01*
X022464Y021201D02*
X023999D01*
Y019823D02*
Y021201D01*
X022464Y019823D02*
Y021201D01*
X023233Y022272D02*
Y022665D01*
X023037Y022469D02*
X02343D01*
X022466Y02178D02*
X024001D01*
X022466Y023157D02*
X024001D01*
Y02178D02*
Y023157D01*
X022466Y02178D02*
Y023157D01*
X024745Y016541D02*
Y017561D01*
X024245Y016541D02*
Y017561D01*
X024745D01*
X024245Y016541D02*
X024745D01*
X024308Y017051D02*
X024682D01*
X024495Y016864D02*
Y017238D01*
X024245Y017896D02*
Y018916D01*
X024745Y017896D02*
Y018916D01*
X024245Y017896D02*
X024745D01*
X024245Y018916D02*
X024745D01*
X024308Y018406D02*
X024682D01*
X024495Y018218D02*
Y018593D01*
X024745Y020281D02*
Y021301D01*
X024245Y020281D02*
Y021301D01*
X024745D01*
X024245Y020281D02*
X024745D01*
X024308Y020791D02*
X024682D01*
X024495Y020604D02*
Y020978D01*
X024247Y021687D02*
Y022707D01*
X024747Y021687D02*
Y022707D01*
X024247Y021687D02*
X024747D01*
X024247Y022707D02*
X024747D01*
X02431Y022197D02*
X024684D01*
X024497Y02201D02*
Y022384D01*
X022088Y02538D02*
Y0264D01*
X021588Y02538D02*
Y0264D01*
X022088D01*
X021588Y02538D02*
X022088D01*
X021651Y02589D02*
X022025D01*
X021838Y025703D02*
Y026077D01*
X033517Y02538D02*
Y0264D01*
X033017Y02538D02*
Y0264D01*
X033517D01*
X033017Y02538D02*
X033517D01*
X03308Y02589D02*
X033454D01*
X033267Y025703D02*
Y026077D01*
X031135Y02538D02*
Y0264D01*
X030635Y02538D02*
Y0264D01*
X031135D01*
X030635Y02538D02*
X031135D01*
X030698Y02589D02*
X031072D01*
X030885Y025703D02*
Y026077D01*
X027985Y02538D02*
Y0264D01*
X027485Y02538D02*
Y0264D01*
X027985D01*
X027485Y02538D02*
X027985D01*
X027548Y02589D02*
X027922D01*
X027735Y025703D02*
Y026077D01*
X025623Y02538D02*
Y0264D01*
X025123Y02538D02*
Y0264D01*
X025623D01*
X025123Y02538D02*
X025623D01*
X025186Y02589D02*
X02556D01*
X025373Y025703D02*
Y026077D01*
X035351Y020746D02*
X036371D01*
X035351Y020246D02*
X036371D01*
X035351D02*
Y020746D01*
X036371Y020246D02*
Y020746D01*
X035861Y020309D02*
Y020683D01*
X035674Y020496D02*
X036048D01*
X033533Y020746D02*
X034553D01*
X033533Y020246D02*
X034553D01*
X033533D02*
Y020746D01*
X034553Y020246D02*
Y020746D01*
X034043Y020309D02*
Y020683D01*
X033856Y020496D02*
X03423D01*
X033532Y017112D02*
X034552D01*
X033532Y016612D02*
X034552D01*
X033532D02*
Y017112D01*
X034552Y016612D02*
Y017112D01*
X034042Y016675D02*
Y017049D01*
X033855Y016862D02*
X034229D01*
X035351Y017112D02*
X036371D01*
X035351Y016612D02*
X036371D01*
X035351D02*
Y017112D01*
X036371Y016612D02*
Y017112D01*
X035861Y016675D02*
Y017049D01*
X035674Y016862D02*
X036048D01*
X034083Y01636D02*
X035103D01*
X034083Y01586D02*
X035103D01*
X034083D02*
Y01636D01*
X035103Y01586D02*
Y01636D01*
X034593Y015923D02*
Y016297D01*
X034406Y01611D02*
X03478D01*
X034503Y014185D02*
X034897D01*
X0347Y013988D02*
Y014382D01*
X034084Y015711D02*
X035104D01*
X034084Y015211D02*
X035104D01*
X034084D02*
Y015711D01*
X035104Y015211D02*
Y015711D01*
X034594Y015274D02*
Y015648D01*
X034407Y015461D02*
X034781D01*
X032302Y01674D02*
X032539D01*
X03242Y016622D02*
Y016858D01*
X033871Y012136D02*
Y013156D01*
X033371Y012136D02*
Y013156D01*
X033871D01*
X033371Y012136D02*
X033871D01*
X033434Y012646D02*
X033808D01*
X033621Y012459D02*
Y012833D01*
X033072Y012136D02*
Y013156D01*
X032572Y012136D02*
Y013156D01*
X033072D01*
X032572Y012136D02*
X033072D01*
X032635Y012646D02*
X033009D01*
X032822Y012459D02*
Y012833D01*
X032273Y012136D02*
Y013156D01*
X031773Y012136D02*
Y013156D01*
X032273D01*
X031773Y012136D02*
X032273D01*
X031836Y012646D02*
X03221D01*
X032023Y012459D02*
Y012833D01*
X030881Y012295D02*
Y012689D01*
X030684Y012492D02*
X031078D01*
X031481Y011562D02*
Y013442D01*
X030281Y011562D02*
Y013442D01*
X031481D01*
X030281Y011542D02*
X031481D01*
X023555Y01291D02*
X024575D01*
X023555Y01341D02*
X024575D01*
Y01291D02*
Y01341D01*
X023555Y01291D02*
Y01341D01*
X024065Y012973D02*
Y013347D01*
X023878Y01316D02*
X024252D01*
X025316Y013671D02*
X02571D01*
X025513Y013474D02*
Y013867D01*
X024864Y012982D02*
Y01436D01*
X026163Y012982D02*
Y01436D01*
X024864Y012982D02*
X026163D01*
X024864Y01436D02*
X026163D01*
X028606Y012737D02*
Y01313D01*
X028409Y012934D02*
X028802D01*
X027296Y011624D02*
X029916D01*
Y014244D01*
X027296Y011624D02*
Y014244D01*
X029916D01*
X026661Y01165D02*
Y01205D01*
X026461Y01185D02*
X026861D01*
X026298Y010973D02*
Y012728D01*
Y012727D02*
X027021D01*
X027023Y010973D02*
Y012728D01*
X026298Y010973D02*
X027023D01*
X025674Y011502D02*
Y012522D01*
X025174Y011502D02*
Y012522D01*
X025674D01*
X025174Y011502D02*
X025674D01*
X025237Y012012D02*
X025611D01*
X025424Y011825D02*
Y012199D01*
X023555Y010969D02*
X024735D01*
X023555Y012669D02*
X024735D01*
X023555Y010969D02*
Y012669D01*
X024735Y010969D02*
Y012669D01*
X023948Y011819D02*
X024342D01*
X024145Y011622D02*
Y012016D01*
X024694Y013951D02*
Y014971D01*
X024194Y013951D02*
Y014971D01*
X024694D01*
X024194Y013951D02*
X024694D01*
X024257Y014461D02*
X024631D01*
X024444Y014274D02*
Y014648D01*
X024037Y013951D02*
Y014971D01*
X023537Y013951D02*
Y014971D01*
X024037D01*
X023537Y013951D02*
X024037D01*
X0236Y014461D02*
X023974D01*
X023787Y014274D02*
Y014648D01*
X021649Y014843D02*
X022043D01*
X021846Y014646D02*
Y015039D01*
X020546Y014263D02*
X023146D01*
Y015413D01*
X020546Y014263D02*
Y015413D01*
Y015423D01*
X023146D01*
Y015413D02*
Y015423D01*
X019476Y013599D02*
Y013999D01*
X019276Y013799D02*
X019676D01*
X019838Y012922D02*
Y014676D01*
X019116Y012922D02*
X019838D01*
X019113Y012922D02*
Y014676D01*
Y014676D02*
X019838D01*
X020063Y012075D02*
X023243D01*
X020063D02*
Y014035D01*
X023243D01*
Y012075D02*
Y014035D01*
X021456Y013055D02*
X02185D01*
X021653Y012858D02*
Y013252D01*
X032302Y014354D02*
X032539D01*
X03242Y014236D02*
Y014472D01*
X017499Y014319D02*
Y014555D01*
X017381Y014437D02*
X017617D01*
X017499Y02613D02*
Y026366D01*
X017381Y026248D02*
X017617D01*
X017499Y024752D02*
Y024988D01*
X017381Y02487D02*
X017617D01*
X017499Y023374D02*
Y02361D01*
X017381Y023492D02*
X017617D01*
X017499Y019043D02*
Y01928D01*
X017381Y019161D02*
X017617D01*
X017499Y021602D02*
Y021839D01*
X017381Y02172D02*
X017617D01*
X017499Y017665D02*
Y017902D01*
X017381Y017783D02*
X017617D01*
X017499Y020421D02*
Y020657D01*
X017381Y020539D02*
X017617D01*
X017499Y015894D02*
Y01613D01*
X017381Y016012D02*
X017617D01*
X026661Y013289D02*
Y013663D01*
X026474Y013476D02*
X026848D01*
X026411Y013986D02*
X026911D01*
X026411Y012966D02*
X026911D01*
Y013986D01*
X026411Y012966D02*
Y013986D01*
X028869Y02026D02*
X029263D01*
X029066Y020063D02*
Y020457D01*
X027137Y018331D02*
Y022189D01*
X030995Y018331D02*
Y022189D01*
X027137Y018331D02*
X030995D01*
X027137Y022189D02*
X030995D01*
D15*
X040262Y014031D02*
Y018032D01*
X040312Y014031D02*
X045419D01*
X040312Y018032D02*
X045419D01*
Y014031D02*
Y018032D01*
X040262Y018343D02*
Y022343D01*
X040312Y018343D02*
X045419D01*
X040312Y022343D02*
X045419D01*
Y018343D02*
Y022343D01*
X040262Y022654D02*
Y026654D01*
X040312Y022654D02*
X045419D01*
X040312Y026654D02*
X045419D01*
Y022654D02*
Y026654D01*
D74*
X03535Y013348D02*
Y015031D01*
X03407Y013348D02*
Y015031D01*
X03535D01*
X03407Y013348D02*
X03535D01*
M02*
