M48
;Layer_Color=9474304
;FILE_FORMAT=2:4
INCH,LZ
;TYPE=PLATED
T1F00S00C0.0118
T2F00S00C0.0360
%
T01
X012Y0115
X01225Y012
X0135Y0125
Y012769
X0145Y012874
Y0125
Y0121
Y013262
X014449Y014882
X0155Y0155
X01225Y015
X0115Y0135
X0105
X016915Y013601
X017175
X017415
Y013898
X017165
X016915
Y014194
X017155
X017405
X01725Y013
X01675
X01625Y012
X0165Y0115
X01675Y011
X01725
X0175Y0105
X0165
X01625Y011
X02075
X020748Y010344
X0205Y0145
X021
X0215
X022
X02225Y015
X02175
X022Y0155
X0205
X02
X02025Y015
X0195Y0145
X019016Y014148
X019Y0135
X015157Y015787
X014555
X013952
X013349
X012746
T02
X010906Y011765
Y012946
Y014134
X021693Y011936
Y010755
M30
