G04*
G04 #@! TF.GenerationSoftware,Altium Limited,Altium Designer,19.0.15 (446)*
G04*
G04 Layer_Color=8388736*
%FSTAX24Y24*%
%MOIN*%
G70*
G01*
G75*
%ADD26R,0.0434X0.0395*%
%ADD27R,0.1104X0.0671*%
%ADD28R,0.1104X0.0552*%
%ADD29R,0.1891X0.1064*%
%ADD30R,0.0946X0.0671*%
%ADD31R,0.0395X0.0434*%
%ADD32R,0.0316X0.0474*%
%ADD33R,0.0926X0.2560*%
%ADD34R,0.0552X0.0474*%
%ADD35C,0.0592*%
G04:AMPARAMS|DCode=36|XSize=86.7mil|YSize=86.7mil|CornerRadius=23.7mil|HoleSize=0mil|Usage=FLASHONLY|Rotation=0.000|XOffset=0mil|YOffset=0mil|HoleType=Round|Shape=RoundedRectangle|*
%AMROUNDEDRECTD36*
21,1,0.0867,0.0394,0,0,0.0*
21,1,0.0394,0.0867,0,0,0.0*
1,1,0.0474,0.0197,-0.0197*
1,1,0.0474,-0.0197,-0.0197*
1,1,0.0474,-0.0197,0.0197*
1,1,0.0474,0.0197,0.0197*
%
%ADD36ROUNDEDRECTD36*%
G04:AMPARAMS|DCode=37|XSize=86.7mil|YSize=106.4mil|CornerRadius=23.7mil|HoleSize=0mil|Usage=FLASHONLY|Rotation=0.000|XOffset=0mil|YOffset=0mil|HoleType=Round|Shape=RoundedRectangle|*
%AMROUNDEDRECTD37*
21,1,0.0867,0.0591,0,0,0.0*
21,1,0.0394,0.1064,0,0,0.0*
1,1,0.0474,0.0197,-0.0295*
1,1,0.0474,-0.0197,-0.0295*
1,1,0.0474,-0.0197,0.0295*
1,1,0.0474,0.0197,0.0295*
%
%ADD37ROUNDEDRECTD37*%
D26*
X071657Y045893D02*
D03*
Y046444D02*
D03*
X069807Y046286D02*
D03*
Y046838D02*
D03*
X072248Y046444D02*
D03*
Y045893D02*
D03*
X068488Y044857D02*
D03*
Y045409D02*
D03*
X067937Y044857D02*
D03*
Y045409D02*
D03*
X069571Y04231D02*
D03*
Y042861D02*
D03*
X070594Y044436D02*
D03*
Y043885D02*
D03*
D27*
X073153Y045735D02*
D03*
Y046916D02*
D03*
D28*
X068586Y041857D02*
D03*
Y04292D02*
D03*
D29*
X0665Y04546D02*
D03*
Y043412D02*
D03*
D30*
X06709Y042113D02*
D03*
X065437D02*
D03*
D31*
X068468Y043846D02*
D03*
X067917D02*
D03*
D32*
X069945Y044869D02*
D03*
X069571D02*
D03*
X069197D02*
D03*
Y043846D02*
D03*
X069571D02*
D03*
X069945D02*
D03*
D33*
X071588Y043452D02*
D03*
X073222D02*
D03*
D34*
X070594Y043079D02*
D03*
Y041778D02*
D03*
X065043Y04552D02*
D03*
Y044219D02*
D03*
D35*
X067484Y04672D02*
D03*
X066697D02*
D03*
X065909D02*
D03*
X065122D02*
D03*
D36*
X063783Y045153D02*
D03*
Y046594D02*
D03*
Y043712D02*
D03*
Y042271D02*
D03*
D37*
X074604Y043452D02*
D03*
Y045412D02*
D03*
M02*
