G04*
G04 #@! TF.GenerationSoftware,Altium Limited,Altium Designer,19.0.15 (446)*
G04*
G04 Layer_Color=2752767*
%FSTAX24Y24*%
%MOIN*%
G70*
G01*
G75*
%ADD52C,0.0020*%
%ADD53C,0.0027*%
D52*
X067404Y04664D02*
Y0468D01*
X067564D01*
Y04664D01*
X067404D01*
X066617D02*
Y0468D01*
X066777D01*
Y04664D01*
X066617D01*
X065829D02*
Y0468D01*
X065989D01*
Y04664D01*
X065829D01*
X065042D02*
Y0468D01*
X065202D01*
Y04664D01*
X065042D01*
X072248Y044986D02*
X072168Y045146D01*
X072328D01*
X072248Y044986D01*
X071815D02*
X071735Y045146D01*
X071895D01*
X071815Y044986D01*
X071421D02*
X071341Y045146D01*
X071501D01*
X071421Y044986D01*
X064649Y04471D02*
X064569Y04487D01*
X064729D01*
X064649Y04471D01*
X065004D02*
X064924Y04487D01*
X065084D01*
X065004Y04471D01*
X068311Y041797D02*
X068231Y041957D01*
X068391D01*
X068311Y041797D01*
X067957D02*
X067877Y041957D01*
X068037D01*
X067957Y041797D01*
X069295Y0466D02*
X069215Y04676D01*
X069375D01*
X069295Y0466D01*
Y046994D02*
X069215Y047154D01*
X069375D01*
X069295Y046994D01*
X067878Y045813D02*
X067798Y045973D01*
X067958D01*
X067878Y045813D01*
Y046167D02*
X067798Y046327D01*
X067958D01*
X067878Y046167D01*
X069098Y04534D02*
X069018Y0455D01*
X069178D01*
X069098Y04534D01*
X070083D02*
X070003Y0455D01*
X070163D01*
X070083Y04534D01*
X069728D02*
X069648Y0455D01*
X069808D01*
X069728Y04534D01*
X072366Y045458D02*
X072286Y045618D01*
X072446D01*
X072366Y045458D01*
X069413Y045813D02*
X069333Y045973D01*
X069493D01*
X069413Y045813D01*
X070171Y046197D02*
X070091Y046357D01*
X070251D01*
X070171Y046197D01*
D53*
X063863Y045153D02*
G03*
X063863Y045153I-00008J0D01*
G01*
Y046594D02*
G03*
X063863Y046594I-00008J0D01*
G01*
Y043712D02*
G03*
X063863Y043712I-00008J0D01*
G01*
X074684Y043452D02*
G03*
X074684Y043452I-00008J0D01*
G01*
Y045412D02*
G03*
X074684Y045412I-00008J0D01*
G01*
X063863Y042271D02*
G03*
X063863Y042271I-00008J0D01*
G01*
M02*
