G04*
G04 #@! TF.GenerationSoftware,Altium Limited,Altium Designer,19.0.15 (446)*
G04*
G04 Layer_Color=65535*
%FSTAX24Y24*%
%MOIN*%
G70*
G01*
G75*
%ADD10C,0.0039*%
%ADD11C,0.0098*%
%ADD12C,0.0070*%
%ADD13C,0.0079*%
%ADD14R,0.0140X0.1100*%
%ADD15R,0.0690X0.0180*%
G36*
X071805Y045321D02*
X071805Y045316D01*
Y045311D01*
X071804Y0453D01*
X071802Y045288D01*
X071801Y045274D01*
X071798Y045262D01*
X071796Y045256D01*
X071795Y045251D01*
Y04525D01*
X071794Y04525D01*
X071792Y045247D01*
X07179Y045242D01*
X071786Y045235D01*
X071781Y045229D01*
X071775Y045222D01*
X071767Y045215D01*
X071758Y045208D01*
X071757D01*
X071757Y045208D01*
X071754Y045205D01*
X071748Y045203D01*
X071741Y0452D01*
X071732Y045197D01*
X071722Y045194D01*
X071712Y045193D01*
X0717Y045192D01*
X0717D01*
X071699D01*
X071696D01*
X071694Y045193D01*
X07169D01*
X071686Y045193D01*
X071676Y045195D01*
X071665Y045199D01*
X071654Y045203D01*
X071642Y04521D01*
X071636Y045214D01*
X071631Y045219D01*
X07163Y045219D01*
X07163Y04522D01*
X071628Y045222D01*
X071626Y045224D01*
X071624Y045227D01*
X071622Y04523D01*
X071619Y045234D01*
X071616Y045239D01*
X071613Y045244D01*
X07161Y04525D01*
X071607Y045257D01*
X071604Y045264D01*
X071602Y045273D01*
X071599Y045281D01*
X071598Y04529D01*
X071596Y0453D01*
X071595Y045299D01*
X071594Y045297D01*
X071592Y045294D01*
X07159Y045289D01*
X071584Y045279D01*
X07158Y045274D01*
X071577Y04527D01*
X071575Y045269D01*
X071573Y045266D01*
X071568Y045262D01*
X071563Y045256D01*
X071555Y04525D01*
X071547Y045243D01*
X071537Y045235D01*
X071525Y045228D01*
X071421Y045162D01*
Y045225D01*
X071501Y045275D01*
X071502D01*
X071503Y045277D01*
X071504Y045278D01*
X071507Y045279D01*
X071513Y045283D01*
X07152Y045288D01*
X071529Y045294D01*
X071538Y0453D01*
X071546Y045307D01*
X071554Y045312D01*
X071554Y045313D01*
X071557Y045314D01*
X07156Y045317D01*
X071564Y045321D01*
X071572Y045329D01*
X071576Y045334D01*
X071579Y045338D01*
X07158Y045339D01*
X07158Y04534D01*
X071582Y045342D01*
X071583Y045345D01*
X071585Y045349D01*
X071587Y045353D01*
X071589Y045361D01*
Y045362D01*
X07159Y045363D01*
Y045365D01*
X07159Y045368D01*
X071591Y045372D01*
Y045376D01*
X071592Y045383D01*
Y045448D01*
X071421D01*
Y045499D01*
X071805D01*
Y045321D01*
D02*
G37*
G36*
X07171Y045095D02*
X071711Y045094D01*
X071712Y045092D01*
X071714Y045089D01*
X071715Y045086D01*
X071717Y045082D01*
X071723Y045072D01*
X071729Y045061D01*
X071737Y04505D01*
X071746Y045038D01*
X071755Y045027D01*
X071756Y045026D01*
X071756Y045026D01*
X071758Y045024D01*
X07176Y045022D01*
X071765Y045017D01*
X071772Y04501D01*
X07178Y045003D01*
X071789Y044996D01*
X071797Y04499D01*
X071807Y044985D01*
Y044954D01*
X071421D01*
Y045001D01*
X071721D01*
X071721Y045002D01*
X071719Y045005D01*
X071715Y045008D01*
X071711Y045013D01*
X071706Y04502D01*
X071701Y045027D01*
X071695Y045036D01*
X071689Y045046D01*
Y045047D01*
X071688Y045047D01*
X071686Y045051D01*
X071683Y045056D01*
X07168Y045063D01*
X071676Y045071D01*
X071672Y045079D01*
X071668Y045087D01*
X071665Y045096D01*
X07171D01*
Y045095D01*
D02*
G37*
G36*
X070405Y046916D02*
X070411D01*
X070417Y046915D01*
X070424Y046915D01*
X070431Y046914D01*
X070447Y046911D01*
X070465Y046907D01*
X070483Y046901D01*
X0705Y046894D01*
X0705Y046893D01*
X070502Y046893D01*
X070504Y046891D01*
X070507Y046889D01*
X070511Y046887D01*
X070515Y046884D01*
X070525Y046877D01*
X070536Y046868D01*
X070548Y046856D01*
X070559Y046844D01*
X070568Y046829D01*
X070569Y046828D01*
X070569Y046827D01*
X07057Y046824D01*
X070572Y046822D01*
X070574Y046817D01*
X070575Y046813D01*
X070577Y046807D01*
X07058Y046801D01*
X070582Y046794D01*
X070584Y046787D01*
X070587Y046772D01*
X07059Y046754D01*
X070591Y046735D01*
Y04673D01*
X070591Y046726D01*
X07059Y046721D01*
X07059Y046715D01*
X070589Y046709D01*
X070587Y046702D01*
X070584Y046687D01*
X070579Y04667D01*
X070576Y046662D01*
X070572Y046654D01*
X070567Y046646D01*
X070562Y046638D01*
X070561Y046638D01*
X070561Y046637D01*
X070559Y046634D01*
X070556Y046632D01*
X070554Y046629D01*
X07055Y046625D01*
X070545Y046621D01*
X070541Y046617D01*
X070535Y046612D01*
X070529Y046608D01*
X070522Y046603D01*
X070515Y046598D01*
X070506Y046595D01*
X070498Y04659D01*
X070489Y046587D01*
X070479Y046583D01*
X070468Y046633D01*
X070468D01*
X070469Y046634D01*
X070471Y046635D01*
X070474Y046636D01*
X070478Y046637D01*
X070482Y046639D01*
X070491Y046643D01*
X070501Y046649D01*
X070511Y046656D01*
X07052Y046664D01*
X070529Y046673D01*
X07053Y046674D01*
X070532Y046677D01*
X070535Y046683D01*
X070539Y04669D01*
X070542Y046699D01*
X070545Y04671D01*
X070548Y046723D01*
X070548Y046737D01*
Y046741D01*
X070548Y046744D01*
Y046748D01*
X070547Y046752D01*
X070545Y046763D01*
X070543Y046774D01*
X070539Y046787D01*
X070534Y046799D01*
X070526Y046811D01*
Y046812D01*
X070525Y046812D01*
X070523Y046816D01*
X070518Y046821D01*
X070511Y046827D01*
X070503Y046834D01*
X070494Y046841D01*
X070482Y046847D01*
X070469Y046853D01*
X070469D01*
X070468Y046853D01*
X070466Y046854D01*
X070463Y046854D01*
X07046Y046855D01*
X070456Y046856D01*
X070447Y046858D01*
X070435Y04686D01*
X070423Y046863D01*
X07041Y046864D01*
X070395Y046864D01*
X070395D01*
X070393D01*
X07039D01*
X070387D01*
X070383Y046864D01*
X070378D01*
X070373Y046863D01*
X070367Y046863D01*
X070353Y046861D01*
X070339Y046858D01*
X070324Y046855D01*
X07031Y04685D01*
X070309D01*
X070308Y04685D01*
X070307Y046849D01*
X070304Y046848D01*
X070297Y046844D01*
X070289Y046839D01*
X070281Y046833D01*
X070271Y046825D01*
X070263Y046817D01*
X070255Y046806D01*
Y046805D01*
X070254Y046804D01*
X070253Y046803D01*
X070252Y0468D01*
X070251Y046798D01*
X070249Y046794D01*
X070246Y046787D01*
X070243Y046777D01*
X07024Y046765D01*
X070238Y046753D01*
X070237Y04674D01*
Y046737D01*
X070238Y046733D01*
Y046729D01*
X070238Y046725D01*
X070241Y046715D01*
X070243Y046704D01*
X070248Y046692D01*
X070254Y04668D01*
X070257Y046674D01*
X070262Y046668D01*
X070262Y046668D01*
X070263Y046667D01*
X070264Y046666D01*
X070266Y046663D01*
X070269Y046661D01*
X070272Y046658D01*
X070276Y046655D01*
X07028Y046652D01*
X070285Y046649D01*
X070291Y046645D01*
X070296Y046642D01*
X070303Y046638D01*
X07031Y046636D01*
X070318Y046633D01*
X070326Y04663D01*
X070335Y046628D01*
X070322Y046577D01*
X070322D01*
X070319Y046577D01*
X070316Y046578D01*
X070312Y04658D01*
X070307Y046582D01*
X070301Y046584D01*
X070294Y046587D01*
X070287Y04659D01*
X070271Y046598D01*
X070256Y046608D01*
X070248Y046614D01*
X07024Y04662D01*
X070233Y046627D01*
X070227Y046634D01*
X070226Y046635D01*
X070225Y046636D01*
X070224Y046639D01*
X070222Y046642D01*
X070219Y046646D01*
X070216Y046651D01*
X070213Y046657D01*
X070211Y046663D01*
X070207Y04667D01*
X070205Y046678D01*
X070202Y046686D01*
X070199Y046695D01*
X070197Y046704D01*
X070196Y046714D01*
X070195Y046725D01*
X070194Y046736D01*
Y046742D01*
X070195Y046747D01*
Y046752D01*
X070195Y046758D01*
X070196Y046764D01*
X070197Y046772D01*
X0702Y046788D01*
X070205Y046805D01*
X070211Y046822D01*
X070215Y046829D01*
X070219Y046837D01*
X07022Y046838D01*
X07022Y046839D01*
X070222Y046841D01*
X070224Y046843D01*
X070226Y046846D01*
X07023Y04685D01*
X070233Y046855D01*
X070238Y046859D01*
X070243Y046864D01*
X070248Y046869D01*
X070261Y046879D01*
X070276Y046888D01*
X070292Y046896D01*
X070293D01*
X070294Y046898D01*
X070297Y046898D01*
X070301Y0469D01*
X070305Y046901D01*
X070311Y046903D01*
X070317Y046905D01*
X070323Y046906D01*
X070331Y046908D01*
X070339Y04691D01*
X070356Y046913D01*
X070375Y046915D01*
X070395Y046916D01*
X070396D01*
X070398D01*
X070402D01*
X070405Y046916D01*
D02*
G37*
G36*
X070317Y046533D02*
X070321D01*
X070324Y046533D01*
X070333Y046532D01*
X070343Y04653D01*
X070353Y046526D01*
X070364Y046521D01*
X070374Y046515D01*
X070374D01*
X070375Y046514D01*
X070378Y046512D01*
X070382Y046507D01*
X070388Y046501D01*
X070393Y046494D01*
X070399Y046484D01*
X070404Y046474D01*
X070408Y046461D01*
Y046461D01*
X070409Y046462D01*
X070409Y046464D01*
X07041Y046466D01*
X070413Y046471D01*
X070416Y046477D01*
X07042Y046485D01*
X070426Y046492D01*
X070432Y046498D01*
X070439Y046505D01*
X07044Y046505D01*
X070442Y046507D01*
X070447Y046509D01*
X070452Y046511D01*
X070459Y046514D01*
X070468Y046516D01*
X070477Y046518D01*
X070487Y046518D01*
X070488D01*
X070489D01*
X070491D01*
X070494Y046518D01*
X070498Y046517D01*
X070502Y046517D01*
X070511Y046515D01*
X070523Y046511D01*
X070534Y046506D01*
X07054Y046502D01*
X070546Y046498D01*
X070552Y046494D01*
X070558Y046489D01*
X070558Y046488D01*
X070559Y046487D01*
X07056Y046485D01*
X070562Y046483D01*
X070564Y04648D01*
X070566Y046476D01*
X070569Y046472D01*
X070572Y046467D01*
X070575Y046462D01*
X070577Y046456D01*
X07058Y046449D01*
X070582Y046442D01*
X070585Y046426D01*
X070586Y046417D01*
X070586Y046409D01*
Y046404D01*
X070586Y0464D01*
X070585Y046396D01*
X070585Y046391D01*
X070584Y046385D01*
X070582Y04638D01*
X070579Y046366D01*
X070574Y046353D01*
X070571Y046346D01*
X070567Y04634D01*
X070562Y046334D01*
X070557Y046328D01*
X070556Y046327D01*
X070556Y046326D01*
X070554Y046325D01*
X070552Y046323D01*
X070549Y04632D01*
X070545Y046318D01*
X070537Y046312D01*
X070526Y046306D01*
X070514Y046301D01*
X0705Y046298D01*
X070493Y046297D01*
X070485Y046296D01*
X070485D01*
X070484D01*
X070481D01*
X070476Y046297D01*
X07047Y046298D01*
X070462Y0463D01*
X070454Y046303D01*
X070447Y046306D01*
X070439Y046311D01*
X070438Y046311D01*
X070435Y046314D01*
X070432Y046317D01*
X070428Y046321D01*
X070423Y046328D01*
X070418Y046335D01*
X070413Y046343D01*
X070408Y046353D01*
Y046353D01*
X070408Y046351D01*
X070407Y04635D01*
X070406Y046348D01*
X070403Y046341D01*
X070399Y046333D01*
X070394Y046325D01*
X070388Y046316D01*
X07038Y046308D01*
X070371Y0463D01*
X07037D01*
X07037Y046299D01*
X070367Y046297D01*
X070361Y046294D01*
X070354Y04629D01*
X070345Y046287D01*
X070334Y046284D01*
X070323Y046281D01*
X07031Y046281D01*
X070309D01*
X070308D01*
X070305D01*
X070302Y046281D01*
X070298Y046282D01*
X070293Y046283D01*
X070287Y046284D01*
X070281Y046285D01*
X070268Y046289D01*
X070261Y046292D01*
X070254Y046296D01*
X070247Y0463D01*
X070241Y046304D01*
X070234Y04631D01*
X070227Y046316D01*
X070227Y046316D01*
X070226Y046318D01*
X070224Y046319D01*
X070222Y046322D01*
X07022Y046326D01*
X070217Y04633D01*
X070214Y046335D01*
X070211Y04634D01*
X070207Y046346D01*
X070205Y046354D01*
X070202Y046361D01*
X070199Y046369D01*
X070197Y046378D01*
X070196Y046388D01*
X070195Y046397D01*
X070194Y046407D01*
Y046413D01*
X070195Y046417D01*
X070195Y046422D01*
X070196Y046427D01*
X070197Y046434D01*
X070198Y04644D01*
X070202Y046455D01*
X070205Y046463D01*
X070208Y04647D01*
X070212Y046478D01*
X070216Y046486D01*
X070221Y046493D01*
X070227Y0465D01*
X070228Y0465D01*
X070229Y046501D01*
X070231Y046503D01*
X070233Y046505D01*
X070237Y046507D01*
X070241Y046511D01*
X070245Y046513D01*
X070251Y046517D01*
X070256Y04652D01*
X070263Y046523D01*
X070277Y046528D01*
X070285Y046531D01*
X070293Y046532D01*
X070302Y046533D01*
X070311Y046534D01*
X070312D01*
X070313D01*
X070315D01*
X070317Y046533D01*
D02*
G37*
G36*
X064634Y046943D02*
X064633Y046938D01*
Y046932D01*
X064632Y046926D01*
Y046919D01*
X064631Y046905D01*
X064629Y04689D01*
X064626Y046876D01*
X064625Y04687D01*
X064623Y046865D01*
Y046864D01*
X064623Y046864D01*
X064621Y04686D01*
X064618Y046856D01*
X064615Y046849D01*
X06461Y046842D01*
X064604Y046835D01*
X064596Y046828D01*
X064587Y046821D01*
X064586D01*
X064586Y046821D01*
X064584Y04682D01*
X064582Y046818D01*
X064577Y046816D01*
X06457Y046812D01*
X064561Y04681D01*
X064551Y046807D01*
X06454Y046805D01*
X064528Y046804D01*
X064527D01*
X064526D01*
X064523D01*
X064521Y046805D01*
X064517D01*
X064513Y046805D01*
X064503Y046807D01*
X064492Y04681D01*
X06448Y046815D01*
X064468Y046821D01*
X064463Y046825D01*
X064457Y046829D01*
X064457Y04683D01*
X064456Y04683D01*
X064454Y046832D01*
X064453Y046834D01*
X064451Y046836D01*
X064448Y04684D01*
X064445Y046844D01*
X064442Y046848D01*
X064439Y046853D01*
X064436Y046859D01*
X064434Y046865D01*
X064431Y046871D01*
X064428Y046879D01*
X064426Y046887D01*
X064424Y046895D01*
X064422Y046904D01*
Y046904D01*
X064422Y046903D01*
X06442Y0469D01*
X064417Y046895D01*
X064413Y04689D01*
X064408Y046883D01*
X064403Y046877D01*
X064397Y04687D01*
X064391Y046864D01*
X06439Y046863D01*
X064387Y04686D01*
X064383Y046857D01*
X064376Y046852D01*
X064368Y046846D01*
X064363Y046842D01*
X064357Y046839D01*
X064351Y046834D01*
X064345Y04683D01*
X064337Y046825D01*
X064329Y04682D01*
X064256Y046774D01*
Y046865D01*
X064338Y04692D01*
X064338Y046921D01*
X06434Y046921D01*
X064342Y046923D01*
X064345Y046925D01*
X064348Y046927D01*
X064352Y04693D01*
X064361Y046936D01*
X064371Y046943D01*
X06438Y046949D01*
X064388Y046955D01*
X064391Y046958D01*
X064393Y04696D01*
X064394Y046961D01*
X064395Y046962D01*
X064397Y046964D01*
X0644Y046967D01*
X064402Y046971D01*
X064405Y046975D01*
X064407Y046979D01*
X064409Y046983D01*
Y046984D01*
X06441Y046986D01*
X064411Y046988D01*
X064411Y046993D01*
X064412Y046998D01*
X064413Y047005D01*
X064414Y047012D01*
Y047037D01*
X064256D01*
Y047113D01*
X064634D01*
Y046943D01*
D02*
G37*
G36*
X064452Y04664D02*
X064634Y046759D01*
Y04667D01*
X064521Y046595D01*
X064634Y04652D01*
Y046431D01*
X064452Y04655D01*
X064256Y04642D01*
Y046512D01*
X064383Y046595D01*
X064256Y046679D01*
Y046771D01*
X064452Y04664D01*
D02*
G37*
G36*
X064634Y046229D02*
X064633Y046225D01*
X064632Y046215D01*
X064632Y046203D01*
X06463Y046191D01*
X064629Y04618D01*
X064626Y046169D01*
Y046169D01*
X064625Y046168D01*
X064625Y046166D01*
X064624Y046164D01*
X064622Y046157D01*
X064618Y04615D01*
X064613Y046141D01*
X064607Y046131D01*
X0646Y046122D01*
X064591Y046112D01*
Y046112D01*
X06459Y046111D01*
X064587Y046109D01*
X064581Y046104D01*
X064574Y046099D01*
X064565Y046093D01*
X064555Y046087D01*
X064543Y046081D01*
X06453Y046076D01*
X064529D01*
X064528Y046076D01*
X064526Y046075D01*
X064523Y046074D01*
X06452Y046074D01*
X064516Y046073D01*
X064511Y046071D01*
X064505Y04607D01*
X064499Y046069D01*
X064492Y046068D01*
X064485Y046067D01*
X064477Y046066D01*
X06446Y046064D01*
X064441Y046064D01*
X06444D01*
X064439D01*
X064436D01*
X064433D01*
X064429Y046064D01*
X064424D01*
X064419Y046065D01*
X064413Y046065D01*
X0644Y046067D01*
X064387Y046069D01*
X064374Y046072D01*
X064361Y046076D01*
X06436D01*
X064359Y046076D01*
X064357Y046077D01*
X064353Y046079D01*
X06435Y04608D01*
X064346Y046082D01*
X064337Y046086D01*
X064326Y046092D01*
X064315Y046099D01*
X064304Y046107D01*
X064293Y046116D01*
X064292Y046117D01*
X06429Y04612D01*
X064287Y046124D01*
X064282Y04613D01*
X064278Y046138D01*
X064273Y046147D01*
X064268Y046158D01*
X064263Y04617D01*
Y04617D01*
X064263Y046171D01*
Y046172D01*
X064262Y046174D01*
X064261Y04618D01*
X06426Y046188D01*
X064258Y046197D01*
X064257Y046209D01*
X064256Y046222D01*
X064256Y046237D01*
Y04638D01*
X064634D01*
Y046229D01*
D02*
G37*
G36*
X07474Y044781D02*
X074746Y044781D01*
X074753Y044779D01*
X07476Y044778D01*
X074768Y044777D01*
X074777Y044775D01*
X074786Y044772D01*
X074796Y044769D01*
X074806Y044764D01*
X074815Y04476D01*
X074824Y044754D01*
X074833Y044748D01*
X074841Y044741D01*
X074842D01*
X074842Y04474D01*
X074844Y044738D01*
X074845Y044736D01*
X074848Y044734D01*
X07485Y04473D01*
X074856Y044723D01*
X074862Y044713D01*
X074868Y044701D01*
X074874Y044687D01*
X07488Y044671D01*
X074804Y044653D01*
Y044654D01*
X074804Y044654D01*
Y044656D01*
X074803Y044658D01*
X074801Y044663D01*
X074798Y04467D01*
X074795Y044677D01*
X07479Y044685D01*
X074783Y044693D01*
X074776Y044699D01*
X074775Y0447D01*
X074772Y044702D01*
X074768Y044705D01*
X074762Y044708D01*
X074754Y044711D01*
X074745Y044714D01*
X074736Y044716D01*
X074725Y044717D01*
X074721D01*
X074718Y044716D01*
X074714Y044716D01*
X07471Y044715D01*
X074701Y044713D01*
X07469Y044709D01*
X074678Y044704D01*
X074672Y0447D01*
X074667Y044696D01*
X074661Y044692D01*
X074656Y044686D01*
Y044686D01*
X074655Y044684D01*
X074654Y044683D01*
X074653Y04468D01*
X07465Y044677D01*
X074648Y044673D01*
X074646Y044668D01*
X074644Y044663D01*
X074641Y044656D01*
X074639Y044649D01*
X074637Y044641D01*
X074635Y044632D01*
X074633Y044622D01*
X074632Y044612D01*
X074631Y0446D01*
X074631Y044588D01*
Y044587D01*
Y044585D01*
Y044581D01*
X074631Y044576D01*
Y04457D01*
X074632Y044563D01*
X074633Y044556D01*
X074634Y044548D01*
X074637Y044531D01*
X074642Y044514D01*
X074644Y044506D01*
X074648Y044498D01*
X074652Y044491D01*
X074656Y044485D01*
X074657Y044485D01*
X074658Y044484D01*
X074659Y044482D01*
X074661Y04448D01*
X074667Y044476D01*
X074675Y04447D01*
X074684Y044464D01*
X074695Y04446D01*
X074708Y044456D01*
X074715Y044456D01*
X074723Y044455D01*
X074726D01*
X074728Y044456D01*
X074734Y044456D01*
X074741Y044457D01*
X074749Y04446D01*
X074757Y044463D01*
X074766Y044468D01*
X074775Y044474D01*
X074776Y044475D01*
X074779Y044478D01*
X074783Y044482D01*
X074787Y044489D01*
X074792Y044498D01*
X074797Y044508D01*
X074802Y044521D01*
X074807Y044535D01*
X074881Y044512D01*
Y044512D01*
X07488Y04451D01*
X074879Y044506D01*
X074878Y044502D01*
X074875Y044497D01*
X074873Y044491D01*
X074871Y044485D01*
X074867Y044478D01*
X07486Y044463D01*
X07485Y044447D01*
X074838Y044433D01*
X074831Y044426D01*
X074824Y04442D01*
X074824Y04442D01*
X074822Y044419D01*
X07482Y044417D01*
X074817Y044415D01*
X074813Y044413D01*
X074808Y044411D01*
X074803Y044408D01*
X074797Y044405D01*
X07479Y044402D01*
X074782Y044399D01*
X074774Y044397D01*
X074765Y044395D01*
X074756Y044393D01*
X074745Y044391D01*
X074735Y044391D01*
X074724Y04439D01*
X07472D01*
X074717Y044391D01*
X074711Y044391D01*
X074705Y044392D01*
X074697Y044393D01*
X074689Y044395D01*
X07468Y044397D01*
X074671Y044399D01*
X074661Y044403D01*
X07465Y044407D01*
X07464Y044412D01*
X07463Y044417D01*
X074619Y044425D01*
X07461Y044432D01*
X0746Y044441D01*
X0746Y044442D01*
X074598Y044444D01*
X074596Y044447D01*
X074593Y044451D01*
X074589Y044456D01*
X074585Y044462D01*
X074581Y04447D01*
X074576Y044479D01*
X074572Y044488D01*
X074567Y044498D01*
X074563Y04451D01*
X07456Y044523D01*
X074557Y044536D01*
X074554Y044551D01*
X074553Y044566D01*
X074552Y044582D01*
Y044583D01*
Y044583D01*
Y044587D01*
X074553Y044592D01*
Y044598D01*
X074554Y044606D01*
X074555Y044615D01*
X074556Y044625D01*
X074558Y044636D01*
X074561Y044648D01*
X074564Y04466D01*
X074568Y044672D01*
X074573Y044684D01*
X074578Y044696D01*
X074585Y044708D01*
X074592Y044719D01*
X074601Y044729D01*
X074601Y04473D01*
X074603Y044731D01*
X074606Y044734D01*
X07461Y044737D01*
X074614Y044741D01*
X07462Y044746D01*
X074627Y044751D01*
X074635Y044755D01*
X074644Y04476D01*
X074653Y044765D01*
X074664Y04477D01*
X074675Y044773D01*
X074688Y044777D01*
X0747Y044779D01*
X074714Y044781D01*
X074729Y044782D01*
X074735D01*
X07474Y044781D01*
D02*
G37*
G36*
X074162Y044397D02*
X074086D01*
X073932Y044646D01*
Y044397D01*
X073862D01*
Y044775D01*
X073936D01*
X074092Y04452D01*
Y044775D01*
X074162D01*
Y044397D01*
D02*
G37*
G36*
X074516Y044711D02*
X074405D01*
Y044397D01*
X074328D01*
Y044711D01*
X074216D01*
Y044775D01*
X074516D01*
Y044711D01*
D02*
G37*
G36*
X074061Y042813D02*
X074067Y042812D01*
X074074Y042812D01*
X074082Y042811D01*
X07409Y042809D01*
X074107Y042806D01*
X074125Y042801D01*
X074135Y042797D01*
X074143Y042793D01*
X074151Y042789D01*
X074159Y042784D01*
X07416Y042783D01*
X074161Y042783D01*
X074163Y04278D01*
X074166Y042778D01*
X074169Y042775D01*
X074172Y042772D01*
X074176Y042767D01*
X07418Y042762D01*
X074185Y042757D01*
X074189Y042751D01*
X074193Y042744D01*
X074197Y042737D01*
X074202Y042729D01*
X074205Y042721D01*
X074208Y042712D01*
X07421Y042702D01*
X074135Y042688D01*
Y042689D01*
X074134Y042689D01*
X074133Y042692D01*
X074131Y042697D01*
X074127Y042704D01*
X074124Y042711D01*
X074118Y042718D01*
X074112Y042725D01*
X074104Y042732D01*
X074103Y042732D01*
X0741Y042735D01*
X074095Y042737D01*
X074089Y04274D01*
X074081Y042743D01*
X074072Y042745D01*
X074061Y042748D01*
X074049Y042748D01*
X074044D01*
X074041Y042748D01*
X074037Y042747D01*
X074032Y042747D01*
X074026Y042745D01*
X07402Y042744D01*
X074008Y042741D01*
X074001Y042738D01*
X073995Y042735D01*
X073988Y042731D01*
X073982Y042727D01*
X073976Y042721D01*
X07397Y042716D01*
X073969Y042715D01*
X073969Y042714D01*
X073967Y042713D01*
X073965Y04271D01*
X073963Y042707D01*
X07396Y042703D01*
X073958Y042698D01*
X073955Y042692D01*
X073953Y042686D01*
X07395Y042679D01*
X073947Y042671D01*
X073945Y042663D01*
X073943Y042654D01*
X073942Y042643D01*
X073941Y042633D01*
X073941Y042622D01*
Y042621D01*
Y042619D01*
Y042615D01*
X073941Y042611D01*
X073942Y042605D01*
X073942Y042599D01*
X073943Y042591D01*
X073945Y042583D01*
X073948Y042567D01*
X073953Y04255D01*
X073957Y042542D01*
X07396Y042534D01*
X073965Y042526D01*
X07397Y04252D01*
X073971Y042519D01*
X073972Y042518D01*
X073973Y042517D01*
X073976Y042514D01*
X073979Y042512D01*
X073982Y042509D01*
X073987Y042506D01*
X073991Y042503D01*
X073997Y0425D01*
X074002Y042497D01*
X074016Y042492D01*
X074024Y042489D01*
X074031Y042488D01*
X07404Y042487D01*
X074049Y042486D01*
X074053D01*
X074058Y042487D01*
X074064Y042487D01*
X074071Y042488D01*
X074079Y04249D01*
X074088Y042492D01*
X074097Y042495D01*
X074097D01*
X074098Y042496D01*
X074101Y042497D01*
X074106Y042499D01*
X074111Y042502D01*
X074118Y042505D01*
X074125Y042509D01*
X074132Y042513D01*
X074138Y042518D01*
Y042567D01*
X074051D01*
Y042631D01*
X074215D01*
Y042479D01*
X074214Y042478D01*
X074213Y042477D01*
X074211Y042475D01*
X074208Y042473D01*
X074205Y042471D01*
X074198Y042465D01*
X074187Y042459D01*
X074175Y042452D01*
X074162Y042445D01*
X074145Y042439D01*
X074145D01*
X074143Y042438D01*
X074141Y042437D01*
X074138Y042436D01*
X074133Y042435D01*
X074129Y042433D01*
X074123Y042432D01*
X074117Y04243D01*
X074103Y042427D01*
X074088Y042424D01*
X074071Y042422D01*
X074054Y042421D01*
X074048D01*
X074044Y042422D01*
X074038D01*
X074032Y042422D01*
X074026Y042423D01*
X074018Y042424D01*
X074002Y042427D01*
X073985Y042432D01*
X073967Y042438D01*
X073959Y042441D01*
X07395Y042446D01*
X073949Y042446D01*
X073948Y042447D01*
X073946Y042448D01*
X073943Y042451D01*
X073939Y042453D01*
X073935Y042456D01*
X07393Y04246D01*
X073925Y042464D01*
X073914Y042474D01*
X073904Y042487D01*
X073893Y042501D01*
X073884Y042517D01*
Y042518D01*
X073883Y042519D01*
X073882Y042522D01*
X073881Y042525D01*
X073879Y04253D01*
X073877Y042535D01*
X073875Y042541D01*
X073873Y042547D01*
X073871Y042554D01*
X073869Y042563D01*
X073865Y042579D01*
X073863Y042598D01*
X073862Y042618D01*
Y042619D01*
Y042621D01*
Y042624D01*
X073863Y042628D01*
Y042634D01*
X073863Y04264D01*
X073864Y042646D01*
X073865Y042654D01*
X073868Y04267D01*
X073872Y042688D01*
X073878Y042706D01*
X073882Y042714D01*
X073887Y042723D01*
X073887Y042724D01*
X073888Y042725D01*
X073889Y042727D01*
X073891Y042731D01*
X073894Y042735D01*
X073897Y042739D01*
X073901Y042744D01*
X073905Y042749D01*
X07391Y042755D01*
X073915Y042761D01*
X073921Y042767D01*
X073928Y042773D01*
X073935Y042778D01*
X073942Y042784D01*
X073959Y042794D01*
X073959D01*
X07396Y042795D01*
X073963Y042796D01*
X073965Y042797D01*
X073969Y042798D01*
X073973Y0428D01*
X073978Y042802D01*
X073984Y042804D01*
X07399Y042806D01*
X073997Y042807D01*
X074005Y042809D01*
X074012Y04281D01*
X07403Y042813D01*
X074049Y042813D01*
X074056D01*
X074061Y042813D01*
D02*
G37*
G36*
X074587Y042428D02*
X07451D01*
X074357Y042677D01*
Y042428D01*
X074286D01*
Y042806D01*
X07436D01*
X074516Y042552D01*
Y042806D01*
X074587D01*
Y042428D01*
D02*
G37*
G36*
X074822Y042806D02*
X074833Y042805D01*
X074844Y042804D01*
X074856Y042803D01*
X074868Y042801D01*
X074878Y042798D01*
X074879D01*
X07488Y042798D01*
X074881Y042797D01*
X074884Y042797D01*
X07489Y042794D01*
X074898Y04279D01*
X074907Y042785D01*
X074916Y042779D01*
X074926Y042772D01*
X074935Y042763D01*
X074935D01*
X074936Y042762D01*
X074939Y042759D01*
X074943Y042754D01*
X074948Y042747D01*
X074954Y042738D01*
X07496Y042727D01*
X074966Y042715D01*
X074971Y042702D01*
Y042702D01*
X074972Y042701D01*
X074972Y042698D01*
X074973Y042696D01*
X074974Y042692D01*
X074975Y042688D01*
X074976Y042683D01*
X074978Y042678D01*
X074979Y042672D01*
X07498Y042665D01*
X074981Y042658D01*
X074981Y042649D01*
X074983Y042632D01*
X074984Y042613D01*
Y042613D01*
Y042611D01*
Y042609D01*
Y042606D01*
X074983Y042601D01*
Y042597D01*
X074982Y042591D01*
X074982Y042585D01*
X074981Y042573D01*
X074979Y04256D01*
X074975Y042546D01*
X074972Y042533D01*
Y042533D01*
X074971Y042531D01*
X07497Y042529D01*
X074969Y042526D01*
X074968Y042523D01*
X074966Y042519D01*
X074961Y042509D01*
X074956Y042499D01*
X074949Y042487D01*
X07494Y042476D01*
X074931Y042466D01*
X07493Y042465D01*
X074927Y042463D01*
X074923Y042459D01*
X074917Y042455D01*
X074909Y04245D01*
X074901Y042445D01*
X07489Y04244D01*
X074878Y042436D01*
X074877D01*
X074877Y042435D01*
X074875D01*
X074873Y042435D01*
X074867Y042434D01*
X07486Y042432D01*
X07485Y04243D01*
X074839Y042429D01*
X074825Y042429D01*
X07481Y042428D01*
X074667D01*
Y042806D01*
X074818D01*
X074822Y042806D01*
D02*
G37*
G36*
X064456Y042821D02*
X064461D01*
X064467Y042821D01*
X064474Y04282D01*
X064481Y042819D01*
X064497Y042816D01*
X064515Y042812D01*
X064533Y042806D01*
X064542Y042802D01*
X064551Y042797D01*
X064551Y042797D01*
X064553Y042796D01*
X064555Y042795D01*
X064558Y042793D01*
X064562Y04279D01*
X064566Y042787D01*
X064571Y042783D01*
X064577Y042779D01*
X064582Y042774D01*
X064588Y042769D01*
X064594Y042763D01*
X0646Y042756D01*
X064606Y042749D01*
X064612Y042742D01*
X064622Y042725D01*
Y042725D01*
X064623Y042724D01*
X064623Y042721D01*
X064625Y042719D01*
X064626Y042715D01*
X064628Y042711D01*
X064629Y042706D01*
X064631Y0427D01*
X064633Y042694D01*
X064635Y042687D01*
X064636Y042679D01*
X064638Y042672D01*
X06464Y042654D01*
X064641Y042635D01*
Y042628D01*
X06464Y042623D01*
X06464Y042617D01*
X064639Y04261D01*
X064639Y042602D01*
X064637Y042594D01*
X064634Y042577D01*
X064628Y042559D01*
X064625Y042549D01*
X064621Y042541D01*
X064617Y042533D01*
X064611Y042525D01*
X064611Y042524D01*
X06461Y042523D01*
X064608Y042521D01*
X064606Y042518D01*
X064603Y042515D01*
X064599Y042512D01*
X064595Y042508D01*
X06459Y042504D01*
X064584Y042499D01*
X064578Y042495D01*
X064572Y042491D01*
X064564Y042487D01*
X064557Y042482D01*
X064548Y042479D01*
X064539Y042476D01*
X06453Y042474D01*
X064516Y042549D01*
X064516D01*
X064517Y04255D01*
X06452Y042551D01*
X064525Y042553D01*
X064531Y042557D01*
X064539Y04256D01*
X064546Y042566D01*
X064553Y042572D01*
X064559Y04258D01*
X06456Y042581D01*
X064562Y042584D01*
X064565Y042589D01*
X064568Y042595D01*
X064571Y042603D01*
X064573Y042612D01*
X064575Y042623D01*
X064576Y042635D01*
Y04264D01*
X064575Y042643D01*
X064575Y042647D01*
X064574Y042652D01*
X064573Y042658D01*
X064572Y042664D01*
X064568Y042676D01*
X064565Y042683D01*
X064562Y042689D01*
X064558Y042696D01*
X064554Y042702D01*
X064549Y042708D01*
X064543Y042714D01*
X064543Y042715D01*
X064542Y042715D01*
X06454Y042717D01*
X064538Y042719D01*
X064534Y042721D01*
X06453Y042724D01*
X064525Y042726D01*
X06452Y042729D01*
X064513Y042731D01*
X064506Y042734D01*
X064499Y042737D01*
X064491Y042739D01*
X064481Y042741D01*
X064471Y042742D01*
X064461Y042743D01*
X064449Y042743D01*
X064448D01*
X064446D01*
X064442D01*
X064438Y042743D01*
X064432Y042742D01*
X064426Y042742D01*
X064418Y042741D01*
X064411Y042739D01*
X064394Y042736D01*
X064378Y042731D01*
X064369Y042727D01*
X064362Y042724D01*
X064354Y042719D01*
X064347Y042714D01*
X064347Y042713D01*
X064346Y042712D01*
X064344Y042711D01*
X064342Y042708D01*
X06434Y042705D01*
X064337Y042702D01*
X064334Y042697D01*
X064331Y042693D01*
X064327Y042687D01*
X064325Y042682D01*
X064319Y042668D01*
X064317Y04266D01*
X064315Y042653D01*
X064314Y042644D01*
X064314Y042635D01*
Y042631D01*
X064314Y042626D01*
X064315Y04262D01*
X064316Y042613D01*
X064317Y042605D01*
X06432Y042596D01*
X064323Y042587D01*
Y042587D01*
X064323Y042586D01*
X064325Y042583D01*
X064327Y042578D01*
X064329Y042573D01*
X064333Y042566D01*
X064337Y042559D01*
X064341Y042552D01*
X064346Y042546D01*
X064394D01*
Y042633D01*
X064458D01*
Y042469D01*
X064307D01*
X064305Y04247D01*
X064304Y042471D01*
X064303Y042473D01*
X064301Y042476D01*
X064298Y042478D01*
X064293Y042486D01*
X064287Y042497D01*
X06428Y042509D01*
X064273Y042522D01*
X064266Y042539D01*
Y042539D01*
X064266Y042541D01*
X064264Y042543D01*
X064263Y042546D01*
X064262Y042551D01*
X064261Y042555D01*
X064259Y042561D01*
X064257Y042567D01*
X064254Y042581D01*
X064251Y042596D01*
X064249Y042613D01*
X064249Y04263D01*
Y042636D01*
X064249Y04264D01*
Y042646D01*
X06425Y042652D01*
X064251Y042658D01*
X064252Y042666D01*
X064255Y042682D01*
X064259Y042699D01*
X064265Y042717D01*
X064269Y042725D01*
X064273Y042734D01*
X064274Y042735D01*
X064274Y042736D01*
X064276Y042738D01*
X064278Y042741D01*
X06428Y042745D01*
X064284Y042749D01*
X064287Y042754D01*
X064292Y042759D01*
X064302Y04277D01*
X064314Y04278D01*
X064328Y042791D01*
X064345Y0428D01*
X064345D01*
X064347Y042801D01*
X06435Y042802D01*
X064353Y042803D01*
X064357Y042805D01*
X064362Y042807D01*
X064368Y042809D01*
X064375Y042811D01*
X064382Y042813D01*
X06439Y042815D01*
X064407Y042819D01*
X064426Y042821D01*
X064446Y042822D01*
X064446D01*
X064448D01*
X064452D01*
X064456Y042821D01*
D02*
G37*
G36*
X064634Y042324D02*
X064379Y042168D01*
X064634D01*
Y042097D01*
X064256D01*
Y042174D01*
X064505Y042327D01*
X064256D01*
Y042398D01*
X064634D01*
Y042324D01*
D02*
G37*
G36*
Y041866D02*
X064633Y041862D01*
X064633Y041851D01*
X064632Y04184D01*
X06463Y041828D01*
X064629Y041816D01*
X064626Y041806D01*
Y041805D01*
X064625Y041804D01*
X064625Y041803D01*
X064624Y0418D01*
X064622Y041794D01*
X064618Y041786D01*
X064613Y041777D01*
X064607Y041768D01*
X0646Y041758D01*
X064591Y041749D01*
Y041748D01*
X06459Y041748D01*
X064587Y041745D01*
X064581Y041741D01*
X064574Y041736D01*
X064565Y04173D01*
X064555Y041724D01*
X064543Y041718D01*
X06453Y041713D01*
X064529D01*
X064528Y041712D01*
X064526Y041712D01*
X064523Y041711D01*
X06452Y04171D01*
X064516Y041709D01*
X064511Y041708D01*
X064505Y041706D01*
X064499Y041705D01*
X064492Y041704D01*
X064485Y041703D01*
X064477Y041703D01*
X06446Y041701D01*
X064441Y0417D01*
X06444D01*
X064439D01*
X064436D01*
X064433D01*
X064429Y041701D01*
X064424D01*
X064419Y041702D01*
X064413Y041702D01*
X0644Y041703D01*
X064387Y041705D01*
X064374Y041709D01*
X064361Y041712D01*
X06436D01*
X064359Y041713D01*
X064357Y041714D01*
X064353Y041715D01*
X06435Y041716D01*
X064346Y041718D01*
X064337Y041723D01*
X064326Y041728D01*
X064315Y041735D01*
X064304Y041744D01*
X064293Y041753D01*
X064292Y041754D01*
X06429Y041757D01*
X064287Y041761D01*
X064283Y041767D01*
X064278Y041775D01*
X064273Y041783D01*
X064268Y041794D01*
X064263Y041806D01*
Y041807D01*
X064263Y041807D01*
Y041809D01*
X064262Y041811D01*
X064261Y041817D01*
X06426Y041824D01*
X064258Y041834D01*
X064257Y041845D01*
X064256Y041859D01*
X064256Y041874D01*
Y042017D01*
X064634D01*
Y041866D01*
D02*
G37*
G36*
Y044078D02*
X064354Y043982D01*
X064634Y04389D01*
Y043808D01*
X064256Y043943D01*
Y044025D01*
X064634Y044161D01*
Y044078D01*
D02*
G37*
G36*
Y043696D02*
X064256D01*
Y043772D01*
X064634D01*
Y043696D01*
D02*
G37*
G36*
Y043549D02*
X064379Y043393D01*
X064634D01*
Y043322D01*
X064256D01*
Y043399D01*
X064505Y043552D01*
X064256D01*
Y043623D01*
X064634D01*
Y043549D01*
D02*
G37*
G36*
X064634Y045357D02*
X06457D01*
Y045468D01*
X064256D01*
Y045545D01*
X06457D01*
Y045657D01*
X064634D01*
Y045357D01*
D02*
G37*
G36*
X064452Y045215D02*
X064634Y045334D01*
Y045245D01*
X064521Y04517D01*
X064634Y045095D01*
Y045006D01*
X064452Y045125D01*
X064256Y044995D01*
Y045087D01*
X064383Y04517D01*
X064256Y045254D01*
Y045346D01*
X064452Y045215D01*
D02*
G37*
G36*
X064634Y044804D02*
X064633Y0448D01*
X064632Y04479D01*
X064632Y044778D01*
X06463Y044766D01*
X064629Y044755D01*
X064626Y044744D01*
Y044744D01*
X064625Y044743D01*
X064625Y044741D01*
X064624Y044739D01*
X064622Y044732D01*
X064618Y044725D01*
X064613Y044716D01*
X064607Y044706D01*
X0646Y044697D01*
X064591Y044687D01*
Y044687D01*
X06459Y044686D01*
X064587Y044684D01*
X064581Y044679D01*
X064574Y044674D01*
X064565Y044668D01*
X064555Y044662D01*
X064543Y044656D01*
X06453Y044651D01*
X064529D01*
X064528Y044651D01*
X064526Y04465D01*
X064523Y044649D01*
X06452Y044649D01*
X064516Y044648D01*
X064511Y044646D01*
X064505Y044645D01*
X064499Y044644D01*
X064492Y044643D01*
X064485Y044642D01*
X064477Y044641D01*
X06446Y044639D01*
X064441Y044639D01*
X06444D01*
X064439D01*
X064436D01*
X064433D01*
X064429Y044639D01*
X064424D01*
X064419Y04464D01*
X064413Y04464D01*
X0644Y044642D01*
X064387Y044644D01*
X064374Y044647D01*
X064361Y044651D01*
X06436D01*
X064359Y044651D01*
X064357Y044652D01*
X064353Y044654D01*
X06435Y044655D01*
X064346Y044657D01*
X064337Y044661D01*
X064326Y044667D01*
X064315Y044674D01*
X064304Y044682D01*
X064293Y044691D01*
X064292Y044692D01*
X06429Y044695D01*
X064287Y044699D01*
X064282Y044705D01*
X064278Y044713D01*
X064273Y044722D01*
X064268Y044733D01*
X064263Y044745D01*
Y044745D01*
X064263Y044746D01*
Y044747D01*
X064262Y044749D01*
X064261Y044755D01*
X06426Y044763D01*
X064258Y044772D01*
X064257Y044784D01*
X064256Y044797D01*
X064256Y044812D01*
Y044955D01*
X064634D01*
Y044804D01*
D02*
G37*
G36*
X069671Y045501D02*
Y0455D01*
Y045498D01*
Y045496D01*
Y045492D01*
X06967Y045487D01*
Y045481D01*
X06967Y045475D01*
X069669Y045468D01*
X069668Y045454D01*
X069665Y045438D01*
X069662Y045424D01*
X06966Y045416D01*
X069658Y04541D01*
Y045409D01*
X069657Y045408D01*
X069656Y045407D01*
X069655Y045404D01*
X069652Y045398D01*
X069647Y045391D01*
X06964Y045382D01*
X069633Y045373D01*
X069623Y045364D01*
X069611Y045356D01*
X06961D01*
X069609Y045355D01*
X069608Y045354D01*
X069605Y045353D01*
X069602Y045351D01*
X069597Y045349D01*
X069593Y045348D01*
X069587Y045345D01*
X069581Y045343D01*
X069575Y045342D01*
X069568Y04534D01*
X06956Y045338D01*
X069551Y045337D01*
X069543Y045336D01*
X069523Y045335D01*
X069518D01*
X069514Y045336D01*
X06951D01*
X069504Y045336D01*
X069498Y045337D01*
X069492Y045337D01*
X069479Y045339D01*
X069464Y045343D01*
X06945Y045347D01*
X069436Y045353D01*
X069436D01*
X069434Y045354D01*
X069433Y045355D01*
X069431Y045356D01*
X069425Y045361D01*
X069418Y045367D01*
X069409Y045374D01*
X069402Y045383D01*
X069394Y045394D01*
X069388Y045406D01*
Y045407D01*
X069388Y045408D01*
X069387Y04541D01*
X069386Y045413D01*
X069385Y045416D01*
X069384Y04542D01*
X069382Y045425D01*
X069381Y045431D01*
X06938Y045438D01*
X069378Y045445D01*
X069377Y045452D01*
X069376Y045461D01*
X069375Y04547D01*
X069374Y04548D01*
X069374Y04549D01*
Y045501D01*
Y045719D01*
X069424D01*
Y045501D01*
Y0455D01*
Y045499D01*
Y045496D01*
Y045493D01*
X069425Y045489D01*
Y045484D01*
X069425Y045474D01*
X069426Y045462D01*
X069428Y04545D01*
X06943Y045438D01*
X069431Y045433D01*
X069433Y045428D01*
X069433Y045427D01*
X069434Y045425D01*
X069437Y045421D01*
X06944Y045415D01*
X069444Y04541D01*
X06945Y045404D01*
X069456Y045398D01*
X069464Y045393D01*
X069465Y045392D01*
X069468Y045391D01*
X069473Y045389D01*
X069479Y045387D01*
X069487Y045384D01*
X069497Y045383D01*
X069507Y045381D01*
X069519Y04538D01*
X069524D01*
X069527Y045381D01*
X069532D01*
X069537Y045381D01*
X069549Y045384D01*
X069562Y045386D01*
X069575Y045391D01*
X069587Y045397D01*
X069592Y045401D01*
X069597Y045405D01*
X069598Y045405D01*
X069598Y045406D01*
X069599Y045408D01*
X069601Y04541D01*
X069603Y045413D01*
X069605Y045416D01*
X069607Y045421D01*
X069609Y045426D01*
X069611Y045432D01*
X069613Y045439D01*
X069615Y045448D01*
X069617Y045456D01*
X069618Y045466D01*
X06962Y045476D01*
X069621Y045488D01*
Y045501D01*
Y045719D01*
X069671D01*
Y045501D01*
D02*
G37*
G36*
X06991Y045342D02*
X069864D01*
Y045637D01*
X069863Y045636D01*
X06986Y045634D01*
X069857Y045631D01*
X069852Y045627D01*
X069846Y045622D01*
X069838Y045617D01*
X069829Y045611D01*
X069819Y045605D01*
X069819D01*
X069818Y045604D01*
X069815Y045602D01*
X06981Y045599D01*
X069803Y045596D01*
X069795Y045592D01*
X069787Y045588D01*
X069779Y045585D01*
X069771Y045581D01*
Y045626D01*
X069771D01*
X069772Y045627D01*
X069775Y045628D01*
X069777Y045629D01*
X069781Y045631D01*
X069784Y045633D01*
X069794Y045639D01*
X069805Y045645D01*
X069816Y045652D01*
X069827Y045661D01*
X069839Y04567D01*
X069839Y045671D01*
X06984Y045671D01*
X069841Y045673D01*
X069843Y045675D01*
X069848Y04568D01*
X069855Y045687D01*
X069861Y045694D01*
X069869Y045703D01*
X069875Y045712D01*
X06988Y045721D01*
X06991D01*
Y045342D01*
D02*
G37*
G36*
X068846Y046269D02*
X068846Y046264D01*
Y046259D01*
X068845Y046248D01*
X068843Y046236D01*
X068842Y046223D01*
X068839Y046211D01*
X068837Y046205D01*
X068836Y0462D01*
Y046199D01*
X068835Y046199D01*
X068834Y046196D01*
X068831Y046191D01*
X068828Y046185D01*
X068823Y046178D01*
X068816Y046171D01*
X068809Y046164D01*
X0688Y046158D01*
X068799D01*
X068799Y046157D01*
X068795Y046155D01*
X06879Y046153D01*
X068783Y04615D01*
X068775Y046147D01*
X068765Y046144D01*
X068754Y046143D01*
X068743Y046142D01*
X068742D01*
X068741D01*
X068739D01*
X068736Y046143D01*
X068733D01*
X068729Y046143D01*
X06872Y046145D01*
X068709Y046149D01*
X068697Y046153D01*
X068686Y04616D01*
X06868Y046164D01*
X068675Y046168D01*
X068674Y046169D01*
X068674Y046169D01*
X068672Y046171D01*
X06867Y046173D01*
X068668Y046176D01*
X068666Y046179D01*
X068663Y046184D01*
X06866Y046188D01*
X068657Y046193D01*
X068655Y046199D01*
X068651Y046206D01*
X068649Y046213D01*
X068646Y046221D01*
X068644Y046229D01*
X068642Y046239D01*
X06864Y046248D01*
X06864Y046247D01*
X068639Y046245D01*
X068637Y046242D01*
X068634Y046238D01*
X068628Y046228D01*
X068625Y046223D01*
X068621Y046218D01*
X06862Y046217D01*
X068617Y046215D01*
X068613Y04621D01*
X068608Y046205D01*
X0686Y046199D01*
X068592Y046192D01*
X068582Y046185D01*
X068571Y046177D01*
X068468Y046112D01*
Y046174D01*
X068547Y046224D01*
X068548D01*
X068549Y046225D01*
X06855Y046226D01*
X068552Y046228D01*
X068558Y046232D01*
X068566Y046236D01*
X068574Y046242D01*
X068583Y046248D01*
X068591Y046255D01*
X068599Y04626D01*
X068599Y046261D01*
X068602Y046262D01*
X068605Y046265D01*
X068609Y046269D01*
X068617Y046277D01*
X068621Y046281D01*
X068624Y046286D01*
X068625Y046286D01*
X068625Y046287D01*
X068626Y046289D01*
X068628Y046293D01*
X068629Y046296D01*
X068631Y0463D01*
X068634Y046309D01*
Y046309D01*
X068634Y04631D01*
Y046312D01*
X068635Y046315D01*
X068635Y046319D01*
Y046323D01*
X068636Y046329D01*
Y046394D01*
X068468D01*
Y046444D01*
X068846D01*
Y046269D01*
D02*
G37*
G36*
Y045925D02*
Y045888D01*
X068602D01*
Y045836D01*
X068559D01*
Y045888D01*
X068468D01*
Y045934D01*
X068559D01*
Y046098D01*
X068602D01*
X068846Y045925D01*
D02*
G37*
G36*
X068374Y046269D02*
X068373Y046264D01*
Y046259D01*
X068373Y046248D01*
X068371Y046236D01*
X068369Y046223D01*
X068367Y046211D01*
X068365Y046205D01*
X068363Y0462D01*
Y046199D01*
X068363Y046199D01*
X068361Y046196D01*
X068359Y046191D01*
X068355Y046185D01*
X06835Y046178D01*
X068344Y046171D01*
X068336Y046164D01*
X068327Y046158D01*
X068327D01*
X068326Y046157D01*
X068323Y046155D01*
X068318Y046153D01*
X06831Y04615D01*
X068302Y046147D01*
X068292Y046144D01*
X068282Y046143D01*
X068271Y046142D01*
X06827D01*
X068269D01*
X068267D01*
X068264Y046143D01*
X06826D01*
X068256Y046143D01*
X068247Y046145D01*
X068236Y046149D01*
X068225Y046153D01*
X068213Y04616D01*
X068208Y046164D01*
X068202Y046168D01*
X068202Y046169D01*
X068201Y046169D01*
X0682Y046171D01*
X068198Y046173D01*
X068196Y046176D01*
X068194Y046179D01*
X068191Y046184D01*
X068188Y046188D01*
X068185Y046193D01*
X068182Y046199D01*
X068179Y046206D01*
X068176Y046213D01*
X068174Y046221D01*
X068171Y046229D01*
X06817Y046239D01*
X068168Y046248D01*
X068167Y046247D01*
X068166Y046245D01*
X068164Y046242D01*
X068162Y046238D01*
X068156Y046228D01*
X068152Y046223D01*
X068149Y046218D01*
X068148Y046217D01*
X068145Y046215D01*
X068141Y04621D01*
X068135Y046205D01*
X068128Y046199D01*
X068119Y046192D01*
X068109Y046185D01*
X068099Y046177D01*
X067996Y046112D01*
Y046174D01*
X068075Y046224D01*
X068075D01*
X068076Y046225D01*
X068078Y046226D01*
X06808Y046228D01*
X068086Y046232D01*
X068094Y046236D01*
X068102Y046242D01*
X068111Y046248D01*
X068119Y046255D01*
X068126Y04626D01*
X068127Y046261D01*
X068129Y046262D01*
X068132Y046265D01*
X068136Y046269D01*
X068144Y046277D01*
X068148Y046281D01*
X068152Y046286D01*
X068152Y046286D01*
X068153Y046287D01*
X068154Y046289D01*
X068155Y046293D01*
X068157Y046296D01*
X068159Y0463D01*
X068161Y046309D01*
Y046309D01*
X068162Y04631D01*
Y046312D01*
X068162Y046315D01*
X068163Y046319D01*
Y046323D01*
X068164Y046329D01*
Y046394D01*
X067996D01*
Y046444D01*
X068374D01*
Y046269D01*
D02*
G37*
G36*
X068102Y046036D02*
X068101D01*
X0681Y046035D01*
X068098Y046034D01*
X068095Y046034D01*
X068092Y046033D01*
X068088Y046032D01*
X06808Y04603D01*
X06807Y046026D01*
X068061Y046021D01*
X068052Y046015D01*
X068045Y046009D01*
X068044Y046008D01*
X068042Y046006D01*
X068039Y046001D01*
X068036Y045996D01*
X068033Y045989D01*
X06803Y045981D01*
X068028Y045972D01*
X068028Y045962D01*
Y045959D01*
X068028Y045956D01*
X068029Y04595D01*
X06803Y045943D01*
X068033Y045934D01*
X068037Y045925D01*
X068042Y045915D01*
X06805Y045907D01*
X068051Y045906D01*
X068054Y045903D01*
X068059Y0459D01*
X068066Y045895D01*
X068074Y045891D01*
X068083Y045888D01*
X068094Y045885D01*
X068106Y045884D01*
X068107D01*
X068108D01*
X068109D01*
X068112Y045884D01*
X068118Y045885D01*
X068125Y045887D01*
X068134Y045889D01*
X068142Y045893D01*
X068151Y045898D01*
X068159Y045905D01*
X06816Y045906D01*
X068162Y045909D01*
X068166Y045913D01*
X06817Y045919D01*
X068173Y045927D01*
X068177Y045936D01*
X068179Y045947D01*
X06818Y045958D01*
Y045963D01*
X068179Y045967D01*
X068179Y045972D01*
X068178Y045977D01*
X068177Y045984D01*
X068175Y045991D01*
X068216Y045985D01*
Y045983D01*
X068215Y04598D01*
Y045973D01*
X068217Y045967D01*
X068218Y04596D01*
X068219Y045952D01*
X068222Y045943D01*
X068226Y045934D01*
X068231Y045925D01*
Y045924D01*
X068231Y045924D01*
X068233Y045921D01*
X068237Y045917D01*
X068242Y045913D01*
X068249Y045908D01*
X068257Y045905D01*
X068267Y045902D01*
X068272Y045901D01*
X068278D01*
X068279D01*
X068279D01*
X068283D01*
X068287Y045902D01*
X068293Y045903D01*
X068299Y045905D01*
X068307Y045908D01*
X068314Y045912D01*
X06832Y045918D01*
X068321Y045919D01*
X068323Y045921D01*
X068326Y045925D01*
X068329Y04593D01*
X068332Y045937D01*
X068334Y045944D01*
X068337Y045953D01*
X068337Y045963D01*
Y045967D01*
X068336Y045972D01*
X068335Y045979D01*
X068333Y045986D01*
X06833Y045993D01*
X068326Y046001D01*
X06832Y046008D01*
X06832Y046008D01*
X068317Y04601D01*
X068313Y046014D01*
X068308Y046018D01*
X068301Y046021D01*
X068292Y046025D01*
X068281Y046028D01*
X068269Y046031D01*
X068278Y046077D01*
X068278D01*
X06828Y046077D01*
X068282Y046076D01*
X068285Y046075D01*
X068289Y046074D01*
X068293Y046073D01*
X068304Y046069D01*
X068316Y046064D01*
X068328Y046057D01*
X068339Y046049D01*
X06835Y046039D01*
X06835Y046038D01*
X068351Y046037D01*
X068352Y046036D01*
X068354Y046033D01*
X068356Y046031D01*
X068358Y046027D01*
X06836Y046023D01*
X068363Y046018D01*
X068367Y046007D01*
X068372Y045995D01*
X068374Y04598D01*
X068375Y045972D01*
Y045959D01*
X068375Y045953D01*
X068374Y045945D01*
X068372Y045937D01*
X068369Y045927D01*
X068366Y045917D01*
X068362Y045907D01*
Y045907D01*
X068361Y045906D01*
X06836Y045903D01*
X068356Y045898D01*
X068352Y045893D01*
X068347Y045886D01*
X068341Y045879D01*
X068334Y045873D01*
X068326Y045867D01*
X068325Y045867D01*
X068322Y045865D01*
X068317Y045863D01*
X068311Y04586D01*
X068304Y045858D01*
X068296Y045855D01*
X068286Y045854D01*
X068277Y045853D01*
X068276D01*
X068273D01*
X068268Y045854D01*
X068262Y045855D01*
X068255Y045856D01*
X068248Y045859D01*
X06824Y045862D01*
X068232Y045867D01*
X068231Y045867D01*
X068229Y045869D01*
X068225Y045872D01*
X068221Y045877D01*
X068216Y045882D01*
X068211Y045889D01*
X068206Y045896D01*
X068201Y045906D01*
Y045905D01*
X0682Y045904D01*
X0682Y045902D01*
X068199Y0459D01*
X068197Y045894D01*
X068194Y045887D01*
X068189Y045878D01*
X068184Y045869D01*
X068177Y045861D01*
X068168Y045853D01*
X068167Y045853D01*
X068164Y04585D01*
X068159Y045847D01*
X068152Y045844D01*
X068143Y045841D01*
X068132Y045837D01*
X06812Y045835D01*
X068107Y045835D01*
X068107D01*
X068105D01*
X068102D01*
X068099Y045835D01*
X068095Y045836D01*
X06809Y045837D01*
X068084Y045838D01*
X068078Y045839D01*
X068065Y045843D01*
X068058Y045847D01*
X068052Y04585D01*
X068045Y045854D01*
X068037Y045859D01*
X06803Y045865D01*
X068024Y045871D01*
X068023Y045872D01*
X068022Y045873D01*
X06802Y045875D01*
X068018Y045878D01*
X068016Y045881D01*
X068013Y045885D01*
X06801Y04589D01*
X068007Y045896D01*
X068004Y045902D01*
X068Y045909D01*
X067998Y045917D01*
X067995Y045925D01*
X067993Y045933D01*
X067991Y045943D01*
X06799Y045952D01*
X067989Y045962D01*
Y045967D01*
X06799Y045971D01*
X06799Y045975D01*
X067991Y04598D01*
X067992Y045985D01*
X067993Y045991D01*
X067996Y046004D01*
X068002Y046018D01*
X068005Y046025D01*
X068009Y046032D01*
X068014Y046038D01*
X068019Y046045D01*
X068019Y046045D01*
X06802Y046046D01*
X068022Y046048D01*
X068024Y04605D01*
X068027Y046052D01*
X068031Y046055D01*
X068035Y046058D01*
X06804Y046062D01*
X068045Y046065D01*
X068051Y046068D01*
X068064Y046074D01*
X068079Y046079D01*
X068087Y046081D01*
X068096Y046082D01*
X068102Y046036D01*
D02*
G37*
G36*
X068334Y044539D02*
X068339Y044539D01*
X068344Y044538D01*
X06835Y044537D01*
X068356Y044536D01*
X06837Y044532D01*
X068384Y044527D01*
X068392Y044524D01*
X068399Y04452D01*
X068405Y044515D01*
X068411Y044509D01*
X068412Y044509D01*
X068413Y044508D01*
X068414Y044506D01*
X068416Y044504D01*
X068419Y044501D01*
X068422Y044497D01*
X068424Y044494D01*
X068428Y044489D01*
X068433Y044478D01*
X068439Y044465D01*
X068441Y044459D01*
X068442Y044451D01*
X068443Y044443D01*
X068443Y044435D01*
Y044434D01*
Y044431D01*
X068443Y044427D01*
X068442Y044421D01*
X068441Y044414D01*
X068439Y044407D01*
X068437Y044399D01*
X068434Y04439D01*
X068433Y044389D01*
X068432Y044387D01*
X06843Y044382D01*
X068426Y044376D01*
X068422Y04437D01*
X068417Y044361D01*
X06841Y044353D01*
X068402Y044344D01*
X068401Y044343D01*
X068399Y04434D01*
X068396Y044337D01*
X068393Y044334D01*
X06839Y044331D01*
X068386Y044326D01*
X068381Y044322D01*
X068376Y044317D01*
X06837Y044312D01*
X068364Y044306D01*
X068357Y0443D01*
X068349Y044293D01*
X06834Y044286D01*
X068331Y044278D01*
X068331Y044277D01*
X06833Y044276D01*
X068328Y044275D01*
X068325Y044272D01*
X068322Y044269D01*
X068318Y044266D01*
X068309Y044259D01*
X0683Y044251D01*
X068291Y044242D01*
X068283Y044235D01*
X06828Y044233D01*
X068277Y04423D01*
X068277Y044229D01*
X068275Y044228D01*
X068273Y044225D01*
X06827Y044222D01*
X068268Y044218D01*
X068264Y044215D01*
X068258Y044205D01*
X068444D01*
Y044161D01*
X068193D01*
Y044161D01*
Y044163D01*
Y044167D01*
X068194Y044171D01*
X068194Y044176D01*
X068196Y044181D01*
X068197Y044187D01*
X068199Y044193D01*
Y044193D01*
X068199Y044194D01*
X0682Y044197D01*
X068203Y044202D01*
X068206Y044209D01*
X06821Y044216D01*
X068216Y044225D01*
X068222Y044234D01*
X068229Y044243D01*
Y044243D01*
X06823Y044244D01*
X068233Y044247D01*
X068238Y044252D01*
X068245Y044259D01*
X068253Y044268D01*
X068264Y044277D01*
X068276Y044288D01*
X06829Y0443D01*
X068291Y0443D01*
X068293Y044302D01*
X068296Y044305D01*
X0683Y044308D01*
X068305Y044312D01*
X068311Y044317D01*
X068317Y044323D01*
X068324Y044329D01*
X068337Y044342D01*
X068351Y044355D01*
X068358Y044361D01*
X068364Y044368D01*
X068369Y044374D01*
X068374Y04438D01*
Y044381D01*
X068375Y044381D01*
X068376Y044383D01*
X068377Y044385D01*
X068381Y044391D01*
X068385Y044398D01*
X068389Y044407D01*
X068393Y044416D01*
X068395Y044426D01*
X068396Y044436D01*
Y044437D01*
Y044437D01*
X068395Y044441D01*
X068395Y044446D01*
X068393Y044452D01*
X068391Y04446D01*
X068387Y044467D01*
X068382Y044475D01*
X068376Y044483D01*
X068375Y044484D01*
X068372Y044486D01*
X068368Y044489D01*
X068362Y044492D01*
X068354Y044496D01*
X068346Y044499D01*
X068335Y044501D01*
X068324Y044502D01*
X068321D01*
X068318Y044501D01*
X068312Y044501D01*
X068304Y044499D01*
X068296Y044497D01*
X068287Y044493D01*
X068278Y044488D01*
X06827Y044482D01*
X068269Y04448D01*
X068267Y044478D01*
X068263Y044473D01*
X06826Y044467D01*
X068256Y044459D01*
X068253Y044449D01*
X068251Y044438D01*
X06825Y044426D01*
X068202Y044431D01*
Y044431D01*
X068203Y044433D01*
Y044436D01*
X068203Y04444D01*
X068204Y044444D01*
X068205Y044449D01*
X068207Y044455D01*
X068209Y044461D01*
X068213Y044474D01*
X06822Y044487D01*
X068223Y044494D01*
X068228Y0445D01*
X068233Y044506D01*
X068239Y044512D01*
X068239Y044512D01*
X06824Y044513D01*
X068242Y044514D01*
X068245Y044516D01*
X068248Y044518D01*
X068252Y04452D01*
X068256Y044523D01*
X068262Y044526D01*
X068268Y044529D01*
X068274Y044531D01*
X068281Y044533D01*
X068289Y044536D01*
X068297Y044537D01*
X068306Y044539D01*
X068315Y044539D01*
X068325Y04454D01*
X06833D01*
X068334Y044539D01*
D02*
G37*
G36*
X068018Y044538D02*
X068023D01*
X068034Y044537D01*
X068046Y044536D01*
X06806Y044534D01*
X068072Y044531D01*
X068078Y04453D01*
X068082Y044528D01*
X068083D01*
X068084Y044527D01*
X068087Y044526D01*
X068092Y044524D01*
X068098Y04452D01*
X068104Y044515D01*
X068111Y044508D01*
X068118Y044501D01*
X068125Y044492D01*
Y044491D01*
X068125Y044491D01*
X068127Y044488D01*
X068129Y044482D01*
X068133Y044475D01*
X068135Y044467D01*
X068138Y044457D01*
X06814Y044447D01*
X06814Y044435D01*
Y044435D01*
Y044433D01*
Y044431D01*
X06814Y044429D01*
Y044425D01*
X068139Y044421D01*
X068137Y044412D01*
X068134Y044401D01*
X068129Y044389D01*
X068123Y044378D01*
X068119Y044372D01*
X068114Y044367D01*
X068114Y044366D01*
X068113Y044366D01*
X068111Y044364D01*
X068109Y044363D01*
X068107Y04436D01*
X068103Y044358D01*
X068099Y044355D01*
X068095Y044352D01*
X068089Y044349D01*
X068083Y044347D01*
X068077Y044343D01*
X068069Y044341D01*
X068061Y044338D01*
X068053Y044336D01*
X068044Y044334D01*
X068034Y044332D01*
X068035Y044332D01*
X068037Y044331D01*
X06804Y044329D01*
X068045Y044326D01*
X068055Y04432D01*
X06806Y044317D01*
X068064Y044313D01*
X068065Y044312D01*
X068068Y04431D01*
X068072Y044305D01*
X068078Y0443D01*
X068084Y044292D01*
X068091Y044284D01*
X068098Y044274D01*
X068105Y044263D01*
X06817Y044161D01*
X068108D01*
X068058Y044239D01*
Y04424D01*
X068057Y044241D01*
X068056Y044242D01*
X068055Y044245D01*
X068051Y044251D01*
X068046Y044258D01*
X06804Y044266D01*
X068034Y044275D01*
X068028Y044283D01*
X068022Y044291D01*
X068022Y044292D01*
X06802Y044294D01*
X068018Y044297D01*
X068014Y044301D01*
X068006Y044309D01*
X068001Y044313D01*
X067997Y044316D01*
X067996Y044317D01*
X067995Y044317D01*
X067993Y044318D01*
X06799Y04432D01*
X067986Y044322D01*
X067983Y044323D01*
X067974Y044326D01*
X067973D01*
X067972Y044326D01*
X06797D01*
X067967Y044327D01*
X067963Y044328D01*
X067959D01*
X067953Y044328D01*
X067889D01*
Y044161D01*
X067838D01*
Y044538D01*
X068014D01*
X068018Y044538D01*
D02*
G37*
G36*
X07266Y041641D02*
X072614D01*
Y041936D01*
X072613Y041936D01*
X07261Y041933D01*
X072607Y04193D01*
X072602Y041926D01*
X072596Y041921D01*
X072588Y041916D01*
X072579Y04191D01*
X072569Y041904D01*
X072569D01*
X072568Y041903D01*
X072565Y041901D01*
X07256Y041899D01*
X072553Y041895D01*
X072545Y041891D01*
X072537Y041888D01*
X072529Y041884D01*
X072521Y041881D01*
Y041925D01*
X072521D01*
X072522Y041926D01*
X072525Y041927D01*
X072527Y041929D01*
X072531Y04193D01*
X072534Y041932D01*
X072544Y041938D01*
X072555Y041944D01*
X072566Y041951D01*
X072577Y04196D01*
X072589Y04197D01*
X072589Y04197D01*
X07259Y041971D01*
X072591Y041972D01*
X072593Y041974D01*
X072598Y041979D01*
X072605Y041986D01*
X072611Y041994D01*
X072619Y042002D01*
X072625Y042011D01*
X07263Y04202D01*
X07266D01*
Y041641D01*
D02*
G37*
G36*
X072259Y041686D02*
X072445D01*
Y041641D01*
X072209D01*
Y042019D01*
X072259D01*
Y041686D01*
D02*
G37*
G36*
X066681Y044496D02*
X066636D01*
Y044701D01*
X066519D01*
Y044523D01*
X066474D01*
Y044701D01*
X066303D01*
Y044751D01*
X066681D01*
Y044496D01*
D02*
G37*
G36*
X066587Y044414D02*
X066589Y044413D01*
X066589Y04441D01*
X066591Y044408D01*
X066592Y044404D01*
X066595Y044401D01*
X0666Y044391D01*
X066606Y04438D01*
X066614Y044369D01*
X066622Y044358D01*
X066632Y044346D01*
X066632Y044346D01*
X066633Y044345D01*
X066634Y044344D01*
X066636Y044342D01*
X066642Y044337D01*
X066648Y04433D01*
X066656Y044324D01*
X066664Y044316D01*
X066673Y04431D01*
X066682Y044305D01*
Y044275D01*
X066303D01*
Y044321D01*
X066598D01*
X066598Y044322D01*
X066596Y044325D01*
X066592Y044328D01*
X066589Y044333D01*
X066584Y044339D01*
X066578Y044347D01*
X066572Y044356D01*
X066566Y044366D01*
Y044366D01*
X066566Y044367D01*
X066563Y04437D01*
X066561Y044375D01*
X066557Y044382D01*
X066554Y04439D01*
X06655Y044398D01*
X066546Y044406D01*
X066543Y044414D01*
X066587D01*
Y044414D01*
D02*
G37*
G36*
X06526Y043201D02*
X065267Y0432D01*
X065275Y043198D01*
X065285Y043195D01*
X065295Y043192D01*
X065305Y043188D01*
X065305D01*
X065306Y043187D01*
X065309Y043186D01*
X065314Y043182D01*
X06532Y043178D01*
X065326Y043173D01*
X065333Y043167D01*
X065339Y04316D01*
X065345Y043152D01*
X065345Y043151D01*
X065347Y043148D01*
X065349Y043143D01*
X065352Y043137D01*
X065355Y04313D01*
X065357Y043122D01*
X065358Y043112D01*
X065359Y043103D01*
Y043102D01*
Y043099D01*
X065358Y043094D01*
X065357Y043088D01*
X065356Y043081D01*
X065353Y043074D01*
X06535Y043066D01*
X065345Y043058D01*
X065345Y043057D01*
X065343Y043055D01*
X06534Y043051D01*
X065335Y043047D01*
X06533Y043042D01*
X065323Y043036D01*
X065316Y043032D01*
X065306Y043027D01*
X065307D01*
X065308Y043026D01*
X06531Y043026D01*
X065312Y043025D01*
X065318Y043023D01*
X065326Y04302D01*
X065334Y043015D01*
X065343Y04301D01*
X065351Y043003D01*
X065359Y042994D01*
X065359Y042993D01*
X065362Y04299D01*
X065365Y042985D01*
X065368Y042978D01*
X065371Y042969D01*
X065375Y042958D01*
X065377Y042946D01*
X065377Y042933D01*
Y042933D01*
Y042931D01*
Y042928D01*
X065377Y042925D01*
X065376Y042921D01*
X065375Y042916D01*
X065374Y04291D01*
X065373Y042904D01*
X065369Y042891D01*
X065365Y042884D01*
X065362Y042878D01*
X065358Y042871D01*
X065353Y042863D01*
X065347Y042856D01*
X065341Y04285D01*
X06534Y042849D01*
X065339Y042848D01*
X065337Y042846D01*
X065334Y042844D01*
X065331Y042842D01*
X065327Y042839D01*
X065322Y042836D01*
X065316Y042833D01*
X06531Y04283D01*
X065303Y042826D01*
X065296Y042824D01*
X065287Y042821D01*
X065279Y042819D01*
X065269Y042817D01*
X06526Y042816D01*
X06525Y042815D01*
X065245D01*
X065241Y042816D01*
X065237Y042816D01*
X065232Y042817D01*
X065227Y042818D01*
X065221Y042819D01*
X065208Y042822D01*
X065194Y042828D01*
X065187Y042831D01*
X06518Y042835D01*
X065174Y04284D01*
X065167Y042845D01*
X065167Y042845D01*
X065166Y042846D01*
X065164Y042848D01*
X065162Y04285D01*
X06516Y042853D01*
X065157Y042857D01*
X065154Y042861D01*
X06515Y042866D01*
X065147Y042871D01*
X065144Y042877D01*
X065138Y04289D01*
X065133Y042905D01*
X065131Y042913D01*
X06513Y042922D01*
X065177Y042928D01*
Y042927D01*
X065177Y042926D01*
X065178Y042924D01*
X065178Y042921D01*
X065179Y042918D01*
X06518Y042914D01*
X065183Y042906D01*
X065186Y042896D01*
X065191Y042887D01*
X065197Y042878D01*
X065203Y042871D01*
X065204Y04287D01*
X065207Y042868D01*
X065211Y042865D01*
X065216Y042862D01*
X065223Y042859D01*
X065231Y042856D01*
X06524Y042854D01*
X06525Y042854D01*
X065254D01*
X065256Y042854D01*
X065262Y042855D01*
X065269Y042856D01*
X065278Y042859D01*
X065287Y042863D01*
X065297Y042868D01*
X065305Y042876D01*
X065306Y042877D01*
X065309Y04288D01*
X065312Y042885D01*
X065317Y042892D01*
X065321Y0429D01*
X065324Y042909D01*
X065327Y04292D01*
X065328Y042932D01*
Y042933D01*
Y042934D01*
Y042935D01*
X065328Y042938D01*
X065327Y042944D01*
X065326Y042951D01*
X065323Y04296D01*
X06532Y042968D01*
X065314Y042977D01*
X065307Y042985D01*
X065306Y042986D01*
X065303Y042988D01*
X065299Y042992D01*
X065293Y042996D01*
X065285Y042999D01*
X065276Y043003D01*
X065266Y043005D01*
X065254Y043006D01*
X065249D01*
X065245Y043005D01*
X06524Y043005D01*
X065235Y043004D01*
X065228Y043003D01*
X065221Y043001D01*
X065227Y043042D01*
X065229D01*
X065232Y043041D01*
X065239D01*
X065245Y043043D01*
X065252Y043044D01*
X06526Y043045D01*
X065269Y043048D01*
X065278Y043052D01*
X065287Y043057D01*
X065288D01*
X065288Y043057D01*
X065291Y043059D01*
X065295Y043063D01*
X065299Y043068D01*
X065304Y043075D01*
X065308Y043083D01*
X06531Y043093D01*
X065311Y043098D01*
Y043104D01*
Y043105D01*
Y043105D01*
Y043109D01*
X06531Y043113D01*
X065309Y043119D01*
X065307Y043126D01*
X065304Y043133D01*
X0653Y04314D01*
X065294Y043146D01*
X065293Y043147D01*
X065291Y043149D01*
X065287Y043152D01*
X065282Y043155D01*
X065275Y043158D01*
X065268Y04316D01*
X065259Y043163D01*
X065249Y043163D01*
X065245D01*
X06524Y043162D01*
X065233Y043161D01*
X065226Y043159D01*
X065219Y043156D01*
X065211Y043152D01*
X065204Y043146D01*
X065204Y043146D01*
X065202Y043143D01*
X065198Y043139D01*
X065195Y043134D01*
X065191Y043127D01*
X065187Y043118D01*
X065184Y043107D01*
X065181Y043095D01*
X065135Y043104D01*
Y043104D01*
X065136Y043106D01*
X065136Y043108D01*
X065137Y043111D01*
X065138Y043115D01*
X065139Y043119D01*
X065143Y04313D01*
X065148Y043142D01*
X065155Y043154D01*
X065163Y043165D01*
X065173Y043176D01*
X065174Y043176D01*
X065175Y043177D01*
X065177Y043178D01*
X065179Y04318D01*
X065181Y043182D01*
X065185Y043184D01*
X065189Y043186D01*
X065194Y043189D01*
X065205Y043193D01*
X065217Y043198D01*
X065232Y0432D01*
X06524Y043201D01*
X065254D01*
X06526Y043201D01*
D02*
G37*
G36*
X064923Y043199D02*
X064934Y043199D01*
X064944Y043198D01*
X064955Y043196D01*
X064965Y043194D01*
X064965D01*
X064966Y043194D01*
X064968D01*
X06497Y043193D01*
X064976Y043191D01*
X064984Y043188D01*
X064993Y043184D01*
X065002Y04318D01*
X065011Y043174D01*
X06502Y043167D01*
X06502Y043166D01*
X065021Y043166D01*
X065023Y043164D01*
X065025Y043163D01*
X06503Y043157D01*
X065037Y04315D01*
X065044Y04314D01*
X065051Y043129D01*
X065059Y043117D01*
X065065Y043103D01*
Y043102D01*
X065065Y043101D01*
X065066Y043099D01*
X065067Y043095D01*
X065068Y043092D01*
X06507Y043087D01*
X065071Y043082D01*
X065072Y043076D01*
X065074Y04307D01*
X065075Y043063D01*
X065078Y043048D01*
X065079Y043031D01*
X06508Y043012D01*
Y043012D01*
Y043011D01*
Y043008D01*
Y043005D01*
X065079Y043002D01*
Y042997D01*
X065079Y042987D01*
X065077Y042975D01*
X065076Y042962D01*
X065073Y042949D01*
X06507Y042936D01*
Y042935D01*
X065069Y042934D01*
X065068Y042933D01*
X065068Y042931D01*
X065066Y042925D01*
X065062Y042917D01*
X065059Y042908D01*
X065055Y042899D01*
X065049Y04289D01*
X065044Y042881D01*
X065043Y04288D01*
X065041Y042878D01*
X065038Y042874D01*
X065033Y042869D01*
X065029Y042863D01*
X065023Y042858D01*
X065017Y042852D01*
X065009Y042847D01*
X065008Y042846D01*
X065006Y042845D01*
X065002Y042843D01*
X064997Y04284D01*
X06499Y042837D01*
X064983Y042834D01*
X064974Y042831D01*
X064964Y042828D01*
X064963D01*
X064961Y042827D01*
X06496Y042827D01*
X064954Y042826D01*
X064947Y042825D01*
X064938Y042824D01*
X064928Y042823D01*
X064916Y042822D01*
X064904Y042822D01*
X064768D01*
Y0432D01*
X064913D01*
X064923Y043199D01*
D02*
G37*
G36*
X071602Y04202D02*
X071607Y042019D01*
X071612Y042019D01*
X071618Y042018D01*
X071624Y042016D01*
X071639Y042013D01*
X071653Y042007D01*
X07166Y042004D01*
X071667Y042D01*
X071673Y041995D01*
X071679Y04199D01*
X07168Y041989D01*
X071681Y041989D01*
X071682Y041986D01*
X071684Y041984D01*
X071687Y041982D01*
X07169Y041978D01*
X071693Y041974D01*
X071696Y041969D01*
X071701Y041959D01*
X071707Y041945D01*
X071709Y041939D01*
X07171Y041931D01*
X071711Y041924D01*
X071712Y041915D01*
Y041914D01*
Y041912D01*
X071711Y041907D01*
X071711Y041901D01*
X071709Y041895D01*
X071707Y041887D01*
X071705Y041879D01*
X071702Y041871D01*
X071701Y04187D01*
X0717Y041867D01*
X071698Y041863D01*
X071695Y041856D01*
X07169Y04185D01*
X071685Y041842D01*
X071678Y041834D01*
X071671Y041824D01*
X07167Y041823D01*
X071667Y04182D01*
X071664Y041817D01*
X071661Y041814D01*
X071658Y041811D01*
X071654Y041807D01*
X071649Y041802D01*
X071644Y041798D01*
X071639Y041792D01*
X071632Y041786D01*
X071625Y04178D01*
X071617Y041773D01*
X071608Y041766D01*
X0716Y041758D01*
X071599Y041758D01*
X071598Y041757D01*
X071596Y041755D01*
X071593Y041753D01*
X07159Y041749D01*
X071586Y041746D01*
X071577Y041739D01*
X071568Y041731D01*
X071559Y041723D01*
X071552Y041716D01*
X071548Y041713D01*
X071546Y04171D01*
X071545Y04171D01*
X071543Y041708D01*
X071541Y041706D01*
X071539Y041703D01*
X071536Y041699D01*
X071533Y041695D01*
X071526Y041686D01*
X071712D01*
Y041641D01*
X071462D01*
Y041641D01*
Y041644D01*
Y041647D01*
X071462Y041651D01*
X071463Y041656D01*
X071464Y041662D01*
X071465Y041667D01*
X071467Y041673D01*
Y041674D01*
X071468Y041674D01*
X071469Y041677D01*
X071471Y041682D01*
X071474Y041689D01*
X071479Y041697D01*
X071484Y041705D01*
X07149Y041714D01*
X071498Y041723D01*
Y041724D01*
X071499Y041724D01*
X071501Y041728D01*
X071506Y041733D01*
X071513Y04174D01*
X071522Y041748D01*
X071532Y041758D01*
X071545Y041769D01*
X071558Y04178D01*
X071559Y041781D01*
X071561Y041782D01*
X071564Y041785D01*
X071568Y041788D01*
X071573Y041793D01*
X071579Y041798D01*
X071585Y041803D01*
X071592Y041809D01*
X071606Y041822D01*
X071619Y041835D01*
X071626Y041842D01*
X071632Y041848D01*
X071637Y041854D01*
X071642Y04186D01*
Y041861D01*
X071643Y041861D01*
X071644Y041863D01*
X071645Y041865D01*
X071649Y041871D01*
X071653Y041878D01*
X071657Y041887D01*
X071661Y041896D01*
X071663Y041907D01*
X071664Y041917D01*
Y041917D01*
Y041918D01*
X071664Y041921D01*
X071663Y041926D01*
X071661Y041932D01*
X071659Y04194D01*
X071655Y041948D01*
X071651Y041955D01*
X071644Y041963D01*
X071643Y041964D01*
X07164Y041966D01*
X071636Y041969D01*
X07163Y041973D01*
X071623Y041976D01*
X071614Y041979D01*
X071604Y041982D01*
X071592Y041982D01*
X071589D01*
X071587Y041982D01*
X07158Y041981D01*
X071572Y041979D01*
X071564Y041977D01*
X071555Y041973D01*
X071546Y041968D01*
X071538Y041962D01*
X071537Y041961D01*
X071535Y041958D01*
X071531Y041954D01*
X071528Y041947D01*
X071524Y041939D01*
X071521Y04193D01*
X071519Y041919D01*
X071518Y041906D01*
X07147Y041911D01*
Y041912D01*
X071471Y041913D01*
Y041916D01*
X071471Y04192D01*
X071473Y041924D01*
X071474Y041929D01*
X071475Y041935D01*
X071477Y041941D01*
X071481Y041954D01*
X071488Y041967D01*
X071492Y041974D01*
X071497Y04198D01*
X071501Y041986D01*
X071507Y041992D01*
X071507Y041992D01*
X071509Y041993D01*
X07151Y041995D01*
X071513Y041996D01*
X071516Y041998D01*
X07152Y042001D01*
X071524Y042003D01*
X07153Y042006D01*
X071536Y042009D01*
X071542Y042012D01*
X07155Y042014D01*
X071557Y042016D01*
X071565Y042018D01*
X071574Y042019D01*
X071583Y04202D01*
X071593Y04202D01*
X071599D01*
X071602Y04202D01*
D02*
G37*
G36*
X071261Y042018D02*
X071272Y042018D01*
X071283Y042016D01*
X071294Y042015D01*
X071303Y042013D01*
X071304D01*
X071305Y042013D01*
X071307D01*
X071309Y042012D01*
X071315Y04201D01*
X071322Y042007D01*
X071331Y042003D01*
X07134Y041998D01*
X07135Y041993D01*
X071358Y041986D01*
X071359Y041985D01*
X07136Y041985D01*
X071361Y041983D01*
X071363Y041982D01*
X071369Y041976D01*
X071375Y041968D01*
X071382Y041959D01*
X07139Y041948D01*
X071397Y041936D01*
X071403Y041921D01*
Y041921D01*
X071404Y04192D01*
X071405Y041918D01*
X071405Y041914D01*
X071407Y041911D01*
X071408Y041906D01*
X071409Y041901D01*
X071411Y041895D01*
X071412Y041889D01*
X071414Y041882D01*
X071416Y041867D01*
X071418Y04185D01*
X071418Y041831D01*
Y041831D01*
Y04183D01*
Y041827D01*
Y041824D01*
X071418Y04182D01*
Y041816D01*
X071417Y041806D01*
X071416Y041794D01*
X071414Y041781D01*
X071411Y041768D01*
X071408Y041755D01*
Y041754D01*
X071408Y041753D01*
X071407Y041752D01*
X071406Y041749D01*
X071404Y041743D01*
X071401Y041736D01*
X071398Y041727D01*
X071393Y041718D01*
X071388Y041709D01*
X071382Y0417D01*
X071382Y041699D01*
X07138Y041697D01*
X071376Y041693D01*
X071372Y041688D01*
X071367Y041682D01*
X071361Y041677D01*
X071355Y041671D01*
X071348Y041666D01*
X071347Y041665D01*
X071345Y041664D01*
X071341Y041662D01*
X071335Y041659D01*
X071329Y041656D01*
X071321Y041653D01*
X071313Y04165D01*
X071303Y041647D01*
X071302D01*
X0713Y041646D01*
X071298Y041646D01*
X071293Y041645D01*
X071285Y041644D01*
X071277Y041643D01*
X071266Y041642D01*
X071255Y041641D01*
X071242Y041641D01*
X071106D01*
Y042019D01*
X071251D01*
X071261Y042018D01*
D02*
G37*
G36*
X067764Y043176D02*
X06777D01*
X067775Y043175D01*
X067782Y043175D01*
X067789Y043174D01*
X067805Y043171D01*
X067823Y043167D01*
X06784Y043162D01*
X067857Y043154D01*
X067858Y043153D01*
X067859Y043153D01*
X067862Y043152D01*
X067864Y043149D01*
X067868Y043147D01*
X067872Y043145D01*
X067882Y043137D01*
X067893Y043128D01*
X067904Y043117D01*
X067915Y043105D01*
X067924Y04309D01*
X067925Y043089D01*
X067925Y043088D01*
X067926Y043086D01*
X067928Y043083D01*
X06793Y043079D01*
X067931Y043074D01*
X067934Y043069D01*
X067936Y043063D01*
X067938Y043056D01*
X06794Y043049D01*
X067943Y043034D01*
X067946Y043016D01*
X067947Y042998D01*
Y042993D01*
X067947Y042989D01*
X067946Y042984D01*
X067946Y042978D01*
X067945Y042972D01*
X067943Y042965D01*
X06794Y04295D01*
X067935Y042934D01*
X067932Y042926D01*
X067928Y042918D01*
X067923Y04291D01*
X067918Y042903D01*
X067918Y042902D01*
X067917Y042901D01*
X067916Y042899D01*
X067913Y042896D01*
X06791Y042893D01*
X067906Y04289D01*
X067902Y042886D01*
X067898Y042881D01*
X067892Y042877D01*
X067886Y042873D01*
X067879Y042868D01*
X067872Y042863D01*
X067864Y04286D01*
X067856Y042855D01*
X067847Y042852D01*
X067837Y042849D01*
X067825Y042898D01*
X067826D01*
X067827Y042898D01*
X067829Y042899D01*
X067832Y042901D01*
X067835Y042902D01*
X06784Y042903D01*
X067848Y042908D01*
X067858Y042913D01*
X067868Y04292D01*
X067877Y042928D01*
X067886Y042937D01*
X067887Y042938D01*
X067889Y042941D01*
X067892Y042946D01*
X067895Y042953D01*
X067899Y042963D01*
X067902Y042973D01*
X067904Y042986D01*
X067905Y042999D01*
Y043004D01*
X067904Y043006D01*
Y04301D01*
X067904Y043015D01*
X067902Y043025D01*
X0679Y043036D01*
X067896Y043048D01*
X06789Y043061D01*
X067883Y043073D01*
Y043073D01*
X067882Y043074D01*
X06788Y043077D01*
X067875Y043082D01*
X067869Y043088D01*
X06786Y043095D01*
X067851Y043102D01*
X06784Y043108D01*
X067827Y043113D01*
X067827D01*
X067825Y043114D01*
X067824Y043115D01*
X067821Y043115D01*
X067818Y043116D01*
X067814Y043117D01*
X067805Y043119D01*
X067794Y043121D01*
X067782Y043123D01*
X067769Y043124D01*
X067755Y043125D01*
X067754D01*
X067752D01*
X06775D01*
X067746D01*
X067742Y043124D01*
X067738D01*
X067732Y043124D01*
X067726Y043123D01*
X067713Y043122D01*
X067699Y043119D01*
X067685Y043116D01*
X06767Y043111D01*
X06767D01*
X067669Y043111D01*
X067667Y04311D01*
X067664Y043109D01*
X067658Y043105D01*
X06765Y0431D01*
X067641Y043094D01*
X067632Y043087D01*
X067624Y043078D01*
X067616Y043068D01*
Y043067D01*
X067616Y043066D01*
X067615Y043064D01*
X067614Y043062D01*
X067613Y043059D01*
X067611Y043056D01*
X067608Y043048D01*
X067604Y043039D01*
X067602Y043028D01*
X067599Y043016D01*
X067599Y043003D01*
Y042999D01*
X067599Y042996D01*
Y042992D01*
X0676Y042988D01*
X067602Y042979D01*
X067605Y042967D01*
X067609Y042956D01*
X067615Y042944D01*
X067619Y042938D01*
X067623Y042932D01*
X067623Y042932D01*
X067624Y042931D01*
X067626Y042929D01*
X067627Y042927D01*
X06763Y042925D01*
X067633Y042922D01*
X067637Y042919D01*
X067641Y042916D01*
X067646Y042913D01*
X067651Y042909D01*
X067657Y042906D01*
X067663Y042903D01*
X06767Y0429D01*
X067678Y042897D01*
X067686Y042895D01*
X067695Y042892D01*
X067682Y042842D01*
X067682D01*
X06768Y042843D01*
X067676Y042844D01*
X067672Y042845D01*
X067667Y042847D01*
X067661Y042849D01*
X067655Y042852D01*
X067647Y042855D01*
X067632Y042863D01*
X067617Y042873D01*
X067609Y042879D01*
X067602Y042885D01*
X067595Y042891D01*
X067589Y042899D01*
X067588Y042899D01*
X067587Y042901D01*
X067586Y042903D01*
X067584Y042906D01*
X067581Y04291D01*
X067578Y042915D01*
X067575Y042921D01*
X067573Y042927D01*
X067569Y042934D01*
X067567Y042941D01*
X067564Y04295D01*
X067561Y042958D01*
X067559Y042968D01*
X067558Y042978D01*
X067557Y042988D01*
X067556Y042999D01*
Y043005D01*
X067557Y043009D01*
Y043014D01*
X067557Y04302D01*
X067558Y043027D01*
X06756Y043034D01*
X067562Y04305D01*
X067567Y043067D01*
X067573Y043083D01*
X067576Y043091D01*
X067581Y043098D01*
X067581Y043099D01*
X067582Y0431D01*
X067584Y043102D01*
X067586Y043104D01*
X067588Y043107D01*
X067591Y043111D01*
X067595Y043116D01*
X067599Y04312D01*
X067604Y043124D01*
X067609Y043129D01*
X067622Y043139D01*
X067637Y043148D01*
X067653Y043157D01*
X067653D01*
X067655Y043158D01*
X067658Y043158D01*
X067661Y04316D01*
X067666Y043161D01*
X067671Y043163D01*
X067677Y043165D01*
X067684Y043166D01*
X067691Y043168D01*
X067699Y04317D01*
X067716Y043173D01*
X067735Y043175D01*
X067755Y043176D01*
X067755D01*
X067757D01*
X067761D01*
X067764Y043176D01*
D02*
G37*
G36*
X067666Y042751D02*
X067665D01*
X067664D01*
X067662Y04275D01*
X067659Y04275D01*
X067653Y042748D01*
X067645Y042746D01*
X067637Y042743D01*
X067628Y042738D01*
X06762Y042733D01*
X067612Y042726D01*
X067611Y042725D01*
X067609Y042723D01*
X067607Y042719D01*
X067603Y042713D01*
X0676Y042706D01*
X067597Y042698D01*
X067595Y042689D01*
X067595Y042678D01*
Y042675D01*
X067595Y042673D01*
X067596Y042666D01*
X067598Y042659D01*
X067601Y042649D01*
X067605Y04264D01*
X067611Y04263D01*
X067615Y042626D01*
X06762Y042622D01*
X06762Y042621D01*
X067621Y04262D01*
X067622Y042619D01*
X067624Y042618D01*
X06763Y042614D01*
X067638Y04261D01*
X067647Y042606D01*
X067658Y042602D01*
X067672Y042599D01*
X067679Y042598D01*
X067687D01*
X067687D01*
X067688D01*
X067691D01*
X067693Y042599D01*
X067697D01*
X0677Y042599D01*
X067709Y042601D01*
X06772Y042604D01*
X06773Y042607D01*
X06774Y042613D01*
X067749Y04262D01*
X06775D01*
X06775Y042622D01*
X067753Y042624D01*
X067757Y042629D01*
X067761Y042636D01*
X067765Y042644D01*
X067769Y042654D01*
X067771Y042666D01*
X067773Y042672D01*
Y042683D01*
X067772Y042687D01*
X067771Y042692D01*
X06777Y042699D01*
X067768Y042706D01*
X067765Y042713D01*
X067762Y04272D01*
X067762Y04272D01*
X067761Y042723D01*
X067758Y042726D01*
X067755Y04273D01*
X067751Y042735D01*
X067746Y042739D01*
X067741Y042744D01*
X067735Y042748D01*
X067741Y042791D01*
X067936Y042755D01*
Y042567D01*
X067892D01*
Y042718D01*
X067789Y042738D01*
X06779Y042738D01*
X067791Y042737D01*
X067792Y042735D01*
X067793Y042732D01*
X067795Y042729D01*
X067797Y042725D01*
X067801Y042717D01*
X067806Y042706D01*
X06781Y042694D01*
X067812Y04268D01*
X067813Y042674D01*
Y042662D01*
X067813Y042659D01*
X067812Y042654D01*
X067812Y042649D01*
X067811Y042644D01*
X067809Y042638D01*
X067805Y042625D01*
X067803Y042618D01*
X067799Y042611D01*
X067795Y042604D01*
X067791Y042596D01*
X067785Y04259D01*
X067779Y042583D01*
X067779Y042583D01*
X067777Y042582D01*
X067776Y04258D01*
X067773Y042578D01*
X067769Y042575D01*
X067765Y042572D01*
X067761Y042569D01*
X067755Y042566D01*
X067749Y042563D01*
X067742Y04256D01*
X067735Y042557D01*
X067727Y042554D01*
X067719Y042552D01*
X06771Y042551D01*
X0677Y042549D01*
X067691Y042549D01*
X06769D01*
X067688D01*
X067686D01*
X067682Y042549D01*
X067678Y04255D01*
X067673Y042551D01*
X067667Y042552D01*
X067661Y042553D01*
X067646Y042556D01*
X067632Y042561D01*
X067624Y042565D01*
X067617Y042569D01*
X067609Y042573D01*
X067602Y042579D01*
X067602Y042579D01*
X0676Y042581D01*
X067598Y042583D01*
X067595Y042585D01*
X067592Y042589D01*
X067587Y042594D01*
X067584Y042599D01*
X067579Y042605D01*
X067575Y042612D01*
X067571Y042619D01*
X067567Y042628D01*
X067563Y042636D01*
X067561Y042646D01*
X067558Y042656D01*
X067557Y042667D01*
X067556Y042678D01*
Y042683D01*
X067557Y042687D01*
X067557Y042691D01*
X067558Y042696D01*
X067558Y042702D01*
X06756Y042708D01*
X067563Y042722D01*
X067568Y042736D01*
X067572Y042743D01*
X067575Y04275D01*
X06758Y042756D01*
X067585Y042763D01*
X067585Y042763D01*
X067586Y042765D01*
X067588Y042766D01*
X06759Y042768D01*
X067593Y042771D01*
X067596Y042773D01*
X067601Y042777D01*
X067605Y042779D01*
X06761Y042783D01*
X067616Y042786D01*
X067629Y042792D01*
X067645Y042797D01*
X067653Y042798D01*
X067662Y0428D01*
X067666Y042751D01*
D02*
G37*
G36*
X069522Y041946D02*
X069527Y041945D01*
X069533Y041945D01*
X069539Y041944D01*
X069546Y041943D01*
X069561Y041939D01*
X069577Y041934D01*
X069585Y041931D01*
X069593Y041927D01*
X0696Y041922D01*
X069608Y041918D01*
X069609Y041917D01*
X06961Y041916D01*
X069612Y041915D01*
X069615Y041912D01*
X069617Y041909D01*
X069621Y041906D01*
X069625Y041901D01*
X069629Y041897D01*
X069634Y041891D01*
X069638Y041885D01*
X069643Y041878D01*
X069647Y041871D01*
X069651Y041863D01*
X069656Y041855D01*
X069659Y041846D01*
X069662Y041836D01*
X069613Y041825D01*
Y041825D01*
X069612Y041826D01*
X069611Y041829D01*
X06961Y041831D01*
X069609Y041835D01*
X069608Y041839D01*
X069603Y041848D01*
X069598Y041857D01*
X069591Y041867D01*
X069583Y041877D01*
X069574Y041885D01*
X069573Y041886D01*
X06957Y041888D01*
X069564Y041891D01*
X069557Y041895D01*
X069548Y041898D01*
X069538Y041901D01*
X069525Y041903D01*
X069511Y041904D01*
X069507D01*
X069504Y041903D01*
X0695D01*
X069496Y041903D01*
X069486Y041901D01*
X069474Y041899D01*
X069462Y041895D01*
X06945Y04189D01*
X069438Y041883D01*
X069438D01*
X069437Y041881D01*
X069433Y041879D01*
X069428Y041874D01*
X069422Y041868D01*
X069415Y04186D01*
X069409Y04185D01*
X069403Y041839D01*
X069397Y041826D01*
Y041826D01*
X069397Y041825D01*
X069396Y041823D01*
X069396Y04182D01*
X069395Y041817D01*
X069393Y041813D01*
X069392Y041804D01*
X06939Y041793D01*
X069387Y041781D01*
X069386Y041768D01*
X069386Y041754D01*
Y041753D01*
Y041752D01*
Y041749D01*
Y041746D01*
X069386Y041742D01*
Y041737D01*
X069387Y041731D01*
X069387Y041725D01*
X069389Y041712D01*
X069392Y041698D01*
X069395Y041684D01*
X069399Y04167D01*
Y041669D01*
X0694Y041668D01*
X069401Y041666D01*
X069402Y041664D01*
X069405Y041657D01*
X06941Y041649D01*
X069416Y041641D01*
X069424Y041631D01*
X069433Y041623D01*
X069443Y041616D01*
X069444D01*
X069445Y041615D01*
X069446Y041614D01*
X069449Y041613D01*
X069451Y041612D01*
X069455Y04161D01*
X069462Y041607D01*
X069472Y041604D01*
X069483Y041601D01*
X069495Y041599D01*
X069508Y041598D01*
X069511D01*
X069515Y041599D01*
X069519D01*
X069522Y041599D01*
X069532Y041601D01*
X069544Y041604D01*
X069555Y041608D01*
X069567Y041614D01*
X069573Y041618D01*
X069579Y041622D01*
X069579Y041623D01*
X06958Y041623D01*
X069581Y041625D01*
X069583Y041627D01*
X069586Y041629D01*
X069588Y041633D01*
X069592Y041636D01*
X069594Y04164D01*
X069598Y041645D01*
X069601Y041651D01*
X069605Y041656D01*
X069608Y041663D01*
X069611Y04167D01*
X069614Y041677D01*
X069616Y041685D01*
X069618Y041694D01*
X069669Y041682D01*
Y041681D01*
X069668Y041679D01*
X069667Y041676D01*
X069665Y041671D01*
X069664Y041666D01*
X069662Y04166D01*
X069659Y041654D01*
X069656Y041647D01*
X069648Y041631D01*
X069638Y041616D01*
X069632Y041608D01*
X069626Y041601D01*
X06962Y041594D01*
X069612Y041588D01*
X069611Y041587D01*
X06961Y041586D01*
X069608Y041585D01*
X069605Y041583D01*
X0696Y04158D01*
X069596Y041577D01*
X06959Y041575D01*
X069584Y041572D01*
X069577Y041569D01*
X069569Y041566D01*
X069561Y041563D01*
X069552Y04156D01*
X069543Y041558D01*
X069533Y041557D01*
X069523Y041556D01*
X069512Y041556D01*
X069506D01*
X069502Y041556D01*
X069497D01*
X069491Y041557D01*
X069484Y041558D01*
X069476Y041559D01*
X069461Y041562D01*
X069444Y041566D01*
X069428Y041572D01*
X06942Y041576D01*
X069413Y04158D01*
X069412Y041581D01*
X069411Y041581D01*
X069409Y041583D01*
X069407Y041585D01*
X069403Y041587D01*
X069399Y04159D01*
X069395Y041594D01*
X069391Y041599D01*
X069386Y041604D01*
X069381Y041608D01*
X069372Y041621D01*
X069362Y041636D01*
X069354Y041652D01*
Y041653D01*
X069353Y041654D01*
X069353Y041657D01*
X069351Y04166D01*
X06935Y041665D01*
X069348Y04167D01*
X069346Y041676D01*
X069344Y041683D01*
X069343Y04169D01*
X069341Y041698D01*
X069338Y041715D01*
X069336Y041734D01*
X069335Y041754D01*
Y041754D01*
Y041756D01*
Y04176D01*
X069335Y041764D01*
Y041769D01*
X069336Y041774D01*
X069336Y041782D01*
X069337Y041789D01*
X06934Y041804D01*
X069344Y041822D01*
X069349Y041839D01*
X069357Y041856D01*
X069357Y041857D01*
X069358Y041859D01*
X069359Y041861D01*
X069361Y041863D01*
X069363Y041867D01*
X069366Y041872D01*
X069373Y041881D01*
X069383Y041892D01*
X069393Y041903D01*
X069406Y041914D01*
X069421Y041924D01*
X069421Y041924D01*
X069423Y041925D01*
X069425Y041926D01*
X069428Y041927D01*
X069432Y041929D01*
X069437Y041931D01*
X069442Y041933D01*
X069448Y041935D01*
X069455Y041937D01*
X069462Y041939D01*
X069477Y041943D01*
X069494Y041945D01*
X069513Y041946D01*
X069518D01*
X069522Y041946D01*
D02*
G37*
G36*
X069906Y041695D02*
X069957D01*
Y041653D01*
X069906D01*
Y041562D01*
X06986D01*
Y041653D01*
X069695D01*
Y041695D01*
X069868Y04194D01*
X069906D01*
Y041695D01*
D02*
G37*
G36*
X072292Y045499D02*
X072297D01*
X072303Y045498D01*
X07231Y045497D01*
X072317Y045496D01*
X072333Y045494D01*
X07235Y04549D01*
X072368Y045484D01*
X072385Y045477D01*
X072385Y045476D01*
X072387Y045476D01*
X072389Y045475D01*
X072392Y045472D01*
X072396Y04547D01*
X0724Y045467D01*
X07241Y04546D01*
X072421Y045451D01*
X072432Y04544D01*
X072443Y045428D01*
X072452Y045413D01*
X072452Y045412D01*
X072453Y045411D01*
X072454Y045408D01*
X072456Y045406D01*
X072457Y045401D01*
X072459Y045397D01*
X072461Y045392D01*
X072463Y045386D01*
X072466Y045379D01*
X072468Y045372D01*
X072471Y045357D01*
X072474Y045339D01*
X072475Y045321D01*
Y045316D01*
X072474Y045312D01*
X072474Y045307D01*
X072473Y045301D01*
X072473Y045295D01*
X072471Y045288D01*
X072468Y045273D01*
X072463Y045257D01*
X07246Y045248D01*
X072456Y045241D01*
X072451Y045233D01*
X072446Y045226D01*
X072445Y045225D01*
X072445Y045224D01*
X072443Y045222D01*
X07244Y045219D01*
X072438Y045216D01*
X072434Y045212D01*
X072429Y045209D01*
X072425Y045204D01*
X07242Y0452D01*
X072413Y045196D01*
X072407Y045191D01*
X072399Y045186D01*
X072391Y045182D01*
X072383Y045178D01*
X072374Y045175D01*
X072365Y045171D01*
X072353Y045221D01*
X072354D01*
X072355Y045221D01*
X072357Y045222D01*
X07236Y045223D01*
X072363Y045224D01*
X072367Y045226D01*
X072376Y04523D01*
X072386Y045236D01*
X072396Y045242D01*
X072405Y045251D01*
X072413Y045259D01*
X072414Y04526D01*
X072416Y045264D01*
X072419Y045269D01*
X072423Y045276D01*
X072426Y045286D01*
X072429Y045296D01*
X072432Y045309D01*
X072432Y045322D01*
Y045327D01*
X072432Y045329D01*
Y045333D01*
X072431Y045337D01*
X072429Y045348D01*
X072427Y045359D01*
X072423Y045371D01*
X072418Y045384D01*
X072411Y045395D01*
Y045396D01*
X07241Y045396D01*
X072407Y0454D01*
X072403Y045405D01*
X072396Y045411D01*
X072388Y045418D01*
X072379Y045425D01*
X072367Y045431D01*
X072355Y045436D01*
X072354D01*
X072353Y045437D01*
X072351Y045437D01*
X072349Y045438D01*
X072345Y045439D01*
X072342Y04544D01*
X072332Y045442D01*
X072321Y045444D01*
X072309Y045446D01*
X072296Y045447D01*
X072282Y045448D01*
X072282D01*
X07228D01*
X072277D01*
X072274D01*
X07227Y045447D01*
X072265D01*
X07226Y045447D01*
X072254Y045446D01*
X072241Y045444D01*
X072226Y045442D01*
X072212Y045438D01*
X072198Y045434D01*
X072197D01*
X072196Y045434D01*
X072195Y045432D01*
X072192Y045431D01*
X072185Y045428D01*
X072178Y045423D01*
X072169Y045417D01*
X07216Y04541D01*
X072152Y045401D01*
X072144Y04539D01*
Y04539D01*
X072143Y045389D01*
X072142Y045387D01*
X072141Y045385D01*
X07214Y045382D01*
X072138Y045379D01*
X072135Y045371D01*
X072132Y045361D01*
X072129Y045351D01*
X072127Y045339D01*
X072126Y045326D01*
Y045322D01*
X072127Y045319D01*
Y045315D01*
X072128Y045311D01*
X07213Y045301D01*
X072132Y04529D01*
X072137Y045279D01*
X072143Y045266D01*
X072146Y04526D01*
X07215Y045255D01*
X072151Y045254D01*
X072152Y045254D01*
X072153Y045252D01*
X072155Y04525D01*
X072158Y045248D01*
X072161Y045245D01*
X072164Y045242D01*
X072168Y045239D01*
X072173Y045236D01*
X072179Y045232D01*
X072184Y045229D01*
X072191Y045226D01*
X072198Y045223D01*
X072206Y04522D01*
X072214Y045217D01*
X072223Y045215D01*
X07221Y045165D01*
X072209D01*
X072207Y045165D01*
X072204Y045167D01*
X0722Y045168D01*
X072195Y04517D01*
X072189Y045172D01*
X072182Y045175D01*
X072175Y045178D01*
X07216Y045186D01*
X072144Y045196D01*
X072137Y045202D01*
X072129Y045208D01*
X072123Y045214D01*
X072116Y045222D01*
X072116Y045222D01*
X072114Y045223D01*
X072113Y045226D01*
X072111Y045229D01*
X072108Y045233D01*
X072106Y045238D01*
X072103Y045244D01*
X0721Y04525D01*
X072097Y045257D01*
X072094Y045264D01*
X072091Y045272D01*
X072089Y045281D01*
X072087Y045291D01*
X072085Y0453D01*
X072084Y045311D01*
X072084Y045322D01*
Y045328D01*
X072084Y045332D01*
Y045337D01*
X072085Y045343D01*
X072086Y045349D01*
X072087Y045357D01*
X07209Y045373D01*
X072094Y045389D01*
X0721Y045406D01*
X072104Y045413D01*
X072108Y045421D01*
X072109Y045422D01*
X07211Y045423D01*
X072111Y045425D01*
X072113Y045427D01*
X072116Y04543D01*
X072119Y045434D01*
X072123Y045438D01*
X072127Y045443D01*
X072132Y045447D01*
X072137Y045452D01*
X072149Y045462D01*
X072164Y045471D01*
X072181Y045479D01*
X072181D01*
X072183Y045481D01*
X072185Y045481D01*
X072189Y045483D01*
X072193Y045484D01*
X072199Y045485D01*
X072205Y045488D01*
X072211Y045489D01*
X072218Y045491D01*
X072226Y045493D01*
X072243Y045496D01*
X072262Y045498D01*
X072282Y045499D01*
X072283D01*
X072285D01*
X072288D01*
X072292Y045499D01*
D02*
G37*
G36*
X072196Y045075D02*
X072196D01*
X072195Y045075D01*
X072193Y045074D01*
X07219Y045074D01*
X072186Y045073D01*
X072183Y045072D01*
X072174Y045069D01*
X072165Y045066D01*
X072155Y045061D01*
X072147Y045055D01*
X072139Y045049D01*
X072138Y045048D01*
X072136Y045045D01*
X072134Y045041D01*
X072131Y045036D01*
X072128Y045029D01*
X072125Y045021D01*
X072123Y045012D01*
X072122Y045002D01*
Y044998D01*
X072123Y044996D01*
X072123Y04499D01*
X072125Y044983D01*
X072128Y044974D01*
X072131Y044965D01*
X072137Y044955D01*
X072144Y044947D01*
X072146Y044945D01*
X072149Y044943D01*
X072154Y044939D01*
X07216Y044935D01*
X072168Y044931D01*
X072178Y044927D01*
X072189Y044925D01*
X072201Y044924D01*
X072201D01*
X072202D01*
X072204D01*
X072206Y044924D01*
X072212Y044925D01*
X072219Y044926D01*
X072228Y044929D01*
X072237Y044932D01*
X072245Y044938D01*
X072254Y044945D01*
X072255Y044946D01*
X072257Y044949D01*
X07226Y044953D01*
X072264Y044959D01*
X072268Y044967D01*
X072271Y044976D01*
X072273Y044986D01*
X072274Y044998D01*
Y045003D01*
X072274Y045007D01*
X072273Y045012D01*
X072272Y045017D01*
X072271Y045024D01*
X07227Y045031D01*
X07231Y045025D01*
Y045022D01*
X07231Y04502D01*
Y045013D01*
X072311Y045007D01*
X072312Y045D01*
X072314Y044992D01*
X072316Y044983D01*
X07232Y044974D01*
X072325Y044965D01*
Y044964D01*
X072326Y044963D01*
X072328Y044961D01*
X072332Y044957D01*
X072337Y044953D01*
X072344Y044948D01*
X072352Y044944D01*
X072361Y044942D01*
X072367Y044941D01*
X072373D01*
X072373D01*
X072374D01*
X072377D01*
X072381Y044942D01*
X072387Y044943D01*
X072394Y044945D01*
X072401Y044948D01*
X072408Y044952D01*
X072415Y044958D01*
X072415Y044959D01*
X072417Y044961D01*
X07242Y044965D01*
X072423Y04497D01*
X072426Y044977D01*
X072429Y044984D01*
X072431Y044993D01*
X072432Y045003D01*
Y045007D01*
X072431Y045012D01*
X072429Y045019D01*
X072427Y045026D01*
X072425Y045033D01*
X07242Y04504D01*
X072415Y045048D01*
X072414Y045048D01*
X072411Y04505D01*
X072408Y045054D01*
X072402Y045057D01*
X072395Y045061D01*
X072386Y045065D01*
X072376Y045068D01*
X072364Y04507D01*
X072372Y045117D01*
X072373D01*
X072374Y045116D01*
X072377Y045116D01*
X07238Y045115D01*
X072384Y045114D01*
X072388Y045113D01*
X072398Y045109D01*
X07241Y045104D01*
X072422Y045097D01*
X072434Y045089D01*
X072444Y045079D01*
X072445Y045078D01*
X072445Y045077D01*
X072446Y045075D01*
X072448Y045073D01*
X07245Y04507D01*
X072452Y045067D01*
X072455Y045063D01*
X072457Y045058D01*
X072462Y045047D01*
X072466Y045034D01*
X072469Y04502D01*
X07247Y045012D01*
Y044998D01*
X072469Y044992D01*
X072468Y044985D01*
X072467Y044977D01*
X072464Y044967D01*
X072461Y044957D01*
X072456Y044947D01*
Y044947D01*
X072456Y044946D01*
X072454Y044943D01*
X072451Y044938D01*
X072447Y044932D01*
X072441Y044926D01*
X072435Y044919D01*
X072428Y044913D01*
X07242Y044907D01*
X072419Y044907D01*
X072416Y044905D01*
X072411Y044903D01*
X072405Y0449D01*
X072398Y044897D01*
X07239Y044895D01*
X072381Y044894D01*
X072372Y044893D01*
X072371D01*
X072367D01*
X072363Y044894D01*
X072357Y044895D01*
X07235Y044896D01*
X072342Y044899D01*
X072334Y044902D01*
X072327Y044907D01*
X072326Y044907D01*
X072324Y044909D01*
X07232Y044912D01*
X072315Y044917D01*
X07231Y044922D01*
X072305Y044929D01*
X0723Y044936D01*
X072295Y044945D01*
Y044945D01*
X072295Y044944D01*
X072294Y044942D01*
X072294Y04494D01*
X072291Y044934D01*
X072288Y044926D01*
X072284Y044918D01*
X072278Y044909D01*
X072271Y044901D01*
X072263Y044893D01*
X072262Y044892D01*
X072259Y04489D01*
X072253Y044887D01*
X072246Y044884D01*
X072237Y04488D01*
X072227Y044877D01*
X072215Y044875D01*
X072202Y044874D01*
X072201D01*
X0722D01*
X072197D01*
X072194Y044875D01*
X072189Y044876D01*
X072184Y044877D01*
X072179Y044878D01*
X072173Y044879D01*
X07216Y044883D01*
X072153Y044886D01*
X072146Y04489D01*
X072139Y044894D01*
X072132Y044899D01*
X072125Y044904D01*
X072118Y044911D01*
X072118Y044912D01*
X072117Y044913D01*
X072115Y044915D01*
X072113Y044918D01*
X07211Y044921D01*
X072107Y044925D01*
X072104Y04493D01*
X072101Y044936D01*
X072098Y044942D01*
X072095Y044949D01*
X072092Y044956D01*
X072089Y044965D01*
X072087Y044973D01*
X072085Y044983D01*
X072084Y044992D01*
X072084Y045002D01*
Y045007D01*
X072084Y04501D01*
X072085Y045015D01*
X072085Y04502D01*
X072087Y045025D01*
X072088Y045031D01*
X072091Y045044D01*
X072096Y045058D01*
X0721Y045065D01*
X072104Y045072D01*
X072108Y045078D01*
X072113Y045085D01*
X072114Y045085D01*
X072115Y045086D01*
X072117Y045088D01*
X072119Y04509D01*
X072122Y045092D01*
X072125Y045095D01*
X072129Y045098D01*
X072134Y045102D01*
X07214Y045105D01*
X072145Y045108D01*
X072158Y045114D01*
X072173Y045119D01*
X072182Y045121D01*
X07219Y045122D01*
X072196Y045075D01*
D02*
G37*
G36*
X073026Y045253D02*
X073031Y045252D01*
X073037Y045252D01*
X073043Y045251D01*
X07305Y04525D01*
X073064Y045246D01*
X073081Y045242D01*
X073089Y045238D01*
X073097Y045234D01*
X073104Y04523D01*
X073112Y045225D01*
X073113Y045224D01*
X073114Y045224D01*
X073116Y045222D01*
X073119Y045219D01*
X073121Y045216D01*
X073125Y045213D01*
X073129Y045208D01*
X073133Y045204D01*
X073138Y045198D01*
X073142Y045192D01*
X073147Y045185D01*
X073151Y045178D01*
X073155Y04517D01*
X073159Y045162D01*
X073163Y045153D01*
X073166Y045143D01*
X073117Y045132D01*
Y045132D01*
X073116Y045133D01*
X073115Y045136D01*
X073114Y045138D01*
X073113Y045142D01*
X073111Y045146D01*
X073107Y045155D01*
X073102Y045165D01*
X073095Y045174D01*
X073087Y045184D01*
X073078Y045192D01*
X073077Y045193D01*
X073074Y045195D01*
X073068Y045198D01*
X073061Y045202D01*
X073052Y045205D01*
X073042Y045208D01*
X073029Y04521D01*
X073015Y045211D01*
X073011D01*
X073008Y04521D01*
X073004D01*
X073Y04521D01*
X07299Y045208D01*
X072978Y045206D01*
X072966Y045202D01*
X072954Y045197D01*
X072942Y04519D01*
X072942D01*
X072941Y045189D01*
X072937Y045186D01*
X072932Y045181D01*
X072926Y045175D01*
X072919Y045167D01*
X072913Y045157D01*
X072907Y045146D01*
X072901Y045133D01*
Y045133D01*
X072901Y045132D01*
X0729Y04513D01*
X0729Y045127D01*
X072899Y045124D01*
X072897Y04512D01*
X072896Y045111D01*
X072894Y0451D01*
X072891Y045088D01*
X07289Y045075D01*
X07289Y045061D01*
Y04506D01*
Y045059D01*
Y045056D01*
Y045053D01*
X07289Y045049D01*
Y045044D01*
X072891Y045038D01*
X072891Y045032D01*
X072893Y045019D01*
X072896Y045005D01*
X072899Y044991D01*
X072903Y044977D01*
Y044976D01*
X072904Y044975D01*
X072905Y044973D01*
X072906Y044971D01*
X072909Y044964D01*
X072914Y044957D01*
X07292Y044948D01*
X072928Y044939D01*
X072937Y04493D01*
X072947Y044923D01*
X072948D01*
X072949Y044922D01*
X07295Y044921D01*
X072953Y04492D01*
X072955Y044919D01*
X072959Y044917D01*
X072966Y044914D01*
X072976Y044911D01*
X072987Y044908D01*
X072999Y044906D01*
X073012Y044905D01*
X073015D01*
X073019Y044906D01*
X073022D01*
X073026Y044906D01*
X073036Y044908D01*
X073048Y044911D01*
X073059Y044916D01*
X073071Y044922D01*
X073077Y044925D01*
X073082Y044929D01*
X073083Y04493D01*
X073084Y04493D01*
X073085Y044932D01*
X073087Y044934D01*
X07309Y044936D01*
X073092Y04494D01*
X073096Y044943D01*
X073098Y044947D01*
X073102Y044952D01*
X073105Y044958D01*
X073109Y044963D01*
X073112Y04497D01*
X073115Y044977D01*
X073117Y044984D01*
X07312Y044993D01*
X073122Y045001D01*
X073173Y044989D01*
Y044988D01*
X073172Y044986D01*
X073171Y044983D01*
X073169Y044978D01*
X073168Y044973D01*
X073165Y044967D01*
X073163Y044961D01*
X073159Y044954D01*
X073152Y044939D01*
X073142Y044923D01*
X073136Y044916D01*
X07313Y044908D01*
X073123Y044901D01*
X073116Y044895D01*
X073115Y044894D01*
X073114Y044893D01*
X073111Y044892D01*
X073109Y04489D01*
X073104Y044887D01*
X0731Y044884D01*
X073094Y044882D01*
X073088Y044879D01*
X073081Y044876D01*
X073073Y044873D01*
X073065Y04487D01*
X073056Y044868D01*
X073047Y044865D01*
X073037Y044864D01*
X073027Y044863D01*
X073016Y044863D01*
X07301D01*
X073006Y044863D01*
X073001D01*
X072995Y044864D01*
X072988Y044865D01*
X07298Y044866D01*
X072965Y044869D01*
X072948Y044873D01*
X072932Y044879D01*
X072924Y044883D01*
X072917Y044887D01*
X072916Y044888D01*
X072915Y044888D01*
X072913Y04489D01*
X072911Y044892D01*
X072907Y044894D01*
X072903Y044898D01*
X072899Y044901D01*
X072895Y044906D01*
X07289Y044911D01*
X072885Y044916D01*
X072876Y044928D01*
X072866Y044943D01*
X072858Y044959D01*
Y04496D01*
X072857Y044961D01*
X072856Y044964D01*
X072855Y044967D01*
X072854Y044972D01*
X072852Y044977D01*
X07285Y044983D01*
X072848Y04499D01*
X072847Y044997D01*
X072844Y045005D01*
X072842Y045022D01*
X07284Y045041D01*
X072838Y045061D01*
Y045061D01*
Y045064D01*
Y045067D01*
X072839Y045071D01*
Y045076D01*
X07284Y045082D01*
X07284Y045089D01*
X072841Y045096D01*
X072844Y045112D01*
X072848Y045129D01*
X072853Y045147D01*
X072861Y045163D01*
X072861Y045164D01*
X072862Y045166D01*
X072863Y045168D01*
X072865Y045171D01*
X072867Y045174D01*
X07287Y045179D01*
X072877Y045189D01*
X072886Y045199D01*
X072897Y04521D01*
X07291Y045221D01*
X072925Y045231D01*
X072925Y045231D01*
X072927Y045232D01*
X072929Y045233D01*
X072932Y045234D01*
X072936Y045236D01*
X072941Y045238D01*
X072946Y04524D01*
X072952Y045242D01*
X072959Y045244D01*
X072966Y045246D01*
X072981Y04525D01*
X072998Y045252D01*
X073016Y045254D01*
X073022D01*
X073026Y045253D01*
D02*
G37*
G36*
X073349Y045248D02*
X073354Y045248D01*
X073359Y045247D01*
X073365Y045246D01*
X073371Y045245D01*
X073386Y045241D01*
X0734Y045236D01*
X073407Y045232D01*
X073414Y045228D01*
X07342Y045224D01*
X073426Y045218D01*
X073427Y045218D01*
X073428Y045217D01*
X073429Y045215D01*
X073431Y045213D01*
X073434Y04521D01*
X073437Y045206D01*
X07344Y045202D01*
X073443Y045197D01*
X073448Y045187D01*
X073454Y045174D01*
X073456Y045167D01*
X073457Y04516D01*
X073458Y045152D01*
X073459Y045144D01*
Y045143D01*
Y04514D01*
X073458Y045136D01*
X073458Y04513D01*
X073457Y045123D01*
X073454Y045115D01*
X073452Y045107D01*
X073449Y045099D01*
X073448Y045098D01*
X073447Y045095D01*
X073445Y045091D01*
X073442Y045085D01*
X073437Y045078D01*
X073432Y04507D01*
X073425Y045062D01*
X073418Y045053D01*
X073417Y045052D01*
X073414Y045048D01*
X073411Y045046D01*
X073408Y045043D01*
X073405Y04504D01*
X073401Y045035D01*
X073396Y045031D01*
X073391Y045026D01*
X073386Y04502D01*
X073379Y045014D01*
X073372Y045008D01*
X073364Y045001D01*
X073355Y044994D01*
X073347Y044987D01*
X073346Y044986D01*
X073345Y044985D01*
X073343Y044983D01*
X07334Y044981D01*
X073337Y044978D01*
X073333Y044975D01*
X073324Y044967D01*
X073315Y044959D01*
X073306Y044951D01*
X073299Y044944D01*
X073295Y044941D01*
X073293Y044939D01*
X073292Y044938D01*
X073291Y044936D01*
X073288Y044934D01*
X073286Y044931D01*
X073283Y044927D01*
X07328Y044923D01*
X073273Y044914D01*
X073459D01*
Y044869D01*
X073209D01*
Y04487D01*
Y044872D01*
Y044875D01*
X073209Y04488D01*
X07321Y044884D01*
X073211Y04489D01*
X073212Y044895D01*
X073214Y044901D01*
Y044902D01*
X073215Y044902D01*
X073216Y044906D01*
X073218Y044911D01*
X073221Y044917D01*
X073226Y044925D01*
X073231Y044934D01*
X073237Y044942D01*
X073245Y044952D01*
Y044952D01*
X073246Y044953D01*
X073248Y044956D01*
X073253Y044961D01*
X07326Y044968D01*
X073269Y044976D01*
X073279Y044986D01*
X073292Y044997D01*
X073305Y045008D01*
X073306Y045009D01*
X073308Y045011D01*
X073311Y045013D01*
X073315Y045017D01*
X07332Y045021D01*
X073326Y045026D01*
X073332Y045031D01*
X073339Y045037D01*
X073353Y04505D01*
X073366Y045064D01*
X073373Y04507D01*
X073379Y045077D01*
X073384Y045083D01*
X073389Y045089D01*
Y045089D01*
X07339Y04509D01*
X073391Y045091D01*
X073392Y045094D01*
X073396Y0451D01*
X0734Y045107D01*
X073404Y045115D01*
X073408Y045125D01*
X07341Y045135D01*
X073411Y045145D01*
Y045145D01*
Y045146D01*
X073411Y045149D01*
X07341Y045155D01*
X073408Y045161D01*
X073406Y045168D01*
X073402Y045176D01*
X073398Y045184D01*
X073391Y045191D01*
X07339Y045192D01*
X073387Y045195D01*
X073383Y045197D01*
X073377Y045201D01*
X07337Y045204D01*
X073361Y045208D01*
X073351Y04521D01*
X073339Y04521D01*
X073336D01*
X073334Y04521D01*
X073327Y045209D01*
X073319Y045208D01*
X073311Y045205D01*
X073302Y045202D01*
X073293Y045197D01*
X073285Y04519D01*
X073284Y045189D01*
X073282Y045186D01*
X073279Y045182D01*
X073275Y045175D01*
X073271Y045168D01*
X073268Y045158D01*
X073266Y045147D01*
X073265Y045135D01*
X073217Y045139D01*
Y04514D01*
X073218Y045142D01*
Y045144D01*
X073218Y045148D01*
X07322Y045153D01*
X073221Y045157D01*
X073222Y045163D01*
X073224Y045169D01*
X073228Y045183D01*
X073235Y045196D01*
X073239Y045202D01*
X073244Y045209D01*
X073248Y045215D01*
X073254Y04522D01*
X073254Y045221D01*
X073256Y045221D01*
X073257Y045223D01*
X07326Y045225D01*
X073263Y045227D01*
X073267Y045229D01*
X073271Y045232D01*
X073277Y045234D01*
X073283Y045237D01*
X073289Y04524D01*
X073297Y045242D01*
X073304Y045244D01*
X073312Y045246D01*
X073321Y045248D01*
X07333Y045248D01*
X07334Y045249D01*
X073346D01*
X073349Y045248D01*
D02*
G37*
G36*
X065224Y043779D02*
X065224Y043769D01*
X065223Y043758D01*
X065222Y043747D01*
X06522Y043736D01*
X065219Y043727D01*
Y043727D01*
X065218Y043726D01*
Y043724D01*
X065217Y043722D01*
X065215Y043716D01*
X065213Y043708D01*
X065209Y043699D01*
X065204Y04369D01*
X065198Y043681D01*
X065191Y043672D01*
X065191Y043671D01*
X06519Y043671D01*
X065189Y043669D01*
X065187Y043667D01*
X065182Y043662D01*
X065174Y043655D01*
X065165Y043648D01*
X065154Y04364D01*
X065141Y043633D01*
X065127Y043627D01*
X065126D01*
X065125Y043627D01*
X065123Y043626D01*
X06512Y043625D01*
X065116Y043623D01*
X065112Y043622D01*
X065107Y043621D01*
X065101Y04362D01*
X065095Y043618D01*
X065088Y043617D01*
X065072Y043614D01*
X065055Y043613D01*
X065037Y043612D01*
X065036D01*
X065035D01*
X065033D01*
X06503D01*
X065026Y043613D01*
X065022D01*
X065011Y043613D01*
X064999Y043615D01*
X064987Y043616D01*
X064974Y043619D01*
X06496Y043622D01*
X06496D01*
X064959Y043623D01*
X064957Y043623D01*
X064955Y043624D01*
X064949Y043626D01*
X064941Y043629D01*
X064933Y043633D01*
X064924Y043637D01*
X064915Y043643D01*
X064906Y043648D01*
X064905Y043649D01*
X064902Y043651D01*
X064898Y043654D01*
X064893Y043658D01*
X064888Y043663D01*
X064882Y043669D01*
X064876Y043675D01*
X064871Y043682D01*
X064871Y043684D01*
X064869Y043686D01*
X064867Y043689D01*
X064864Y043695D01*
X064861Y043702D01*
X064858Y043709D01*
X064855Y043718D01*
X064852Y043728D01*
Y043729D01*
X064852Y04373D01*
X064851Y043732D01*
X064851Y043738D01*
X06485Y043745D01*
X064848Y043754D01*
X064847Y043764D01*
X064847Y043776D01*
X064846Y043788D01*
Y043924D01*
X065224D01*
Y043779D01*
D02*
G37*
G36*
X065131Y043526D02*
X065132Y043525D01*
X065132Y043523D01*
X065134Y04352D01*
X065136Y043517D01*
X065138Y043513D01*
X065143Y043504D01*
X065149Y043493D01*
X065157Y043482D01*
X065166Y043471D01*
X065175Y043459D01*
X065176Y043459D01*
X065176Y043458D01*
X065178Y043456D01*
X065179Y043454D01*
X065185Y043449D01*
X065191Y043443D01*
X065199Y043436D01*
X065208Y043429D01*
X065216Y043423D01*
X065226Y043418D01*
Y043388D01*
X064846D01*
Y043434D01*
X065142D01*
X065141Y043435D01*
X065139Y043437D01*
X065136Y043441D01*
X065132Y043446D01*
X065127Y043452D01*
X065121Y04346D01*
X065115Y043468D01*
X065109Y043478D01*
Y043479D01*
X065109Y043479D01*
X065107Y043483D01*
X065104Y043488D01*
X065101Y043495D01*
X065097Y043502D01*
X065093Y04351D01*
X065089Y043519D01*
X065086Y043527D01*
X065131D01*
Y043526D01*
D02*
G37*
G36*
X070638Y045459D02*
X070644D01*
X070649Y045459D01*
X070656Y045458D01*
X070663Y045457D01*
X070679Y045454D01*
X070697Y04545D01*
X070714Y045445D01*
X070731Y045437D01*
X070732Y045437D01*
X070733Y045436D01*
X070736Y045435D01*
X070738Y045433D01*
X070742Y045431D01*
X070746Y045428D01*
X070756Y045421D01*
X070767Y045412D01*
X070778Y045401D01*
X070789Y045388D01*
X070798Y045373D01*
X070799Y045373D01*
X070799Y045371D01*
X0708Y045369D01*
X070802Y045366D01*
X070804Y045362D01*
X070805Y045358D01*
X070808Y045352D01*
X07081Y045346D01*
X070812Y04534D01*
X070814Y045332D01*
X070817Y045317D01*
X07082Y0453D01*
X070821Y045282D01*
Y045276D01*
X070821Y045272D01*
X07082Y045268D01*
X07082Y045262D01*
X070819Y045256D01*
X070817Y045248D01*
X070814Y045234D01*
X070809Y045217D01*
X070806Y045209D01*
X070802Y045201D01*
X070797Y045194D01*
X070792Y045186D01*
X070792Y045186D01*
X070791Y045185D01*
X07079Y045182D01*
X070787Y04518D01*
X070784Y045177D01*
X07078Y045173D01*
X070776Y045169D01*
X070772Y045165D01*
X070766Y045161D01*
X07076Y045156D01*
X070753Y045151D01*
X070746Y045147D01*
X070738Y045143D01*
X07073Y045139D01*
X070721Y045135D01*
X070711Y045132D01*
X070699Y045181D01*
X0707D01*
X070701Y045182D01*
X070703Y045183D01*
X070706Y045184D01*
X070709Y045185D01*
X070714Y045187D01*
X070722Y045191D01*
X070732Y045197D01*
X070742Y045203D01*
X070751Y045211D01*
X07076Y04522D01*
X070761Y045221D01*
X070763Y045224D01*
X070766Y04523D01*
X070769Y045237D01*
X070773Y045246D01*
X070776Y045257D01*
X070778Y045269D01*
X070779Y045283D01*
Y045287D01*
X070778Y04529D01*
Y045294D01*
X070778Y045298D01*
X070776Y045308D01*
X070774Y04532D01*
X07077Y045332D01*
X070764Y045345D01*
X070757Y045356D01*
Y045357D01*
X070756Y045357D01*
X070754Y045361D01*
X070749Y045366D01*
X070743Y045372D01*
X070734Y045379D01*
X070725Y045385D01*
X070714Y045391D01*
X070701Y045397D01*
X070701D01*
X070699Y045397D01*
X070698Y045398D01*
X070695Y045399D01*
X070692Y0454D01*
X070688Y045401D01*
X070679Y045402D01*
X070668Y045405D01*
X070656Y045407D01*
X070643Y045408D01*
X070629Y045408D01*
X070628D01*
X070626D01*
X070624D01*
X07062D01*
X070616Y045408D01*
X070612D01*
X070606Y045407D01*
X0706Y045407D01*
X070587Y045405D01*
X070573Y045402D01*
X070559Y045399D01*
X070544Y045395D01*
X070544D01*
X070543Y045394D01*
X070541Y045393D01*
X070538Y045392D01*
X070532Y045389D01*
X070524Y045384D01*
X070515Y045378D01*
X070506Y04537D01*
X070498Y045361D01*
X07049Y045351D01*
Y045351D01*
X07049Y045349D01*
X070489Y045348D01*
X070488Y045346D01*
X070487Y045343D01*
X070485Y04534D01*
X070482Y045332D01*
X070478Y045322D01*
X070476Y045311D01*
X070473Y045299D01*
X070473Y045287D01*
Y045283D01*
X070473Y04528D01*
Y045276D01*
X070474Y045272D01*
X070476Y045262D01*
X070479Y045251D01*
X070483Y045239D01*
X070489Y045227D01*
X070493Y045221D01*
X070497Y045216D01*
X070497Y045215D01*
X070498Y045215D01*
X0705Y045213D01*
X070501Y045211D01*
X070504Y045209D01*
X070507Y045206D01*
X070511Y045203D01*
X070515Y0452D01*
X07052Y045197D01*
X070525Y045193D01*
X070531Y045189D01*
X070537Y045186D01*
X070544Y045183D01*
X070552Y045181D01*
X07056Y045178D01*
X070569Y045176D01*
X070556Y045126D01*
X070556D01*
X070554Y045126D01*
X07055Y045127D01*
X070546Y045129D01*
X070541Y04513D01*
X070535Y045133D01*
X070529Y045135D01*
X070521Y045139D01*
X070506Y045146D01*
X070491Y045156D01*
X070483Y045162D01*
X070476Y045168D01*
X070469Y045175D01*
X070463Y045182D01*
X070462Y045183D01*
X070461Y045184D01*
X07046Y045187D01*
X070458Y045189D01*
X070455Y045194D01*
X070452Y045198D01*
X070449Y045204D01*
X070447Y04521D01*
X070443Y045217D01*
X070441Y045225D01*
X070438Y045233D01*
X070435Y045242D01*
X070433Y045251D01*
X070432Y045261D01*
X070431Y045271D01*
X07043Y045282D01*
Y045288D01*
X070431Y045293D01*
Y045298D01*
X070431Y045304D01*
X070433Y04531D01*
X070434Y045318D01*
X070436Y045334D01*
X070441Y04535D01*
X070447Y045366D01*
X070451Y045374D01*
X070455Y045382D01*
X070455Y045382D01*
X070456Y045383D01*
X070458Y045385D01*
X07046Y045388D01*
X070462Y045391D01*
X070465Y045395D01*
X070469Y045399D01*
X070473Y045403D01*
X070478Y045408D01*
X070483Y045413D01*
X070496Y045423D01*
X070511Y045432D01*
X070527Y04544D01*
X070528D01*
X070529Y045441D01*
X070532Y045442D01*
X070535Y045443D01*
X07054Y045444D01*
X070545Y045446D01*
X070551Y045448D01*
X070558Y04545D01*
X070565Y045452D01*
X070573Y045454D01*
X07059Y045456D01*
X070609Y045459D01*
X070629Y04546D01*
X070629D01*
X070631D01*
X070635D01*
X070638Y045459D01*
D02*
G37*
G36*
X070721Y045047D02*
X070722Y045046D01*
X070723Y045044D01*
X070725Y045041D01*
X070726Y045038D01*
X070728Y045034D01*
X070734Y045025D01*
X07074Y045014D01*
X070748Y045003D01*
X070756Y044991D01*
X070766Y04498D01*
X070766Y044979D01*
X070767Y044979D01*
X070768Y044977D01*
X07077Y044975D01*
X070775Y04497D01*
X070782Y044963D01*
X07079Y044957D01*
X070798Y04495D01*
X070807Y044944D01*
X070816Y044938D01*
Y044908D01*
X070437D01*
Y044955D01*
X070732D01*
X070732Y044955D01*
X07073Y044958D01*
X070726Y044961D01*
X070722Y044967D01*
X070718Y044973D01*
X070712Y04498D01*
X070706Y044989D01*
X0707Y044999D01*
Y044999D01*
X070699Y045D01*
X070697Y045003D01*
X070695Y045009D01*
X070691Y045015D01*
X070687Y045023D01*
X070684Y045031D01*
X07068Y045039D01*
X070677Y045047D01*
X070721D01*
Y045047D01*
D02*
G37*
%LPC*%
G36*
X071762Y045448D02*
X071635D01*
Y045334D01*
X071636Y045327D01*
X071636Y045319D01*
X071637Y04531D01*
X071638Y045302D01*
X07164Y045293D01*
X071642Y045285D01*
X071643Y045284D01*
X071644Y045282D01*
X071645Y045278D01*
X071648Y045274D01*
X071651Y045269D01*
X071655Y045264D01*
X07166Y045259D01*
X071665Y045255D01*
X071666Y045254D01*
X071668Y045253D01*
X071671Y045252D01*
X071676Y045249D01*
X071681Y045248D01*
X071686Y045246D01*
X071693Y045245D01*
X0717Y045244D01*
X0717D01*
X071701D01*
X071704Y045245D01*
X071709Y045245D01*
X071716Y045247D01*
X071722Y045249D01*
X07173Y045253D01*
X071737Y045258D01*
X071745Y045264D01*
X071745Y045265D01*
X071747Y045268D01*
X07175Y045273D01*
X071754Y04528D01*
X071757Y045288D01*
X07176Y045299D01*
X071762Y045312D01*
X071762Y045327D01*
Y045448D01*
D02*
G37*
G36*
X070488Y04647D02*
X070488D01*
X070487D01*
X070484Y04647D01*
X070479Y046469D01*
X070473Y046468D01*
X070465Y046466D01*
X070458Y046463D01*
X07045Y046459D01*
X070444Y046453D01*
X070443Y046452D01*
X070441Y04645D01*
X070438Y046446D01*
X070435Y046441D01*
X070432Y046434D01*
X070429Y046426D01*
X070427Y046417D01*
X070427Y046407D01*
Y046406D01*
X070427Y046403D01*
X070428Y046398D01*
X070429Y046391D01*
X070431Y046384D01*
X070434Y046377D01*
X070438Y046369D01*
X070444Y046363D01*
X070444Y046362D01*
X070447Y04636D01*
X07045Y046357D01*
X070455Y046354D01*
X070462Y04635D01*
X070469Y046348D01*
X070477Y046345D01*
X070486Y046345D01*
X070486D01*
X070487D01*
X07049D01*
X070495Y046346D01*
X070501Y046347D01*
X070508Y046349D01*
X070515Y046353D01*
X070523Y046357D01*
X07053Y046363D01*
X07053Y046364D01*
X070533Y046366D01*
X070535Y04637D01*
X070539Y046375D01*
X070542Y046382D01*
X070545Y046389D01*
X070547Y046398D01*
X070548Y046407D01*
Y046412D01*
X070546Y046417D01*
X070545Y046424D01*
X070543Y046431D01*
X07054Y046439D01*
X070536Y046446D01*
X07053Y046453D01*
X070529Y046454D01*
X070527Y046456D01*
X070523Y046459D01*
X070518Y046461D01*
X070512Y046465D01*
X070505Y046467D01*
X070497Y04647D01*
X070488Y04647D01*
D02*
G37*
G36*
X070311Y046486D02*
X07031D01*
X070308D01*
X070304Y046485D01*
X070299Y046485D01*
X070293Y046484D01*
X070286Y046482D01*
X070279Y04648D01*
X070272Y046477D01*
X070272Y046476D01*
X070269Y046475D01*
X070266Y046473D01*
X070262Y04647D01*
X070257Y046466D01*
X070252Y046461D01*
X070247Y046455D01*
X070243Y046449D01*
X070242Y046447D01*
X070241Y046445D01*
X070239Y046441D01*
X070238Y046436D01*
X070236Y04643D01*
X070234Y046423D01*
X070233Y046415D01*
X070233Y046407D01*
Y046404D01*
X070233Y046402D01*
X070234Y046395D01*
X070236Y046388D01*
X070238Y046379D01*
X070242Y046369D01*
X070247Y04636D01*
X070254Y046351D01*
X070256Y04635D01*
X070258Y046348D01*
X070263Y046344D01*
X070269Y04634D01*
X070277Y046336D01*
X070287Y046333D01*
X070298Y04633D01*
X070309Y046329D01*
X07031D01*
X070311D01*
X070313D01*
X070315Y04633D01*
X070321Y04633D01*
X070329Y046332D01*
X070338Y046335D01*
X070347Y046339D01*
X070357Y046344D01*
X070365Y046352D01*
X070367Y046353D01*
X070369Y046356D01*
X070373Y046361D01*
X070377Y046368D01*
X070381Y046376D01*
X070385Y046386D01*
X070387Y046397D01*
X070388Y046409D01*
Y046412D01*
X070388Y046415D01*
X070387Y046421D01*
X070385Y046429D01*
X070383Y046437D01*
X070379Y046446D01*
X070373Y046456D01*
X070366Y046464D01*
X070365Y046465D01*
X070362Y046467D01*
X070357Y046471D01*
X070351Y046475D01*
X070343Y046479D01*
X070333Y046482D01*
X070323Y046485D01*
X070311Y046486D01*
D02*
G37*
G36*
X06457Y047037D02*
X064474D01*
Y046963D01*
X064474Y046952D01*
X064475Y04694D01*
X064475Y046929D01*
X064476Y046924D01*
X064476Y046919D01*
X064477Y046915D01*
X064478Y046912D01*
Y046912D01*
X064479Y04691D01*
X06448Y046907D01*
X064482Y046905D01*
X064487Y046898D01*
X06449Y046894D01*
X064494Y046891D01*
X064494Y04689D01*
X064496Y04689D01*
X064498Y046888D01*
X064501Y046887D01*
X064506Y046886D01*
X064511Y046884D01*
X064516Y046883D01*
X064522Y046883D01*
X064523D01*
X064525D01*
X064529Y046883D01*
X064533Y046884D01*
X064538Y046886D01*
X064543Y046887D01*
X064548Y04689D01*
X064553Y046893D01*
X064553Y046894D01*
X064555Y046895D01*
X064557Y046898D01*
X064559Y046901D01*
X064562Y046905D01*
X064564Y04691D01*
X064566Y046916D01*
X064568Y046922D01*
Y046923D01*
X064569Y046924D01*
Y046928D01*
X064569Y046933D01*
Y046945D01*
X06457Y046949D01*
Y047037D01*
D02*
G37*
G36*
Y046304D02*
X06432D01*
Y046236D01*
X06432Y046229D01*
Y046222D01*
X064321Y046214D01*
X064322Y046207D01*
X064323Y046201D01*
Y0462D01*
X064324Y046198D01*
X064325Y046194D01*
X064327Y04619D01*
X064329Y046185D01*
X064332Y04618D01*
X064335Y046175D01*
X064339Y04617D01*
X064339Y04617D01*
X064341Y046168D01*
X064344Y046166D01*
X064347Y046163D01*
X064352Y04616D01*
X064358Y046157D01*
X064366Y046154D01*
X064375Y046151D01*
X064375D01*
X064376Y04615D01*
X064377D01*
X06438Y04615D01*
X064382Y046148D01*
X064385Y046148D01*
X064393Y046146D01*
X064403Y046145D01*
X064415Y046144D01*
X064429Y046143D01*
X064444Y046142D01*
X064445D01*
X064446D01*
X064448D01*
X064451D01*
X064455D01*
X064459Y046143D01*
X064469Y046144D01*
X06448Y046145D01*
X064491Y046146D01*
X064501Y046148D01*
X064511Y046151D01*
X064512D01*
X064512Y046151D01*
X064515Y046152D01*
X064519Y046154D01*
X064525Y046156D01*
X06453Y046159D01*
X064536Y046163D01*
X064542Y046168D01*
X064548Y046172D01*
X064548Y046173D01*
X06455Y046175D01*
X064552Y046178D01*
X064555Y046182D01*
X064558Y046187D01*
X064561Y046193D01*
X064564Y0462D01*
X064566Y046207D01*
Y046208D01*
X064566Y046211D01*
X064567Y046215D01*
X064568Y046221D01*
Y046225D01*
X064569Y04623D01*
Y046235D01*
X064569Y04624D01*
Y046247D01*
X06457Y046254D01*
Y046304D01*
D02*
G37*
G36*
X074794Y042742D02*
X074744D01*
Y042492D01*
X074811D01*
X074818Y042493D01*
X074826D01*
X074833Y042494D01*
X07484Y042494D01*
X074847Y042495D01*
X074848D01*
X07485Y042496D01*
X074853Y042498D01*
X074857Y042499D01*
X074862Y042501D01*
X074867Y042504D01*
X074872Y042507D01*
X074877Y042511D01*
X074878Y042512D01*
X074879Y042513D01*
X074881Y042516D01*
X074884Y04252D01*
X074887Y042525D01*
X074891Y042531D01*
X074893Y042539D01*
X074897Y042547D01*
Y042548D01*
X074897Y042548D01*
Y04255D01*
X074898Y042552D01*
X074899Y042554D01*
X074899Y042558D01*
X074901Y042566D01*
X074902Y042576D01*
X074904Y042587D01*
X074904Y042601D01*
X074905Y042617D01*
Y042617D01*
Y042619D01*
Y042621D01*
Y042624D01*
Y042628D01*
X074904Y042632D01*
X074904Y042641D01*
X074903Y042652D01*
X074902Y042664D01*
X074899Y042674D01*
X074897Y042684D01*
Y042684D01*
X074896Y042685D01*
X074895Y042688D01*
X074893Y042692D01*
X074891Y042697D01*
X074888Y042703D01*
X074884Y042709D01*
X07488Y042715D01*
X074875Y04272D01*
X074874Y042721D01*
X074873Y042723D01*
X074869Y042725D01*
X074866Y042727D01*
X07486Y042731D01*
X074854Y042733D01*
X074848Y042736D01*
X07484Y042738D01*
X074839D01*
X074837Y042739D01*
X074832Y042739D01*
X074826Y042741D01*
X074822D01*
X074818Y042741D01*
X074813D01*
X074807Y042742D01*
X074801D01*
X074794Y042742D01*
D02*
G37*
G36*
X06457Y04194D02*
X06432D01*
Y041873D01*
X06432Y041866D01*
Y041858D01*
X064321Y041851D01*
X064322Y041843D01*
X064323Y041837D01*
Y041836D01*
X064324Y041834D01*
X064325Y041831D01*
X064327Y041827D01*
X064329Y041822D01*
X064332Y041817D01*
X064335Y041812D01*
X064339Y041807D01*
X064339Y041806D01*
X064341Y041805D01*
X064344Y041803D01*
X064347Y0418D01*
X064352Y041797D01*
X064358Y041793D01*
X064366Y041791D01*
X064375Y041787D01*
X064375D01*
X064376Y041787D01*
X064378D01*
X06438Y041786D01*
X064382Y041785D01*
X064385Y041785D01*
X064393Y041783D01*
X064403Y041782D01*
X064415Y04178D01*
X064429Y04178D01*
X064444Y041779D01*
X064445D01*
X064446D01*
X064448D01*
X064451D01*
X064455D01*
X064459Y04178D01*
X064469Y04178D01*
X06448Y041781D01*
X064491Y041782D01*
X064501Y041785D01*
X064511Y041787D01*
X064512D01*
X064512Y041788D01*
X064515Y041789D01*
X064519Y041791D01*
X064525Y041793D01*
X06453Y041796D01*
X064536Y0418D01*
X064542Y041804D01*
X064548Y041809D01*
X064548Y04181D01*
X06455Y041811D01*
X064552Y041815D01*
X064555Y041818D01*
X064558Y041824D01*
X064561Y04183D01*
X064564Y041836D01*
X064566Y041844D01*
Y041845D01*
X064566Y041847D01*
X064567Y041852D01*
X064568Y041858D01*
Y041862D01*
X064569Y041866D01*
Y041871D01*
X064569Y041877D01*
Y041883D01*
X06457Y04189D01*
Y04194D01*
D02*
G37*
G36*
X06457Y044879D02*
X06432D01*
Y044811D01*
X06432Y044804D01*
Y044797D01*
X064321Y044789D01*
X064322Y044782D01*
X064323Y044776D01*
Y044775D01*
X064324Y044773D01*
X064325Y044769D01*
X064327Y044765D01*
X064329Y04476D01*
X064332Y044755D01*
X064335Y04475D01*
X064339Y044745D01*
X064339Y044745D01*
X064341Y044743D01*
X064344Y044741D01*
X064347Y044738D01*
X064352Y044735D01*
X064358Y044732D01*
X064366Y044729D01*
X064375Y044726D01*
X064375D01*
X064376Y044725D01*
X064377D01*
X06438Y044725D01*
X064382Y044723D01*
X064385Y044723D01*
X064393Y044721D01*
X064403Y04472D01*
X064415Y044719D01*
X064429Y044718D01*
X064444Y044717D01*
X064445D01*
X064446D01*
X064448D01*
X064451D01*
X064455D01*
X064459Y044718D01*
X064469Y044719D01*
X06448Y04472D01*
X064491Y044721D01*
X064501Y044723D01*
X064511Y044726D01*
X064512D01*
X064512Y044726D01*
X064515Y044727D01*
X064519Y044729D01*
X064525Y044731D01*
X06453Y044734D01*
X064536Y044738D01*
X064542Y044743D01*
X064548Y044747D01*
X064548Y044748D01*
X06455Y04475D01*
X064552Y044753D01*
X064555Y044757D01*
X064558Y044762D01*
X064561Y044768D01*
X064564Y044775D01*
X064566Y044782D01*
Y044783D01*
X064566Y044786D01*
X064567Y04479D01*
X064568Y044796D01*
Y0448D01*
X064569Y044805D01*
Y04481D01*
X064569Y044815D01*
Y044822D01*
X06457Y044829D01*
Y044879D01*
D02*
G37*
G36*
X068804Y046394D02*
X068679D01*
Y046281D01*
X06868Y046275D01*
X06868Y046267D01*
X068681Y046258D01*
X068682Y04625D01*
X068683Y046241D01*
X068686Y046233D01*
X068686Y046232D01*
X068687Y04623D01*
X068689Y046227D01*
X068691Y046222D01*
X068694Y046217D01*
X068698Y046212D01*
X068703Y046208D01*
X068709Y046204D01*
X068709Y046203D01*
X068711Y046202D01*
X068715Y0462D01*
X068719Y046198D01*
X068724Y046197D01*
X068729Y046195D01*
X068736Y046194D01*
X068742Y046193D01*
X068743D01*
X068744D01*
X068747Y046194D01*
X068752Y046194D01*
X068758Y046196D01*
X068765Y046198D01*
X068772Y046202D01*
X06878Y046206D01*
X068787Y046213D01*
X068787Y046214D01*
X068789Y046217D01*
X068792Y046221D01*
X068795Y046228D01*
X068799Y046236D01*
X068801Y046247D01*
X068804Y04626D01*
X068804Y046275D01*
Y046394D01*
D02*
G37*
G36*
X068602Y046053D02*
Y045934D01*
X068771D01*
X068602Y046053D01*
D02*
G37*
G36*
X068332Y046394D02*
X068207D01*
Y046281D01*
X068207Y046275D01*
X068208Y046267D01*
X068208Y046258D01*
X068209Y04625D01*
X068211Y046241D01*
X068213Y046233D01*
X068214Y046232D01*
X068215Y04623D01*
X068217Y046227D01*
X068219Y046222D01*
X068222Y046217D01*
X068226Y046212D01*
X068231Y046208D01*
X068236Y046204D01*
X068237Y046203D01*
X068239Y046202D01*
X068242Y0462D01*
X068247Y046198D01*
X068251Y046197D01*
X068257Y046195D01*
X068263Y046194D01*
X06827Y046193D01*
X068271D01*
X068271D01*
X068274Y046194D01*
X068279Y046194D01*
X068286Y046196D01*
X068292Y046198D01*
X0683Y046202D01*
X068307Y046206D01*
X068314Y046213D01*
X068315Y046214D01*
X068317Y046217D01*
X06832Y046221D01*
X068323Y046228D01*
X068326Y046236D01*
X068329Y046247D01*
X068331Y04626D01*
X068332Y046275D01*
Y046394D01*
D02*
G37*
G36*
X068008Y044496D02*
X067889D01*
Y044371D01*
X068001D01*
X068008Y044372D01*
X068015Y044372D01*
X068024Y044373D01*
X068033Y044374D01*
X068042Y044376D01*
X068049Y044378D01*
X06805Y044378D01*
X068052Y044379D01*
X068056Y044381D01*
X06806Y044383D01*
X068065Y044387D01*
X06807Y04439D01*
X068075Y044395D01*
X068079Y044401D01*
X068079Y044401D01*
X06808Y044403D01*
X068082Y044407D01*
X068084Y044411D01*
X068086Y044416D01*
X068087Y044421D01*
X068089Y044428D01*
X068089Y044435D01*
Y044435D01*
Y044436D01*
X068089Y044439D01*
X068088Y044444D01*
X068087Y04445D01*
X068084Y044457D01*
X068081Y044465D01*
X068076Y044472D01*
X068069Y044479D01*
X068068Y044479D01*
X068066Y044482D01*
X068061Y044484D01*
X068054Y044488D01*
X068046Y044491D01*
X068035Y044494D01*
X068022Y044496D01*
X068008Y044496D01*
D02*
G37*
G36*
X064905Y043155D02*
X064818D01*
Y042867D01*
X064907D01*
X064911Y042867D01*
X064919Y042868D01*
X064929Y042868D01*
X064938Y042869D01*
X064948Y042871D01*
X064956Y042873D01*
X064958Y042874D01*
X06496Y042874D01*
X064964Y042876D01*
X064969Y042878D01*
X064975Y042881D01*
X06498Y042885D01*
X064985Y042889D01*
X064991Y042893D01*
X064991Y042894D01*
X064994Y042896D01*
X064997Y0429D01*
X065001Y042905D01*
X065005Y042913D01*
X06501Y042921D01*
X065014Y04293D01*
X065018Y04294D01*
Y042941D01*
X065019Y042942D01*
X065019Y042944D01*
X06502Y042946D01*
X06502Y042949D01*
X065021Y042952D01*
X065023Y042956D01*
X065024Y042961D01*
X065025Y042972D01*
X065027Y042984D01*
X065028Y042998D01*
X065029Y043014D01*
Y043014D01*
Y043016D01*
Y043019D01*
X065028Y043023D01*
Y043028D01*
X065027Y043034D01*
X065027Y04304D01*
X065026Y043047D01*
X065024Y043062D01*
X06502Y043077D01*
X065015Y043091D01*
X065012Y043098D01*
X065009Y043104D01*
Y043105D01*
X065008Y043106D01*
X065007Y043107D01*
X065006Y04311D01*
X065001Y043115D01*
X064996Y043122D01*
X064989Y043129D01*
X064981Y043136D01*
X064971Y043142D01*
X064961Y043147D01*
X06496Y043147D01*
X064958Y043148D01*
X064953Y04315D01*
X064946Y043151D01*
X064937Y043152D01*
X064926Y043154D01*
X064919Y043154D01*
X064912D01*
X064905Y043155D01*
D02*
G37*
G36*
X071244Y041974D02*
X071156D01*
Y041686D01*
X071246D01*
X07125Y041686D01*
X071258Y041687D01*
X071267Y041687D01*
X071277Y041688D01*
X071287Y04169D01*
X071295Y041692D01*
X071296Y041693D01*
X071299Y041693D01*
X071303Y041695D01*
X071308Y041697D01*
X071313Y0417D01*
X071319Y041704D01*
X071324Y041707D01*
X071329Y041712D01*
X07133Y041713D01*
X071332Y041715D01*
X071335Y041719D01*
X071339Y041724D01*
X071344Y041731D01*
X071349Y04174D01*
X071353Y041749D01*
X071357Y041759D01*
Y04176D01*
X071357Y041761D01*
X071358Y041763D01*
X071358Y041765D01*
X071359Y041767D01*
X07136Y041771D01*
X071361Y041775D01*
X071362Y041779D01*
X071364Y04179D01*
X071366Y041803D01*
X071367Y041817D01*
X071367Y041832D01*
Y041833D01*
Y041835D01*
Y041838D01*
X071367Y041842D01*
Y041847D01*
X071366Y041853D01*
X071366Y041859D01*
X071365Y041866D01*
X071362Y041881D01*
X071359Y041896D01*
X071354Y04191D01*
X071351Y041917D01*
X071347Y041923D01*
Y041924D01*
X071346Y041925D01*
X071345Y041926D01*
X071344Y041929D01*
X07134Y041934D01*
X071334Y041941D01*
X071327Y041948D01*
X071319Y041955D01*
X07131Y041961D01*
X0713Y041966D01*
X071299Y041966D01*
X071296Y041967D01*
X071291Y041968D01*
X071284Y04197D01*
X071275Y041971D01*
X071265Y041973D01*
X071258Y041973D01*
X071251D01*
X071244Y041974D01*
D02*
G37*
G36*
X06986Y041865D02*
X069741Y041695D01*
X06986D01*
Y041865D01*
D02*
G37*
G36*
X065179Y043874D02*
X064891D01*
Y043785D01*
X064892Y043781D01*
X064892Y043773D01*
X064893Y043763D01*
X064894Y043753D01*
X064895Y043744D01*
X064898Y043735D01*
X064898Y043734D01*
X064899Y043732D01*
X0649Y043728D01*
X064903Y043723D01*
X064906Y043717D01*
X064909Y043712D01*
X064913Y043706D01*
X064917Y043701D01*
X064918Y0437D01*
X064921Y043698D01*
X064924Y043695D01*
X06493Y043691D01*
X064937Y043687D01*
X064945Y043682D01*
X064954Y043677D01*
X064965Y043674D01*
X064965D01*
X064966Y043673D01*
X064968Y043673D01*
X06497Y043672D01*
X064973Y043671D01*
X064977Y04367D01*
X064981Y043669D01*
X064985Y043668D01*
X064996Y043667D01*
X065008Y043665D01*
X065023Y043664D01*
X065038Y043663D01*
X065039D01*
X065041D01*
X065043D01*
X065048Y043664D01*
X065053D01*
X065058Y043664D01*
X065065Y043665D01*
X065071Y043665D01*
X065086Y043668D01*
X065101Y043671D01*
X065115Y043676D01*
X065123Y04368D01*
X065129Y043683D01*
X065129D01*
X06513Y043684D01*
X065132Y043685D01*
X065134Y043686D01*
X06514Y043691D01*
X065146Y043696D01*
X065153Y043703D01*
X06516Y043711D01*
X065166Y043721D01*
X065171Y04373D01*
X065172Y043732D01*
X065172Y043734D01*
X065174Y043739D01*
X065176Y043746D01*
X065177Y043755D01*
X065178Y043766D01*
X065179Y043773D01*
Y04378D01*
X065179Y043787D01*
Y043874D01*
D02*
G37*
%LPD*%
D10*
X070043Y047045D02*
G03*
X069571Y047045I-000236J-000236D01*
G01*
Y046079D02*
G03*
X070043Y046079I000236J000236D01*
G01*
X072012Y045686D02*
G03*
X072484Y045686I000236J000236D01*
G01*
Y046651D02*
G03*
X072012Y046651I-000236J-000236D01*
G01*
X069807Y043068D02*
G03*
X069335Y043068I-000236J-000236D01*
G01*
Y042103D02*
G03*
X069807Y042103I000236J000236D01*
G01*
X070358Y043678D02*
G03*
X070831Y043678I000236J000236D01*
G01*
Y044643D02*
G03*
X070358Y044643I-000236J-000236D01*
G01*
X071407Y046678D02*
X071907D01*
X071407Y045659D02*
X071907D01*
Y046418D02*
Y046678D01*
Y045659D02*
Y045919D01*
X071407Y045659D02*
Y045919D01*
Y046418D02*
Y046678D01*
X072533Y047316D02*
X073773D01*
X072533Y045386D02*
X072583Y045336D01*
X072533Y045386D02*
Y047316D01*
X072583Y045336D02*
X073723D01*
X073773Y045386D01*
Y047316D01*
X069176Y041539D02*
Y043239D01*
X067996Y041539D02*
X069176D01*
X067996D02*
Y043239D01*
X069176D01*
X068738Y044623D02*
Y044883D01*
Y045383D02*
Y045643D01*
X068238Y045383D02*
Y045643D01*
Y044623D02*
Y044883D01*
Y045643D02*
X068738D01*
X068238Y044623D02*
X068738D01*
X06552Y042846D02*
X06748D01*
Y046026D01*
X06552D02*
X06748D01*
X06552Y042846D02*
Y046026D01*
X067144Y042473D02*
Y042663D01*
X065344Y042473D02*
Y042663D01*
X067144Y041563D02*
Y041753D01*
X065344Y041563D02*
X067144D01*
X065344D02*
Y041753D01*
Y042663D02*
X067144D01*
X066544D02*
X066564D01*
X066544Y041563D02*
Y042663D01*
X068187Y044623D02*
Y044883D01*
Y045383D02*
Y045643D01*
X067687Y045383D02*
Y045643D01*
Y044623D02*
Y044883D01*
Y045643D02*
X068187D01*
X067687Y044623D02*
X068187D01*
X068443Y044096D02*
X068703D01*
X067683D02*
X067943D01*
X067683Y043596D02*
X067943D01*
X068443D02*
X068703D01*
X067683D02*
Y044096D01*
X068703Y043596D02*
Y044096D01*
X071095Y042142D02*
X071105D01*
X071095D02*
Y044762D01*
X071105D01*
X073715D01*
Y042142D02*
Y044762D01*
X071105Y042142D02*
X073715D01*
X07024Y041838D02*
X070324D01*
X070865D02*
X070949D01*
X070865Y043019D02*
X070949D01*
X07024D02*
X070324D01*
X07024Y041838D02*
Y043019D01*
X070949Y041838D02*
Y043019D01*
X064689Y044279D02*
X064773D01*
X065314D02*
X065398D01*
X065314Y04546D02*
X065398D01*
X064689D02*
X064773D01*
X064689Y044279D02*
Y04546D01*
X065398Y044279D02*
Y04546D01*
D11*
X070338Y04483D02*
G03*
X070338Y04483I-000049J0D01*
G01*
D12*
X064728Y046326D02*
Y047113D01*
X067878Y046326D02*
Y047113D01*
X064728Y046326D02*
X067878D01*
X064728Y047113D02*
X067878D01*
D13*
X070181Y04422D02*
Y044495D01*
X06896Y04422D02*
Y044495D01*
X070181D01*
X06896Y04422D02*
X070181D01*
D14*
X066474Y042113D02*
D03*
D15*
X070589Y042718D02*
D03*
X065038Y045159D02*
D03*
M02*
