G04*
G04 #@! TF.GenerationSoftware,Altium Limited,Altium Designer,19.0.15 (446)*
G04*
G04 Layer_Physical_Order=2*
G04 Layer_Color=16711680*
%FSTAX24Y24*%
%MOIN*%
G70*
G01*
G75*
%ADD17R,0.0354X0.0315*%
%ADD38R,0.0315X0.0354*%
%ADD40C,0.0100*%
%ADD44C,0.0512*%
G04:AMPARAMS|DCode=45|XSize=78.7mil|YSize=78.7mil|CornerRadius=19.7mil|HoleSize=0mil|Usage=FLASHONLY|Rotation=0.000|XOffset=0mil|YOffset=0mil|HoleType=Round|Shape=RoundedRectangle|*
%AMROUNDEDRECTD45*
21,1,0.0787,0.0394,0,0,0.0*
21,1,0.0394,0.0787,0,0,0.0*
1,1,0.0394,0.0197,-0.0197*
1,1,0.0394,-0.0197,-0.0197*
1,1,0.0394,-0.0197,0.0197*
1,1,0.0394,0.0197,0.0197*
%
%ADD45ROUNDEDRECTD45*%
G04:AMPARAMS|DCode=46|XSize=78.7mil|YSize=98.4mil|CornerRadius=19.7mil|HoleSize=0mil|Usage=FLASHONLY|Rotation=0.000|XOffset=0mil|YOffset=0mil|HoleType=Round|Shape=RoundedRectangle|*
%AMROUNDEDRECTD46*
21,1,0.0787,0.0591,0,0,0.0*
21,1,0.0394,0.0984,0,0,0.0*
1,1,0.0394,0.0197,-0.0295*
1,1,0.0394,-0.0197,-0.0295*
1,1,0.0394,-0.0197,0.0295*
1,1,0.0394,0.0197,0.0295*
%
%ADD46ROUNDEDRECTD46*%
%ADD47C,0.0197*%
%ADD48R,0.0610X0.0118*%
%ADD49C,0.0080*%
G36*
X071017Y047101D02*
X07102Y047099D01*
X071025Y047098D01*
X071032Y047097D01*
X071052Y047096D01*
X071116Y047094D01*
Y046994D01*
X071097Y046994D01*
X07102Y046989D01*
X071017Y046988D01*
X071016Y046987D01*
Y047102D01*
X071017Y047101D01*
D02*
G37*
G36*
X066737Y047057D02*
X06674Y047041D01*
X066743Y047026D01*
X066749Y047012D01*
X066755Y046998D01*
X066764Y046986D01*
X066773Y046975D01*
X066785Y046965D01*
X066797Y046956D01*
X066812Y046948D01*
X066582D01*
X066596Y046956D01*
X066609Y046965D01*
X06662Y046975D01*
X06663Y046986D01*
X066638Y046998D01*
X066645Y047012D01*
X06665Y047026D01*
X066654Y047041D01*
X066656Y047057D01*
X066657Y047074D01*
X066737D01*
X066737Y047057D01*
D02*
G37*
G36*
X072211Y046944D02*
X07221Y046954D01*
X072207Y046962D01*
X072202Y04697D01*
X072195Y046976D01*
X072186Y046982D01*
X072174Y046986D01*
X072161Y04699D01*
X072146Y046992D01*
X072129Y046994D01*
X07211Y046994D01*
Y047094D01*
X072129Y047095D01*
X072146Y047096D01*
X072161Y047099D01*
X072174Y047102D01*
X072186Y047107D01*
X072195Y047112D01*
X072202Y047119D01*
X072207Y047126D01*
X07221Y047135D01*
X072211Y047144D01*
Y046944D01*
D02*
G37*
G36*
X071951Y047135D02*
X071954Y047126D01*
X071959Y047119D01*
X071966Y047112D01*
X071975Y047107D01*
X071987Y047102D01*
X072Y047099D01*
X072015Y047096D01*
X072032Y047095D01*
X072051Y047094D01*
Y046994D01*
X072032Y046994D01*
X072015Y046992D01*
X072Y04699D01*
X071987Y046986D01*
X071975Y046982D01*
X071966Y046976D01*
X071959Y04697D01*
X071954Y046962D01*
X071951Y046954D01*
X07195Y046944D01*
Y047144D01*
X071951Y047135D01*
D02*
G37*
G36*
X071601Y046944D02*
X0716Y046954D01*
X071597Y046962D01*
X071592Y04697D01*
X071584Y046976D01*
X071575Y046982D01*
X071564Y046986D01*
X071551Y04699D01*
X071536Y046992D01*
X071519Y046994D01*
X071499Y046994D01*
Y047094D01*
X071519Y047095D01*
X071536Y047096D01*
X071551Y047099D01*
X071564Y047102D01*
X071575Y047107D01*
X071584Y047112D01*
X071592Y047119D01*
X071597Y047126D01*
X0716Y047135D01*
X071601Y047144D01*
Y046944D01*
D02*
G37*
G36*
X073723Y047125D02*
X073726Y047116D01*
X073731Y047109D01*
X073738Y047102D01*
X073747Y047097D01*
X073758Y047092D01*
X073771Y047089D01*
X073787Y047086D01*
X073804Y047085D01*
X073823Y047084D01*
Y046984D01*
X073804Y046984D01*
X073787Y046982D01*
X073771Y04698D01*
X073758Y046976D01*
X073747Y046972D01*
X073738Y046966D01*
X073731Y04696D01*
X073726Y046952D01*
X073723Y046944D01*
X073722Y046934D01*
Y047134D01*
X073723Y047125D01*
D02*
G37*
G36*
X073372Y046934D02*
X073371Y046944D01*
X073368Y046952D01*
X073363Y04696D01*
X073356Y046966D01*
X073347Y046972D01*
X073336Y046976D01*
X073323Y04698D01*
X073308Y046982D01*
X07329Y046984D01*
X073271Y046984D01*
Y047084D01*
X07329Y047085D01*
X073308Y047086D01*
X073323Y047089D01*
X073336Y047092D01*
X073347Y047097D01*
X073356Y047102D01*
X073363Y047109D01*
X073368Y047116D01*
X073371Y047125D01*
X073372Y047134D01*
Y046934D01*
D02*
G37*
G36*
X073074Y047125D02*
X073077Y047116D01*
X073082Y047109D01*
X073089Y047102D01*
X073098Y047097D01*
X073109Y047092D01*
X073122Y047089D01*
X073137Y047086D01*
X073154Y047085D01*
X073173Y047084D01*
Y046984D01*
X073154Y046984D01*
X073137Y046982D01*
X073122Y04698D01*
X073109Y046976D01*
X073098Y046972D01*
X073089Y046966D01*
X073082Y04696D01*
X073077Y046952D01*
X073074Y046944D01*
X073073Y046934D01*
Y047134D01*
X073074Y047125D01*
D02*
G37*
G36*
X073008Y046859D02*
X072999Y046856D01*
X072992Y046851D01*
X072985Y046844D01*
X07298Y046834D01*
X072975Y046823D01*
X072972Y04681D01*
X072969Y046795D01*
X072968Y046778D01*
X072967Y046759D01*
X072867D01*
X072867Y046778D01*
X072865Y046795D01*
X072863Y04681D01*
X072859Y046823D01*
X072855Y046834D01*
X072849Y046844D01*
X072843Y046851D01*
X072835Y046856D01*
X072827Y046859D01*
X072817Y04686D01*
X073017D01*
X073008Y046859D01*
D02*
G37*
G36*
X068204Y046731D02*
X068203Y046734D01*
X068201Y046737D01*
X068197Y04674D01*
X068191Y046742D01*
X068184Y046744D01*
X068175Y046746D01*
X068165Y046747D01*
X068139Y046748D01*
X068124Y046748D01*
Y046828D01*
X068139Y046829D01*
X068175Y046831D01*
X068184Y046833D01*
X068191Y046835D01*
X068197Y046837D01*
X068201Y04684D01*
X068203Y046843D01*
X068204Y046846D01*
Y046731D01*
D02*
G37*
G36*
X072968Y046701D02*
X072969Y046683D01*
X072972Y046668D01*
X072975Y046655D01*
X07298Y046644D01*
X072985Y046635D01*
X072992Y046628D01*
X072999Y046623D01*
X073008Y04662D01*
X073017Y046619D01*
X072817D01*
X072827Y04662D01*
X072835Y046623D01*
X072843Y046628D01*
X072849Y046635D01*
X072855Y046644D01*
X072859Y046655D01*
X072863Y046668D01*
X072865Y046683D01*
X072867Y046701D01*
X072867Y04672D01*
X072967D01*
X072968Y046701D01*
D02*
G37*
G36*
X067694Y046872D02*
X067744Y046828D01*
X067768Y04681D01*
X067791Y046794D01*
X067813Y046782D01*
X067834Y046772D01*
X067854Y046765D01*
X067872Y046761D01*
X06789Y04676D01*
Y04668D01*
X067872Y046678D01*
X067854Y046674D01*
X067834Y046667D01*
X067813Y046657D01*
X067791Y046645D01*
X067768Y046629D01*
X067744Y046611D01*
X067694Y046567D01*
X067667Y04654D01*
Y046899D01*
X067694Y046872D01*
D02*
G37*
G36*
X064177Y046684D02*
X06418Y046676D01*
X064185Y046668D01*
X064193Y046662D01*
X064202Y046656D01*
X064213Y046652D01*
X064226Y046648D01*
X064241Y046646D01*
X064258Y046644D01*
X064278Y046644D01*
Y046544D01*
X064258Y046543D01*
X064241Y046542D01*
X064226Y046539D01*
X064213Y046536D01*
X064202Y046531D01*
X064193Y046526D01*
X064185Y046519D01*
X06418Y046512D01*
X064177Y046503D01*
X064176Y046494D01*
Y046694D01*
X064177Y046684D01*
D02*
G37*
G36*
X068204Y046475D02*
X068203Y046478D01*
X068201Y046481D01*
X068197Y046484D01*
X068191Y046486D01*
X068184Y046488D01*
X068175Y04649D01*
X068165Y046491D01*
X068139Y046492D01*
X068124Y046493D01*
Y046573D01*
X068139Y046573D01*
X068175Y046575D01*
X068184Y046577D01*
X068191Y046579D01*
X068197Y046581D01*
X068201Y046584D01*
X068203Y046587D01*
X068204Y04659D01*
Y046475D01*
D02*
G37*
G36*
X065187Y046471D02*
X065184Y046469D01*
X065181Y046465D01*
X065179Y04646D01*
X065177Y046453D01*
X065175Y046446D01*
X065174Y046437D01*
X065173Y046428D01*
X065172Y046405D01*
X065072D01*
X065072Y046417D01*
X06507Y046437D01*
X065069Y046446D01*
X065067Y046453D01*
X065065Y04646D01*
X065063Y046465D01*
X06506Y046469D01*
X065057Y046471D01*
X065053Y046473D01*
X065191D01*
X065187Y046471D01*
D02*
G37*
G36*
X066849Y04651D02*
X066805Y046459D01*
X066787Y046436D01*
X066771Y046413D01*
X066759Y046391D01*
X066749Y04637D01*
X066742Y04635D01*
X066738Y046331D01*
X066737Y046313D01*
X066657D01*
X066655Y046331D01*
X066651Y04635D01*
X066644Y04637D01*
X066634Y046391D01*
X066622Y046413D01*
X066607Y046436D01*
X066589Y046459D01*
X066544Y04651D01*
X066518Y046537D01*
X066876D01*
X066849Y04651D01*
D02*
G37*
G36*
X070245Y046342D02*
X07025Y046339D01*
X070256Y046336D01*
X070262Y046333D01*
X070269Y046331D01*
X070277Y04633D01*
X070285Y046328D01*
X070294Y046327D01*
X070314Y046327D01*
X070328Y046327D01*
X070405Y046332D01*
X070408Y046333D01*
X070409Y046335D01*
Y046219D01*
X070408Y04622D01*
X070405Y046222D01*
X0704Y046223D01*
X070393Y046224D01*
X070373Y046225D01*
X070312Y046227D01*
X070304Y046226D01*
X070285Y046225D01*
X070277Y046224D01*
X070269Y046222D01*
X070262Y04622D01*
X070256Y046217D01*
X07025Y046215D01*
X070245Y046211D01*
X070241Y046208D01*
Y046346D01*
X070245Y046342D01*
D02*
G37*
G36*
X072456Y046268D02*
X072448Y046265D01*
X07244Y04626D01*
X072434Y046253D01*
X072428Y046244D01*
X072424Y046233D01*
X07242Y04622D01*
X072418Y046204D01*
X072416Y046187D01*
X072416Y046168D01*
X072316D01*
X072315Y046187D01*
X072314Y046204D01*
X072311Y04622D01*
X072308Y046233D01*
X072303Y046244D01*
X072298Y046253D01*
X072291Y04626D01*
X072284Y046265D01*
X072275Y046268D01*
X072266Y046269D01*
X072466D01*
X072456Y046268D01*
D02*
G37*
G36*
X074654Y045986D02*
X074656Y045969D01*
X074658Y045953D01*
X074662Y04594D01*
X074666Y045929D01*
X074672Y04592D01*
X074678Y045913D01*
X074686Y045908D01*
X074694Y045905D01*
X074704Y045904D01*
X074504D01*
X074513Y045905D01*
X074522Y045908D01*
X074529Y045913D01*
X074536Y04592D01*
X074541Y045929D01*
X074546Y04594D01*
X074549Y045953D01*
X074552Y045969D01*
X074553Y045986D01*
X074554Y046005D01*
X074654D01*
X074654Y045986D01*
D02*
G37*
G36*
X066484Y047185D02*
X066493Y047177D01*
X066495Y047174D01*
X06651Y047144D01*
X06651Y047139D01*
X066509Y047135D01*
X066507Y047128D01*
X066505Y04712D01*
X066503Y047112D01*
X066502Y047105D01*
X066501Y047097D01*
X0665Y047089D01*
X066499Y047083D01*
X066493Y047079D01*
X066484Y047074D01*
X066474Y047068D01*
X066465Y047062D01*
X066456Y047055D01*
X066447Y047049D01*
X066438Y047042D01*
X066429Y047035D01*
X066421Y047027D01*
X066412Y04702D01*
X066404Y047012D01*
X066397Y047004D01*
X066389Y046996D01*
X066382Y046987D01*
X066374Y046979D01*
X066368Y04697D01*
X066361Y046961D01*
X066355Y046952D01*
X066348Y046942D01*
X066342Y046933D01*
X066337Y046923D01*
X066331Y046913D01*
X066326Y046903D01*
X066322Y046893D01*
X066317Y046883D01*
X066313Y046873D01*
X066309Y046862D01*
X066305Y046852D01*
X066301Y046841D01*
X066298Y04683D01*
X066296Y046819D01*
X066293Y046808D01*
X066291Y046797D01*
X066289Y046786D01*
X066287Y046775D01*
X066286Y046764D01*
X066285Y046753D01*
X066284Y046742D01*
X066283Y046731D01*
X066283Y04672D01*
X066283Y046708D01*
X066284Y046697D01*
X066285Y046686D01*
X066286Y046675D01*
X066287Y046664D01*
X066289Y046653D01*
X066291Y046642D01*
X066293Y046631D01*
X066296Y04662D01*
X066298Y046609D01*
X066301Y046598D01*
X066305Y046588D01*
X066309Y046577D01*
X066313Y046567D01*
X066317Y046556D01*
X066322Y046546D01*
X066326Y046536D01*
X066331Y046526D01*
X066337Y046516D01*
X066342Y046506D01*
X066348Y046497D01*
X066355Y046488D01*
X066361Y046478D01*
X066368Y046469D01*
X066374Y046461D01*
X066382Y046452D01*
X066389Y046443D01*
X066397Y046435D01*
X066404Y046427D01*
X066405Y046426D01*
X066405Y046426D01*
X066429Y046403D01*
X066466Y04636D01*
X066478Y046344D01*
X066488Y04633D01*
X066494Y046318D01*
X066498Y046311D01*
X066499Y046308D01*
X066499Y046307D01*
Y046286D01*
X066499Y046279D01*
X0665Y046271D01*
X066501Y046263D01*
X066502Y046256D01*
X066503Y046248D01*
X066505Y04624D01*
X066507Y046233D01*
X066509Y046225D01*
X066511Y046218D01*
X066514Y046211D01*
X066517Y046204D01*
X066521Y046197D01*
X066524Y04619D01*
X066528Y046183D01*
X066532Y046177D01*
X066537Y04617D01*
X066542Y046164D01*
X066547Y046158D01*
X066552Y046152D01*
X066557Y046147D01*
X066657Y046047D01*
Y045912D01*
X065988D01*
Y045897D01*
X065942Y045878D01*
X065438Y046382D01*
X065414Y046427D01*
X065422Y046435D01*
X06543Y046443D01*
X065437Y046452D01*
X065444Y046461D01*
X065451Y046469D01*
X065458Y046478D01*
X065464Y046488D01*
X06547Y046497D01*
X065476Y046506D01*
X065482Y046516D01*
X065487Y046526D01*
X065492Y046536D01*
X065497Y046546D01*
X065502Y046556D01*
X065506Y046567D01*
X06551Y046577D01*
X065514Y046588D01*
X065517Y046598D01*
X06552Y046609D01*
X065523Y04662D01*
X065526Y046631D01*
X065528Y046642D01*
X06553Y046653D01*
X065532Y046664D01*
X065533Y046675D01*
X065534Y046686D01*
X065535Y046697D01*
X065535Y046708D01*
X065535Y04672D01*
X065535Y046731D01*
X065535Y046742D01*
X065534Y046753D01*
X065533Y046764D01*
X065532Y046775D01*
X06553Y046786D01*
X065528Y046797D01*
X065526Y046808D01*
X065523Y046819D01*
X06552Y04683D01*
X065517Y046841D01*
X065514Y046852D01*
X06551Y046862D01*
X065506Y046873D01*
X065502Y046883D01*
X065497Y046893D01*
X065492Y046903D01*
X065487Y046913D01*
X065482Y046923D01*
X065476Y046933D01*
X06547Y046942D01*
X065464Y046952D01*
X065458Y046961D01*
X065451Y04697D01*
X065444Y046979D01*
X065437Y046987D01*
X06543Y046996D01*
X065422Y047004D01*
X065414Y047012D01*
X065406Y04702D01*
X065398Y047027D01*
X06539Y047035D01*
X065381Y047042D01*
X065372Y047049D01*
X065363Y047055D01*
X065354Y047062D01*
X065345Y047068D01*
X065335Y047074D01*
X065325Y047079D01*
X065316Y047085D01*
X065306Y04709D01*
X065296Y047095D01*
X065285Y047099D01*
X065275Y047104D01*
X065264Y047108D01*
X065254Y047111D01*
X065243Y047115D01*
X065233Y047118D01*
X065222Y047121D01*
X065211Y047123D01*
X0652Y047126D01*
X065189Y047128D01*
X065178Y047129D01*
X065167Y047131D01*
X065155Y047132D01*
X065144Y047132D01*
X065133Y047133D01*
X065122Y047133D01*
X065111Y047133D01*
X0651Y047132D01*
X065088Y047132D01*
X065077Y047131D01*
X065066Y047129D01*
X065055Y047128D01*
X065044Y047126D01*
X065033Y047123D01*
X065022Y047121D01*
X065011Y047118D01*
X065001Y047115D01*
X06499Y047111D01*
X064979Y047108D01*
X064969Y047104D01*
X064959Y047099D01*
X064948Y047095D01*
X064938Y04709D01*
X064928Y047085D01*
X064918Y047079D01*
X064909Y047074D01*
X064899Y047068D01*
X06489Y047062D01*
X064881Y047055D01*
X064872Y047049D01*
X064863Y047042D01*
X064854Y047035D01*
X064846Y047027D01*
X064838Y04702D01*
X06483Y047012D01*
X064822Y047004D01*
X064814Y046996D01*
X064807Y046987D01*
X0648Y046979D01*
X064793Y04697D01*
X064786Y046961D01*
X06478Y046952D01*
X064774Y046942D01*
X064768Y046933D01*
X064762Y046923D01*
X064757Y046913D01*
X064752Y046903D01*
X064747Y046893D01*
X064742Y046883D01*
X064738Y046873D01*
X064734Y046862D01*
X06473Y046852D01*
X064727Y046841D01*
X064724Y04683D01*
X064721Y046819D01*
X064718Y046808D01*
X064716Y046797D01*
X064714Y046786D01*
X064712Y046775D01*
X064711Y046764D01*
X06471Y046753D01*
X064709Y046742D01*
X064709Y046731D01*
X064708Y04672D01*
X064709Y046708D01*
X064709Y046697D01*
X06471Y046686D01*
X064711Y046675D01*
X064712Y046664D01*
X064714Y046653D01*
X064716Y046642D01*
X064718Y046631D01*
X064721Y04662D01*
X064724Y046609D01*
X064727Y046598D01*
X06473Y046588D01*
X064734Y046577D01*
X064738Y046567D01*
X064742Y046556D01*
X064747Y046546D01*
X064752Y046536D01*
X064757Y046526D01*
X064762Y046516D01*
X064768Y046506D01*
X064774Y046497D01*
X06478Y046488D01*
X064786Y046478D01*
X064793Y046469D01*
X064798Y046463D01*
X06476Y04643D01*
X06445Y04674D01*
X064444Y046746D01*
X064438Y046751D01*
X064432Y046756D01*
X064426Y046761D01*
X06442Y046765D01*
X064413Y046769D01*
X064407Y046773D01*
X0644Y046777D01*
X064393Y046781D01*
X064386Y046784D01*
X064379Y046787D01*
X064372Y046789D01*
X064364Y046792D01*
X064357Y046794D01*
X064349Y046796D01*
X064342Y046797D01*
X064334Y046799D01*
X064334Y046801D01*
X064334Y046811D01*
X064333Y046821D01*
X064332Y046832D01*
X064331Y046842D01*
X064329Y046852D01*
X064327Y046862D01*
X064325Y046872D01*
X064322Y046882D01*
X06432Y046892D01*
X064317Y046902D01*
X064313Y046912D01*
X06431Y046921D01*
X064306Y046931D01*
X064301Y04694D01*
X064297Y046949D01*
X064292Y046959D01*
X064287Y046968D01*
X064282Y046976D01*
X064276Y046985D01*
X06427Y046994D01*
X064264Y047002D01*
X064258Y04701D01*
X064252Y047018D01*
X064245Y047026D01*
X064238Y047034D01*
X064231Y047041D01*
X064223Y047048D01*
X064216Y047055D01*
X064208Y047062D01*
X0642Y047068D01*
X064192Y047075D01*
X064183Y047081D01*
X064175Y047086D01*
X064166Y047092D01*
X064157Y047097D01*
X064148Y047102D01*
X064139Y047107D01*
X06413Y047112D01*
X064121Y047116D01*
X064111Y04712D01*
X064101Y047123D01*
X064092Y047127D01*
X064082Y04713D01*
X064072Y047133D01*
X064062Y047135D01*
X064052Y047137D01*
X064042Y047139D01*
X06405Y047189D01*
X066477D01*
X066484Y047185D01*
D02*
G37*
G36*
X066895Y045818D02*
X066896Y045805D01*
X066898Y045792D01*
X066901Y045782D01*
X066904Y045773D01*
X066909Y045766D01*
X066914Y04576D01*
X06692Y045756D01*
X066927Y045753D01*
X066934Y045753D01*
X066774D01*
X066782Y045753D01*
X066789Y045756D01*
X066795Y04576D01*
X0668Y045766D01*
X066804Y045773D01*
X066808Y045782D01*
X066811Y045792D01*
X066813Y045805D01*
X066814Y045818D01*
X066814Y045834D01*
X066894D01*
X066895Y045818D01*
D02*
G37*
G36*
X069479Y045818D02*
X069475Y045814D01*
X069472Y045808D01*
X06947Y045802D01*
X069468Y045795D01*
X069466Y045787D01*
X069465Y045779D01*
X069464Y04577D01*
X069463Y045749D01*
X069363D01*
X069363Y04576D01*
X069362Y045779D01*
X06936Y045787D01*
X069359Y045795D01*
X069356Y045802D01*
X069354Y045808D01*
X069351Y045814D01*
X069348Y045818D01*
X069344Y045823D01*
X069482D01*
X069479Y045818D01*
D02*
G37*
G36*
X072416Y045672D02*
X072418Y045653D01*
X072419Y045644D01*
X072421Y045636D01*
X072423Y045629D01*
X072425Y045623D01*
X072428Y045618D01*
X072431Y045613D01*
X072435Y045609D01*
X072297D01*
X072301Y045613D01*
X072304Y045618D01*
X072307Y045623D01*
X072309Y045629D01*
X072311Y045636D01*
X072313Y045644D01*
X072314Y045653D01*
X072315Y045662D01*
X072316Y045682D01*
X072416D01*
X072416Y045672D01*
D02*
G37*
G36*
X066148Y045478D02*
X066147Y045487D01*
X066144Y045496D01*
X066139Y045503D01*
X066132Y04551D01*
X066123Y045515D01*
X066111Y04552D01*
X066098Y045523D01*
X066083Y045526D01*
X066066Y045527D01*
X066047Y045528D01*
Y045628D01*
X066066Y045628D01*
X066083Y04563D01*
X066098Y045632D01*
X066111Y045636D01*
X066123Y04564D01*
X066132Y045646D01*
X066139Y045652D01*
X066144Y04566D01*
X066147Y045668D01*
X066148Y045678D01*
Y045478D01*
D02*
G37*
G36*
X064177Y045243D02*
X06418Y045235D01*
X064185Y045227D01*
X064193Y045221D01*
X064202Y045215D01*
X064213Y045211D01*
X064226Y045207D01*
X064241Y045205D01*
X064258Y045203D01*
X064278Y045203D01*
Y045103D01*
X064258Y045102D01*
X064241Y045101D01*
X064226Y045098D01*
X064213Y045095D01*
X064202Y04509D01*
X064193Y045085D01*
X064185Y045078D01*
X06418Y045071D01*
X064177Y045062D01*
X064176Y045053D01*
Y045253D01*
X064177Y045243D01*
D02*
G37*
G36*
X067011Y045012D02*
X067014Y045006D01*
X067018Y045D01*
X067023Y044994D01*
X06703Y04499D01*
X067039Y044986D01*
X06705Y044984D01*
X067062Y044982D01*
X067075Y04498D01*
X06709Y04498D01*
Y0449D01*
X067075Y0449D01*
X067062Y044898D01*
X06705Y044896D01*
X067039Y044894D01*
X06703Y04489D01*
X067023Y044886D01*
X067018Y04488D01*
X067014Y044874D01*
X067011Y044868D01*
X06701Y04486D01*
Y04502D01*
X067011Y045012D01*
D02*
G37*
G36*
X066148Y04484D02*
X066147Y04485D01*
X066144Y044858D01*
X066139Y044866D01*
X066132Y044872D01*
X066123Y044878D01*
X066111Y044882D01*
X066098Y044886D01*
X066083Y044888D01*
X066066Y04489D01*
X066047Y04489D01*
Y04499D01*
X066066Y044991D01*
X066083Y044992D01*
X066098Y044995D01*
X066111Y044998D01*
X066123Y045003D01*
X066132Y045008D01*
X066139Y045015D01*
X066144Y045022D01*
X066147Y045031D01*
X066148Y04504D01*
Y04484D01*
D02*
G37*
G36*
X065857Y044156D02*
X065863Y04415D01*
X065868Y044145D01*
X065874Y04414D01*
X065881Y044135D01*
X065887Y044131D01*
X065893Y044127D01*
X0659Y044123D01*
X065907Y044119D01*
X065914Y044115D01*
X065921Y044112D01*
X065928Y044109D01*
X065935Y044106D01*
X065943Y044104D01*
X06595Y044102D01*
X065958Y0441D01*
X065965Y044098D01*
X065973Y044097D01*
X065981Y044096D01*
X065988Y044095D01*
Y043968D01*
X066539D01*
Y043531D01*
X06635D01*
X066342Y043531D01*
X066334Y043531D01*
X066327Y04353D01*
X066319Y043529D01*
X066311Y043527D01*
X066304Y043526D01*
X066296Y043524D01*
X066289Y043522D01*
X066282Y043519D01*
X066274Y043516D01*
X066267Y043513D01*
X06626Y04351D01*
X066253Y043506D01*
X066247Y043502D01*
X06624Y043498D01*
X066234Y043494D01*
X066228Y043489D01*
X066222Y043484D01*
X066216Y043479D01*
X06621Y043473D01*
X066163Y043427D01*
X066158Y043421D01*
X066153Y043415D01*
X066148Y043409D01*
X066143Y043403D01*
X066139Y043397D01*
X066135Y04339D01*
X066131Y043383D01*
X066127Y043377D01*
X066124Y04337D01*
X066121Y043362D01*
X06612Y043361D01*
X065988D01*
Y042692D01*
Y042054D01*
X067169D01*
Y042201D01*
X067888D01*
Y042182D01*
X068501D01*
X068547Y042172D01*
Y041676D01*
X063705D01*
X063703Y041676D01*
X063697Y041676D01*
X063689Y041676D01*
X063681Y041677D01*
X063673Y041678D01*
X063665Y04168D01*
X063658Y041681D01*
X06365Y041683D01*
X063642Y041686D01*
X063635Y041688D01*
X063628Y041691D01*
X06362Y041694D01*
X063613Y041698D01*
X063606Y041701D01*
X063599Y041705D01*
X063593Y04171D01*
X063586Y041714D01*
X06358Y041719D01*
X063574Y041724D01*
X063568Y041729D01*
X063562Y041735D01*
X063557Y04174D01*
X063552Y041746D01*
X063547Y041752D01*
X063542Y041759D01*
X063537Y041765D01*
X063533Y041772D01*
X063529Y041779D01*
X063525Y041786D01*
X063522Y041793D01*
X063519Y0418D01*
X063516Y041807D01*
X063513Y041815D01*
X063511Y041822D01*
X063509Y04183D01*
X063507Y041838D01*
X063506Y041846D01*
X063505Y041853D01*
X063504Y041861D01*
X063504Y041869D01*
X063503Y041875D01*
X063503Y041877D01*
Y043119D01*
X063504Y043121D01*
X063509Y043132D01*
X063513Y043137D01*
X063535Y043155D01*
X063553Y043162D01*
X063556Y043162D01*
X063566Y043161D01*
X063576Y043161D01*
X063586Y04316D01*
X06398D01*
X06399Y043161D01*
X064001Y043161D01*
X064011Y043162D01*
X064021Y043163D01*
X064032Y043164D01*
X064042Y043166D01*
X064052Y043168D01*
X064062Y04317D01*
X064072Y043173D01*
X064082Y043175D01*
X064092Y043178D01*
X064101Y043182D01*
X064111Y043186D01*
X064121Y043189D01*
X06413Y043194D01*
X064139Y043198D01*
X064148Y043203D01*
X064157Y043208D01*
X064166Y043213D01*
X064175Y043219D01*
X064183Y043225D01*
X064192Y043231D01*
X0642Y043237D01*
X064208Y043243D01*
X064216Y04325D01*
X064223Y043257D01*
X064231Y043264D01*
X064238Y043272D01*
X064245Y043279D01*
X064252Y043287D01*
X064258Y043295D01*
X064264Y043303D01*
X06427Y043312D01*
X064276Y04332D01*
X064282Y043329D01*
X064287Y043338D01*
X064292Y043347D01*
X064297Y043356D01*
X064301Y043365D01*
X064306Y043374D01*
X06431Y043384D01*
X064313Y043394D01*
X064317Y043403D01*
X06432Y043413D01*
X064322Y043423D01*
X064325Y043433D01*
X064327Y043443D01*
X064329Y043453D01*
X064331Y043463D01*
X064332Y043474D01*
X064333Y043484D01*
X064334Y043494D01*
X064334Y043505D01*
X064335Y043515D01*
Y043909D01*
X064334Y043919D01*
X064334Y043929D01*
X064333Y043939D01*
X064332Y04395D01*
X064331Y04396D01*
X064329Y04397D01*
X064327Y04398D01*
X064325Y04399D01*
X064322Y044D01*
X06432Y04401D01*
X064317Y04402D01*
X064313Y04403D01*
X06431Y044039D01*
X064306Y044049D01*
X064301Y044058D01*
X064297Y044068D01*
X064292Y044077D01*
X064287Y044086D01*
X064282Y044095D01*
X064276Y044103D01*
X06427Y044112D01*
X064264Y04412D01*
X064258Y044128D01*
X064252Y044136D01*
X064245Y044144D01*
X064238Y044152D01*
X064231Y044159D01*
X064223Y044166D01*
X064216Y044173D01*
X064208Y04418D01*
X0642Y044187D01*
X064192Y044193D01*
X064183Y044199D01*
X064175Y044205D01*
X064166Y04421D01*
X064157Y044215D01*
X064148Y04422D01*
X064139Y044225D01*
X06413Y04423D01*
X064121Y044234D01*
X064111Y044238D01*
X064101Y044242D01*
X064092Y044245D01*
X064082Y044248D01*
X064072Y044251D01*
X064062Y044253D01*
X064052Y044256D01*
X064042Y044258D01*
X064032Y044259D01*
X064021Y044261D01*
X064011Y044262D01*
X064001Y044262D01*
X06399Y044263D01*
X06398Y044263D01*
X063586D01*
X063576Y044263D01*
X063566Y044262D01*
X063556Y044262D01*
X063553Y044261D01*
X063535Y044269D01*
X063513Y044286D01*
X063509Y044292D01*
X063504Y044303D01*
X063503Y044304D01*
Y04456D01*
X063504Y044562D01*
X063509Y044573D01*
X063513Y044578D01*
X063535Y044595D01*
X063553Y044603D01*
X063556Y044603D01*
X063566Y044602D01*
X063576Y044602D01*
X063586Y044601D01*
X06398D01*
X06399Y044602D01*
X064001Y044602D01*
X064011Y044603D01*
X064021Y044604D01*
X064032Y044605D01*
X064042Y044607D01*
X064052Y044609D01*
X064062Y044611D01*
X064072Y044613D01*
X064082Y044616D01*
X064092Y044619D01*
X064101Y044623D01*
X064111Y044626D01*
X064121Y04463D01*
X06413Y044635D01*
X064139Y044639D01*
X064148Y044644D01*
X064157Y044649D01*
X064166Y044654D01*
X064175Y04466D01*
X064183Y044665D01*
X064192Y044672D01*
X0642Y044678D01*
X064208Y044684D01*
X064216Y044691D01*
X064223Y044698D01*
X064231Y044705D01*
X064238Y044713D01*
X064245Y04472D01*
X064252Y044728D01*
X064258Y044736D01*
X064264Y044744D01*
X06427Y044753D01*
X064276Y044761D01*
X064282Y04477D01*
X064287Y044779D01*
X064292Y044788D01*
X064297Y044797D01*
X064301Y044806D01*
X064306Y044815D01*
X06431Y044825D01*
X064313Y044835D01*
X064317Y044844D01*
X06432Y044854D01*
X064322Y044864D01*
X064325Y044874D01*
X064327Y044884D01*
X064329Y044894D01*
X064331Y044904D01*
X064332Y044915D01*
X064333Y044925D01*
X064334Y044935D01*
X064334Y044945D01*
X065067D01*
X065857Y044156D01*
D02*
G37*
G36*
X07025Y046828D02*
Y046572D01*
X070247Y046565D01*
X070242Y046557D01*
X070239Y046554D01*
X070212Y046534D01*
X0702Y046531D01*
X070197Y046531D01*
X070189Y046532D01*
X07018Y046532D01*
X070171Y046533D01*
X070162Y046532D01*
X070154Y046532D01*
X070145Y046531D01*
X070136Y04653D01*
X070128Y046529D01*
X070119Y046527D01*
X070111Y046525D01*
X070102Y046523D01*
X070094Y046521D01*
X070085Y046518D01*
X070077Y046515D01*
X070069Y046511D01*
X070061Y046508D01*
X070053Y046504D01*
X070046Y0465D01*
X070038Y046495D01*
X070031Y046491D01*
X070024Y046486D01*
X070016Y046481D01*
X07001Y046475D01*
X070003Y04647D01*
X069996Y046464D01*
X06999Y046458D01*
X069984Y046451D01*
X069978Y046445D01*
X069973Y046438D01*
X069967Y046431D01*
X069962Y046424D01*
X069957Y046417D01*
X069952Y04641D01*
X069948Y046402D01*
X069944Y046394D01*
X06994Y046387D01*
X069936Y046379D01*
X069933Y046371D01*
X06993Y046362D01*
X069927Y046354D01*
X069925Y046346D01*
X069922Y046337D01*
X069921Y046329D01*
X069919Y04632D01*
X069918Y046311D01*
X069917Y046303D01*
X069916Y046294D01*
X069915Y046285D01*
X069915Y046277D01*
X069915Y046268D01*
X069916Y046259D01*
X069917Y04625D01*
X069918Y046242D01*
X069919Y046233D01*
X069921Y046225D01*
X069922Y046216D01*
X069925Y046208D01*
X069927Y046199D01*
X06993Y046191D01*
X069933Y046183D01*
X069936Y046175D01*
X06994Y046167D01*
X069944Y046159D01*
X069948Y046151D01*
X069952Y046144D01*
X069957Y046136D01*
X069962Y046129D01*
X069967Y046122D01*
X069973Y046115D01*
X069978Y046108D01*
X069984Y046102D01*
X06999Y046096D01*
X069996Y04609D01*
X070003Y046084D01*
X07001Y046078D01*
X070016Y046073D01*
X070024Y046068D01*
X070031Y046063D01*
X070038Y046058D01*
X070046Y046054D01*
X070053Y046049D01*
X070061Y046046D01*
X070069Y046042D01*
X070077Y046039D01*
X070085Y046035D01*
X070094Y046033D01*
X070102Y04603D01*
X070111Y046028D01*
X070119Y046026D01*
X070128Y046024D01*
X070136Y046023D01*
X070145Y046022D01*
X070154Y046021D01*
X070162Y046021D01*
X070171Y046021D01*
X07018Y046021D01*
X070189Y046021D01*
X070197Y046022D01*
X070206Y046023D01*
X070215Y046024D01*
X070223Y046026D01*
X070232Y046028D01*
X07024Y04603D01*
X070249Y046033D01*
X070257Y046035D01*
X070265Y046039D01*
X070273Y046042D01*
X070281Y046046D01*
X070289Y046049D01*
X070297Y046054D01*
X070304Y046058D01*
X070307Y04606D01*
X070309D01*
Y046071D01*
X070328Y046071D01*
X070405Y046076D01*
X070408Y046077D01*
X070409Y046079D01*
Y04606D01*
X071016D01*
Y046079D01*
X071017Y046077D01*
X07102Y046076D01*
X071025Y046075D01*
X071032Y046074D01*
X071052Y046072D01*
X071116Y046071D01*
Y04606D01*
X071175D01*
Y046316D01*
Y046572D01*
Y046837D01*
X071441D01*
Y04672D01*
X072051D01*
Y046109D01*
X072158D01*
Y045688D01*
X072157Y045686D01*
X072152Y045679D01*
X072147Y045671D01*
X072143Y045664D01*
X072139Y045656D01*
X072135Y045648D01*
X072131Y04564D01*
X072128Y045632D01*
X072125Y045624D01*
X072122Y045616D01*
X07212Y045608D01*
X072117Y045599D01*
X072115Y045591D01*
X072114Y045582D01*
X072112Y045573D01*
X072111Y045565D01*
X072111Y045556D01*
X07211Y045547D01*
X07211Y045538D01*
X07211Y04553D01*
X072111Y045521D01*
X072111Y045512D01*
X072112Y045504D01*
X072114Y045495D01*
X072115Y045486D01*
X072117Y045478D01*
X07212Y045469D01*
X072122Y045461D01*
X072125Y045453D01*
X072128Y045445D01*
X072131Y045437D01*
X072135Y045429D01*
X072139Y045421D01*
X072143Y045413D01*
X072147Y045406D01*
X072152Y045398D01*
X072157Y045391D01*
X072162Y045384D01*
X072167Y045377D01*
X072173Y04537D01*
X072179Y045364D01*
X072185Y045358D01*
X072191Y045351D01*
X072198Y045346D01*
X072204Y04534D01*
X072211Y045335D01*
X072218Y045329D01*
X072226Y045324D01*
X072233Y04532D01*
X072241Y045315D01*
X072248Y045311D01*
X072256Y045307D01*
X072264Y045304D01*
X072272Y0453D01*
X07228Y045297D01*
X072289Y045295D01*
X072297Y045292D01*
X072305Y04529D01*
X072314Y045288D01*
X072322Y045286D01*
X072331Y045285D01*
X07234Y045284D01*
X072348Y045283D01*
X072357Y045283D01*
X072366Y045283D01*
X072375Y045283D01*
X072383Y045283D01*
X072392Y045284D01*
X072401Y045285D01*
X072409Y045286D01*
X072418Y045288D01*
X072427Y04529D01*
X072435Y045292D01*
X072443Y045295D01*
X072452Y045297D01*
X07246Y0453D01*
X072468Y045304D01*
X072476Y045307D01*
X072484Y045311D01*
X072491Y045315D01*
X072499Y04532D01*
X072506Y045324D01*
X072514Y045329D01*
X072521Y045335D01*
X072527Y04534D01*
X072534Y045346D01*
X072541Y045351D01*
X072547Y045358D01*
X072553Y045364D01*
X072559Y04537D01*
X072565Y045377D01*
X07257Y045384D01*
X072575Y045391D01*
X07258Y045398D01*
X072585Y045406D01*
X072589Y045413D01*
X072593Y045421D01*
X072597Y045429D01*
X072601Y045437D01*
X072604Y045445D01*
X072607Y045453D01*
X07261Y045461D01*
X072612Y045469D01*
X072615Y045478D01*
X072617Y045486D01*
X072618Y045495D01*
X07262Y045504D01*
X072621Y045512D01*
X072621Y045521D01*
X072622Y04553D01*
X072622Y045538D01*
X072622Y045547D01*
X072621Y045556D01*
X072621Y045565D01*
X07262Y045573D01*
X072618Y045582D01*
X072617Y045591D01*
X072615Y045599D01*
X072612Y045608D01*
X07261Y045616D01*
X072607Y045624D01*
X072604Y045632D01*
X072601Y04564D01*
X072597Y045648D01*
X072593Y045656D01*
X072589Y045664D01*
X072585Y045671D01*
X07258Y045679D01*
X072575Y045686D01*
X072573Y045688D01*
Y046109D01*
X073232D01*
Y0467D01*
X073232D01*
Y04672D01*
X073882D01*
Y046827D01*
X07417D01*
X074396Y046601D01*
Y046062D01*
X074386Y046062D01*
X074376Y046061D01*
X074366Y04606D01*
X074356Y046058D01*
X074345Y046057D01*
X074335Y046055D01*
X074325Y046053D01*
X074315Y04605D01*
X074305Y046047D01*
X074295Y046044D01*
X074286Y046041D01*
X074276Y046037D01*
X074267Y046033D01*
X074257Y046029D01*
X074248Y046024D01*
X074239Y04602D01*
X07423Y046015D01*
X074221Y046009D01*
X074212Y046004D01*
X074204Y045998D01*
X074195Y045992D01*
X074187Y045986D01*
X074179Y045979D01*
X074171Y045972D01*
X074164Y045966D01*
X074156Y045958D01*
X074149Y045951D01*
X074142Y045943D01*
X074135Y045936D01*
X074129Y045928D01*
X074123Y045919D01*
X074117Y045911D01*
X074111Y045902D01*
X074105Y045894D01*
X0741Y045885D01*
X074095Y045876D01*
X07409Y045867D01*
X074086Y045858D01*
X074082Y045848D01*
X074078Y045839D01*
X074074Y045829D01*
X074071Y045819D01*
X074067Y045809D01*
X074065Y045799D01*
X074062Y045789D01*
X07406Y045779D01*
X074058Y045769D01*
X074056Y045759D01*
X074055Y045749D01*
X074054Y045739D01*
X074053Y045728D01*
X074053Y045718D01*
X074053Y045708D01*
Y045117D01*
X074053Y045107D01*
X074053Y045097D01*
X074054Y045086D01*
X074055Y045076D01*
X074056Y045066D01*
X074058Y045056D01*
X07406Y045046D01*
X074062Y045035D01*
X074065Y045025D01*
X074067Y045016D01*
X074071Y045006D01*
X074074Y044996D01*
X074078Y044986D01*
X074082Y044977D01*
X074086Y044967D01*
X07409Y044958D01*
X074095Y044949D01*
X0741Y04494D01*
X074105Y044931D01*
X074111Y044922D01*
X074117Y044914D01*
X074123Y044906D01*
X074129Y044897D01*
X074135Y044889D01*
X074142Y044882D01*
X074149Y044874D01*
X074156Y044867D01*
X074164Y044859D01*
X074171Y044852D01*
X074179Y044846D01*
X074187Y044839D01*
X074195Y044833D01*
X074204Y044827D01*
X074212Y044821D01*
X074221Y044816D01*
X07423Y04481D01*
X074239Y044805D01*
X074248Y044801D01*
X074257Y044796D01*
X074267Y044792D01*
X074276Y044788D01*
X074286Y044784D01*
X074295Y044781D01*
X074305Y044778D01*
X074315Y044775D01*
X074325Y044772D01*
X074335Y04477D01*
X074345Y044768D01*
X074356Y044767D01*
X074366Y044765D01*
X074376Y044764D01*
X074386Y044763D01*
X074397Y044763D01*
X074407Y044763D01*
X074801D01*
X074811Y044763D01*
X074821Y044763D01*
X074832Y044764D01*
X074834Y044764D01*
X074852Y044757D01*
X074874Y044739D01*
X074878Y044734D01*
X074883Y044723D01*
X074884Y044721D01*
Y041877D01*
X074884Y041875D01*
X074884Y041869D01*
X074883Y041861D01*
X074882Y041853D01*
X074881Y041846D01*
X07488Y041838D01*
X074878Y04183D01*
X074876Y041822D01*
X074874Y041815D01*
X074871Y041807D01*
X074868Y0418D01*
X074865Y041793D01*
X074862Y041786D01*
X074858Y041779D01*
X074854Y041772D01*
X07485Y041765D01*
X074845Y041759D01*
X074841Y041752D01*
X074836Y041746D01*
X07483Y04174D01*
X074825Y041735D01*
X074819Y041729D01*
X074813Y041724D01*
X074807Y041719D01*
X074801Y041714D01*
X074794Y04171D01*
X074788Y041705D01*
X074781Y041701D01*
X074774Y041698D01*
X074767Y041694D01*
X07476Y041691D01*
X074752Y041688D01*
X074745Y041686D01*
X074737Y041683D01*
X07473Y041681D01*
X074722Y04168D01*
X074714Y041678D01*
X074706Y041677D01*
X074698Y041676D01*
X07469Y041676D01*
X074684Y041676D01*
X074683Y041676D01*
X070437D01*
Y042172D01*
X070483Y042182D01*
X071175D01*
Y042615D01*
X070409D01*
Y042597D01*
X070408Y042598D01*
X070405Y042599D01*
X0704Y042601D01*
X070393Y042602D01*
X070373Y042603D01*
X070309Y042604D01*
Y042615D01*
X07025D01*
Y042606D01*
X07018D01*
X070173Y042606D01*
X070165Y042606D01*
X070157Y042605D01*
X07015Y042604D01*
X070142Y042602D01*
X070134Y042601D01*
X070127Y042599D01*
X070119Y042597D01*
X070112Y042594D01*
X070105Y042592D01*
X070097Y042589D01*
X07009Y042586D01*
X070084Y042582D01*
X070077Y042578D01*
X07007Y042574D01*
X070064Y04257D01*
X070057Y042566D01*
X070051Y042561D01*
X070045Y042556D01*
X070039Y042551D01*
X070034Y042545D01*
X069975Y042487D01*
X06997Y042481D01*
X069965Y042475D01*
X06996Y042469D01*
X069955Y042463D01*
X06995Y042457D01*
X069946Y04245D01*
X069942Y042444D01*
X069938Y042437D01*
X069935Y04243D01*
X069932Y042423D01*
X069929Y042416D01*
X069926Y042409D01*
X069924Y042401D01*
X069921Y042394D01*
X06992Y042386D01*
X069918Y042379D01*
X069917Y042371D01*
X069916Y042363D01*
X069915Y042356D01*
X069915Y042348D01*
X069914Y04234D01*
Y042172D01*
X069807D01*
Y042045D01*
X069728D01*
Y042172D01*
X069621D01*
Y045743D01*
X069622Y045745D01*
X069627Y045752D01*
X069632Y04576D01*
X069636Y045767D01*
X06964Y045775D01*
X069644Y045783D01*
X069648Y045791D01*
X069651Y045799D01*
X069654Y045807D01*
X069657Y045815D01*
X06966Y045824D01*
X069662Y045832D01*
X069664Y045841D01*
X069665Y045849D01*
X069667Y045858D01*
X069668Y045867D01*
X069669Y045875D01*
X069669Y045884D01*
X069669Y045893D01*
X069669Y045902D01*
X069669Y04591D01*
X069668Y045919D01*
X069667Y045928D01*
X069665Y045936D01*
X069664Y045945D01*
X069662Y045953D01*
X06966Y045962D01*
X069657Y04597D01*
X069654Y045978D01*
X069651Y045987D01*
X069648Y045995D01*
X069644Y046003D01*
X06964Y046011D01*
X069636Y046018D01*
X069632Y046026D01*
X069627Y046033D01*
X069622Y04604D01*
X069617Y046047D01*
X069612Y046054D01*
X069606Y046061D01*
X0696Y046067D01*
X069594Y046074D01*
X069588Y04608D01*
X069581Y046086D01*
X069575Y046091D01*
X069568Y046097D01*
X069561Y046102D01*
X069554Y046107D01*
X069546Y046111D01*
X069539Y046116D01*
X069531Y04612D01*
X069523Y046124D01*
X069515Y046128D01*
X069507Y046131D01*
X069499Y046134D01*
X069491Y046137D01*
X069482Y046139D01*
X069474Y046141D01*
X069465Y046143D01*
X069457Y046145D01*
X069448Y046146D01*
X069439Y046147D01*
X069431Y046148D01*
X069422Y046149D01*
X069413Y046149D01*
X069405Y046149D01*
X069396Y046148D01*
X069387Y046147D01*
X069378Y046146D01*
X06937Y046145D01*
X069361Y046143D01*
X069353Y046141D01*
X069344Y046139D01*
X069336Y046137D01*
X069328Y046134D01*
X069319Y046131D01*
X069311Y046128D01*
X069303Y046124D01*
X069295Y04612D01*
X069288Y046116D01*
X06928Y046111D01*
X069273Y046107D01*
X069266Y046102D01*
X069259Y046097D01*
X069252Y046091D01*
X069245Y046086D01*
X069239Y04608D01*
X069232Y046074D01*
X069226Y046067D01*
X06922Y046061D01*
X069215Y046054D01*
X069209Y046047D01*
X069204Y04604D01*
X069199Y046033D01*
X069195Y046026D01*
X06919Y046018D01*
X069186Y046011D01*
X069182Y046003D01*
X069178Y045995D01*
X069175Y045987D01*
X069172Y045978D01*
X069169Y04597D01*
X069167Y045962D01*
X069165Y045953D01*
X069163Y045945D01*
X069161Y045936D01*
X06916Y045928D01*
X069159Y045919D01*
X069158Y04591D01*
X069157Y045902D01*
X069157Y045893D01*
X069157Y045884D01*
X069158Y045875D01*
X069159Y045867D01*
X06916Y045858D01*
X069161Y045849D01*
X069163Y045841D01*
X069165Y045832D01*
X069167Y045824D01*
X069169Y045815D01*
X069172Y045807D01*
X069175Y045799D01*
X069178Y045791D01*
X069182Y045783D01*
X069186Y045775D01*
X06919Y045767D01*
X069195Y04576D01*
X069199Y045752D01*
X069204Y045745D01*
X069206Y045743D01*
Y042172D01*
X06906D01*
Y042568D01*
X069059Y042576D01*
X069059Y042583D01*
X069058Y042591D01*
X069057Y042599D01*
X069056Y042606D01*
X069054Y042614D01*
X069052Y042621D01*
X06905Y042629D01*
X069047Y042636D01*
X069045Y042643D01*
X069041Y04265D01*
X069038Y042657D01*
X069034Y042664D01*
X06903Y042671D01*
X069026Y042678D01*
X069022Y042684D01*
X069017Y04269D01*
X069012Y042696D01*
X069007Y042702D01*
X069002Y042707D01*
X068915Y042794D01*
X068909Y0428D01*
X068904Y042805D01*
X068898Y04281D01*
X068891Y042814D01*
X068885Y042819D01*
X068879Y042823D01*
X068872Y042827D01*
X068865Y04283D01*
X068858Y042834D01*
X068851Y042837D01*
X068844Y04284D01*
X068836Y042842D01*
X068829Y042845D01*
X068821Y042847D01*
X068814Y042848D01*
X068813Y042848D01*
Y043206D01*
Y043462D01*
Y043717D01*
Y043973D01*
Y044406D01*
X067951D01*
X067277Y04508D01*
X067272Y045085D01*
X067266Y04509D01*
X06726Y045095D01*
X067254Y0451D01*
X067247Y045104D01*
X067241Y045108D01*
X067234Y045112D01*
X067227Y045116D01*
X06722Y045119D01*
X067213Y045123D01*
X067206Y045125D01*
X067199Y045128D01*
X067191Y04513D01*
X067184Y045132D01*
X067176Y045134D01*
X067169Y045135D01*
Y045243D01*
Y045912D01*
X067052D01*
Y046129D01*
X067052Y046137D01*
X067051Y046145D01*
X06705Y046152D01*
X067049Y04616D01*
X067048Y046168D01*
X067046Y046175D01*
X067044Y046183D01*
X067042Y04619D01*
X067039Y046197D01*
X067037Y046205D01*
X067034Y046212D01*
X06703Y046219D01*
X067027Y046226D01*
X067023Y046232D01*
X067018Y046239D01*
X067014Y046245D01*
X067009Y046251D01*
X067004Y046257D01*
X066999Y046263D01*
X066994Y046269D01*
X066917Y046346D01*
X066927Y04636D01*
X066965Y046403D01*
X066988Y046426D01*
X066988Y046426D01*
X066989Y046427D01*
X066997Y046435D01*
X067004Y046443D01*
X067012Y046452D01*
X067019Y046461D01*
X067026Y046469D01*
X067032Y046478D01*
X067039Y046488D01*
X067045Y046497D01*
X067051Y046506D01*
X067057Y046516D01*
X067062Y046526D01*
X067063Y046527D01*
X067069Y04653D01*
X06709Y046533D01*
X067111Y04653D01*
X067118Y046527D01*
X067119Y046526D01*
X067124Y046516D01*
X06713Y046506D01*
X067136Y046497D01*
X067142Y046488D01*
X067148Y046478D01*
X067155Y046469D01*
X067162Y046461D01*
X067169Y046452D01*
X067176Y046443D01*
X067184Y046435D01*
X067192Y046427D01*
X0672Y046419D01*
X067208Y046412D01*
X067216Y046404D01*
X067225Y046397D01*
X067234Y04639D01*
X067243Y046384D01*
X067252Y046377D01*
X067261Y046371D01*
X067271Y046365D01*
X067281Y04636D01*
X06729Y046354D01*
X0673Y046349D01*
X067311Y046344D01*
X067321Y04634D01*
X067331Y046336D01*
X067342Y046332D01*
X067352Y046328D01*
X067363Y046324D01*
X067374Y046321D01*
X067384Y046318D01*
X067395Y046316D01*
X067406Y046314D01*
X067417Y046312D01*
X067428Y04631D01*
X067439Y046309D01*
X067451Y046308D01*
X067462Y046307D01*
X067473Y046306D01*
X067484Y046306D01*
X067495Y046306D01*
X067506Y046307D01*
X067518Y046308D01*
X067529Y046309D01*
X06754Y04631D01*
X067551Y046312D01*
X067562Y046314D01*
X067573Y046316D01*
X067584Y046318D01*
X067595Y046321D01*
X067605Y046324D01*
X067616Y046328D01*
X067627Y046332D01*
X067637Y046336D01*
X067647Y04634D01*
X067658Y046344D01*
X067668Y046349D01*
X067678Y046354D01*
X067688Y04636D01*
X067697Y046365D01*
X067707Y046371D01*
X067716Y046377D01*
X067725Y046384D01*
X067734Y04639D01*
X067743Y046397D01*
X067752Y046404D01*
X06776Y046412D01*
X067768Y046419D01*
X067776Y046427D01*
X067777Y046428D01*
X067778Y046428D01*
X067801Y046452D01*
X067844Y046489D01*
X067858Y0465D01*
X067965Y046393D01*
X06797Y046388D01*
X067976Y046382D01*
X067982Y046377D01*
X067988Y046373D01*
X067994Y046368D01*
X068001Y046364D01*
X068008Y04636D01*
X068015Y046357D01*
X068021Y046353D01*
X068029Y04635D01*
X068036Y046347D01*
X068043Y046345D01*
X068045Y046344D01*
Y04606D01*
Y045804D01*
Y045548D01*
Y045292D01*
Y045036D01*
Y044781D01*
Y044525D01*
X06897D01*
Y044781D01*
Y045036D01*
Y045292D01*
Y045548D01*
Y045804D01*
Y04606D01*
Y046316D01*
Y046572D01*
Y046828D01*
Y047189D01*
X07025D01*
Y046828D01*
D02*
G37*
G36*
X067011Y044375D02*
X067014Y044368D01*
X067018Y044362D01*
X067023Y044357D01*
X06703Y044352D01*
X067039Y044349D01*
X06705Y044346D01*
X067062Y044344D01*
X067075Y044343D01*
X06709Y044342D01*
Y044262D01*
X067075Y044262D01*
X067062Y044261D01*
X06705Y044259D01*
X067039Y044256D01*
X06703Y044252D01*
X067023Y044248D01*
X067018Y044243D01*
X067014Y044237D01*
X067011Y04423D01*
X06701Y044222D01*
Y044382D01*
X067011Y044375D01*
D02*
G37*
G36*
X066148Y044202D02*
X066147Y044212D01*
X066144Y04422D01*
X066139Y044228D01*
X066132Y044234D01*
X066123Y04424D01*
X066111Y044244D01*
X066098Y044248D01*
X066083Y04425D01*
X066066Y044252D01*
X066047Y044252D01*
Y044352D01*
X066066Y044353D01*
X066083Y044354D01*
X066098Y044357D01*
X066111Y04436D01*
X066123Y044365D01*
X066132Y04437D01*
X066139Y044377D01*
X066144Y044384D01*
X066147Y044393D01*
X066148Y044402D01*
Y044202D01*
D02*
G37*
G36*
X068046Y044132D02*
X068046Y044135D01*
X068043Y044138D01*
X068039Y044141D01*
X068034Y044143D01*
X068026Y044145D01*
X068018Y044147D01*
X068007Y044148D01*
X067982Y04415D01*
X067966Y04415D01*
Y04423D01*
X067982Y04423D01*
X068018Y044233D01*
X068026Y044234D01*
X068034Y044236D01*
X068039Y044239D01*
X068043Y044241D01*
X068046Y044244D01*
X068046Y044248D01*
Y044132D01*
D02*
G37*
G36*
Y043876D02*
X068046Y04388D01*
X068043Y043883D01*
X068039Y043885D01*
X068034Y043888D01*
X068026Y04389D01*
X068018Y043891D01*
X068007Y043892D01*
X067982Y043894D01*
X067966Y043894D01*
Y043974D01*
X067982Y043974D01*
X068018Y043977D01*
X068026Y043978D01*
X068034Y04398D01*
X068039Y043983D01*
X068043Y043985D01*
X068046Y043988D01*
X068046Y043992D01*
Y043876D01*
D02*
G37*
G36*
Y04362D02*
X068046Y043624D01*
X068043Y043627D01*
X068039Y043629D01*
X068034Y043632D01*
X068026Y043634D01*
X068018Y043635D01*
X068007Y043636D01*
X067982Y043638D01*
X067966Y043638D01*
Y043718D01*
X067982Y043718D01*
X068018Y043721D01*
X068026Y043723D01*
X068034Y043725D01*
X068039Y043727D01*
X068043Y04373D01*
X068046Y043733D01*
X068046Y043736D01*
Y04362D01*
D02*
G37*
G36*
X06701Y043751D02*
X067013Y043744D01*
X067017Y043738D01*
X067022Y043733D01*
X06703Y043728D01*
X067038Y043724D01*
X067049Y043722D01*
X067061Y04372D01*
X067075Y043719D01*
X06709Y043718D01*
Y043638D01*
X067075Y043638D01*
X067061Y043636D01*
X067049Y043635D01*
X067038Y043632D01*
X06703Y043628D01*
X067022Y043624D01*
X067017Y043618D01*
X067013Y043612D01*
X06701Y043606D01*
X067009Y043598D01*
Y043758D01*
X06701Y043751D01*
D02*
G37*
G36*
X068046Y043364D02*
X068046Y043368D01*
X068043Y043371D01*
X068039Y043373D01*
X068034Y043376D01*
X068026Y043378D01*
X068018Y043379D01*
X068007Y043381D01*
X067982Y043382D01*
X067966Y043382D01*
Y043462D01*
X067982Y043462D01*
X068018Y043465D01*
X068026Y043467D01*
X068034Y043469D01*
X068039Y043471D01*
X068043Y043474D01*
X068046Y043477D01*
X068046Y04348D01*
Y043364D01*
D02*
G37*
G36*
X066343Y043267D02*
X066345Y043253D01*
X066347Y043241D01*
X066349Y043231D01*
X066353Y043222D01*
X066357Y043214D01*
X066363Y043209D01*
X066369Y043205D01*
X066375Y043202D01*
X066383Y043201D01*
X066223D01*
X066231Y043202D01*
X066237Y043205D01*
X066243Y043209D01*
X066249Y043214D01*
X066253Y043222D01*
X066257Y043231D01*
X066259Y043241D01*
X066261Y043253D01*
X066263Y043267D01*
X066263Y043283D01*
X066343D01*
X066343Y043267D01*
D02*
G37*
G36*
X068046Y043108D02*
X068046Y043112D01*
X068043Y043115D01*
X068039Y043117D01*
X068034Y04312D01*
X068026Y043122D01*
X068018Y043123D01*
X068007Y043125D01*
X067982Y043126D01*
X067966Y043126D01*
Y043206D01*
X067982Y043206D01*
X068018Y043209D01*
X068026Y043211D01*
X068034Y043213D01*
X068039Y043215D01*
X068043Y043218D01*
X068046Y043221D01*
X068046Y043224D01*
Y043108D01*
D02*
G37*
G36*
X06701Y043099D02*
X067013Y043092D01*
X067017Y043086D01*
X067022Y043081D01*
X06703Y043077D01*
X067038Y043073D01*
X067049Y04307D01*
X067061Y043068D01*
X067075Y043067D01*
X06709Y043067D01*
Y042987D01*
X067075Y042986D01*
X067061Y042985D01*
X067049Y042983D01*
X067038Y04298D01*
X06703Y042977D01*
X067022Y042972D01*
X067017Y042967D01*
X067013Y042961D01*
X06701Y042954D01*
X067009Y042947D01*
Y043107D01*
X06701Y043099D01*
D02*
G37*
G36*
X068046Y042853D02*
X068046Y042856D01*
X068043Y042858D01*
X068039Y042861D01*
X068034Y042863D01*
X068026Y042865D01*
X068018Y042866D01*
X068007Y042867D01*
X067982Y042868D01*
X067966Y042869D01*
Y042949D01*
X067982Y042949D01*
X068018Y042952D01*
X068026Y042954D01*
X068034Y042956D01*
X068039Y042958D01*
X068043Y042961D01*
X068046Y042965D01*
X068046Y042968D01*
Y042853D01*
D02*
G37*
G36*
X068655Y042709D02*
X068657Y042706D01*
X068661Y042703D01*
X068667Y042701D01*
X068674Y042699D01*
X068683Y042697D01*
X068693Y042696D01*
X068719Y042695D01*
X068734Y042694D01*
Y042614D01*
X068719Y042614D01*
X068683Y042612D01*
X068674Y04261D01*
X068667Y042608D01*
X068661Y042606D01*
X068657Y042603D01*
X068655Y0426D01*
X068654Y042597D01*
Y042712D01*
X068655Y042709D01*
D02*
G37*
G36*
X066343Y042629D02*
X066345Y042616D01*
X066347Y042603D01*
X066349Y042593D01*
X066353Y042584D01*
X066357Y042577D01*
X066363Y042571D01*
X066369Y042567D01*
X066375Y042564D01*
X066383Y042564D01*
X066223D01*
X066231Y042564D01*
X066237Y042567D01*
X066243Y042571D01*
X066249Y042577D01*
X066253Y042584D01*
X066257Y042593D01*
X066259Y042603D01*
X066261Y042616D01*
X066263Y042629D01*
X066263Y042645D01*
X066343D01*
X066343Y042629D01*
D02*
G37*
G36*
X070409Y042341D02*
X070408Y042342D01*
X070405Y042344D01*
X0704Y042345D01*
X070393Y042346D01*
X070373Y042347D01*
X070309Y042349D01*
Y042449D01*
X070328Y042449D01*
X070405Y042454D01*
X070408Y042455D01*
X070409Y042456D01*
Y042341D01*
D02*
G37*
G36*
X068046D02*
X068046Y042344D01*
X068043Y042347D01*
X068039Y04235D01*
X068034Y042352D01*
X068026Y042354D01*
X068018Y042356D01*
X068007Y042357D01*
X067982Y042358D01*
X067966Y042359D01*
Y042439D01*
X067982Y042439D01*
X068018Y042441D01*
X068026Y042443D01*
X068034Y042445D01*
X068039Y042447D01*
X068043Y04245D01*
X068046Y042453D01*
X068046Y042456D01*
Y042341D01*
D02*
G37*
G36*
X06701Y042471D02*
X067013Y042464D01*
X067017Y042458D01*
X067022Y042453D01*
X06703Y042449D01*
X067038Y042445D01*
X067049Y042442D01*
X067061Y04244D01*
X067075Y042439D01*
X06709Y042439D01*
Y042359D01*
X067075Y042358D01*
X067061Y042357D01*
X067049Y042355D01*
X067038Y042352D01*
X06703Y042349D01*
X067022Y042344D01*
X067017Y042339D01*
X067013Y042333D01*
X06701Y042326D01*
X067009Y042319D01*
Y042479D01*
X06701Y042471D01*
D02*
G37*
G36*
X069464Y042094D02*
X069465Y042077D01*
X069468Y042062D01*
X069471Y042049D01*
X069476Y042038D01*
X069481Y042029D01*
X069488Y042022D01*
X069495Y042016D01*
X069504Y042013D01*
X069513Y042012D01*
X069313D01*
X069323Y042013D01*
X069331Y042016D01*
X069339Y042022D01*
X069345Y042029D01*
X069351Y042038D01*
X069355Y042049D01*
X069359Y042062D01*
X069361Y042077D01*
X069363Y042094D01*
X069363Y042114D01*
X069463D01*
X069464Y042094D01*
D02*
G37*
G36*
X068902Y042078D02*
X068904Y042064D01*
X068906Y042052D01*
X068908Y042042D01*
X068912Y042033D01*
X068916Y042025D01*
X068922Y04202D01*
X068928Y042016D01*
X068934Y042013D01*
X068942Y042012D01*
X068782D01*
X06879Y042013D01*
X068796Y042016D01*
X068802Y04202D01*
X068808Y042025D01*
X068812Y042033D01*
X068816Y042042D01*
X068818Y042052D01*
X06882Y042064D01*
X068822Y042078D01*
X068822Y042094D01*
X068902D01*
X068902Y042078D01*
D02*
G37*
G36*
X070172Y042094D02*
X070174Y042077D01*
X070176Y042062D01*
X07018Y042049D01*
X070184Y042038D01*
X07019Y042029D01*
X070196Y042022D01*
X070204Y042016D01*
X070212Y042013D01*
X070222Y042012D01*
X070022D01*
X070031Y042013D01*
X07004Y042016D01*
X070047Y042022D01*
X070054Y042029D01*
X070059Y042038D01*
X070064Y042049D01*
X070067Y042062D01*
X07007Y042077D01*
X070071Y042094D01*
X070072Y042114D01*
X070172D01*
X070172Y042094D01*
D02*
G37*
G36*
X069967Y041738D02*
X069966Y041747D01*
X069963Y041756D01*
X069958Y041763D01*
X069951Y04177D01*
X069942Y041775D01*
X06993Y04178D01*
X069917Y041783D01*
X069902Y041786D01*
X069885Y041787D01*
X069866Y041788D01*
Y041888D01*
X069885Y041888D01*
X069902Y04189D01*
X069917Y041892D01*
X06993Y041896D01*
X069942Y0419D01*
X069951Y041906D01*
X069958Y041912D01*
X069963Y04192D01*
X069966Y041928D01*
X069967Y041938D01*
Y041738D01*
D02*
G37*
G36*
X069571Y041928D02*
X069574Y04192D01*
X069579Y041912D01*
X069586Y041906D01*
X069595Y0419D01*
X069606Y041896D01*
X069619Y041892D01*
X069634Y04189D01*
X069651Y041888D01*
X06967Y041888D01*
Y041788D01*
X069651Y041787D01*
X069634Y041786D01*
X069619Y041783D01*
X069606Y04178D01*
X069595Y041775D01*
X069586Y04177D01*
X069579Y041763D01*
X069574Y041756D01*
X069571Y041747D01*
X06957Y041738D01*
Y041938D01*
X069571Y041928D01*
D02*
G37*
%LPC*%
G36*
X071175Y045981D02*
X071116D01*
Y045971D01*
X071097Y045971D01*
X07102Y045966D01*
X071017Y045964D01*
X071016Y045963D01*
Y045981D01*
X070409D01*
Y045963D01*
X070408Y045964D01*
X070405Y045966D01*
X0704Y045967D01*
X070393Y045968D01*
X070373Y045969D01*
X070309Y045971D01*
Y045981D01*
X07025D01*
Y045548D01*
Y045195D01*
X070171D01*
X070163Y045194D01*
X070156Y045194D01*
X070148Y045193D01*
X07014Y045192D01*
X070133Y045191D01*
X070125Y045189D01*
X070118Y045187D01*
X07011Y045185D01*
X070103Y045182D01*
X070096Y04518D01*
X070088Y045177D01*
X070081Y045173D01*
X070075Y045169D01*
X070068Y045166D01*
X070061Y045161D01*
X070055Y045157D01*
X070049Y045152D01*
X070043Y045147D01*
X070037Y045142D01*
X070031Y045137D01*
X069903Y045009D01*
X069898Y045003D01*
X069893Y044997D01*
X069888Y044991D01*
X069883Y044985D01*
X069879Y044979D01*
X069875Y044972D01*
X069871Y044966D01*
X069867Y044959D01*
X069864Y044952D01*
X069861Y044945D01*
X069858Y044938D01*
X069855Y04493D01*
X069853Y044923D01*
X069851Y044915D01*
X069849Y044908D01*
X069848Y0449D01*
X069847Y044892D01*
X069846Y044885D01*
X069846Y044877D01*
X069846Y044869D01*
Y044042D01*
X069846Y044035D01*
X069846Y044027D01*
X069847Y044019D01*
X069848Y044012D01*
X069849Y044004D01*
X069851Y043996D01*
X069853Y043989D01*
X069855Y043981D01*
X069858Y043974D01*
X069861Y043967D01*
X069864Y04396D01*
X069867Y043953D01*
X069871Y043946D01*
X069875Y043939D01*
X069879Y043933D01*
X069883Y043926D01*
X069888Y04392D01*
X069893Y043914D01*
X069898Y043908D01*
X069903Y043903D01*
X070012Y043794D01*
X070017Y043789D01*
X070023Y043784D01*
X070029Y043779D01*
X070035Y043774D01*
X070042Y04377D01*
X070048Y043766D01*
X070055Y043762D01*
X070062Y043758D01*
X070069Y043755D01*
X070076Y043752D01*
X070083Y043749D01*
X070091Y043746D01*
X070098Y043744D01*
X070105Y043742D01*
X070113Y04374D01*
X070121Y043739D01*
X070128Y043738D01*
X070136Y043737D01*
X070144Y043737D01*
X070152Y043736D01*
X07025D01*
Y043462D01*
Y043206D01*
Y04295D01*
Y042694D01*
X070309D01*
Y042704D01*
X070328Y042705D01*
X070405Y04271D01*
X070408Y042711D01*
X070409Y042712D01*
Y042694D01*
X071175D01*
Y04295D01*
Y043206D01*
Y043462D01*
Y043717D01*
Y043973D01*
Y044406D01*
X070438D01*
Y044525D01*
X071175D01*
Y044781D01*
Y045036D01*
Y045292D01*
Y045548D01*
Y045981D01*
D02*
G37*
%LPD*%
G36*
X070409Y044939D02*
X070408Y044943D01*
X070405Y044946D01*
X070401Y044948D01*
X070396Y044951D01*
X070389Y044953D01*
X07038Y044954D01*
X070369Y044956D01*
X070344Y044957D01*
X070329Y044957D01*
Y045037D01*
X070344Y045037D01*
X07038Y04504D01*
X070389Y045042D01*
X070396Y045044D01*
X070401Y045046D01*
X070405Y045049D01*
X070408Y045052D01*
X070409Y045055D01*
Y044939D01*
D02*
G37*
G36*
Y044683D02*
X070408Y044688D01*
X070405Y044693D01*
X070401Y044697D01*
X070396Y044701D01*
X070389Y044704D01*
X07038Y044706D01*
X070369Y044708D01*
X070357Y044709D01*
X070344Y04471D01*
X070329Y04471D01*
Y04479D01*
X070344Y04479D01*
X070396Y044793D01*
X070401Y044795D01*
X070405Y044796D01*
X070408Y044797D01*
X070409Y044799D01*
Y044683D01*
D02*
G37*
G36*
Y044132D02*
X070408Y044135D01*
X070405Y044138D01*
X070401Y044141D01*
X070396Y044143D01*
X070389Y044145D01*
X07038Y044147D01*
X070369Y044148D01*
X070344Y04415D01*
X070329Y04415D01*
Y04423D01*
X070344Y04423D01*
X07038Y044233D01*
X070389Y044234D01*
X070396Y044236D01*
X070401Y044239D01*
X070405Y044241D01*
X070408Y044244D01*
X070409Y044248D01*
Y044132D01*
D02*
G37*
G36*
Y043876D02*
X070408Y04388D01*
X070405Y043883D01*
X070401Y043885D01*
X070396Y043888D01*
X070389Y04389D01*
X07038Y043891D01*
X070369Y043892D01*
X070344Y043894D01*
X070329Y043894D01*
Y043974D01*
X070344Y043974D01*
X07038Y043977D01*
X070389Y043978D01*
X070396Y04398D01*
X070401Y043983D01*
X070405Y043985D01*
X070408Y043988D01*
X070409Y043992D01*
Y043876D01*
D02*
G37*
D17*
X073547Y047034D02*
D03*
Y046483D02*
D03*
X071775Y047034D02*
D03*
Y046483D02*
D03*
D38*
X066303Y045578D02*
D03*
X066854D02*
D03*
X072366Y046444D02*
D03*
X072917D02*
D03*
X072366Y047034D02*
D03*
X072917D02*
D03*
X066303Y04494D02*
D03*
X066854D02*
D03*
X066303Y044302D02*
D03*
X066854D02*
D03*
X066303Y043664D02*
D03*
X066854D02*
D03*
X066303Y043027D02*
D03*
X066854D02*
D03*
X069413Y041838D02*
D03*
X068862D02*
D03*
X066303Y042389D02*
D03*
X066854D02*
D03*
X070673Y041838D02*
D03*
X070122D02*
D03*
D40*
X066004Y044302D02*
X066303D01*
X065153Y045153D02*
X066004Y044302D01*
X063783Y045153D02*
X065153D01*
X069413Y041877D02*
X069453Y041838D01*
X069728Y04294D02*
X070014Y042654D01*
X070712D01*
X069728Y04294D02*
Y045735D01*
X070014Y046021D01*
X070712D01*
X071628D02*
X071775Y046168D01*
Y046483D01*
X070712Y046021D02*
X071628D01*
X070122Y04234D02*
X07018Y042399D01*
X070712D01*
X070122Y041838D02*
Y04234D01*
X069453Y041838D02*
X069453Y041838D01*
X069453Y041838D02*
X070122D01*
X069413D02*
X069453D01*
X070122D02*
X070122Y041838D01*
X065949Y045578D02*
X066303D01*
X065122Y046405D02*
X065949Y045578D01*
X065122Y046405D02*
Y04672D01*
X065957Y04494D02*
X066303D01*
X064303Y046594D02*
X065957Y04494D01*
X063783Y046594D02*
X064303D01*
X066854Y043664D02*
X066868Y043678D01*
X069413Y041877D02*
Y045893D01*
X072366Y045538D02*
Y046444D01*
X070171Y046277D02*
X070712D01*
X074604Y045412D02*
Y046686D01*
X074256Y047034D02*
X074604Y046686D01*
X073547Y047034D02*
X074256D01*
X072917D02*
X073547D01*
X072917Y047034D02*
X072917Y047034D01*
X072917Y046444D02*
Y047034D01*
X070712Y047044D02*
X072356D01*
X072366Y047034D01*
D44*
X067484Y04672D02*
D03*
X066697D02*
D03*
X065909D02*
D03*
X065122D02*
D03*
D45*
X063783Y045153D02*
D03*
Y046594D02*
D03*
Y043712D02*
D03*
Y042271D02*
D03*
D46*
X074604Y043452D02*
D03*
Y045412D02*
D03*
D47*
X072248Y045066D02*
D03*
X071815D02*
D03*
X071421D02*
D03*
X064649Y04479D02*
D03*
X065004D02*
D03*
X068311Y041877D02*
D03*
X067957D02*
D03*
X069295Y04668D02*
D03*
Y047074D02*
D03*
X067878Y045893D02*
D03*
Y046247D02*
D03*
X069098Y04542D02*
D03*
X070083D02*
D03*
X069728D02*
D03*
X072366Y045538D02*
D03*
X069413Y045893D02*
D03*
X070171Y046277D02*
D03*
D48*
X070712Y047044D02*
D03*
Y046788D02*
D03*
Y046533D02*
D03*
Y046277D02*
D03*
Y046021D02*
D03*
Y045765D02*
D03*
Y045509D02*
D03*
Y045253D02*
D03*
Y044997D02*
D03*
Y044741D02*
D03*
X068508D02*
D03*
Y044997D02*
D03*
Y045253D02*
D03*
Y045509D02*
D03*
Y045765D02*
D03*
Y046021D02*
D03*
Y046277D02*
D03*
Y046533D02*
D03*
Y046788D02*
D03*
Y047044D02*
D03*
X070712Y042399D02*
D03*
Y042654D02*
D03*
Y04291D02*
D03*
Y043166D02*
D03*
Y043422D02*
D03*
Y043678D02*
D03*
Y043934D02*
D03*
Y04419D02*
D03*
X06835D02*
D03*
Y043934D02*
D03*
Y043678D02*
D03*
Y043422D02*
D03*
Y043166D02*
D03*
Y04291D02*
D03*
Y042654D02*
D03*
Y042399D02*
D03*
D49*
X070043Y044869D02*
X070171Y044997D01*
X070043Y044042D02*
Y044869D01*
Y044042D02*
X070152Y043934D01*
X070712D01*
X070171Y044997D02*
X070712D01*
X068104Y046533D02*
X068508D01*
X067917Y04672D02*
X068104Y046533D01*
X067484Y04672D02*
X067917D01*
X070318Y04475D02*
X070703D01*
X07024Y044672D02*
X070318Y04475D01*
X068124Y046788D02*
X068508D01*
X06776Y047153D02*
X068124Y046788D01*
X066775Y047153D02*
X06776D01*
X066697Y047074D02*
X066775Y047153D01*
X066697Y04672D02*
Y047074D01*
X066854Y045578D02*
Y046129D01*
X066697Y046286D02*
X066854Y046129D01*
X066697Y046286D02*
Y04672D01*
X067553Y043934D02*
X06835D01*
X067185Y044302D02*
X067553Y043934D01*
X066854Y044302D02*
X067185D01*
X067632Y043166D02*
X06835D01*
X067492Y043027D02*
X067632Y043166D01*
X066854Y043027D02*
X067492D01*
X067846Y042909D02*
X068348D01*
X067642Y042704D02*
X067846Y042909D01*
X06635Y042704D02*
X067642D01*
X067888Y04419D02*
X06835D01*
X067138Y04494D02*
X067888Y04419D01*
X066854Y04494D02*
X067138D01*
X067376Y043422D02*
X06835D01*
X067287Y043334D02*
X067376Y043422D01*
X06635Y043334D02*
X067287D01*
X066868Y043678D02*
X06835D01*
X066303Y043287D02*
X06635Y043334D01*
X066303Y043027D02*
Y043287D01*
X068348Y042909D02*
X06835Y04291D01*
X066303Y042657D02*
X06635Y042704D01*
X066303Y042389D02*
Y042657D01*
X066864Y042399D02*
X06835D01*
X066854Y042389D02*
X066864Y042399D01*
X068862Y041838D02*
Y042568D01*
X068775Y042654D02*
X068862Y042568D01*
X06835Y042654D02*
X068775D01*
X07024Y044279D02*
Y044672D01*
X070329Y04419D02*
X070712D01*
X07024Y044279D02*
X070329Y04419D01*
M02*
