M48
;Layer_Color=9474304
;FILE_FORMAT=2:4
INCH,LZ
;TYPE=PLATED
T1F00S00C0.0118
T2F00S00C0.0335
T3F00S00C0.0350
%
T01
X064649Y04479
X065004
X067878Y045893
Y046247
X069295Y04668
X069413Y045893
X069728Y04542
X070083
X070171Y046277
X069098Y04542
X071421Y045066
X071815
X072248
X072366Y045538
X068311Y041877
X067957
X069295Y047074
T02
X065122Y04672
X065909
X066697
X067484
T03
X063783Y042271
Y043712
Y045153
Y046594
X074604Y045412
Y043452
M30
