G04*
G04 #@! TF.GenerationSoftware,Altium Limited,Altium Designer,19.0.15 (446)*
G04*
G04 Layer_Color=128*
%FSTAX24Y24*%
%MOIN*%
G70*
G01*
G75*
%ADD52C,0.0020*%
D52*
X067317Y04672D02*
X067651D01*
X067484Y046552D02*
Y046887D01*
X066529Y04672D02*
X066864D01*
X066697Y046552D02*
Y046887D01*
X065742Y04672D02*
X066077D01*
X065909Y046552D02*
Y046887D01*
X064955Y04672D02*
X065289D01*
X065122Y046552D02*
Y046887D01*
X063608Y045153D02*
X063958D01*
X063783Y044978D02*
Y045328D01*
X063608Y046594D02*
X063958D01*
X063783Y046419D02*
Y046769D01*
X063608Y043712D02*
X063958D01*
X063783Y043537D02*
Y043887D01*
X074429Y043452D02*
X074779D01*
X074604Y043277D02*
Y043627D01*
X074429Y045412D02*
X074779D01*
X074604Y045237D02*
Y045587D01*
X063608Y042271D02*
X063958D01*
X063783Y042096D02*
Y042446D01*
X072189Y045066D02*
X072307D01*
X072248Y045007D02*
Y045125D01*
X071756Y045066D02*
X071874D01*
X071815Y045007D02*
Y045125D01*
X071362Y045066D02*
X07148D01*
X071421Y045007D02*
Y045125D01*
X06459Y04479D02*
X064709D01*
X064649Y044731D02*
Y044849D01*
X064945Y04479D02*
X065063D01*
X065004Y044731D02*
Y044849D01*
X068252Y041877D02*
X06837D01*
X068311Y041818D02*
Y041936D01*
X067898Y041877D02*
X068016D01*
X067957Y041818D02*
Y041936D01*
X069236Y04668D02*
X069354D01*
X069295Y046621D02*
Y046739D01*
X069236Y047074D02*
X069354D01*
X069295Y047015D02*
Y047133D01*
X067819Y045893D02*
X067937D01*
X067878Y045834D02*
Y045952D01*
X067819Y046247D02*
X067937D01*
X067878Y046188D02*
Y046306D01*
X069039Y04542D02*
X069157D01*
X069098Y045361D02*
Y045479D01*
X070023Y04542D02*
X070142D01*
X070083Y045361D02*
Y045479D01*
X069669Y04542D02*
X069787D01*
X069728Y045361D02*
Y045479D01*
X072307Y045538D02*
X072425D01*
X072366Y045479D02*
Y045598D01*
X069354Y045893D02*
X069472D01*
X069413Y045834D02*
Y045952D01*
X070112Y046277D02*
X07023D01*
X070171Y046218D02*
Y046336D01*
M02*
