G04*
G04 #@! TF.GenerationSoftware,Altium Limited,Altium Designer,19.0.15 (446)*
G04*
G04 Layer_Physical_Order=2*
G04 Layer_Color=16711680*
%FSTAX24Y24*%
%MOIN*%
G70*
G01*
G75*
%ADD15C,0.0100*%
%ADD20R,0.0984X0.0472*%
%ADD22R,0.0354X0.0315*%
%ADD25R,0.0315X0.0354*%
%ADD59C,0.0591*%
%ADD62C,0.0080*%
%ADD63C,0.0150*%
%ADD64C,0.0060*%
%ADD67R,0.0591X0.0591*%
%ADD68O,0.1969X0.0787*%
%ADD69O,0.1575X0.0591*%
%ADD70O,0.0650X0.0750*%
%ADD71R,0.0650X0.0750*%
%ADD72C,0.0197*%
%ADD73C,0.0300*%
G36*
X037298Y029609D02*
X037314Y029608D01*
X03733Y029607D01*
X037346Y029606D01*
X037361Y029605D01*
X037377Y029603D01*
X037393Y029601D01*
X037408Y029599D01*
X037424Y029596D01*
X037439Y029593D01*
X037455Y02959D01*
X03747Y029587D01*
X037485Y029583D01*
X0375Y029579D01*
X037515Y029574D01*
X03753Y02957D01*
X037545Y029565D01*
X03756Y029559D01*
X037575Y029554D01*
X037589Y029548D01*
X037604Y029542D01*
X037618Y029535D01*
X037633Y029528D01*
X037647Y029521D01*
X037661Y029514D01*
X037674Y029507D01*
X037688Y029499D01*
X037702Y029491D01*
X037715Y029482D01*
X037728Y029474D01*
X037741Y029465D01*
X037754Y029456D01*
X037767Y029446D01*
X037779Y029437D01*
X037791Y029427D01*
X037803Y029417D01*
X037815Y029406D01*
X037827Y029396D01*
X037838Y029385D01*
X03785Y029374D01*
X037861Y029363D01*
X037871Y029351D01*
X037882Y02934D01*
X037892Y029328D01*
X037902Y029316D01*
X037912Y029303D01*
X037922Y029291D01*
X037931Y029278D01*
X03794Y029266D01*
X037949Y029253D01*
X037958Y029239D01*
X037966Y029226D01*
X037974Y029213D01*
X037982Y029199D01*
X03799Y029185D01*
X037997Y029171D01*
X038004Y029157D01*
X038011Y029143D01*
X038017Y029128D01*
X038023Y029114D01*
X038029Y029099D01*
X038035Y029085D01*
X03804Y02907D01*
X038045Y029055D01*
X03805Y02904D01*
X038054Y029025D01*
X038058Y02901D01*
X038062Y028994D01*
X038066Y028979D01*
X038069Y028963D01*
X038072Y028948D01*
X038075Y028933D01*
X038077Y028917D01*
X038079Y028901D01*
X038081Y028886D01*
X038082Y02887D01*
X038083Y028854D01*
X038084Y028839D01*
X038084Y028823D01*
X038084Y028808D01*
X038084Y028807D01*
Y028315D01*
X038084Y028315D01*
X038085Y028291D01*
X038085Y028267D01*
X038086Y028243D01*
X038087Y028219D01*
X038088Y028196D01*
X03809Y028172D01*
X038092Y028148D01*
X038094Y028124D01*
X038097Y0281D01*
X0381Y028077D01*
X038103Y028053D01*
X038107Y028029D01*
X03811Y028006D01*
X038114Y027982D01*
X038119Y027959D01*
X038124Y027935D01*
X038129Y027912D01*
X038134Y027889D01*
X03814Y027866D01*
X038146Y027842D01*
X038152Y027819D01*
X038158Y027796D01*
X038165Y027773D01*
X038172Y027751D01*
X03818Y027728D01*
X038187Y027705D01*
X038195Y027683D01*
X038204Y02766D01*
X038212Y027638D01*
X038221Y027616D01*
X03823Y027594D01*
X03824Y027572D01*
X038249Y02755D01*
X038259Y027528D01*
X03827Y027507D01*
X03828Y027485D01*
X038291Y027464D01*
X038302Y027443D01*
X038313Y027422D01*
X038325Y027401D01*
X038337Y02738D01*
X038349Y02736D01*
X038362Y027339D01*
X038374Y027319D01*
X038387Y027299D01*
X0384Y027279D01*
X038414Y027259D01*
X038428Y02724D01*
X038442Y02722D01*
X038456Y027201D01*
X03847Y027182D01*
X038485Y027163D01*
X0385Y027145D01*
X038515Y027126D01*
X038531Y027108D01*
X038546Y02709D01*
X038562Y027072D01*
X038578Y027054D01*
X038595Y027037D01*
X038611Y02702D01*
X038628Y027003D01*
X038645Y026986D01*
X038662Y026969D01*
X03868Y026953D01*
X038697Y026937D01*
X038715Y026921D01*
X038733Y026905D01*
X038751Y02689D01*
X03877Y026875D01*
X038788Y02686D01*
X038807Y026845D01*
X038826Y026831D01*
X038846Y026816D01*
X038865Y026802D01*
X038884Y026789D01*
X038904Y026775D01*
X038924Y026762D01*
X038944Y026749D01*
X038964Y026736D01*
X038985Y026724D01*
X039005Y026712D01*
X039026Y0267D01*
X039047Y026688D01*
X039068Y026677D01*
X039089Y026666D01*
X03911Y026655D01*
X039132Y026644D01*
X039153Y026634D01*
X039175Y026624D01*
X039197Y026615D01*
X039219Y026605D01*
X039241Y026596D01*
X039263Y026587D01*
X039286Y026579D01*
X039308Y02657D01*
X03933Y026562D01*
X039353Y026555D01*
X039376Y026547D01*
X039399Y02654D01*
X039422Y026533D01*
X039444Y026527D01*
X039468Y02652D01*
X039491Y026514D01*
X039514Y026509D01*
X039537Y026503D01*
X039561Y026498D01*
X039584Y026494D01*
X039607Y026489D01*
X039631Y026485D01*
X039655Y026481D01*
X039678Y026478D01*
X039702Y026475D01*
X039726Y026472D01*
X039749Y026469D01*
X039773Y026467D01*
X039797Y026465D01*
X039821Y026463D01*
X039845Y026462D01*
X039869Y026461D01*
X039892Y02646D01*
X039916Y026459D01*
X03994Y026459D01*
X03994Y026459D01*
X041332D01*
Y014226D01*
X03994D01*
X03994Y014226D01*
X039916Y014226D01*
X039892Y014225D01*
X039869Y014224D01*
X039845Y014223D01*
X039821Y014222D01*
X039797Y01422D01*
X039773Y014218D01*
X039749Y014216D01*
X039726Y014213D01*
X039702Y01421D01*
X039678Y014207D01*
X039655Y014204D01*
X039631Y0142D01*
X039607Y014196D01*
X039584Y014191D01*
X039561Y014187D01*
X039537Y014182D01*
X039514Y014176D01*
X039491Y014171D01*
X039468Y014165D01*
X039444Y014158D01*
X039422Y014152D01*
X039399Y014145D01*
X039376Y014138D01*
X039353Y014131D01*
X03933Y014123D01*
X039308Y014115D01*
X039286Y014107D01*
X039263Y014098D01*
X039241Y014089D01*
X039219Y01408D01*
X039197Y014071D01*
X039175Y014061D01*
X039153Y014051D01*
X039132Y014041D01*
X03911Y01403D01*
X039089Y014019D01*
X039068Y014008D01*
X039047Y013997D01*
X039026Y013985D01*
X039005Y013973D01*
X038985Y013961D01*
X038964Y013949D01*
X038944Y013936D01*
X038924Y013923D01*
X038904Y01391D01*
X038884Y013896D01*
X038865Y013883D01*
X038846Y013869D01*
X038826Y013854D01*
X038807Y01384D01*
X038788Y013825D01*
X03877Y01381D01*
X038751Y013795D01*
X038733Y01378D01*
X038715Y013764D01*
X038697Y013748D01*
X03868Y013732D01*
X038662Y013716D01*
X038645Y013699D01*
X038628Y013682D01*
X038611Y013665D01*
X038595Y013648D01*
X038578Y013631D01*
X038562Y013613D01*
X038546Y013595D01*
X038531Y013577D01*
X038515Y013559D01*
X0385Y01354D01*
X038485Y013522D01*
X03847Y013503D01*
X038456Y013484D01*
X038442Y013465D01*
X038428Y013445D01*
X038414Y013426D01*
X0384Y013406D01*
X038387Y013386D01*
X038374Y013366D01*
X038362Y013346D01*
X038349Y013325D01*
X038337Y013305D01*
X038325Y013284D01*
X038313Y013263D01*
X038302Y013242D01*
X038291Y013221D01*
X03828Y0132D01*
X03827Y013178D01*
X038259Y013157D01*
X038249Y013135D01*
X03824Y013113D01*
X03823Y013091D01*
X038221Y013069D01*
X038212Y013047D01*
X038204Y013025D01*
X038195Y013002D01*
X038187Y01298D01*
X03818Y012957D01*
X038172Y012934D01*
X038165Y012912D01*
X038158Y012889D01*
X038152Y012866D01*
X038146Y012843D01*
X03814Y01282D01*
X038134Y012796D01*
X038129Y012773D01*
X038124Y01275D01*
X038119Y012726D01*
X038114Y012703D01*
X03811Y012679D01*
X038107Y012656D01*
X038103Y012632D01*
X0381Y012608D01*
X038097Y012585D01*
X038094Y012561D01*
X038092Y012537D01*
X03809Y012513D01*
X038088Y012489D01*
X038087Y012466D01*
X038086Y012442D01*
X038085Y012418D01*
X038085Y012394D01*
X038084Y01237D01*
X038084Y01237D01*
Y011878D01*
X038084Y011877D01*
X038084Y011862D01*
X038084Y011846D01*
X038083Y011831D01*
X038082Y011815D01*
X038081Y011799D01*
X038079Y011784D01*
X038077Y011768D01*
X038075Y011753D01*
X038072Y011737D01*
X038069Y011722D01*
X038066Y011706D01*
X038062Y011691D01*
X038058Y011676D01*
X038054Y01166D01*
X03805Y011645D01*
X038045Y01163D01*
X03804Y011615D01*
X038035Y0116D01*
X038029Y011586D01*
X038023Y011571D01*
X038017Y011557D01*
X038011Y011542D01*
X038004Y011528D01*
X037997Y011514D01*
X03799Y0115D01*
X037982Y011486D01*
X037974Y011473D01*
X037966Y011459D01*
X037958Y011446D01*
X037949Y011433D01*
X03794Y01142D01*
X037931Y011407D01*
X037922Y011394D01*
X037912Y011382D01*
X037902Y011369D01*
X037892Y011357D01*
X037882Y011345D01*
X037871Y011334D01*
X037861Y011322D01*
X03785Y011311D01*
X037838Y0113D01*
X037827Y011289D01*
X037815Y011279D01*
X037803Y011268D01*
X037791Y011258D01*
X037779Y011248D01*
X037767Y011239D01*
X037754Y011229D01*
X037741Y01122D01*
X037728Y011211D01*
X037715Y011203D01*
X037702Y011194D01*
X037688Y011186D01*
X037674Y011178D01*
X037661Y011171D01*
X037647Y011164D01*
X037633Y011157D01*
X037618Y01115D01*
X037604Y011143D01*
X037589Y011137D01*
X037575Y011131D01*
X03756Y011126D01*
X037545Y01112D01*
X03753Y011115D01*
X037515Y011111D01*
X0375Y011106D01*
X037485Y011102D01*
X03747Y011098D01*
X037455Y011095D01*
X037439Y011092D01*
X037424Y011089D01*
X037408Y011086D01*
X037393Y011084D01*
X037377Y011082D01*
X037361Y01108D01*
X037346Y011079D01*
X03733Y011078D01*
X037314Y011077D01*
X037298Y011076D01*
X037284Y011076D01*
X037283Y011076D01*
X035458D01*
X035438Y011122D01*
X03624Y011924D01*
X036247Y011931D01*
X036254Y011938D01*
X03626Y011946D01*
X036266Y011953D01*
X036272Y011961D01*
X036277Y011969D01*
X036282Y011977D01*
X036288Y011985D01*
X036292Y011994D01*
X036297Y012002D01*
X036301Y012011D01*
X036305Y01202D01*
X036309Y012029D01*
X036312Y012038D01*
X036315Y012047D01*
X036318Y012056D01*
X036321Y012065D01*
X036323Y012075D01*
X036325Y012084D01*
X036327Y012094D01*
X036328Y012103D01*
X036329Y012113D01*
X03633Y012122D01*
X03633Y012132D01*
X03633Y012142D01*
Y015679D01*
X036662Y016011D01*
X037994D01*
X038004Y016012D01*
X038014Y016012D01*
X038023Y016013D01*
X038033Y016014D01*
X038043Y016015D01*
X038052Y016017D01*
X038061Y016019D01*
X038071Y016021D01*
X03808Y016024D01*
X038089Y016026D01*
X038099Y01603D01*
X038108Y016033D01*
X038117Y016037D01*
X038125Y016041D01*
X038134Y016045D01*
X038143Y016049D01*
X038151Y016054D01*
X038159Y016059D01*
X038167Y016065D01*
X038175Y01607D01*
X038183Y016076D01*
X03819Y016082D01*
X038198Y016088D01*
X038205Y016095D01*
X038212Y016101D01*
X03848Y01637D01*
X038487Y016377D01*
X038494Y016384D01*
X0385Y016391D01*
X038506Y016399D01*
X038512Y016407D01*
X038517Y016415D01*
X038523Y016423D01*
X038528Y016431D01*
X038532Y016439D01*
X038537Y016448D01*
X038541Y016457D01*
X038545Y016465D01*
X038549Y016474D01*
X038552Y016483D01*
X038555Y016492D01*
X038558Y016502D01*
X038561Y016511D01*
X038563Y01652D01*
X038565Y01653D01*
X038567Y016539D01*
X038568Y016549D01*
X038569Y016559D01*
X03857Y016568D01*
X03857Y016578D01*
X038571Y016587D01*
Y020626D01*
X039727D01*
X039828Y020622D01*
X039864Y020619D01*
X039871Y020618D01*
Y020539D01*
X04117D01*
Y021327D01*
X039871D01*
Y021248D01*
X039865Y021247D01*
X03978Y021241D01*
X039729Y021241D01*
X038571D01*
Y024636D01*
X038871Y024937D01*
X039727D01*
X039828Y024933D01*
X039864Y02493D01*
X039871Y024929D01*
Y02485D01*
X04117D01*
Y025638D01*
X039871D01*
Y025559D01*
X039865Y025558D01*
X03978Y025552D01*
X039729Y025552D01*
X038743D01*
X038734Y025551D01*
X038724Y025551D01*
X038714Y02555D01*
X038705Y025549D01*
X038695Y025548D01*
X038686Y025546D01*
X038676Y025544D01*
X038667Y025542D01*
X038658Y025539D01*
X038648Y025537D01*
X038639Y025533D01*
X03863Y02553D01*
X038621Y025526D01*
X038612Y025522D01*
X038604Y025518D01*
X038595Y025514D01*
X038587Y025509D01*
X038579Y025504D01*
X03857Y025498D01*
X038563Y025493D01*
X038555Y025487D01*
X038547Y025481D01*
X03854Y025475D01*
X038533Y025468D01*
X038526Y025462D01*
X038046Y024981D01*
X038039Y024974D01*
X038032Y024967D01*
X038026Y02496D01*
X03802Y024952D01*
X038014Y024945D01*
X038009Y024937D01*
X038003Y024929D01*
X037998Y02492D01*
X037994Y024912D01*
X037989Y024903D01*
X037985Y024895D01*
X037981Y024886D01*
X037977Y024877D01*
X037974Y024868D01*
X037971Y024859D01*
X037968Y02485D01*
X037965Y02484D01*
X037963Y024831D01*
X037961Y024821D01*
X037959Y024812D01*
X037958Y024802D01*
X037957Y024793D01*
X037956Y024783D01*
X037956Y024773D01*
X037955Y024764D01*
Y016715D01*
X037867Y016626D01*
X036535D01*
X036525Y016626D01*
X036516Y016626D01*
X036506Y016625D01*
X036497Y016624D01*
X036487Y016623D01*
X036477Y016621D01*
X036468Y016619D01*
X036459Y016617D01*
X036449Y016614D01*
X03644Y016611D01*
X036431Y016608D01*
X036422Y016605D01*
X036413Y016601D01*
X036404Y016597D01*
X036395Y016593D01*
X036387Y016588D01*
X036379Y016584D01*
X03637Y016579D01*
X036362Y016573D01*
X036354Y016568D01*
X036347Y016562D01*
X036339Y016556D01*
X036332Y01655D01*
X036325Y016543D01*
X036318Y016536D01*
X035805Y016024D01*
X035799Y016017D01*
X035792Y01601D01*
X035786Y016003D01*
X03578Y015995D01*
X035774Y015987D01*
X035768Y01598D01*
X035763Y015971D01*
X035758Y015963D01*
X035753Y015955D01*
X035749Y015946D01*
X035745Y015938D01*
X035741Y015929D01*
X035737Y01592D01*
X035733Y015911D01*
X03573Y015902D01*
X035728Y015892D01*
X035725Y015883D01*
X035723Y015874D01*
X035721Y015864D01*
X035719Y015855D01*
X035718Y015845D01*
X035717Y015836D01*
X035716Y015826D01*
X035715Y015816D01*
X035715Y015807D01*
Y012269D01*
X035033Y011587D01*
X025237D01*
X024748Y012076D01*
X024741Y012082D01*
X024734Y012089D01*
X024727Y012095D01*
X024719Y012101D01*
X024711Y012107D01*
X024704Y012113D01*
X024695Y012118D01*
X024687Y012123D01*
X024679Y012128D01*
X02467Y012132D01*
X024662Y012137D01*
X024653Y01214D01*
X024644Y012144D01*
X024635Y012148D01*
X024626Y012151D01*
X024616Y012154D01*
X024607Y012156D01*
X024598Y012158D01*
X024588Y01216D01*
X024579Y012162D01*
X024569Y012163D01*
X02456Y012164D01*
X02455Y012165D01*
X02454Y012166D01*
X024531Y012166D01*
X022283D01*
X022273Y012166D01*
X022263Y012165D01*
X022254Y012164D01*
X022244Y012163D01*
X022235Y012162D01*
X022225Y01216D01*
X022216Y012158D01*
X022206Y012156D01*
X022197Y012154D01*
X022188Y012151D01*
X022179Y012148D01*
X022169Y012144D01*
X022161Y01214D01*
X022152Y012137D01*
X022143Y012132D01*
X022135Y012128D01*
X022126Y012123D01*
X022118Y012118D01*
X02211Y012113D01*
X022102Y012107D01*
X022094Y012101D01*
X022087Y012095D01*
X022079Y012089D01*
X022072Y012082D01*
X022065Y012076D01*
X022059Y012069D01*
X022052Y012062D01*
X022046Y012054D01*
X02204Y012047D01*
X022034Y012039D01*
X022028Y012031D01*
X022023Y012023D01*
X022018Y012015D01*
X022013Y012006D01*
X022009Y011998D01*
X022004Y011989D01*
X022Y01198D01*
X021997Y011971D01*
X021993Y011962D01*
X02199Y011953D01*
X021987Y011944D01*
X021985Y011935D01*
X021983Y011925D01*
X021981Y011916D01*
X021979Y011906D01*
X021978Y011897D01*
X021977Y011887D01*
X021976Y011878D01*
X021975Y011868D01*
X021975Y011858D01*
X021975Y011849D01*
X021976Y011839D01*
X021977Y011829D01*
X021978Y01182D01*
X021979Y01181D01*
X021981Y011801D01*
X021983Y011791D01*
X021985Y011782D01*
X021987Y011772D01*
X02199Y011763D01*
X021993Y011754D01*
X021997Y011745D01*
X022Y011736D01*
X022004Y011727D01*
X022009Y011719D01*
X022013Y01171D01*
X022018Y011702D01*
X022023Y011693D01*
X022028Y011685D01*
X022034Y011678D01*
X02204Y01167D01*
X022046Y011662D01*
X022052Y011655D01*
X022059Y011648D01*
X022065Y011641D01*
X022072Y011634D01*
X022079Y011628D01*
X022087Y011621D01*
X022094Y011615D01*
X022102Y011609D01*
X02211Y011604D01*
X022118Y011599D01*
X022126Y011594D01*
X022135Y011589D01*
X022143Y011584D01*
X022152Y01158D01*
X022161Y011576D01*
X022169Y011572D01*
X022179Y011569D01*
X022188Y011566D01*
X022197Y011563D01*
X022206Y01156D01*
X022216Y011558D01*
X022225Y011556D01*
X022235Y011555D01*
X022244Y011553D01*
X022254Y011552D01*
X022263Y011551D01*
X022273Y011551D01*
X022283Y011551D01*
X024403D01*
X024832Y011122D01*
X024813Y011076D01*
X015334Y011076D01*
X015333Y011076D01*
X015318Y011076D01*
X015302Y011077D01*
X015287Y011078D01*
X015271Y011079D01*
X015255Y01108D01*
X01524Y011082D01*
X015224Y011084D01*
X015208Y011086D01*
X015193Y011089D01*
X015177Y011092D01*
X015162Y011095D01*
X015147Y011098D01*
X015131Y011102D01*
X015116Y011106D01*
X015101Y011111D01*
X015086Y011115D01*
X015071Y01112D01*
X015056Y011126D01*
X015042Y011131D01*
X015027Y011137D01*
X015013Y011143D01*
X014998Y01115D01*
X014984Y011157D01*
X01497Y011164D01*
X014956Y011171D01*
X014942Y011178D01*
X014928Y011186D01*
X014915Y011194D01*
X014902Y011203D01*
X014888Y011211D01*
X014875Y01122D01*
X014863Y011229D01*
X01485Y011239D01*
X014837Y011248D01*
X014825Y011258D01*
X014813Y011268D01*
X014801Y011279D01*
X01479Y011289D01*
X014778Y0113D01*
X014767Y011311D01*
X014756Y011322D01*
X014745Y011334D01*
X014735Y011345D01*
X014724Y011357D01*
X014714Y011369D01*
X014704Y011382D01*
X014695Y011394D01*
X014685Y011407D01*
X014676Y01142D01*
X014667Y011433D01*
X014659Y011446D01*
X01465Y011459D01*
X014642Y011473D01*
X014634Y011486D01*
X014627Y0115D01*
X014619Y011514D01*
X014612Y011528D01*
X014606Y011542D01*
X014599Y011557D01*
X014593Y011571D01*
X014587Y011586D01*
X014582Y0116D01*
X014576Y011615D01*
X014571Y01163D01*
X014567Y011645D01*
X014562Y01166D01*
X014558Y011676D01*
X014554Y011691D01*
X014551Y011706D01*
X014547Y011722D01*
X014545Y011737D01*
X014542Y011753D01*
X01454Y011768D01*
X014538Y011784D01*
X014536Y011799D01*
X014535Y011815D01*
X014534Y011829D01*
X014532Y011878D01*
X014532Y011927D01*
X014532Y011927D01*
Y013779D01*
X014582Y013797D01*
X014706Y013672D01*
X014868Y013565D01*
X015047Y013491D01*
X015237Y013453D01*
X015431D01*
X015621Y013491D01*
X0158Y013565D01*
X015961Y013672D01*
X016098Y01381D01*
X016206Y013971D01*
X01628Y01415D01*
X016318Y01434D01*
X016367Y014337D01*
X016367Y014336D01*
X016369Y014323D01*
X016372Y014311D01*
X016375Y014298D01*
X016378Y014286D01*
X016382Y014274D01*
X016386Y014262D01*
X01639Y01425D01*
X016395Y014238D01*
X016399Y014226D01*
X016404Y014214D01*
X01641Y014203D01*
X016415Y014191D01*
X016421Y01418D01*
X016427Y014169D01*
X016433Y014158D01*
X01644Y014147D01*
X016447Y014136D01*
X016454Y014125D01*
X016461Y014115D01*
X016469Y014105D01*
X016477Y014095D01*
X016485Y014085D01*
X016493Y014075D01*
X016501Y014066D01*
X01651Y014056D01*
X016519Y014047D01*
X016528Y014038D01*
X016537Y01403D01*
X016547Y014021D01*
X016557Y014013D01*
X016566Y014005D01*
X016576Y013997D01*
X016587Y01399D01*
X016597Y013982D01*
X016608Y013975D01*
X016618Y013968D01*
X016629Y013962D01*
X01664Y013955D01*
X016652Y013949D01*
X016663Y013944D01*
X016674Y013938D01*
X016686Y013933D01*
X016698Y013928D01*
X01671Y013923D01*
X016721Y013919D01*
X016733Y013914D01*
X016746Y01391D01*
X016758Y013907D01*
X01677Y013903D01*
X016782Y0139D01*
X016795Y013898D01*
X016807Y013895D01*
X01682Y013893D01*
X016833Y013891D01*
X016845Y013889D01*
X016858Y013888D01*
X01687Y013887D01*
X016883Y013886D01*
X016896Y013886D01*
X016909Y013886D01*
X01809D01*
X018103Y013886D01*
X018115Y013886D01*
X018128Y013887D01*
X018141Y013888D01*
X018153Y013889D01*
X018166Y013891D01*
X018179Y013893D01*
X018191Y013895D01*
X018204Y013898D01*
X018216Y0139D01*
X018228Y013903D01*
X018241Y013907D01*
X018253Y01391D01*
X018265Y013914D01*
X018277Y013919D01*
X018289Y013923D01*
X018301Y013928D01*
X018312Y013933D01*
X018324Y013938D01*
X018335Y013944D01*
X018347Y013949D01*
X018358Y013955D01*
X018369Y013962D01*
X01838Y013968D01*
X018391Y013975D01*
X018401Y013982D01*
X018412Y01399D01*
X018422Y013997D01*
X018432Y014005D01*
X018442Y014013D01*
X018452Y014021D01*
X018461Y01403D01*
X01847Y014038D01*
X01848Y014047D01*
X018488Y014056D01*
X018497Y014066D01*
X018506Y014075D01*
X018514Y014085D01*
X018522Y014095D01*
X01853Y014105D01*
X018537Y014115D01*
X018545Y014125D01*
X018552Y014136D01*
X018558Y014147D01*
X018565Y014158D01*
X018571Y014169D01*
X018577Y01418D01*
X018583Y014191D01*
X018589Y014203D01*
X018594Y014214D01*
X018599Y014226D01*
X018604Y014238D01*
X018608Y01425D01*
X018612Y014262D01*
X018616Y014274D01*
X01862Y014286D01*
X018623Y014298D01*
X018626Y014311D01*
X018629Y014323D01*
X018632Y014336D01*
X018634Y014348D01*
X018636Y014361D01*
X018637Y014373D01*
X018639Y014386D01*
X01864Y014399D01*
X01864Y014412D01*
X018641Y014424D01*
X018641Y014437D01*
X018641Y01445D01*
X01864Y014462D01*
X01864Y014475D01*
X018639Y014488D01*
X018637Y014501D01*
X018636Y014513D01*
X018634Y014526D01*
X018632Y014538D01*
X018629Y014551D01*
X018626Y014563D01*
X018623Y014576D01*
X01862Y014588D01*
X018616Y0146D01*
X018612Y014612D01*
X018608Y014624D01*
X018604Y014636D01*
X018599Y014648D01*
X018594Y01466D01*
X018589Y014671D01*
X018583Y014683D01*
X018577Y014694D01*
X018571Y014705D01*
X018565Y014716D01*
X018558Y014727D01*
X018552Y014738D01*
X018545Y014749D01*
X018537Y014759D01*
X01853Y014769D01*
X018522Y014779D01*
X018514Y014789D01*
X018506Y014799D01*
X018497Y014808D01*
X018488Y014818D01*
X01848Y014827D01*
X01847Y014836D01*
X018461Y014844D01*
X018452Y014853D01*
X018442Y014861D01*
X018432Y014869D01*
X018422Y014877D01*
X018412Y014884D01*
X018401Y014892D01*
X018391Y014899D01*
X01838Y014906D01*
X018369Y014912D01*
X018358Y014919D01*
X018347Y014925D01*
X018335Y01493D01*
X018324Y014936D01*
X018312Y014941D01*
X018301Y014946D01*
X018289Y014951D01*
X018277Y014955D01*
X018265Y01496D01*
X018253Y014964D01*
X018241Y014967D01*
X018228Y014971D01*
X018216Y014974D01*
X018204Y014976D01*
X018191Y014979D01*
X018179Y014981D01*
X018166Y014983D01*
X018153Y014985D01*
X018141Y014986D01*
X018128Y014987D01*
X018115Y014988D01*
X018103Y014988D01*
X01809Y014988D01*
X016909D01*
X016896Y014988D01*
X016883Y014988D01*
X01687Y014987D01*
X016858Y014986D01*
X016845Y014985D01*
X016833Y014983D01*
X01682Y014981D01*
X016807Y014979D01*
X016795Y014976D01*
X016782Y014974D01*
X01677Y014971D01*
X016758Y014967D01*
X016746Y014964D01*
X016733Y01496D01*
X016721Y014955D01*
X01671Y014951D01*
X016698Y014946D01*
X016686Y014941D01*
X016674Y014936D01*
X016663Y01493D01*
X016652Y014925D01*
X01664Y014919D01*
X016629Y014912D01*
X016618Y014906D01*
X016608Y014899D01*
X016597Y014892D01*
X016587Y014884D01*
X016576Y014877D01*
X016566Y014869D01*
X016557Y014861D01*
X016547Y014853D01*
X016537Y014844D01*
X016528Y014836D01*
X016519Y014827D01*
X01651Y014818D01*
X016501Y014808D01*
X016493Y014799D01*
X016485Y014789D01*
X016477Y014779D01*
X016469Y014769D01*
X016461Y014759D01*
X016454Y014749D01*
X016447Y014738D01*
X01644Y014727D01*
X016433Y014716D01*
X016427Y014705D01*
X016421Y014694D01*
X016415Y014683D01*
X01641Y014671D01*
X016404Y01466D01*
X016399Y014648D01*
X016395Y014636D01*
X01639Y014624D01*
X016386Y014612D01*
X016382Y0146D01*
X016378Y014588D01*
X016375Y014576D01*
X016372Y014563D01*
X016369Y014551D01*
X016367Y014538D01*
X016367Y014537D01*
X016318Y014534D01*
X01628Y014724D01*
X016206Y014903D01*
X016098Y015064D01*
X015961Y015202D01*
X0158Y015309D01*
X015621Y015383D01*
X015431Y015421D01*
X015237D01*
X015047Y015383D01*
X014868Y015309D01*
X014706Y015202D01*
X014582Y015077D01*
X014532Y015095D01*
X014532Y02559D01*
X014582Y025608D01*
X014706Y025484D01*
X014868Y025376D01*
X015047Y025302D01*
X015237Y025264D01*
X015431D01*
X015621Y025302D01*
X0158Y025376D01*
X015961Y025484D01*
X016098Y025621D01*
X016206Y025782D01*
X01628Y025961D01*
X016318Y026151D01*
Y026345D01*
X01628Y026535D01*
X016206Y026714D01*
X016098Y026875D01*
X015961Y027013D01*
X0158Y02712D01*
X015621Y027194D01*
X015431Y027232D01*
X015237D01*
X015047Y027194D01*
X014868Y02712D01*
X014706Y027013D01*
X014582Y026888D01*
X014532Y026906D01*
Y028807D01*
X014532Y028808D01*
X014532Y028823D01*
X014533Y028839D01*
X014533Y028854D01*
X014535Y02887D01*
X014536Y028886D01*
X014538Y028901D01*
X01454Y028917D01*
X014542Y028933D01*
X014545Y028948D01*
X014547Y028963D01*
X014551Y028979D01*
X014554Y028994D01*
X014558Y02901D01*
X014562Y029025D01*
X014567Y02904D01*
X014571Y029055D01*
X014576Y02907D01*
X014582Y029085D01*
X014587Y029099D01*
X014593Y029114D01*
X014599Y029128D01*
X014606Y029143D01*
X014612Y029157D01*
X014619Y029171D01*
X014627Y029185D01*
X014634Y029199D01*
X014642Y029213D01*
X01465Y029226D01*
X014659Y029239D01*
X014667Y029253D01*
X014676Y029266D01*
X014685Y029278D01*
X014695Y029291D01*
X014704Y029303D01*
X014714Y029316D01*
X014724Y029328D01*
X014735Y02934D01*
X014745Y029351D01*
X014756Y029363D01*
X014767Y029374D01*
X014778Y029385D01*
X01479Y029396D01*
X014801Y029406D01*
X014813Y029417D01*
X014825Y029427D01*
X014837Y029437D01*
X01485Y029446D01*
X014863Y029456D01*
X014875Y029465D01*
X014888Y029474D01*
X014902Y029482D01*
X014915Y029491D01*
X014928Y029499D01*
X014942Y029507D01*
X014956Y029514D01*
X01497Y029521D01*
X014984Y029528D01*
X014998Y029535D01*
X015013Y029542D01*
X015027Y029548D01*
X015042Y029554D01*
X015056Y029559D01*
X015071Y029565D01*
X015086Y02957D01*
X015101Y029574D01*
X015116Y029579D01*
X015131Y029583D01*
X015147Y029587D01*
X015162Y02959D01*
X015177Y029593D01*
X015193Y029596D01*
X015208Y029599D01*
X015224Y029601D01*
X01524Y029603D01*
X015255Y029605D01*
X015271Y029606D01*
X015284Y029607D01*
X015334Y029609D01*
X015383Y029609D01*
X037283Y029609D01*
X037284Y029609D01*
X037298Y029609D01*
D02*
G37*
G36*
X04003Y025009D02*
X040027Y025025D01*
X040018Y02504D01*
X040003Y025052D01*
X039982Y025063D01*
X039955Y025073D01*
X039922Y02508D01*
X039883Y025086D01*
X039838Y025091D01*
X03973Y025094D01*
Y025394D01*
X039787Y025395D01*
X039883Y025402D01*
X039922Y025408D01*
X039955Y025415D01*
X039982Y025425D01*
X040003Y025436D01*
X040018Y025449D01*
X040027Y025463D01*
X04003Y025479D01*
Y025009D01*
D02*
G37*
G36*
Y020698D02*
X040027Y020714D01*
X040018Y020729D01*
X040003Y020741D01*
X039982Y020752D01*
X039955Y020762D01*
X039922Y020769D01*
X039883Y020775D01*
X039838Y02078D01*
X03973Y020783D01*
Y021083D01*
X039787Y021084D01*
X039883Y021091D01*
X039922Y021097D01*
X039955Y021104D01*
X039982Y021114D01*
X040003Y021125D01*
X040018Y021137D01*
X040027Y021152D01*
X04003Y021168D01*
Y020698D01*
D02*
G37*
%LPC*%
G36*
X032519Y02661D02*
X031613D01*
Y025705D01*
X032519D01*
Y02661D01*
D02*
G37*
G36*
X030157D02*
X029251D01*
Y025705D01*
X030157D01*
Y02661D01*
D02*
G37*
G36*
X027007D02*
X026102D01*
Y025705D01*
X027007D01*
Y02661D01*
D02*
G37*
G36*
X024645D02*
X023739D01*
Y025705D01*
X024645D01*
Y02661D01*
D02*
G37*
G36*
X021102D02*
X020196D01*
Y025705D01*
X021102D01*
Y02661D01*
D02*
G37*
G36*
X037478Y027232D02*
X037284D01*
X037094Y027194D01*
X036915Y02712D01*
X036754Y027013D01*
X036617Y026875D01*
X036509Y026714D01*
X036435Y026535D01*
X036397Y026345D01*
Y026151D01*
X036435Y025961D01*
X036509Y025782D01*
X036617Y025621D01*
X036754Y025484D01*
X036915Y025376D01*
X037094Y025302D01*
X037284Y025264D01*
X037478D01*
X037668Y025302D01*
X037847Y025376D01*
X038009Y025484D01*
X038146Y025621D01*
X038253Y025782D01*
X038328Y025961D01*
X038365Y026151D01*
Y026345D01*
X038328Y026535D01*
X038253Y026714D01*
X038146Y026875D01*
X038009Y027013D01*
X037847Y02712D01*
X037668Y027194D01*
X037478Y027232D01*
D02*
G37*
G36*
X033271Y025488D02*
X033262Y025488D01*
X033253Y025488D01*
X033245Y025487D01*
X033236Y025486D01*
X033227Y025484D01*
X033219Y025483D01*
X03321Y025481D01*
X033202Y025479D01*
X033193Y025476D01*
X033185Y025473D01*
X033177Y02547D01*
X033169Y025467D01*
X033161Y025463D01*
X033153Y02546D01*
X033145Y025455D01*
X033138Y025451D01*
X03313Y025446D01*
X033123Y025441D01*
X033116Y025436D01*
X033109Y025431D01*
X033103Y025425D01*
X033096Y025419D01*
X03309Y025413D01*
X033084Y025407D01*
X033078Y0254D01*
X033072Y025394D01*
X033067Y025387D01*
X033062Y02538D01*
X033057Y025373D01*
X033052Y025365D01*
X033048Y025358D01*
X033044Y02535D01*
X03304Y025342D01*
X033036Y025334D01*
X033033Y025326D01*
X03303Y025318D01*
X033027Y02531D01*
X033024Y025301D01*
X033022Y025293D01*
X03302Y025284D01*
X033019Y025276D01*
X033017Y025267D01*
X033016Y025258D01*
X033016Y02525D01*
X033015Y025241D01*
X033015Y025232D01*
X033015Y025224D01*
X033016Y025215D01*
X033016Y025206D01*
X033017Y025197D01*
X033019Y025189D01*
X03302Y02518D01*
X033022Y025172D01*
X033024Y025163D01*
X033027Y025155D01*
X03303Y025147D01*
X033033Y025138D01*
X033036Y02513D01*
X03304Y025122D01*
X033044Y025115D01*
X033048Y025107D01*
X033052Y025099D01*
X033057Y025092D01*
X033062Y025085D01*
X033067Y025078D01*
X033069Y025074D01*
Y024431D01*
X033021Y024419D01*
X033019Y024426D01*
X033016Y024434D01*
X033013Y024441D01*
X03301Y024448D01*
X033007Y024455D01*
X033003Y024462D01*
X032999Y024468D01*
X032995Y024475D01*
X032991Y024481D01*
X032986Y024487D01*
X032981Y024493D01*
X032976Y024499D01*
X032971Y024505D01*
X032761Y024714D01*
X032755Y02472D01*
X03275Y024725D01*
X032744Y02473D01*
X032737Y024735D01*
X032731Y024739D01*
X032724Y024743D01*
X032718Y024747D01*
X032711Y024751D01*
X032704Y024754D01*
X032697Y024757D01*
X03269Y02476D01*
X032682Y024763D01*
X032675Y024765D01*
X032667Y024767D01*
X03266Y024769D01*
X032652Y02477D01*
X032644Y024771D01*
X032637Y024772D01*
X032629Y024772D01*
X032621Y024772D01*
X031132D01*
X031083Y024822D01*
Y025042D01*
X031084Y025043D01*
X031089Y02505D01*
X031094Y025057D01*
X031099Y025064D01*
X031104Y025072D01*
X031108Y025079D01*
X031112Y025087D01*
X031116Y025095D01*
X03112Y025103D01*
X031123Y025111D01*
X031126Y025119D01*
X031129Y025127D01*
X031131Y025136D01*
X031134Y025144D01*
X031136Y025153D01*
X031137Y025161D01*
X031139Y02517D01*
X03114Y025179D01*
X03114Y025187D01*
X031141Y025196D01*
X031141Y025205D01*
X031141Y025213D01*
X03114Y025222D01*
X03114Y025231D01*
X031139Y02524D01*
X031137Y025248D01*
X031136Y025257D01*
X031134Y025265D01*
X031131Y025274D01*
X031129Y025282D01*
X031126Y02529D01*
X031123Y025299D01*
X03112Y025307D01*
X031116Y025315D01*
X031112Y025322D01*
X031108Y02533D01*
X031104Y025338D01*
X031099Y025345D01*
X031094Y025352D01*
X031089Y025359D01*
X031084Y025366D01*
X031078Y025373D01*
X031072Y025379D01*
X031066Y025386D01*
X03106Y025392D01*
X031053Y025398D01*
X031047Y025403D01*
X03104Y025409D01*
X031033Y025414D01*
X031025Y025419D01*
X031018Y025423D01*
X03101Y025428D01*
X031003Y025432D01*
X030995Y025436D01*
X030987Y025439D01*
X030979Y025443D01*
X030971Y025446D01*
X030962Y025449D01*
X030954Y025451D01*
X030946Y025453D01*
X030937Y025455D01*
X030929Y025457D01*
X03092Y025458D01*
X030911Y025459D01*
X030903Y02546D01*
X030894Y025461D01*
X030885Y025461D01*
X030876Y025461D01*
X030868Y02546D01*
X030859Y025459D01*
X03085Y025458D01*
X030842Y025457D01*
X030833Y025455D01*
X030824Y025453D01*
X030816Y025451D01*
X030808Y025449D01*
X030799Y025446D01*
X030791Y025443D01*
X030783Y025439D01*
X030775Y025436D01*
X030767Y025432D01*
X03076Y025428D01*
X030752Y025423D01*
X030745Y025419D01*
X030737Y025414D01*
X03073Y025409D01*
X030724Y025403D01*
X030717Y025398D01*
X03071Y025392D01*
X030704Y025386D01*
X030698Y025379D01*
X030692Y025373D01*
X030687Y025366D01*
X030681Y025359D01*
X030676Y025352D01*
X030671Y025345D01*
X030666Y025338D01*
X030662Y02533D01*
X030658Y025322D01*
X030654Y025315D01*
X03065Y025307D01*
X030647Y025299D01*
X030644Y02529D01*
X030641Y025282D01*
X030639Y025274D01*
X030636Y025265D01*
X030634Y025257D01*
X030633Y025248D01*
X030631Y02524D01*
X03063Y025231D01*
X03063Y025222D01*
X030629Y025213D01*
X030629Y025205D01*
X030629Y025196D01*
X03063Y025187D01*
X03063Y025179D01*
X030631Y02517D01*
X030633Y025161D01*
X030634Y025153D01*
X030636Y025144D01*
X030639Y025136D01*
X030641Y025127D01*
X030644Y025119D01*
X030647Y025111D01*
X03065Y025103D01*
X030654Y025095D01*
X030658Y025087D01*
X030662Y025079D01*
X030666Y025072D01*
X030671Y025064D01*
X030676Y025057D01*
X030681Y02505D01*
X030687Y025043D01*
X030688Y025042D01*
Y02474D01*
X030688Y024732D01*
X030688Y024725D01*
X030689Y024717D01*
X03069Y024709D01*
X030691Y024702D01*
X030693Y024694D01*
X030695Y024687D01*
X030697Y024679D01*
X0307Y024672D01*
X030703Y024665D01*
X030706Y024657D01*
X030709Y02465D01*
X030713Y024644D01*
X030717Y024637D01*
X030721Y02463D01*
X030725Y024624D01*
X030727Y024622D01*
X030723Y0246D01*
X03072Y024591D01*
X030709Y024576D01*
X030704Y024572D01*
X027987D01*
X027929Y024629D01*
Y02507D01*
X02793Y025071D01*
X027935Y025078D01*
X027941Y025085D01*
X027946Y025092D01*
X02795Y025099D01*
X027955Y025107D01*
X027959Y025115D01*
X027963Y025122D01*
X027966Y02513D01*
X02797Y025138D01*
X027973Y025147D01*
X027975Y025155D01*
X027978Y025163D01*
X02798Y025172D01*
X027982Y02518D01*
X027984Y025189D01*
X027985Y025197D01*
X027986Y025206D01*
X027987Y025215D01*
X027987Y025224D01*
X027987Y025232D01*
X027987Y025241D01*
X027987Y02525D01*
X027986Y025258D01*
X027985Y025267D01*
X027984Y025276D01*
X027982Y025284D01*
X02798Y025293D01*
X027978Y025301D01*
X027975Y02531D01*
X027973Y025318D01*
X02797Y025326D01*
X027966Y025334D01*
X027963Y025342D01*
X027959Y02535D01*
X027955Y025358D01*
X02795Y025365D01*
X027946Y025373D01*
X027941Y02538D01*
X027935Y025387D01*
X02793Y025394D01*
X027924Y0254D01*
X027919Y025407D01*
X027912Y025413D01*
X027906Y025419D01*
X0279Y025425D01*
X027893Y025431D01*
X027886Y025436D01*
X027879Y025441D01*
X027872Y025446D01*
X027864Y025451D01*
X027857Y025455D01*
X027849Y02546D01*
X027841Y025463D01*
X027833Y025467D01*
X027825Y02547D01*
X027817Y025473D01*
X027809Y025476D01*
X027801Y025479D01*
X027792Y025481D01*
X027784Y025483D01*
X027775Y025484D01*
X027766Y025486D01*
X027758Y025487D01*
X027749Y025488D01*
X02774Y025488D01*
X027731Y025488D01*
X027723Y025488D01*
X027714Y025488D01*
X027705Y025487D01*
X027697Y025486D01*
X027688Y025484D01*
X027679Y025483D01*
X027671Y025481D01*
X027662Y025479D01*
X027654Y025476D01*
X027646Y025473D01*
X027638Y02547D01*
X02763Y025467D01*
X027622Y025463D01*
X027614Y02546D01*
X027606Y025455D01*
X027599Y025451D01*
X027591Y025446D01*
X027584Y025441D01*
X027577Y025436D01*
X02757Y025431D01*
X027563Y025425D01*
X027557Y025419D01*
X027551Y025413D01*
X027544Y025407D01*
X027539Y0254D01*
X027533Y025394D01*
X027528Y025387D01*
X027522Y02538D01*
X027517Y025373D01*
X027513Y025365D01*
X027508Y025358D01*
X027504Y02535D01*
X0275Y025342D01*
X027497Y025334D01*
X027493Y025326D01*
X02749Y025318D01*
X027488Y02531D01*
X027485Y025301D01*
X027483Y025293D01*
X027481Y025284D01*
X027479Y025276D01*
X027478Y025267D01*
X027477Y025258D01*
X027476Y02525D01*
X027476Y025241D01*
X027476Y025232D01*
X027476Y025224D01*
X027476Y025215D01*
X027477Y025206D01*
X027478Y025197D01*
X027479Y025189D01*
X027481Y02518D01*
X027483Y025172D01*
X027485Y025163D01*
X027488Y025155D01*
X02749Y025147D01*
X027493Y025138D01*
X027497Y02513D01*
X0275Y025122D01*
X027504Y025115D01*
X027508Y025107D01*
X027513Y025099D01*
X027517Y025092D01*
X027522Y025085D01*
X027528Y025078D01*
X027533Y025071D01*
X027534Y02507D01*
Y024547D01*
X027534Y024539D01*
X027535Y024532D01*
X027535Y024524D01*
X027536Y024516D01*
X027538Y024509D01*
X027539Y024501D01*
X027541Y024494D01*
X027544Y024486D01*
X027546Y024479D01*
X027549Y024472D01*
X027552Y024465D01*
X027556Y024458D01*
X027559Y024451D01*
X027563Y024444D01*
X027567Y024438D01*
X027572Y024431D01*
X027576Y024425D01*
X027581Y024419D01*
X027583Y024417D01*
X02758Y024396D01*
X02757Y024367D01*
X025636D01*
X025571Y024432D01*
Y025058D01*
X025572Y025059D01*
X025577Y025066D01*
X025582Y025073D01*
X025587Y02508D01*
X025592Y025087D01*
X025596Y025095D01*
X0256Y025103D01*
X025604Y025111D01*
X025608Y025119D01*
X025611Y025127D01*
X025614Y025135D01*
X025617Y025143D01*
X02562Y025151D01*
X025622Y02516D01*
X025624Y025168D01*
X025625Y025177D01*
X025627Y025186D01*
X025628Y025194D01*
X025629Y025203D01*
X025629Y025212D01*
X025629Y02522D01*
X025629Y025229D01*
X025629Y025238D01*
X025628Y025247D01*
X025627Y025255D01*
X025625Y025264D01*
X025624Y025273D01*
X025622Y025281D01*
X02562Y02529D01*
X025617Y025298D01*
X025614Y025306D01*
X025611Y025314D01*
X025608Y025322D01*
X025604Y02533D01*
X0256Y025338D01*
X025596Y025346D01*
X025592Y025353D01*
X025587Y025361D01*
X025582Y025368D01*
X025577Y025375D01*
X025572Y025382D01*
X025566Y025389D01*
X02556Y025395D01*
X025554Y025401D01*
X025548Y025408D01*
X025541Y025413D01*
X025535Y025419D01*
X025528Y025424D01*
X025521Y02543D01*
X025514Y025434D01*
X025506Y025439D01*
X025499Y025444D01*
X025491Y025448D01*
X025483Y025452D01*
X025475Y025455D01*
X025467Y025459D01*
X025459Y025462D01*
X025451Y025464D01*
X025442Y025467D01*
X025434Y025469D01*
X025425Y025471D01*
X025417Y025473D01*
X025408Y025474D01*
X025399Y025475D01*
X025391Y025476D01*
X025382Y025476D01*
X025373Y025476D01*
X025364Y025476D01*
X025356Y025476D01*
X025347Y025475D01*
X025338Y025474D01*
X02533Y025473D01*
X025321Y025471D01*
X025313Y025469D01*
X025304Y025467D01*
X025296Y025464D01*
X025288Y025462D01*
X025279Y025459D01*
X025271Y025455D01*
X025263Y025452D01*
X025255Y025448D01*
X025248Y025444D01*
X02524Y025439D01*
X025233Y025434D01*
X025226Y02543D01*
X025219Y025424D01*
X025212Y025419D01*
X025205Y025413D01*
X025199Y025408D01*
X025192Y025401D01*
X025186Y025395D01*
X02518Y025389D01*
X025175Y025382D01*
X025169Y025375D01*
X025164Y025368D01*
X025159Y025361D01*
X025155Y025353D01*
X02515Y025346D01*
X025146Y025338D01*
X025142Y02533D01*
X025138Y025322D01*
X025135Y025314D01*
X025132Y025306D01*
X025129Y025298D01*
X025127Y02529D01*
X025125Y025281D01*
X025123Y025273D01*
X025121Y025264D01*
X02512Y025255D01*
X025119Y025247D01*
X025118Y025238D01*
X025117Y025229D01*
X025117Y02522D01*
X025117Y025212D01*
X025118Y025203D01*
X025119Y025194D01*
X02512Y025186D01*
X025121Y025177D01*
X025123Y025168D01*
X025125Y02516D01*
X025127Y025151D01*
X025129Y025143D01*
X025132Y025135D01*
X025135Y025127D01*
X025138Y025119D01*
X025142Y025111D01*
X025146Y025103D01*
X02515Y025095D01*
X025155Y025087D01*
X025159Y02508D01*
X025164Y025073D01*
X025169Y025066D01*
X025175Y025059D01*
X025176Y025058D01*
Y02435D01*
X025176Y024343D01*
X025176Y024335D01*
X025177Y024327D01*
X025178Y02432D01*
X02518Y024312D01*
X025181Y024304D01*
X025183Y024297D01*
X025185Y024289D01*
X025188Y024282D01*
X025191Y024275D01*
X025194Y024268D01*
X025197Y024261D01*
X025201Y024254D01*
X025205Y024247D01*
X025209Y024241D01*
X025213Y024234D01*
X025218Y024228D01*
X025223Y024222D01*
X025228Y024216D01*
X025228Y024216D01*
X025224Y024187D01*
X025215Y024166D01*
X022138D01*
X022035Y024269D01*
Y025046D01*
X022036Y025047D01*
X022042Y025054D01*
X022047Y025061D01*
X022052Y025068D01*
X022056Y025076D01*
X022061Y025083D01*
X022065Y025091D01*
X022069Y025099D01*
X022073Y025107D01*
X022076Y025115D01*
X022079Y025123D01*
X022082Y025131D01*
X022084Y02514D01*
X022086Y025148D01*
X022088Y025157D01*
X02209Y025165D01*
X022091Y025174D01*
X022092Y025182D01*
X022093Y025191D01*
X022094Y0252D01*
X022094Y025209D01*
X022094Y025217D01*
X022093Y025226D01*
X022092Y025235D01*
X022091Y025244D01*
X02209Y025252D01*
X022088Y025261D01*
X022086Y025269D01*
X022084Y025278D01*
X022082Y025286D01*
X022079Y025294D01*
X022076Y025303D01*
X022073Y025311D01*
X022069Y025319D01*
X022065Y025326D01*
X022061Y025334D01*
X022056Y025342D01*
X022052Y025349D01*
X022047Y025356D01*
X022042Y025363D01*
X022036Y02537D01*
X022031Y025377D01*
X022025Y025383D01*
X022019Y02539D01*
X022012Y025396D01*
X022006Y025402D01*
X021999Y025407D01*
X021992Y025413D01*
X021985Y025418D01*
X021978Y025423D01*
X021971Y025427D01*
X021963Y025432D01*
X021956Y025436D01*
X021948Y02544D01*
X02194Y025443D01*
X021932Y025447D01*
X021924Y02545D01*
X021915Y025453D01*
X021907Y025455D01*
X021898Y025457D01*
X02189Y025459D01*
X021881Y025461D01*
X021873Y025462D01*
X021864Y025463D01*
X021855Y025464D01*
X021847Y025464D01*
X021838Y025465D01*
X021829Y025464D01*
X02182Y025464D01*
X021812Y025463D01*
X021803Y025462D01*
X021794Y025461D01*
X021786Y025459D01*
X021777Y025457D01*
X021769Y025455D01*
X02176Y025453D01*
X021752Y02545D01*
X021744Y025447D01*
X021736Y025443D01*
X021728Y02544D01*
X02172Y025436D01*
X021712Y025432D01*
X021705Y025427D01*
X021697Y025423D01*
X02169Y025418D01*
X021683Y025413D01*
X021676Y025407D01*
X02167Y025402D01*
X021663Y025396D01*
X021657Y02539D01*
X021651Y025383D01*
X021645Y025377D01*
X021639Y02537D01*
X021634Y025363D01*
X021629Y025356D01*
X021624Y025349D01*
X021619Y025342D01*
X021615Y025334D01*
X021611Y025326D01*
X021607Y025319D01*
X021603Y025311D01*
X0216Y025303D01*
X021597Y025294D01*
X021594Y025286D01*
X021591Y025278D01*
X021589Y025269D01*
X021587Y025261D01*
X021586Y025252D01*
X021584Y025244D01*
X021583Y025235D01*
X021582Y025226D01*
X021582Y025217D01*
X021582Y025209D01*
X021582Y0252D01*
X021582Y025191D01*
X021583Y025182D01*
X021584Y025174D01*
X021586Y025165D01*
X021587Y025157D01*
X021589Y025148D01*
X021591Y02514D01*
X021594Y025131D01*
X021597Y025123D01*
X0216Y025115D01*
X021603Y025107D01*
X021607Y025099D01*
X021611Y025091D01*
X021615Y025083D01*
X021619Y025076D01*
X021624Y025068D01*
X021629Y025061D01*
X021634Y025054D01*
X021639Y025047D01*
X02164Y025046D01*
Y024187D01*
X02164Y024179D01*
X021641Y024172D01*
X021642Y024164D01*
X021643Y024156D01*
X021644Y024149D01*
X021646Y024141D01*
X021648Y024134D01*
X02165Y024126D01*
X021652Y024119D01*
X021655Y024112D01*
X021658Y024104D01*
X021662Y024097D01*
X021665Y024091D01*
X021669Y024084D01*
X021674Y024077D01*
X021678Y024071D01*
X021683Y024065D01*
X021688Y024059D01*
X021693Y024053D01*
X021698Y024047D01*
X021917Y023829D01*
X021922Y023823D01*
X021928Y023818D01*
X021934Y023813D01*
X02194Y023809D01*
X021947Y023804D01*
X021953Y0238D01*
X02196Y023796D01*
X021967Y023793D01*
X021974Y023789D01*
X021981Y023786D01*
X021988Y023783D01*
X021995Y023781D01*
X022003Y023778D01*
X02201Y023776D01*
X022018Y023775D01*
X022026Y023773D01*
X022033Y023772D01*
X022041Y023772D01*
X022049Y023771D01*
X022056Y023771D01*
X03128D01*
X031325Y023725D01*
Y02221D01*
X031324Y022209D01*
X031319Y022202D01*
X031314Y022195D01*
X031309Y022188D01*
X031304Y02218D01*
X0313Y022173D01*
X031296Y022165D01*
X031292Y022157D01*
X031288Y022149D01*
X031285Y022141D01*
X031282Y022133D01*
X031279Y022125D01*
X031276Y022116D01*
X031274Y022108D01*
X031272Y022099D01*
X031271Y022091D01*
X031269Y022082D01*
X031268Y022073D01*
X031267Y022065D01*
X031267Y022056D01*
X031267Y022047D01*
X031267Y022039D01*
X031267Y02203D01*
X031268Y022021D01*
X031269Y022012D01*
X031271Y022004D01*
X031272Y021995D01*
X031274Y021987D01*
X031276Y021978D01*
X031279Y02197D01*
X031282Y021962D01*
X031285Y021953D01*
X031288Y021945D01*
X031292Y021937D01*
X031296Y021929D01*
X0313Y021922D01*
X031304Y021914D01*
X031309Y021907D01*
X031314Y0219D01*
X031319Y021893D01*
X031324Y021886D01*
X03133Y021879D01*
X031336Y021873D01*
X031342Y021866D01*
X031348Y02186D01*
X031355Y021854D01*
X031361Y021849D01*
X031368Y021843D01*
X031375Y021838D01*
X031382Y021833D01*
X03139Y021829D01*
X031397Y021824D01*
X031405Y02182D01*
X031413Y021816D01*
X031421Y021812D01*
X031429Y021809D01*
X031437Y021806D01*
X031445Y021803D01*
X031454Y021801D01*
X031462Y021799D01*
X031471Y021797D01*
X031479Y021795D01*
X031488Y021794D01*
X031497Y021793D01*
X031505Y021792D01*
X031514Y021791D01*
X031523Y021791D01*
X031532Y021791D01*
X03154Y021792D01*
X031549Y021793D01*
X031558Y021794D01*
X031566Y021795D01*
X031575Y021797D01*
X031583Y021799D01*
X031592Y021801D01*
X0316Y021803D01*
X031609Y021806D01*
X031617Y021809D01*
X031625Y021812D01*
X031633Y021816D01*
X031641Y02182D01*
X031648Y021824D01*
X031656Y021829D01*
X031663Y021833D01*
X03167Y021838D01*
X031677Y021843D01*
X031684Y021849D01*
X031691Y021854D01*
X031698Y02186D01*
X031704Y021866D01*
X031709Y021871D01*
X03171Y021873D01*
X031718Y021876D01*
X031727Y021878D01*
X031741Y021879D01*
X031755Y021878D01*
X031764Y021876D01*
X031771Y021873D01*
X031773Y021871D01*
X031778Y021866D01*
X031784Y02186D01*
X031791Y021854D01*
X031797Y021849D01*
X031804Y021843D01*
X031811Y021838D01*
X031818Y021833D01*
X031826Y021829D01*
X031833Y021824D01*
X031841Y02182D01*
X031849Y021816D01*
X031857Y021812D01*
X031865Y021809D01*
X031873Y021806D01*
X031881Y021803D01*
X03189Y021801D01*
X031898Y021799D01*
X031907Y021797D01*
X031915Y021795D01*
X031924Y021794D01*
X031933Y021793D01*
X031941Y021792D01*
X03195Y021791D01*
X031959Y021791D01*
X031968Y021791D01*
X031976Y021792D01*
X031985Y021793D01*
X031994Y021794D01*
X032002Y021795D01*
X032011Y021797D01*
X032019Y021799D01*
X032028Y021801D01*
X032036Y021803D01*
X032045Y021806D01*
X032053Y021809D01*
X032061Y021812D01*
X032069Y021816D01*
X032077Y02182D01*
X032084Y021824D01*
X032092Y021829D01*
X032099Y021833D01*
X032106Y021838D01*
X032114Y021843D01*
X03212Y021849D01*
X032127Y021854D01*
X032134Y02186D01*
X03214Y021866D01*
X032145Y021871D01*
X032146Y021873D01*
X032154Y021876D01*
X032163Y021878D01*
X032177Y021879D01*
X032191Y021878D01*
X0322Y021876D01*
X032207Y021873D01*
X032209Y021871D01*
X032214Y021866D01*
X03222Y02186D01*
X032227Y021854D01*
X032233Y021849D01*
X03224Y021843D01*
X032247Y021838D01*
X032255Y021833D01*
X032262Y021829D01*
X032269Y021824D01*
X032277Y02182D01*
X032285Y021816D01*
X032293Y021812D01*
X032301Y021809D01*
X032309Y021806D01*
X032317Y021803D01*
X032326Y021801D01*
X032334Y021799D01*
X032343Y021797D01*
X032351Y021795D01*
X03236Y021794D01*
X032369Y021793D01*
X032377Y021792D01*
X032386Y021791D01*
X032395Y021791D01*
X032404Y021791D01*
X032412Y021792D01*
X032421Y021793D01*
X03243Y021794D01*
X032438Y021795D01*
X032447Y021797D01*
X032455Y021799D01*
X032464Y021801D01*
X032472Y021803D01*
X032481Y021806D01*
X032489Y021809D01*
X032497Y021812D01*
X032505Y021816D01*
X032513Y02182D01*
X03252Y021824D01*
X032528Y021829D01*
X032535Y021833D01*
X032542Y021838D01*
X03255Y021843D01*
X032556Y021849D01*
X032563Y021854D01*
X03257Y02186D01*
X032576Y021866D01*
X032581Y021871D01*
X032582Y021873D01*
X03259Y021876D01*
X032599Y021878D01*
X032613Y021879D01*
X032627Y021878D01*
X032636Y021876D01*
X032643Y021873D01*
X032645Y021871D01*
X03265Y021866D01*
X032656Y02186D01*
X032663Y021854D01*
X032669Y021849D01*
X032676Y021843D01*
X032683Y021838D01*
X032691Y021833D01*
X032698Y021829D01*
X032705Y021824D01*
X032713Y02182D01*
X032721Y021816D01*
X032729Y021812D01*
X032737Y021809D01*
X032745Y021806D01*
X032753Y021803D01*
X032762Y021801D01*
X03277Y021799D01*
X032779Y021797D01*
X032787Y021795D01*
X032796Y021794D01*
X032805Y021793D01*
X032813Y021792D01*
X032822Y021791D01*
X032831Y021791D01*
X03284Y021791D01*
X032848Y021792D01*
X032857Y021793D01*
X032866Y021794D01*
X032874Y021795D01*
X032883Y021797D01*
X032891Y021799D01*
X0329Y021801D01*
X032908Y021803D01*
X032917Y021806D01*
X032925Y021809D01*
X032933Y021812D01*
X032941Y021816D01*
X032949Y02182D01*
X032956Y021824D01*
X032964Y021829D01*
X032971Y021833D01*
X032978Y021838D01*
X032986Y021843D01*
X032992Y021849D01*
X032999Y021854D01*
X033006Y02186D01*
X033012Y021866D01*
X033017Y021871D01*
X033018Y021873D01*
X033026Y021876D01*
X033035Y021878D01*
X033049Y021879D01*
X033063Y021878D01*
X033072Y021876D01*
X03308Y021873D01*
X033081Y021871D01*
X033086Y021866D01*
X033092Y02186D01*
X033099Y021854D01*
X033105Y021849D01*
X033112Y021843D01*
X033119Y021838D01*
X033127Y021833D01*
X033134Y021829D01*
X033141Y021824D01*
X033149Y02182D01*
X033157Y021816D01*
X033165Y021812D01*
X033173Y021809D01*
X033181Y021806D01*
X033189Y021803D01*
X033198Y021801D01*
X033206Y021799D01*
X033215Y021797D01*
X033223Y021795D01*
X033232Y021794D01*
X033241Y021793D01*
X033249Y021792D01*
X033258Y021791D01*
X033267Y021791D01*
X033276Y021791D01*
X033284Y021792D01*
X033293Y021793D01*
X033302Y021794D01*
X03331Y021795D01*
X033319Y021797D01*
X033328Y021799D01*
X033336Y021801D01*
X033344Y021803D01*
X033353Y021806D01*
X033361Y021809D01*
X033369Y021812D01*
X033377Y021816D01*
X033385Y02182D01*
X033392Y021824D01*
X0334Y021829D01*
X033407Y021833D01*
X033415Y021838D01*
X033422Y021843D01*
X033428Y021849D01*
X033435Y021854D01*
X033442Y02186D01*
X033448Y021866D01*
X033454Y021873D01*
X03346Y021879D01*
X033465Y021886D01*
X033471Y021893D01*
X033476Y0219D01*
X033481Y021907D01*
X033486Y021914D01*
X03349Y021922D01*
X033494Y021929D01*
X033498Y021937D01*
X033502Y021945D01*
X033505Y021953D01*
X033508Y021962D01*
X033511Y02197D01*
X033513Y021978D01*
X033516Y021987D01*
X033518Y021995D01*
X033519Y022004D01*
X03352Y022012D01*
X033522Y022021D01*
X033522Y02203D01*
X033523Y022039D01*
X033523Y022047D01*
X033523Y022056D01*
X033522Y022065D01*
X033522Y022073D01*
X03352Y022082D01*
X033519Y022091D01*
X033518Y022099D01*
X033516Y022108D01*
X033513Y022116D01*
X033511Y022125D01*
X033508Y022133D01*
X033505Y022141D01*
X033502Y022149D01*
X033498Y022157D01*
X033494Y022165D01*
X03349Y022173D01*
X033486Y02218D01*
X033481Y022188D01*
X033476Y022195D01*
X033471Y022202D01*
X033465Y022209D01*
X033464Y02221D01*
Y025065D01*
X033469Y025071D01*
X033475Y025078D01*
X03348Y025085D01*
X033485Y025092D01*
X03349Y025099D01*
X033494Y025107D01*
X033498Y025115D01*
X033502Y025122D01*
X033506Y02513D01*
X033509Y025138D01*
X033512Y025147D01*
X033515Y025155D01*
X033517Y025163D01*
X03352Y025172D01*
X033521Y02518D01*
X033523Y025189D01*
X033524Y025197D01*
X033525Y025206D01*
X033526Y025215D01*
X033527Y025224D01*
X033527Y025232D01*
X033527Y025241D01*
X033526Y02525D01*
X033525Y025258D01*
X033524Y025267D01*
X033523Y025276D01*
X033521Y025284D01*
X03352Y025293D01*
X033517Y025301D01*
X033515Y02531D01*
X033512Y025318D01*
X033509Y025326D01*
X033506Y025334D01*
X033502Y025342D01*
X033498Y02535D01*
X033494Y025358D01*
X03349Y025365D01*
X033485Y025373D01*
X03348Y02538D01*
X033475Y025387D01*
X033469Y025394D01*
X033464Y0254D01*
X033458Y025407D01*
X033452Y025413D01*
X033446Y025419D01*
X033439Y025425D01*
X033432Y025431D01*
X033426Y025436D01*
X033418Y025441D01*
X033411Y025446D01*
X033404Y025451D01*
X033396Y025455D01*
X033389Y02546D01*
X033381Y025463D01*
X033373Y025467D01*
X033365Y02547D01*
X033357Y025473D01*
X033348Y025476D01*
X03334Y025479D01*
X033331Y025481D01*
X033323Y025483D01*
X033314Y025484D01*
X033306Y025486D01*
X033297Y025487D01*
X033288Y025488D01*
X03328Y025488D01*
X033271Y025488D01*
D02*
G37*
G36*
X017991Y025323D02*
X017007D01*
X016995Y025323D01*
X016983Y025322D01*
X016972Y025321D01*
X01696Y02532D01*
X016948Y025319D01*
X016936Y025317D01*
X016925Y025315D01*
X016913Y025313D01*
X016901Y02531D01*
X01689Y025307D01*
X016878Y025304D01*
X016867Y025301D01*
X016856Y025297D01*
X016845Y025293D01*
X016834Y025288D01*
X016823Y025284D01*
X016812Y025279D01*
X016802Y025274D01*
X016791Y025268D01*
X016781Y025262D01*
X01677Y025256D01*
X01676Y02525D01*
X016751Y025243D01*
X016741Y025236D01*
X016731Y025229D01*
X016722Y025222D01*
X016713Y025214D01*
X016704Y025207D01*
X016695Y025199D01*
X016687Y02519D01*
X016679Y025182D01*
X016671Y025173D01*
X016663Y025164D01*
X016655Y025155D01*
X016648Y025146D01*
X016641Y025136D01*
X016634Y025127D01*
X016627Y025117D01*
X016621Y025107D01*
X016615Y025096D01*
X016609Y025086D01*
X016604Y025076D01*
X016598Y025065D01*
X016593Y025054D01*
X016589Y025043D01*
X016584Y025032D01*
X01658Y025021D01*
X016576Y02501D01*
X016573Y024999D01*
X01657Y024987D01*
X016567Y024976D01*
X016564Y024964D01*
X016562Y024953D01*
X01656Y024941D01*
X016558Y024929D01*
X016557Y024917D01*
X016556Y024906D01*
X016555Y024894D01*
X016554Y024882D01*
X016554Y02487D01*
X016554Y024858D01*
X016555Y024846D01*
X016556Y024835D01*
X016557Y024823D01*
X016558Y024811D01*
X01656Y024799D01*
X016562Y024788D01*
X016564Y024776D01*
X016567Y024764D01*
X01657Y024753D01*
X016573Y024741D01*
X016576Y02473D01*
X01658Y024719D01*
X016584Y024708D01*
X016589Y024697D01*
X016593Y024686D01*
X016598Y024675D01*
X016604Y024665D01*
X016609Y024654D01*
X016615Y024644D01*
X016621Y024633D01*
X016627Y024623D01*
X016634Y024614D01*
X016641Y024604D01*
X016648Y024594D01*
X016655Y024585D01*
X016663Y024576D01*
X016671Y024567D01*
X016679Y024558D01*
X016687Y02455D01*
X016695Y024542D01*
X016704Y024534D01*
X016713Y024526D01*
X016722Y024518D01*
X016731Y024511D01*
X016741Y024504D01*
X016751Y024497D01*
X01676Y02449D01*
X01677Y024484D01*
X016781Y024478D01*
X016791Y024472D01*
X016802Y024467D01*
X016812Y024461D01*
X016823Y024456D01*
X016834Y024452D01*
X016845Y024447D01*
X016856Y024443D01*
X016867Y024439D01*
X016878Y024436D01*
X01689Y024433D01*
X016901Y02443D01*
X016913Y024427D01*
X016925Y024425D01*
X016936Y024423D01*
X016948Y024421D01*
X01696Y02442D01*
X016972Y024419D01*
X016983Y024418D01*
X016995Y024417D01*
X017007Y024417D01*
X017991D01*
X018003Y024417D01*
X018015Y024418D01*
X018027Y024419D01*
X018039Y02442D01*
X01805Y024421D01*
X018062Y024423D01*
X018074Y024425D01*
X018085Y024427D01*
X018097Y02443D01*
X018109Y024433D01*
X01812Y024436D01*
X018131Y024439D01*
X018142Y024443D01*
X018154Y024447D01*
X018165Y024452D01*
X018176Y024456D01*
X018186Y024461D01*
X018197Y024467D01*
X018207Y024472D01*
X018218Y024478D01*
X018228Y024484D01*
X018238Y02449D01*
X018248Y024497D01*
X018257Y024504D01*
X018267Y024511D01*
X018276Y024518D01*
X018285Y024526D01*
X018294Y024534D01*
X018303Y024542D01*
X018312Y02455D01*
X01832Y024558D01*
X018328Y024567D01*
X018336Y024576D01*
X018343Y024585D01*
X018351Y024594D01*
X018358Y024604D01*
X018364Y024614D01*
X018371Y024623D01*
X018377Y024633D01*
X018383Y024644D01*
X018389Y024654D01*
X018395Y024665D01*
X0184Y024675D01*
X018405Y024686D01*
X01841Y024697D01*
X018414Y024708D01*
X018418Y024719D01*
X018422Y02473D01*
X018425Y024741D01*
X018429Y024753D01*
X018432Y024764D01*
X018434Y024776D01*
X018437Y024788D01*
X018439Y024799D01*
X01844Y024811D01*
X018442Y024823D01*
X018443Y024835D01*
X018444Y024846D01*
X018444Y024858D01*
X018444Y02487D01*
X018444Y024882D01*
X018444Y024894D01*
X018443Y024906D01*
X018442Y024917D01*
X01844Y024929D01*
X018439Y024941D01*
X018437Y024953D01*
X018434Y024964D01*
X018432Y024976D01*
X018429Y024987D01*
X018425Y024999D01*
X018422Y02501D01*
X018418Y025021D01*
X018414Y025032D01*
X01841Y025043D01*
X018405Y025054D01*
X0184Y025065D01*
X018395Y025076D01*
X018389Y025086D01*
X018383Y025096D01*
X018377Y025107D01*
X018371Y025117D01*
X018364Y025127D01*
X018358Y025136D01*
X018351Y025146D01*
X018343Y025155D01*
X018336Y025164D01*
X018328Y025173D01*
X01832Y025182D01*
X018312Y02519D01*
X018303Y025199D01*
X018294Y025207D01*
X018285Y025214D01*
X018276Y025222D01*
X018267Y025229D01*
X018257Y025236D01*
X018248Y025243D01*
X018238Y02525D01*
X018228Y025256D01*
X018218Y025262D01*
X018207Y025268D01*
X018197Y025274D01*
X018186Y025279D01*
X018176Y025284D01*
X018165Y025288D01*
X018154Y025293D01*
X018142Y025297D01*
X018131Y025301D01*
X01812Y025304D01*
X018109Y025307D01*
X018097Y02531D01*
X018085Y025313D01*
X018074Y025315D01*
X018062Y025317D01*
X01805Y025319D01*
X018039Y02532D01*
X018027Y025321D01*
X018015Y025322D01*
X018003Y025323D01*
X017991Y025323D01*
D02*
G37*
G36*
Y023945D02*
X017007D01*
X016995Y023945D01*
X016983Y023944D01*
X016972Y023944D01*
X01696Y023942D01*
X016948Y023941D01*
X016936Y023939D01*
X016925Y023937D01*
X016913Y023935D01*
X016901Y023932D01*
X01689Y023929D01*
X016878Y023926D01*
X016867Y023923D01*
X016856Y023919D01*
X016845Y023915D01*
X016834Y02391D01*
X016823Y023906D01*
X016812Y023901D01*
X016802Y023896D01*
X016791Y02389D01*
X016781Y023884D01*
X01677Y023878D01*
X01676Y023872D01*
X016751Y023865D01*
X016741Y023858D01*
X016731Y023851D01*
X016722Y023844D01*
X016713Y023836D01*
X016704Y023829D01*
X016695Y023821D01*
X016687Y023812D01*
X016679Y023804D01*
X016671Y023795D01*
X016663Y023786D01*
X016655Y023777D01*
X016648Y023768D01*
X016641Y023758D01*
X016634Y023749D01*
X016627Y023739D01*
X016621Y023729D01*
X016615Y023719D01*
X016609Y023708D01*
X016604Y023698D01*
X016598Y023687D01*
X016593Y023676D01*
X016589Y023665D01*
X016584Y023654D01*
X01658Y023643D01*
X016576Y023632D01*
X016573Y023621D01*
X01657Y023609D01*
X016567Y023598D01*
X016564Y023586D01*
X016562Y023575D01*
X01656Y023563D01*
X016558Y023551D01*
X016557Y023539D01*
X016556Y023528D01*
X016555Y023516D01*
X016554Y023504D01*
X016554Y023492D01*
X016554Y02348D01*
X016555Y023468D01*
X016556Y023457D01*
X016557Y023445D01*
X016558Y023433D01*
X01656Y023421D01*
X016562Y02341D01*
X016564Y023398D01*
X016567Y023386D01*
X01657Y023375D01*
X016573Y023364D01*
X016576Y023352D01*
X01658Y023341D01*
X016584Y02333D01*
X016589Y023319D01*
X016593Y023308D01*
X016598Y023297D01*
X016604Y023287D01*
X016609Y023276D01*
X016615Y023266D01*
X016621Y023256D01*
X016627Y023246D01*
X016634Y023236D01*
X016641Y023226D01*
X016648Y023216D01*
X016655Y023207D01*
X016663Y023198D01*
X016671Y023189D01*
X016679Y02318D01*
X016687Y023172D01*
X016695Y023164D01*
X016704Y023156D01*
X016713Y023148D01*
X016722Y02314D01*
X016731Y023133D01*
X016741Y023126D01*
X016751Y023119D01*
X01676Y023112D01*
X01677Y023106D01*
X016781Y0231D01*
X016791Y023094D01*
X016802Y023089D01*
X016812Y023083D01*
X016823Y023078D01*
X016834Y023074D01*
X016845Y023069D01*
X016856Y023065D01*
X016867Y023061D01*
X016878Y023058D01*
X01689Y023055D01*
X016901Y023052D01*
X016913Y023049D01*
X016925Y023047D01*
X016936Y023045D01*
X016948Y023043D01*
X01696Y023042D01*
X016972Y023041D01*
X016983Y02304D01*
X016995Y023039D01*
X017007Y023039D01*
X017991D01*
X018003Y023039D01*
X018015Y02304D01*
X018027Y023041D01*
X018039Y023042D01*
X01805Y023043D01*
X018062Y023045D01*
X018074Y023047D01*
X018085Y023049D01*
X018097Y023052D01*
X018109Y023055D01*
X01812Y023058D01*
X018131Y023061D01*
X018142Y023065D01*
X018154Y023069D01*
X018165Y023074D01*
X018176Y023078D01*
X018186Y023083D01*
X018197Y023089D01*
X018207Y023094D01*
X018218Y0231D01*
X018228Y023106D01*
X018238Y023112D01*
X018248Y023119D01*
X018257Y023126D01*
X018267Y023133D01*
X018276Y02314D01*
X018285Y023148D01*
X018294Y023156D01*
X018303Y023164D01*
X018312Y023172D01*
X01832Y02318D01*
X018328Y023189D01*
X018336Y023198D01*
X018343Y023207D01*
X018351Y023216D01*
X018358Y023226D01*
X018364Y023236D01*
X018371Y023246D01*
X018377Y023256D01*
X018383Y023266D01*
X018389Y023276D01*
X018395Y023287D01*
X0184Y023297D01*
X018405Y023308D01*
X01841Y023319D01*
X018414Y02333D01*
X018418Y023341D01*
X018422Y023352D01*
X018425Y023364D01*
X018429Y023375D01*
X018432Y023386D01*
X018434Y023398D01*
X018437Y02341D01*
X018439Y023421D01*
X01844Y023433D01*
X018442Y023445D01*
X018443Y023457D01*
X018444Y023468D01*
X018444Y02348D01*
X018444Y023492D01*
X018444Y023504D01*
X018444Y023516D01*
X018443Y023528D01*
X018442Y023539D01*
X01844Y023551D01*
X018439Y023563D01*
X018437Y023575D01*
X018434Y023586D01*
X018432Y023598D01*
X018429Y023609D01*
X018425Y023621D01*
X018422Y023632D01*
X018418Y023643D01*
X018414Y023654D01*
X01841Y023665D01*
X018405Y023676D01*
X0184Y023687D01*
X018395Y023698D01*
X018389Y023708D01*
X018383Y023719D01*
X018377Y023729D01*
X018371Y023739D01*
X018364Y023749D01*
X018358Y023758D01*
X018351Y023768D01*
X018343Y023777D01*
X018336Y023786D01*
X018328Y023795D01*
X01832Y023804D01*
X018312Y023812D01*
X018303Y023821D01*
X018294Y023829D01*
X018285Y023836D01*
X018276Y023844D01*
X018267Y023851D01*
X018257Y023858D01*
X018248Y023865D01*
X018238Y023872D01*
X018228Y023878D01*
X018218Y023884D01*
X018207Y02389D01*
X018197Y023896D01*
X018186Y023901D01*
X018176Y023906D01*
X018165Y02391D01*
X018154Y023915D01*
X018142Y023919D01*
X018131Y023923D01*
X01812Y023926D01*
X018109Y023929D01*
X018097Y023932D01*
X018085Y023935D01*
X018074Y023937D01*
X018062Y023939D01*
X01805Y023941D01*
X018039Y023942D01*
X018027Y023944D01*
X018015Y023944D01*
X018003Y023945D01*
X017991Y023945D01*
D02*
G37*
G36*
X04117Y024457D02*
X039871D01*
Y023669D01*
X040311D01*
Y023406D01*
X04031Y023403D01*
X040305Y023396D01*
X0403Y023389D01*
X040296Y023381D01*
X040292Y023374D01*
X040288Y023366D01*
X040284Y023358D01*
X040281Y02335D01*
X040278Y023342D01*
X040275Y023333D01*
X040272Y023325D01*
X04027Y023317D01*
X040268Y023308D01*
X040267Y023299D01*
X040265Y023291D01*
X040264Y023282D01*
X040264Y023273D01*
X040263Y023265D01*
X040263Y023256D01*
X040263Y023247D01*
X040264Y023238D01*
X040264Y02323D01*
X040265Y023221D01*
X040267Y023212D01*
X040268Y023204D01*
X04027Y023195D01*
X040272Y023187D01*
X040275Y023178D01*
X040278Y02317D01*
X040281Y023162D01*
X040284Y023154D01*
X040288Y023146D01*
X040292Y023138D01*
X040296Y02313D01*
X0403Y023123D01*
X040305Y023116D01*
X04031Y023108D01*
X040315Y023101D01*
X04032Y023094D01*
X040326Y023088D01*
X040332Y023081D01*
X040338Y023075D01*
X040344Y023069D01*
X040351Y023063D01*
X040357Y023057D01*
X040364Y023052D01*
X040371Y023047D01*
X040379Y023042D01*
X040386Y023037D01*
X040393Y023033D01*
X040401Y023029D01*
X040409Y023025D01*
X040417Y023021D01*
X040425Y023018D01*
X040433Y023015D01*
X040441Y023012D01*
X04045Y023009D01*
X040458Y023007D01*
X040467Y023005D01*
X040475Y023004D01*
X040484Y023002D01*
X040493Y023001D01*
X040501Y023001D01*
X04051Y023D01*
X040519Y023D01*
X040528Y023D01*
X040536Y023001D01*
X040545Y023001D01*
X040554Y023002D01*
X040562Y023004D01*
X040571Y023005D01*
X04058Y023007D01*
X040588Y023009D01*
X040596Y023012D01*
X040605Y023015D01*
X040613Y023018D01*
X040621Y023021D01*
X040629Y023025D01*
X040637Y023029D01*
X040644Y023033D01*
X040652Y023037D01*
X040659Y023042D01*
X040666Y023047D01*
X040674Y023052D01*
X04068Y023057D01*
X040687Y023063D01*
X040694Y023069D01*
X0407Y023075D01*
X040706Y023081D01*
X040712Y023088D01*
X040717Y023094D01*
X040723Y023101D01*
X040728Y023108D01*
X040733Y023116D01*
X040738Y023123D01*
X040742Y02313D01*
X040746Y023138D01*
X04075Y023146D01*
X040754Y023154D01*
X040757Y023162D01*
X04076Y02317D01*
X040763Y023178D01*
X040765Y023187D01*
X040768Y023195D01*
X040769Y023204D01*
X040771Y023212D01*
X040772Y023221D01*
X040774Y02323D01*
X040774Y023238D01*
X040775Y023247D01*
X040775Y023256D01*
X040775Y023265D01*
X040774Y023273D01*
X040774Y023282D01*
X040772Y023291D01*
X040771Y023299D01*
X040769Y023308D01*
X040768Y023317D01*
X040765Y023325D01*
X040763Y023333D01*
X04076Y023342D01*
X040757Y02335D01*
X040754Y023358D01*
X04075Y023366D01*
X040746Y023374D01*
X040742Y023381D01*
X040738Y023389D01*
X040733Y023396D01*
X040728Y023403D01*
X040726Y023406D01*
Y023669D01*
X04117D01*
Y024457D01*
D02*
G37*
G36*
X03672Y022781D02*
X03609D01*
Y022718D01*
X036082Y022707D01*
X036077Y022701D01*
X03607Y022697D01*
X03604Y022685D01*
X036038Y022686D01*
X036029Y022689D01*
X036021Y022691D01*
X036013Y022694D01*
X036004Y022695D01*
X035995Y022697D01*
X035987Y022698D01*
X035978Y022699D01*
X035969Y0227D01*
X035961Y022701D01*
X035952Y022701D01*
X035943Y022701D01*
X035935Y0227D01*
X035926Y022699D01*
X035917Y022698D01*
X035908Y022697D01*
X0359Y022695D01*
X035891Y022694D01*
X035883Y022691D01*
X035875Y022689D01*
X035866Y022686D01*
X035858Y022683D01*
X03585Y02268D01*
X035842Y022676D01*
X035834Y022672D01*
X035827Y022668D01*
X035819Y022664D01*
X035812Y022659D01*
X035804Y022654D01*
X035797Y022649D01*
X03579Y022643D01*
X035784Y022638D01*
X035777Y022632D01*
X035771Y022626D01*
X035765Y02262D01*
X035759Y022613D01*
X035753Y022606D01*
X035748Y0226D01*
X035743Y022592D01*
X035738Y022585D01*
X035733Y022578D01*
X035729Y02257D01*
X035725Y022563D01*
X035721Y022555D01*
X035717Y022547D01*
X035714Y022539D01*
X035711Y022531D01*
X035708Y022522D01*
X035706Y022514D01*
X035703Y022505D01*
X035701Y022497D01*
X0357Y022488D01*
X035698Y02248D01*
X035697Y022471D01*
X035697Y022462D01*
X035696Y022454D01*
X035696Y022445D01*
X035696Y022436D01*
X035697Y022427D01*
X035697Y022419D01*
X035698Y02241D01*
X0357Y022401D01*
X035701Y022393D01*
X035703Y022384D01*
X035706Y022376D01*
X035708Y022367D01*
X035711Y022359D01*
X035714Y022351D01*
X035717Y022343D01*
X035721Y022335D01*
X035725Y022327D01*
X035729Y022319D01*
X035733Y022312D01*
X035738Y022305D01*
X035743Y022297D01*
X035748Y02229D01*
X035753Y022283D01*
X035759Y022277D01*
X035765Y02227D01*
X035771Y022264D01*
X035777Y022258D01*
X035784Y022252D01*
X03579Y022246D01*
X035797Y022241D01*
X035804Y022236D01*
X035812Y022231D01*
X035819Y022226D01*
X035827Y022222D01*
X035834Y022218D01*
X035837Y022216D01*
X035842Y022197D01*
Y022181D01*
X035837Y022162D01*
X035834Y02216D01*
X035827Y022156D01*
X035819Y022152D01*
X035812Y022147D01*
X035804Y022142D01*
X035797Y022137D01*
X03579Y022132D01*
X035784Y022126D01*
X035777Y02212D01*
X035771Y022114D01*
X035765Y022108D01*
X035759Y022101D01*
X035753Y022095D01*
X035748Y022088D01*
X035743Y022081D01*
X035738Y022073D01*
X035733Y022066D01*
X035729Y022059D01*
X035725Y022051D01*
X035721Y022043D01*
X035717Y022035D01*
X035714Y022027D01*
X035711Y022019D01*
X035708Y022011D01*
X035706Y022002D01*
X035703Y021994D01*
X035701Y021985D01*
X0357Y021977D01*
X035698Y021968D01*
X035697Y021959D01*
X035697Y021951D01*
X035696Y021942D01*
X035696Y021933D01*
X035696Y021924D01*
X035697Y021916D01*
X035697Y021907D01*
X035698Y021898D01*
X0357Y02189D01*
X035701Y021881D01*
X035703Y021872D01*
X035706Y021864D01*
X035708Y021856D01*
X035711Y021847D01*
X035714Y021839D01*
X035717Y021831D01*
X035721Y021823D01*
X035725Y021815D01*
X035729Y021808D01*
X035733Y0218D01*
X035738Y021793D01*
X035743Y021785D01*
X035748Y021778D01*
X035753Y021772D01*
X035759Y021765D01*
X035765Y021758D01*
X035771Y021752D01*
X035777Y021746D01*
X035784Y02174D01*
X03579Y021735D01*
X035797Y021729D01*
X035804Y021724D01*
X035812Y021719D01*
X035819Y021714D01*
X035827Y02171D01*
X035834Y021706D01*
X03584Y021685D01*
X035841Y021678D01*
X035839Y021666D01*
X035833Y021651D01*
X035832Y02165D01*
X035824Y021646D01*
X035817Y021642D01*
X03581Y021637D01*
X035802Y021632D01*
X035795Y021627D01*
X035788Y021622D01*
X035782Y021616D01*
X035775Y02161D01*
X035769Y021604D01*
X035763Y021598D01*
X035757Y021591D01*
X035751Y021585D01*
X035746Y021578D01*
X035741Y021571D01*
X035736Y021563D01*
X035731Y021556D01*
X035727Y021549D01*
X035723Y021541D01*
X035719Y021533D01*
X035715Y021525D01*
X035712Y021517D01*
X035709Y021509D01*
X035706Y021501D01*
X035703Y021492D01*
X035701Y021484D01*
X035699Y021475D01*
X035698Y021467D01*
X035696Y021458D01*
X035695Y021449D01*
X035695Y021441D01*
X035694Y021432D01*
X035694Y021423D01*
X035694Y021414D01*
X035695Y021406D01*
X035695Y021397D01*
X035696Y021388D01*
X035698Y02138D01*
X035699Y021371D01*
X035701Y021363D01*
X035703Y021354D01*
X035706Y021346D01*
X035709Y021337D01*
X035712Y021329D01*
X035715Y021321D01*
X035719Y021313D01*
X035723Y021305D01*
X035727Y021298D01*
X035731Y02129D01*
X035736Y021283D01*
X035741Y021276D01*
X035746Y021268D01*
X035751Y021262D01*
X035757Y021255D01*
X035763Y021248D01*
X035769Y021242D01*
X035775Y021236D01*
X035782Y02123D01*
X035788Y021225D01*
X035795Y021219D01*
X035802Y021214D01*
X03581Y021209D01*
X035817Y021204D01*
X035824Y0212D01*
X035832Y021196D01*
X03584Y021192D01*
X035848Y021188D01*
X035856Y021185D01*
X035864Y021182D01*
X035872Y021179D01*
X035881Y021177D01*
X035889Y021174D01*
X035898Y021173D01*
X035906Y021171D01*
X035915Y02117D01*
X035924Y021169D01*
X035932Y021168D01*
X035941Y021167D01*
X03595Y021167D01*
X035959Y021167D01*
X035967Y021168D01*
X035976Y021169D01*
X035985Y02117D01*
X035993Y021171D01*
X036002Y021173D01*
X03601Y021174D01*
X036019Y021177D01*
X036027Y021179D01*
X036036Y021182D01*
X03604Y021184D01*
X036048Y021183D01*
X036075Y021168D01*
X03608Y021165D01*
X03609Y021151D01*
Y021088D01*
X037175D01*
X037177Y021081D01*
X03718Y021073D01*
X037184Y021065D01*
X037187Y021057D01*
X037191Y021049D01*
X037195Y021042D01*
X0372Y021034D01*
X037204Y021027D01*
X037209Y02102D01*
X037214Y021013D01*
X03722Y021006D01*
X037225Y020999D01*
X037231Y020993D01*
X037237Y020986D01*
X037244Y02098D01*
X03725Y020974D01*
X037257Y020969D01*
X037264Y020963D01*
X037271Y020958D01*
X037278Y020953D01*
X037285Y020949D01*
X037293Y020944D01*
X037301Y02094D01*
X037308Y020936D01*
X037316Y020932D01*
X037324Y020929D01*
X037333Y020926D01*
X037341Y020923D01*
X037349Y020921D01*
X037358Y020919D01*
X037366Y020917D01*
X037375Y020915D01*
X037384Y020914D01*
X037392Y020913D01*
X037401Y020912D01*
X03741Y020911D01*
X037418Y020911D01*
X037427Y020911D01*
X037436Y020912D01*
X037445Y020913D01*
X037453Y020914D01*
X037462Y020915D01*
X03747Y020917D01*
X037479Y020919D01*
X037487Y020921D01*
X037496Y020923D01*
X037504Y020926D01*
X037512Y020929D01*
X03752Y020932D01*
X037528Y020936D01*
X037536Y02094D01*
X037544Y020944D01*
X037551Y020949D01*
X037559Y020953D01*
X037566Y020958D01*
X037573Y020963D01*
X03758Y020969D01*
X037587Y020974D01*
X037593Y02098D01*
X037599Y020986D01*
X037605Y020993D01*
X037611Y020999D01*
X037617Y021006D01*
X037622Y021013D01*
X037627Y02102D01*
X037632Y021027D01*
X037637Y021034D01*
X037641Y021042D01*
X037646Y021049D01*
X03765Y021057D01*
X037653Y021065D01*
X037656Y021073D01*
X03766Y021081D01*
X037662Y02109D01*
X037665Y021098D01*
X037667Y021107D01*
X037669Y021115D01*
X037671Y021124D01*
X037672Y021132D01*
X037673Y021141D01*
X037674Y02115D01*
X037674Y021158D01*
X037674Y021167D01*
X037674Y021176D01*
X037674Y021185D01*
X037673Y021193D01*
X037672Y021202D01*
X037671Y021211D01*
X037669Y021219D01*
X037667Y021228D01*
X037665Y021236D01*
X037662Y021245D01*
X03766Y021253D01*
X037656Y021261D01*
X037653Y021269D01*
X03765Y021277D01*
X037646Y021285D01*
X037641Y021293D01*
X037637Y0213D01*
X037632Y021308D01*
X037627Y021315D01*
X037622Y021322D01*
X037617Y021329D01*
X037616Y02133D01*
X037616Y021337D01*
X037615Y021344D01*
X037615Y021352D01*
X037613Y02136D01*
X037612Y021367D01*
X03761Y021375D01*
X037608Y021382D01*
X037606Y02139D01*
X037604Y021397D01*
X037601Y021404D01*
X037598Y021412D01*
X037594Y021419D01*
X037591Y021425D01*
X037587Y021432D01*
X037583Y021439D01*
X037578Y021445D01*
X037573Y021451D01*
X037569Y021457D01*
X037563Y021463D01*
X037558Y021469D01*
X037464Y021563D01*
X037458Y021568D01*
X037452Y021573D01*
X037446Y021578D01*
X03744Y021583D01*
X037434Y021587D01*
X037427Y021592D01*
X037421Y021595D01*
X037414Y021599D01*
X037407Y021602D01*
X0374Y021606D01*
X037392Y021608D01*
X037385Y021611D01*
X037378Y021613D01*
X03737Y021615D01*
X037363Y021617D01*
X037355Y021618D01*
X037347Y021619D01*
X03734Y02162D01*
X037332Y02162D01*
X037324Y021621D01*
X037271D01*
Y021737D01*
X03734D01*
X037347Y021737D01*
X037355Y021738D01*
X037363Y021739D01*
X03737Y02174D01*
X037378Y021741D01*
X037386Y021743D01*
X037393Y021745D01*
X037401Y021747D01*
X037408Y021749D01*
X037415Y021752D01*
X037422Y021755D01*
X037429Y021759D01*
X037436Y021762D01*
X037443Y021766D01*
X037449Y021771D01*
X037456Y021775D01*
X037462Y02178D01*
X037468Y021785D01*
X037474Y02179D01*
X037479Y021795D01*
X037562Y021878D01*
X037567Y021884D01*
X037573Y021889D01*
X037577Y021895D01*
X037582Y021902D01*
X037587Y021908D01*
X037591Y021914D01*
X037595Y021921D01*
X037598Y021928D01*
X037602Y021935D01*
X037605Y021942D01*
X037608Y021949D01*
X03761Y021957D01*
X037612Y021964D01*
X037614Y021971D01*
X037616Y021979D01*
X037617Y021987D01*
X037618Y021994D01*
X037619Y022002D01*
X03762Y02201D01*
X03762Y022018D01*
Y022028D01*
X037621Y022029D01*
X037626Y022036D01*
X037631Y022043D01*
X037636Y02205D01*
X037641Y022058D01*
X037645Y022065D01*
X03765Y022073D01*
X037653Y022081D01*
X037657Y022089D01*
X03766Y022097D01*
X037663Y022105D01*
X037666Y022113D01*
X037669Y022122D01*
X037671Y02213D01*
X037673Y022139D01*
X037675Y022147D01*
X037676Y022156D01*
X037677Y022165D01*
X037678Y022173D01*
X037678Y022182D01*
X037678Y022191D01*
X037678Y0222D01*
X037678Y022208D01*
X037677Y022217D01*
X037676Y022226D01*
X037675Y022234D01*
X037673Y022243D01*
X037671Y022251D01*
X037669Y02226D01*
X037666Y022268D01*
X037663Y022277D01*
X03766Y022285D01*
X037657Y022293D01*
X037653Y022301D01*
X03765Y022309D01*
X037645Y022316D01*
X037641Y022324D01*
X037636Y022331D01*
X037631Y022338D01*
X037626Y022345D01*
X037621Y022352D01*
X037615Y022359D01*
X037609Y022366D01*
X037603Y022372D01*
X037597Y022378D01*
X037591Y022384D01*
X037584Y022389D01*
X037577Y022395D01*
X03757Y0224D01*
X037563Y022405D01*
X037555Y02241D01*
X037548Y022414D01*
X03754Y022418D01*
X037532Y022422D01*
X037524Y022426D01*
X037516Y022429D01*
X037508Y022432D01*
X0375Y022435D01*
X037491Y022437D01*
X037483Y022439D01*
X037474Y022441D01*
X037466Y022443D01*
X037457Y022444D01*
X037448Y022445D01*
X03744Y022446D01*
X037431Y022447D01*
X037422Y022447D01*
X037414Y022447D01*
X037405Y022446D01*
X037396Y022445D01*
X037387Y022444D01*
X037379Y022443D01*
X03737Y022441D01*
X037362Y022439D01*
X037353Y022437D01*
X037345Y022435D01*
X037337Y022432D01*
X037328Y022429D01*
X03732Y022426D01*
X037312Y022422D01*
X037305Y022418D01*
X037297Y022414D01*
X037289Y02241D01*
X037282Y022405D01*
X037275Y0224D01*
X037268Y022395D01*
X037261Y022389D01*
X037254Y022384D01*
X037248Y022378D01*
X037241Y022372D01*
X037235Y022366D01*
X037229Y022359D01*
X037224Y022352D01*
X037218Y022345D01*
X037213Y022338D01*
X037208Y022331D01*
X037204Y022324D01*
X037199Y022316D01*
X037195Y022309D01*
X037191Y022301D01*
X037188Y022293D01*
X037184Y022285D01*
X037181Y022277D01*
X037179Y022269D01*
X03672D01*
Y022781D01*
D02*
G37*
G36*
X017991Y02237D02*
X017007D01*
X016995Y02237D01*
X016983Y022369D01*
X016972Y022369D01*
X01696Y022368D01*
X016948Y022366D01*
X016936Y022365D01*
X016925Y022363D01*
X016913Y02236D01*
X016901Y022358D01*
X01689Y022355D01*
X016878Y022351D01*
X016867Y022348D01*
X016856Y022344D01*
X016845Y02234D01*
X016834Y022336D01*
X016823Y022331D01*
X016812Y022326D01*
X016802Y022321D01*
X016791Y022315D01*
X016781Y022309D01*
X01677Y022303D01*
X01676Y022297D01*
X016751Y02229D01*
X016741Y022284D01*
X016731Y022277D01*
X016722Y022269D01*
X016713Y022262D01*
X016704Y022254D01*
X016695Y022246D01*
X016687Y022238D01*
X016679Y022229D01*
X016671Y02222D01*
X016663Y022211D01*
X016655Y022202D01*
X016648Y022193D01*
X016641Y022183D01*
X016634Y022174D01*
X016627Y022164D01*
X016621Y022154D01*
X016615Y022144D01*
X016609Y022133D01*
X016604Y022123D01*
X016598Y022112D01*
X016593Y022101D01*
X016589Y022091D01*
X016584Y02208D01*
X01658Y022068D01*
X016576Y022057D01*
X016573Y022046D01*
X01657Y022035D01*
X016567Y022023D01*
X016564Y022011D01*
X016562Y022D01*
X01656Y021988D01*
X016558Y021976D01*
X016557Y021965D01*
X016556Y021953D01*
X016555Y021941D01*
X016554Y021929D01*
X016554Y021917D01*
X016554Y021905D01*
X016555Y021894D01*
X016556Y021882D01*
X016557Y02187D01*
X016558Y021858D01*
X01656Y021846D01*
X016562Y021835D01*
X016564Y021823D01*
X016567Y021812D01*
X01657Y0218D01*
X016573Y021789D01*
X016576Y021777D01*
X01658Y021766D01*
X016584Y021755D01*
X016589Y021744D01*
X016593Y021733D01*
X016598Y021722D01*
X016604Y021712D01*
X016609Y021701D01*
X016615Y021691D01*
X016621Y021681D01*
X016627Y021671D01*
X016634Y021661D01*
X016641Y021651D01*
X016648Y021642D01*
X016655Y021632D01*
X016663Y021623D01*
X016671Y021614D01*
X016679Y021606D01*
X016687Y021597D01*
X016695Y021589D01*
X016704Y021581D01*
X016713Y021573D01*
X016722Y021565D01*
X016731Y021558D01*
X016741Y021551D01*
X016751Y021544D01*
X01676Y021538D01*
X01677Y021531D01*
X016781Y021525D01*
X016791Y021519D01*
X016802Y021514D01*
X016812Y021509D01*
X016823Y021504D01*
X016834Y021499D01*
X016845Y021495D01*
X016856Y02149D01*
X016867Y021487D01*
X016878Y021483D01*
X01689Y02148D01*
X016901Y021477D01*
X016913Y021474D01*
X016925Y021472D01*
X016936Y02147D01*
X016948Y021468D01*
X01696Y021467D01*
X016972Y021466D01*
X016983Y021465D01*
X016995Y021465D01*
X017007Y021465D01*
X017991D01*
X018003Y021465D01*
X018015Y021465D01*
X018027Y021466D01*
X018039Y021467D01*
X01805Y021468D01*
X018062Y02147D01*
X018074Y021472D01*
X018085Y021474D01*
X018097Y021477D01*
X018109Y02148D01*
X01812Y021483D01*
X018131Y021487D01*
X018142Y02149D01*
X018154Y021495D01*
X018165Y021499D01*
X018176Y021504D01*
X018186Y021509D01*
X018197Y021514D01*
X018207Y021519D01*
X018218Y021525D01*
X018228Y021531D01*
X018238Y021538D01*
X018248Y021544D01*
X018257Y021551D01*
X018267Y021558D01*
X018276Y021565D01*
X018285Y021573D01*
X018294Y021581D01*
X018303Y021589D01*
X018312Y021597D01*
X01832Y021606D01*
X018328Y021614D01*
X018336Y021623D01*
X018343Y021632D01*
X018351Y021642D01*
X018358Y021651D01*
X018364Y021661D01*
X018371Y021671D01*
X018377Y021681D01*
X018383Y021691D01*
X018389Y021701D01*
X018395Y021712D01*
X0184Y021722D01*
X018405Y021733D01*
X01841Y021744D01*
X018414Y021755D01*
X018418Y021766D01*
X018422Y021777D01*
X018425Y021789D01*
X018429Y0218D01*
X018432Y021812D01*
X018434Y021823D01*
X018437Y021835D01*
X018439Y021846D01*
X01844Y021858D01*
X018442Y02187D01*
X018443Y021882D01*
X018444Y021894D01*
X018444Y021905D01*
X018444Y021917D01*
X018444Y021929D01*
X018444Y021941D01*
X018443Y021953D01*
X018442Y021965D01*
X01844Y021976D01*
X018439Y021988D01*
X018437Y022D01*
X018434Y022011D01*
X018432Y022023D01*
X018429Y022035D01*
X018425Y022046D01*
X018422Y022057D01*
X018418Y022068D01*
X018414Y02208D01*
X01841Y022091D01*
X018405Y022101D01*
X0184Y022112D01*
X018395Y022123D01*
X018389Y022133D01*
X018383Y022144D01*
X018377Y022154D01*
X018371Y022164D01*
X018364Y022174D01*
X018358Y022183D01*
X018351Y022193D01*
X018343Y022202D01*
X018336Y022211D01*
X018328Y02222D01*
X01832Y022229D01*
X018312Y022238D01*
X018303Y022246D01*
X018294Y022254D01*
X018285Y022262D01*
X018276Y022269D01*
X018267Y022277D01*
X018257Y022284D01*
X018248Y02229D01*
X018238Y022297D01*
X018228Y022303D01*
X018218Y022309D01*
X018207Y022315D01*
X018197Y022321D01*
X018186Y022326D01*
X018176Y022331D01*
X018165Y022336D01*
X018154Y02234D01*
X018142Y022344D01*
X018131Y022348D01*
X01812Y022351D01*
X018109Y022355D01*
X018097Y022358D01*
X018085Y02236D01*
X018074Y022363D01*
X018062Y022365D01*
X01805Y022366D01*
X018039Y022368D01*
X018027Y022369D01*
X018015Y022369D01*
X018003Y02237D01*
X017991Y02237D01*
D02*
G37*
G36*
X027791Y02224D02*
X027161D01*
Y021571D01*
X02722D01*
X027226Y021565D01*
X027226Y021556D01*
X027226Y021547D01*
X027227Y021539D01*
X027228Y02153D01*
X027229Y021521D01*
X027231Y021513D01*
X027233Y021504D01*
X027235Y021496D01*
X027238Y021488D01*
X02724Y021479D01*
X027243Y021471D01*
X027247Y021463D01*
X02725Y021455D01*
X027254Y021447D01*
X027258Y02144D01*
X027263Y021432D01*
X027267Y021425D01*
X027272Y021417D01*
X027278Y02141D01*
X027283Y021403D01*
X027289Y021397D01*
X027294Y02139D01*
X027301Y021384D01*
X027307Y021378D01*
X027313Y021372D01*
X02732Y021366D01*
X027327Y021361D01*
X027334Y021356D01*
X027341Y021351D01*
X027349Y021346D01*
X027356Y021342D01*
X027364Y021338D01*
X027372Y021334D01*
X02738Y02133D01*
X027388Y021327D01*
X027396Y021324D01*
X027404Y021321D01*
X027412Y021319D01*
X027421Y021316D01*
X027429Y021314D01*
X027438Y021313D01*
X027447Y021311D01*
X027455Y02131D01*
X027464Y02131D01*
X027473Y021309D01*
X027482Y021309D01*
X02749Y021309D01*
X027499Y02131D01*
X027508Y02131D01*
X027516Y021311D01*
X027525Y021313D01*
X027534Y021314D01*
X027542Y021316D01*
X027551Y021319D01*
X027559Y021321D01*
X027567Y021324D01*
X027575Y021327D01*
X027583Y02133D01*
X027591Y021334D01*
X027599Y021338D01*
X027607Y021342D01*
X027614Y021346D01*
X027622Y021351D01*
X027629Y021356D01*
X027636Y021361D01*
X027643Y021366D01*
X02765Y021372D01*
X027656Y021378D01*
X027662Y021384D01*
X027669Y02139D01*
X027674Y021397D01*
X02768Y021403D01*
X027685Y02141D01*
X027691Y021417D01*
X027696Y021425D01*
X0277Y021432D01*
X027705Y02144D01*
X027709Y021447D01*
X027713Y021455D01*
X027716Y021463D01*
X02772Y021471D01*
X027723Y021479D01*
X027725Y021488D01*
X027728Y021496D01*
X02773Y021504D01*
X027732Y021513D01*
X027734Y021521D01*
X027735Y02153D01*
X027736Y021539D01*
X027737Y021547D01*
X027737Y021556D01*
X027737Y021565D01*
X027743Y021571D01*
X027791D01*
Y02224D01*
D02*
G37*
G36*
X017991Y020992D02*
X017007D01*
X016995Y020992D01*
X016983Y020992D01*
X016972Y020991D01*
X01696Y02099D01*
X016948Y020988D01*
X016936Y020987D01*
X016925Y020985D01*
X016913Y020982D01*
X016901Y02098D01*
X01689Y020977D01*
X016878Y020974D01*
X016867Y02097D01*
X016856Y020966D01*
X016845Y020962D01*
X016834Y020958D01*
X016823Y020953D01*
X016812Y020948D01*
X016802Y020943D01*
X016791Y020937D01*
X016781Y020931D01*
X01677Y020925D01*
X01676Y020919D01*
X016751Y020913D01*
X016741Y020906D01*
X016731Y020899D01*
X016722Y020891D01*
X016713Y020884D01*
X016704Y020876D01*
X016695Y020868D01*
X016687Y02086D01*
X016679Y020851D01*
X016671Y020842D01*
X016663Y020833D01*
X016655Y020824D01*
X016648Y020815D01*
X016641Y020806D01*
X016634Y020796D01*
X016627Y020786D01*
X016621Y020776D01*
X016615Y020766D01*
X016609Y020755D01*
X016604Y020745D01*
X016598Y020734D01*
X016593Y020724D01*
X016589Y020713D01*
X016584Y020702D01*
X01658Y020691D01*
X016576Y020679D01*
X016573Y020668D01*
X01657Y020657D01*
X016567Y020645D01*
X016564Y020634D01*
X016562Y020622D01*
X01656Y02061D01*
X016558Y020598D01*
X016557Y020587D01*
X016556Y020575D01*
X016555Y020563D01*
X016554Y020551D01*
X016554Y020539D01*
X016554Y020528D01*
X016555Y020516D01*
X016556Y020504D01*
X016557Y020492D01*
X016558Y02048D01*
X01656Y020469D01*
X016562Y020457D01*
X016564Y020445D01*
X016567Y020434D01*
X01657Y020422D01*
X016573Y020411D01*
X016576Y020399D01*
X01658Y020388D01*
X016584Y020377D01*
X016589Y020366D01*
X016593Y020355D01*
X016598Y020344D01*
X016604Y020334D01*
X016609Y020323D01*
X016615Y020313D01*
X016621Y020303D01*
X016627Y020293D01*
X016634Y020283D01*
X016641Y020273D01*
X016648Y020264D01*
X016655Y020254D01*
X016663Y020245D01*
X016671Y020236D01*
X016679Y020228D01*
X016687Y020219D01*
X016695Y020211D01*
X016704Y020203D01*
X016713Y020195D01*
X016722Y020187D01*
X016731Y02018D01*
X016741Y020173D01*
X016751Y020166D01*
X01676Y02016D01*
X01677Y020153D01*
X016781Y020147D01*
X016791Y020141D01*
X016802Y020136D01*
X016812Y020131D01*
X016823Y020126D01*
X016834Y020121D01*
X016845Y020117D01*
X016856Y020113D01*
X016867Y020109D01*
X016878Y020105D01*
X01689Y020102D01*
X016901Y020099D01*
X016913Y020096D01*
X016925Y020094D01*
X016936Y020092D01*
X016948Y02009D01*
X01696Y020089D01*
X016972Y020088D01*
X016983Y020087D01*
X016995Y020087D01*
X017007Y020087D01*
X017991D01*
X018003Y020087D01*
X018015Y020087D01*
X018027Y020088D01*
X018039Y020089D01*
X01805Y02009D01*
X018062Y020092D01*
X018074Y020094D01*
X018085Y020096D01*
X018097Y020099D01*
X018109Y020102D01*
X01812Y020105D01*
X018131Y020109D01*
X018142Y020113D01*
X018154Y020117D01*
X018165Y020121D01*
X018176Y020126D01*
X018186Y020131D01*
X018197Y020136D01*
X018207Y020141D01*
X018218Y020147D01*
X018228Y020153D01*
X018238Y02016D01*
X018248Y020166D01*
X018257Y020173D01*
X018267Y02018D01*
X018276Y020187D01*
X018285Y020195D01*
X018294Y020203D01*
X018303Y020211D01*
X018312Y020219D01*
X01832Y020228D01*
X018328Y020236D01*
X018336Y020245D01*
X018343Y020254D01*
X018351Y020264D01*
X018358Y020273D01*
X018364Y020283D01*
X018371Y020293D01*
X018377Y020303D01*
X018383Y020313D01*
X018389Y020323D01*
X018395Y020334D01*
X0184Y020344D01*
X018405Y020355D01*
X01841Y020366D01*
X018414Y020377D01*
X018418Y020388D01*
X018422Y020399D01*
X018425Y020411D01*
X018429Y020422D01*
X018432Y020434D01*
X018434Y020445D01*
X018437Y020457D01*
X018439Y020469D01*
X01844Y02048D01*
X018442Y020492D01*
X018443Y020504D01*
X018444Y020516D01*
X018444Y020528D01*
X018444Y020539D01*
X018444Y020551D01*
X018444Y020563D01*
X018443Y020575D01*
X018442Y020587D01*
X01844Y020598D01*
X018439Y02061D01*
X018437Y020622D01*
X018434Y020634D01*
X018432Y020645D01*
X018429Y020657D01*
X018425Y020668D01*
X018422Y020679D01*
X018418Y020691D01*
X018414Y020702D01*
X01841Y020713D01*
X018405Y020724D01*
X0184Y020734D01*
X018395Y020745D01*
X018389Y020755D01*
X018383Y020766D01*
X018377Y020776D01*
X018371Y020786D01*
X018364Y020796D01*
X018358Y020806D01*
X018351Y020815D01*
X018343Y020824D01*
X018336Y020833D01*
X018328Y020842D01*
X01832Y020851D01*
X018312Y02086D01*
X018303Y020868D01*
X018294Y020876D01*
X018285Y020884D01*
X018276Y020891D01*
X018267Y020899D01*
X018257Y020906D01*
X018248Y020913D01*
X018238Y020919D01*
X018228Y020925D01*
X018218Y020931D01*
X018207Y020937D01*
X018197Y020943D01*
X018186Y020948D01*
X018176Y020953D01*
X018165Y020958D01*
X018154Y020962D01*
X018142Y020966D01*
X018131Y02097D01*
X01812Y020974D01*
X018109Y020977D01*
X018097Y02098D01*
X018085Y020982D01*
X018074Y020985D01*
X018062Y020987D01*
X01805Y020988D01*
X018039Y02099D01*
X018027Y020991D01*
X018015Y020992D01*
X018003Y020992D01*
X017991Y020992D01*
D02*
G37*
G36*
X024497Y02174D02*
X024489Y02174D01*
X02448Y02174D01*
X024471Y021739D01*
X024462Y021738D01*
X024454Y021736D01*
X024445Y021735D01*
X024437Y021733D01*
X024428Y021731D01*
X02442Y021728D01*
X024412Y021725D01*
X024403Y021722D01*
X024395Y021719D01*
X02439Y021717D01*
X023459D01*
X023451Y021717D01*
X023443Y021716D01*
X023434Y021715D01*
X023426Y021714D01*
X023418Y021713D01*
X02341Y021711D01*
X023402Y02171D01*
X023394Y021707D01*
X023386Y021705D01*
X023378Y021702D01*
X02337Y021699D01*
X023363Y021696D01*
X023355Y021692D01*
X023348Y021688D01*
X023341Y021684D01*
X023333Y02168D01*
X023327Y021675D01*
X02332Y02167D01*
X023313Y021665D01*
X023307Y02166D01*
X023301Y021654D01*
X023295Y021649D01*
X023083Y021437D01*
X023077Y021431D01*
X023072Y021425D01*
X023066Y021418D01*
X023061Y021412D01*
X023056Y021405D01*
X023052Y021398D01*
X023047Y021391D01*
X023043Y021384D01*
X023039Y021376D01*
X023036Y021369D01*
X023032Y021361D01*
X023029Y021354D01*
X023027Y021346D01*
X023024Y021338D01*
X023022Y02133D01*
X02302Y021322D01*
X023018Y021314D01*
X023017Y021305D01*
X023016Y021297D01*
X023015Y021289D01*
X023015Y021281D01*
X023015Y021272D01*
Y020053D01*
X022072D01*
X02207Y020055D01*
X022063Y020059D01*
X022055Y020064D01*
X022048Y020069D01*
X02204Y020073D01*
X022032Y020077D01*
X022024Y02008D01*
X022016Y020084D01*
X022008Y020087D01*
X022Y020089D01*
X021991Y020092D01*
X021983Y020094D01*
X021975Y020096D01*
X021966Y020098D01*
X021957Y020099D01*
X021949Y0201D01*
X02194Y020101D01*
X021931Y020101D01*
X021922Y020101D01*
X021914Y020101D01*
X021905Y020101D01*
X021896Y0201D01*
X021888Y020099D01*
X021879Y020098D01*
X02187Y020096D01*
X021862Y020094D01*
X021853Y020092D01*
X021845Y020089D01*
X021837Y020087D01*
X021829Y020084D01*
X02182Y02008D01*
X021813Y020077D01*
X021805Y020073D01*
X021797Y020069D01*
X021789Y020064D01*
X021782Y020059D01*
X021775Y020055D01*
X021768Y020049D01*
X021761Y020044D01*
X021754Y020038D01*
X021748Y020033D01*
X021741Y020026D01*
X021735Y02002D01*
X02173Y020014D01*
X021724Y020007D01*
X021718Y02D01*
X021713Y019993D01*
X021708Y019986D01*
X021704Y019978D01*
X021699Y019971D01*
X021695Y019963D01*
X021691Y019955D01*
X021688Y019947D01*
X021684Y019939D01*
X021681Y019931D01*
X021678Y019923D01*
X021676Y019915D01*
X021674Y019906D01*
X021672Y019898D01*
X02167Y019889D01*
X021669Y01988D01*
X021668Y019872D01*
X021667Y019863D01*
X021667Y019854D01*
X021667Y019845D01*
X021667Y019837D01*
X021667Y019828D01*
X021668Y019819D01*
X021669Y019811D01*
X02167Y019802D01*
X021672Y019793D01*
X021674Y019785D01*
X021676Y019776D01*
X021678Y019768D01*
X021681Y01976D01*
X021684Y019752D01*
X021688Y019744D01*
X021691Y019736D01*
X021695Y019728D01*
X021699Y01972D01*
X021704Y019712D01*
X021708Y019705D01*
X021713Y019698D01*
X021718Y019691D01*
X021724Y019684D01*
X02173Y019677D01*
X021735Y019671D01*
X021741Y019664D01*
X021748Y019658D01*
X021754Y019653D01*
X021761Y019647D01*
X021768Y019642D01*
X021775Y019636D01*
X021782Y019631D01*
X021789Y019627D01*
X021797Y019622D01*
X021805Y019618D01*
X021813Y019614D01*
X02182Y019611D01*
X021829Y019607D01*
X021837Y019604D01*
X021845Y019602D01*
X021853Y019599D01*
X021862Y019597D01*
X02187Y019595D01*
X021879Y019593D01*
X021888Y019592D01*
X021896Y019591D01*
X021905Y01959D01*
X021914Y01959D01*
X021922Y01959D01*
X021931Y01959D01*
X02194Y01959D01*
X021949Y019591D01*
X021957Y019592D01*
X021966Y019593D01*
X021975Y019595D01*
X021983Y019597D01*
X021991Y019599D01*
X022Y019602D01*
X022008Y019604D01*
X022016Y019607D01*
X022024Y019611D01*
X022032Y019614D01*
X02204Y019618D01*
X022048Y019622D01*
X022055Y019627D01*
X022063Y019631D01*
X02207Y019636D01*
X022072Y019638D01*
X023015D01*
Y017693D01*
Y016354D01*
X022071D01*
X022069Y016356D01*
X022062Y01636D01*
X022054Y016365D01*
X022047Y01637D01*
X022039Y016374D01*
X022031Y016378D01*
X022023Y016381D01*
X022015Y016385D01*
X022007Y016388D01*
X021999Y01639D01*
X02199Y016393D01*
X021982Y016395D01*
X021973Y016397D01*
X021965Y016399D01*
X021956Y0164D01*
X021947Y016401D01*
X021939Y016402D01*
X02193Y016402D01*
X021921Y016402D01*
X021913Y016402D01*
X021904Y016402D01*
X021895Y016401D01*
X021886Y0164D01*
X021878Y016399D01*
X021869Y016397D01*
X021861Y016395D01*
X021852Y016393D01*
X021844Y01639D01*
X021836Y016388D01*
X021827Y016385D01*
X021819Y016381D01*
X021811Y016378D01*
X021804Y016374D01*
X021796Y01637D01*
X021788Y016365D01*
X021781Y01636D01*
X021774Y016356D01*
X021767Y01635D01*
X02176Y016345D01*
X021753Y016339D01*
X021747Y016334D01*
X02174Y016327D01*
X021734Y016321D01*
X021728Y016315D01*
X021723Y016308D01*
X021717Y016301D01*
X021712Y016294D01*
X021707Y016287D01*
X021703Y016279D01*
X021698Y016272D01*
X021694Y016264D01*
X02169Y016256D01*
X021687Y016248D01*
X021683Y01624D01*
X02168Y016232D01*
X021677Y016224D01*
X021675Y016216D01*
X021673Y016207D01*
X021671Y016199D01*
X021669Y01619D01*
X021668Y016181D01*
X021667Y016173D01*
X021666Y016164D01*
X021665Y016155D01*
X021665Y016146D01*
X021665Y016138D01*
X021666Y016129D01*
X021667Y01612D01*
X021668Y016112D01*
X021669Y016103D01*
X021671Y016094D01*
X021673Y016086D01*
X021675Y016077D01*
X021677Y016069D01*
X02168Y016061D01*
X021683Y016053D01*
X021687Y016044D01*
X02169Y016037D01*
X021694Y016029D01*
X021698Y016021D01*
X021703Y016013D01*
X021707Y016006D01*
X021712Y015999D01*
X021717Y015992D01*
X021723Y015985D01*
X021728Y015978D01*
X021734Y015972D01*
X02174Y015965D01*
X021747Y015959D01*
X021753Y015954D01*
X02176Y015948D01*
X021767Y015943D01*
X021774Y015937D01*
X021781Y015932D01*
X021788Y015928D01*
X021796Y015923D01*
X021804Y015919D01*
X021811Y015915D01*
X021819Y015912D01*
X021827Y015908D01*
X021836Y015905D01*
X021844Y015903D01*
X021852Y0159D01*
X021861Y015898D01*
X021869Y015896D01*
X021878Y015894D01*
X021886Y015893D01*
X021895Y015892D01*
X021904Y015891D01*
X021913Y015891D01*
X021921Y015891D01*
X02193Y015891D01*
X021939Y015891D01*
X021947Y015892D01*
X021956Y015893D01*
X021965Y015894D01*
X021973Y015896D01*
X021982Y015898D01*
X02199Y0159D01*
X021999Y015903D01*
X022007Y015905D01*
X022015Y015908D01*
X022023Y015912D01*
X022031Y015915D01*
X022039Y015919D01*
X022047Y015923D01*
X022054Y015928D01*
X022062Y015932D01*
X022069Y015937D01*
X022071Y015939D01*
X023015D01*
Y015657D01*
X023015Y015649D01*
X023015Y015641D01*
X023016Y015633D01*
X023017Y015624D01*
X023018Y015616D01*
X02302Y015608D01*
X023022Y0156D01*
X023024Y015592D01*
X023027Y015584D01*
X023029Y015576D01*
X023032Y015568D01*
X023036Y015561D01*
X023039Y015553D01*
X023043Y015546D01*
X023047Y015539D01*
X023052Y015532D01*
X023056Y015525D01*
X023061Y015518D01*
X023066Y015512D01*
X023072Y015505D01*
X023077Y015499D01*
X023083Y015493D01*
X023386Y01519D01*
X023392Y015184D01*
X023398Y015179D01*
X023405Y015173D01*
X023411Y015168D01*
X023418Y015163D01*
X023425Y015159D01*
X023432Y015154D01*
X023439Y01515D01*
X023446Y015146D01*
X023454Y015143D01*
X023461Y01514D01*
X023469Y015136D01*
X023477Y015134D01*
X023485Y015131D01*
X023493Y015129D01*
X023501Y015127D01*
X023509Y015126D01*
X023517Y015124D01*
X023526Y015123D01*
X023534Y015122D01*
X023542Y015122D01*
X02355Y015122D01*
X030629D01*
X030637Y015122D01*
X030646Y015122D01*
X030654Y015123D01*
X030662Y015124D01*
X03067Y015126D01*
X030679Y015127D01*
X030687Y015129D01*
X030695Y015131D01*
X030703Y015134D01*
X03071Y015136D01*
X030718Y01514D01*
X030726Y015143D01*
X030733Y015146D01*
X030741Y01515D01*
X030748Y015154D01*
X030755Y015159D01*
X030762Y015163D01*
X030768Y015168D01*
X030775Y015173D01*
X030781Y015179D01*
X030788Y015184D01*
X030794Y01519D01*
X03092Y015316D01*
X030925Y015322D01*
X030931Y015328D01*
X030936Y015334D01*
X030941Y015341D01*
X030946Y015348D01*
X030951Y015355D01*
X030955Y015362D01*
X030959Y015369D01*
X030963Y015376D01*
X030967Y015384D01*
X03097Y015391D01*
X030973Y015399D01*
X030976Y015407D01*
X030978Y015415D01*
X03098Y015423D01*
X030982Y015431D01*
X030984Y015439D01*
X030985Y015447D01*
X030986Y015455D01*
X030987Y015464D01*
X030987Y015472D01*
X030988Y01548D01*
Y015574D01*
X031238D01*
Y016639D01*
X030988D01*
Y017803D01*
X030987Y017811D01*
X030987Y01782D01*
X030986Y017828D01*
X030985Y017836D01*
X030984Y017844D01*
X030982Y017853D01*
X03098Y017861D01*
X030978Y017869D01*
X030976Y017877D01*
X030973Y017884D01*
X03097Y017892D01*
X030967Y0179D01*
X030963Y017907D01*
X030959Y017915D01*
X030955Y017922D01*
X030951Y017929D01*
X030946Y017936D01*
X030941Y017942D01*
X030936Y017949D01*
X030931Y017955D01*
X030925Y017962D01*
X03092Y017968D01*
X030754Y018133D01*
X030748Y018139D01*
X030742Y018144D01*
X030736Y01815D01*
X030729Y018155D01*
X030722Y01816D01*
X030715Y018164D01*
X030708Y018168D01*
X030701Y018173D01*
X030694Y018176D01*
X030686Y01818D01*
X030679Y018183D01*
X030671Y018186D01*
X030663Y018189D01*
X030655Y018192D01*
X030647Y018194D01*
X030639Y018196D01*
X030631Y018197D01*
X030623Y018199D01*
X030615Y0182D01*
X030606Y0182D01*
X030598Y018201D01*
X03059Y018201D01*
X029588D01*
X029587Y018201D01*
Y019239D01*
X029609Y01928D01*
X029647D01*
X029649Y019279D01*
X029659Y019274D01*
X029664Y019271D01*
X029667Y019267D01*
X029689Y019233D01*
X029689Y01923D01*
X029689Y019224D01*
X029688Y019215D01*
X029688Y019206D01*
X029688Y019197D01*
X029689Y019189D01*
X029689Y01918D01*
X029691Y019171D01*
X029692Y019163D01*
X029694Y019154D01*
X029695Y019146D01*
X029698Y019137D01*
X0297Y019129D01*
X029703Y01912D01*
X029706Y019112D01*
X029709Y019104D01*
X029713Y019096D01*
X029717Y019088D01*
X029721Y019081D01*
X029725Y019073D01*
X02973Y019066D01*
X029735Y019059D01*
X02974Y019052D01*
X029746Y019045D01*
X029751Y019038D01*
X029757Y019031D01*
X029763Y019025D01*
X029769Y019019D01*
X029776Y019013D01*
X029783Y019008D01*
X029789Y019002D01*
X029797Y018997D01*
X029804Y018992D01*
X029811Y018987D01*
X029819Y018983D01*
X029826Y018979D01*
X029834Y018975D01*
X029842Y018971D01*
X02985Y018968D01*
X029858Y018965D01*
X029867Y018962D01*
X029875Y01896D01*
X029883Y018958D01*
X029892Y018956D01*
X029901Y018954D01*
X029909Y018953D01*
X029918Y018952D01*
X029927Y018951D01*
X029935Y01895D01*
X029944Y01895D01*
X029953Y01895D01*
X029962Y018951D01*
X02997Y018952D01*
X029979Y018953D01*
X029988Y018954D01*
X029996Y018956D01*
X030005Y018958D01*
X030013Y01896D01*
X030022Y018962D01*
X03003Y018965D01*
X030038Y018968D01*
X030046Y018971D01*
X030054Y018975D01*
X030062Y018979D01*
X03007Y018983D01*
X030077Y018987D01*
X030084Y018992D01*
X030092Y018997D01*
X030099Y019002D01*
X030106Y019008D01*
X030112Y019013D01*
X030119Y019019D01*
X030125Y019025D01*
X030131Y019031D01*
X030137Y019038D01*
X030143Y019045D01*
X030148Y019052D01*
X030153Y019059D01*
X030158Y019066D01*
X030163Y019073D01*
X030167Y019081D01*
X030171Y019088D01*
X030175Y019096D01*
X030179Y019104D01*
X030182Y019112D01*
X030185Y01912D01*
X030188Y019129D01*
X030191Y019137D01*
X030193Y019146D01*
X030195Y019154D01*
X030196Y019163D01*
X030198Y019171D01*
X030199Y01918D01*
X030199Y019189D01*
X0302Y019197D01*
X0302Y019206D01*
X0302Y019215D01*
X030199Y019224D01*
X030199Y01923D01*
X030199Y019233D01*
X030221Y019267D01*
X030224Y019271D01*
X030229Y019274D01*
X030239Y019279D01*
X030241Y01928D01*
X030279D01*
Y019909D01*
X029609D01*
X029587Y01995D01*
Y020228D01*
Y020839D01*
X02968D01*
Y020839D01*
X030228D01*
Y020894D01*
X030234Y020895D01*
X030242Y020898D01*
X03025Y020901D01*
X030258Y020904D01*
X030267Y020907D01*
X030274Y020911D01*
X030282Y020914D01*
X03029Y020919D01*
X030298Y020923D01*
X030305Y020928D01*
X030312Y020933D01*
X030319Y020938D01*
X030326Y020943D01*
X030333Y020949D01*
X030339Y020955D01*
X030346Y020961D01*
X030352Y020967D01*
X030357Y020974D01*
X030363Y02098D01*
X030368Y020987D01*
X030374Y020994D01*
X030379Y021001D01*
X030383Y021009D01*
X030388Y021016D01*
X030392Y021024D01*
X030396Y021032D01*
X030399Y02104D01*
X030403Y021048D01*
X030406Y021056D01*
X030409Y021064D01*
X030411Y021073D01*
X030413Y021081D01*
X030415Y02109D01*
X030417Y021098D01*
X030418Y021107D01*
X030419Y021116D01*
X03042Y021124D01*
X03042Y021133D01*
X030421Y021142D01*
X03042Y02115D01*
X03042Y021159D01*
X030419Y021168D01*
X030418Y021177D01*
X030417Y021185D01*
X030415Y021194D01*
X030413Y021202D01*
X030411Y021211D01*
X030409Y021219D01*
X030406Y021227D01*
X030403Y021236D01*
X030399Y021244D01*
X030396Y021252D01*
X030392Y021259D01*
X030388Y021267D01*
X030383Y021275D01*
X030379Y021282D01*
X030374Y021289D01*
X030368Y021296D01*
X030363Y021303D01*
X030357Y02131D01*
X030352Y021316D01*
X030346Y021323D01*
X030339Y021329D01*
X030333Y021335D01*
X030326Y02134D01*
X030319Y021346D01*
X030312Y021351D01*
X030305Y021356D01*
X030298Y02136D01*
X03029Y021365D01*
X030282Y021369D01*
X030274Y021373D01*
X030267Y021376D01*
X030258Y02138D01*
X03025Y021383D01*
X030242Y021386D01*
X030234Y021388D01*
X030228Y02139D01*
Y021469D01*
X029558D01*
Y021469D01*
X028574D01*
Y021469D01*
X027905D01*
Y021395D01*
X027903Y021394D01*
X027895Y021392D01*
X027886Y02139D01*
X027878Y021387D01*
X02787Y021384D01*
X027862Y02138D01*
X027854Y021377D01*
X027846Y021373D01*
X027838Y021369D01*
X027831Y021364D01*
X027823Y02136D01*
X027816Y021355D01*
X027809Y02135D01*
X027802Y021344D01*
X027796Y021339D01*
X027789Y021333D01*
X027783Y021327D01*
X027777Y02132D01*
X027771Y021314D01*
X027765Y021307D01*
X02776Y0213D01*
X027755Y021293D01*
X02775Y021286D01*
X027745Y021279D01*
X027741Y021271D01*
X027737Y021263D01*
X027733Y021256D01*
X027729Y021248D01*
X027726Y02124D01*
X027723Y021231D01*
X02772Y021223D01*
X027717Y021215D01*
X027715Y021206D01*
X027713Y021198D01*
X027712Y021189D01*
X02771Y021181D01*
X027709Y021172D01*
X027708Y021163D01*
X027708Y021154D01*
X027708Y021146D01*
X027708Y021137D01*
X027708Y021128D01*
X027709Y021119D01*
X02771Y021111D01*
X027712Y021102D01*
X027713Y021094D01*
X027715Y021085D01*
X027717Y021077D01*
X02772Y021068D01*
X027723Y02106D01*
X027726Y021052D01*
X027729Y021044D01*
X027733Y021036D01*
X027737Y021028D01*
X027741Y02102D01*
X027745Y021013D01*
X02775Y021005D01*
X027755Y020998D01*
X02776Y020991D01*
X027765Y020984D01*
X027771Y020977D01*
X027777Y020971D01*
X027783Y020965D01*
X027789Y020959D01*
X027796Y020953D01*
X027802Y020947D01*
X027809Y020942D01*
X027816Y020937D01*
X027823Y020932D01*
X027831Y020927D01*
X027838Y020923D01*
X027846Y020918D01*
X027854Y020915D01*
X027862Y020911D01*
X02787Y020908D01*
X027878Y020905D01*
X027886Y020902D01*
X027895Y020899D01*
X027903Y020897D01*
X027905Y020897D01*
Y020839D01*
X028088D01*
X028099Y02079D01*
X028091Y020787D01*
X028083Y020785D01*
X028075Y020782D01*
X028067Y020778D01*
X028059Y020775D01*
X028051Y020771D01*
X028043Y020767D01*
X028036Y020762D01*
X028028Y020758D01*
X028021Y020753D01*
X028014Y020747D01*
X028007Y020742D01*
X028Y020736D01*
X027994Y020731D01*
X027988Y020724D01*
X027981Y020718D01*
X027976Y020712D01*
X02797Y020705D01*
X027965Y020698D01*
X027959Y020691D01*
X027954Y020684D01*
X02795Y020676D01*
X027945Y020669D01*
X027941Y020661D01*
X027937Y020653D01*
X027934Y020645D01*
X02793Y020637D01*
X027927Y020629D01*
X027925Y020621D01*
X027922Y020613D01*
X02792Y020604D01*
X027918Y020596D01*
X027916Y020587D01*
X027915Y020578D01*
X027914Y02057D01*
X027913Y020561D01*
X027913Y020559D01*
X027857D01*
Y019921D01*
X027857D01*
Y019252D01*
X027872D01*
X027875Y019251D01*
X027884Y019247D01*
X027889Y019244D01*
X027895Y019237D01*
X027916Y019207D01*
X027917Y019202D01*
X027917Y019197D01*
X027917Y019188D01*
X027917Y019179D01*
X027918Y019171D01*
X027919Y019162D01*
X02792Y019153D01*
X027922Y019145D01*
X027924Y019136D01*
X027926Y019128D01*
X027928Y019119D01*
X027931Y019111D01*
X027934Y019103D01*
X027938Y019095D01*
X027941Y019087D01*
X027945Y019079D01*
X027949Y019071D01*
X027954Y019064D01*
X027958Y019056D01*
X027963Y019049D01*
X027968Y019042D01*
X027974Y019035D01*
X02798Y019029D01*
X027985Y019022D01*
X027991Y019016D01*
X027998Y01901D01*
X028004Y019004D01*
X028011Y018998D01*
X028018Y018993D01*
X028025Y018988D01*
X028032Y018983D01*
X028039Y018978D01*
X028047Y018974D01*
X028055Y01897D01*
X028063Y018966D01*
X02807Y018962D01*
X028079Y018959D01*
X028087Y018956D01*
X028095Y018953D01*
X028103Y01895D01*
X028112Y018948D01*
X02812Y018946D01*
X028129Y018945D01*
X028138Y018943D01*
X028146Y018942D01*
X028155Y018942D01*
X028164Y018941D01*
X028172Y018941D01*
X028181Y018941D01*
X02819Y018942D01*
X028199Y018942D01*
X028207Y018943D01*
X028216Y018945D01*
X028225Y018946D01*
X028233Y018948D01*
X028241Y01895D01*
X02825Y018953D01*
X028258Y018956D01*
X028266Y018959D01*
X028274Y018962D01*
X028282Y018966D01*
X02829Y01897D01*
X028298Y018974D01*
X028305Y018978D01*
X028313Y018983D01*
X02832Y018988D01*
X028327Y018993D01*
X028334Y018998D01*
X028341Y019004D01*
X028347Y01901D01*
X028353Y019016D01*
X028359Y019022D01*
X028365Y019029D01*
X028371Y019035D01*
X028376Y019042D01*
X028382Y019049D01*
X028386Y019056D01*
X028391Y019064D01*
X028396Y019071D01*
X0284Y019079D01*
X028404Y019087D01*
X028407Y019095D01*
X028411Y019103D01*
X028414Y019111D01*
X028416Y019119D01*
X028419Y019128D01*
X028421Y019136D01*
X028423Y019145D01*
X028425Y019153D01*
X028426Y019162D01*
X028427Y019171D01*
X028428Y019179D01*
X028428Y019188D01*
X028428Y019197D01*
X028428Y019202D01*
X028429Y019207D01*
X028449Y019237D01*
X028456Y019244D01*
X028461Y019247D01*
X02847Y019251D01*
X028473Y019252D01*
X029039D01*
Y019379D01*
X029122D01*
Y018105D01*
X029122Y018097D01*
X029123Y018088D01*
X029124Y01808D01*
X029125Y018072D01*
X029126Y018064D01*
X029128Y018056D01*
X02913Y018047D01*
X029132Y018039D01*
X029134Y018032D01*
X029137Y018024D01*
X02914Y018016D01*
X029143Y018008D01*
X029147Y018001D01*
X029151Y017994D01*
X029155Y017986D01*
X029159Y017979D01*
X029164Y017972D01*
X029169Y017966D01*
X029174Y017959D01*
X029179Y017953D01*
X029185Y017947D01*
X02919Y017941D01*
X029327Y017804D01*
X029333Y017798D01*
X029339Y017793D01*
X029345Y017787D01*
X029352Y017782D01*
X029359Y017778D01*
X029366Y017773D01*
X029373Y017769D01*
X02938Y017764D01*
X029387Y017761D01*
X029395Y017757D01*
X029402Y017754D01*
X02941Y017751D01*
X029418Y017748D01*
X029426Y017745D01*
X029434Y017743D01*
X029442Y017741D01*
X02945Y01774D01*
X029458Y017738D01*
X029466Y017737D01*
X029475Y017737D01*
X029483Y017736D01*
X029491Y017736D01*
X030493D01*
X030523Y017707D01*
Y016639D01*
X030273D01*
Y016229D01*
X030223Y016225D01*
X030222Y016229D01*
X03022Y016241D01*
X030218Y016253D01*
X030215Y016265D01*
X030212Y016277D01*
X030209Y016289D01*
X030206Y016301D01*
X030202Y016312D01*
X030198Y016324D01*
X030193Y016335D01*
X030189Y016347D01*
X030184Y016358D01*
X030178Y016369D01*
X030173Y01638D01*
X030167Y01639D01*
X030161Y016401D01*
X030155Y016412D01*
X030148Y016422D01*
X030141Y016432D01*
X030134Y016442D01*
X030127Y016452D01*
X030119Y016461D01*
X030111Y016471D01*
X030103Y01648D01*
X030095Y016489D01*
X030086Y016497D01*
X030078Y016506D01*
X030069Y016514D01*
X030059Y016522D01*
X03005Y01653D01*
X03004Y016538D01*
X030031Y016545D01*
X030021Y016552D01*
X030011Y016559D01*
X03Y016566D01*
X02999Y016572D01*
X029979Y016578D01*
X029969Y016584D01*
X029958Y01659D01*
X029947Y016595D01*
X029935Y0166D01*
X029924Y016604D01*
X029913Y016609D01*
X029901Y016613D01*
X02989Y016617D01*
X029878Y01662D01*
X029866Y016623D01*
X029854Y016626D01*
X029842Y016629D01*
X02983Y016631D01*
X029818Y016633D01*
X029806Y016635D01*
X029794Y016636D01*
X029782Y016637D01*
X02977Y016638D01*
X029757Y016639D01*
X029745Y016639D01*
X029733Y016639D01*
X029721Y016638D01*
X029708Y016637D01*
X029696Y016636D01*
X029684Y016635D01*
X029672Y016633D01*
X02966Y016631D01*
X029648Y016629D01*
X029636Y016626D01*
X029624Y016623D01*
X029612Y01662D01*
X029601Y016617D01*
X029589Y016613D01*
X029578Y016609D01*
X029566Y016604D01*
X029555Y0166D01*
X029544Y016595D01*
X029533Y01659D01*
X029522Y016584D01*
X029511Y016578D01*
X0295Y016572D01*
X02949Y016566D01*
X02948Y016559D01*
X029469Y016552D01*
X02946Y016545D01*
X02945Y016538D01*
X02944Y01653D01*
X029431Y016522D01*
X029422Y016514D01*
X029413Y016506D01*
X029404Y016497D01*
X029395Y016489D01*
X029387Y01648D01*
X029379Y016471D01*
X029371Y016461D01*
X029364Y016452D01*
X029356Y016442D01*
X029349Y016432D01*
X029342Y016422D01*
X029336Y016412D01*
X029329Y016401D01*
X029323Y01639D01*
X029317Y01638D01*
X029312Y016369D01*
X029307Y016358D01*
X029302Y016347D01*
X029297Y016335D01*
X029293Y016324D01*
X029289Y016312D01*
X029285Y016301D01*
X029281Y016289D01*
X029281Y016288D01*
X029257Y016283D01*
X029254D01*
X029229Y016288D01*
X029229Y016289D01*
X029226Y016301D01*
X029222Y016312D01*
X029218Y016324D01*
X029213Y016335D01*
X029209Y016347D01*
X029204Y016358D01*
X029198Y016369D01*
X029193Y01638D01*
X029187Y01639D01*
X029181Y016401D01*
X029175Y016412D01*
X029168Y016422D01*
X029161Y016432D01*
X029154Y016442D01*
X029147Y016452D01*
X029139Y016461D01*
X029131Y016471D01*
X029123Y01648D01*
X029115Y016489D01*
X029106Y016497D01*
X029098Y016506D01*
X029089Y016514D01*
X029079Y016522D01*
X02907Y01653D01*
X02906Y016538D01*
X029051Y016545D01*
X029041Y016552D01*
X029031Y016559D01*
X02902Y016566D01*
X02901Y016572D01*
X028999Y016578D01*
X028989Y016584D01*
X028978Y01659D01*
X028967Y016595D01*
X028955Y0166D01*
X028944Y016604D01*
X028933Y016609D01*
X028921Y016613D01*
X02891Y016617D01*
X028898Y01662D01*
X028886Y016623D01*
X028874Y016626D01*
X028862Y016629D01*
X02885Y016631D01*
X028838Y016633D01*
X028826Y016635D01*
X028814Y016636D01*
X028802Y016637D01*
X02879Y016638D01*
X028777Y016639D01*
X028765Y016639D01*
X028753Y016639D01*
X028741Y016638D01*
X028728Y016637D01*
X028716Y016636D01*
X028704Y016635D01*
X028692Y016633D01*
X02868Y016631D01*
X028668Y016629D01*
X028656Y016626D01*
X028644Y016623D01*
X028632Y01662D01*
X028621Y016617D01*
X028609Y016613D01*
X028598Y016609D01*
X028586Y016604D01*
X028575Y0166D01*
X028564Y016595D01*
X028553Y01659D01*
X028542Y016584D01*
X028531Y016578D01*
X02852Y016572D01*
X02851Y016566D01*
X0285Y016559D01*
X028489Y016552D01*
X02848Y016545D01*
X02847Y016538D01*
X02846Y01653D01*
X028451Y016522D01*
X028442Y016514D01*
X028433Y016506D01*
X028424Y016497D01*
X028415Y016489D01*
X028407Y01648D01*
X028399Y016471D01*
X028391Y016461D01*
X028384Y016452D01*
X028376Y016442D01*
X028369Y016432D01*
X028362Y016422D01*
X028356Y016412D01*
X028349Y016401D01*
X028343Y01639D01*
X028337Y01638D01*
X028332Y016369D01*
X028327Y016358D01*
X028322Y016347D01*
X028317Y016335D01*
X028313Y016324D01*
X028309Y016312D01*
X028305Y016301D01*
X028301Y016289D01*
X028298Y016277D01*
X028295Y016265D01*
X028292Y016253D01*
X02829Y016241D01*
X028288Y016229D01*
X028286Y016217D01*
X028285Y016205D01*
X028284Y016193D01*
X028283Y016181D01*
X028283Y016169D01*
X028283Y016156D01*
Y016056D01*
X028283Y016044D01*
X028283Y016032D01*
X028284Y01602D01*
X028285Y016007D01*
X028286Y015995D01*
X028288Y015983D01*
X02829Y015971D01*
X028292Y015959D01*
X028295Y015947D01*
X028298Y015935D01*
X028301Y015924D01*
X028305Y015912D01*
X028309Y0159D01*
X028313Y015889D01*
X028317Y015877D01*
X028322Y015866D01*
X028327Y015855D01*
X028332Y015844D01*
X028337Y015833D01*
X028343Y015822D01*
X028349Y015812D01*
X028356Y015801D01*
X028362Y015791D01*
X028369Y015781D01*
X028376Y015771D01*
X028384Y015761D01*
X028391Y015751D01*
X028399Y015742D01*
X028407Y015733D01*
X028415Y015724D01*
X028424Y015715D01*
X028433Y015707D01*
X028442Y015698D01*
X028451Y01569D01*
X02846Y015682D01*
X02847Y015675D01*
X02848Y015667D01*
X028489Y01566D01*
X0285Y015653D01*
X02851Y015647D01*
X02852Y01564D01*
X028505Y015593D01*
X028502Y015587D01*
X027008D01*
X027005Y015593D01*
X02699Y01564D01*
X027Y015647D01*
X027011Y015653D01*
X027021Y01566D01*
X027031Y015667D01*
X02704Y015675D01*
X02705Y015682D01*
X027059Y01569D01*
X027069Y015698D01*
X027078Y015707D01*
X027086Y015715D01*
X027095Y015724D01*
X027103Y015733D01*
X027111Y015742D01*
X027119Y015751D01*
X027127Y015761D01*
X027134Y015771D01*
X027141Y015781D01*
X027148Y015791D01*
X027155Y015801D01*
X027161Y015812D01*
X027167Y015822D01*
X027173Y015833D01*
X027178Y015844D01*
X027184Y015855D01*
X027189Y015866D01*
X027193Y015877D01*
X027198Y015889D01*
X027202Y0159D01*
X027206Y015912D01*
X027209Y015924D01*
X027212Y015935D01*
X027215Y015947D01*
X027218Y015959D01*
X02722Y015971D01*
X027222Y015983D01*
X027224Y015995D01*
X027225Y016007D01*
X027226Y01602D01*
X027227Y016032D01*
X027227Y016044D01*
X027228Y016056D01*
Y016156D01*
X027227Y016169D01*
X027227Y016181D01*
X027226Y016193D01*
X027225Y016205D01*
X027224Y016217D01*
X027222Y016229D01*
X02722Y016241D01*
X027218Y016253D01*
X027215Y016265D01*
X027212Y016277D01*
X027209Y016289D01*
X027206Y016301D01*
X027202Y016312D01*
X027198Y016324D01*
X027193Y016335D01*
X027189Y016347D01*
X027184Y016358D01*
X027178Y016369D01*
X027173Y01638D01*
X027167Y01639D01*
X027161Y016401D01*
X027155Y016412D01*
X027148Y016422D01*
X027141Y016432D01*
X027134Y016442D01*
X027127Y016452D01*
X027119Y016461D01*
X027111Y016471D01*
X027103Y01648D01*
X027095Y016489D01*
X027086Y016497D01*
X027078Y016506D01*
X027069Y016514D01*
X027059Y016522D01*
X02705Y01653D01*
X02704Y016538D01*
X027031Y016545D01*
X027021Y016552D01*
X027011Y016559D01*
X027Y016566D01*
X02699Y016572D01*
X026979Y016578D01*
X026969Y016584D01*
X026958Y01659D01*
X026947Y016595D01*
X026935Y0166D01*
X026924Y016604D01*
X026913Y016609D01*
X026901Y016613D01*
X02689Y016617D01*
X026878Y01662D01*
X026866Y016623D01*
X026854Y016626D01*
X026842Y016629D01*
X02683Y016631D01*
X026818Y016633D01*
X026806Y016635D01*
X026794Y016636D01*
X026782Y016637D01*
X02677Y016638D01*
X026757Y016639D01*
X026745Y016639D01*
X026733Y016639D01*
X026721Y016638D01*
X026708Y016637D01*
X026696Y016636D01*
X026684Y016635D01*
X026672Y016633D01*
X02666Y016631D01*
X026648Y016629D01*
X026636Y016626D01*
X026624Y016623D01*
X026612Y01662D01*
X026601Y016617D01*
X026589Y016613D01*
X026578Y016609D01*
X026566Y016604D01*
X026555Y0166D01*
X026544Y016595D01*
X026533Y01659D01*
X026522Y016584D01*
X026511Y016578D01*
X0265Y016572D01*
X02649Y016566D01*
X02648Y016559D01*
X026469Y016552D01*
X02646Y016545D01*
X02645Y016538D01*
X02644Y01653D01*
X026431Y016522D01*
X026422Y016514D01*
X026413Y016506D01*
X026404Y016497D01*
X026395Y016489D01*
X026387Y01648D01*
X026379Y016471D01*
X026371Y016461D01*
X026364Y016452D01*
X026356Y016442D01*
X026349Y016432D01*
X026342Y016422D01*
X026336Y016412D01*
X026329Y016401D01*
X026323Y01639D01*
X026317Y01638D01*
X026312Y016369D01*
X026307Y016358D01*
X026302Y016347D01*
X026297Y016335D01*
X026293Y016324D01*
X026289Y016312D01*
X026285Y016301D01*
X026281Y016289D01*
X026278Y016277D01*
X026275Y016265D01*
X026272Y016253D01*
X02627Y016241D01*
X026268Y016229D01*
X026266Y016217D01*
X026265Y016205D01*
X026264Y016193D01*
X026263Y016181D01*
X026263Y016169D01*
X026263Y016156D01*
Y016056D01*
X026263Y016044D01*
X026263Y016032D01*
X026264Y01602D01*
X026265Y016007D01*
X026266Y015995D01*
X026268Y015983D01*
X02627Y015971D01*
X026272Y015959D01*
X026275Y015947D01*
X026278Y015935D01*
X026281Y015924D01*
X026285Y015912D01*
X026289Y0159D01*
X026293Y015889D01*
X026297Y015877D01*
X026302Y015866D01*
X026307Y015855D01*
X026312Y015844D01*
X026317Y015833D01*
X026323Y015822D01*
X026329Y015812D01*
X026336Y015801D01*
X026342Y015791D01*
X026349Y015781D01*
X026356Y015771D01*
X026364Y015761D01*
X026371Y015751D01*
X026379Y015742D01*
X026387Y015733D01*
X026395Y015724D01*
X026404Y015715D01*
X026413Y015707D01*
X026422Y015698D01*
X026431Y01569D01*
X02644Y015682D01*
X02645Y015675D01*
X02646Y015667D01*
X026469Y01566D01*
X02648Y015653D01*
X02649Y015647D01*
X0265Y01564D01*
X026485Y015593D01*
X026482Y015587D01*
X023647D01*
X02348Y015754D01*
Y016142D01*
Y017509D01*
X024346D01*
X024348Y017507D01*
X024355Y017503D01*
X024362Y017498D01*
X02437Y017493D01*
X024378Y017489D01*
X024385Y017485D01*
X024393Y017482D01*
X024401Y017478D01*
X02441Y017475D01*
X024418Y017473D01*
X024426Y01747D01*
X024435Y017468D01*
X024443Y017466D01*
X024452Y017464D01*
X02446Y017463D01*
X024469Y017462D01*
X024478Y017461D01*
X024487Y017461D01*
X024495Y017461D01*
X024504Y017461D01*
X024513Y017461D01*
X024521Y017462D01*
X02453Y017463D01*
X024539Y017464D01*
X024547Y017466D01*
X024556Y017468D01*
X024564Y01747D01*
X024573Y017473D01*
X024581Y017475D01*
X024589Y017478D01*
X024597Y017482D01*
X024605Y017485D01*
X024613Y017489D01*
X024621Y017493D01*
X024628Y017498D01*
X024636Y017503D01*
X024643Y017507D01*
X02465Y017513D01*
X024657Y017518D01*
X024663Y017524D01*
X02467Y017529D01*
X024676Y017536D01*
X024682Y017542D01*
X024688Y017548D01*
X024694Y017555D01*
X024699Y017562D01*
X024704Y017569D01*
X024709Y017576D01*
X024714Y017584D01*
X024718Y017591D01*
X024723Y017599D01*
X024726Y017607D01*
X02473Y017615D01*
X024733Y017623D01*
X024736Y017631D01*
X024739Y017639D01*
X024742Y017647D01*
X024744Y017656D01*
X024746Y017664D01*
X024748Y017673D01*
X024749Y017682D01*
X02475Y01769D01*
X024751Y017699D01*
X024751Y017708D01*
X024751Y017717D01*
X024751Y017725D01*
X024751Y017734D01*
X02475Y017743D01*
X024749Y017751D01*
X024748Y01776D01*
X024746Y017769D01*
X024744Y017777D01*
X024742Y017786D01*
X024739Y017794D01*
X024736Y017802D01*
X024733Y01781D01*
X02473Y017818D01*
X024726Y017826D01*
X024723Y017834D01*
X024718Y017842D01*
X024714Y01785D01*
X024709Y017857D01*
X024704Y017864D01*
X024699Y017871D01*
X024694Y017878D01*
X024688Y017885D01*
X024682Y017891D01*
X024676Y017898D01*
X02467Y017904D01*
X024663Y017909D01*
X024657Y017915D01*
X02465Y01792D01*
X024643Y017926D01*
X024636Y017931D01*
X024628Y017935D01*
X024621Y01794D01*
X024613Y017944D01*
X024605Y017948D01*
X024597Y017951D01*
X024589Y017955D01*
X024581Y017958D01*
X024573Y01796D01*
X024564Y017963D01*
X024556Y017965D01*
X024547Y017967D01*
X024539Y017969D01*
X02453Y01797D01*
X024521Y017971D01*
X024513Y017972D01*
X024504Y017972D01*
X024495Y017972D01*
X024487Y017972D01*
X024478Y017972D01*
X024469Y017971D01*
X02446Y01797D01*
X024452Y017969D01*
X024443Y017967D01*
X024435Y017965D01*
X024426Y017963D01*
X024418Y01796D01*
X02441Y017958D01*
X024401Y017955D01*
X024393Y017951D01*
X024385Y017948D01*
X024378Y017944D01*
X02437Y01794D01*
X024362Y017935D01*
X024355Y017931D01*
X024348Y017926D01*
X024346Y017924D01*
X02348D01*
Y01985D01*
Y021176D01*
X023555Y021252D01*
X02439D01*
X024395Y021249D01*
X024403Y021246D01*
X024412Y021243D01*
X02442Y02124D01*
X024428Y021238D01*
X024437Y021236D01*
X024445Y021234D01*
X024454Y021232D01*
X024462Y021231D01*
X024471Y02123D01*
X02448Y021229D01*
X024489Y021228D01*
X024497Y021228D01*
X024506Y021228D01*
X024515Y021229D01*
X024523Y02123D01*
X024532Y021231D01*
X024541Y021232D01*
X024549Y021234D01*
X024558Y021236D01*
X024566Y021238D01*
X024575Y02124D01*
X024583Y021243D01*
X024591Y021246D01*
X024599Y021249D01*
X024607Y021253D01*
X024615Y021257D01*
X024623Y021261D01*
X02463Y021266D01*
X024638Y02127D01*
X024645Y021275D01*
X024652Y02128D01*
X024659Y021286D01*
X024665Y021291D01*
X024672Y021297D01*
X024678Y021303D01*
X024684Y02131D01*
X02469Y021316D01*
X024696Y021323D01*
X024701Y02133D01*
X024706Y021337D01*
X024711Y021344D01*
X024716Y021351D01*
X02472Y021359D01*
X024724Y021367D01*
X024728Y021374D01*
X024732Y021382D01*
X024735Y02139D01*
X024738Y021399D01*
X024741Y021407D01*
X024744Y021415D01*
X024746Y021424D01*
X024748Y021432D01*
X024749Y021441D01*
X024751Y021449D01*
X024752Y021458D01*
X024753Y021467D01*
X024753Y021476D01*
X024753Y021484D01*
X024753Y021493D01*
X024753Y021502D01*
X024752Y02151D01*
X024751Y021519D01*
X024749Y021528D01*
X024748Y021536D01*
X024746Y021545D01*
X024744Y021553D01*
X024741Y021562D01*
X024738Y02157D01*
X024735Y021578D01*
X024732Y021586D01*
X024728Y021594D01*
X024724Y021602D01*
X02472Y02161D01*
X024716Y021617D01*
X024711Y021625D01*
X024706Y021632D01*
X024701Y021639D01*
X024696Y021646D01*
X02469Y021652D01*
X024684Y021659D01*
X024678Y021665D01*
X024672Y021671D01*
X024665Y021677D01*
X024659Y021683D01*
X024652Y021688D01*
X024645Y021693D01*
X024638Y021698D01*
X02463Y021703D01*
X024623Y021707D01*
X024615Y021711D01*
X024607Y021715D01*
X024599Y021719D01*
X024591Y021722D01*
X024583Y021725D01*
X024575Y021728D01*
X024566Y021731D01*
X024558Y021733D01*
X024549Y021735D01*
X024541Y021736D01*
X024532Y021738D01*
X024523Y021739D01*
X024515Y02174D01*
X024506Y02174D01*
X024497Y02174D01*
D02*
G37*
G36*
X04117Y020146D02*
X039871D01*
Y019959D01*
X039539D01*
X039537Y019961D01*
X039529Y019966D01*
X039522Y019971D01*
X039514Y019975D01*
X039507Y019979D01*
X039499Y019983D01*
X039491Y019987D01*
X039483Y01999D01*
X039475Y019993D01*
X039466Y019996D01*
X039458Y019998D01*
X03945Y020001D01*
X039441Y020003D01*
X039432Y020004D01*
X039424Y020006D01*
X039415Y020007D01*
X039406Y020007D01*
X039398Y020008D01*
X039389Y020008D01*
X03938Y020008D01*
X039372Y020007D01*
X039363Y020007D01*
X039354Y020006D01*
X039345Y020004D01*
X039337Y020003D01*
X039328Y020001D01*
X03932Y019998D01*
X039312Y019996D01*
X039303Y019993D01*
X039295Y01999D01*
X039287Y019987D01*
X039279Y019983D01*
X039271Y019979D01*
X039264Y019975D01*
X039256Y019971D01*
X039249Y019966D01*
X039241Y019961D01*
X039234Y019956D01*
X039227Y019951D01*
X039221Y019945D01*
X039214Y019939D01*
X039208Y019933D01*
X039202Y019927D01*
X039196Y01992D01*
X03919Y019913D01*
X039185Y019907D01*
X03918Y0199D01*
X039175Y019892D01*
X03917Y019885D01*
X039166Y019877D01*
X039162Y01987D01*
X039158Y019862D01*
X039154Y019854D01*
X039151Y019846D01*
X039148Y019838D01*
X039145Y019829D01*
X039143Y019821D01*
X03914Y019813D01*
X039138Y019804D01*
X039137Y019795D01*
X039135Y019787D01*
X039134Y019778D01*
X039134Y019769D01*
X039133Y019761D01*
X039133Y019752D01*
X039133Y019743D01*
X039134Y019734D01*
X039134Y019726D01*
X039135Y019717D01*
X039137Y019708D01*
X039138Y0197D01*
X03914Y019691D01*
X039143Y019683D01*
X039145Y019675D01*
X039148Y019666D01*
X039151Y019658D01*
X039154Y01965D01*
X039158Y019642D01*
X039162Y019634D01*
X039166Y019627D01*
X03917Y019619D01*
X039175Y019612D01*
X03918Y019604D01*
X039185Y019597D01*
X03919Y01959D01*
X039196Y019584D01*
X039202Y019577D01*
X039208Y019571D01*
X039214Y019565D01*
X039221Y019559D01*
X039227Y019553D01*
X039234Y019548D01*
X039241Y019543D01*
X039249Y019538D01*
X039256Y019533D01*
X039264Y019529D01*
X039271Y019525D01*
X039279Y019521D01*
X039287Y019517D01*
X039295Y019514D01*
X039303Y019511D01*
X039312Y019508D01*
X03932Y019506D01*
X039328Y019503D01*
X039337Y019501D01*
X039345Y0195D01*
X039354Y019498D01*
X039363Y019497D01*
X039372Y019497D01*
X03938Y019496D01*
X039389Y019496D01*
X039398Y019496D01*
X039406Y019497D01*
X039415Y019497D01*
X039424Y019498D01*
X039432Y0195D01*
X039441Y019501D01*
X03945Y019503D01*
X039458Y019506D01*
X039466Y019508D01*
X039475Y019511D01*
X039483Y019514D01*
X039491Y019517D01*
X039499Y019521D01*
X039507Y019525D01*
X039514Y019529D01*
X039522Y019533D01*
X039529Y019538D01*
X039537Y019543D01*
X039539Y019544D01*
X039871D01*
Y019358D01*
X04117D01*
Y020146D01*
D02*
G37*
G36*
X036719Y019124D02*
X036089D01*
Y019064D01*
X036085Y019056D01*
X036077Y019048D01*
X036073Y019045D01*
X03604Y019031D01*
X036031Y019033D01*
X036023Y019036D01*
X036015Y019038D01*
X036006Y01904D01*
X035997Y019042D01*
X035989Y019043D01*
X03598Y019044D01*
X035971Y019045D01*
X035963Y019045D01*
X035954Y019045D01*
X035945Y019045D01*
X035936Y019045D01*
X035928Y019044D01*
X035919Y019043D01*
X03591Y019042D01*
X035902Y01904D01*
X035893Y019038D01*
X035885Y019036D01*
X035877Y019033D01*
X035868Y019031D01*
X03586Y019027D01*
X035852Y019024D01*
X035844Y019021D01*
X035836Y019017D01*
X035828Y019012D01*
X035821Y019008D01*
X035814Y019003D01*
X035806Y018998D01*
X035799Y018993D01*
X035792Y018988D01*
X035786Y018982D01*
X035779Y018976D01*
X035773Y01897D01*
X035767Y018964D01*
X035761Y018958D01*
X035755Y018951D01*
X03575Y018944D01*
X035745Y018937D01*
X03574Y01893D01*
X035735Y018922D01*
X035731Y018915D01*
X035727Y018907D01*
X035723Y018899D01*
X035719Y018891D01*
X035716Y018883D01*
X035713Y018875D01*
X03571Y018867D01*
X035707Y018858D01*
X035705Y01885D01*
X035703Y018841D01*
X035702Y018833D01*
X0357Y018824D01*
X035699Y018816D01*
X035699Y018807D01*
X035698Y018798D01*
X035698Y018789D01*
X035698Y018781D01*
X035699Y018772D01*
X035699Y018763D01*
X0357Y018755D01*
X035702Y018746D01*
X035703Y018737D01*
X035705Y018729D01*
X035707Y01872D01*
X03571Y018712D01*
X035713Y018704D01*
X035716Y018695D01*
X035719Y018687D01*
X035723Y018679D01*
X035727Y018672D01*
X035731Y018664D01*
X035735Y018656D01*
X03574Y018649D01*
X035745Y018642D01*
X03575Y018635D01*
X035755Y018628D01*
X035761Y018621D01*
X035767Y018615D01*
X035773Y018608D01*
X035779Y018602D01*
X035786Y018596D01*
X035792Y018591D01*
X035799Y018585D01*
X035806Y01858D01*
X035814Y018575D01*
X035821Y018571D01*
X035828Y018566D01*
X035835Y018563D01*
X035838Y018555D01*
X035841Y018536D01*
X035838Y018517D01*
X035834Y018508D01*
X035828Y018505D01*
X035821Y018501D01*
X035813Y018496D01*
X035806Y018491D01*
X035798Y018487D01*
X035791Y018481D01*
X035784Y018476D01*
X035778Y01847D01*
X035771Y018464D01*
X035765Y018458D01*
X035759Y018452D01*
X035753Y018446D01*
X035747Y018439D01*
X035742Y018432D01*
X035737Y018425D01*
X035732Y018418D01*
X035727Y01841D01*
X035723Y018403D01*
X035719Y018395D01*
X035715Y018387D01*
X035711Y018379D01*
X035708Y018371D01*
X035705Y018363D01*
X035702Y018355D01*
X035699Y018346D01*
X035697Y018338D01*
X035695Y01833D01*
X035694Y018321D01*
X035692Y018312D01*
X035691Y018304D01*
X035691Y018295D01*
X03569Y018286D01*
X03569Y018277D01*
X03569Y018269D01*
X035691Y01826D01*
X035691Y018251D01*
X035692Y018243D01*
X035694Y018234D01*
X035695Y018225D01*
X035697Y018217D01*
X035699Y018208D01*
X035702Y0182D01*
X035705Y018192D01*
X035708Y018184D01*
X035711Y018175D01*
X035715Y018168D01*
X035719Y01816D01*
X035723Y018152D01*
X035727Y018144D01*
X035732Y018137D01*
X035737Y01813D01*
X035742Y018123D01*
X035747Y018116D01*
X035753Y018109D01*
X035759Y018103D01*
X035765Y018096D01*
X035771Y01809D01*
X035778Y018085D01*
X035784Y018079D01*
X035791Y018074D01*
X035798Y018068D01*
X035806Y018063D01*
X035813Y018059D01*
X035821Y018054D01*
X035828Y01805D01*
X035832Y018048D01*
X035837Y018034D01*
X035838Y018018D01*
X035833Y017993D01*
X035832Y017993D01*
X035825Y017989D01*
X035817Y017984D01*
X03581Y01798D01*
X035802Y017975D01*
X035795Y01797D01*
X035788Y017964D01*
X035782Y017959D01*
X035775Y017953D01*
X035769Y017947D01*
X035763Y01794D01*
X035757Y017934D01*
X035751Y017927D01*
X035746Y01792D01*
X035741Y017913D01*
X035736Y017906D01*
X035731Y017899D01*
X035727Y017891D01*
X035723Y017883D01*
X035719Y017876D01*
X035715Y017868D01*
X035712Y01786D01*
X035709Y017851D01*
X035706Y017843D01*
X035704Y017835D01*
X035701Y017826D01*
X035699Y017818D01*
X035698Y017809D01*
X035696Y017801D01*
X035695Y017792D01*
X035695Y017783D01*
X035694Y017774D01*
X035694Y017766D01*
X035694Y017757D01*
X035695Y017748D01*
X035695Y01774D01*
X035696Y017731D01*
X035698Y017722D01*
X035699Y017714D01*
X035701Y017705D01*
X035704Y017697D01*
X035706Y017688D01*
X035709Y01768D01*
X035712Y017672D01*
X035715Y017664D01*
X035719Y017656D01*
X035723Y017648D01*
X035727Y01764D01*
X035731Y017633D01*
X035736Y017625D01*
X035741Y017618D01*
X035746Y017611D01*
X035751Y017604D01*
X035757Y017598D01*
X035763Y017591D01*
X035769Y017585D01*
X035775Y017579D01*
X035782Y017573D01*
X035788Y017567D01*
X035795Y017562D01*
X035802Y017557D01*
X03581Y017552D01*
X035817Y017547D01*
X035825Y017543D01*
X035832Y017538D01*
X03584Y017535D01*
X035848Y017531D01*
X035856Y017528D01*
X035864Y017525D01*
X035873Y017522D01*
X035881Y017519D01*
X035889Y017517D01*
X035898Y017515D01*
X035907Y017514D01*
X035915Y017512D01*
X035924Y017511D01*
X035933Y01751D01*
X035941Y01751D01*
X03595Y01751D01*
X035959Y01751D01*
X035967Y01751D01*
X035976Y017511D01*
X035985Y017512D01*
X035993Y017514D01*
X036002Y017515D01*
X036011Y017517D01*
X036019Y017519D01*
X036027Y017522D01*
X036036Y017525D01*
X036039Y017526D01*
X036066Y017515D01*
X036075Y01751D01*
X03608Y017506D01*
X036089Y017493D01*
Y017431D01*
X037179D01*
X037181Y017424D01*
X037184Y017416D01*
X037188Y017408D01*
X037191Y0174D01*
X037195Y017392D01*
X037199Y017384D01*
X037204Y017377D01*
X037208Y017369D01*
X037213Y017362D01*
X037219Y017355D01*
X037224Y017348D01*
X03723Y017342D01*
X037235Y017335D01*
X037241Y017329D01*
X037248Y017323D01*
X037254Y017317D01*
X037261Y017311D01*
X037268Y017306D01*
X037275Y017301D01*
X037282Y017296D01*
X037289Y017291D01*
X037297Y017287D01*
X037305Y017283D01*
X037313Y017279D01*
X03732Y017275D01*
X037329Y017272D01*
X037337Y017269D01*
X037345Y017266D01*
X037353Y017263D01*
X037362Y017261D01*
X03737Y017259D01*
X037379Y017258D01*
X037388Y017256D01*
X037396Y017255D01*
X037405Y017255D01*
X037414Y017254D01*
X037422Y017254D01*
X037431Y017254D01*
X03744Y017255D01*
X037449Y017255D01*
X037457Y017256D01*
X037466Y017258D01*
X037475Y017259D01*
X037483Y017261D01*
X037491Y017263D01*
X0375Y017266D01*
X037508Y017269D01*
X037516Y017272D01*
X037524Y017275D01*
X037532Y017279D01*
X03754Y017283D01*
X037548Y017287D01*
X037555Y017291D01*
X037563Y017296D01*
X03757Y017301D01*
X037577Y017306D01*
X037584Y017311D01*
X037591Y017317D01*
X037597Y017323D01*
X037603Y017329D01*
X037609Y017335D01*
X037615Y017342D01*
X037621Y017348D01*
X037626Y017355D01*
X037632Y017362D01*
X037636Y017369D01*
X037641Y017377D01*
X037646Y017384D01*
X03765Y017392D01*
X037654Y0174D01*
X037657Y017408D01*
X037661Y017416D01*
X037664Y017424D01*
X037666Y017432D01*
X037669Y017441D01*
X037671Y017449D01*
X037673Y017458D01*
X037675Y017466D01*
X037676Y017475D01*
X037677Y017484D01*
X037678Y017492D01*
X037678Y017501D01*
X037678Y01751D01*
X037678Y017519D01*
X037678Y017527D01*
X037677Y017536D01*
X037676Y017545D01*
X037675Y017553D01*
X037673Y017562D01*
X037671Y01757D01*
X037669Y017579D01*
X037666Y017587D01*
X037664Y017596D01*
X037661Y017604D01*
X037657Y017612D01*
X037654Y01762D01*
X03765Y017628D01*
X037646Y017635D01*
X037641Y017643D01*
X037636Y01765D01*
X037632Y017657D01*
X037626Y017664D01*
X037621Y017671D01*
X03762Y017673D01*
Y017697D01*
X03762Y017704D01*
X037619Y017712D01*
X037619Y01772D01*
X037618Y017727D01*
X037616Y017735D01*
X037615Y017743D01*
X037613Y01775D01*
X03761Y017758D01*
X037608Y017765D01*
X037605Y017772D01*
X037602Y017779D01*
X037598Y017786D01*
X037595Y017793D01*
X037591Y0178D01*
X037587Y017806D01*
X037582Y017813D01*
X037578Y017819D01*
X037573Y017825D01*
X037567Y017831D01*
X037562Y017836D01*
X037493Y017905D01*
X037487Y017911D01*
X037482Y017916D01*
X037476Y017921D01*
X037469Y017926D01*
X037463Y01793D01*
X037456Y017934D01*
X03745Y017938D01*
X037443Y017942D01*
X037436Y017945D01*
X037429Y017948D01*
X037422Y017951D01*
X037414Y017954D01*
X037407Y017956D01*
X037399Y017958D01*
X037392Y017959D01*
X037384Y017961D01*
X037376Y017962D01*
X037369Y017963D01*
X037361Y017963D01*
X037353Y017963D01*
X03727D01*
Y01808D01*
X037354D01*
X037362Y01808D01*
X037369Y018081D01*
X037377Y018081D01*
X037385Y018082D01*
X037393Y018084D01*
X0374Y018085D01*
X037408Y018087D01*
X037415Y01809D01*
X037422Y018092D01*
X03743Y018095D01*
X037437Y018098D01*
X037444Y018101D01*
X037451Y018105D01*
X037457Y018109D01*
X037464Y018113D01*
X03747Y018118D01*
X037476Y018122D01*
X037482Y018127D01*
X037488Y018132D01*
X037494Y018138D01*
X037562Y018206D01*
X037567Y018212D01*
X037573Y018218D01*
X037578Y018224D01*
X037582Y01823D01*
X037587Y018236D01*
X037591Y018243D01*
X037595Y018249D01*
X037598Y018256D01*
X037602Y018263D01*
X037605Y01827D01*
X037608Y018278D01*
X03761Y018285D01*
X037613Y018292D01*
X037615Y0183D01*
X037616Y018307D01*
X037618Y018315D01*
X037619Y018323D01*
X037619Y01833D01*
X03762Y018338D01*
X03762Y018346D01*
Y018371D01*
X037621Y018372D01*
X037626Y018379D01*
X037632Y018386D01*
X037636Y018393D01*
X037641Y0184D01*
X037646Y018408D01*
X03765Y018416D01*
X037654Y018424D01*
X037657Y018432D01*
X037661Y01844D01*
X037664Y018448D01*
X037666Y018456D01*
X037669Y018464D01*
X037671Y018473D01*
X037673Y018481D01*
X037675Y01849D01*
X037676Y018499D01*
X037677Y018507D01*
X037678Y018516D01*
X037678Y018525D01*
X037678Y018533D01*
X037678Y018542D01*
X037678Y018551D01*
X037677Y01856D01*
X037676Y018568D01*
X037675Y018577D01*
X037673Y018586D01*
X037671Y018594D01*
X037669Y018603D01*
X037666Y018611D01*
X037664Y018619D01*
X037661Y018627D01*
X037657Y018635D01*
X037654Y018643D01*
X03765Y018651D01*
X037646Y018659D01*
X037641Y018666D01*
X037636Y018674D01*
X037632Y018681D01*
X037626Y018688D01*
X037621Y018695D01*
X037615Y018702D01*
X037609Y018708D01*
X037603Y018714D01*
X037597Y018721D01*
X037591Y018726D01*
X037584Y018732D01*
X037577Y018737D01*
X03757Y018743D01*
X037563Y018747D01*
X037555Y018752D01*
X037548Y018757D01*
X03754Y018761D01*
X037532Y018765D01*
X037524Y018768D01*
X037516Y018772D01*
X037508Y018775D01*
X0375Y018777D01*
X037491Y01878D01*
X037483Y018782D01*
X037475Y018784D01*
X037466Y018786D01*
X037457Y018787D01*
X037449Y018788D01*
X03744Y018789D01*
X037431Y018789D01*
X037422Y018789D01*
X037414Y018789D01*
X037405Y018789D01*
X037396Y018788D01*
X037388Y018787D01*
X037379Y018786D01*
X03737Y018784D01*
X037362Y018782D01*
X037353Y01878D01*
X037345Y018777D01*
X037337Y018775D01*
X037329Y018772D01*
X03732Y018768D01*
X037313Y018765D01*
X037305Y018761D01*
X037297Y018757D01*
X037289Y018752D01*
X037282Y018747D01*
X037275Y018743D01*
X037268Y018737D01*
X037261Y018732D01*
X037254Y018726D01*
X037248Y018721D01*
X037241Y018714D01*
X037235Y018708D01*
X03723Y018702D01*
X037224Y018695D01*
X037219Y018688D01*
X037213Y018681D01*
X037208Y018674D01*
X037204Y018666D01*
X037199Y018659D01*
X037195Y018651D01*
X037191Y018643D01*
X037188Y018635D01*
X037184Y018627D01*
X037181Y018619D01*
X037179Y018612D01*
X036719D01*
Y019124D01*
D02*
G37*
G36*
X017991Y019614D02*
X017007D01*
X016995Y019614D01*
X016983Y019614D01*
X016972Y019613D01*
X01696Y019612D01*
X016948Y01961D01*
X016936Y019609D01*
X016925Y019607D01*
X016913Y019604D01*
X016901Y019602D01*
X01689Y019599D01*
X016878Y019596D01*
X016867Y019592D01*
X016856Y019588D01*
X016845Y019584D01*
X016834Y01958D01*
X016823Y019575D01*
X016812Y01957D01*
X016802Y019565D01*
X016791Y019559D01*
X016781Y019554D01*
X01677Y019547D01*
X01676Y019541D01*
X016751Y019535D01*
X016741Y019528D01*
X016731Y019521D01*
X016722Y019513D01*
X016713Y019506D01*
X016704Y019498D01*
X016695Y01949D01*
X016687Y019482D01*
X016679Y019473D01*
X016671Y019464D01*
X016663Y019455D01*
X016655Y019446D01*
X016648Y019437D01*
X016641Y019428D01*
X016634Y019418D01*
X016627Y019408D01*
X016621Y019398D01*
X016615Y019388D01*
X016609Y019377D01*
X016604Y019367D01*
X016598Y019356D01*
X016593Y019346D01*
X016589Y019335D01*
X016584Y019324D01*
X01658Y019313D01*
X016576Y019301D01*
X016573Y01929D01*
X01657Y019279D01*
X016567Y019267D01*
X016564Y019256D01*
X016562Y019244D01*
X01656Y019232D01*
X016558Y019221D01*
X016557Y019209D01*
X016556Y019197D01*
X016555Y019185D01*
X016554Y019173D01*
X016554Y019161D01*
X016554Y01915D01*
X016555Y019138D01*
X016556Y019126D01*
X016557Y019114D01*
X016558Y019102D01*
X01656Y019091D01*
X016562Y019079D01*
X016564Y019067D01*
X016567Y019056D01*
X01657Y019044D01*
X016573Y019033D01*
X016576Y019022D01*
X01658Y01901D01*
X016584Y018999D01*
X016589Y018988D01*
X016593Y018977D01*
X016598Y018966D01*
X016604Y018956D01*
X016609Y018945D01*
X016615Y018935D01*
X016621Y018925D01*
X016627Y018915D01*
X016634Y018905D01*
X016641Y018895D01*
X016648Y018886D01*
X016655Y018876D01*
X016663Y018867D01*
X016671Y018858D01*
X016679Y01885D01*
X016687Y018841D01*
X016695Y018833D01*
X016704Y018825D01*
X016713Y018817D01*
X016722Y01881D01*
X016731Y018802D01*
X016741Y018795D01*
X016751Y018788D01*
X01676Y018782D01*
X01677Y018775D01*
X016781Y018769D01*
X016791Y018764D01*
X016802Y018758D01*
X016812Y018753D01*
X016823Y018748D01*
X016834Y018743D01*
X016845Y018739D01*
X016856Y018735D01*
X016867Y018731D01*
X016878Y018727D01*
X01689Y018724D01*
X016901Y018721D01*
X016913Y018719D01*
X016925Y018716D01*
X016936Y018714D01*
X016948Y018713D01*
X01696Y018711D01*
X016972Y01871D01*
X016983Y018709D01*
X016995Y018709D01*
X017007Y018709D01*
X017991D01*
X018003Y018709D01*
X018015Y018709D01*
X018027Y01871D01*
X018039Y018711D01*
X01805Y018713D01*
X018062Y018714D01*
X018074Y018716D01*
X018085Y018719D01*
X018097Y018721D01*
X018109Y018724D01*
X01812Y018727D01*
X018131Y018731D01*
X018142Y018735D01*
X018154Y018739D01*
X018165Y018743D01*
X018176Y018748D01*
X018186Y018753D01*
X018197Y018758D01*
X018207Y018764D01*
X018218Y018769D01*
X018228Y018775D01*
X018238Y018782D01*
X018248Y018788D01*
X018257Y018795D01*
X018267Y018802D01*
X018276Y01881D01*
X018285Y018817D01*
X018294Y018825D01*
X018303Y018833D01*
X018312Y018841D01*
X01832Y01885D01*
X018328Y018858D01*
X018336Y018867D01*
X018343Y018876D01*
X018351Y018886D01*
X018358Y018895D01*
X018364Y018905D01*
X018371Y018915D01*
X018377Y018925D01*
X018383Y018935D01*
X018389Y018945D01*
X018395Y018956D01*
X0184Y018966D01*
X018405Y018977D01*
X01841Y018988D01*
X018414Y018999D01*
X018418Y01901D01*
X018422Y019022D01*
X018425Y019033D01*
X018429Y019044D01*
X018432Y019056D01*
X018434Y019067D01*
X018437Y019079D01*
X018439Y019091D01*
X01844Y019102D01*
X018442Y019114D01*
X018443Y019126D01*
X018444Y019138D01*
X018444Y01915D01*
X018444Y019161D01*
X018444Y019173D01*
X018444Y019185D01*
X018443Y019197D01*
X018442Y019209D01*
X01844Y019221D01*
X018439Y019232D01*
X018437Y019244D01*
X018434Y019256D01*
X018432Y019267D01*
X018429Y019279D01*
X018425Y01929D01*
X018422Y019301D01*
X018418Y019313D01*
X018414Y019324D01*
X01841Y019335D01*
X018405Y019346D01*
X0184Y019356D01*
X018395Y019367D01*
X018389Y019377D01*
X018383Y019388D01*
X018377Y019398D01*
X018371Y019408D01*
X018364Y019418D01*
X018358Y019428D01*
X018351Y019437D01*
X018343Y019446D01*
X018336Y019455D01*
X018328Y019464D01*
X01832Y019473D01*
X018312Y019482D01*
X018303Y01949D01*
X018294Y019498D01*
X018285Y019506D01*
X018276Y019513D01*
X018267Y019521D01*
X018257Y019528D01*
X018248Y019535D01*
X018238Y019541D01*
X018228Y019547D01*
X018218Y019554D01*
X018207Y019559D01*
X018197Y019565D01*
X018186Y01957D01*
X018176Y019575D01*
X018165Y01958D01*
X018154Y019584D01*
X018142Y019588D01*
X018131Y019592D01*
X01812Y019596D01*
X018109Y019599D01*
X018097Y019602D01*
X018085Y019604D01*
X018074Y019607D01*
X018062Y019609D01*
X01805Y01961D01*
X018039Y019612D01*
X018027Y019613D01*
X018015Y019614D01*
X018003Y019614D01*
X017991Y019614D01*
D02*
G37*
G36*
X040982Y017071D02*
X040051D01*
X04005Y017071D01*
X040049Y017071D01*
X040046Y017071D01*
X040044Y017071D01*
X040043Y017071D01*
X040042Y017071D01*
X04004Y01707D01*
X040037Y01707D01*
X040036Y01707D01*
X040035Y01707D01*
X04003Y01707D01*
X040029Y01707D01*
X040029Y017069D01*
X040026Y017069D01*
X040023Y017069D01*
X040023Y017069D01*
X040022Y017069D01*
X040019Y017068D01*
X040017Y017068D01*
X040016Y017068D01*
X040015Y017067D01*
X04001Y017066D01*
X040009Y017066D01*
X040008Y017066D01*
X040006Y017065D01*
X040003Y017065D01*
X040002Y017065D01*
X040002Y017064D01*
X039999Y017064D01*
X039997Y017063D01*
X039996Y017063D01*
X039995Y017063D01*
X03999Y017061D01*
X039989Y017061D01*
X039989Y017061D01*
X039986Y01706D01*
X039984Y017059D01*
X039983Y017059D01*
X039982Y017058D01*
X03998Y017058D01*
X039977Y017057D01*
X039976Y017056D01*
X039976Y017056D01*
X039971Y017054D01*
X03997Y017054D01*
X039969Y017053D01*
X039967Y017052D01*
X039965Y017051D01*
X039964Y017051D01*
X039963Y017051D01*
X039961Y017049D01*
X039959Y017048D01*
X039958Y017048D01*
X039957Y017047D01*
X039953Y017045D01*
X039952Y017045D01*
X039951Y017044D01*
X039949Y017043D01*
X039947Y017042D01*
X039946Y017041D01*
X039945Y017041D01*
X039943Y017039D01*
X039941Y017038D01*
X03994Y017038D01*
X039939Y017037D01*
X039935Y017034D01*
X039934Y017034D01*
X039934Y017033D01*
X039932Y017032D01*
X039929Y01703D01*
X039929Y01703D01*
X039928Y017029D01*
X039926Y017028D01*
X039924Y017026D01*
X039923Y017026D01*
X039923Y017025D01*
X039919Y017022D01*
X039918Y017021D01*
X039918Y017021D01*
X039916Y017019D01*
X039914Y017017D01*
X039913Y017017D01*
X039912Y017016D01*
X039912Y017016D01*
X039871D01*
Y016965D01*
X039871Y016964D01*
X039871Y016964D01*
X03987Y016963D01*
X039868Y016958D01*
X039868Y016958D01*
X039867Y016957D01*
X039866Y016955D01*
X039865Y016952D01*
X039864Y016951D01*
X039864Y016951D01*
X039863Y016948D01*
X039862Y016946D01*
X039862Y016945D01*
X039861Y016944D01*
X039859Y01694D01*
X039859Y016939D01*
X039859Y016938D01*
X039858Y016936D01*
X039857Y016933D01*
X039857Y016933D01*
X039856Y016932D01*
X039856Y016929D01*
X039855Y016927D01*
X039854Y016926D01*
X039854Y016925D01*
X039853Y01692D01*
X039852Y01692D01*
X039852Y016919D01*
X039852Y016916D01*
X039851Y016914D01*
X039851Y016913D01*
X03985Y016912D01*
X03985Y01691D01*
X039849Y016907D01*
X039849Y016906D01*
X039849Y016905D01*
X039848Y0169D01*
X039848Y0169D01*
X039848Y016899D01*
X039847Y016896D01*
X039847Y016894D01*
X039847Y016893D01*
X039847Y016892D01*
X039846Y016889D01*
X039846Y016887D01*
X039846Y016886D01*
X039846Y016885D01*
X039845Y01688D01*
X039845Y016879D01*
X039845Y016878D01*
X039845Y016876D01*
X039845Y016873D01*
X039845Y016872D01*
X039845Y016872D01*
X039845Y016869D01*
X039844Y016866D01*
X039844Y016866D01*
X039844Y016865D01*
Y015988D01*
X039845Y015981D01*
X039845Y015974D01*
X039846Y015967D01*
X039847Y015962D01*
X039848Y015955D01*
X039848Y015951D01*
X039849Y015948D01*
X039851Y015942D01*
X039852Y015936D01*
X039854Y01593D01*
X039856Y015923D01*
X039859Y015917D01*
X039861Y015912D01*
X039862Y015909D01*
X039863Y015905D01*
X039866Y015899D01*
X039868Y015896D01*
X03987Y015893D01*
X039873Y015889D01*
X039876Y015883D01*
X039871Y015835D01*
X039871Y015835D01*
Y015648D01*
X039219D01*
X039156Y015712D01*
Y01661D01*
X039157Y016612D01*
X039162Y016619D01*
X039167Y016627D01*
X039171Y016634D01*
X039175Y016642D01*
X039179Y01665D01*
X039183Y016658D01*
X039186Y016666D01*
X039189Y016674D01*
X039192Y016682D01*
X039194Y016691D01*
X039197Y016699D01*
X039199Y016708D01*
X0392Y016716D01*
X039202Y016725D01*
X039203Y016734D01*
X039203Y016742D01*
X039204Y016751D01*
X039204Y01676D01*
X039204Y016769D01*
X039203Y016777D01*
X039203Y016786D01*
X039202Y016795D01*
X0392Y016803D01*
X039199Y016812D01*
X039197Y01682D01*
X039194Y016829D01*
X039192Y016837D01*
X039189Y016846D01*
X039186Y016854D01*
X039183Y016862D01*
X039179Y01687D01*
X039175Y016878D01*
X039171Y016885D01*
X039167Y016893D01*
X039162Y0169D01*
X039157Y016907D01*
X039152Y016914D01*
X039147Y016921D01*
X039141Y016928D01*
X039135Y016935D01*
X039129Y016941D01*
X039123Y016947D01*
X039116Y016953D01*
X03911Y016958D01*
X039103Y016964D01*
X039096Y016969D01*
X039088Y016974D01*
X039081Y016979D01*
X039073Y016983D01*
X039066Y016987D01*
X039058Y016991D01*
X03905Y016995D01*
X039042Y016998D01*
X039034Y017001D01*
X039025Y017004D01*
X039017Y017006D01*
X039009Y017009D01*
X039Y01701D01*
X038992Y017012D01*
X038983Y017013D01*
X038974Y017014D01*
X038965Y017015D01*
X038957Y017016D01*
X038948Y017016D01*
X038939Y017016D01*
X038931Y017015D01*
X038922Y017014D01*
X038913Y017013D01*
X038905Y017012D01*
X038896Y01701D01*
X038887Y017009D01*
X038879Y017006D01*
X038871Y017004D01*
X038862Y017001D01*
X038854Y016998D01*
X038846Y016995D01*
X038838Y016991D01*
X03883Y016987D01*
X038823Y016983D01*
X038815Y016979D01*
X038808Y016974D01*
X0388Y016969D01*
X038793Y016964D01*
X038787Y016958D01*
X03878Y016953D01*
X038773Y016947D01*
X038767Y016941D01*
X038761Y016935D01*
X038755Y016928D01*
X038749Y016921D01*
X038744Y016914D01*
X038739Y016907D01*
X038734Y0169D01*
X038729Y016893D01*
X038725Y016885D01*
X038721Y016878D01*
X038717Y01687D01*
X038713Y016862D01*
X03871Y016854D01*
X038707Y016846D01*
X038704Y016837D01*
X038702Y016829D01*
X038699Y01682D01*
X038697Y016812D01*
X038696Y016803D01*
X038694Y016795D01*
X038693Y016786D01*
X038693Y016777D01*
X038692Y016769D01*
X038692Y01676D01*
X038692Y016751D01*
X038693Y016742D01*
X038693Y016734D01*
X038694Y016725D01*
X038696Y016716D01*
X038697Y016708D01*
X038699Y016699D01*
X038702Y016691D01*
X038704Y016682D01*
X038707Y016674D01*
X03871Y016666D01*
X038713Y016658D01*
X038717Y01665D01*
X038721Y016642D01*
X038725Y016634D01*
X038729Y016627D01*
X038734Y016619D01*
X038739Y016612D01*
X038741Y01661D01*
Y015626D01*
X038741Y015618D01*
X038741Y01561D01*
X038742Y015603D01*
X038743Y015595D01*
X038744Y015587D01*
X038746Y01558D01*
X038748Y015572D01*
X03875Y015565D01*
X038752Y015557D01*
X038755Y01555D01*
X038758Y015543D01*
X038761Y015536D01*
X038765Y015529D01*
X038768Y015522D01*
X038772Y015516D01*
X038777Y015509D01*
X038781Y015503D01*
X038786Y015497D01*
X038791Y015491D01*
X038796Y015485D01*
X038801Y015479D01*
X038986Y015294D01*
X038992Y015289D01*
X038998Y015284D01*
X039004Y015279D01*
X03901Y015274D01*
X039016Y015269D01*
X039023Y015265D01*
X039029Y015261D01*
X039036Y015257D01*
X039043Y015254D01*
X03905Y015251D01*
X039057Y015248D01*
X039065Y015245D01*
X039072Y015243D01*
X039079Y01524D01*
X039087Y015239D01*
X039094Y015237D01*
X039102Y015236D01*
X03911Y015235D01*
X039118Y015234D01*
X039125Y015234D01*
X039133Y015233D01*
X039871D01*
Y015047D01*
X04117D01*
Y015835D01*
X04117D01*
X04116Y015847D01*
X041152Y015863D01*
X041149Y015884D01*
X041149Y015885D01*
X04115Y015886D01*
X041151Y015888D01*
X041153Y01589D01*
X041153Y015891D01*
X041154Y015891D01*
X041158Y015898D01*
X041158Y015898D01*
X041159Y015899D01*
X04116Y015901D01*
X041162Y015903D01*
X041162Y015904D01*
X041162Y015905D01*
X041164Y015907D01*
X041165Y015909D01*
X041165Y01591D01*
X041166Y015911D01*
X041169Y015917D01*
X04117Y015918D01*
X04117Y015919D01*
X041171Y015921D01*
X041172Y015923D01*
X041173Y015924D01*
X041173Y015925D01*
X041174Y015927D01*
X041175Y01593D01*
X041175Y015931D01*
X041176Y015931D01*
X041179Y015938D01*
X041179Y015939D01*
X041179Y01594D01*
X04118Y015942D01*
X041181Y015945D01*
X041181Y015945D01*
X041182Y015946D01*
X041182Y015949D01*
X041183Y015951D01*
X041184Y015952D01*
X041184Y015953D01*
X041186Y01596D01*
X041186Y015961D01*
X041186Y015961D01*
X041187Y015964D01*
X041188Y015966D01*
X041188Y015967D01*
X041188Y015968D01*
X041189Y01597D01*
X041189Y015973D01*
X04119Y015974D01*
X04119Y015975D01*
X041191Y015982D01*
X041191Y015983D01*
X041192Y015984D01*
X041192Y015986D01*
X041192Y015989D01*
X041192Y01599D01*
X041193Y01599D01*
X041193Y015993D01*
X041193Y015995D01*
X041193Y015996D01*
X041193Y015997D01*
X041194Y016004D01*
X041194Y016005D01*
X041194Y016006D01*
X041195Y016009D01*
X041195Y016011D01*
X041195Y016012D01*
X041195Y016013D01*
X041195Y016016D01*
X041195Y016018D01*
X041195Y016019D01*
X041195Y01602D01*
X041195Y016024D01*
X041195Y016024D01*
X041195Y016858D01*
X041195Y016861D01*
X041195Y016862D01*
X041195Y016863D01*
X041195Y016865D01*
X041195Y016868D01*
X041195Y016869D01*
X041195Y01687D01*
X041195Y016872D01*
X041194Y016875D01*
X041194Y016876D01*
X041194Y016876D01*
X041194Y016882D01*
X041194Y016883D01*
X041193Y016883D01*
X041193Y016886D01*
X041193Y016889D01*
X041193Y016889D01*
X041193Y01689D01*
X041192Y016893D01*
X041192Y016895D01*
X041192Y016896D01*
X041191Y016897D01*
X04119Y016902D01*
X04119Y016903D01*
X04119Y016904D01*
X041189Y016907D01*
X041189Y016909D01*
X041189Y01691D01*
X041188Y016911D01*
X041188Y016913D01*
X041187Y016916D01*
X041187Y016917D01*
X041187Y016917D01*
X041185Y016923D01*
X041185Y016923D01*
X041184Y016924D01*
X041184Y016927D01*
X041183Y016929D01*
X041183Y01693D01*
X041182Y016931D01*
X041181Y016933D01*
X04118Y016936D01*
X04118Y016936D01*
X04118Y016937D01*
X041178Y016942D01*
X041177Y016943D01*
X041177Y016944D01*
X041176Y016946D01*
X041175Y016948D01*
X041175Y016949D01*
X041174Y01695D01*
X041173Y016952D01*
X041172Y016955D01*
X041171Y016955D01*
X041171Y016956D01*
X04117Y016957D01*
Y017016D01*
X041125D01*
X041125Y017016D01*
X041125Y017016D01*
X041123Y017018D01*
X041121Y01702D01*
X04112Y01702D01*
X041119Y017021D01*
X041115Y017024D01*
X041114Y017025D01*
X041114Y017025D01*
X041112Y017027D01*
X04111Y017029D01*
X041109Y017029D01*
X041108Y01703D01*
X041106Y017031D01*
X041104Y017033D01*
X041103Y017033D01*
X041103Y017034D01*
X041098Y017037D01*
X041097Y017037D01*
X041097Y017038D01*
X041095Y017039D01*
X041092Y01704D01*
X041092Y017041D01*
X041091Y017041D01*
X041089Y017042D01*
X041086Y017044D01*
X041086Y017044D01*
X041085Y017045D01*
X04108Y017047D01*
X041079Y017047D01*
X041079Y017048D01*
X041076Y017049D01*
X041074Y01705D01*
X041073Y017051D01*
X041072Y017051D01*
X04107Y017052D01*
X041068Y017053D01*
X041067Y017053D01*
X041066Y017054D01*
X041061Y017056D01*
X04106Y017056D01*
X04106Y017056D01*
X041057Y017057D01*
X041055Y017058D01*
X041054Y017059D01*
X041053Y017059D01*
X041051Y01706D01*
X041048Y01706D01*
X041047Y017061D01*
X041047Y017061D01*
X041041Y017063D01*
X041041Y017063D01*
X04104Y017063D01*
X041037Y017064D01*
X041035Y017064D01*
X041034Y017065D01*
X041033Y017065D01*
X041031Y017065D01*
X041028Y017066D01*
X041027Y017066D01*
X041026Y017066D01*
X041021Y017067D01*
X04102Y017067D01*
X041019Y017068D01*
X041017Y017068D01*
X041014Y017069D01*
X041013Y017069D01*
X041013Y017069D01*
X04101Y017069D01*
X041008Y017069D01*
X041007Y01707D01*
X041006Y01707D01*
X041Y01707D01*
X041Y01707D01*
X040999Y01707D01*
X040996Y01707D01*
X040994Y017071D01*
X040993Y017071D01*
X040992Y017071D01*
X040989Y017071D01*
X040987Y017071D01*
X040986Y017071D01*
X040985Y017071D01*
X040982Y017071D01*
X040982Y017071D01*
D02*
G37*
G36*
X035172Y02076D02*
X035164Y02076D01*
X035155Y020759D01*
X035146Y020759D01*
X035138Y020757D01*
X035129Y020756D01*
X03512Y020755D01*
X035112Y020753D01*
X035103Y02075D01*
X035095Y020748D01*
X035087Y020745D01*
X035079Y020742D01*
X03507Y020739D01*
X035063Y020735D01*
X035055Y020731D01*
X035047Y020727D01*
X035039Y020723D01*
X035032Y020718D01*
X035025Y020713D01*
X035018Y020708D01*
X035011Y020702D01*
X035004Y020697D01*
X034998Y020691D01*
X034991Y020685D01*
X034985Y020679D01*
X03498Y020672D01*
X034974Y020665D01*
X034969Y020659D01*
X034963Y020652D01*
X034958Y020644D01*
X034954Y020637D01*
X034949Y020629D01*
X034945Y020622D01*
X034941Y020614D01*
X034938Y020606D01*
X034934Y020598D01*
X034931Y02059D01*
X034928Y020581D01*
X034926Y020573D01*
X034924Y020565D01*
X034922Y020556D01*
X03492Y020547D01*
X034919Y020539D01*
X034918Y02053D01*
X034917Y020521D01*
X034917Y020513D01*
X034917Y020504D01*
X034917Y020495D01*
X034917Y020486D01*
X034918Y020478D01*
X034919Y020469D01*
X03492Y02046D01*
X034922Y020452D01*
X034924Y020443D01*
X034926Y020435D01*
X034928Y020427D01*
X034931Y020418D01*
X034934Y02041D01*
X034938Y020402D01*
X03494Y020397D01*
Y016969D01*
X034938Y016964D01*
X034934Y016956D01*
X034931Y016948D01*
X034928Y01694D01*
X034926Y016931D01*
X034924Y016923D01*
X034922Y016914D01*
X03492Y016906D01*
X034919Y016897D01*
X034918Y016889D01*
X034917Y01688D01*
X034917Y016871D01*
X034917Y016862D01*
X034917Y016854D01*
X034917Y016845D01*
X034918Y016836D01*
X034919Y016827D01*
X03492Y016819D01*
X034922Y01681D01*
X034924Y016802D01*
X034926Y016793D01*
X034928Y016785D01*
X034931Y016777D01*
X034934Y016768D01*
X034938Y01676D01*
X034941Y016752D01*
X034945Y016745D01*
X034949Y016737D01*
X034954Y016729D01*
X034958Y016722D01*
X034963Y016715D01*
X034969Y016708D01*
X034974Y016701D01*
X03498Y016694D01*
X034985Y016688D01*
X034991Y016681D01*
X034998Y016675D01*
X035004Y016669D01*
X035011Y016664D01*
X035018Y016658D01*
X035025Y016653D01*
X035032Y016648D01*
X035039Y016644D01*
X035047Y016639D01*
X035055Y016635D01*
X035063Y016631D01*
X03507Y016628D01*
X035079Y016624D01*
X035087Y016621D01*
X035095Y016618D01*
X035103Y016616D01*
X035112Y016614D01*
X03512Y016612D01*
X035129Y01661D01*
X035138Y016609D01*
X035146Y016608D01*
X035155Y016607D01*
X035164Y016607D01*
X035172Y016606D01*
X035181Y016607D01*
X03519Y016607D01*
X035199Y016608D01*
X035207Y016609D01*
X035216Y01661D01*
X035225Y016612D01*
X035233Y016614D01*
X035241Y016616D01*
X03525Y016618D01*
X035258Y016621D01*
X035266Y016624D01*
X035274Y016628D01*
X035282Y016631D01*
X03529Y016635D01*
X035298Y016639D01*
X035305Y016644D01*
X035313Y016648D01*
X03532Y016653D01*
X035327Y016658D01*
X035334Y016664D01*
X035341Y016669D01*
X035347Y016675D01*
X035353Y016681D01*
X035359Y016688D01*
X035365Y016694D01*
X035371Y016701D01*
X035376Y016708D01*
X035382Y016715D01*
X035386Y016722D01*
X035391Y016729D01*
X035396Y016737D01*
X0354Y016745D01*
X035404Y016752D01*
X035407Y01676D01*
X035411Y016768D01*
X035414Y016777D01*
X035416Y016785D01*
X035419Y016793D01*
X035421Y016802D01*
X035423Y01681D01*
X035425Y016819D01*
X035426Y016827D01*
X035427Y016836D01*
X035428Y016845D01*
X035428Y016854D01*
X035428Y016862D01*
X035428Y016871D01*
X035428Y01688D01*
X035427Y016889D01*
X035426Y016897D01*
X035425Y016906D01*
X035423Y016914D01*
X035421Y016923D01*
X035419Y016931D01*
X035416Y01694D01*
X035414Y016948D01*
X035411Y016956D01*
X035407Y016964D01*
X035405Y016969D01*
Y020397D01*
X035407Y020402D01*
X035411Y02041D01*
X035414Y020418D01*
X035416Y020427D01*
X035419Y020435D01*
X035421Y020443D01*
X035423Y020452D01*
X035425Y02046D01*
X035426Y020469D01*
X035427Y020478D01*
X035428Y020486D01*
X035428Y020495D01*
X035428Y020504D01*
X035428Y020513D01*
X035428Y020521D01*
X035427Y02053D01*
X035426Y020539D01*
X035425Y020547D01*
X035423Y020556D01*
X035421Y020565D01*
X035419Y020573D01*
X035416Y020581D01*
X035414Y02059D01*
X035411Y020598D01*
X035407Y020606D01*
X035404Y020614D01*
X0354Y020622D01*
X035396Y020629D01*
X035391Y020637D01*
X035386Y020644D01*
X035382Y020652D01*
X035376Y020659D01*
X035371Y020665D01*
X035365Y020672D01*
X035359Y020679D01*
X035353Y020685D01*
X035347Y020691D01*
X035341Y020697D01*
X035334Y020702D01*
X035327Y020708D01*
X03532Y020713D01*
X035313Y020718D01*
X035305Y020723D01*
X035298Y020727D01*
X03529Y020731D01*
X035282Y020735D01*
X035274Y020739D01*
X035266Y020742D01*
X035258Y020745D01*
X03525Y020748D01*
X035241Y02075D01*
X035233Y020753D01*
X035225Y020755D01*
X035216Y020756D01*
X035207Y020757D01*
X035199Y020759D01*
X03519Y020759D01*
X035181Y02076D01*
X035172Y02076D01*
D02*
G37*
G36*
X03242Y016996D02*
X032412Y016996D01*
X032403Y016996D01*
X032394Y016995D01*
X032386Y016994D01*
X032377Y016992D01*
X032368Y016991D01*
X03236Y016989D01*
X032351Y016987D01*
X032343Y016984D01*
X032335Y016981D01*
X032327Y016978D01*
X032318Y016975D01*
X032311Y016971D01*
X032303Y016967D01*
X032295Y016963D01*
X032287Y016959D01*
X03228Y016954D01*
X032273Y016949D01*
X032266Y016944D01*
X032259Y016939D01*
X032252Y016933D01*
X032246Y016927D01*
X032239Y016921D01*
X032233Y016915D01*
X032228Y016908D01*
X032222Y016902D01*
X032217Y016895D01*
X032211Y016888D01*
X032206Y016881D01*
X032202Y016873D01*
X032197Y016866D01*
X032193Y016858D01*
X032189Y01685D01*
X032186Y016842D01*
X032182Y016834D01*
X032179Y016826D01*
X032177Y016818D01*
X032174Y016809D01*
X032172Y016801D01*
X03217Y016792D01*
X032168Y016784D01*
X032167Y016775D01*
X032166Y016766D01*
X032165Y016758D01*
X032165Y016749D01*
X032165Y01674D01*
X032165Y016731D01*
X032165Y016723D01*
X032166Y016714D01*
X032167Y016705D01*
X032168Y016697D01*
X03217Y016688D01*
X032172Y01668D01*
X032174Y016671D01*
X032177Y016663D01*
X032179Y016654D01*
X032182Y016646D01*
X032186Y016638D01*
X032189Y01663D01*
X032193Y016622D01*
X032197Y016615D01*
X032202Y016607D01*
X032206Y0166D01*
X032211Y016593D01*
X032217Y016586D01*
X032222Y016579D01*
X032228Y016572D01*
X032233Y016565D01*
X032239Y016559D01*
X032246Y016553D01*
X032252Y016547D01*
X032259Y016542D01*
X032266Y016536D01*
X032273Y016531D01*
X03228Y016526D01*
X032287Y016521D01*
X032295Y016517D01*
X032303Y016513D01*
X032311Y016509D01*
X032318Y016505D01*
X032327Y016502D01*
X032335Y016499D01*
X032343Y016496D01*
X032351Y016494D01*
X03236Y016491D01*
X032368Y01649D01*
X032377Y016488D01*
X032386Y016487D01*
X032394Y016486D01*
X032403Y016485D01*
X032412Y016484D01*
X03242Y016484D01*
X032429Y016484D01*
X032438Y016485D01*
X032447Y016486D01*
X032455Y016487D01*
X032464Y016488D01*
X032473Y01649D01*
X032481Y016491D01*
X03249Y016494D01*
X032498Y016496D01*
X032506Y016499D01*
X032514Y016502D01*
X032522Y016505D01*
X03253Y016509D01*
X032538Y016513D01*
X032546Y016517D01*
X032553Y016521D01*
X032561Y016526D01*
X032568Y016531D01*
X032575Y016536D01*
X032582Y016542D01*
X032589Y016547D01*
X032595Y016553D01*
X032601Y016559D01*
X032608Y016565D01*
X032613Y016572D01*
X032619Y016579D01*
X032624Y016586D01*
X03263Y016593D01*
X032634Y0166D01*
X032639Y016607D01*
X032644Y016615D01*
X032648Y016622D01*
X032652Y01663D01*
X032655Y016638D01*
X032659Y016646D01*
X032662Y016654D01*
X032664Y016663D01*
X032667Y016671D01*
X032669Y01668D01*
X032671Y016688D01*
X032673Y016697D01*
X032674Y016705D01*
X032675Y016714D01*
X032676Y016723D01*
X032676Y016731D01*
X032676Y01674D01*
X032676Y016749D01*
X032676Y016758D01*
X032675Y016766D01*
X032674Y016775D01*
X032673Y016784D01*
X032671Y016792D01*
X032669Y016801D01*
X032667Y016809D01*
X032664Y016818D01*
X032662Y016826D01*
X032659Y016834D01*
X032655Y016842D01*
X032652Y01685D01*
X032648Y016858D01*
X032644Y016866D01*
X032639Y016873D01*
X032634Y016881D01*
X03263Y016888D01*
X032624Y016895D01*
X032619Y016902D01*
X032613Y016908D01*
X032608Y016915D01*
X032601Y016921D01*
X032595Y016927D01*
X032589Y016933D01*
X032582Y016939D01*
X032575Y016944D01*
X032568Y016949D01*
X032561Y016954D01*
X032553Y016959D01*
X032546Y016963D01*
X032538Y016967D01*
X03253Y016971D01*
X032522Y016975D01*
X032514Y016978D01*
X032506Y016981D01*
X032498Y016984D01*
X03249Y016987D01*
X032481Y016989D01*
X032473Y016991D01*
X032464Y016992D01*
X032455Y016994D01*
X032447Y016995D01*
X032438Y016996D01*
X032429Y016996D01*
X03242Y016996D01*
D02*
G37*
G36*
X037478Y015421D02*
X037284D01*
X037094Y015383D01*
X036915Y015309D01*
X036754Y015202D01*
X036617Y015064D01*
X036509Y014903D01*
X036435Y014724D01*
X036397Y014534D01*
Y01434D01*
X036435Y01415D01*
X036509Y013971D01*
X036617Y01381D01*
X036754Y013672D01*
X036915Y013565D01*
X037094Y013491D01*
X037284Y013453D01*
X037478D01*
X037668Y013491D01*
X037847Y013565D01*
X038009Y013672D01*
X038146Y01381D01*
X038253Y013971D01*
X038328Y01415D01*
X038365Y01434D01*
Y014534D01*
X038328Y014724D01*
X038253Y014903D01*
X038146Y015064D01*
X038009Y015202D01*
X037847Y015309D01*
X037668Y015383D01*
X037478Y015421D01*
D02*
G37*
G36*
X024791Y014994D02*
X024782Y014994D01*
X024773Y014993D01*
X024764Y014992D01*
X024756Y014991D01*
X024747Y01499D01*
X024738Y014988D01*
X02473Y014986D01*
X024722Y014984D01*
X024713Y014982D01*
X024705Y014979D01*
X024697Y014976D01*
X024689Y014972D01*
X024681Y014969D01*
X024673Y014965D01*
X024665Y014961D01*
X024658Y014956D01*
X02465Y014952D01*
X024643Y014947D01*
X024636Y014942D01*
X024629Y014936D01*
X024622Y014931D01*
X024616Y014925D01*
X02461Y014919D01*
X024604Y014912D01*
X024598Y014906D01*
X024592Y014899D01*
X024587Y014892D01*
X024581Y014885D01*
X024577Y014878D01*
X024572Y014871D01*
X024567Y014863D01*
X024563Y014856D01*
X024559Y014848D01*
X024556Y01484D01*
X024552Y014832D01*
X024549Y014823D01*
X024547Y014815D01*
X024544Y014807D01*
X024542Y014798D01*
X02454Y01479D01*
X024538Y014781D01*
X024537Y014773D01*
X024536Y014764D01*
X024535Y014755D01*
X024535Y014746D01*
X024535Y014738D01*
X024535Y014729D01*
X024535Y01472D01*
X024536Y014712D01*
X024537Y014703D01*
X024538Y014694D01*
X02454Y014686D01*
X024542Y014677D01*
X024544Y014669D01*
X024547Y01466D01*
X024549Y014652D01*
X024552Y014644D01*
X024556Y014636D01*
X024559Y014628D01*
X024563Y01462D01*
X024567Y014612D01*
X024572Y014605D01*
X024577Y014597D01*
X024581Y01459D01*
X024587Y014583D01*
X024592Y014576D01*
X024598Y01457D01*
X024604Y014563D01*
X02461Y014557D01*
X024616Y014551D01*
X024622Y014545D01*
X024629Y014539D01*
X024636Y014534D01*
X024643Y014529D01*
X02465Y014524D01*
X024658Y014519D01*
X024665Y014515D01*
X024673Y014511D01*
X024681Y014507D01*
X024689Y014503D01*
X024697Y0145D01*
X024705Y014497D01*
X024713Y014494D01*
X024722Y014491D01*
X02473Y014489D01*
X024738Y014487D01*
X024747Y014486D01*
X024756Y014484D01*
X024764Y014483D01*
X024773Y014482D01*
X024782Y014482D01*
X024791Y014482D01*
X024799Y014482D01*
X024808Y014482D01*
X024817Y014483D01*
X024825Y014484D01*
X024834Y014486D01*
X024843Y014487D01*
X024851Y014489D01*
X02486Y014491D01*
X024868Y014494D01*
X024876Y014497D01*
X024884Y0145D01*
X024893Y014503D01*
X0249Y014507D01*
X024908Y014511D01*
X024916Y014515D01*
X024924Y014519D01*
X024931Y014524D01*
X024938Y014529D01*
X02494Y01453D01*
X03217D01*
X032185Y014515D01*
X032188Y014511D01*
X032198Y01448D01*
X032197Y01448D01*
X032193Y014472D01*
X032189Y014464D01*
X032186Y014456D01*
X032182Y014448D01*
X032179Y01444D01*
X032177Y014432D01*
X032174Y014423D01*
X032172Y014415D01*
X03217Y014406D01*
X032168Y014398D01*
X032167Y014389D01*
X032166Y014381D01*
X032165Y014372D01*
X032165Y014363D01*
X032165Y014354D01*
X032165Y014346D01*
X032165Y014337D01*
X032166Y014328D01*
X032167Y014319D01*
X032168Y014311D01*
X03217Y014302D01*
X032172Y014294D01*
X032174Y014285D01*
X032177Y014277D01*
X032179Y014269D01*
X032182Y01426D01*
X032186Y014252D01*
X032189Y014244D01*
X032193Y014237D01*
X032197Y014229D01*
X032202Y014221D01*
X032206Y014214D01*
X032211Y014207D01*
X032217Y0142D01*
X032222Y014193D01*
X032228Y014186D01*
X032233Y01418D01*
X032239Y014173D01*
X032246Y014167D01*
X032252Y014161D01*
X032259Y014156D01*
X032266Y01415D01*
X032273Y014145D01*
X03228Y01414D01*
X032287Y014136D01*
X032295Y014131D01*
X032303Y014127D01*
X032311Y014123D01*
X032318Y01412D01*
X032327Y014116D01*
X032335Y014113D01*
X032343Y01411D01*
X032351Y014108D01*
X03236Y014106D01*
X032368Y014104D01*
X032377Y014102D01*
X032386Y014101D01*
X032394Y0141D01*
X032403Y014099D01*
X032412Y014099D01*
X03242Y014098D01*
X032429Y014099D01*
X032438Y014099D01*
X032447Y0141D01*
X032455Y014101D01*
X032464Y014102D01*
X032473Y014104D01*
X032481Y014106D01*
X03249Y014108D01*
X032498Y01411D01*
X032506Y014113D01*
X032514Y014116D01*
X032522Y01412D01*
X03253Y014123D01*
X032538Y014127D01*
X032546Y014131D01*
X032553Y014136D01*
X032561Y01414D01*
X032568Y014145D01*
X032575Y01415D01*
X032582Y014156D01*
X032589Y014161D01*
X032595Y014167D01*
X032601Y014173D01*
X032608Y01418D01*
X032613Y014186D01*
X032619Y014193D01*
X032624Y0142D01*
X03263Y014207D01*
X032634Y014214D01*
X032639Y014221D01*
X032644Y014229D01*
X032648Y014237D01*
X032652Y014244D01*
X032655Y014252D01*
X032659Y01426D01*
X032662Y014269D01*
X032664Y014277D01*
X032667Y014285D01*
X032669Y014294D01*
X032671Y014302D01*
X032673Y014311D01*
X032674Y014319D01*
X032675Y014328D01*
X032676Y014337D01*
X032676Y014346D01*
X032676Y014354D01*
X032676Y014363D01*
X032676Y014372D01*
X032675Y014381D01*
X032674Y014389D01*
X032673Y014398D01*
X032671Y014406D01*
X032669Y014415D01*
X032667Y014423D01*
X032664Y014432D01*
X032662Y01444D01*
X032659Y014448D01*
X032655Y014456D01*
X032652Y014464D01*
X032648Y014472D01*
X032644Y01448D01*
X032643Y01448D01*
X032653Y014511D01*
X032656Y014515D01*
X032671Y01453D01*
X033242D01*
X033426Y014347D01*
Y013594D01*
X033424Y013592D01*
X033419Y013585D01*
X033414Y013577D01*
X03341Y01357D01*
X033406Y013562D01*
X033402Y013554D01*
X033398Y013546D01*
X033395Y013538D01*
X033392Y01353D01*
X033389Y013522D01*
X033387Y013513D01*
X033384Y013505D01*
X033382Y013496D01*
X033381Y013488D01*
X03338Y013479D01*
X033378Y01347D01*
X033378Y013462D01*
X033377Y013453D01*
X033377Y013444D01*
X033377Y013435D01*
X033378Y013427D01*
X033378Y013418D01*
X03338Y013409D01*
X033381Y013401D01*
X033382Y013392D01*
X033384Y013384D01*
X033387Y013375D01*
X033389Y013367D01*
X033392Y013358D01*
X033395Y01335D01*
X033398Y013342D01*
X033402Y013334D01*
X033406Y013326D01*
X03341Y013319D01*
X033414Y013311D01*
X033419Y013304D01*
X033424Y013297D01*
X033429Y013289D01*
X033435Y013283D01*
X03344Y013276D01*
X033446Y013269D01*
X033452Y013263D01*
X033458Y013257D01*
X033465Y013251D01*
X033472Y013246D01*
X033478Y01324D01*
X033485Y013235D01*
X033493Y01323D01*
X0335Y013225D01*
X033508Y013221D01*
X033515Y013217D01*
X033523Y013213D01*
X033531Y013209D01*
X033539Y013206D01*
X033547Y013203D01*
X033556Y0132D01*
X033564Y013198D01*
X033572Y013195D01*
X033581Y013194D01*
X03359Y013192D01*
X033598Y013191D01*
X033607Y01319D01*
X033616Y013189D01*
X033624Y013188D01*
X033633Y013188D01*
X033642Y013188D01*
X033651Y013189D01*
X033659Y01319D01*
X033668Y013191D01*
X033677Y013192D01*
X033685Y013194D01*
X033694Y013195D01*
X033702Y013198D01*
X03371Y0132D01*
X033719Y013203D01*
X033727Y013206D01*
X033735Y013209D01*
X033743Y013213D01*
X033751Y013217D01*
X033759Y013221D01*
X033766Y013225D01*
X033773Y01323D01*
X033781Y013235D01*
X033788Y01324D01*
X033795Y013246D01*
X033801Y013251D01*
X033808Y013257D01*
X033814Y013263D01*
X03382Y013269D01*
X033826Y013276D01*
X033832Y013283D01*
X033837Y013289D01*
X033842Y013297D01*
X033847Y013304D01*
X033852Y013311D01*
X033856Y013319D01*
X03386Y013326D01*
X033864Y013334D01*
X033868Y013342D01*
X033871Y01335D01*
X033874Y013358D01*
X033877Y013367D01*
X03388Y013375D01*
X033882Y013384D01*
X033884Y013392D01*
X033885Y013401D01*
X033887Y013409D01*
X033888Y013418D01*
X033888Y013427D01*
X033889Y013435D01*
X033889Y013444D01*
X033889Y013453D01*
X033888Y013462D01*
X033888Y01347D01*
X033887Y013479D01*
X033885Y013488D01*
X033884Y013496D01*
X033882Y013505D01*
X03388Y013513D01*
X033877Y013522D01*
X033874Y01353D01*
X033871Y013538D01*
X033868Y013546D01*
X033864Y013554D01*
X03386Y013562D01*
X033856Y01357D01*
X033852Y013577D01*
X033847Y013585D01*
X033842Y013592D01*
X033841Y013594D01*
Y014433D01*
X03384Y014441D01*
X03384Y014449D01*
X033839Y014456D01*
X033838Y014464D01*
X033837Y014472D01*
X033835Y014479D01*
X033834Y014487D01*
X033831Y014494D01*
X033829Y014502D01*
X033826Y014509D01*
X033823Y014516D01*
X03382Y014523D01*
X033817Y01453D01*
X033813Y014537D01*
X033809Y014543D01*
X033805Y01455D01*
X0338Y014556D01*
X033795Y014562D01*
X03379Y014568D01*
X033785Y014574D01*
X03378Y01458D01*
X033475Y014884D01*
X03347Y01489D01*
X033464Y014895D01*
X033458Y0149D01*
X033452Y014905D01*
X033445Y014909D01*
X033439Y014913D01*
X033432Y014917D01*
X033425Y014921D01*
X033418Y014925D01*
X033411Y014928D01*
X033404Y014931D01*
X033397Y014934D01*
X03339Y014936D01*
X033382Y014938D01*
X033375Y01494D01*
X033367Y014942D01*
X033359Y014943D01*
X033352Y014944D01*
X033344Y014945D01*
X033336Y014945D01*
X033328Y014945D01*
X02494D01*
X024938Y014947D01*
X024931Y014952D01*
X024924Y014956D01*
X024916Y014961D01*
X024908Y014965D01*
X0249Y014969D01*
X024893Y014972D01*
X024884Y014976D01*
X024876Y014979D01*
X024868Y014982D01*
X02486Y014984D01*
X024851Y014986D01*
X024843Y014988D01*
X024834Y01499D01*
X024825Y014991D01*
X024817Y014992D01*
X024808Y014993D01*
X024799Y014994D01*
X024791Y014994D01*
D02*
G37*
%LPD*%
G36*
X027795Y025156D02*
X02779Y02515D01*
X027786Y025143D01*
X027782Y025136D01*
X027779Y025128D01*
X027776Y02512D01*
X027774Y025112D01*
X027773Y025103D01*
X027772Y025093D01*
X027771Y025083D01*
X027692D01*
X027691Y025093D01*
X02769Y025103D01*
X027689Y025112D01*
X027687Y02512D01*
X027684Y025128D01*
X027681Y025136D01*
X027677Y025143D01*
X027673Y02515D01*
X027668Y025156D01*
X027663Y025162D01*
X0278D01*
X027795Y025156D01*
D02*
G37*
G36*
X033337Y025159D02*
X033331Y025154D01*
X033326Y025148D01*
X033322Y025141D01*
X033318Y025134D01*
X033314Y025126D01*
X033312Y025118D01*
X03331Y02511D01*
X033308Y025101D01*
X033307Y025092D01*
X033307Y025082D01*
X033227Y025085D01*
X033227Y025095D01*
X033226Y025104D01*
X033224Y025113D01*
X033222Y025122D01*
X03322Y02513D01*
X033217Y025138D01*
X033213Y025145D01*
X033209Y025152D01*
X033204Y025159D01*
X033199Y025165D01*
X033337Y025159D01*
D02*
G37*
G36*
X025437Y025144D02*
X025432Y025138D01*
X025427Y025131D01*
X025424Y025124D01*
X02542Y025116D01*
X025418Y025108D01*
X025416Y0251D01*
X025414Y025091D01*
X025414Y025081D01*
X025413Y025071D01*
X025333D01*
X025333Y025081D01*
X025332Y025091D01*
X025331Y0251D01*
X025329Y025108D01*
X025326Y025116D01*
X025323Y025124D01*
X025319Y025131D01*
X025315Y025138D01*
X02531Y025144D01*
X025304Y02515D01*
X025442D01*
X025437Y025144D01*
D02*
G37*
G36*
X021901Y025132D02*
X021896Y025126D01*
X021892Y025119D01*
X021888Y025112D01*
X021885Y025105D01*
X021882Y025096D01*
X02188Y025088D01*
X021879Y025079D01*
X021878Y02507D01*
X021878Y02506D01*
X021798D01*
X021798Y02507D01*
X021797Y025079D01*
X021795Y025088D01*
X021793Y025096D01*
X021791Y025105D01*
X021787Y025112D01*
X021784Y025119D01*
X021779Y025126D01*
X021774Y025132D01*
X021769Y025138D01*
X021907D01*
X021901Y025132D01*
D02*
G37*
G36*
X030948Y025129D02*
X030944Y025122D01*
X030939Y025115D01*
X030935Y025108D01*
X030932Y025101D01*
X03093Y025093D01*
X030928Y025084D01*
X030926Y025075D01*
X030925Y025066D01*
X030925Y025056D01*
X030845D01*
X030845Y025066D01*
X030844Y025075D01*
X030842Y025084D01*
X03084Y025093D01*
X030838Y025101D01*
X030835Y025108D01*
X030831Y025115D01*
X030827Y025122D01*
X030822Y025129D01*
X030816Y025134D01*
X030954D01*
X030948Y025129D01*
D02*
G37*
G36*
X033307Y022186D02*
X033308Y022177D01*
X03331Y022168D01*
X033312Y022159D01*
X033314Y022151D01*
X033317Y022144D01*
X033321Y022137D01*
X033325Y02213D01*
X03333Y022123D01*
X033336Y022118D01*
X033198D01*
X033204Y022123D01*
X033208Y02213D01*
X033213Y022137D01*
X033217Y022144D01*
X03322Y022151D01*
X033222Y022159D01*
X033224Y022168D01*
X033226Y022177D01*
X033227Y022186D01*
X033227Y022196D01*
X033307D01*
X033307Y022186D01*
D02*
G37*
G36*
X032871D02*
X032872Y022177D01*
X032874Y022168D01*
X032876Y022159D01*
X032878Y022151D01*
X032881Y022144D01*
X032885Y022137D01*
X032889Y02213D01*
X032894Y022123D01*
X0329Y022118D01*
X032762D01*
X032768Y022123D01*
X032772Y02213D01*
X032777Y022137D01*
X03278Y022144D01*
X032784Y022151D01*
X032786Y022159D01*
X032788Y022168D01*
X03279Y022177D01*
X032791Y022186D01*
X032791Y022196D01*
X032871D01*
X032871Y022186D01*
D02*
G37*
G36*
X032435D02*
X032436Y022177D01*
X032437Y022168D01*
X032439Y022159D01*
X032442Y022151D01*
X032445Y022144D01*
X032449Y022137D01*
X032453Y02213D01*
X032458Y022123D01*
X032464Y022118D01*
X032326D01*
X032331Y022123D01*
X032336Y02213D01*
X032341Y022137D01*
X032344Y022144D01*
X032348Y022151D01*
X03235Y022159D01*
X032352Y022168D01*
X032354Y022177D01*
X032355Y022186D01*
X032355Y022196D01*
X032435D01*
X032435Y022186D01*
D02*
G37*
G36*
X031999D02*
X032Y022177D01*
X032001Y022168D01*
X032003Y022159D01*
X032006Y022151D01*
X032009Y022144D01*
X032013Y022137D01*
X032017Y02213D01*
X032022Y022123D01*
X032028Y022118D01*
X03189D01*
X031895Y022123D01*
X0319Y02213D01*
X031905Y022137D01*
X031908Y022144D01*
X031912Y022151D01*
X031914Y022159D01*
X031916Y022168D01*
X031918Y022177D01*
X031919Y022186D01*
X031919Y022196D01*
X031999D01*
X031999Y022186D01*
D02*
G37*
G36*
X031563D02*
X031564Y022177D01*
X031565Y022168D01*
X031567Y022159D01*
X03157Y022151D01*
X031573Y022144D01*
X031577Y022137D01*
X031581Y02213D01*
X031586Y022123D01*
X031592Y022118D01*
X031454D01*
X031459Y022123D01*
X031464Y02213D01*
X031469Y022137D01*
X031472Y022144D01*
X031476Y022151D01*
X031478Y022159D01*
X03148Y022168D01*
X031482Y022177D01*
X031483Y022186D01*
X031483Y022196D01*
X031563D01*
X031563Y022186D01*
D02*
G37*
G36*
X040609Y023828D02*
X040601Y023825D01*
X040593Y02382D01*
X040587Y023813D01*
X040581Y023804D01*
X040577Y023793D01*
X040573Y02378D01*
X040571Y023764D01*
X040569Y023747D01*
X040569Y023728D01*
X040469D01*
X040468Y023747D01*
X040467Y023764D01*
X040464Y02378D01*
X040461Y023793D01*
X040456Y023804D01*
X040451Y023813D01*
X040444Y02382D01*
X040437Y023825D01*
X040428Y023828D01*
X040419Y023829D01*
X040619D01*
X040609Y023828D01*
D02*
G37*
G36*
X040569Y023389D02*
X040571Y02337D01*
X040572Y023362D01*
X040574Y023354D01*
X040576Y023347D01*
X040578Y023341D01*
X040581Y023335D01*
X040584Y02333D01*
X040588Y023326D01*
X04045D01*
X040454Y02333D01*
X040457Y023335D01*
X04046Y023341D01*
X040462Y023347D01*
X040464Y023354D01*
X040466Y023362D01*
X040467Y02337D01*
X040468Y023379D01*
X040469Y0234D01*
X040569D01*
X040569Y023389D01*
D02*
G37*
G36*
X036028Y022508D02*
X036034Y022503D01*
X036041Y022499D01*
X036048Y022495D01*
X036056Y022492D01*
X036064Y02249D01*
X036073Y022487D01*
X036082Y022486D01*
X036091Y022485D01*
X036101Y022485D01*
Y022405D01*
X036091Y022405D01*
X036082Y022404D01*
X036073Y022402D01*
X036064Y0224D01*
X036056Y022398D01*
X036048Y022394D01*
X036041Y022391D01*
X036034Y022386D01*
X036028Y022381D01*
X036022Y022376D01*
Y022514D01*
X036028Y022508D01*
D02*
G37*
G36*
X036248Y022365D02*
X036248Y022372D01*
X036245Y022379D01*
X036241Y022385D01*
X036236Y02239D01*
X036228Y022395D01*
X03622Y022398D01*
X036209Y022401D01*
X036197Y022403D01*
X036184Y022404D01*
X036168Y022405D01*
Y022485D01*
X036184Y022485D01*
X036197Y022486D01*
X036209Y022488D01*
X03622Y022491D01*
X036228Y022495D01*
X036236Y022499D01*
X036241Y022504D01*
X036245Y02251D01*
X036248Y022517D01*
X036248Y022525D01*
Y022365D01*
D02*
G37*
G36*
X037486Y022115D02*
X037481Y022108D01*
X037476Y022102D01*
X037473Y022094D01*
X03747Y022087D01*
X037467Y022079D01*
X037465Y02207D01*
X037463Y022061D01*
X037463Y022052D01*
X037462Y022042D01*
X037382D01*
X037382Y022052D01*
X037381Y022061D01*
X03738Y02207D01*
X037378Y022079D01*
X037375Y022087D01*
X037372Y022094D01*
X037368Y022102D01*
X037364Y022108D01*
X037359Y022115D01*
X037353Y022121D01*
X037491D01*
X037486Y022115D01*
D02*
G37*
G36*
X036028Y021996D02*
X036034Y021992D01*
X036041Y021987D01*
X036048Y021983D01*
X036056Y02198D01*
X036064Y021978D01*
X036073Y021976D01*
X036082Y021974D01*
X036091Y021973D01*
X036101Y021973D01*
Y021893D01*
X036091Y021893D01*
X036082Y021892D01*
X036073Y02189D01*
X036064Y021888D01*
X036056Y021886D01*
X036048Y021883D01*
X036041Y021879D01*
X036034Y021875D01*
X036028Y02187D01*
X036022Y021864D01*
Y022002D01*
X036028Y021996D01*
D02*
G37*
G36*
X037112Y022007D02*
X037114Y022D01*
X037118Y021994D01*
X037124Y021989D01*
X037131Y021985D01*
X03714Y021981D01*
X037151Y021978D01*
X037163Y021976D01*
X037177Y021975D01*
X037192Y021975D01*
Y021895D01*
X037177Y021894D01*
X037163Y021893D01*
X037151Y021891D01*
X03714Y021888D01*
X037131Y021885D01*
X037124Y02188D01*
X037118Y021875D01*
X037114Y021869D01*
X037112Y021862D01*
X037111Y021855D01*
Y022015D01*
X037112Y022007D01*
D02*
G37*
G36*
X036248Y021853D02*
X036248Y021861D01*
X036245Y021867D01*
X036241Y021873D01*
X036236Y021879D01*
X036228Y021883D01*
X03622Y021887D01*
X036209Y021889D01*
X036197Y021891D01*
X036184Y021893D01*
X036168Y021893D01*
Y021973D01*
X036184Y021973D01*
X036197Y021975D01*
X036209Y021977D01*
X03622Y021979D01*
X036228Y021983D01*
X036236Y021987D01*
X036241Y021993D01*
X036245Y021999D01*
X036248Y022005D01*
X036248Y022013D01*
Y021853D01*
D02*
G37*
G36*
X036026Y021487D02*
X036032Y021482D01*
X036039Y021477D01*
X036046Y021474D01*
X036054Y02147D01*
X036062Y021468D01*
X036071Y021466D01*
X03608Y021464D01*
X036089Y021463D01*
X036099Y021463D01*
Y021383D01*
X036089Y021383D01*
X03608Y021382D01*
X036071Y021381D01*
X036062Y021378D01*
X036054Y021376D01*
X036046Y021373D01*
X036039Y021369D01*
X036032Y021365D01*
X036026Y02136D01*
X03602Y021354D01*
Y021492D01*
X036026Y021487D01*
D02*
G37*
G36*
X037113Y021496D02*
X037115Y021489D01*
X037119Y021483D01*
X037125Y021478D01*
X037132Y021473D01*
X037141Y02147D01*
X037151Y021467D01*
X037163Y021465D01*
X037177Y021464D01*
X037192Y021463D01*
Y021383D01*
X037177Y021383D01*
X037163Y021382D01*
X037151Y02138D01*
X037141Y021377D01*
X037132Y021373D01*
X037125Y021369D01*
X037119Y021364D01*
X037115Y021358D01*
X037113Y021351D01*
X037112Y021343D01*
Y021503D01*
X037113Y021496D01*
D02*
G37*
G36*
X03625Y021343D02*
X036249Y021351D01*
X036246Y021358D01*
X036242Y021364D01*
X036237Y021369D01*
X036229Y021373D01*
X03622Y021377D01*
X03621Y02138D01*
X036198Y021382D01*
X036184Y021383D01*
X036168Y021383D01*
Y021463D01*
X036184Y021464D01*
X036198Y021465D01*
X03621Y021467D01*
X03622Y02147D01*
X036229Y021473D01*
X036237Y021478D01*
X036242Y021483D01*
X036246Y021489D01*
X036249Y021496D01*
X03625Y021503D01*
Y021343D01*
D02*
G37*
G36*
X037459Y021306D02*
X03746Y021297D01*
X037461Y021288D01*
X037463Y021279D01*
X037466Y021271D01*
X037469Y021264D01*
X037473Y021256D01*
X037477Y02125D01*
X037482Y021243D01*
X037487Y021237D01*
X037349D01*
X037355Y021243D01*
X03736Y02125D01*
X037364Y021256D01*
X037368Y021264D01*
X037371Y021271D01*
X037374Y021279D01*
X037376Y021288D01*
X037377Y021297D01*
X037378Y021306D01*
X037378Y021316D01*
X037458D01*
X037459Y021306D01*
D02*
G37*
G36*
X027554Y02173D02*
X027547Y021727D01*
X027541Y021723D01*
X027536Y021718D01*
X027531Y02171D01*
X027528Y021702D01*
X027525Y021691D01*
X027524Y021685D01*
X027526Y021677D01*
X027529Y021669D01*
X027532Y021661D01*
X027536Y021654D01*
X02754Y021647D01*
X027545Y021641D01*
X02755Y021635D01*
X027413D01*
X027418Y021641D01*
X027423Y021647D01*
X027427Y021654D01*
X027431Y021661D01*
X027434Y021669D01*
X027437Y021677D01*
X027439Y021685D01*
X027438Y021691D01*
X027435Y021702D01*
X027431Y02171D01*
X027427Y021718D01*
X027422Y021723D01*
X027416Y021727D01*
X027409Y02173D01*
X027401Y021731D01*
X027562D01*
X027554Y02173D01*
D02*
G37*
G36*
X028065Y0212D02*
X028069Y021199D01*
X028078Y021197D01*
X028087Y021196D01*
X028108Y021196D01*
Y021096D01*
X028097Y021095D01*
X028078Y021094D01*
X028069Y021093D01*
X028065Y021092D01*
Y021046D01*
X028064Y021055D01*
X028061Y021064D01*
X028056Y021071D01*
X028048Y021078D01*
X028041Y021082D01*
X028038Y02108D01*
X028034Y021077D01*
Y021085D01*
X028028Y021088D01*
X028015Y021091D01*
X028Y021094D01*
X027983Y021095D01*
X027964Y021096D01*
Y021196D01*
X027983Y021196D01*
X028Y021198D01*
X028015Y0212D01*
X028028Y021204D01*
X028034Y021206D01*
Y021215D01*
X028038Y021211D01*
X028041Y021209D01*
X028048Y021214D01*
X028056Y02122D01*
X028061Y021227D01*
X028064Y021236D01*
X028065Y021245D01*
Y0212D01*
D02*
G37*
G36*
X029718Y021054D02*
X029717Y021063D01*
X029714Y021072D01*
X029709Y021079D01*
X029702Y021086D01*
X029693Y021091D01*
X029682Y021096D01*
X029669Y021099D01*
X029653Y021102D01*
X029636Y021103D01*
X029619Y021103D01*
X029602Y021103D01*
X029585Y021102D01*
X02957Y021099D01*
X029557Y021096D01*
X029546Y021091D01*
X029537Y021086D01*
X02953Y021079D01*
X029524Y021072D01*
X029521Y021063D01*
X02952Y021054D01*
Y021103D01*
X029408Y0211D01*
Y021207D01*
X02941Y021206D01*
X029415Y021206D01*
X029434Y021205D01*
X02952Y021204D01*
Y021254D01*
X029521Y021244D01*
X029524Y021236D01*
X02953Y021228D01*
X029537Y021222D01*
X029546Y021216D01*
X029557Y021212D01*
X02957Y021208D01*
X029585Y021206D01*
X029602Y021204D01*
X029619Y021204D01*
X029636Y021204D01*
X029653Y021206D01*
X029669Y021208D01*
X029682Y021212D01*
X029693Y021216D01*
X029702Y021222D01*
X029709Y021228D01*
X029714Y021236D01*
X029717Y021244D01*
X029718Y021254D01*
Y021054D01*
D02*
G37*
G36*
X029171Y021204D02*
X029302Y021207D01*
Y0211D01*
X0293Y021101D01*
X029295Y021102D01*
X029276Y021102D01*
X029171Y021103D01*
Y021054D01*
X02917Y021063D01*
X029167Y021072D01*
X029162Y021079D01*
X029155Y021086D01*
X029146Y021091D01*
X029134Y021096D01*
X029121Y021099D01*
X029106Y021102D01*
X029089Y021103D01*
X02907Y021104D01*
X029051Y021103D01*
X029034Y021102D01*
X029019Y021099D01*
X029006Y021096D01*
X028995Y021091D01*
X028985Y021086D01*
X028978Y021079D01*
X028973Y021072D01*
X02897Y021063D01*
X028969Y021054D01*
Y021254D01*
X02897Y021244D01*
X028973Y021236D01*
X028978Y021228D01*
X028985Y021222D01*
X028995Y021216D01*
X029006Y021212D01*
X029019Y021208D01*
X029034Y021206D01*
X029051Y021204D01*
X02907Y021204D01*
X029089Y021204D01*
X029106Y021206D01*
X029121Y021208D01*
X029134Y021212D01*
X029146Y021216D01*
X029155Y021222D01*
X029162Y021228D01*
X029167Y021236D01*
X02917Y021244D01*
X029171Y021254D01*
Y021204D01*
D02*
G37*
G36*
X030069Y021229D02*
X030072Y021221D01*
X030076Y021214D01*
X030083Y021208D01*
X030088Y021205D01*
X03009Y021207D01*
X030094Y021211D01*
Y021202D01*
X030103Y021199D01*
X030115Y021196D01*
X03013Y021194D01*
X030146Y021192D01*
X030165Y021192D01*
Y021092D01*
X030146Y021091D01*
X03013Y02109D01*
X030115Y021088D01*
X030103Y021084D01*
X030094Y021081D01*
Y021073D01*
X03009Y021076D01*
X030088Y021078D01*
X030083Y021075D01*
X030076Y021069D01*
X030072Y021062D01*
X030069Y021055D01*
X030068Y021046D01*
Y021087D01*
X030067Y021087D01*
X030059Y021089D01*
X03005Y02109D01*
X030041Y021091D01*
X030021Y021092D01*
Y021192D01*
X030031Y021192D01*
X03005Y021193D01*
X030059Y021195D01*
X030067Y021196D01*
X030068Y021197D01*
Y021237D01*
X030069Y021229D01*
D02*
G37*
G36*
X02862Y021054D02*
X028619Y021063D01*
X028616Y021072D01*
X028611Y021079D01*
X028604Y021086D01*
X028594Y021091D01*
X028583Y021096D01*
X02857Y021099D01*
X028555Y021102D01*
X028538Y021103D01*
X028519Y021104D01*
Y021204D01*
X028538Y021204D01*
X028555Y021206D01*
X02857Y021208D01*
X028583Y021212D01*
X028594Y021216D01*
X028604Y021222D01*
X028611Y021228D01*
X028616Y021236D01*
X028619Y021244D01*
X02862Y021254D01*
Y021054D01*
D02*
G37*
G36*
X028415Y021244D02*
X028418Y021236D01*
X028423Y021228D01*
X02843Y021222D01*
X028439Y021216D01*
X028451Y021212D01*
X028464Y021208D01*
X028479Y021206D01*
X028496Y021204D01*
X028515Y021204D01*
Y021104D01*
X028496Y021103D01*
X028479Y021102D01*
X028464Y021099D01*
X028451Y021096D01*
X028439Y021091D01*
X02843Y021086D01*
X028423Y021079D01*
X028418Y021072D01*
X028415Y021063D01*
X028414Y021054D01*
Y021254D01*
X028415Y021244D01*
D02*
G37*
G36*
X029491Y020997D02*
X029478Y020992D01*
X029467Y020985D01*
X029457Y020974D01*
X029449Y020961D01*
X029442Y020944D01*
X029437Y020924D01*
X029433Y020902D01*
X029431Y020876D01*
X02943Y020847D01*
X02928D01*
X029279Y020876D01*
X029277Y020902D01*
X029273Y020924D01*
X029268Y020944D01*
X029261Y020961D01*
X029253Y020974D01*
X029243Y020985D01*
X029232Y020992D01*
X029219Y020997D01*
X029205Y020998D01*
X029505D01*
X029491Y020997D01*
D02*
G37*
G36*
X02823Y020466D02*
X028223Y020458D01*
X028218Y02045D01*
X028213Y020442D01*
X028208Y020434D01*
X028205Y020425D01*
X028203Y020421D01*
X028206Y020414D01*
X028209Y020409D01*
X028213Y020405D01*
X028218Y020402D01*
X028223Y0204D01*
X028228Y020399D01*
X028199D01*
X028198Y020391D01*
X028138D01*
X028138Y020399D01*
X028108D01*
X028114Y0204D01*
X028119Y020402D01*
X028124Y020405D01*
X028128Y020409D01*
X028131Y020414D01*
X028134Y020421D01*
X028132Y020425D01*
X028129Y020434D01*
X028124Y020442D01*
X028119Y02045D01*
X028114Y020458D01*
X028107Y020466D01*
X0281Y020473D01*
X028237D01*
X02823Y020466D01*
D02*
G37*
G36*
X028881Y020315D02*
X028884Y020306D01*
X028889Y020299D01*
X028896Y020292D01*
X028905Y020287D01*
X028916Y020282D01*
X028929Y020279D01*
X028944Y020276D01*
X028961Y020275D01*
X02898Y020274D01*
Y020174D01*
X028961Y020174D01*
X028944Y020172D01*
X028929Y02017D01*
X028916Y020166D01*
X028905Y020162D01*
X028896Y020156D01*
X028889Y02015D01*
X028884Y020142D01*
X028881Y020134D01*
X02888Y020124D01*
Y020324D01*
X028881Y020315D01*
D02*
G37*
G36*
X021997Y019911D02*
X022002Y019908D01*
X022007Y019905D01*
X022013Y019902D01*
X02202Y0199D01*
X022028Y019899D01*
X022037Y019897D01*
X022046Y019896D01*
X022066Y019895D01*
Y019795D01*
X022056Y019795D01*
X022037Y019794D01*
X022028Y019792D01*
X02202Y019791D01*
X022013Y019789D01*
X022007Y019786D01*
X022002Y019783D01*
X021997Y01978D01*
X021993Y019777D01*
Y019914D01*
X021997Y019911D01*
D02*
G37*
G36*
X029769Y019487D02*
X029768Y019496D01*
X029765Y019505D01*
X02976Y019512D01*
X029753Y019519D01*
X029744Y019524D01*
X029733Y019529D01*
X02972Y019532D01*
X029705Y019535D01*
X029687Y019536D01*
X029668Y019537D01*
Y019637D01*
X029687Y019637D01*
X029705Y019639D01*
X02972Y019641D01*
X029733Y019645D01*
X029744Y019649D01*
X029753Y019655D01*
X02976Y019661D01*
X029765Y019669D01*
X029768Y019677D01*
X029769Y019687D01*
Y019487D01*
D02*
G37*
G36*
X028881Y019677D02*
X028884Y019669D01*
X028889Y019661D01*
X028896Y019655D01*
X028905Y019649D01*
X028916Y019645D01*
X028929Y019641D01*
X028944Y019639D01*
X028961Y019637D01*
X02898Y019637D01*
Y019537D01*
X028961Y019536D01*
X028944Y019535D01*
X028929Y019532D01*
X028916Y019529D01*
X028905Y019524D01*
X028896Y019519D01*
X028889Y019512D01*
X028884Y019505D01*
X028881Y019496D01*
X02888Y019487D01*
Y019687D01*
X028881Y019677D01*
D02*
G37*
G36*
X029431Y019758D02*
X029434Y019733D01*
X029439Y01971D01*
X029446Y019691D01*
X029455Y019674D01*
X029466Y019661D01*
X029479Y01965D01*
X029494Y019643D01*
X029511Y019638D01*
X029526Y019637D01*
X029561Y019637D01*
Y019537D01*
X029519Y019536D01*
X029511Y019535D01*
X029494Y019531D01*
X029479Y019523D01*
X029466Y019513D01*
X029455Y019499D01*
X029446Y019483D01*
X029439Y019463D01*
X029434Y019441D01*
X029431Y019415D01*
X02943Y019387D01*
X02928D01*
X029279Y019415D01*
X029276Y019441D01*
X029271Y019463D01*
X029264Y019483D01*
X029255Y019499D01*
X029244Y019513D01*
X029231Y019523D01*
X029216Y019531D01*
X029199Y019535D01*
X029184Y019536D01*
X029149Y019537D01*
Y019637D01*
X02919Y019637D01*
X029199Y019638D01*
X029216Y019643D01*
X029231Y01965D01*
X029244Y019661D01*
X029255Y019674D01*
X029264Y019691D01*
X029271Y01971D01*
X029276Y019733D01*
X029279Y019758D01*
X02928Y019787D01*
X02943D01*
X029431Y019758D01*
D02*
G37*
G36*
X030035Y019438D02*
X030026Y019435D01*
X030019Y01943D01*
X030012Y019423D01*
X030007Y019414D01*
X030002Y019403D01*
X029999Y01939D01*
X029996Y019375D01*
X029995Y019357D01*
X029994Y019343D01*
X029994Y019339D01*
X029996Y01932D01*
X029997Y019312D01*
X029999Y019304D01*
X030001Y019297D01*
X030003Y019291D01*
X030006Y019285D01*
X030009Y019281D01*
X030013Y019276D01*
X029875D01*
X029879Y019281D01*
X029882Y019285D01*
X029885Y019291D01*
X029887Y019297D01*
X029889Y019304D01*
X029891Y019312D01*
X029892Y01932D01*
X029893Y019329D01*
X029894Y019345D01*
X029894Y019357D01*
X029892Y019375D01*
X02989Y01939D01*
X029886Y019403D01*
X029882Y019414D01*
X029876Y019423D01*
X02987Y01943D01*
X029862Y019435D01*
X029854Y019438D01*
X029844Y019439D01*
X030044D01*
X030035Y019438D01*
D02*
G37*
G36*
X028245Y019411D02*
X028238Y019409D01*
X028232Y019405D01*
X028227Y019399D01*
X028222Y019392D01*
X028219Y019383D01*
X028216Y019372D01*
X028214Y01936D01*
X028213Y019346D01*
X028213Y019339D01*
X028213Y019336D01*
X028214Y019327D01*
X028215Y019318D01*
X028217Y019309D01*
X02822Y019301D01*
X028223Y019293D01*
X028227Y019286D01*
X028231Y019279D01*
X028236Y019273D01*
X028241Y019267D01*
X028104D01*
X028109Y019273D01*
X028114Y019279D01*
X028118Y019286D01*
X028122Y019293D01*
X028125Y019301D01*
X028128Y019309D01*
X02813Y019318D01*
X028131Y019327D01*
X028132Y019336D01*
X028132Y019339D01*
X028132Y019346D01*
X028131Y01936D01*
X028129Y019372D01*
X028126Y019383D01*
X028122Y019392D01*
X028118Y019399D01*
X028113Y019405D01*
X028107Y019409D01*
X0281Y019411D01*
X028092Y019412D01*
X028252D01*
X028245Y019411D01*
D02*
G37*
G36*
X024425Y017648D02*
X024421Y017651D01*
X024416Y017654D01*
X024411Y017657D01*
X024404Y01766D01*
X024397Y017662D01*
X02439Y017664D01*
X024381Y017665D01*
X024372Y017666D01*
X024351Y017667D01*
Y017767D01*
X024362Y017767D01*
X024381Y017768D01*
X02439Y01777D01*
X024397Y017771D01*
X024404Y017773D01*
X024411Y017776D01*
X024416Y017779D01*
X024421Y017782D01*
X024425Y017785D01*
Y017648D01*
D02*
G37*
G36*
X030831Y016601D02*
X030833Y016576D01*
X030837Y016553D01*
X030842Y016533D01*
X030849Y016517D01*
X030857Y016503D01*
X030867Y016493D01*
X030878Y016485D01*
X030891Y01648D01*
X030905Y016479D01*
X030605D01*
X030619Y01648D01*
X030632Y016485D01*
X030643Y016493D01*
X030653Y016503D01*
X030661Y016517D01*
X030668Y016533D01*
X030673Y016553D01*
X030677Y016576D01*
X030679Y016601D01*
X03068Y01663D01*
X03083D01*
X030831Y016601D01*
D02*
G37*
G36*
X021996Y016212D02*
X022Y016209D01*
X022006Y016206D01*
X022012Y016203D01*
X022019Y016201D01*
X022027Y016199D01*
X022035Y016198D01*
X022045Y016197D01*
X022065Y016196D01*
Y016096D01*
X022054Y016096D01*
X022035Y016095D01*
X022027Y016093D01*
X022019Y016092D01*
X022012Y01609D01*
X022006Y016087D01*
X022Y016084D01*
X021996Y016081D01*
X021992Y016078D01*
Y016215D01*
X021996Y016212D01*
D02*
G37*
G36*
X030891Y015731D02*
X030878Y015726D01*
X030867Y015719D01*
X030857Y015709D01*
X030849Y015695D01*
X030842Y015678D01*
X030837Y015659D01*
X030833Y015637D01*
X030831Y015611D01*
X03083Y015582D01*
X03068D01*
X030679Y015611D01*
X030677Y015637D01*
X030673Y015659D01*
X030668Y015678D01*
X030661Y015695D01*
X030653Y015709D01*
X030643Y015719D01*
X030632Y015726D01*
X030619Y015731D01*
X030605Y015733D01*
X030905D01*
X030891Y015731D01*
D02*
G37*
G36*
X039463Y019817D02*
X039468Y019814D01*
X039474Y019811D01*
X03948Y019809D01*
X039487Y019807D01*
X039495Y019805D01*
X039503Y019804D01*
X039512Y019803D01*
X039533Y019802D01*
Y019702D01*
X039522Y019702D01*
X039503Y0197D01*
X039495Y019699D01*
X039487Y019697D01*
X03948Y019695D01*
X039474Y019693D01*
X039468Y01969D01*
X039463Y019687D01*
X039459Y019683D01*
Y019821D01*
X039463Y019817D01*
D02*
G37*
G36*
X040031Y019652D02*
X04003Y019661D01*
X040027Y01967D01*
X040022Y019677D01*
X040015Y019684D01*
X040006Y019689D01*
X039995Y019694D01*
X039982Y019697D01*
X039966Y0197D01*
X039949Y019701D01*
X03993Y019702D01*
Y019802D01*
X039949Y019802D01*
X039966Y019804D01*
X039982Y019806D01*
X039995Y01981D01*
X040006Y019814D01*
X040015Y01982D01*
X040022Y019826D01*
X040027Y019834D01*
X04003Y019842D01*
X040031Y019852D01*
Y019652D01*
D02*
G37*
G36*
X03603Y018853D02*
X036036Y018848D01*
X036043Y018844D01*
X03605Y01884D01*
X036058Y018837D01*
X036066Y018834D01*
X036075Y018832D01*
X036084Y018831D01*
X036093Y01883D01*
X036103Y018829D01*
Y018749D01*
X036093Y018749D01*
X036084Y018748D01*
X036075Y018747D01*
X036066Y018745D01*
X036058Y018742D01*
X03605Y018739D01*
X036043Y018735D01*
X036036Y018731D01*
X03603Y018726D01*
X036024Y01872D01*
Y018858D01*
X03603Y018853D01*
D02*
G37*
G36*
X036248Y018709D02*
X036247Y018717D01*
X036244Y018724D01*
X03624Y01873D01*
X036235Y018735D01*
X036228Y018739D01*
X036219Y018743D01*
X036208Y018746D01*
X036196Y018748D01*
X036183Y018749D01*
X036168Y018749D01*
Y018829D01*
X036183Y01883D01*
X036196Y018831D01*
X036208Y018833D01*
X036219Y018836D01*
X036228Y018839D01*
X036235Y018844D01*
X03624Y018849D01*
X036244Y018855D01*
X036247Y018862D01*
X036248Y018869D01*
Y018709D01*
D02*
G37*
G36*
X037486Y018457D02*
X037481Y018451D01*
X037477Y018444D01*
X037473Y018437D01*
X03747Y018429D01*
X037467Y018421D01*
X037465Y018413D01*
X037464Y018404D01*
X037463Y018394D01*
X037462Y018384D01*
X037382D01*
X037382Y018394D01*
X037381Y018404D01*
X03738Y018413D01*
X037378Y018421D01*
X037375Y018429D01*
X037372Y018437D01*
X037368Y018444D01*
X037364Y018451D01*
X037359Y018457D01*
X037354Y018463D01*
X037491D01*
X037486Y018457D01*
D02*
G37*
G36*
X036022Y018341D02*
X036028Y018336D01*
X036035Y018332D01*
X036042Y018328D01*
X03605Y018325D01*
X036058Y018322D01*
X036067Y01832D01*
X036076Y018319D01*
X036085Y018318D01*
X036095Y018317D01*
Y018237D01*
X036085Y018237D01*
X036076Y018236D01*
X036067Y018235D01*
X036058Y018233D01*
X03605Y01823D01*
X036042Y018227D01*
X036035Y018223D01*
X036028Y018219D01*
X036022Y018214D01*
X036016Y018209D01*
Y018346D01*
X036022Y018341D01*
D02*
G37*
G36*
X037111Y01835D02*
X037113Y018343D01*
X037118Y018337D01*
X037123Y018332D01*
X03713Y018327D01*
X037139Y018324D01*
X03715Y018321D01*
X037162Y018319D01*
X037176Y018318D01*
X037191Y018317D01*
Y018237D01*
X037176Y018237D01*
X037162Y018236D01*
X03715Y018234D01*
X037139Y018231D01*
X03713Y018227D01*
X037123Y018223D01*
X037118Y018218D01*
X037113Y018212D01*
X037111Y018205D01*
X03711Y018197D01*
Y018357D01*
X037111Y01835D01*
D02*
G37*
G36*
X036248Y018197D02*
X036247Y018205D01*
X036244Y018212D01*
X03624Y018218D01*
X036235Y018223D01*
X036228Y018227D01*
X036219Y018231D01*
X036208Y018234D01*
X036196Y018236D01*
X036183Y018237D01*
X036168Y018237D01*
Y018317D01*
X036183Y018318D01*
X036196Y018319D01*
X036208Y018321D01*
X036219Y018324D01*
X036228Y018327D01*
X036235Y018332D01*
X03624Y018337D01*
X036244Y018343D01*
X036247Y01835D01*
X036248Y018357D01*
Y018197D01*
D02*
G37*
G36*
X036026Y017829D02*
X036033Y017824D01*
X036039Y01782D01*
X036046Y017816D01*
X036054Y017813D01*
X036062Y01781D01*
X036071Y017808D01*
X03608Y017807D01*
X036089Y017806D01*
X036099Y017806D01*
Y017726D01*
X036089Y017725D01*
X03608Y017725D01*
X036071Y017723D01*
X036062Y017721D01*
X036054Y017719D01*
X036046Y017715D01*
X036039Y017712D01*
X036033Y017707D01*
X036026Y017702D01*
X03602Y017697D01*
Y017835D01*
X036026Y017829D01*
D02*
G37*
G36*
X037112Y017838D02*
X037115Y017831D01*
X037119Y017825D01*
X037124Y01782D01*
X037131Y017816D01*
X03714Y017812D01*
X037151Y017809D01*
X037163Y017807D01*
X037176Y017806D01*
X037191Y017806D01*
Y017726D01*
X037176Y017725D01*
X037163Y017724D01*
X037151Y017722D01*
X03714Y017719D01*
X037131Y017716D01*
X037124Y017711D01*
X037119Y017706D01*
X037115Y0177D01*
X037112Y017693D01*
X037111Y017686D01*
Y017846D01*
X037112Y017838D01*
D02*
G37*
G36*
X036249Y017686D02*
X036248Y017693D01*
X036246Y0177D01*
X036242Y017706D01*
X036236Y017711D01*
X036229Y017716D01*
X03622Y017719D01*
X036209Y017722D01*
X036197Y017724D01*
X036183Y017725D01*
X036168Y017726D01*
Y017806D01*
X036183Y017806D01*
X036197Y017807D01*
X036209Y017809D01*
X03622Y017812D01*
X036229Y017816D01*
X036236Y01782D01*
X036242Y017825D01*
X036246Y017831D01*
X036248Y017838D01*
X036249Y017846D01*
Y017686D01*
D02*
G37*
G36*
X037463Y017649D02*
X037464Y01764D01*
X037465Y017631D01*
X037467Y017622D01*
X03747Y017614D01*
X037473Y017606D01*
X037477Y017599D01*
X037481Y017592D01*
X037486Y017586D01*
X037491Y01758D01*
X037354D01*
X037359Y017586D01*
X037364Y017592D01*
X037368Y017599D01*
X037372Y017606D01*
X037375Y017614D01*
X037378Y017622D01*
X03738Y017631D01*
X037381Y01764D01*
X037382Y017649D01*
X037382Y017659D01*
X037462D01*
X037463Y017649D01*
D02*
G37*
G36*
X039013Y016685D02*
X03901Y016681D01*
X039007Y016675D01*
X039005Y016669D01*
X039003Y016662D01*
X039001Y016654D01*
X039Y016646D01*
X038999Y016637D01*
X038998Y016616D01*
X038898D01*
X038898Y016627D01*
X038896Y016646D01*
X038895Y016654D01*
X038893Y016662D01*
X038891Y016669D01*
X038889Y016675D01*
X038886Y016681D01*
X038883Y016685D01*
X038879Y01669D01*
X039017D01*
X039013Y016685D01*
D02*
G37*
G36*
X040982Y016913D02*
X040985Y016913D01*
X04099Y016913D01*
X040996Y016912D01*
X041001Y01691D01*
X041006Y016908D01*
X041011Y016906D01*
X041015Y016903D01*
X041019Y016899D01*
X041023Y016895D01*
X041027Y016891D01*
X04103Y016887D01*
X041032Y016882D01*
X041034Y016877D01*
X041036Y016872D01*
X041037Y016866D01*
X041037Y016861D01*
X041037Y016858D01*
X041037Y016024D01*
X041037Y016024D01*
X041037Y01602D01*
X041037Y016013D01*
X041035Y016005D01*
X041033Y015998D01*
X04103Y015992D01*
X041027Y015985D01*
X041023Y015979D01*
X041018Y015973D01*
X041013Y015968D01*
X041007Y015963D01*
X041001Y015959D01*
X040995Y015956D01*
X040988Y015953D01*
X040981Y015951D01*
X040974Y01595D01*
X040966Y015949D01*
X040041D01*
X040036Y01595D01*
X04003Y015951D01*
X040025Y015953D01*
X04002Y015956D01*
X040016Y015959D01*
X040012Y015963D01*
X040009Y015967D01*
X040006Y015972D01*
X040004Y015977D01*
X040003Y015982D01*
X040002Y015988D01*
Y015991D01*
Y016862D01*
Y016865D01*
X040002Y01687D01*
X040003Y016875D01*
X040005Y016879D01*
X040007Y016884D01*
X040009Y016889D01*
X040012Y016893D01*
X040015Y016897D01*
X040019Y0169D01*
X040023Y016903D01*
X040027Y016906D01*
X040031Y016909D01*
X040036Y01691D01*
X040041Y016912D01*
X040046Y016913D01*
X040051Y016913D01*
X040982D01*
X040982Y016913D01*
D02*
G37*
G36*
X040031Y015341D02*
X04003Y01535D01*
X040027Y015359D01*
X040022Y015366D01*
X040015Y015373D01*
X040006Y015378D01*
X039995Y015383D01*
X039982Y015386D01*
X039966Y015389D01*
X039949Y01539D01*
X03993Y015391D01*
Y015491D01*
X039949Y015491D01*
X039966Y015493D01*
X039982Y015495D01*
X039995Y015499D01*
X040006Y015503D01*
X040015Y015509D01*
X040022Y015515D01*
X040027Y015523D01*
X04003Y015531D01*
X040031Y015541D01*
Y015341D01*
D02*
G37*
G36*
X024865Y014803D02*
X02487Y0148D01*
X024875Y014797D01*
X024881Y014795D01*
X024888Y014792D01*
X024896Y014791D01*
X024905Y014789D01*
X024914Y014789D01*
X024934Y014788D01*
Y014688D01*
X024924Y014688D01*
X024905Y014686D01*
X024896Y014685D01*
X024888Y014683D01*
X024881Y014681D01*
X024875Y014678D01*
X02487Y014676D01*
X024865Y014672D01*
X024861Y014669D01*
Y014807D01*
X024865Y014803D01*
D02*
G37*
G36*
X033683Y013577D02*
X033685Y013558D01*
X033686Y01355D01*
X033688Y013542D01*
X03369Y013535D01*
X033692Y013529D01*
X033695Y013523D01*
X033698Y013519D01*
X033702Y013514D01*
X033564D01*
X033568Y013519D01*
X033571Y013523D01*
X033574Y013529D01*
X033576Y013535D01*
X033578Y013542D01*
X03358Y01355D01*
X033581Y013558D01*
X033582Y013567D01*
X033583Y013588D01*
X033683D01*
X033683Y013577D01*
D02*
G37*
D15*
X038948Y015626D02*
Y01676D01*
Y015626D02*
X039133Y015441D01*
X040521D01*
X040519Y024061D02*
X040521Y024063D01*
X040519Y023256D02*
Y024061D01*
X028239Y021154D02*
X029355D01*
X039389Y019752D02*
X040521D01*
X040521Y019752D01*
X023243Y016146D02*
X023247Y016142D01*
X021921Y016146D02*
X023243D01*
X023242Y019845D02*
X023247Y01985D01*
X021922Y019845D02*
X023242D01*
X023247Y017693D02*
X023271Y017717D01*
X024495D01*
X029355Y019587D02*
X029936D01*
X028724D02*
X029355D01*
X029936D02*
X029944Y019594D01*
X029351Y020224D02*
X029355Y020228D01*
X028724Y020224D02*
X029351D01*
X027964Y021146D02*
X028231D01*
X028239Y021154D01*
X029905Y021142D02*
X030165D01*
X029893Y021154D02*
X029905Y021142D01*
X029355Y021154D02*
X029893D01*
X029944Y019206D02*
Y019594D01*
X033633Y013444D02*
Y014433D01*
X033328Y014738D02*
X033633Y014433D01*
X024791Y014738D02*
X033328D01*
D20*
X040521Y016622D02*
D03*
Y015441D02*
D03*
Y020933D02*
D03*
Y019752D02*
D03*
Y025244D02*
D03*
Y024063D02*
D03*
D22*
X028239Y021154D02*
D03*
Y021705D02*
D03*
X028794Y021705D02*
D03*
Y021154D02*
D03*
X029346Y021705D02*
D03*
Y021154D02*
D03*
X029893Y021154D02*
D03*
Y021705D02*
D03*
X029944Y020146D02*
D03*
Y019594D02*
D03*
D25*
X027476Y021906D02*
D03*
X026924D02*
D03*
X028724Y019587D02*
D03*
X028172D02*
D03*
X028724Y020224D02*
D03*
X028172D02*
D03*
X036955Y017766D02*
D03*
X036404D02*
D03*
X036404Y018277D02*
D03*
X036955D02*
D03*
X036404Y018789D02*
D03*
X036955D02*
D03*
X036956Y021423D02*
D03*
X036405D02*
D03*
X036405Y022447D02*
D03*
X036956D02*
D03*
X036405Y021935D02*
D03*
X036956D02*
D03*
D59*
X020649Y025157D02*
D03*
X024192D02*
D03*
X026554D02*
D03*
X029704D02*
D03*
X032066D02*
D03*
D62*
X025554Y024169D02*
X031771D01*
X025373Y02435D02*
X025554Y024169D01*
X025373Y02435D02*
Y02522D01*
X027905Y024374D02*
X032153D01*
X027731Y024547D02*
X027905Y024374D01*
X027731Y024547D02*
Y025232D01*
X031523Y022047D02*
Y023807D01*
X031361Y023969D02*
X031523Y023807D01*
X022056Y023969D02*
X031361D01*
X021838Y024187D02*
X022056Y023969D01*
X021838Y024187D02*
Y025209D01*
X032153Y024374D02*
X032395Y024132D01*
X032621Y024575D02*
X032831Y024365D01*
X03105Y024575D02*
X032621D01*
X030885Y02474D02*
X03105Y024575D01*
X031771Y024169D02*
X031959Y023981D01*
X032831Y022047D02*
Y024365D01*
X032395Y022047D02*
Y024132D01*
X031959Y022047D02*
Y023981D01*
X037422Y01751D02*
Y017697D01*
X037353Y017766D02*
X037422Y017697D01*
X036955Y017766D02*
X037353D01*
X037418Y021167D02*
Y021329D01*
X037324Y021423D02*
X037418Y021329D01*
X036956Y021423D02*
X037324D01*
X028172Y019197D02*
Y019587D01*
X027476Y021906D02*
X027482Y0219D01*
Y021565D02*
Y0219D01*
X030885Y02474D02*
Y025205D01*
X033263Y025232D02*
X033267Y025228D01*
Y022047D02*
Y025228D01*
X037422Y018346D02*
Y018533D01*
X037354Y018277D02*
X037422Y018346D01*
X036955Y018277D02*
X037354D01*
X03595Y017766D02*
X036404D01*
X035946Y018277D02*
X036404D01*
X036404Y018789D02*
X036404Y018789D01*
X035954Y018789D02*
X036404D01*
X037422Y022018D02*
Y022191D01*
X03734Y021935D02*
X037422Y022018D01*
X036956Y021935D02*
X03734D01*
X035952Y022445D02*
X036403D01*
X036405Y022447D01*
X035952Y021933D02*
X036403D01*
X036405Y021935D01*
X03595Y021423D02*
X036405D01*
Y021935D02*
X036405Y021935D01*
X036405Y022447D02*
X036405Y022447D01*
D63*
X029355Y020228D02*
Y021154D01*
X030755Y016106D02*
Y017803D01*
X03059Y017968D02*
X030755Y017803D01*
X029491Y017968D02*
X03059D01*
X029355Y018105D02*
X029491Y017968D01*
X029355Y018105D02*
Y019587D01*
X030629Y015354D02*
X030755Y01548D01*
X02355Y015354D02*
X030629D01*
X023247Y015657D02*
X02355Y015354D01*
X030755Y01548D02*
Y016106D01*
X023247Y015657D02*
Y016142D01*
Y017693D01*
Y01985D02*
Y021272D01*
Y017693D02*
Y01985D01*
X023459Y021484D02*
X024497D01*
X023247Y021272D02*
X023459Y021484D01*
X029355Y019587D02*
Y020228D01*
X035172Y016862D02*
Y020504D01*
D64*
X028168Y020228D02*
X028172Y020224D01*
X028168Y020228D02*
Y020543D01*
D67*
X020649Y026157D02*
D03*
X024192D02*
D03*
X026554D02*
D03*
X029704D02*
D03*
X032066D02*
D03*
D68*
X017499Y014437D02*
D03*
Y016012D02*
D03*
D69*
Y026248D02*
D03*
Y02487D02*
D03*
Y023492D02*
D03*
Y019161D02*
D03*
Y021917D02*
D03*
Y017783D02*
D03*
Y020539D02*
D03*
D70*
X027755Y016106D02*
D03*
X029745D02*
D03*
X028765D02*
D03*
X026745D02*
D03*
D71*
X030755D02*
D03*
D72*
X038948Y01676D02*
D03*
X040881Y016096D02*
D03*
X040533D02*
D03*
X040184D02*
D03*
X040519Y023256D02*
D03*
X025373Y02522D02*
D03*
X027731Y025232D02*
D03*
X03242Y014354D02*
D03*
Y01674D02*
D03*
X022791Y019528D02*
D03*
X03445Y011894D02*
D03*
X033628D02*
D03*
X032813D02*
D03*
X032018D02*
D03*
X037141Y020547D02*
D03*
X037519D02*
D03*
X036763D02*
D03*
X038948Y021591D02*
D03*
Y022272D02*
D03*
X039755Y021591D02*
D03*
Y022272D02*
D03*
X038924Y026283D02*
D03*
X039606D02*
D03*
X038924Y025866D02*
D03*
X039606D02*
D03*
X038987Y014988D02*
D03*
X039669D02*
D03*
X038987Y014437D02*
D03*
X039669D02*
D03*
X03746Y012047D02*
D03*
X036779D02*
D03*
X03746Y012854D02*
D03*
X036779D02*
D03*
X018365Y012634D02*
D03*
X017393D02*
D03*
X01642D02*
D03*
X015448D02*
D03*
X018365Y011677D02*
D03*
X017393D02*
D03*
X01642D02*
D03*
X015448D02*
D03*
X03507Y01419D02*
D03*
X034322D02*
D03*
X034696D02*
D03*
X035298Y015468D02*
D03*
X035306Y016126D02*
D03*
X033361Y020154D02*
D03*
X032375Y018551D02*
D03*
Y018027D02*
D03*
X032857D02*
D03*
X031893D02*
D03*
X032857Y018551D02*
D03*
X031893D02*
D03*
X030893Y021756D02*
D03*
Y02226D02*
D03*
X033361Y0205D02*
D03*
X024652Y013677D02*
D03*
X024301D02*
D03*
X02395D02*
D03*
X0236D02*
D03*
X022791Y021579D02*
D03*
X022789Y015785D02*
D03*
Y017722D02*
D03*
X026712Y020949D02*
D03*
X030149Y017602D02*
D03*
X031231Y021343D02*
D03*
X022792Y011858D02*
D03*
X022537D02*
D03*
X023046D02*
D03*
X022283D02*
D03*
X037422Y01751D02*
D03*
X037418Y021167D02*
D03*
X039389Y019752D02*
D03*
X021921Y016146D02*
D03*
X021922Y019845D02*
D03*
X024495Y017717D02*
D03*
X024497Y021484D02*
D03*
X028168Y020543D02*
D03*
X027964Y021146D02*
D03*
X030165Y021142D02*
D03*
X029944Y019206D02*
D03*
X028172Y019197D02*
D03*
X033633Y013444D02*
D03*
X024791Y014738D02*
D03*
X027482Y021565D02*
D03*
X021838Y025209D02*
D03*
X030885Y025205D02*
D03*
X033271Y025232D02*
D03*
X031523Y022047D02*
D03*
X031959D02*
D03*
X032395D02*
D03*
X032831D02*
D03*
X033267D02*
D03*
X035172Y020504D02*
D03*
Y016862D02*
D03*
X037422Y018533D02*
D03*
X03595Y017766D02*
D03*
X035946Y018277D02*
D03*
X035954Y018789D02*
D03*
X037422Y022191D02*
D03*
X035952Y022445D02*
D03*
Y021933D02*
D03*
X03595Y021423D02*
D03*
D73*
X036535Y016319D02*
X037994D01*
X036023Y015807D02*
X036535Y016319D01*
X036023Y012142D02*
Y015807D01*
X037994Y016319D02*
X038263Y016587D01*
Y024764D01*
X038743Y025244D01*
X040521D01*
X025109Y01128D02*
X035161D01*
X024531Y011858D02*
X025109Y01128D01*
X035161D02*
X036023Y012142D01*
X023046Y011858D02*
X024531D01*
X022792D02*
X023046D01*
X022537D02*
X022792D01*
X022283D02*
X022537D01*
X038279Y020933D02*
X040521D01*
M02*
