G04*
G04 #@! TF.GenerationSoftware,Altium Limited,Altium Designer,21.2.1 (34)*
G04*
G04 Layer_Color=32896*
%FSTAX24Y24*%
%MOIN*%
G70*
G04*
G04 #@! TF.SameCoordinates,4AC015DC-E3C4-4AC6-9BA4-5EE9E9B64A6E*
G04*
G04*
G04 #@! TF.FilePolarity,Positive*
G04*
G01*
G75*
%ADD10C,0.0070*%
%ADD11C,0.0079*%
%ADD12C,0.0098*%
%ADD13C,0.0039*%
%ADD14C,0.0070*%
%ADD15C,0.0050*%
%ADD16C,0.0100*%
%ADD19R,0.0690X0.0180*%
%ADD20R,0.0180X0.0690*%
%ADD152C,0.0039*%
%ADD153C,0.0039*%
G36*
X059665Y086056D02*
X059664Y086046D01*
X059664Y086037D01*
X059663Y086029D01*
X059662Y086022D01*
X059662Y086019D01*
X059661Y086016D01*
X059661Y086013D01*
X05966Y086012D01*
X05966Y08601D01*
Y086009D01*
X05966Y086008D01*
Y086008D01*
X059657Y086D01*
X059655Y085993D01*
X059652Y085987D01*
X05965Y085982D01*
X059648Y085977D01*
X059646Y085974D01*
X059645Y085972D01*
X059645Y085972D01*
Y085972D01*
X05964Y085966D01*
X059636Y085961D01*
X059631Y085956D01*
X059627Y085952D01*
X059623Y085949D01*
X05962Y085946D01*
X059619Y085945D01*
X059618Y085945D01*
X059617Y085944D01*
X059617D01*
X05961Y085939D01*
X059603Y085935D01*
X059595Y085932D01*
X059588Y085929D01*
X059582Y085927D01*
X05958Y085926D01*
X059577Y085925D01*
X059576Y085924D01*
X059574Y085924D01*
X059573Y085923D01*
X059573D01*
X059563Y085921D01*
X059552Y085919D01*
X059542Y085917D01*
X059532Y085916D01*
X059528Y085916D01*
X059524Y085915D01*
X059521D01*
X059518Y085915D01*
X059515D01*
X059513D01*
X059512D01*
X059512D01*
X059497Y085916D01*
X05949Y085916D01*
X059484Y085917D01*
X059477Y085918D01*
X059471Y085919D01*
X059466Y08592D01*
X059461Y085921D01*
X059456Y085922D01*
X059452Y085923D01*
X059448Y085924D01*
X059445Y085925D01*
X059443Y085926D01*
X059441Y085927D01*
X05944Y085927D01*
X05944D01*
X059429Y085932D01*
X059419Y085938D01*
X059414Y085941D01*
X05941Y085944D01*
X059406Y085947D01*
X059402Y08595D01*
X059399Y085952D01*
X059396Y085955D01*
X059394Y085957D01*
X059392Y085959D01*
X05939Y085961D01*
X059389Y085962D01*
X059388Y085963D01*
X059388Y085963D01*
X059382Y08597D01*
X059378Y085978D01*
X059374Y085985D01*
X059371Y085992D01*
X059369Y085998D01*
X059368Y086001D01*
X059368Y086003D01*
X059367Y086005D01*
X059367Y086006D01*
X059366Y086007D01*
Y086007D01*
X059366Y086011D01*
X059365Y086015D01*
X059364Y086024D01*
X059363Y086033D01*
X059362Y086041D01*
X059362Y086045D01*
Y086049D01*
X059362Y086053D01*
Y086165D01*
X059665D01*
Y086056D01*
D02*
G37*
G36*
Y085822D02*
X059427D01*
X059665Y085663D01*
Y085622D01*
X059362D01*
Y08566D01*
X0596D01*
X059362Y085819D01*
Y08586D01*
X059665D01*
Y085822D01*
D02*
G37*
G36*
X058505Y086254D02*
X058513Y086254D01*
X05852Y086253D01*
X058528Y086251D01*
X058535Y08625D01*
X058542Y086248D01*
X058548Y086247D01*
X058553Y086245D01*
X058559Y086244D01*
X058563Y086242D01*
X058567Y08624D01*
X058571Y086239D01*
X058573Y086238D01*
X058575Y086237D01*
X058577Y086236D01*
X058577Y086236D01*
X058584Y086232D01*
X05859Y086228D01*
X058595Y086224D01*
X058601Y08622D01*
X058606Y086215D01*
X05861Y08621D01*
X058614Y086206D01*
X058618Y086202D01*
X058621Y086197D01*
X058624Y086193D01*
X058627Y08619D01*
X058629Y086187D01*
X05863Y086184D01*
X058631Y086182D01*
X058632Y086181D01*
X058632Y086181D01*
X058635Y086174D01*
X058638Y086167D01*
X058641Y08616D01*
X058643Y086153D01*
X058645Y086146D01*
X058647Y086139D01*
X058648Y086133D01*
X058649Y086127D01*
X05865Y086121D01*
X05865Y086116D01*
X058651Y086111D01*
X058651Y086107D01*
X058651Y086104D01*
Y0861D01*
X058651Y086088D01*
X058649Y086076D01*
X058648Y086065D01*
X058646Y08606D01*
X058645Y086055D01*
X058644Y086051D01*
X058643Y086047D01*
X058642Y086044D01*
X058641Y086041D01*
X05864Y086039D01*
X05864Y086037D01*
X058639Y086036D01*
Y086036D01*
X058634Y086024D01*
X058629Y086013D01*
X058623Y086002D01*
X05862Y085998D01*
X058617Y085993D01*
X058615Y085989D01*
X058612Y085986D01*
X05861Y085982D01*
X058608Y08598D01*
X058607Y085977D01*
X058605Y085976D01*
X058605Y085975D01*
X058604Y085975D01*
X058492D01*
Y086103D01*
X058528D01*
Y086014D01*
X058584D01*
X058589Y086019D01*
X058592Y086025D01*
X058596Y086031D01*
X058599Y086038D01*
X058602Y086043D01*
X058603Y086045D01*
X058604Y086047D01*
X058605Y086049D01*
X058605Y086051D01*
X058606Y086051D01*
Y086052D01*
X058609Y086061D01*
X058611Y08607D01*
X058613Y086079D01*
X058614Y086086D01*
X058614Y08609D01*
X058615Y086093D01*
X058615Y086095D01*
Y086098D01*
X058615Y0861D01*
Y086102D01*
X058615Y086113D01*
X058613Y086124D01*
X058611Y086133D01*
X05861Y086138D01*
X058609Y086142D01*
X058608Y086145D01*
X058607Y086149D01*
X058605Y086152D01*
X058604Y086154D01*
X058604Y086156D01*
X058603Y086158D01*
X058602Y086159D01*
Y086159D01*
X0586Y086164D01*
X058597Y086168D01*
X05859Y086176D01*
X058584Y086183D01*
X058577Y086189D01*
X058571Y086193D01*
X058569Y086195D01*
X058567Y086197D01*
X058565Y086198D01*
X058563Y086199D01*
X058562Y086199D01*
X058562Y086199D01*
X058551Y086204D01*
X05854Y086207D01*
X058529Y08621D01*
X058518Y086211D01*
X058513Y086212D01*
X058508Y086212D01*
X058504Y086213D01*
X058501D01*
X058498Y086213D01*
X058496D01*
X058494D01*
X058494D01*
X058482Y086212D01*
X05847Y086211D01*
X05846Y086209D01*
X058455Y086208D01*
X058451Y086207D01*
X058447Y086206D01*
X058444Y086205D01*
X058441Y086204D01*
X058438Y086203D01*
X058436Y086203D01*
X058434Y086202D01*
X058433Y086202D01*
X058433D01*
X058427Y086199D01*
X058422Y086196D01*
X058416Y086193D01*
X058412Y08619D01*
X058408Y086187D01*
X058406Y086185D01*
X058404Y086183D01*
X058403Y086183D01*
X058398Y086178D01*
X058394Y086172D01*
X05839Y086167D01*
X058387Y086162D01*
X058384Y086157D01*
X058383Y086154D01*
X058382Y086152D01*
X058381Y086151D01*
X058381Y086151D01*
Y08615D01*
X058378Y086142D01*
X058376Y086135D01*
X058374Y086126D01*
X058373Y086119D01*
X058373Y086116D01*
X058373Y086113D01*
Y08611D01*
X058372Y086107D01*
Y086103D01*
X058373Y086095D01*
X058374Y086087D01*
X058375Y08608D01*
X058376Y086074D01*
X058378Y086069D01*
X058379Y086066D01*
X058379Y086065D01*
X05838Y086063D01*
X05838Y086062D01*
X058381Y086062D01*
Y086061D01*
X058384Y086055D01*
X058387Y086049D01*
X058391Y086044D01*
X058394Y08604D01*
X058397Y086037D01*
X0584Y086035D01*
X058401Y086033D01*
X058402Y086033D01*
X058407Y086029D01*
X058413Y086026D01*
X058419Y086023D01*
X058425Y08602D01*
X05843Y086018D01*
X058432Y086018D01*
X058434Y086017D01*
X058436Y086016D01*
X058437Y086016D01*
X058438Y086016D01*
X058438D01*
X058428Y085979D01*
X058417Y085982D01*
X058407Y085986D01*
X058403Y085988D01*
X058399Y08599D01*
X058395Y085992D01*
X058392Y085994D01*
X058389Y085995D01*
X058386Y085997D01*
X058384Y085998D01*
X058382Y085999D01*
X058381Y086001D01*
X05838Y086001D01*
X058379Y086002D01*
X058379Y086002D01*
X058372Y086008D01*
X058366Y086015D01*
X058361Y086022D01*
X058357Y086029D01*
X058353Y086035D01*
X058352Y086037D01*
X058351Y086039D01*
X05835Y086041D01*
X058349Y086042D01*
X058349Y086043D01*
Y086044D01*
X058345Y086054D01*
X058343Y086064D01*
X058341Y086074D01*
X05834Y086083D01*
X058339Y086088D01*
X058339Y086091D01*
X058339Y086095D01*
X058338Y086098D01*
Y086103D01*
X058339Y086111D01*
X058339Y08612D01*
X05834Y086127D01*
X058341Y086135D01*
X058343Y086142D01*
X058344Y086148D01*
X058346Y086155D01*
X058347Y08616D01*
X058349Y086165D01*
X058351Y08617D01*
X058353Y086174D01*
X058354Y086177D01*
X058355Y08618D01*
X058356Y086182D01*
X058357Y086183D01*
X058357Y086183D01*
X058361Y086189D01*
X058365Y086195D01*
X058369Y086201D01*
X058374Y086206D01*
X058379Y086211D01*
X058383Y086215D01*
X058388Y086219D01*
X058392Y086223D01*
X058397Y086225D01*
X058401Y086228D01*
X058405Y086231D01*
X058408Y086233D01*
X05841Y086234D01*
X058412Y086235D01*
X058414Y086236D01*
X058414Y086236D01*
X058421Y086239D01*
X058428Y086242D01*
X058436Y086244D01*
X058443Y086246D01*
X058457Y08625D01*
X058463Y086251D01*
X058469Y086252D01*
X058475Y086253D01*
X05848Y086253D01*
X058485Y086254D01*
X058489Y086254D01*
X058492Y086254D01*
X058494D01*
X058496D01*
X058496D01*
X058505Y086254D01*
D02*
G37*
G36*
X058646Y085877D02*
X058409D01*
X058646Y085719D01*
Y085677D01*
X058344D01*
Y085716D01*
X058581D01*
X058344Y085875D01*
Y085916D01*
X058646D01*
Y085877D01*
D02*
G37*
G36*
Y085501D02*
X058646Y085491D01*
X058646Y085482D01*
X058645Y085474D01*
X058644Y085466D01*
X058643Y085464D01*
X058643Y085461D01*
X058642Y085458D01*
X058642Y085456D01*
X058642Y085455D01*
Y085454D01*
X058641Y085453D01*
Y085453D01*
X058639Y085445D01*
X058637Y085438D01*
X058634Y085432D01*
X058632Y085426D01*
X05863Y085422D01*
X058628Y085419D01*
X058627Y085417D01*
X058626Y085417D01*
Y085416D01*
X058622Y085411D01*
X058618Y085405D01*
X058613Y085401D01*
X058609Y085397D01*
X058605Y085393D01*
X058602Y085391D01*
X0586Y08539D01*
X058599Y085389D01*
X058599Y085389D01*
X058599D01*
X058592Y085384D01*
X058585Y08538D01*
X058577Y085377D01*
X05857Y085374D01*
X058564Y085371D01*
X058561Y08537D01*
X058559Y085369D01*
X058557Y085369D01*
X058556Y085368D01*
X058555Y085368D01*
X058555D01*
X058544Y085365D01*
X058534Y085363D01*
X058524Y085362D01*
X058514Y085361D01*
X05851Y085361D01*
X058506Y08536D01*
X058502D01*
X058499Y08536D01*
X058497D01*
X058495D01*
X058494D01*
X058493D01*
X058479Y085361D01*
X058472Y085361D01*
X058465Y085362D01*
X058459Y085363D01*
X058453Y085364D01*
X058447Y085365D01*
X058442Y085366D01*
X058438Y085367D01*
X058434Y085368D01*
X05843Y085369D01*
X058427Y08537D01*
X058425Y085371D01*
X058423Y085371D01*
X058422Y085372D01*
X058422D01*
X05841Y085377D01*
X0584Y085383D01*
X058396Y085385D01*
X058391Y085388D01*
X058387Y085391D01*
X058384Y085394D01*
X058381Y085397D01*
X058378Y0854D01*
X058375Y085402D01*
X058373Y085404D01*
X058372Y085405D01*
X058371Y085407D01*
X05837Y085407D01*
X05837Y085408D01*
X058364Y085415D01*
X05836Y085423D01*
X058356Y08543D01*
X058353Y085437D01*
X058351Y085443D01*
X05835Y085445D01*
X058349Y085448D01*
X058349Y085449D01*
X058348Y085451D01*
X058348Y085452D01*
Y085452D01*
X058347Y085456D01*
X058346Y08546D01*
X058345Y085468D01*
X058344Y085477D01*
X058344Y085486D01*
X058344Y08549D01*
Y085494D01*
X058344Y085497D01*
Y08561D01*
X058646D01*
Y085501D01*
D02*
G37*
G36*
X060752Y086056D02*
X060752Y086046D01*
X060752Y086037D01*
X060751Y086029D01*
X06075Y086022D01*
X060749Y086019D01*
X060749Y086016D01*
X060748Y086013D01*
X060748Y086012D01*
X060748Y08601D01*
Y086009D01*
X060747Y086008D01*
Y086008D01*
X060745Y086D01*
X060743Y085993D01*
X06074Y085987D01*
X060738Y085982D01*
X060736Y085977D01*
X060734Y085974D01*
X060733Y085972D01*
X060732Y085972D01*
Y085972D01*
X060728Y085966D01*
X060724Y085961D01*
X060719Y085956D01*
X060715Y085952D01*
X060711Y085949D01*
X060708Y085946D01*
X060706Y085945D01*
X060705Y085945D01*
X060705Y085944D01*
X060705D01*
X060698Y085939D01*
X060691Y085935D01*
X060683Y085932D01*
X060676Y085929D01*
X06067Y085927D01*
X060667Y085926D01*
X060665Y085925D01*
X060663Y085924D01*
X060662Y085924D01*
X060661Y085923D01*
X060661D01*
X06065Y085921D01*
X06064Y085919D01*
X06063Y085917D01*
X06062Y085916D01*
X060616Y085916D01*
X060612Y085915D01*
X060608D01*
X060605Y085915D01*
X060603D01*
X060601D01*
X0606D01*
X060599D01*
X060585Y085916D01*
X060578Y085916D01*
X060571Y085917D01*
X060565Y085918D01*
X060559Y085919D01*
X060553Y08592D01*
X060548Y085921D01*
X060544Y085922D01*
X06054Y085923D01*
X060536Y085924D01*
X060533Y085925D01*
X060531Y085926D01*
X060529Y085927D01*
X060528Y085927D01*
X060528D01*
X060516Y085932D01*
X060506Y085938D01*
X060502Y085941D01*
X060497Y085944D01*
X060493Y085947D01*
X06049Y08595D01*
X060487Y085952D01*
X060484Y085955D01*
X060481Y085957D01*
X060479Y085959D01*
X060478Y085961D01*
X060477Y085962D01*
X060476Y085963D01*
X060476Y085963D01*
X06047Y08597D01*
X060466Y085978D01*
X060462Y085985D01*
X060459Y085992D01*
X060457Y085998D01*
X060456Y086001D01*
X060455Y086003D01*
X060455Y086005D01*
X060454Y086006D01*
X060454Y086007D01*
Y086007D01*
X060453Y086011D01*
X060452Y086015D01*
X060451Y086024D01*
X06045Y086033D01*
X06045Y086041D01*
X06045Y086045D01*
Y086049D01*
X060449Y086053D01*
Y086165D01*
X060752D01*
Y086056D01*
D02*
G37*
G36*
Y08582D02*
X060629D01*
Y085743D01*
X060629Y085731D01*
X060628Y08572D01*
X060627Y08571D01*
X060625Y085701D01*
X060623Y085693D01*
X060621Y085686D01*
X060618Y08568D01*
X060616Y085674D01*
X060613Y085669D01*
X060611Y085665D01*
X060609Y085661D01*
X060607Y085658D01*
X060605Y085656D01*
X060604Y085655D01*
X060603Y085654D01*
X060603Y085653D01*
X060597Y085649D01*
X060592Y085645D01*
X060587Y085642D01*
X060581Y085639D01*
X060575Y085637D01*
X06057Y085635D01*
X060565Y085633D01*
X06056Y085632D01*
X060555Y085631D01*
X060551Y08563D01*
X060547Y085629D01*
X060544Y085629D01*
X060541Y085629D01*
X060539D01*
X060538D01*
X060537D01*
X060529Y085629D01*
X060521Y08563D01*
X060514Y085632D01*
X060508Y085633D01*
X060503Y085635D01*
X060501Y085636D01*
X060499Y085637D01*
X060498Y085637D01*
X060497Y085638D01*
X060496Y085638D01*
X060496D01*
X060489Y085642D01*
X060484Y085646D01*
X060478Y08565D01*
X060474Y085654D01*
X060471Y085657D01*
X060469Y08566D01*
X060467Y085662D01*
X060467Y085662D01*
Y085663D01*
X060463Y085668D01*
X06046Y085675D01*
X060458Y085681D01*
X060456Y085687D01*
X060454Y085692D01*
X060454Y085694D01*
X060453Y085696D01*
X060453Y085698D01*
Y085699D01*
X060452Y0857D01*
Y0857D01*
X060452Y085703D01*
X060451Y085706D01*
X060451Y085714D01*
X06045Y085721D01*
X06045Y085729D01*
X060449Y085735D01*
Y08586D01*
X060752D01*
Y08582D01*
D02*
G37*
G36*
X061713Y086037D02*
Y085996D01*
X06141Y085877D01*
Y085918D01*
X06163Y086D01*
X06164Y086003D01*
X061648Y086006D01*
X061657Y086009D01*
X061664Y086012D01*
X061668Y086013D01*
X061671Y086014D01*
X061673Y086014D01*
X061676Y086015D01*
X061677Y086016D01*
X061679Y086016D01*
X06168Y086016D01*
X06168D01*
X061671Y086019D01*
X061662Y086021D01*
X061654Y086024D01*
X061646Y086026D01*
X061643Y086028D01*
X06164Y086029D01*
X061637Y08603D01*
X061635Y08603D01*
X061633Y086031D01*
X061632Y086032D01*
X061631Y086032D01*
X06163D01*
X06141Y086111D01*
Y086154D01*
X061713Y086037D01*
D02*
G37*
G36*
Y085728D02*
X061713Y085717D01*
X061712Y085708D01*
X061711Y0857D01*
X061711Y085696D01*
X06171Y085692D01*
X06171Y085689D01*
X06171Y085687D01*
X061709Y085685D01*
X061709Y085683D01*
X061708Y085681D01*
Y08568D01*
X061708Y085679D01*
Y085679D01*
X061706Y085672D01*
X061704Y085665D01*
X061701Y08566D01*
X061699Y085655D01*
X061697Y085651D01*
X061695Y085648D01*
X061694Y085647D01*
X061693Y085646D01*
X061689Y085641D01*
X061684Y085637D01*
X06168Y085633D01*
X061675Y08563D01*
X061671Y085627D01*
X061668Y085625D01*
X061667Y085625D01*
X061666Y085624D01*
X061665Y085624D01*
X061665D01*
X061658Y085621D01*
X061651Y085618D01*
X061644Y085617D01*
X061638Y085615D01*
X061633Y085615D01*
X061631D01*
X061629Y085614D01*
X061627D01*
X061626D01*
X061626D01*
X061625D01*
X06162D01*
X061616Y085615D01*
X061607Y085617D01*
X061599Y085619D01*
X061593Y085622D01*
X06159Y085623D01*
X061587Y085625D01*
X061585Y085626D01*
X061583Y085627D01*
X061581Y085628D01*
X06158Y085629D01*
X06158Y085629D01*
X061579Y085629D01*
X061573Y085635D01*
X061567Y085642D01*
X061562Y085649D01*
X061558Y085656D01*
X061556Y085662D01*
X061555Y085665D01*
X061554Y085667D01*
X061553Y085669D01*
X061552Y08567D01*
X061552Y085671D01*
Y085671D01*
X061548Y085664D01*
X061543Y085658D01*
X061539Y085652D01*
X061534Y085648D01*
X06153Y085644D01*
X061527Y085642D01*
X061526Y085641D01*
X061525Y08564D01*
X061525Y08564D01*
X061524D01*
X061518Y085636D01*
X061512Y085634D01*
X061505Y085632D01*
X0615Y08563D01*
X061495Y08563D01*
X061491Y085629D01*
X06149D01*
X061489D01*
X061488D01*
X061488D01*
X06148Y08563D01*
X061473Y085631D01*
X061466Y085633D01*
X06146Y085635D01*
X061455Y085637D01*
X061453Y085638D01*
X061451Y085639D01*
X06145Y08564D01*
X061449Y085641D01*
X061448Y085641D01*
X061448D01*
X061441Y085646D01*
X061435Y085651D01*
X061431Y085657D01*
X061427Y085662D01*
X061424Y085667D01*
X061421Y08567D01*
X061421Y085672D01*
X06142Y085673D01*
X06142Y085674D01*
Y085674D01*
X061416Y085683D01*
X061414Y085691D01*
X061413Y085701D01*
X061412Y085709D01*
X061411Y085714D01*
X061411Y085717D01*
Y085721D01*
X06141Y085724D01*
Y085843D01*
X061713D01*
Y085728D01*
D02*
G37*
G36*
X060116Y067445D02*
X06006D01*
Y067644D01*
X059937Y067445D01*
X059876D01*
Y067748D01*
X059933D01*
Y067544D01*
X060057Y067748D01*
X060116D01*
Y067445D01*
D02*
G37*
G36*
X060439D02*
X060374D01*
X060265Y067748D01*
X06033D01*
X060405Y067524D01*
X060481Y067748D01*
X060547D01*
X060439Y067445D01*
D02*
G37*
G36*
X060236D02*
X060175D01*
Y067748D01*
X060236D01*
Y067445D01*
D02*
G37*
G36*
X059112Y06776D02*
X059123Y067759D01*
X059133Y067756D01*
X059143Y067754D01*
X059152Y067751D01*
X059161Y067747D01*
X059168Y067743D01*
X059175Y067739D01*
X059182Y067735D01*
X059187Y067732D01*
X059192Y067728D01*
X059196Y067725D01*
X059199Y067722D01*
X059201Y06772D01*
X059203Y067719D01*
X059203Y067718D01*
X05921Y06771D01*
X059216Y067701D01*
X059221Y067692D01*
X059225Y067683D01*
X059229Y067673D01*
X059232Y067663D01*
X059235Y067653D01*
X059237Y067644D01*
X059238Y067635D01*
X05924Y067627D01*
X05924Y06762D01*
X059241Y067613D01*
X059241Y067608D01*
X059242Y067606D01*
Y067604D01*
Y067603D01*
Y067602D01*
Y067601D01*
Y067601D01*
X059241Y067588D01*
X05924Y067576D01*
X059238Y067564D01*
X059236Y067553D01*
X059233Y067543D01*
X059229Y067534D01*
X059226Y067526D01*
X059222Y067518D01*
X059219Y067511D01*
X059215Y067505D01*
X059212Y0675D01*
X059209Y067496D01*
X059206Y067493D01*
X059204Y06749D01*
X059203Y067489D01*
X059203Y067489D01*
X059195Y067481D01*
X059187Y067475D01*
X059179Y067469D01*
X059171Y067465D01*
X059163Y067461D01*
X059155Y067458D01*
X059146Y067455D01*
X059139Y067453D01*
X059132Y067451D01*
X059125Y06745D01*
X059119Y067449D01*
X059114Y067448D01*
X05911Y067448D01*
X059106Y067448D01*
X059104D01*
X059095Y067448D01*
X059086Y067448D01*
X059078Y06745D01*
X059071Y067451D01*
X059063Y067453D01*
X059057Y067455D01*
X059051Y067457D01*
X059045Y06746D01*
X05904Y067462D01*
X059036Y067464D01*
X059032Y067466D01*
X059029Y067468D01*
X059027Y067469D01*
X059025Y06747D01*
X059024Y067471D01*
X059023Y067471D01*
X059018Y067476D01*
X059012Y067482D01*
X059007Y067487D01*
X059003Y067493D01*
X058999Y067499D01*
X058995Y067506D01*
X058992Y067512D01*
X058989Y067518D01*
X058986Y067523D01*
X058984Y067529D01*
X058982Y067533D01*
X05898Y067537D01*
X058979Y067541D01*
X058979Y067543D01*
X058978Y067545D01*
Y067546D01*
X059037Y067564D01*
X059039Y067558D01*
X05904Y067552D01*
X059042Y067547D01*
X059044Y067542D01*
X059047Y067538D01*
X059049Y067534D01*
X059051Y06753D01*
X059053Y067527D01*
X059055Y067524D01*
X059057Y067522D01*
X059059Y06752D01*
X05906Y067518D01*
X059061Y067517D01*
X059062Y067516D01*
X059062Y067515D01*
X059063Y067515D01*
X059066Y067512D01*
X05907Y06751D01*
X059077Y067506D01*
X059083Y067504D01*
X05909Y067502D01*
X059096Y067501D01*
X059098Y0675D01*
X059101D01*
X059102Y0675D01*
X059104D01*
X05911Y0675D01*
X059116Y067501D01*
X059122Y067502D01*
X059127Y067504D01*
X059132Y067505D01*
X059136Y067507D01*
X05914Y067509D01*
X059144Y067512D01*
X059147Y067514D01*
X05915Y067516D01*
X059152Y067518D01*
X059155Y06752D01*
X059156Y067522D01*
X059157Y067523D01*
X059158Y067524D01*
X059158Y067524D01*
X059162Y067529D01*
X059165Y067534D01*
X059168Y06754D01*
X05917Y067547D01*
X059172Y067554D01*
X059174Y06756D01*
X059176Y067574D01*
X059177Y06758D01*
X059178Y067586D01*
X059178Y067592D01*
X059178Y067596D01*
X059179Y0676D01*
Y067603D01*
Y067605D01*
Y067606D01*
X059178Y067615D01*
X059178Y067625D01*
X059177Y067633D01*
X059175Y067641D01*
X059174Y067648D01*
X059172Y067654D01*
X05917Y06766D01*
X059168Y067665D01*
X059166Y06767D01*
X059164Y067674D01*
X059163Y067677D01*
X059161Y067679D01*
X05916Y067681D01*
X059159Y067683D01*
X059158Y067684D01*
X059158Y067684D01*
X059154Y067688D01*
X059149Y067692D01*
X059145Y067695D01*
X059141Y067698D01*
X059136Y0677D01*
X059131Y067702D01*
X059127Y067704D01*
X059122Y067705D01*
X059119Y067706D01*
X059115Y067707D01*
X059112Y067708D01*
X059109Y067708D01*
X059106Y067708D01*
X059103D01*
X059094Y067708D01*
X059086Y067706D01*
X05908Y067704D01*
X059073Y067701D01*
X059068Y067699D01*
X059066Y067698D01*
X059065Y067697D01*
X059063Y067696D01*
X059062Y067695D01*
X059062Y067695D01*
X059062Y067694D01*
X059056Y067689D01*
X059051Y067683D01*
X059047Y067677D01*
X059044Y067671D01*
X059042Y067666D01*
X059041Y067663D01*
X05904Y067661D01*
X05904Y06766D01*
X05904Y067658D01*
X059039Y067658D01*
Y067657D01*
X058979Y067672D01*
X058981Y067678D01*
X058983Y067685D01*
X058986Y06769D01*
X058988Y067696D01*
X058991Y067701D01*
X058993Y067705D01*
X058996Y067709D01*
X058998Y067713D01*
X059001Y067716D01*
X059003Y067719D01*
X059005Y067722D01*
X059007Y067724D01*
X059008Y067725D01*
X059009Y067726D01*
X05901Y067727D01*
X05901Y067727D01*
X059017Y067733D01*
X059024Y067738D01*
X059031Y067743D01*
X059039Y067746D01*
X059046Y06775D01*
X059054Y067752D01*
X059061Y067755D01*
X059068Y067756D01*
X059075Y067758D01*
X059081Y067759D01*
X059086Y067759D01*
X059091Y06776D01*
X059095Y06776D01*
X059098Y06776D01*
X0591D01*
X059112Y06776D01*
D02*
G37*
G36*
X058806D02*
X058817Y067759D01*
X058828Y067756D01*
X058838Y067754D01*
X058847Y067751D01*
X058855Y067747D01*
X058863Y067743D01*
X05887Y067739D01*
X058876Y067735D01*
X058882Y067732D01*
X058886Y067728D01*
X05889Y067725D01*
X058894Y067722D01*
X058896Y06772D01*
X058897Y067719D01*
X058897Y067718D01*
X058904Y06771D01*
X05891Y067701D01*
X058916Y067692D01*
X05892Y067683D01*
X058924Y067673D01*
X058927Y067663D01*
X058929Y067653D01*
X058931Y067644D01*
X058933Y067635D01*
X058934Y067627D01*
X058935Y06762D01*
X058936Y067613D01*
X058936Y067608D01*
X058936Y067606D01*
Y067604D01*
Y067603D01*
Y067602D01*
Y067601D01*
Y067601D01*
X058936Y067588D01*
X058935Y067576D01*
X058933Y067564D01*
X05893Y067553D01*
X058927Y067543D01*
X058924Y067534D01*
X05892Y067526D01*
X058917Y067518D01*
X058913Y067511D01*
X05891Y067505D01*
X058906Y0675D01*
X058903Y067496D01*
X058901Y067493D01*
X058899Y06749D01*
X058898Y067489D01*
X058897Y067489D01*
X05889Y067481D01*
X058882Y067475D01*
X058874Y067469D01*
X058866Y067465D01*
X058857Y067461D01*
X058849Y067458D01*
X058841Y067455D01*
X058834Y067453D01*
X058826Y067451D01*
X058819Y06745D01*
X058814Y067449D01*
X058809Y067448D01*
X058804Y067448D01*
X058801Y067448D01*
X058798D01*
X05879Y067448D01*
X058781Y067448D01*
X058773Y06745D01*
X058765Y067451D01*
X058758Y067453D01*
X058752Y067455D01*
X058745Y067457D01*
X05874Y06746D01*
X058735Y067462D01*
X058731Y067464D01*
X058727Y067466D01*
X058724Y067468D01*
X058721Y067469D01*
X058719Y06747D01*
X058718Y067471D01*
X058718Y067471D01*
X058712Y067476D01*
X058707Y067482D01*
X058702Y067487D01*
X058697Y067493D01*
X058693Y067499D01*
X05869Y067506D01*
X058686Y067512D01*
X058683Y067518D01*
X058681Y067523D01*
X058678Y067529D01*
X058677Y067533D01*
X058675Y067537D01*
X058674Y067541D01*
X058673Y067543D01*
X058672Y067545D01*
Y067546D01*
X058732Y067564D01*
X058733Y067558D01*
X058735Y067552D01*
X058737Y067547D01*
X058739Y067542D01*
X058741Y067538D01*
X058743Y067534D01*
X058746Y06753D01*
X058748Y067527D01*
X05875Y067524D01*
X058752Y067522D01*
X058753Y06752D01*
X058754Y067518D01*
X058756Y067517D01*
X058757Y067516D01*
X058757Y067515D01*
X058757Y067515D01*
X058761Y067512D01*
X058764Y06751D01*
X058771Y067506D01*
X058778Y067504D01*
X058785Y067502D01*
X058791Y067501D01*
X058793Y0675D01*
X058795D01*
X058797Y0675D01*
X058799D01*
X058805Y0675D01*
X058811Y067501D01*
X058816Y067502D01*
X058821Y067504D01*
X058826Y067505D01*
X058831Y067507D01*
X058835Y067509D01*
X058838Y067512D01*
X058842Y067514D01*
X058845Y067516D01*
X058847Y067518D01*
X058849Y06752D01*
X058851Y067522D01*
X058852Y067523D01*
X058853Y067524D01*
X058853Y067524D01*
X058856Y067529D01*
X058859Y067534D01*
X058862Y06754D01*
X058865Y067547D01*
X058867Y067554D01*
X058868Y06756D01*
X058871Y067574D01*
X058872Y06758D01*
X058872Y067586D01*
X058873Y067592D01*
X058873Y067596D01*
X058873Y0676D01*
Y067603D01*
Y067605D01*
Y067606D01*
X058873Y067615D01*
X058872Y067625D01*
X058871Y067633D01*
X05887Y067641D01*
X058868Y067648D01*
X058867Y067654D01*
X058865Y06766D01*
X058863Y067665D01*
X058861Y06767D01*
X058859Y067674D01*
X058857Y067677D01*
X058856Y067679D01*
X058855Y067681D01*
X058854Y067683D01*
X058853Y067684D01*
X058853Y067684D01*
X058849Y067688D01*
X058844Y067692D01*
X05884Y067695D01*
X058835Y067698D01*
X058831Y0677D01*
X058826Y067702D01*
X058821Y067704D01*
X058817Y067705D01*
X058813Y067706D01*
X05881Y067707D01*
X058806Y067708D01*
X058803Y067708D01*
X058801Y067708D01*
X058798D01*
X058789Y067708D01*
X058781Y067706D01*
X058774Y067704D01*
X058768Y067701D01*
X058763Y067699D01*
X058761Y067698D01*
X058759Y067697D01*
X058758Y067696D01*
X058757Y067695D01*
X058757Y067695D01*
X058756Y067694D01*
X058751Y067689D01*
X058746Y067683D01*
X058742Y067677D01*
X058739Y067671D01*
X058736Y067666D01*
X058735Y067663D01*
X058735Y067661D01*
X058734Y06766D01*
X058734Y067658D01*
X058734Y067658D01*
Y067657D01*
X058673Y067672D01*
X058675Y067678D01*
X058678Y067685D01*
X05868Y06769D01*
X058683Y067696D01*
X058685Y067701D01*
X058688Y067705D01*
X058691Y067709D01*
X058693Y067713D01*
X058695Y067716D01*
X058697Y067719D01*
X058699Y067722D01*
X058701Y067724D01*
X058703Y067725D01*
X058704Y067726D01*
X058704Y067727D01*
X058705Y067727D01*
X058712Y067733D01*
X058718Y067738D01*
X058726Y067743D01*
X058733Y067746D01*
X058741Y06775D01*
X058749Y067752D01*
X058756Y067755D01*
X058763Y067756D01*
X058769Y067758D01*
X058775Y067759D01*
X058781Y067759D01*
X058786Y06776D01*
X05879Y06776D01*
X058792Y06776D01*
X058795D01*
X058806Y06776D01*
D02*
G37*
G36*
X059567Y067453D02*
X059502D01*
X059477Y067522D01*
X059356D01*
X059329Y067453D01*
X059263D01*
X059384Y067755D01*
X059449D01*
X059567Y067453D01*
D02*
G37*
G36*
X055048Y067606D02*
X055153Y067449D01*
X05508D01*
X055012Y067551D01*
X054945Y067449D01*
X054872D01*
X054976Y067607D01*
X054881Y067752D01*
X054952D01*
X055012Y067661D01*
X055072Y067752D01*
X055143D01*
X055048Y067606D01*
D02*
G37*
G36*
X055402Y0677D02*
X055312D01*
Y067449D01*
X055251D01*
Y0677D01*
X055161D01*
Y067752D01*
X055402D01*
Y0677D01*
D02*
G37*
G36*
X056017Y067748D02*
X056024Y067748D01*
X056031Y067747D01*
X056037Y067745D01*
X056044Y067744D01*
X056049Y067742D01*
X056054Y06774D01*
X056059Y067738D01*
X056063Y067736D01*
X056067Y067734D01*
X05607Y067733D01*
X056073Y067731D01*
X056075Y06773D01*
X056076Y067729D01*
X056077Y067728D01*
X056078Y067728D01*
X056083Y067723D01*
X056087Y067719D01*
X056091Y067714D01*
X056094Y067708D01*
X056097Y067702D01*
X0561Y067696D01*
X056102Y067691D01*
X056104Y067685D01*
X056106Y06768D01*
X056107Y067675D01*
X056108Y067671D01*
X056108Y067667D01*
X056109Y067663D01*
X056109Y067661D01*
X05611Y067659D01*
Y067659D01*
X056052Y067653D01*
X056052Y067658D01*
X056051Y067662D01*
X056049Y06767D01*
X056047Y067676D01*
X056046Y067681D01*
X056043Y067685D01*
X056042Y067687D01*
X05604Y067689D01*
X05604Y067689D01*
X056036Y067693D01*
X056031Y067696D01*
X056026Y067698D01*
X056021Y067699D01*
X056017Y0677D01*
X056014Y0677D01*
X056011D01*
X056004Y0677D01*
X055999Y067699D01*
X055994Y067697D01*
X055989Y067695D01*
X055986Y067693D01*
X055984Y067692D01*
X055982Y06769D01*
X055982Y06769D01*
X055978Y067686D01*
X055976Y067681D01*
X055974Y067676D01*
X055973Y067671D01*
X055972Y067667D01*
X055971Y067663D01*
Y067662D01*
Y067661D01*
Y06766D01*
Y06766D01*
X055972Y067653D01*
X055973Y067647D01*
X055975Y067641D01*
X055977Y067636D01*
X05598Y067631D01*
X055982Y067628D01*
X055983Y067626D01*
X055983Y067625D01*
X055984Y067625D01*
Y067625D01*
X055985Y067622D01*
X055988Y067619D01*
X055991Y067615D01*
X055995Y067612D01*
X056003Y067603D01*
X056011Y067595D01*
X056015Y067591D01*
X056019Y067587D01*
X056022Y067584D01*
X056026Y067581D01*
X056028Y067579D01*
X05603Y067577D01*
X056031Y067575D01*
X056032Y067575D01*
X056041Y067567D01*
X056048Y067559D01*
X056056Y067551D01*
X056063Y067545D01*
X056068Y067538D01*
X056074Y067532D01*
X056079Y067527D01*
X056083Y067522D01*
X056086Y067517D01*
X056089Y067514D01*
X056092Y06751D01*
X056094Y067508D01*
X056095Y067506D01*
X056096Y067504D01*
X056097Y067503D01*
X056097Y067503D01*
X056103Y067492D01*
X056107Y067482D01*
X05611Y067472D01*
X056113Y067464D01*
X056114Y06746D01*
X056115Y067456D01*
X056115Y067453D01*
X056116Y06745D01*
X056116Y067448D01*
Y067446D01*
X056117Y067445D01*
Y067445D01*
X055913D01*
Y067499D01*
X056029D01*
X056025Y067504D01*
X056023Y067507D01*
X056021Y067509D01*
X05602Y067511D01*
X056018Y067513D01*
X056017Y067514D01*
X056017Y067514D01*
X056015Y067516D01*
X056013Y067518D01*
X056011Y067521D01*
X056008Y067523D01*
X056003Y067529D01*
X055997Y067534D01*
X055991Y06754D01*
X055989Y067542D01*
X055986Y067544D01*
X055985Y067546D01*
X055984Y067547D01*
X055983Y067548D01*
X055982Y067548D01*
X055977Y067552D01*
X055973Y067557D01*
X055968Y067561D01*
X055964Y067565D01*
X055961Y067568D01*
X055958Y067571D01*
X055955Y067574D01*
X055953Y067577D01*
X055949Y067581D01*
X055946Y067584D01*
X055945Y067586D01*
X055944Y067587D01*
X055939Y067594D01*
X055934Y067601D01*
X05593Y067608D01*
X055926Y067613D01*
X055924Y067618D01*
X055923Y06762D01*
X055922Y067622D01*
X055922Y067623D01*
X055921Y067625D01*
X055921Y067625D01*
Y067625D01*
X055918Y067632D01*
X055917Y067639D01*
X055915Y067646D01*
X055914Y067652D01*
X055914Y067657D01*
Y067659D01*
X055913Y067661D01*
Y067662D01*
Y067663D01*
Y067664D01*
Y067664D01*
X055914Y067671D01*
X055914Y067677D01*
X055916Y067683D01*
X055917Y067689D01*
X055919Y067694D01*
X055922Y067699D01*
X055924Y067704D01*
X055926Y067708D01*
X055929Y067712D01*
X055931Y067715D01*
X055933Y067718D01*
X055935Y06772D01*
X055937Y067722D01*
X055938Y067723D01*
X055939Y067724D01*
X055939Y067724D01*
X055944Y067729D01*
X05595Y067732D01*
X055955Y067735D01*
X055961Y067738D01*
X055967Y067741D01*
X055973Y067743D01*
X055978Y067744D01*
X055984Y067746D01*
X055989Y067747D01*
X055994Y067747D01*
X055998Y067748D01*
X056002Y067748D01*
X056005Y067749D01*
X056009D01*
X056017Y067748D01*
D02*
G37*
G36*
X056949Y067445D02*
X056884D01*
X056859Y067514D01*
X056738D01*
X056711Y067445D01*
X056645D01*
X056766Y067748D01*
X056831D01*
X056949Y067445D01*
D02*
G37*
G36*
X056611D02*
X056398D01*
Y067496D01*
X05655D01*
Y067745D01*
X056611D01*
Y067445D01*
D02*
G37*
G36*
X056376Y067696D02*
X056286D01*
Y067445D01*
X056225D01*
Y067696D01*
X056136D01*
Y067748D01*
X056376D01*
Y067696D01*
D02*
G37*
%LPC*%
G36*
X059629Y086125D02*
X059398D01*
Y086055D01*
X059398Y08605D01*
X059398Y086044D01*
X059399Y086039D01*
X059399Y086034D01*
X0594Y08603D01*
X0594Y086026D01*
X059401Y086023D01*
X059401Y08602D01*
X059402Y086017D01*
X059402Y086015D01*
X059403Y086013D01*
X059403Y086012D01*
X059403Y086011D01*
X059404Y086011D01*
Y08601D01*
X059406Y086006D01*
X059408Y086002D01*
X059413Y085995D01*
X059419Y085988D01*
X059424Y085983D01*
X05943Y085978D01*
X059432Y085976D01*
X059434Y085975D01*
X059436Y085974D01*
X059437Y085973D01*
X059438Y085972D01*
X059438Y085972D01*
X059443Y08597D01*
X059449Y085967D01*
X05946Y085963D01*
X059472Y08596D01*
X059484Y085958D01*
X05949Y085958D01*
X059495Y085957D01*
X059499Y085957D01*
X059503D01*
X059506Y085956D01*
X059509D01*
X05951D01*
X059511D01*
X059524Y085957D01*
X059535Y085958D01*
X05954Y085958D01*
X059545Y085959D01*
X059549Y08596D01*
X059553Y08596D01*
X059557Y085961D01*
X05956Y085962D01*
X059563Y085963D01*
X059565Y085963D01*
X059567Y085964D01*
X059568Y085964D01*
X059569Y085965D01*
X059569D01*
X059578Y085968D01*
X059586Y085972D01*
X059592Y085975D01*
X059598Y085978D01*
X059602Y085982D01*
X059605Y085984D01*
X059607Y085986D01*
X059607Y085986D01*
X059608Y085987D01*
X059611Y085991D01*
X059615Y085995D01*
X059617Y086D01*
X05962Y086004D01*
X059621Y086008D01*
X059623Y086011D01*
X059623Y086012D01*
X059623Y086013D01*
X059624Y086013D01*
Y086014D01*
X059625Y086021D01*
X059627Y086028D01*
X059627Y086036D01*
X059628Y086044D01*
X059628Y08605D01*
Y086053D01*
X059629Y086056D01*
Y086125D01*
D02*
G37*
G36*
X058611Y08557D02*
X058379D01*
Y0855D01*
X05838Y085494D01*
X05838Y085489D01*
X05838Y085484D01*
X058381Y085479D01*
X058381Y085475D01*
X058382Y085471D01*
X058382Y085467D01*
X058383Y085465D01*
X058384Y085462D01*
X058384Y08546D01*
X058385Y085458D01*
X058385Y085457D01*
X058385Y085456D01*
X058386Y085455D01*
Y085455D01*
X058387Y085451D01*
X058389Y085447D01*
X058395Y08544D01*
X0584Y085433D01*
X058406Y085427D01*
X058411Y085423D01*
X058414Y085421D01*
X058416Y08542D01*
X058418Y085419D01*
X058419Y085418D01*
X05842Y085417D01*
X05842Y085417D01*
X058425Y085414D01*
X05843Y085412D01*
X058442Y085408D01*
X058454Y085405D01*
X058466Y085403D01*
X058471Y085403D01*
X058476Y085402D01*
X058481Y085402D01*
X058485D01*
X058488Y085401D01*
X058491D01*
X058492D01*
X058493D01*
X058505Y085402D01*
X058516Y085403D01*
X058522Y085403D01*
X058526Y085404D01*
X058531Y085404D01*
X058535Y085405D01*
X058538Y085406D01*
X058542Y085407D01*
X058545Y085407D01*
X058547Y085408D01*
X058549Y085409D01*
X05855Y085409D01*
X058551Y085409D01*
X058551D01*
X05856Y085413D01*
X058567Y085416D01*
X058574Y08542D01*
X058579Y085423D01*
X058584Y085426D01*
X058587Y085429D01*
X058589Y085431D01*
X058589Y085431D01*
X05859Y085431D01*
X058593Y085435D01*
X058596Y08544D01*
X058599Y085444D01*
X058601Y085449D01*
X058603Y085453D01*
X058604Y085456D01*
X058605Y085457D01*
X058605Y085458D01*
X058605Y085458D01*
Y085459D01*
X058607Y085465D01*
X058608Y085473D01*
X058609Y085481D01*
X05861Y085488D01*
X05861Y085495D01*
Y085498D01*
X058611Y085501D01*
Y08557D01*
D02*
G37*
G36*
X060716Y086125D02*
X060485D01*
Y086055D01*
X060486Y08605D01*
X060486Y086044D01*
X060486Y086039D01*
X060487Y086034D01*
X060487Y08603D01*
X060488Y086026D01*
X060488Y086023D01*
X060489Y08602D01*
X06049Y086017D01*
X06049Y086015D01*
X06049Y086013D01*
X060491Y086012D01*
X060491Y086011D01*
X060491Y086011D01*
Y08601D01*
X060493Y086006D01*
X060495Y086002D01*
X060501Y085995D01*
X060506Y085988D01*
X060512Y085983D01*
X060517Y085978D01*
X06052Y085976D01*
X060522Y085975D01*
X060524Y085974D01*
X060525Y085973D01*
X060526Y085972D01*
X060526Y085972D01*
X060531Y08597D01*
X060536Y085967D01*
X060548Y085963D01*
X06056Y08596D01*
X060572Y085958D01*
X060577Y085958D01*
X060582Y085957D01*
X060587Y085957D01*
X060591D01*
X060594Y085956D01*
X060597D01*
X060598D01*
X060599D01*
X060611Y085957D01*
X060622Y085958D01*
X060628Y085958D01*
X060632Y085959D01*
X060637Y08596D01*
X060641Y08596D01*
X060644Y085961D01*
X060648Y085962D01*
X060651Y085963D01*
X060653Y085963D01*
X060655Y085964D01*
X060656Y085964D01*
X060657Y085965D01*
X060657D01*
X060666Y085968D01*
X060673Y085972D01*
X06068Y085975D01*
X060685Y085978D01*
X06069Y085982D01*
X060693Y085984D01*
X060695Y085986D01*
X060695Y085986D01*
X060695Y085987D01*
X060699Y085991D01*
X060702Y085995D01*
X060705Y086D01*
X060707Y086004D01*
X060709Y086008D01*
X06071Y086011D01*
X060711Y086012D01*
X060711Y086013D01*
X060711Y086013D01*
Y086014D01*
X060713Y086021D01*
X060714Y086028D01*
X060715Y086036D01*
X060716Y086044D01*
X060716Y08605D01*
Y086053D01*
X060716Y086056D01*
Y086125D01*
D02*
G37*
G36*
X060593Y08582D02*
X060485D01*
Y085733D01*
X060486Y085729D01*
Y085725D01*
X060486Y085722D01*
X060486Y085719D01*
X060487Y085716D01*
Y085714D01*
X060487Y08571D01*
X060488Y085707D01*
X060488Y085705D01*
Y085705D01*
X06049Y0857D01*
X060493Y085695D01*
X060496Y08569D01*
X060499Y085686D01*
X060501Y085684D01*
X060504Y085682D01*
X060505Y08568D01*
X060506Y08568D01*
X060511Y085677D01*
X060517Y085674D01*
X060522Y085672D01*
X060527Y085671D01*
X060531Y085671D01*
X060535Y08567D01*
X060536D01*
X060537D01*
X060538D01*
X060538D01*
X060543Y08567D01*
X060548Y085671D01*
X060556Y085673D01*
X060563Y085675D01*
X060569Y085678D01*
X060573Y085681D01*
X060576Y085684D01*
X060577Y085685D01*
X060578Y085686D01*
X060579Y085686D01*
X060579Y085686D01*
X060582Y08569D01*
X060584Y085694D01*
X060586Y085698D01*
X060587Y085702D01*
X06059Y085711D01*
X060592Y08572D01*
X060592Y085725D01*
X060593Y085729D01*
X060593Y085732D01*
Y085736D01*
X060593Y085738D01*
Y08582D01*
D02*
G37*
G36*
X061538Y085803D02*
X061446D01*
Y085737D01*
X061446Y085731D01*
Y085726D01*
X061447Y085722D01*
X061447Y085717D01*
X061447Y085714D01*
X061448Y08571D01*
X061448Y085707D01*
X061449Y085705D01*
X061449Y085703D01*
X061449Y085701D01*
X06145Y085699D01*
X06145Y085698D01*
Y085697D01*
X06145Y085697D01*
X061452Y085692D01*
X061455Y085688D01*
X061457Y085684D01*
X06146Y085681D01*
X061462Y085679D01*
X061464Y085677D01*
X061465Y085676D01*
X061466Y085676D01*
X06147Y085673D01*
X061475Y085672D01*
X061479Y08567D01*
X061484Y085669D01*
X061487Y085669D01*
X06149Y085668D01*
X061492D01*
X061492D01*
X061493D01*
X061498Y085669D01*
X061503Y08567D01*
X061508Y085671D01*
X061512Y085672D01*
X061515Y085674D01*
X061517Y085675D01*
X061518Y085676D01*
X061519Y085676D01*
X061523Y08568D01*
X061526Y085683D01*
X061529Y085687D01*
X061531Y085691D01*
X061532Y085694D01*
X061533Y085697D01*
X061534Y085699D01*
X061534Y085699D01*
Y085699D01*
X061535Y085702D01*
X061535Y085704D01*
X061536Y08571D01*
X061537Y085717D01*
X061537Y085723D01*
Y085729D01*
X061538Y085731D01*
Y085803D01*
D02*
G37*
G36*
X061677D02*
X061573D01*
Y085733D01*
X061574Y085723D01*
X061574Y085714D01*
X061575Y08571D01*
X061575Y085707D01*
X061575Y085703D01*
X061576Y0857D01*
X061576Y085697D01*
X061577Y085695D01*
X061577Y085693D01*
X061578Y085692D01*
X061578Y08569D01*
X061578Y085689D01*
X061579Y085689D01*
Y085689D01*
X061581Y085683D01*
X061583Y085679D01*
X061586Y085674D01*
X061589Y085671D01*
X061592Y085668D01*
X061594Y085666D01*
X061595Y085665D01*
X061596Y085665D01*
X061601Y085662D01*
X061606Y085659D01*
X061611Y085658D01*
X061615Y085657D01*
X06162Y085656D01*
X061622Y085656D01*
X061624D01*
X061625D01*
X061625D01*
X061625D01*
X061631Y085656D01*
X061636Y085657D01*
X06164Y085658D01*
X061643Y085659D01*
X061647Y08566D01*
X061649Y085661D01*
X06165Y085662D01*
X061651Y085662D01*
X061655Y085664D01*
X061658Y085667D01*
X061661Y085669D01*
X061663Y085672D01*
X061665Y085674D01*
X061667Y085676D01*
X061667Y085677D01*
X061668Y085677D01*
X06167Y085681D01*
X061671Y085685D01*
X061673Y085689D01*
X061674Y085692D01*
X061675Y085695D01*
X061676Y085698D01*
X061676Y0857D01*
Y0857D01*
X061676Y085704D01*
X061677Y085708D01*
X061677Y085712D01*
Y085717D01*
X061677Y085721D01*
Y085803D01*
D02*
G37*
G36*
X059417Y067685D02*
X059375Y067573D01*
X059458D01*
X059417Y067685D01*
D02*
G37*
G36*
X056799Y067677D02*
X056757Y067565D01*
X05684D01*
X056799Y067677D01*
D02*
G37*
%LPD*%
D10*
X054402Y066875D02*
Y070655D01*
X050622Y066875D02*
X054402D01*
X053162Y066495D02*
X053512D01*
X053332Y066305D02*
Y066655D01*
X051352Y070655D02*
X054402D01*
X050622Y069925D02*
X051352Y070655D01*
X050622Y066875D02*
Y069925D01*
X04978Y100846D02*
X054583D01*
X04978Y095532D02*
X054583D01*
X04978D02*
Y100846D01*
X054583Y095532D02*
Y100846D01*
D11*
X054311Y079923D02*
G03*
X054311Y079923I-000039J0D01*
G01*
X04872Y092358D02*
G03*
X04872Y092358I-000039J0D01*
G01*
X060196Y091293D02*
G03*
X060196Y091293I-00002J0D01*
G01*
X048898Y078463D02*
Y078817D01*
Y078463D02*
X049213D01*
X050079D02*
Y078817D01*
X049764Y078463D02*
X050079D01*
X0504Y079271D02*
X050715D01*
X0504Y078916D02*
Y079271D01*
X051266D02*
X051581D01*
Y078916D02*
Y079271D01*
X05417Y071796D02*
X054485D01*
Y07215D01*
X053304Y071796D02*
X053619D01*
X053304D02*
Y07215D01*
X051927Y073415D02*
X052242D01*
X051927Y073061D02*
Y073415D01*
X052793D02*
X053108D01*
Y073061D02*
Y073415D01*
X050026Y071555D02*
Y071909D01*
Y071555D02*
X050341D01*
X051207D02*
Y071909D01*
X050892Y071555D02*
X051207D01*
X060315Y072126D02*
Y072481D01*
X06D02*
X060315D01*
X059134Y072126D02*
Y072481D01*
X059449D01*
X056063Y072126D02*
Y072481D01*
X055748D02*
X056063D01*
X054882Y072126D02*
Y072481D01*
X055197D01*
X061732Y072126D02*
Y072481D01*
X061417D02*
X061732D01*
X060551Y072126D02*
Y072481D01*
X060866D01*
X06315Y072126D02*
Y072481D01*
X062835D02*
X06315D01*
X061968Y072126D02*
Y072481D01*
X062283D01*
X05748Y072126D02*
Y072481D01*
X057165D02*
X05748D01*
X056299Y072126D02*
Y072481D01*
X056614D01*
X057717Y071929D02*
Y072284D01*
Y071929D02*
X058031D01*
X058898D02*
Y072284D01*
X058583Y071929D02*
X058898D01*
D12*
X051947Y080256D02*
G03*
X051947Y080256I-000049J0D01*
G01*
X048907Y079289D02*
G03*
X048907Y079289I-000049J0D01*
G01*
X051669Y078445D02*
G03*
X051669Y078445I-000049J0D01*
G01*
X053314Y072621D02*
G03*
X053314Y072621I-000049J0D01*
G01*
X053197Y07259D02*
G03*
X053197Y07259I-000049J0D01*
G01*
X050035Y07238D02*
G03*
X050035Y07238I-000049J0D01*
G01*
X060404Y071655D02*
G03*
X060404Y071655I-000049J0D01*
G01*
X056152D02*
G03*
X056152Y071655I-000049J0D01*
G01*
X061821D02*
G03*
X061821Y071655I-000049J0D01*
G01*
X063238D02*
G03*
X063238Y071655I-000049J0D01*
G01*
X057569D02*
G03*
X057569Y071655I-000049J0D01*
G01*
X057726Y072755D02*
G03*
X057726Y072755I-000049J0D01*
G01*
D13*
X058874Y089773D02*
G03*
X058874Y089432I000146J-000171D01*
G01*
X059596D02*
G03*
X059596Y089773I-000146J000171D01*
G01*
X061061Y089432D02*
G03*
X061061Y089773I-000146J000171D01*
G01*
X060338D02*
G03*
X060338Y089432I000146J-000171D01*
G01*
X05109Y092515D02*
G03*
X051562Y092515I000236J000236D01*
G01*
Y09348D02*
G03*
X05109Y09348I-000236J-000236D01*
G01*
X059045Y090958D02*
G03*
X058704Y090958I-000171J-000146D01*
G01*
Y090236D02*
G03*
X059045Y090236I000171J000146D01*
G01*
X049457Y093534D02*
G03*
X048984Y093534I-000236J-000236D01*
G01*
Y092569D02*
G03*
X049457Y092569I000236J000236D01*
G01*
X055749Y080029D02*
G03*
X055749Y080502I-000236J000236D01*
G01*
X054783D02*
G03*
X054783Y080029I000236J-000236D01*
G01*
X054754Y077613D02*
G03*
X055226Y077613I000236J000236D01*
G01*
Y078578D02*
G03*
X054754Y078578I-000236J-000236D01*
G01*
X053673Y077613D02*
G03*
X054145Y077613I000236J000236D01*
G01*
Y078578D02*
G03*
X053673Y078578I-000236J-000236D01*
G01*
X051538Y081237D02*
G03*
X051538Y080765I000236J-000236D01*
G01*
X052503D02*
G03*
X052503Y081237I-000236J000236D01*
G01*
X051542Y080709D02*
G03*
X051542Y080236I000236J-000236D01*
G01*
X052507D02*
G03*
X052507Y080709I-000236J000236D01*
G01*
X052705Y073998D02*
G03*
X052705Y074471I-000236J000236D01*
G01*
X05174D02*
G03*
X05174Y073998I000236J-000236D01*
G01*
X052477Y071899D02*
G03*
X052477Y072372I-000236J000236D01*
G01*
X051512D02*
G03*
X051512Y071899I000236J-000236D01*
G01*
X052073Y094549D02*
G03*
X052073Y094076I000236J-000236D01*
G01*
X053038D02*
G03*
X053038Y094549I-000236J000236D01*
G01*
X059542Y093007D02*
G03*
X059542Y092666I000146J-000171D01*
G01*
X060264Y092666D02*
G03*
X060264Y093007I-000146J000171D01*
G01*
X045663Y087811D02*
G03*
X045663Y087469I000146J-000171D01*
G01*
X046386D02*
G03*
X046386Y087811I-000146J000171D01*
G01*
X046431Y087015D02*
G03*
X046089Y087015I-000171J-000146D01*
G01*
Y086292D02*
G03*
X046431Y086292I000171J000146D01*
G01*
X04526Y083857D02*
G03*
X04526Y083385I000236J-000236D01*
G01*
X046225D02*
G03*
X046225Y083857I-000236J000236D01*
G01*
X057307Y090236D02*
G03*
X057648Y090236I000171J000146D01*
G01*
Y090958D02*
G03*
X057307Y090958I-000171J-000146D01*
G01*
X061571Y077754D02*
G03*
X061098Y077754I-000236J-000236D01*
G01*
Y076788D02*
G03*
X061571Y076788I000236J000236D01*
G01*
X044829Y086292D02*
G03*
X045171Y086292I000171J000146D01*
G01*
Y087015D02*
G03*
X044829Y087015I-000171J-000146D01*
G01*
X050492Y093496D02*
G03*
X050019Y093496I-000236J-000236D01*
G01*
Y092531D02*
G03*
X050492Y092531I000236J000236D01*
G01*
X060458Y086638D02*
G03*
X060931Y086638I000236J000236D01*
G01*
Y087604D02*
G03*
X060458Y087604I-000236J-000236D01*
G01*
X060301Y070247D02*
Y070507D01*
Y071007D02*
Y071267D01*
X060801Y071007D02*
Y071267D01*
Y070247D02*
Y070507D01*
X060301Y071267D02*
X060801D01*
X060301Y070247D02*
X060801D01*
X045217Y088146D02*
Y088306D01*
X045217Y088146D02*
X045597D01*
X046437Y089249D02*
Y089406D01*
X045217D02*
X046437D01*
X045217Y089249D02*
Y089406D01*
X046057Y088146D02*
X046437D01*
X046437D02*
Y088306D01*
X060398Y091606D02*
X060738Y091606D01*
X060398Y092387D02*
X060738D01*
Y091606D02*
Y092387D01*
X060398Y091606D02*
Y092387D01*
X058405Y090627D02*
X058595D01*
X057815D02*
X058005D01*
X057815Y090967D02*
X058005D01*
X058405D02*
X058595D01*
X057815Y090627D02*
Y090967D01*
X058595Y090627D02*
Y090967D01*
X049688Y070806D02*
X049772D01*
X050313D02*
X050397D01*
X050313Y069624D02*
X050397D01*
X049688D02*
X049772D01*
X049688D02*
Y070806D01*
X050397Y069624D02*
Y070806D01*
X048971Y093581D02*
X049471D01*
X048971Y094601D02*
X049471D01*
Y093581D02*
Y093841D01*
Y094341D02*
Y094601D01*
X048971Y094341D02*
Y094601D01*
Y093581D02*
Y093841D01*
X04771Y09319D02*
X04821D01*
X04771Y09217D02*
X04821D01*
X04771Y09293D02*
Y09319D01*
Y09217D02*
Y09243D01*
X04821Y09217D02*
Y09243D01*
Y09293D02*
Y09319D01*
X049793Y069239D02*
X050293D01*
X049793Y068219D02*
X050293D01*
X049793Y068979D02*
Y069239D01*
Y068219D02*
Y068479D01*
X050293Y068219D02*
Y068479D01*
Y068979D02*
Y069239D01*
X049998Y080347D02*
Y080847D01*
X048978Y080347D02*
Y080847D01*
X049738D02*
X049998D01*
X048978D02*
X049238D01*
X048978Y080347D02*
X049238D01*
X049738D02*
X049998D01*
X054077Y080785D02*
Y081285D01*
X055096Y080785D02*
Y081285D01*
X054077Y080785D02*
X054337D01*
X054836D02*
X055096D01*
X054836Y081285D02*
X055096D01*
X054077D02*
X054337D01*
X05403Y080785D02*
Y081285D01*
X053011Y080785D02*
Y081285D01*
X05377D02*
X05403D01*
X053011D02*
X053271D01*
X053011Y080785D02*
X053271D01*
X05377D02*
X05403D01*
X050533Y077628D02*
Y078128D01*
X051553Y077628D02*
Y078128D01*
X050533Y077628D02*
X050793D01*
X051293D02*
X051553D01*
X051293Y078128D02*
X051553D01*
X050533D02*
X050793D01*
X050533Y077077D02*
Y077577D01*
X051553Y077077D02*
Y077577D01*
X050533Y077077D02*
X050793D01*
X051293D02*
X051553D01*
X051293Y077577D02*
X051553D01*
X050533D02*
X050793D01*
X049998Y08095D02*
Y08145D01*
X048978Y08095D02*
Y08145D01*
X049738D02*
X049998D01*
X048978D02*
X049238D01*
X048978Y08095D02*
X049238D01*
X049738D02*
X049998D01*
X054019Y073925D02*
X054518D01*
X054019Y072905D02*
X054518D01*
X054019Y073665D02*
Y073925D01*
Y072905D02*
Y073165D01*
X054518Y072905D02*
Y073165D01*
Y073665D02*
Y073925D01*
X053378D02*
X053878D01*
X053378Y072905D02*
X053878D01*
X053378Y073665D02*
Y073925D01*
Y072905D02*
Y073165D01*
X053878Y072905D02*
Y073165D01*
Y073665D02*
Y073925D01*
X052642Y07135D02*
X053142D01*
X052642Y07237D02*
X053142D01*
Y07135D02*
Y07161D01*
Y07211D02*
Y07237D01*
X052642Y07211D02*
Y07237D01*
Y07135D02*
Y07161D01*
X052504Y071334D02*
Y071834D01*
X051484Y071334D02*
Y071834D01*
X052244D02*
X052504D01*
X051484D02*
X051744D01*
X051484Y071334D02*
X051744D01*
X052244D02*
X052504D01*
X04583Y08668D02*
X04602D01*
X04524D02*
X04543D01*
X04524Y08702D02*
X04543D01*
X04583D02*
X04602D01*
X04524Y08668D02*
Y08702D01*
X04602Y08668D02*
Y08702D01*
X04628Y082789D02*
Y083289D01*
X04526Y082789D02*
Y083289D01*
X04602D02*
X04628D01*
X04526D02*
X04552D01*
X04526Y082789D02*
X04552D01*
X04602D02*
X04628D01*
Y082149D02*
Y082649D01*
X04526Y082149D02*
Y082649D01*
X04602D02*
X04628D01*
X04526D02*
X04552D01*
X04526Y082149D02*
X04552D01*
X04602D02*
X04628D01*
X061454Y069565D02*
Y070065D01*
X062474Y069565D02*
Y070065D01*
X061454Y069565D02*
X061714D01*
X062214D02*
X062474D01*
X062214Y070065D02*
X062474D01*
X061454D02*
X061714D01*
X062501Y071051D02*
Y071311D01*
Y070291D02*
Y070551D01*
X062001Y070291D02*
Y070551D01*
Y071051D02*
Y071311D01*
Y070291D02*
X062501D01*
X062001Y071311D02*
X062501D01*
X063144Y071051D02*
Y071311D01*
Y070291D02*
Y070551D01*
X062644Y070291D02*
Y070551D01*
Y071051D02*
Y071311D01*
Y070291D02*
X063144D01*
X062644Y071311D02*
X063144D01*
X061278Y070291D02*
X061778D01*
X061278Y071311D02*
X061778D01*
Y070291D02*
Y070551D01*
Y071051D02*
Y071311D01*
X061278Y071051D02*
Y071311D01*
Y070291D02*
Y070551D01*
X058735Y070301D02*
X059235D01*
X058735Y071321D02*
X059235D01*
Y070301D02*
Y070561D01*
Y071061D02*
Y071321D01*
X058735Y071061D02*
Y071321D01*
Y070301D02*
Y070561D01*
X058043Y071311D02*
X058543D01*
X058043Y070291D02*
X058543D01*
X058043Y071051D02*
Y071311D01*
Y070291D02*
Y070551D01*
X058543Y070291D02*
Y070551D01*
Y071051D02*
Y071311D01*
X059369Y070274D02*
X059869D01*
X059369Y071294D02*
X059869D01*
Y070274D02*
Y070534D01*
Y071034D02*
Y071294D01*
X059369Y071034D02*
Y071294D01*
Y070274D02*
Y070534D01*
X054843Y070291D02*
X055343D01*
X054843Y071311D02*
X055343D01*
Y070291D02*
Y070551D01*
Y071051D02*
Y071311D01*
X054843Y071051D02*
Y071311D01*
Y070291D02*
Y070551D01*
X056125Y070291D02*
X056625D01*
X056125Y071311D02*
X056625D01*
Y070291D02*
Y070551D01*
Y071051D02*
Y071311D01*
X056125Y071051D02*
Y071311D01*
Y070291D02*
Y070551D01*
X055122Y069461D02*
X056303D01*
X055122Y070169D02*
X056303D01*
X055122Y070086D02*
Y070169D01*
Y069461D02*
Y069544D01*
X056303Y069461D02*
Y069544D01*
Y070086D02*
Y070169D01*
X057683Y074081D02*
X058183D01*
X057683Y073061D02*
X058183D01*
X057683Y073821D02*
Y074081D01*
Y073061D02*
Y073321D01*
X058183Y073061D02*
Y073321D01*
Y073821D02*
Y074081D01*
X049998Y079645D02*
Y080145D01*
X048978Y079645D02*
Y080145D01*
X049738D02*
X049998D01*
X048978D02*
X049238D01*
X048978Y079645D02*
X049238D01*
X049738D02*
X049998D01*
X050106Y073249D02*
Y073749D01*
X051126Y073249D02*
Y073749D01*
X050106Y073249D02*
X050366D01*
X050866D02*
X051126D01*
X050866Y073749D02*
X051126D01*
X050106D02*
X050366D01*
X045657Y08663D02*
X045997D01*
X045657Y087411D02*
X045997D01*
Y08663D02*
Y08682D01*
Y087221D02*
Y087411D01*
X045657Y087221D02*
Y087411D01*
Y08663D02*
Y08682D01*
X057357Y071051D02*
Y071311D01*
Y070291D02*
Y070551D01*
X056857Y070291D02*
Y070551D01*
Y071051D02*
Y071311D01*
Y070291D02*
X057357D01*
X056857Y071311D02*
X057357D01*
X062304Y073063D02*
Y073323D01*
Y073823D02*
Y074083D01*
X062804Y073823D02*
Y074083D01*
Y073063D02*
Y073323D01*
X062304Y074083D02*
X062804D01*
X062304Y073063D02*
X062804D01*
X056636Y073061D02*
Y073321D01*
Y073821D02*
Y074081D01*
X057136Y073821D02*
Y074081D01*
Y073061D02*
Y073321D01*
X056636Y074081D02*
X057136D01*
X056636Y073061D02*
X057136D01*
X060884Y073063D02*
Y073323D01*
Y073823D02*
Y074083D01*
X061384Y073823D02*
Y074083D01*
Y073063D02*
Y073323D01*
X060884Y074083D02*
X061384D01*
X060884Y073063D02*
X061384D01*
X055229D02*
Y073323D01*
Y073823D02*
Y074083D01*
X055729Y073823D02*
Y074083D01*
Y073063D02*
Y073323D01*
X055229Y074083D02*
X055729D01*
X055229Y073063D02*
X055729D01*
X059463D02*
Y073323D01*
Y073823D02*
Y074083D01*
X059963Y073823D02*
Y074083D01*
Y073063D02*
Y073323D01*
X059463Y074083D02*
X059963D01*
X059463Y073063D02*
X059963D01*
X055469Y070291D02*
Y070551D01*
Y071051D02*
Y071311D01*
X055968Y071051D02*
Y071311D01*
Y070291D02*
Y070551D01*
X055469Y071311D02*
X055968D01*
X055469Y070291D02*
X055968D01*
X058939Y073821D02*
Y074081D01*
Y073061D02*
Y073321D01*
X058439Y073061D02*
Y073321D01*
Y073821D02*
Y074081D01*
Y073061D02*
X058939D01*
X058439Y074081D02*
X058939D01*
X049992Y093543D02*
Y093803D01*
Y094303D02*
Y094563D01*
X050492Y094303D02*
Y094563D01*
Y093543D02*
Y093803D01*
X049992Y094563D02*
X050492D01*
X049992Y093543D02*
X050492D01*
X0607Y070082D02*
Y070165D01*
Y069457D02*
Y06954D01*
X059519Y069457D02*
Y06954D01*
Y070082D02*
Y070165D01*
X0607D01*
X059519Y069457D02*
X0607D01*
X061824Y085603D02*
X061907D01*
X061199D02*
X061283D01*
X061199Y086784D02*
X061283D01*
X061824D02*
X061907D01*
Y085603D02*
Y086784D01*
X061199Y085603D02*
Y086784D01*
X051074Y093527D02*
Y093787D01*
Y094287D02*
Y094547D01*
X051574Y094287D02*
Y094547D01*
Y093527D02*
Y093787D01*
X051074Y094547D02*
X051574D01*
X051074Y093527D02*
X051574D01*
X050866Y072608D02*
X051126D01*
X050106D02*
X050366D01*
X050106Y073108D02*
X050366D01*
X050866D02*
X051126D01*
X050106Y072608D02*
Y073108D01*
X051126Y072608D02*
Y073108D01*
D14*
X054329Y068739D02*
G03*
X054329Y068739I-001811J0D01*
G01*
X051728Y067669D02*
Y068019D01*
X051558Y067859D02*
X051908D01*
D15*
X054118Y078825D02*
X054335D01*
X054118Y079762D02*
X054335D01*
X054839D02*
X055055D01*
X054839Y078825D02*
X055055D01*
Y079041D01*
Y079545D02*
Y079762D01*
X054118Y078825D02*
Y079041D01*
Y079545D02*
Y079762D01*
X051978Y078936D02*
Y079216D01*
Y078936D02*
X052098D01*
X053138D02*
X053228D01*
Y079216D01*
Y079876D02*
Y080176D01*
X053148D02*
X053228D01*
X051988Y080056D02*
X052083Y080151D01*
X051988Y079896D02*
Y080056D01*
X047077Y0916D02*
X048437D01*
X047077Y091441D02*
Y0916D01*
Y082093D02*
Y082271D01*
Y082093D02*
X048437D01*
X055224D02*
X056585D01*
Y082251D01*
Y091451D02*
Y0916D01*
X055224D02*
X056585D01*
X060086Y090653D02*
Y091063D01*
X060686Y090653D02*
Y091063D01*
D16*
X041669Y096583D02*
X044386D01*
X041669Y086142D02*
Y096583D01*
Y086142D02*
X044386D01*
Y096583D01*
X053674Y06435D02*
X057674D01*
X056674Y066059D02*
X057674D01*
X055674Y065607D02*
Y067209D01*
X053674Y066059D02*
X054674D01*
X057674Y06435D02*
Y065607D01*
X054674Y066059D02*
Y067209D01*
X053674Y065607D02*
Y066059D01*
Y06435D02*
Y065607D01*
X056674Y066059D02*
Y067209D01*
X054674D02*
X056674D01*
X053674Y065607D02*
X057674D01*
Y066059D01*
X061564Y065607D02*
Y066059D01*
X057564Y065607D02*
X061564D01*
X058564Y067209D02*
X060564D01*
Y066059D02*
Y067209D01*
X057564Y06435D02*
Y065607D01*
Y066059D01*
X058564D02*
Y067209D01*
X061564Y06435D02*
Y065607D01*
X057564Y066059D02*
X058564D01*
X059564Y065607D02*
Y067209D01*
X060564Y066059D02*
X061564D01*
X057564Y06435D02*
X061564D01*
D19*
X050038Y069925D02*
D03*
X061558Y086483D02*
D03*
D20*
X055423Y06982D02*
D03*
X059819Y069816D02*
D03*
D152*
X060738Y091796D02*
D03*
X058405Y090967D02*
D03*
X04583Y08702D02*
D03*
X045997Y08682D02*
D03*
D153*
X045237Y089224D02*
X045419Y089406D01*
M02*
