G04*
G04 #@! TF.GenerationSoftware,Altium Limited,Altium Designer,21.2.1 (34)*
G04*
G04 Layer_Color=32768*
%FSTAX24Y24*%
%MOIN*%
G70*
G04*
G04 #@! TF.SameCoordinates,4AC015DC-E3C4-4AC6-9BA4-5EE9E9B64A6E*
G04*
G04*
G04 #@! TF.FilePolarity,Positive*
G04*
G01*
G75*
%ADD10C,0.0070*%
%ADD13C,0.0039*%
%ADD16C,0.0100*%
%ADD154C,0.0020*%
D10*
X053799Y087439D02*
G03*
X054299Y086939I0005J0D01*
G01*
Y096821D02*
G03*
X053799Y096321I0J-0005D01*
G01*
X063681Y09638D02*
G03*
X06324Y096821I-000441J0D01*
G01*
Y086939D02*
G03*
X063681Y08738I0J000441D01*
G01*
X054299Y086939D02*
X05449D01*
X053799Y087439D02*
Y08753D01*
X054299Y096821D02*
X05454D01*
X053799Y09613D02*
Y096321D01*
Y08753D02*
Y096321D01*
X06274Y096821D02*
X06324D01*
X063681Y09608D02*
Y09638D01*
X054299Y096821D02*
X06319D01*
X06299Y086939D02*
X06324D01*
X063681Y08738D02*
Y08748D01*
Y08738D02*
Y09628D01*
X05449Y086939D02*
X06324D01*
X054462Y066315D02*
Y071215D01*
X050562Y066315D02*
Y071215D01*
Y066315D02*
X054462D01*
X050562Y071215D02*
X054462D01*
D13*
X059117Y089602D02*
X059353D01*
X059235Y089484D02*
Y08972D01*
X058845Y089432D02*
X059625D01*
X058845Y089772D02*
X059625D01*
X058845Y089432D02*
Y089772D01*
X059625Y089432D02*
Y089772D01*
X060551Y07057D02*
Y070944D01*
X060364Y070757D02*
X060738D01*
X060301Y070247D02*
X060801D01*
X060301Y071267D02*
X060801D01*
Y070247D02*
Y071267D01*
X060301Y070247D02*
Y071267D01*
X043588Y083514D02*
X043824D01*
X043706Y083396D02*
Y083632D01*
X060581Y089602D02*
X060818D01*
X060699Y089484D02*
Y08972D01*
X060309Y089772D02*
X06109D01*
X060309Y089432D02*
X06109D01*
Y089772D01*
X060309Y089432D02*
Y089772D01*
X058622Y09188D02*
X058858D01*
X05874Y091762D02*
Y091998D01*
X062087Y071374D02*
Y071768D01*
X06189Y071571D02*
X062283D01*
X063307Y073431D02*
Y073471D01*
X060877D02*
X063307D01*
X060877Y069671D02*
Y073471D01*
Y069671D02*
X063307D01*
Y073431D01*
X054834Y099183D02*
Y099557D01*
X054647Y09937D02*
X055021D01*
X054618Y099843D02*
X055051D01*
X054618Y098898D02*
X055051D01*
Y099843D01*
X054618Y098898D02*
Y099843D01*
X059583Y071925D02*
X059976D01*
X05978Y071728D02*
Y072122D01*
X0588Y073515D02*
X06076D01*
X0588Y070335D02*
Y073515D01*
Y070335D02*
X06076D01*
Y073515D01*
X055674Y064741D02*
Y064977D01*
X055556Y064859D02*
X055792D01*
X045Y089406D02*
X046654D01*
X045Y08795D02*
Y089406D01*
Y08795D02*
X046654D01*
Y089406D01*
X045827Y088658D02*
Y088894D01*
X045709Y088776D02*
X045945D01*
X058742Y073588D02*
Y074768D01*
X060442Y073588D02*
Y074768D01*
X058742D02*
X060442D01*
X058742Y073588D02*
X060442D01*
X059592Y073981D02*
Y074375D01*
X059395Y074178D02*
X059789D01*
X061557Y081321D02*
X061951D01*
X061754Y081124D02*
Y081517D01*
X063064Y080011D02*
Y082631D01*
X060444D02*
X063064D01*
X060444Y080011D02*
X063064D01*
X060444D02*
Y082631D01*
X052512Y068568D02*
Y068962D01*
X052315Y068765D02*
X052709D01*
X05872Y076486D02*
X060886D01*
X05872Y079754D02*
X060886D01*
X05872Y076486D02*
Y079754D01*
X060886Y076486D02*
Y079754D01*
X059803Y077923D02*
Y078317D01*
X059606Y07812D02*
X06D01*
X051535Y075512D02*
X051929D01*
X051732Y075315D02*
Y075709D01*
X050502Y074282D02*
X052963D01*
Y076742D01*
X050502D02*
X052963D01*
X050502Y074282D02*
Y076742D01*
X048857Y079806D02*
Y081972D01*
X052834Y079806D02*
Y081972D01*
X048857D02*
X052834D01*
X048857Y079806D02*
X052834D01*
X050649Y080889D02*
X051042D01*
X050846Y080692D02*
Y081086D01*
X052619Y079349D02*
Y079743D01*
X052422Y079546D02*
X052816D01*
X051811Y07752D02*
Y077913D01*
X051614Y077717D02*
X052008D01*
X05244Y077286D02*
Y078149D01*
X052438Y077284D02*
X05244Y077286D01*
X051182Y077284D02*
X052438D01*
X051182Y078149D02*
X05244D01*
X051182Y077284D02*
Y078149D01*
X051076Y092488D02*
Y093508D01*
X051576Y092488D02*
Y093508D01*
X051076D02*
X051576D01*
X051076Y092488D02*
X051576D01*
X051139Y092998D02*
X051513D01*
X051326Y092811D02*
Y093185D01*
X060568Y092115D02*
X060568Y091878D01*
X06045Y091996D02*
X060686Y091996D01*
X060398Y091606D02*
Y092387D01*
X060738Y091606D02*
Y092387D01*
X060398D02*
X060738D01*
X060398Y091606D02*
X060738Y091606D01*
X060386Y090656D02*
Y09105D01*
X060189Y090853D02*
X060583D01*
X058704Y090987D02*
X059045D01*
X058704Y090207D02*
X059045D01*
X058704D02*
Y090987D01*
X059045Y090207D02*
Y090987D01*
X058756Y090597D02*
X058993D01*
X058875Y090479D02*
Y090715D01*
X058595Y090627D02*
Y090967D01*
X057815Y090627D02*
Y090967D01*
X058595D01*
X057815Y090627D02*
X058595D01*
X058205Y090679D02*
Y090915D01*
X058087Y090797D02*
X058323D01*
X056043Y069295D02*
Y069695D01*
X055843Y069495D02*
X056243D01*
X056406Y068618D02*
Y070372D01*
X055683Y068618D02*
X056406D01*
X055681Y068618D02*
Y070372D01*
Y070372D02*
X056406D01*
X048799Y079506D02*
X050177D01*
X048799Y077971D02*
X050177D01*
X048799D02*
Y079506D01*
X050177Y077971D02*
Y079506D01*
X049488Y078542D02*
Y078935D01*
X049291Y078739D02*
X049685D01*
X048741Y071639D02*
Y072659D01*
X048241Y071639D02*
Y072659D01*
X048741D01*
X048241Y071639D02*
X048741D01*
X048304Y072149D02*
X048678D01*
X048491Y071962D02*
Y072336D01*
X050104Y078887D02*
Y079261D01*
X049917Y079074D02*
X050291D01*
X049854Y079584D02*
X050354D01*
X049854Y078564D02*
X050354D01*
Y079584D01*
X049854Y078564D02*
Y079584D01*
X051317Y078558D02*
Y079578D01*
X051817Y078558D02*
Y079578D01*
X051317Y078558D02*
X051817D01*
X051317Y079578D02*
X051817D01*
X05138Y079068D02*
X051754D01*
X051567Y078881D02*
Y079255D01*
X049536Y078887D02*
Y079261D01*
X049349Y079074D02*
X049723D01*
X049286Y079584D02*
X049786D01*
X049286Y078564D02*
X049786D01*
Y079584D01*
X049286Y078564D02*
Y079584D01*
X050672Y078887D02*
Y079261D01*
X050485Y079074D02*
X050859D01*
X050422Y079584D02*
X050922D01*
X050422Y078564D02*
X050922D01*
Y079584D01*
X050422Y078564D02*
Y079584D01*
X048971Y093581D02*
Y094601D01*
X049471Y093581D02*
Y094601D01*
X048971D02*
X049471D01*
X048971Y093581D02*
X049471D01*
X049034Y094091D02*
X049408D01*
X049221Y093904D02*
Y094278D01*
X049221Y092865D02*
Y093239D01*
X049034Y093052D02*
X049408D01*
X048971Y092542D02*
X049471D01*
X048971Y093562D02*
X049471D01*
Y092542D02*
Y093562D01*
X048971Y092542D02*
Y093562D01*
X04821Y09217D02*
Y09319D01*
X04771Y09217D02*
Y09319D01*
Y09217D02*
X04821D01*
X04771Y09319D02*
X04821D01*
X047773Y09268D02*
X048147D01*
X04796Y092493D02*
Y092867D01*
X050293Y068219D02*
Y069239D01*
X049793Y068219D02*
Y069239D01*
Y068219D02*
X050293D01*
X049793Y069239D02*
X050293D01*
X049856Y068729D02*
X05023D01*
X050043Y068542D02*
Y068916D01*
X050917Y068904D02*
Y069298D01*
X05072Y069101D02*
X051114D01*
X050149Y06979D02*
X051685D01*
X050149Y068412D02*
X051685D01*
X050149D02*
Y06979D01*
X051685Y068412D02*
Y06979D01*
X054756Y080015D02*
X055776D01*
X054756Y080515D02*
X055776D01*
X054756Y080015D02*
Y080515D01*
X055776Y080015D02*
Y080515D01*
X055266Y080078D02*
Y080452D01*
X055079Y080265D02*
X055453D01*
X05474Y077586D02*
Y078606D01*
X05524Y077586D02*
Y078606D01*
X05474D02*
X05524D01*
X05474Y077586D02*
X05524D01*
X054803Y078096D02*
X055177D01*
X05499Y077909D02*
Y078283D01*
X053659Y077586D02*
Y078606D01*
X054159Y077586D02*
Y078606D01*
X053659D02*
X054159D01*
X053659Y077586D02*
X054159D01*
X053722Y078096D02*
X054096D01*
X053909Y077909D02*
Y078283D01*
X048978Y080347D02*
X049998D01*
X048978Y080847D02*
X049998D01*
X048978Y080347D02*
Y080847D01*
X049998Y080347D02*
Y080847D01*
X049488Y08041D02*
Y080784D01*
X049301Y080597D02*
X049675D01*
X05151Y081251D02*
X05253D01*
X05151Y080751D02*
X05253D01*
Y081251D01*
X05151Y080751D02*
Y081251D01*
X05202Y080814D02*
Y081188D01*
X051833Y081001D02*
X052207D01*
X051514Y080722D02*
X052534D01*
X051514Y080222D02*
X052534D01*
Y080722D01*
X051514Y080222D02*
Y080722D01*
X052024Y080285D02*
Y080659D01*
X051837Y080472D02*
X052211D01*
X054077Y081285D02*
X055097D01*
X054077Y080785D02*
X055097D01*
Y081285D01*
X054077Y080785D02*
Y081285D01*
X054587Y080848D02*
Y081222D01*
X0544Y081035D02*
X054774D01*
X05301Y080785D02*
X05403D01*
X05301Y081285D02*
X05403D01*
X05301Y080785D02*
Y081285D01*
X05403Y080785D02*
Y081285D01*
X05352Y080848D02*
Y081222D01*
X053333Y081035D02*
X053707D01*
X050533Y078128D02*
X051553D01*
X050533Y077628D02*
X051553D01*
Y078128D01*
X050533Y077628D02*
Y078128D01*
X051043Y077691D02*
Y078065D01*
X050856Y077878D02*
X05123D01*
X050533Y077577D02*
X051553D01*
X050533Y077077D02*
X051553D01*
Y077577D01*
X050533Y077077D02*
Y077577D01*
X051043Y07714D02*
Y077514D01*
X050856Y077327D02*
X05123D01*
X048978Y08095D02*
X049998D01*
X048978Y08145D02*
X049998D01*
X048978Y08095D02*
Y08145D01*
X049998Y08095D02*
Y08145D01*
X049488Y081012D02*
Y081387D01*
X049301Y0812D02*
X049675D01*
X050793Y078995D02*
X051187D01*
X05099Y078798D02*
Y079192D01*
X050301Y078227D02*
Y079763D01*
X051679Y078227D02*
Y079763D01*
X050301D02*
X051679D01*
X050301Y078227D02*
X051679D01*
X054518Y072905D02*
Y073925D01*
X054019Y072905D02*
Y073925D01*
Y072905D02*
X054518D01*
X054019Y073925D02*
X054518D01*
X054081Y073415D02*
X054456D01*
X054268Y073228D02*
Y073602D01*
X053878Y072905D02*
Y073925D01*
X053378Y072905D02*
Y073925D01*
Y072905D02*
X053878D01*
X053378Y073925D02*
X053878D01*
X053441Y073415D02*
X053815D01*
X053628Y073228D02*
Y073602D01*
X052036Y074235D02*
X05241D01*
X052223Y074048D02*
Y074422D01*
X051713Y073985D02*
Y074485D01*
X052733Y073985D02*
Y074485D01*
X051713Y073985D02*
X052733D01*
X051713Y074485D02*
X052733D01*
X051484Y071885D02*
X052504D01*
X051484Y072385D02*
X052504D01*
X051484Y071885D02*
Y072385D01*
X052504Y071885D02*
Y072385D01*
X051994Y071948D02*
Y072322D01*
X051807Y072135D02*
X052181D01*
X053698Y072071D02*
X054091D01*
X053894Y071874D02*
Y072268D01*
X054583Y071304D02*
Y072839D01*
X053206Y071304D02*
Y072839D01*
Y071304D02*
X054583D01*
X053206Y072839D02*
X054583D01*
X052642Y07135D02*
Y07237D01*
X053142Y07135D02*
Y07237D01*
X052642D02*
X053142D01*
X052642Y07135D02*
X053142D01*
X052705Y07186D02*
X053079D01*
X052892Y071673D02*
Y072047D01*
X051484Y071334D02*
X052504D01*
X051484Y071834D02*
X052504D01*
X051484Y071334D02*
Y071834D01*
X052504Y071334D02*
Y071834D01*
X051994Y071397D02*
Y071771D01*
X051807Y071584D02*
X052181D01*
X054462Y077561D02*
Y078581D01*
X053962Y077561D02*
Y078581D01*
X054462D01*
X053962Y077561D02*
X054462D01*
X054025Y078071D02*
X054399D01*
X054212Y077884D02*
Y078258D01*
X048461Y069163D02*
X048835D01*
X048648Y068976D02*
Y06935D01*
X049158Y068913D02*
Y069413D01*
X048138Y068913D02*
Y069413D01*
Y068913D02*
X049158D01*
X048138Y069413D02*
X049158D01*
X0577Y076567D02*
Y076941D01*
X057513Y076754D02*
X057887D01*
X05745Y077264D02*
X05795D01*
X05745Y076244D02*
X05795D01*
Y077264D01*
X05745Y076244D02*
Y077264D01*
X05927Y075754D02*
X06029D01*
X05927Y076254D02*
X06029D01*
Y075754D02*
Y076254D01*
X05927Y075754D02*
Y076254D01*
X05978Y075817D02*
Y076191D01*
X059593Y076004D02*
X059967D01*
X056898Y077831D02*
X057918D01*
X056898Y077331D02*
X057918D01*
X056898D02*
Y077831D01*
X057918Y077331D02*
Y077831D01*
X057408Y077394D02*
Y077768D01*
X057221Y077581D02*
X057595D01*
X056431Y076065D02*
Y077443D01*
X054895Y076065D02*
Y077443D01*
Y076065D02*
X056431D01*
X054895Y077443D02*
X056431D01*
X055466Y076754D02*
X05586D01*
X055663Y076557D02*
Y076951D01*
X052046Y094563D02*
X053066D01*
X052046Y094063D02*
X053066D01*
Y094563D01*
X052046Y094063D02*
Y094563D01*
X052556Y094126D02*
Y0945D01*
X052368Y094313D02*
X052743D01*
X059785Y092837D02*
X060021Y092837D01*
X059903Y092719D02*
X059903Y092955D01*
X059513Y092667D02*
X060293D01*
X059513Y093007D02*
X060293D01*
X059513Y092667D02*
Y093007D01*
X060293Y092667D02*
X060293Y093007D01*
X045906Y08764D02*
X046143D01*
X046024Y087522D02*
Y087758D01*
X045634Y08747D02*
X046414D01*
X045634Y08781D02*
X046414D01*
X045634Y08747D02*
Y08781D01*
X046414Y08747D02*
Y08781D01*
X04626Y086535D02*
Y086772D01*
X046142Y086654D02*
X046378D01*
X04609Y086264D02*
Y087044D01*
X04643Y086264D02*
Y087044D01*
X04609D02*
X04643D01*
X04609Y086264D02*
X04643D01*
X04602Y08668D02*
Y08702D01*
X04524Y08668D02*
Y08702D01*
X04602D01*
X04524Y08668D02*
X04602D01*
X04563Y086732D02*
Y086969D01*
X045512Y08685D02*
X045748D01*
X045556Y083621D02*
X04593D01*
X045743Y083434D02*
Y083808D01*
X046253Y083371D02*
Y083871D01*
X045233Y083371D02*
Y083871D01*
X046253D01*
X045233Y083371D02*
X046253D01*
X04526Y082789D02*
X04628D01*
X04526Y083289D02*
X04628D01*
X04526Y082789D02*
Y083289D01*
X04628Y082789D02*
Y083289D01*
X04577Y082852D02*
Y083226D01*
X045583Y083039D02*
X045957D01*
X04526Y082149D02*
X04628D01*
X04526Y082649D02*
X04628D01*
X04526Y082149D02*
Y082649D01*
X04628Y082149D02*
Y082649D01*
X04577Y082212D02*
Y082586D01*
X045583Y082399D02*
X045957D01*
X061454Y070065D02*
X062474D01*
X061454Y069565D02*
X062474D01*
Y070065D01*
X061454Y069565D02*
Y070065D01*
X061964Y069628D02*
Y070002D01*
X061777Y069815D02*
X062151D01*
X062251Y070614D02*
Y070988D01*
X062064Y070801D02*
X062438D01*
X062001Y071311D02*
X062501D01*
X062001Y070291D02*
X062501D01*
X062001D02*
Y071311D01*
X062501Y070291D02*
Y071311D01*
X062894Y070614D02*
Y070988D01*
X062707Y070801D02*
X063081D01*
X062644Y071311D02*
X063144D01*
X062644Y070291D02*
X063144D01*
X062644D02*
Y071311D01*
X063144Y070291D02*
Y071311D01*
X061278Y070291D02*
Y071311D01*
X061778Y070291D02*
Y071311D01*
X061278D02*
X061778D01*
X061278Y070291D02*
X061778D01*
X061341Y070801D02*
X061715D01*
X061528Y070614D02*
Y070988D01*
X058735Y070301D02*
Y071321D01*
X059235Y070301D02*
Y071321D01*
X058735D02*
X059235D01*
X058735Y070301D02*
X059235D01*
X058798Y070811D02*
X059172D01*
X058985Y070624D02*
Y070998D01*
X058543Y070291D02*
Y071311D01*
X058043Y070291D02*
Y071311D01*
Y070291D02*
X058543D01*
X058043Y071311D02*
X058543D01*
X058106Y070801D02*
X05848D01*
X058293Y070614D02*
Y070988D01*
X059369Y070274D02*
Y071294D01*
X059869Y070274D02*
Y071294D01*
X059369D02*
X059869D01*
X059369Y070274D02*
X059869D01*
X059432Y070784D02*
X059806D01*
X059619Y070597D02*
Y070971D01*
X054843Y070291D02*
Y071311D01*
X055343Y070291D02*
Y071311D01*
X054843D02*
X055343D01*
X054843Y070291D02*
X055343D01*
X054906Y070801D02*
X05528D01*
X055093Y070614D02*
Y070988D01*
X056125Y070291D02*
Y071311D01*
X056625Y070291D02*
Y071311D01*
X056125D02*
X056625D01*
X056125Y070291D02*
X056625D01*
X056188Y070801D02*
X056562D01*
X056375Y070614D02*
Y070988D01*
X055513Y069815D02*
X055913D01*
X055713Y069615D02*
Y070015D01*
X054835Y070177D02*
X05659D01*
X054836Y069455D02*
Y070177D01*
X054835Y069453D02*
X05659D01*
X05659D02*
Y070177D01*
X053665Y074832D02*
X054039D01*
X053852Y074645D02*
Y075019D01*
X053342Y074582D02*
Y075082D01*
X054362Y074582D02*
Y075082D01*
X053342D02*
X054362D01*
X053342Y074582D02*
X054362D01*
X053064Y077285D02*
Y078305D01*
X052564Y077285D02*
Y078305D01*
X053064D01*
X052564Y077285D02*
X053064D01*
X052627Y077795D02*
X053001D01*
X052814Y077608D02*
Y077982D01*
X049264Y070691D02*
X049638D01*
X049451Y070504D02*
Y070878D01*
X048941Y070441D02*
Y070941D01*
X049961Y070441D02*
Y070941D01*
X048941D02*
X049961D01*
X048941Y070441D02*
X049961D01*
X051065Y070192D02*
X051439D01*
X051252Y070005D02*
Y070379D01*
X050742Y069942D02*
Y070442D01*
X051762Y069942D02*
Y070442D01*
X050742D02*
X051762D01*
X050742Y069942D02*
X051762D01*
X049727Y068684D02*
Y069058D01*
X04954Y068871D02*
X049914D01*
X049477Y069381D02*
X049977D01*
X049477Y068361D02*
X049977D01*
Y069381D01*
X049477Y068361D02*
Y069381D01*
X050297Y072586D02*
X051675D01*
X050297Y071051D02*
X051675D01*
Y072586D01*
X050297Y071051D02*
Y072586D01*
X050986Y071622D02*
Y072015D01*
X050789Y071818D02*
X051183D01*
X048845Y070994D02*
X050223D01*
X048845Y072529D02*
X050223D01*
X048845Y070994D02*
Y072529D01*
X050223Y070994D02*
Y072529D01*
X049534Y071565D02*
Y071958D01*
X049337Y071761D02*
X049731D01*
X049982Y069645D02*
Y070369D01*
X048228D02*
X049982D01*
X048228Y069645D02*
Y070367D01*
X048228Y069645D02*
X049982D01*
X049105Y069807D02*
Y070207D01*
X048905Y070007D02*
X049305D01*
X048491Y070838D02*
Y071212D01*
X048304Y071025D02*
X048678D01*
X048241Y070515D02*
X048741D01*
X048241Y071535D02*
X048741D01*
X048241Y070515D02*
Y071535D01*
X048741Y070515D02*
Y071535D01*
X050636Y082586D02*
Y08296D01*
X050449Y082773D02*
X050823D01*
X050386Y082263D02*
X050886D01*
X050386Y083283D02*
X050886D01*
X050386Y082263D02*
Y083283D01*
X050886Y082263D02*
Y083283D01*
X050636Y084123D02*
Y084523D01*
X050436Y084323D02*
X050836D01*
X050998Y083446D02*
Y0852D01*
X050276Y083446D02*
X050998D01*
X050273Y083446D02*
Y0852D01*
Y0852D02*
X050998D01*
X052474Y072787D02*
Y073807D01*
X051974Y072787D02*
Y073807D01*
X052474D01*
X051974Y072787D02*
X052474D01*
X052037Y073297D02*
X052411D01*
X052224Y07311D02*
Y073484D01*
X056196Y074626D02*
Y075646D01*
X056696Y074626D02*
Y075646D01*
X056196Y074626D02*
X056696D01*
X056196Y075646D02*
X056696D01*
X056259Y075136D02*
X056633D01*
X056446Y074949D02*
Y075323D01*
X053342Y07519D02*
X054362D01*
X053342Y07569D02*
X054362D01*
Y07519D02*
Y07569D01*
X053342Y07519D02*
Y07569D01*
X053852Y075253D02*
Y075627D01*
X053665Y07544D02*
X054039D01*
X050374Y070134D02*
Y070508D01*
X050187Y070321D02*
X050561D01*
X050124Y070831D02*
X050624D01*
X050124Y069811D02*
X050624D01*
Y070831D01*
X050124Y069811D02*
Y070831D01*
X061395Y076754D02*
X061769D01*
X061582Y076567D02*
Y076941D01*
X062092Y076504D02*
Y077004D01*
X061072Y076504D02*
Y077004D01*
Y076504D02*
X062092D01*
X061072Y077004D02*
X062092D01*
X062801Y078708D02*
Y079108D01*
X062601Y078908D02*
X063001D01*
X062439Y078031D02*
Y079785D01*
Y079785D02*
X063161D01*
X063163Y078031D02*
Y079785D01*
X062439Y078031D02*
X063163D01*
X058183Y073061D02*
Y074081D01*
X057683Y073061D02*
Y074081D01*
Y073061D02*
X058183D01*
X057683Y074081D02*
X058183D01*
X057746Y073571D02*
X05812D01*
X057933Y073384D02*
Y073758D01*
X048978Y079645D02*
X049998D01*
X048978Y080145D02*
X049998D01*
X048978Y079645D02*
Y080145D01*
X049998Y079645D02*
Y080145D01*
X049488Y079708D02*
Y080082D01*
X049301Y079895D02*
X049675D01*
X057478Y090479D02*
Y090715D01*
X057359Y090597D02*
X057596D01*
X057648Y090207D02*
Y090987D01*
X057307Y090207D02*
Y090987D01*
Y090207D02*
X057648D01*
X057307Y090987D02*
X057648D01*
X052321Y07314D02*
X052715D01*
X052518Y072943D02*
Y073337D01*
X051829Y072372D02*
Y073907D01*
X053207Y072372D02*
Y073907D01*
X051829D02*
X053207D01*
X051829Y072372D02*
X053207D01*
X050106Y073749D02*
X051126D01*
X050106Y073249D02*
X051126D01*
Y073749D01*
X050106Y073249D02*
Y073749D01*
X050616Y073312D02*
Y073686D01*
X050429Y073499D02*
X050803D01*
X062546Y076754D02*
X06292D01*
X062733Y076567D02*
Y076941D01*
X063243Y076504D02*
Y077004D01*
X062223Y076504D02*
Y077004D01*
Y076504D02*
X063243D01*
X062223Y077004D02*
X063243D01*
X054885Y082539D02*
Y082913D01*
X054698Y082726D02*
X055072D01*
X054635Y082216D02*
X055135D01*
X054635Y083236D02*
X055135D01*
X054635Y082216D02*
Y083236D01*
X055135Y082216D02*
Y083236D01*
X057113Y076567D02*
Y076941D01*
X056926Y076754D02*
X0573D01*
X056863Y077264D02*
X057363D01*
X056863Y076244D02*
X057363D01*
Y077264D01*
X056863Y076244D02*
Y077264D01*
X0554Y082551D02*
Y082925D01*
X055213Y082738D02*
X055587D01*
X05515Y082228D02*
X05565D01*
X05515Y083248D02*
X05565D01*
X05515Y082228D02*
Y083248D01*
X05565Y082228D02*
Y083248D01*
X045827Y086902D02*
Y087139D01*
X045709Y08702D02*
X045945D01*
X045657Y08663D02*
Y087411D01*
X045997Y08663D02*
Y087411D01*
X045657D02*
X045997D01*
X045657Y08663D02*
X045997D01*
X049734Y073819D02*
X050108D01*
X049921Y073632D02*
Y074006D01*
X050431Y073569D02*
Y074069D01*
X049411Y073569D02*
Y074069D01*
Y073569D02*
X050431D01*
X049411Y074069D02*
X050431D01*
X061334Y077084D02*
Y077458D01*
X061147Y077271D02*
X061521D01*
X061084Y076761D02*
X061584D01*
X061084Y077781D02*
X061584D01*
Y076761D02*
Y077781D01*
X061084Y076761D02*
Y077781D01*
X04483Y086264D02*
X04517D01*
X04483Y087044D02*
X04517D01*
Y086264D02*
Y087044D01*
X04483Y086264D02*
Y087044D01*
X044882Y086654D02*
X045118D01*
X045Y086535D02*
Y086772D01*
X057107Y070614D02*
Y070988D01*
X05692Y070801D02*
X057294D01*
X056857Y071311D02*
X057357D01*
X056857Y070291D02*
X057357D01*
X056857D02*
Y071311D01*
X057357Y070291D02*
Y071311D01*
X062554Y073386D02*
Y07376D01*
X062367Y073573D02*
X062741D01*
X062304Y073063D02*
X062804D01*
X062304Y074083D02*
X062804D01*
Y073063D02*
Y074083D01*
X062304Y073063D02*
Y074083D01*
X056886Y073384D02*
Y073758D01*
X056699Y073571D02*
X057073D01*
X056636Y073061D02*
X057136D01*
X056636Y074081D02*
X057136D01*
Y073061D02*
Y074081D01*
X056636Y073061D02*
Y074081D01*
X061134Y073386D02*
Y07376D01*
X060947Y073573D02*
X061321D01*
X060884Y073063D02*
X061384D01*
X060884Y074083D02*
X061384D01*
Y073063D02*
Y074083D01*
X060884Y073063D02*
Y074083D01*
X055479Y073386D02*
Y07376D01*
X055292Y073573D02*
X055666D01*
X055229Y073063D02*
X055729D01*
X055229Y074083D02*
X055729D01*
Y073063D02*
Y074083D01*
X055229Y073063D02*
Y074083D01*
X059713Y073386D02*
Y07376D01*
X059526Y073573D02*
X0599D01*
X059463Y073063D02*
X059963D01*
X059463Y074083D02*
X059963D01*
Y073063D02*
Y074083D01*
X059463Y073063D02*
Y074083D01*
X055718Y070614D02*
Y070988D01*
X055532Y070801D02*
X055906D01*
X055469Y070291D02*
X055968D01*
X055469Y071311D02*
X055968D01*
Y070291D02*
Y071311D01*
X055469Y070291D02*
Y071311D01*
X058689Y073384D02*
Y073758D01*
X058502Y073571D02*
X058876D01*
X058439Y074081D02*
X058939D01*
X058439Y073061D02*
X058939D01*
X058439D02*
Y074081D01*
X058939Y073061D02*
Y074081D01*
X050242Y093866D02*
Y09424D01*
X050055Y094053D02*
X050429D01*
X049992Y093543D02*
X050492D01*
X049992Y094563D02*
X050492D01*
Y093543D02*
Y094563D01*
X049992Y093543D02*
Y094563D01*
X060987Y069449D02*
Y070173D01*
X059232Y069449D02*
X060987D01*
X059232Y069451D02*
Y070173D01*
X059232D02*
X060987D01*
X060109Y069611D02*
Y070011D01*
X059909Y069811D02*
X060309D01*
X061191Y085316D02*
X061915D01*
X061191Y085316D02*
Y087071D01*
X061193Y08707D02*
X061915D01*
Y085316D02*
Y087071D01*
X061353Y086193D02*
X061753D01*
X061553Y085993D02*
Y086393D01*
X050256Y092826D02*
Y0932D01*
X050069Y093013D02*
X050443D01*
X050006Y092503D02*
X050506D01*
X050006Y093523D02*
X050506D01*
Y092503D02*
Y093523D01*
X050006Y092503D02*
Y093523D01*
X051324Y09385D02*
Y094224D01*
X051137Y094037D02*
X051511D01*
X051074Y093527D02*
X051574D01*
X051074Y094547D02*
X051574D01*
Y093527D02*
Y094547D01*
X051074Y093527D02*
Y094547D01*
X049927Y072598D02*
X051305D01*
X049927Y071063D02*
X051305D01*
X049927D02*
Y072598D01*
X051305Y071063D02*
Y072598D01*
X050616Y071633D02*
Y072027D01*
X050419Y07183D02*
X050813D01*
X059035Y071437D02*
X060413D01*
X059035Y072973D02*
X060413D01*
Y071437D02*
Y072973D01*
X059035Y071437D02*
Y072973D01*
X059724Y072008D02*
Y072402D01*
X059528Y072205D02*
X059921D01*
X054783Y071437D02*
X056161D01*
X054783Y072973D02*
X056161D01*
Y071437D02*
Y072973D01*
X054783Y071437D02*
Y072973D01*
X055472Y072008D02*
Y072402D01*
X055276Y072205D02*
X055669D01*
X060453Y071437D02*
X061831D01*
X060453Y072973D02*
X061831D01*
Y071437D02*
Y072973D01*
X060453Y071437D02*
Y072973D01*
X061142Y072008D02*
Y072402D01*
X060945Y072205D02*
X061339D01*
X050429Y072858D02*
X050803D01*
X050616Y072671D02*
Y073045D01*
X051126Y072608D02*
Y073108D01*
X050106Y072608D02*
Y073108D01*
X051126D01*
X050106Y072608D02*
X051126D01*
X06187Y071437D02*
X063248D01*
X06187Y072973D02*
X063248D01*
Y071437D02*
Y072973D01*
X06187Y071437D02*
Y072973D01*
X062559Y072008D02*
Y072402D01*
X062362Y072205D02*
X062756D01*
X056201Y071437D02*
X057579D01*
X056201Y072973D02*
X057579D01*
Y071437D02*
Y072973D01*
X056201Y071437D02*
Y072973D01*
X05689Y072008D02*
Y072402D01*
X056693Y072205D02*
X057087D01*
X057618Y072973D02*
X058996D01*
X057618Y071437D02*
X058996D01*
X057618D02*
Y072973D01*
X058996Y071437D02*
Y072973D01*
X058307Y072008D02*
Y072402D01*
X05811Y072205D02*
X058504D01*
X060694Y086934D02*
Y087308D01*
X060507Y087121D02*
X060882D01*
X060444Y087631D02*
X060944D01*
X060444Y086611D02*
X060944D01*
X060444D02*
Y087631D01*
X060944Y086611D02*
Y087631D01*
X04993Y098898D02*
Y099843D01*
X050363Y098898D02*
Y099843D01*
X04993Y098898D02*
X050363D01*
X04993Y099843D02*
X050363D01*
X04996Y09937D02*
X050334D01*
X050147Y099183D02*
Y099557D01*
X051493Y098898D02*
Y099843D01*
X051926Y098898D02*
Y099843D01*
X051493Y098898D02*
X051926D01*
X051493Y099843D02*
X051926D01*
X051522Y09937D02*
X051896D01*
X051709Y099183D02*
Y099557D01*
X053055Y098898D02*
Y099843D01*
X053488Y098898D02*
Y099843D01*
X053055Y098898D02*
X053488D01*
X053055Y099843D02*
X053488D01*
X053085Y09937D02*
X053459D01*
X053272Y099183D02*
Y099557D01*
X049183Y075039D02*
X049557D01*
X04937Y074852D02*
Y075226D01*
X04988Y074789D02*
Y075289D01*
X04886Y074789D02*
Y075289D01*
Y074789D02*
X04988D01*
X04886Y075289D02*
X04988D01*
X049734Y07689D02*
X050108D01*
X049921Y076703D02*
Y077077D01*
X050431Y07664D02*
Y07714D01*
X049411Y07664D02*
Y07714D01*
Y07664D02*
X050431D01*
X049411Y07714D02*
X050431D01*
X049183Y075669D02*
X049557D01*
X04937Y075482D02*
Y075856D01*
X04988Y075419D02*
Y075919D01*
X04886Y075419D02*
Y075919D01*
Y075419D02*
X04988D01*
X04886Y075919D02*
X04988D01*
X055796Y074949D02*
Y075323D01*
X055609Y075136D02*
X055983D01*
X055546Y075646D02*
X056046D01*
X055546Y074626D02*
X056046D01*
Y075646D01*
X055546Y074626D02*
Y075646D01*
X056466Y072367D02*
X05684D01*
X056653Y07218D02*
Y072554D01*
X057163Y072117D02*
Y072617D01*
X056143Y072117D02*
Y072617D01*
Y072117D02*
X057163D01*
X056143Y072617D02*
X057163D01*
X057646Y068572D02*
X05802D01*
X057833Y068385D02*
Y068759D01*
X057323Y068322D02*
Y068822D01*
X058343Y068322D02*
Y068822D01*
X057323D02*
X058343D01*
X057323Y068322D02*
X058343D01*
X057644Y069354D02*
X058018D01*
X057831Y069167D02*
Y069541D01*
X058341Y069104D02*
Y069604D01*
X057321Y069104D02*
Y069604D01*
Y069104D02*
X058341D01*
X057321Y069604D02*
X058341D01*
X050926Y099183D02*
Y099557D01*
X050739Y09937D02*
X051113D01*
X050676Y09988D02*
X051176D01*
X050676Y09886D02*
X051176D01*
Y09988D01*
X050676Y09886D02*
Y09988D01*
X052488Y099183D02*
Y099557D01*
X052301Y09937D02*
X052675D01*
X052238Y09988D02*
X052738D01*
X052238Y09886D02*
X052738D01*
Y09988D01*
X052238Y09886D02*
Y09988D01*
X054051Y099183D02*
Y099557D01*
X053864Y09937D02*
X054238D01*
X053801Y09988D02*
X054301D01*
X053801Y09886D02*
X054301D01*
Y09988D01*
X053801Y09886D02*
Y09988D01*
X048437Y068566D02*
X048811D01*
X048624Y068379D02*
Y068753D01*
X049134Y068316D02*
Y068816D01*
X048114Y068316D02*
Y068816D01*
Y068316D02*
X049134D01*
X048114Y068816D02*
X049134D01*
X058298Y077084D02*
Y077458D01*
X058111Y077271D02*
X058485D01*
X058048Y077781D02*
X058548D01*
X058048Y076761D02*
X058548D01*
Y077781D01*
X058048Y076761D02*
Y077781D01*
X057356Y074646D02*
X05773D01*
X057543Y074459D02*
Y074833D01*
X057033Y074396D02*
Y074896D01*
X058053Y074396D02*
Y074896D01*
X057033D02*
X058053D01*
X057033Y074396D02*
X058053D01*
X057356Y075867D02*
X05773D01*
X057543Y07568D02*
Y076054D01*
X058053Y075617D02*
Y076117D01*
X057033Y075617D02*
Y076117D01*
Y075617D02*
X058053D01*
X057033Y076117D02*
X058053D01*
X055613Y099183D02*
Y099557D01*
X055426Y09937D02*
X0558D01*
X055363Y09988D02*
X055863D01*
X055363Y09886D02*
X055863D01*
Y09988D01*
X055363Y09886D02*
Y09988D01*
X049909Y084417D02*
Y084791D01*
X049722Y084604D02*
X050096D01*
X049659Y084094D02*
X050159D01*
X049659Y085114D02*
X050159D01*
X049659Y084094D02*
Y085114D01*
X050159Y084094D02*
Y085114D01*
X049372Y084417D02*
Y084791D01*
X049185Y084604D02*
X049559D01*
X049122Y084094D02*
X049622D01*
X049122Y085114D02*
X049622D01*
X049122Y084094D02*
Y085114D01*
X049622Y084094D02*
Y085114D01*
X048827Y084417D02*
Y084791D01*
X04864Y084604D02*
X049014D01*
X048577Y084094D02*
X049077D01*
X048577Y085114D02*
X049077D01*
X048577Y084094D02*
Y085114D01*
X049077Y084094D02*
Y085114D01*
X04826Y084417D02*
Y084791D01*
X048073Y084604D02*
X048447D01*
X04801Y084094D02*
X04851D01*
X04801Y085114D02*
X04851D01*
X04801Y084094D02*
Y085114D01*
X04851Y084094D02*
Y085114D01*
X057356Y075276D02*
X05773D01*
X057543Y075089D02*
Y075463D01*
X058053Y075026D02*
Y075526D01*
X057033Y075026D02*
Y075526D01*
Y075026D02*
X058053D01*
X057033Y075526D02*
X058053D01*
X050827Y073317D02*
Y073691D01*
X05064Y073504D02*
X051014D01*
X050577Y074014D02*
X051077D01*
X050577Y072994D02*
X051077D01*
Y074014D01*
X050577Y072994D02*
Y074014D01*
X049183Y074449D02*
X049557D01*
X04937Y074262D02*
Y074636D01*
X04988Y074199D02*
Y074699D01*
X04886Y074199D02*
Y074699D01*
Y074199D02*
X04988D01*
X04886Y074699D02*
X04988D01*
X049734Y073179D02*
X050108D01*
X049921Y072992D02*
Y073366D01*
X050431Y072929D02*
Y073429D01*
X049411Y072929D02*
Y073429D01*
Y072929D02*
X050431D01*
X049411Y073429D02*
X050431D01*
X048465Y075167D02*
Y075541D01*
X048278Y075354D02*
X048652D01*
X048215Y075864D02*
X048715D01*
X048215Y074844D02*
X048715D01*
Y075864D01*
X048215Y074844D02*
Y075864D01*
X047842Y075167D02*
Y075541D01*
X047655Y075354D02*
X048029D01*
X047592Y074844D02*
X048092D01*
X047592Y075864D02*
X048092D01*
X047592Y074844D02*
Y075864D01*
X048092Y074844D02*
Y075864D01*
X049734Y07752D02*
X050108D01*
X049921Y077333D02*
Y077707D01*
X049411Y07727D02*
Y07777D01*
X050431Y07727D02*
Y07777D01*
X049411D02*
X050431D01*
X049411Y07727D02*
X050431D01*
X049183Y07626D02*
X049557D01*
X04937Y076073D02*
Y076447D01*
X04988Y07601D02*
Y07651D01*
X04886Y07601D02*
Y07651D01*
Y07601D02*
X04988D01*
X04886Y07651D02*
X04988D01*
X050827Y077608D02*
Y077982D01*
X05064Y077795D02*
X051014D01*
X050577Y078305D02*
X051077D01*
X050577Y077285D02*
X051077D01*
Y078305D01*
X050577Y077285D02*
Y078305D01*
X05764Y070135D02*
X058014D01*
X057827Y069948D02*
Y070322D01*
X058337Y069885D02*
Y070385D01*
X057317Y069885D02*
Y070385D01*
Y069885D02*
X058337D01*
X057317Y070385D02*
X058337D01*
X056845Y073104D02*
Y073478D01*
X056658Y073291D02*
X057032D01*
X056595Y073801D02*
X057095D01*
X056595Y072781D02*
X057095D01*
Y073801D01*
X056595Y072781D02*
Y073801D01*
X054896Y068827D02*
X05527D01*
X055083Y06864D02*
Y069014D01*
X054573Y068577D02*
Y069077D01*
X055593Y068577D02*
Y069077D01*
X054573D02*
X055593D01*
X054573Y068577D02*
X055593D01*
X059441Y068178D02*
X060165D01*
Y068178D02*
Y069932D01*
X059441Y069932D02*
X060163D01*
X059441Y068178D02*
Y069932D01*
X059603Y069055D02*
X060003D01*
X059803Y068855D02*
Y069255D01*
X053523Y075948D02*
X054901D01*
X053523Y077483D02*
X054901D01*
X053523Y075948D02*
Y077483D01*
X054901Y075948D02*
Y077483D01*
X054212Y076519D02*
Y076913D01*
X054015Y076716D02*
X054409D01*
X05602Y072003D02*
X057398D01*
X05602Y070468D02*
X057398D01*
Y072003D01*
X05602Y070468D02*
Y072003D01*
X056709Y071038D02*
Y071432D01*
X056512Y071235D02*
X056906D01*
X059446Y064859D02*
X059682D01*
X059564Y064741D02*
Y064977D01*
D16*
X053674Y066859D02*
X057674D01*
X053674Y061702D02*
Y066809D01*
X057674Y061702D02*
Y066809D01*
X053674Y061702D02*
X057674D01*
X057564D02*
X061564D01*
Y066809D01*
X057564Y061702D02*
Y066809D01*
Y066859D02*
X061564D01*
D154*
X055089Y078791D02*
Y079795D01*
X054085Y078791D02*
X055089D01*
X054085D02*
Y079795D01*
X055089D01*
X051792Y080373D02*
X053446D01*
X051792Y078719D02*
X053446D01*
X051792D02*
Y080373D01*
X053446Y078719D02*
Y080373D01*
X060086Y091203D02*
X060686D01*
X060086Y090503D02*
X060686D01*
X060086D02*
Y091203D01*
X060686Y090503D02*
Y091203D01*
M02*
