G04*
G04 #@! TF.GenerationSoftware,Altium Limited,Altium Designer,21.2.1 (34)*
G04*
G04 Layer_Color=32768*
%FSTAX24Y24*%
%MOIN*%
G70*
G04*
G04 #@! TF.SameCoordinates,4AC015DC-E3C4-4AC6-9BA4-5EE9E9B64A6E*
G04*
G04*
G04 #@! TF.FilePolarity,Positive*
G04*
G01*
G75*
%ADD156R,0.0010X0.1160*%
%ADD157R,0.0010X0.0020*%
%ADD158R,0.0010X0.0100*%
%ADD159R,0.0010X0.0090*%
%ADD160R,0.0010X0.0150*%
%ADD161R,0.0010X0.0170*%
%ADD162R,0.0010X0.0180*%
%ADD163R,0.0010X0.0190*%
%ADD164R,0.0010X0.0080*%
%ADD165R,0.0010X0.0070*%
%ADD166R,0.0010X0.0060*%
%ADD167R,0.0010X0.0030*%
%ADD168R,0.0010X0.0160*%
%ADD169R,0.0010X0.0130*%
%ADD170R,0.0010X0.0110*%
%ADD171R,0.0010X0.0140*%
%ADD172R,0.0010X0.0040*%
%ADD173R,0.0010X0.0050*%
%ADD174R,0.0010X0.0120*%
D156*
X053188Y079551D02*
D03*
X053178D02*
D03*
X052048D02*
D03*
X052038D02*
D03*
D157*
X053168Y080121D02*
D03*
Y078981D02*
D03*
X053158Y080121D02*
D03*
Y078981D02*
D03*
X053148Y080121D02*
D03*
Y078981D02*
D03*
X053138Y080121D02*
D03*
Y078981D02*
D03*
X053128Y080121D02*
D03*
Y078981D02*
D03*
X053118Y080121D02*
D03*
Y078981D02*
D03*
X053108Y080121D02*
D03*
Y078981D02*
D03*
X053098Y080121D02*
D03*
Y078981D02*
D03*
X053088Y080121D02*
D03*
Y078981D02*
D03*
X053078Y080121D02*
D03*
Y078981D02*
D03*
X053068Y080121D02*
D03*
Y078981D02*
D03*
X053058Y080121D02*
D03*
Y078981D02*
D03*
X053048Y080121D02*
D03*
Y078981D02*
D03*
X053038Y080121D02*
D03*
Y078981D02*
D03*
X053028Y080121D02*
D03*
Y078981D02*
D03*
X053018Y080121D02*
D03*
Y078981D02*
D03*
X053008Y080121D02*
D03*
Y078981D02*
D03*
X052998Y080121D02*
D03*
Y078981D02*
D03*
X052988Y080121D02*
D03*
Y078981D02*
D03*
X052978Y080121D02*
D03*
Y078981D02*
D03*
X052968Y080121D02*
D03*
Y078981D02*
D03*
X052958Y080121D02*
D03*
Y078981D02*
D03*
X052948Y080121D02*
D03*
Y078981D02*
D03*
X052938Y080121D02*
D03*
Y078981D02*
D03*
X052928Y080121D02*
D03*
Y078981D02*
D03*
X052918Y080121D02*
D03*
Y078981D02*
D03*
X052908Y080121D02*
D03*
Y078981D02*
D03*
X052898Y080121D02*
D03*
Y078981D02*
D03*
X052888Y080121D02*
D03*
Y078981D02*
D03*
X052878Y080121D02*
D03*
Y078981D02*
D03*
X052868Y080121D02*
D03*
Y078981D02*
D03*
X052858Y080121D02*
D03*
Y078981D02*
D03*
X052848Y080121D02*
D03*
Y078981D02*
D03*
X052838Y080121D02*
D03*
Y078981D02*
D03*
X052828Y080121D02*
D03*
Y078981D02*
D03*
X052818Y080121D02*
D03*
Y078981D02*
D03*
X052808Y080121D02*
D03*
Y078981D02*
D03*
X052798Y080121D02*
D03*
Y078981D02*
D03*
X052788Y080121D02*
D03*
Y078981D02*
D03*
X052778Y080121D02*
D03*
Y078981D02*
D03*
X052768Y080121D02*
D03*
Y078981D02*
D03*
X052758Y080121D02*
D03*
Y078981D02*
D03*
X052748Y080121D02*
D03*
Y078981D02*
D03*
X052738Y080121D02*
D03*
Y078981D02*
D03*
X052728Y080121D02*
D03*
Y078981D02*
D03*
X052718Y080121D02*
D03*
Y078981D02*
D03*
X052708Y080121D02*
D03*
Y078981D02*
D03*
X052698Y080121D02*
D03*
Y078981D02*
D03*
X052688Y080121D02*
D03*
Y078981D02*
D03*
X052678Y080121D02*
D03*
Y078981D02*
D03*
X052668Y080121D02*
D03*
Y078981D02*
D03*
X052658Y080121D02*
D03*
Y078981D02*
D03*
X052648Y080121D02*
D03*
Y078981D02*
D03*
X052638Y080121D02*
D03*
Y078981D02*
D03*
X052628Y080121D02*
D03*
Y078981D02*
D03*
X052618Y080121D02*
D03*
Y078981D02*
D03*
X052608Y080121D02*
D03*
Y078981D02*
D03*
X052598Y080121D02*
D03*
Y078981D02*
D03*
X052588Y080121D02*
D03*
Y078981D02*
D03*
X052578Y080121D02*
D03*
Y078981D02*
D03*
X052568Y080121D02*
D03*
Y078981D02*
D03*
X052558Y080121D02*
D03*
Y078981D02*
D03*
X052548Y080121D02*
D03*
Y078981D02*
D03*
X052538Y080121D02*
D03*
Y078981D02*
D03*
X052528Y080121D02*
D03*
Y078981D02*
D03*
X052518Y080121D02*
D03*
Y078981D02*
D03*
X052508Y080121D02*
D03*
Y078981D02*
D03*
X052498Y080121D02*
D03*
Y078981D02*
D03*
X052488Y080121D02*
D03*
Y078981D02*
D03*
X052478Y080121D02*
D03*
Y078981D02*
D03*
X052468Y080121D02*
D03*
Y078981D02*
D03*
X052458Y080121D02*
D03*
Y078981D02*
D03*
X052448Y080121D02*
D03*
Y078981D02*
D03*
X052438Y080121D02*
D03*
Y078981D02*
D03*
X052428Y080121D02*
D03*
Y078981D02*
D03*
X052418Y080121D02*
D03*
Y078981D02*
D03*
X052408Y080121D02*
D03*
Y078981D02*
D03*
X052398Y080121D02*
D03*
Y078981D02*
D03*
X052388Y080121D02*
D03*
Y078981D02*
D03*
X052378Y080121D02*
D03*
Y078981D02*
D03*
X052368Y080121D02*
D03*
Y078981D02*
D03*
X052358Y080121D02*
D03*
Y078981D02*
D03*
X052348Y080121D02*
D03*
Y078981D02*
D03*
X052338Y080121D02*
D03*
Y078981D02*
D03*
X052328Y080121D02*
D03*
Y078981D02*
D03*
X052318Y080121D02*
D03*
Y078981D02*
D03*
X052308Y080121D02*
D03*
Y078981D02*
D03*
X052298Y080121D02*
D03*
Y078981D02*
D03*
X052288Y080121D02*
D03*
Y078981D02*
D03*
X052278Y080121D02*
D03*
Y078981D02*
D03*
X052268Y080121D02*
D03*
Y078981D02*
D03*
X052258Y080121D02*
D03*
Y078981D02*
D03*
X052248Y080121D02*
D03*
Y078981D02*
D03*
X052238Y080121D02*
D03*
Y078981D02*
D03*
X052228Y080121D02*
D03*
Y078981D02*
D03*
X052218Y080121D02*
D03*
Y078981D02*
D03*
X052208Y080121D02*
D03*
Y078981D02*
D03*
X052198Y080121D02*
D03*
Y078981D02*
D03*
X052188Y080121D02*
D03*
Y078981D02*
D03*
X052178Y080121D02*
D03*
Y078981D02*
D03*
X052168Y080121D02*
D03*
Y078981D02*
D03*
X052158Y080121D02*
D03*
Y078981D02*
D03*
X052148Y080121D02*
D03*
Y078981D02*
D03*
X052138Y080121D02*
D03*
Y078981D02*
D03*
X052128Y080121D02*
D03*
Y078981D02*
D03*
X052118Y080121D02*
D03*
Y078981D02*
D03*
X052108Y080121D02*
D03*
Y078981D02*
D03*
X052098Y080121D02*
D03*
Y078981D02*
D03*
X052088Y080121D02*
D03*
Y078981D02*
D03*
X052078Y080121D02*
D03*
Y078981D02*
D03*
X052068Y080121D02*
D03*
Y078981D02*
D03*
X052058Y080121D02*
D03*
Y078981D02*
D03*
D158*
X053148Y079741D02*
D03*
Y079351D02*
D03*
X053138Y079741D02*
D03*
Y079351D02*
D03*
X053128Y079741D02*
D03*
Y079351D02*
D03*
X053118Y079741D02*
D03*
Y079351D02*
D03*
X053108Y079741D02*
D03*
Y079351D02*
D03*
X053098Y079741D02*
D03*
Y079351D02*
D03*
X053088Y079741D02*
D03*
Y079351D02*
D03*
X053078Y079741D02*
D03*
X053068D02*
D03*
X053058D02*
D03*
X053048D02*
D03*
X053038D02*
D03*
X053028D02*
D03*
X053018D02*
D03*
X052278Y079981D02*
D03*
X052228Y079741D02*
D03*
X052218Y079351D02*
D03*
X052208D02*
D03*
X052198D02*
D03*
X052188Y079741D02*
D03*
X052178D02*
D03*
X052168D02*
D03*
X052158D02*
D03*
X052148D02*
D03*
X052138D02*
D03*
X052128D02*
D03*
X052118D02*
D03*
X052108D02*
D03*
X052098D02*
D03*
X052088D02*
D03*
D159*
X053148Y079546D02*
D03*
X053138D02*
D03*
X053128D02*
D03*
X053118D02*
D03*
X053108D02*
D03*
X053098D02*
D03*
X053088D02*
D03*
X053078D02*
D03*
Y079356D02*
D03*
X053068Y079546D02*
D03*
Y079356D02*
D03*
X053058Y079546D02*
D03*
Y079356D02*
D03*
X053048Y079546D02*
D03*
Y079356D02*
D03*
X053038Y079546D02*
D03*
Y079356D02*
D03*
X053028Y079546D02*
D03*
Y079356D02*
D03*
X053018Y079546D02*
D03*
Y079356D02*
D03*
X053008Y079746D02*
D03*
Y079546D02*
D03*
Y079356D02*
D03*
X052238Y079746D02*
D03*
X052228Y079546D02*
D03*
Y079356D02*
D03*
X052218Y079546D02*
D03*
X052208D02*
D03*
X052198D02*
D03*
X052188D02*
D03*
Y079356D02*
D03*
X052178Y079546D02*
D03*
Y079356D02*
D03*
X052168Y079546D02*
D03*
Y079356D02*
D03*
X052158Y079546D02*
D03*
Y079356D02*
D03*
X052148Y079546D02*
D03*
Y079356D02*
D03*
X052138Y079546D02*
D03*
Y079356D02*
D03*
X052128Y079546D02*
D03*
Y079356D02*
D03*
X052118Y079546D02*
D03*
Y079356D02*
D03*
X052108Y079546D02*
D03*
Y079356D02*
D03*
X052098Y079546D02*
D03*
Y079356D02*
D03*
X052088Y079546D02*
D03*
Y079356D02*
D03*
X052078Y079746D02*
D03*
D160*
X053048Y080006D02*
D03*
X052768D02*
D03*
X052668Y079086D02*
D03*
X052658Y080006D02*
D03*
X052578D02*
D03*
X052268D02*
D03*
X052218Y079086D02*
D03*
X052198Y080006D02*
D03*
D161*
X053048Y079086D02*
D03*
X053038Y080006D02*
D03*
X053028Y079996D02*
D03*
X053018D02*
D03*
X052988D02*
D03*
X052978D02*
D03*
X052838D02*
D03*
X052828D02*
D03*
Y079106D02*
D03*
X052818D02*
D03*
X052808D02*
D03*
X052798D02*
D03*
X052788D02*
D03*
X052778Y080006D02*
D03*
X052658Y079096D02*
D03*
X052648D02*
D03*
X052638Y079996D02*
D03*
Y079096D02*
D03*
X052628Y079996D02*
D03*
X052618D02*
D03*
X052608D02*
D03*
X052598Y079096D02*
D03*
X052588D02*
D03*
X052458Y080006D02*
D03*
Y079096D02*
D03*
X052388Y080006D02*
D03*
Y079096D02*
D03*
X052268D02*
D03*
X052258D02*
D03*
X052248Y079996D02*
D03*
Y079096D02*
D03*
X052238Y079996D02*
D03*
Y079096D02*
D03*
X052228Y079996D02*
D03*
X052218D02*
D03*
D162*
X053038Y079091D02*
D03*
X053008Y079991D02*
D03*
X052998D02*
D03*
X052968Y079091D02*
D03*
X052818Y079991D02*
D03*
X052788Y080001D02*
D03*
X052628Y079101D02*
D03*
X052618D02*
D03*
X052608D02*
D03*
X052448Y080001D02*
D03*
Y079101D02*
D03*
X052438D02*
D03*
X052428D02*
D03*
X052418D02*
D03*
X052408D02*
D03*
X052398Y080001D02*
D03*
Y079101D02*
D03*
D163*
X053028Y079096D02*
D03*
X053018D02*
D03*
X053008D02*
D03*
X052998D02*
D03*
X052988D02*
D03*
X052978D02*
D03*
X052808Y079996D02*
D03*
X052798D02*
D03*
X052438D02*
D03*
X052428D02*
D03*
X052418D02*
D03*
X052408D02*
D03*
D164*
X052998Y079741D02*
D03*
Y079351D02*
D03*
X052858Y079971D02*
D03*
X052568Y079121D02*
D03*
X052238Y079551D02*
D03*
Y079351D02*
D03*
D165*
X052998Y079546D02*
D03*
X052248Y079746D02*
D03*
D166*
X052988Y079741D02*
D03*
Y079551D02*
D03*
Y079351D02*
D03*
X052248D02*
D03*
D167*
X052978Y079546D02*
D03*
X052568Y079956D02*
D03*
D168*
X052968Y080001D02*
D03*
X052848D02*
D03*
Y079101D02*
D03*
X052838D02*
D03*
X052778D02*
D03*
X052648Y080001D02*
D03*
X052598D02*
D03*
X052588D02*
D03*
X052578Y079091D02*
D03*
X052378D02*
D03*
X052278Y079101D02*
D03*
X052258Y080001D02*
D03*
X052228Y079091D02*
D03*
X052208Y080001D02*
D03*
D169*
X052958Y079106D02*
D03*
X052378Y079996D02*
D03*
X052198Y079076D02*
D03*
D170*
X052468Y080026D02*
D03*
X052218Y079746D02*
D03*
X052208D02*
D03*
X052198D02*
D03*
D171*
X052468Y079101D02*
D03*
X052208Y079081D02*
D03*
X052188Y080011D02*
D03*
D172*
X052258Y079351D02*
D03*
D173*
X052248Y079546D02*
D03*
D174*
X052188Y079071D02*
D03*
M02*
