G04*
G04 #@! TF.GenerationSoftware,Altium Limited,Altium Designer,21.2.1 (34)*
G04*
G04 Layer_Color=16711935*
%FSTAX24Y24*%
%MOIN*%
G70*
G04*
G04 #@! TF.SameCoordinates,4AC015DC-E3C4-4AC6-9BA4-5EE9E9B64A6E*
G04*
G04*
G04 #@! TF.FilePolarity,Positive*
G04*
G01*
G75*
%ADD10C,0.0070*%
%ADD11C,0.0079*%
%ADD13C,0.0039*%
%ADD14C,0.0070*%
%ADD15C,0.0050*%
%ADD16C,0.0100*%
G36*
X047308Y065316D02*
X047311Y065316D01*
X047314Y065316D01*
X047318Y065315D01*
X047323Y065314D01*
X047332Y065312D01*
X047336Y06531D01*
X047341Y065308D01*
X047346Y065306D01*
X047351Y065303D01*
X047356Y0653D01*
X04736Y065297D01*
X04736Y065296D01*
X047361Y065296D01*
X047362Y065295D01*
X047364Y065293D01*
X047365Y065291D01*
X047367Y065289D01*
X047369Y065286D01*
X047372Y065282D01*
X047374Y065279D01*
X047376Y065275D01*
X047378Y06527D01*
X047381Y065265D01*
X047383Y06526D01*
X047384Y065254D01*
X047386Y065248D01*
X047387Y065241D01*
X047351Y065238D01*
Y065239D01*
X04735Y065239D01*
Y065241D01*
X04735Y065243D01*
X047349Y065245D01*
X047349Y065247D01*
X047347Y065253D01*
X047345Y065258D01*
X047342Y065264D01*
X047338Y06527D01*
X047336Y065273D01*
X047334Y065275D01*
X047333Y065275D01*
X047331Y065276D01*
X047328Y065278D01*
X047325Y06528D01*
X04732Y065282D01*
X047314Y065284D01*
X047308Y065286D01*
X047301Y065286D01*
X047298D01*
X047295Y065286D01*
X047291Y065285D01*
X047286Y065284D01*
X047281Y065283D01*
X047276Y065281D01*
X047271Y065278D01*
X04727Y065278D01*
X047269Y065277D01*
X047267Y065275D01*
X047264Y065273D01*
X04726Y06527D01*
X047257Y065266D01*
X047253Y065262D01*
X04725Y065257D01*
X047249Y065257D01*
X047248Y065255D01*
X047247Y065252D01*
X047245Y065248D01*
X047243Y065243D01*
X047241Y065237D01*
X047238Y06523D01*
X047236Y065222D01*
Y065222D01*
X047236Y065221D01*
X047235Y06522D01*
X047235Y065218D01*
X047235Y065216D01*
X047234Y065214D01*
X047234Y065211D01*
X047233Y065208D01*
X047232Y065201D01*
X047231Y065194D01*
X047231Y065185D01*
X04723Y065177D01*
Y065176D01*
Y065175D01*
Y065173D01*
Y06517D01*
X047231Y06517D01*
X047231Y065171D01*
X047232Y065172D01*
X047235Y065175D01*
X047238Y065179D01*
X047243Y065184D01*
X047248Y065189D01*
X047254Y065194D01*
X047261Y065198D01*
X047261D01*
X047262Y065198D01*
X047263Y065199D01*
X047264Y0652D01*
X047266Y065201D01*
X047268Y065201D01*
X047273Y065203D01*
X04728Y065206D01*
X047287Y065207D01*
X047295Y065209D01*
X047303Y065209D01*
X047305D01*
X047307Y065209D01*
X047309D01*
X047312Y065208D01*
X047316Y065208D01*
X04732Y065207D01*
X047325Y065206D01*
X04733Y065204D01*
X047335Y065202D01*
X04734Y0652D01*
X047345Y065197D01*
X047351Y065194D01*
X047356Y065191D01*
X047361Y065187D01*
X047366Y065182D01*
X047367Y065182D01*
X047367Y065181D01*
X047369Y065179D01*
X04737Y065177D01*
X047372Y065174D01*
X047374Y065171D01*
X047377Y065167D01*
X047379Y065163D01*
X047382Y065158D01*
X047384Y065152D01*
X047386Y065147D01*
X047388Y06514D01*
X04739Y065133D01*
X047391Y065126D01*
X047392Y065118D01*
X047392Y06511D01*
Y06511D01*
Y065108D01*
X047392Y065106D01*
Y065103D01*
X047391Y065099D01*
X047391Y065094D01*
X04739Y065089D01*
X047389Y065084D01*
X047387Y065078D01*
X047386Y065072D01*
X047383Y065066D01*
X047381Y06506D01*
X047378Y065053D01*
X047374Y065047D01*
X04737Y065042D01*
X047365Y065036D01*
X047365Y065036D01*
X047364Y065035D01*
X047362Y065033D01*
X04736Y065032D01*
X047358Y065029D01*
X047354Y065027D01*
X047351Y065025D01*
X047347Y065022D01*
X047342Y065019D01*
X047337Y065017D01*
X047331Y065014D01*
X047325Y065012D01*
X047319Y06501D01*
X047312Y065009D01*
X047305Y065008D01*
X047297Y065008D01*
X047294D01*
X047292Y065008D01*
X04729D01*
X047287Y065009D01*
X047283Y065009D01*
X04728Y06501D01*
X047271Y065012D01*
X047262Y065015D01*
X047258Y065016D01*
X047253Y065019D01*
X047248Y065021D01*
X047244Y065024D01*
X047243Y065024D01*
X047243Y065025D01*
X047241Y065026D01*
X04724Y065027D01*
X047237Y065029D01*
X047235Y06503D01*
X047232Y065033D01*
X04723Y065035D01*
X047227Y065038D01*
X047224Y065042D01*
X047221Y065046D01*
X047217Y06505D01*
X047214Y065054D01*
X047211Y065059D01*
X047209Y065064D01*
X047206Y065069D01*
Y06507D01*
X047205Y065071D01*
X047205Y065072D01*
X047204Y065075D01*
X047203Y065078D01*
X047202Y065081D01*
X047201Y065086D01*
X0472Y065091D01*
X047199Y065096D01*
X047197Y065103D01*
X047196Y06511D01*
X047195Y065117D01*
X047195Y065126D01*
X047194Y065134D01*
X047193Y065144D01*
Y065154D01*
Y065155D01*
Y065157D01*
Y06516D01*
X047194Y065164D01*
Y065169D01*
X047194Y065174D01*
X047194Y065181D01*
X047195Y065188D01*
X047196Y065195D01*
X047196Y065202D01*
X047199Y065218D01*
X047202Y065233D01*
X047204Y06524D01*
X047206Y065247D01*
Y065247D01*
X047207Y065248D01*
X047207Y06525D01*
X047208Y065252D01*
X04721Y065255D01*
X047211Y065258D01*
X047213Y065262D01*
X047215Y065266D01*
X047221Y065274D01*
X047227Y065283D01*
X047235Y065291D01*
X047239Y065295D01*
X047244Y065299D01*
X047244Y065299D01*
X047245Y065299D01*
X047246Y0653D01*
X047248Y065301D01*
X04725Y065303D01*
X047253Y065304D01*
X047256Y065306D01*
X04726Y065308D01*
X047264Y065309D01*
X047269Y065311D01*
X047273Y065312D01*
X047279Y065314D01*
X04729Y065316D01*
X047296Y065316D01*
X047302Y065317D01*
X047305D01*
X047308Y065316D01*
D02*
G37*
G36*
X049312D02*
X049316D01*
X04932Y065316D01*
X049324Y065316D01*
X04933Y065315D01*
X04934Y065314D01*
X049352Y065312D01*
X049363Y065309D01*
X049375Y065305D01*
X049375D01*
X049376Y065304D01*
X049377Y065303D01*
X049379Y065302D01*
X049381Y065301D01*
X049384Y0653D01*
X04939Y065296D01*
X049397Y065291D01*
X049404Y065285D01*
X049412Y065277D01*
X049418Y065269D01*
X049418Y065269D01*
X049419Y065268D01*
X049419Y065267D01*
X04942Y065265D01*
X049421Y065262D01*
X049423Y06526D01*
X049424Y065256D01*
X049426Y065253D01*
X049427Y065249D01*
X049429Y065245D01*
X049431Y065235D01*
X049433Y065225D01*
X049434Y06522D01*
X049434Y065214D01*
X049397Y065211D01*
Y065211D01*
Y065212D01*
X049396Y065213D01*
X049396Y065215D01*
X049396Y065217D01*
X049395Y065219D01*
X049394Y065224D01*
X049392Y06523D01*
X04939Y065236D01*
X049388Y065243D01*
X049384Y065249D01*
X049384Y065249D01*
X049382Y065251D01*
X04938Y065254D01*
X049377Y065257D01*
X049373Y065261D01*
X049367Y065264D01*
X049361Y065268D01*
X049354Y065272D01*
X049354D01*
X049353Y065272D01*
X049352Y065273D01*
X04935Y065273D01*
X049348Y065274D01*
X049346Y065275D01*
X049343Y065276D01*
X04934Y065276D01*
X049334Y065278D01*
X049325Y065279D01*
X049317Y06528D01*
X049307Y065281D01*
X049303D01*
X049301Y06528D01*
X049299D01*
X049294Y06528D01*
X049288Y065279D01*
X049281Y065278D01*
X049274Y065276D01*
X049267Y065274D01*
X049267D01*
X049267Y065274D01*
X049266Y065274D01*
X049264Y065273D01*
X049261Y065271D01*
X049257Y065269D01*
X049253Y065267D01*
X049249Y065263D01*
X049245Y06526D01*
X049241Y065255D01*
X049241Y065255D01*
X04924Y065254D01*
X049238Y065251D01*
X049236Y065248D01*
X049235Y065244D01*
X049234Y065239D01*
X049233Y065234D01*
X049232Y06523D01*
Y065229D01*
Y065229D01*
Y065227D01*
X049233Y065224D01*
X049233Y065221D01*
X049234Y065217D01*
X049236Y065213D01*
X049238Y065209D01*
X049241Y065205D01*
X049241Y065204D01*
X049242Y065203D01*
X049244Y065201D01*
X049247Y065198D01*
X049251Y065196D01*
X049256Y065193D01*
X049261Y06519D01*
X049268Y065187D01*
X049269Y065187D01*
X049269Y065186D01*
X049271Y065186D01*
X049272Y065186D01*
X049274Y065185D01*
X049276Y065184D01*
X049279Y065183D01*
X049283Y065182D01*
X049286Y065181D01*
X049291Y06518D01*
X049296Y065179D01*
X049301Y065177D01*
X049307Y065176D01*
X049314Y065174D01*
X049322Y065172D01*
X049322D01*
X049323Y065172D01*
X049326Y065171D01*
X049328Y065171D01*
X049332Y06517D01*
X049336Y065169D01*
X04934Y065167D01*
X049344Y065166D01*
X049354Y065163D01*
X049364Y06516D01*
X049368Y065158D01*
X049373Y065156D01*
X049377Y065155D01*
X04938Y065153D01*
X04938D01*
X049381Y065152D01*
X049382Y065152D01*
X049383Y065151D01*
X049387Y065149D01*
X049392Y065146D01*
X049398Y065141D01*
X049403Y065137D01*
X049408Y065131D01*
X049412Y065125D01*
Y065125D01*
X049413Y065125D01*
X049413Y065124D01*
X049414Y065122D01*
X049416Y065119D01*
X049418Y065114D01*
X049419Y065109D01*
X049421Y065102D01*
X049422Y065095D01*
X049423Y065087D01*
Y065087D01*
Y065086D01*
Y065085D01*
X049422Y065083D01*
Y065081D01*
X049422Y065079D01*
X049421Y065073D01*
X049419Y065067D01*
X049418Y06506D01*
X049414Y065052D01*
X04941Y065045D01*
Y065044D01*
X049409Y065044D01*
X049409Y065043D01*
X049408Y065041D01*
X049404Y065038D01*
X0494Y065033D01*
X049395Y065028D01*
X049388Y065023D01*
X049381Y065018D01*
X049372Y065014D01*
X049372D01*
X049371Y065014D01*
X049369Y065013D01*
X049368Y065012D01*
X049365Y065012D01*
X049362Y065011D01*
X049359Y06501D01*
X049356Y065009D01*
X049352Y065008D01*
X049347Y065007D01*
X049338Y065005D01*
X049328Y065004D01*
X049317Y065004D01*
X049311D01*
X049308Y065004D01*
X049304Y065004D01*
X049301Y065005D01*
X049296Y065005D01*
X049287Y065006D01*
X049277Y065008D01*
X049267Y065011D01*
X049257Y065015D01*
X049257D01*
X049256Y065015D01*
X049255Y065016D01*
X049253Y065017D01*
X049251Y065018D01*
X049248Y065019D01*
X049243Y065023D01*
X049236Y065027D01*
X04923Y065033D01*
X049223Y065039D01*
X049218Y065047D01*
X049217Y065047D01*
X049217Y065048D01*
X049216Y065049D01*
X049215Y06505D01*
X049214Y065052D01*
X049213Y065054D01*
X049212Y065057D01*
X049211Y06506D01*
X049208Y065067D01*
X049206Y065075D01*
X049204Y065084D01*
X049203Y065094D01*
X049241Y065097D01*
Y065097D01*
X049241Y065096D01*
Y065094D01*
X049242Y065092D01*
X049242Y06509D01*
X049243Y065087D01*
X049245Y065081D01*
X049248Y065074D01*
X049252Y065067D01*
X049256Y06506D01*
X049259Y065057D01*
X049262Y065054D01*
X049263Y065054D01*
X049263Y065053D01*
X049264Y065053D01*
X049266Y065052D01*
X049268Y065051D01*
X04927Y06505D01*
X049273Y065048D01*
X049275Y065047D01*
X049279Y065045D01*
X049283Y065044D01*
X049287Y065043D01*
X049292Y065042D01*
X049297Y065041D01*
X049303Y06504D01*
X049309Y065039D01*
X049318D01*
X049321Y06504D01*
X049324D01*
X049327Y06504D01*
X049331Y06504D01*
X049335Y065041D01*
X049344Y065043D01*
X049352Y065045D01*
X04936Y065048D01*
X049364Y06505D01*
X049368Y065053D01*
X049368D01*
X049368Y065053D01*
X04937Y065055D01*
X049373Y065058D01*
X049376Y065062D01*
X049379Y065067D01*
X049381Y065072D01*
X049383Y065078D01*
X049384Y065081D01*
X049384Y065085D01*
Y065085D01*
Y065086D01*
X049384Y065088D01*
X049383Y06509D01*
X049383Y065094D01*
X049381Y065098D01*
X049379Y065103D01*
X049377Y065107D01*
X049373Y065111D01*
X049372Y065112D01*
X049371Y065112D01*
X04937Y065113D01*
X049368Y065114D01*
X049366Y065115D01*
X049364Y065117D01*
X049361Y065118D01*
X049357Y06512D01*
X049353Y065122D01*
X049348Y065123D01*
X049342Y065125D01*
X049336Y065127D01*
X049329Y065129D01*
X049321Y065132D01*
X049312Y065133D01*
X049312D01*
X04931Y065134D01*
X049308Y065134D01*
X049304Y065135D01*
X0493Y065136D01*
X049296Y065137D01*
X049291Y065138D01*
X049286Y06514D01*
X049275Y065143D01*
X049263Y065146D01*
X049258Y065148D01*
X049254Y065149D01*
X049249Y065151D01*
X049245Y065152D01*
X049245D01*
X049244Y065153D01*
X049243Y065154D01*
X049241Y065155D01*
X049239Y065156D01*
X049236Y065157D01*
X049231Y065161D01*
X049224Y065165D01*
X049218Y065171D01*
X049212Y065177D01*
X049209Y06518D01*
X049206Y065183D01*
Y065184D01*
X049206Y065184D01*
X049205Y065185D01*
X049204Y065187D01*
X049203Y065188D01*
X049202Y065191D01*
X0492Y065196D01*
X049197Y065202D01*
X049195Y065209D01*
X049194Y065217D01*
X049194Y065226D01*
Y065227D01*
Y065227D01*
Y065229D01*
X049194Y06523D01*
Y065233D01*
X049194Y065235D01*
X049195Y065241D01*
X049197Y065248D01*
X049199Y065255D01*
X049203Y065263D01*
X049205Y065268D01*
X049208Y065272D01*
Y065272D01*
X049208Y065273D01*
X049209Y065274D01*
X04921Y065275D01*
X049213Y065279D01*
X049218Y065284D01*
X049223Y065289D01*
X04923Y065295D01*
X049238Y0653D01*
X049247Y065305D01*
X049248D01*
X049249Y065305D01*
X04925Y065306D01*
X049252Y065307D01*
X049254Y065307D01*
X049257Y065308D01*
X04926Y06531D01*
X049264Y065311D01*
X049268Y065312D01*
X049273Y065313D01*
X049283Y065315D01*
X049294Y065316D01*
X049305Y065317D01*
X049309D01*
X049312Y065316D01*
D02*
G37*
G36*
X04914Y065009D02*
X04908D01*
X049009Y065223D01*
Y065224D01*
X049008Y065225D01*
X049008Y065226D01*
X049007Y065228D01*
X049006Y065231D01*
X049005Y065234D01*
X049003Y06524D01*
X049001Y065247D01*
X048998Y065255D01*
X048996Y065262D01*
X048995Y065265D01*
X048994Y065268D01*
Y065268D01*
X048994Y065267D01*
X048993Y065266D01*
X048993Y065265D01*
X048992Y065263D01*
X048992Y065261D01*
X048991Y065258D01*
X04899Y065256D01*
X048989Y065253D01*
X048988Y065249D01*
X048987Y065245D01*
X048985Y06524D01*
X048984Y065236D01*
X048982Y065231D01*
X04898Y065225D01*
X048978Y065219D01*
X048905Y065009D01*
X048851D01*
Y065312D01*
X04889D01*
Y065058D01*
X048978Y065312D01*
X049014D01*
X049102Y065054D01*
Y065312D01*
X04914D01*
Y065009D01*
D02*
G37*
G36*
X047731D02*
X047671D01*
X047599Y065223D01*
Y065224D01*
X047599Y065225D01*
X047598Y065226D01*
X047597Y065228D01*
X047597Y065231D01*
X047596Y065234D01*
X047594Y06524D01*
X047591Y065247D01*
X047589Y065255D01*
X047587Y065262D01*
X047586Y065265D01*
X047585Y065268D01*
Y065268D01*
X047584Y065267D01*
X047584Y065266D01*
X047584Y065265D01*
X047583Y065263D01*
X047582Y065261D01*
X047582Y065258D01*
X047581Y065256D01*
X04758Y065253D01*
X047578Y065249D01*
X047577Y065245D01*
X047576Y06524D01*
X047574Y065236D01*
X047573Y065231D01*
X047571Y065225D01*
X047569Y065219D01*
X047496Y065009D01*
X047442D01*
Y065312D01*
X04748D01*
Y065058D01*
X047569Y065312D01*
X047605D01*
X047692Y065054D01*
Y065312D01*
X047731D01*
Y065009D01*
D02*
G37*
G36*
X047144D02*
X047083D01*
X047012Y065223D01*
Y065224D01*
X047011Y065225D01*
X047011Y065226D01*
X04701Y065228D01*
X047009Y065231D01*
X047008Y065234D01*
X047006Y06524D01*
X047004Y065247D01*
X047001Y065255D01*
X046999Y065262D01*
X046998Y065265D01*
X046997Y065268D01*
Y065268D01*
X046997Y065267D01*
X046997Y065266D01*
X046996Y065265D01*
X046996Y065263D01*
X046995Y065261D01*
X046994Y065258D01*
X046993Y065256D01*
X046992Y065253D01*
X046991Y065249D01*
X04699Y065245D01*
X046988Y06524D01*
X046987Y065236D01*
X046985Y065231D01*
X046983Y065225D01*
X046981Y065219D01*
X046908Y065009D01*
X046854D01*
Y065312D01*
X046893D01*
Y065058D01*
X046981Y065312D01*
X047018D01*
X047105Y065054D01*
Y065312D01*
X047144D01*
Y065009D01*
D02*
G37*
G36*
X048242Y065316D02*
X048246Y065316D01*
X04825Y065316D01*
X048256Y065315D01*
X048262Y065314D01*
X048268Y065313D01*
X048274Y065312D01*
X048281Y06531D01*
X048288Y065308D01*
X048294Y065306D01*
X048301Y065303D01*
X048307Y0653D01*
X048313Y065297D01*
X048313Y065296D01*
X048314Y065296D01*
X048316Y065295D01*
X048318Y065293D01*
X048321Y065291D01*
X048324Y065289D01*
X048327Y065286D01*
X048331Y065282D01*
X048334Y065278D01*
X048338Y065274D01*
X048342Y065269D01*
X048346Y065264D01*
X04835Y065258D01*
X048353Y065253D01*
X048356Y065246D01*
X04836Y065239D01*
X04836Y065239D01*
X04836Y065237D01*
X048361Y065235D01*
X048362Y065233D01*
X048363Y065229D01*
X048365Y065225D01*
X048366Y06522D01*
X048368Y065215D01*
X048369Y065209D01*
X048371Y065203D01*
X048372Y065196D01*
X048373Y065189D01*
X048375Y065174D01*
X048375Y065166D01*
X048375Y065158D01*
Y065157D01*
Y065156D01*
Y065153D01*
X048375Y06515D01*
X048375Y065146D01*
X048374Y065141D01*
X048374Y065136D01*
X048373Y06513D01*
X048372Y065124D01*
X048371Y065117D01*
X048368Y065103D01*
X048366Y065096D01*
X048363Y065089D01*
X048361Y065082D01*
X048357Y065075D01*
X048357Y065075D01*
X048356Y065074D01*
X048355Y065072D01*
X048354Y06507D01*
X048352Y065067D01*
X04835Y065063D01*
X048347Y06506D01*
X048344Y065055D01*
X048341Y065051D01*
X048337Y065047D01*
X048333Y065043D01*
X048328Y065038D01*
X048323Y065034D01*
X048318Y065029D01*
X048312Y065026D01*
X048306Y065022D01*
X048306Y065022D01*
X048305Y065021D01*
X048303Y06502D01*
X0483Y065019D01*
X048297Y065018D01*
X048293Y065016D01*
X048289Y065014D01*
X048285Y065013D01*
X048279Y065011D01*
X048273Y065009D01*
X048268Y065008D01*
X048261Y065007D01*
X048248Y065004D01*
X04824Y065004D01*
X048233Y065004D01*
X048229D01*
X048225Y065004D01*
X048221Y065004D01*
X048217Y065005D01*
X048212Y065006D01*
X048206Y065007D01*
X0482Y065008D01*
X048194Y065009D01*
X048188Y065011D01*
X048181Y065013D01*
X048175Y065016D01*
X048169Y065019D01*
X048162Y065023D01*
X048156Y065027D01*
X048156Y065027D01*
X048155Y065028D01*
X048153Y065029D01*
X048151Y065031D01*
X048149Y065033D01*
X048146Y065036D01*
X048143Y06504D01*
X048139Y065044D01*
X048136Y065048D01*
X048132Y065053D01*
X048128Y065058D01*
X048125Y065064D01*
X048122Y06507D01*
X048119Y065077D01*
X048116Y065084D01*
X048113Y065092D01*
X048152Y065101D01*
Y065101D01*
X048153Y0651D01*
X048153Y065098D01*
X048154Y065095D01*
X048155Y065093D01*
X048157Y06509D01*
X04816Y065083D01*
X048165Y065075D01*
X04817Y065067D01*
X048176Y065059D01*
X04818Y065056D01*
X048183Y065053D01*
X048184Y065052D01*
X048184Y065052D01*
X048185Y065051D01*
X048187Y06505D01*
X048189Y065049D01*
X048191Y065048D01*
X048194Y065047D01*
X048197Y065045D01*
X048201Y065044D01*
X048204Y065043D01*
X048213Y06504D01*
X048223Y065038D01*
X048228Y065038D01*
X048237D01*
X048239Y065038D01*
X048242Y065038D01*
X048246Y065039D01*
X04825Y065039D01*
X048254Y06504D01*
X048263Y065042D01*
X048273Y065045D01*
X048278Y065047D01*
X048283Y065049D01*
X048288Y065052D01*
X048292Y065055D01*
X048292Y065055D01*
X048293Y065055D01*
X048294Y065056D01*
X048296Y065058D01*
X048298Y065059D01*
X0483Y065062D01*
X048302Y065064D01*
X048305Y065067D01*
X048308Y06507D01*
X048311Y065073D01*
X048316Y065081D01*
X048321Y06509D01*
X048325Y0651D01*
Y0651D01*
X048325Y065101D01*
X048326Y065103D01*
X048326Y065105D01*
X048327Y065107D01*
X048328Y06511D01*
X048329Y065114D01*
X04833Y065117D01*
X048331Y065122D01*
X048331Y065126D01*
X048333Y065136D01*
X048334Y065147D01*
X048334Y065158D01*
Y065158D01*
Y065159D01*
Y065161D01*
X048334Y065164D01*
Y065168D01*
X048333Y065172D01*
X048333Y065176D01*
X048333Y065181D01*
X048332Y065186D01*
X048332Y065191D01*
X04833Y065203D01*
X048327Y065214D01*
X048323Y065225D01*
Y065226D01*
X048322Y065227D01*
X048322Y065228D01*
X048321Y06523D01*
X04832Y065233D01*
X048318Y065235D01*
X048314Y065241D01*
X04831Y065249D01*
X048304Y065255D01*
X048296Y065262D01*
X048292Y065265D01*
X048288Y065268D01*
X048288D01*
X048287Y065269D01*
X048286Y06527D01*
X048284Y065271D01*
X048282Y065272D01*
X048279Y065273D01*
X048276Y065274D01*
X048273Y065275D01*
X048265Y065278D01*
X048256Y06528D01*
X048247Y065282D01*
X048242Y065282D01*
X048237Y065282D01*
X048233D01*
X048231Y065282D01*
X048228Y065282D01*
X048225Y065281D01*
X048221Y065281D01*
X048217Y06528D01*
X048208Y065278D01*
X048203Y065276D01*
X048198Y065274D01*
X048193Y065272D01*
X048189Y065269D01*
X048184Y065266D01*
X04818Y065263D01*
X048179Y065263D01*
X048179Y065262D01*
X048177Y065261D01*
X048176Y065259D01*
X048174Y065257D01*
X048172Y065255D01*
X048169Y065252D01*
X048167Y065249D01*
X048164Y065245D01*
X048162Y06524D01*
X048159Y065236D01*
X048156Y065231D01*
X048154Y065225D01*
X048152Y065219D01*
X048149Y065212D01*
X048148Y065205D01*
X048108Y065215D01*
Y065216D01*
X048108Y065218D01*
X048109Y06522D01*
X04811Y065224D01*
X048112Y065228D01*
X048114Y065233D01*
X048116Y065238D01*
X048118Y065243D01*
X048121Y06525D01*
X048125Y065255D01*
X048128Y065262D01*
X048132Y065268D01*
X048137Y065274D01*
X048142Y06528D01*
X048148Y065286D01*
X048153Y065291D01*
X048154Y065291D01*
X048155Y065292D01*
X048157Y065293D01*
X048159Y065295D01*
X048162Y065297D01*
X048166Y065299D01*
X04817Y065301D01*
X048176Y065304D01*
X048181Y065306D01*
X048187Y065308D01*
X048194Y065311D01*
X048201Y065313D01*
X048209Y065314D01*
X048216Y065316D01*
X048225Y065316D01*
X048233Y065317D01*
X048238D01*
X048242Y065316D01*
D02*
G37*
G36*
X048787Y065009D02*
X048674D01*
X048671Y065009D01*
X048667D01*
X048663Y065009D01*
X048654Y06501D01*
X048645Y065011D01*
X048636Y065012D01*
X048632Y065013D01*
X048629Y065013D01*
X048628D01*
X048627Y065014D01*
X048626Y065014D01*
X048624Y065015D01*
X048622Y065015D01*
X048619Y065016D01*
X048613Y065018D01*
X048606Y065021D01*
X048599Y065025D01*
X048592Y065029D01*
X048584Y065035D01*
X048584Y065035D01*
X048583Y065036D01*
X048582Y065037D01*
X04858Y065039D01*
X048579Y065041D01*
X048576Y065043D01*
X048574Y065046D01*
X048571Y065049D01*
X048568Y065053D01*
X048565Y065057D01*
X048562Y065061D01*
X048559Y065066D01*
X048554Y065076D01*
X048549Y065087D01*
Y065087D01*
X048548Y065088D01*
X048548Y06509D01*
X048547Y065092D01*
X048546Y065095D01*
X048545Y065099D01*
X048544Y065103D01*
X048542Y065108D01*
X048541Y065113D01*
X04854Y065118D01*
X048539Y065124D01*
X048538Y065131D01*
X048538Y065137D01*
X048537Y065144D01*
X048537Y065159D01*
Y065159D01*
Y06516D01*
Y065162D01*
Y065165D01*
X048537Y065168D01*
Y065171D01*
X048537Y065175D01*
X048538Y065179D01*
X048538Y065189D01*
X04854Y065199D01*
X048542Y06521D01*
X048545Y06522D01*
Y06522D01*
X048545Y065221D01*
X048546Y065223D01*
X048546Y065224D01*
X048547Y065227D01*
X048548Y065229D01*
X04855Y065235D01*
X048553Y065242D01*
X048557Y06525D01*
X048561Y065257D01*
X048565Y065264D01*
Y065264D01*
X048566Y065265D01*
X048567Y065266D01*
X048568Y065267D01*
X04857Y06527D01*
X048574Y065274D01*
X048578Y065278D01*
X048582Y065283D01*
X048587Y065287D01*
X048593Y065292D01*
X048593D01*
X048594Y065292D01*
X048596Y065293D01*
X048599Y065295D01*
X048603Y065297D01*
X048608Y065299D01*
X048615Y065302D01*
X048622Y065304D01*
X048629Y065307D01*
X04863D01*
X04863Y065307D01*
X048631D01*
X048633Y065307D01*
X048635Y065308D01*
X048638Y065308D01*
X04864Y065309D01*
X048643Y065309D01*
X04865Y06531D01*
X048659Y065311D01*
X048668Y065311D01*
X048678Y065312D01*
X048787D01*
Y065009D01*
D02*
G37*
G36*
X047933Y065316D02*
X047937Y065316D01*
X047942Y065316D01*
X047946Y065315D01*
X047952Y065314D01*
X047957Y065313D01*
X047964Y065312D01*
X04797Y06531D01*
X047976Y065308D01*
X047983Y065306D01*
X047989Y065303D01*
X047996Y0653D01*
X048003Y065296D01*
X048003Y065296D01*
X048004Y065295D01*
X048006Y065294D01*
X048008Y065292D01*
X048011Y06529D01*
X048014Y065288D01*
X048018Y065285D01*
X048022Y065281D01*
X048026Y065277D01*
X04803Y065273D01*
X048034Y065269D01*
X048038Y065264D01*
X048043Y065258D01*
X048046Y065253D01*
X04805Y065246D01*
X048054Y06524D01*
X048054Y065239D01*
X048054Y065238D01*
X048055Y065236D01*
X048056Y065234D01*
X048058Y06523D01*
X048059Y065226D01*
X048061Y065222D01*
X048062Y065217D01*
X048064Y065212D01*
X048066Y065206D01*
X048067Y065199D01*
X048068Y065193D01*
X04807Y065179D01*
X04807Y065172D01*
X048071Y065164D01*
Y065164D01*
Y065163D01*
Y065162D01*
Y065161D01*
X04807Y065159D01*
Y065157D01*
X04807Y065152D01*
X048069Y065146D01*
X048068Y065138D01*
X048067Y06513D01*
X048066Y065121D01*
X048064Y065112D01*
X048061Y065102D01*
X048058Y065092D01*
X048054Y065083D01*
X048049Y065073D01*
X048044Y065064D01*
X048038Y065054D01*
X04803Y065046D01*
X04803Y065046D01*
X048028Y065044D01*
X048026Y065042D01*
X048023Y06504D01*
X048019Y065036D01*
X048014Y065033D01*
X048009Y065029D01*
X048002Y065025D01*
X047995Y065021D01*
X047987Y065017D01*
X047979Y065013D01*
X047969Y06501D01*
X047959Y065008D01*
X047949Y065006D01*
X047938Y065004D01*
X047926Y065004D01*
X047922D01*
X047919Y065004D01*
X047915Y065004D01*
X047911Y065005D01*
X047906Y065005D01*
X047901Y065006D01*
X047895Y065007D01*
X047889Y065009D01*
X047883Y06501D01*
X047876Y065012D01*
X04787Y065014D01*
X047863Y065017D01*
X047857Y06502D01*
X04785Y065024D01*
X04785Y065024D01*
X047849Y065025D01*
X047847Y065026D01*
X047845Y065027D01*
X047842Y065029D01*
X047839Y065032D01*
X047835Y065035D01*
X047831Y065038D01*
X047827Y065042D01*
X047823Y065046D01*
X047819Y065051D01*
X047814Y065056D01*
X04781Y065061D01*
X047806Y065067D01*
X047802Y065073D01*
X047799Y06508D01*
X047799Y06508D01*
X047798Y065081D01*
X047797Y065083D01*
X047796Y065086D01*
X047795Y065089D01*
X047793Y065093D01*
X047792Y065098D01*
X04779Y065103D01*
X047788Y065109D01*
X047787Y065115D01*
X047785Y065122D01*
X047784Y065129D01*
X047783Y065136D01*
X047782Y065144D01*
X047781Y065152D01*
X047781Y065161D01*
Y065161D01*
Y065163D01*
Y065165D01*
X047781Y065169D01*
X047782Y065173D01*
X047782Y065177D01*
X047783Y065182D01*
X047783Y065188D01*
X047784Y065194D01*
X047786Y065201D01*
X047787Y065208D01*
X047789Y065215D01*
X047791Y065222D01*
X047794Y065229D01*
X047797Y065236D01*
X0478Y065243D01*
X0478Y065243D01*
X047801Y065245D01*
X047802Y065247D01*
X047803Y065249D01*
X047805Y065252D01*
X047807Y065255D01*
X04781Y065259D01*
X047813Y065264D01*
X047817Y065268D01*
X047821Y065273D01*
X047825Y065277D01*
X04783Y065282D01*
X047835Y065286D01*
X04784Y06529D01*
X047846Y065295D01*
X047853Y065298D01*
X047853Y065298D01*
X047854Y065299D01*
X047856Y0653D01*
X047859Y065301D01*
X047862Y065302D01*
X047865Y065304D01*
X04787Y065306D01*
X047875Y065307D01*
X04788Y065309D01*
X047885Y065311D01*
X047892Y065312D01*
X047898Y065314D01*
X047912Y065316D01*
X047919Y065316D01*
X047926Y065317D01*
X04793D01*
X047933Y065316D01*
D02*
G37*
%LPC*%
G36*
X047294Y065176D02*
X047291D01*
X047289Y065176D01*
X047287Y065175D01*
X047285Y065175D01*
X047279Y065174D01*
X047272Y065172D01*
X047265Y065169D01*
X047262Y065167D01*
X047258Y065164D01*
X047255Y065161D01*
X047251Y065158D01*
X047251Y065158D01*
X047251Y065157D01*
X04725Y065156D01*
X047249Y065155D01*
X047247Y065153D01*
X047246Y065151D01*
X047245Y065148D01*
X047243Y065145D01*
X047242Y065142D01*
X04724Y065138D01*
X047239Y065134D01*
X047237Y06513D01*
X047236Y065125D01*
X047235Y06512D01*
X047235Y065114D01*
X047235Y065108D01*
Y065108D01*
Y065107D01*
Y065105D01*
X047235Y065103D01*
X047235Y0651D01*
X047236Y065097D01*
X047236Y065094D01*
X047237Y06509D01*
X047239Y065082D01*
X047242Y065073D01*
X047244Y065069D01*
X047246Y065065D01*
X047249Y065061D01*
X047252Y065058D01*
X047252Y065057D01*
X047252Y065057D01*
X047253Y065056D01*
X047255Y065055D01*
X047256Y065053D01*
X047258Y065052D01*
X047263Y065048D01*
X047269Y065045D01*
X047276Y065042D01*
X04728Y06504D01*
X047284Y065039D01*
X047288Y065039D01*
X047293Y065039D01*
X047295D01*
X047297Y065039D01*
X047299Y065039D01*
X047302Y06504D01*
X047308Y065041D01*
X047314Y065044D01*
X047318Y065045D01*
X047322Y065047D01*
X047325Y06505D01*
X047329Y065052D01*
X047332Y065055D01*
X047336Y065059D01*
X047336Y065059D01*
X047337Y06506D01*
X047338Y065061D01*
X047339Y065063D01*
X04734Y065065D01*
X047342Y065067D01*
X047343Y06507D01*
X047345Y065073D01*
X047347Y065077D01*
X047348Y065081D01*
X04735Y065085D01*
X047351Y06509D01*
X047353Y0651D01*
X047354Y065106D01*
X047354Y065111D01*
Y065112D01*
Y065113D01*
Y065114D01*
X047354Y065116D01*
X047353Y065119D01*
X047353Y065122D01*
X047352Y065128D01*
X04735Y065136D01*
X047347Y065143D01*
X047345Y065147D01*
X047343Y065151D01*
X04734Y065155D01*
X047337Y065158D01*
X047337Y065159D01*
X047336Y065159D01*
X047335Y06516D01*
X047334Y065161D01*
X047332Y065162D01*
X04733Y065164D01*
X047328Y065166D01*
X047325Y065167D01*
X047319Y065171D01*
X047311Y065173D01*
X047303Y065175D01*
X047298Y065176D01*
X047294Y065176D01*
D02*
G37*
G36*
X048747Y065276D02*
X048677D01*
X048675Y065276D01*
X048672D01*
X048665Y065275D01*
X048658Y065275D01*
X04865Y065274D01*
X048642Y065272D01*
X048635Y065271D01*
X048635D01*
X048635Y06527D01*
X048634Y06527D01*
X048632Y06527D01*
X048629Y065268D01*
X048625Y065267D01*
X048621Y065264D01*
X048617Y065262D01*
X048612Y065258D01*
X048608Y065255D01*
X048608Y065255D01*
X048607Y065254D01*
X048606Y065252D01*
X048603Y065249D01*
X0486Y065245D01*
X048597Y065239D01*
X048593Y065233D01*
X048589Y065225D01*
X048586Y065216D01*
Y065216D01*
X048586Y065215D01*
X048585Y065214D01*
X048585Y065212D01*
X048584Y06521D01*
X048583Y065207D01*
X048583Y065204D01*
X048582Y0652D01*
X048581Y065196D01*
X04858Y065192D01*
X04858Y065187D01*
X048579Y065182D01*
X048578Y065171D01*
X048578Y065158D01*
Y065157D01*
Y065156D01*
Y065153D01*
X048578Y06515D01*
Y065146D01*
X048579Y065142D01*
X048579Y065137D01*
X04858Y065131D01*
X048582Y065119D01*
X048584Y065107D01*
X048588Y065096D01*
X048591Y06509D01*
X048594Y065085D01*
X048594Y065085D01*
X048594Y065084D01*
X048595Y065083D01*
X048597Y065081D01*
X048598Y065079D01*
X0486Y065077D01*
X048604Y065071D01*
X04861Y065066D01*
X048616Y06506D01*
X048623Y065055D01*
X048627Y065053D01*
X048632Y065051D01*
X048632D01*
X048632Y06505D01*
X048633Y06505D01*
X048635Y06505D01*
X048637Y06505D01*
X048639Y065049D01*
X048641Y065048D01*
X048644Y065048D01*
X048647Y065047D01*
X048651Y065047D01*
X048656Y065046D01*
X04866Y065046D01*
X048665Y065045D01*
X048671Y065045D01*
X048677Y065045D01*
X048747D01*
Y065276D01*
D02*
G37*
G36*
X047926Y065282D02*
X047924D01*
X047922Y065282D01*
X047919Y065282D01*
X047915Y065281D01*
X047911Y065281D01*
X047905Y06528D01*
X0479Y065278D01*
X047894Y065277D01*
X047888Y065275D01*
X047882Y065272D01*
X047876Y065269D01*
X04787Y065265D01*
X047863Y065261D01*
X047858Y065256D01*
X047852Y065251D01*
X047852Y065251D01*
X047851Y065249D01*
X047849Y065248D01*
X047847Y065245D01*
X047845Y065242D01*
X047842Y065238D01*
X04784Y065233D01*
X047837Y065228D01*
X047835Y065222D01*
X047832Y065215D01*
X047829Y065208D01*
X047827Y065199D01*
X047825Y065191D01*
X047824Y065181D01*
X047823Y065171D01*
X047822Y065161D01*
Y06516D01*
Y065159D01*
Y065157D01*
X047823Y065154D01*
Y065151D01*
X047823Y065148D01*
X047823Y065143D01*
X047824Y065139D01*
X047825Y065129D01*
X047828Y065118D01*
X047831Y065107D01*
X047835Y065096D01*
Y065096D01*
X047836Y065095D01*
X047837Y065093D01*
X047838Y065091D01*
X047839Y065089D01*
X04784Y065087D01*
X047844Y06508D01*
X04785Y065073D01*
X047856Y065067D01*
X047863Y06506D01*
X047872Y065053D01*
X047872Y065053D01*
X047873Y065053D01*
X047874Y065052D01*
X047876Y065051D01*
X047878Y06505D01*
X047881Y065049D01*
X047884Y065047D01*
X047887Y065046D01*
X047891Y065044D01*
X047895Y065043D01*
X047904Y06504D01*
X047915Y065039D01*
X04792Y065038D01*
X047928D01*
X04793Y065038D01*
X047933D01*
X047937Y065039D01*
X047941Y06504D01*
X047945Y065041D01*
X047951Y065042D01*
X047956Y065043D01*
X047962Y065045D01*
X047968Y065048D01*
X047974Y06505D01*
X047981Y065054D01*
X047987Y065058D01*
X047993Y065062D01*
X047999Y065068D01*
X047999Y065068D01*
X048Y065069D01*
X048002Y065071D01*
X048004Y065073D01*
X048006Y065076D01*
X048008Y06508D01*
X048011Y065085D01*
X048014Y06509D01*
X048017Y065097D01*
X04802Y065104D01*
X048022Y065112D01*
X048025Y065121D01*
X048026Y065131D01*
X048028Y065141D01*
X048029Y065152D01*
X048029Y065165D01*
Y065166D01*
Y065167D01*
X048029Y06517D01*
Y065174D01*
X048028Y065179D01*
X048028Y065184D01*
X048027Y06519D01*
X048026Y065196D01*
X048024Y065203D01*
X048022Y06521D01*
X04802Y065217D01*
X048017Y065224D01*
X048014Y065232D01*
X04801Y065238D01*
X048005Y065245D01*
X048Y065251D01*
X048Y065252D01*
X047999Y065253D01*
X047997Y065254D01*
X047995Y065256D01*
X047992Y065258D01*
X047988Y065261D01*
X047984Y065264D01*
X04798Y065267D01*
X047975Y06527D01*
X047969Y065273D01*
X047963Y065275D01*
X047957Y065277D01*
X04795Y065279D01*
X047942Y065281D01*
X047935Y065282D01*
X047926Y065282D01*
D02*
G37*
%LPD*%
D10*
X06324Y086939D02*
G03*
X063681Y08738I0J000441D01*
G01*
Y09638D02*
G03*
X06324Y096821I-000441J0D01*
G01*
X054299D02*
G03*
X053799Y096321I0J-0005D01*
G01*
Y087439D02*
G03*
X054299Y086939I0005J0D01*
G01*
X051474Y06553D02*
G03*
X051044Y065951I-000425J-000005D01*
G01*
X051025Y0617D02*
G03*
X051237Y061909I000002J000211D01*
G01*
X044151D02*
G03*
X044363Y0617I000211J000002D01*
G01*
X051428Y06397D02*
G03*
X051238Y063764I000008J-000198D01*
G01*
X044335Y06595D02*
G03*
X043914Y065521I000005J-000425D01*
G01*
X044151Y06378D02*
G03*
X043944Y06397I-000198J-000008D01*
G01*
X051474Y064561D02*
G03*
X051683Y06434I000215J-000005D01*
G01*
X043694Y06434D02*
G03*
X043915Y06455I000005J000215D01*
G01*
X05449Y086939D02*
X06324D01*
X063681Y08738D02*
Y09628D01*
Y08738D02*
Y08748D01*
X06299Y086939D02*
X06324D01*
X054299Y096821D02*
X06319D01*
X063681Y09608D02*
Y09638D01*
X06274Y096821D02*
X06324D01*
X053799Y08753D02*
Y096321D01*
Y09613D02*
Y096321D01*
X054299Y096821D02*
X05454D01*
X053799Y087439D02*
Y08753D01*
X054299Y086939D02*
X05449D01*
X053754Y06397D02*
Y06434D01*
X053243Y06397D02*
Y06434D01*
X051983Y06401D02*
Y06432D01*
X043405Y064D02*
Y06431D01*
X042145Y06398D02*
Y06429D01*
X041624Y06397D02*
Y06434D01*
X050794Y065951D02*
Y066313D01*
X044594Y06596D02*
Y06631D01*
X051237Y061909D02*
Y063764D01*
X044151Y061909D02*
Y06378D01*
X050944Y06434D02*
X053754D01*
X044335Y065951D02*
X051044D01*
X041624Y06434D02*
X050944D01*
X041624Y06397D02*
X053754D01*
X044594Y066313D02*
X050794D01*
D11*
X054311Y079923D02*
G03*
X054311Y079923I-000039J0D01*
G01*
X04872Y092358D02*
G03*
X04872Y092358I-000039J0D01*
G01*
D13*
X05937Y077687D02*
G03*
X05937Y077687I-000197J0D01*
G01*
X050098Y081519D02*
G03*
X050098Y081519I-000197J0D01*
G01*
X05256Y079802D02*
G03*
X05256Y079802I-000197J0D01*
G01*
X059452Y089484D02*
Y08972D01*
X059019Y089484D02*
Y08972D01*
X059452D01*
X059019Y089484D02*
X059452D01*
X060364Y070413D02*
X060738D01*
X060364Y071102D02*
X060738D01*
Y070413D02*
Y071102D01*
X060364Y070413D02*
Y071102D01*
X060483Y089484D02*
Y08972D01*
X060916Y089484D02*
Y08972D01*
X060483Y089484D02*
X060916D01*
X060483Y08972D02*
X060916D01*
X060887Y073171D02*
X063287D01*
X060887Y069971D02*
Y073171D01*
Y069971D02*
X063287D01*
Y073171D01*
X054647Y099715D02*
X055021D01*
X054647Y099026D02*
X055021D01*
Y099715D01*
X054647Y099026D02*
Y099715D01*
X046417Y088166D02*
Y089386D01*
X045237Y088166D02*
X046417D01*
X045237D02*
Y089386D01*
X046417D01*
X058922Y073688D02*
X060261D01*
X058922Y074668D02*
X060261D01*
Y073688D02*
Y074668D01*
X058922Y073688D02*
Y074668D01*
X063014Y080061D02*
Y08258D01*
X060494Y080061D02*
Y08258D01*
X063014D01*
X060494Y080061D02*
X063014D01*
X058819Y077333D02*
X060787D01*
X058819Y078907D02*
X060787D01*
X058819Y077333D02*
Y078907D01*
X060787Y077333D02*
Y078907D01*
X049251Y079816D02*
Y081962D01*
X05244Y079816D02*
Y081962D01*
X049251D02*
X05244D01*
X049251Y079816D02*
X05244D01*
X052009Y080156D02*
X053229D01*
X052009Y078936D02*
X053229D01*
X052009D02*
Y080156D01*
X053229Y078936D02*
Y080156D01*
X051421Y077407D02*
Y078007D01*
Y077407D02*
X052211D01*
Y078007D01*
X051421D02*
X052211D01*
X051139Y092653D02*
Y093342D01*
X051513Y092653D02*
Y093342D01*
X051139D02*
X051513D01*
X051139Y092653D02*
X051513D01*
X06045Y09178D02*
X060686Y09178D01*
X06045Y092213D02*
X060686D01*
Y09178D02*
Y092213D01*
X06045Y09178D02*
Y092213D01*
X058993Y09038D02*
Y090813D01*
X058756Y09038D02*
Y090813D01*
Y09038D02*
X058993D01*
X058756Y090813D02*
X058993D01*
X057988Y090679D02*
X058422D01*
X057988Y090915D02*
X058422D01*
X057988Y090679D02*
Y090915D01*
X058422Y090679D02*
Y090915D01*
X055723Y070225D02*
X056363D01*
X055723Y068765D02*
Y070225D01*
Y068765D02*
X056363D01*
Y070225D01*
X048898Y079014D02*
X050079D01*
X048898Y078463D02*
X050079D01*
X048898D02*
Y079014D01*
X050079Y078463D02*
Y079014D01*
X048678Y071804D02*
Y072493D01*
X048304Y071804D02*
Y072493D01*
X048678D01*
X048304Y071804D02*
X048678D01*
X049917Y079418D02*
X050291D01*
X049917Y078729D02*
X050291D01*
Y079418D01*
X049917Y078729D02*
Y079418D01*
X05138Y078724D02*
Y079413D01*
X051754Y078724D02*
Y079413D01*
X05138Y078724D02*
X051754D01*
X05138Y079413D02*
X051754D01*
X049349Y079418D02*
X049723D01*
X049349Y078729D02*
X049723D01*
Y079418D01*
X049349Y078729D02*
Y079418D01*
X050485D02*
X050859D01*
X050485Y078729D02*
X050859D01*
Y079418D01*
X050485Y078729D02*
Y079418D01*
X049034Y093746D02*
Y094435D01*
X049408Y093746D02*
Y094435D01*
X049034D02*
X049408D01*
X049034Y093746D02*
X049408D01*
X049034Y092707D02*
X049408D01*
X049034Y093396D02*
X049408D01*
Y092707D02*
Y093396D01*
X049034Y092707D02*
Y093396D01*
X048147Y092336D02*
Y093025D01*
X047773Y092336D02*
Y093025D01*
Y092336D02*
X048147D01*
X047773Y093025D02*
X048147D01*
X05023Y068385D02*
Y069074D01*
X049856Y068385D02*
Y069074D01*
Y068385D02*
X05023D01*
X049856Y069074D02*
X05023D01*
X050641Y069691D02*
X051193D01*
X050641Y06851D02*
X051193D01*
X050641D02*
Y069691D01*
X051193Y06851D02*
Y069691D01*
X054921Y080078D02*
X05561D01*
X054921Y080452D02*
X05561D01*
X054921Y080078D02*
Y080452D01*
X05561Y080078D02*
Y080452D01*
X054803Y077751D02*
Y07844D01*
X055177Y077751D02*
Y07844D01*
X054803D02*
X055177D01*
X054803Y077751D02*
X055177D01*
X053722D02*
Y07844D01*
X054096Y077751D02*
Y07844D01*
X053722D02*
X054096D01*
X053722Y077751D02*
X054096D01*
X049144Y08041D02*
X049833D01*
X049144Y080784D02*
X049833D01*
X049144Y08041D02*
Y080784D01*
X049833Y08041D02*
Y080784D01*
X051676Y081188D02*
X052365D01*
X051676Y080814D02*
X052365D01*
Y081188D01*
X051676Y080814D02*
Y081188D01*
X05168Y080659D02*
X052369D01*
X05168Y080285D02*
X052369D01*
Y080659D01*
X05168Y080285D02*
Y080659D01*
X054242Y081222D02*
X054931D01*
X054242Y080848D02*
X054931D01*
Y081222D01*
X054242Y080848D02*
Y081222D01*
X053176Y080848D02*
X053865D01*
X053176Y081222D02*
X053865D01*
X053176Y080848D02*
Y081222D01*
X053865Y080848D02*
Y081222D01*
X050699Y078065D02*
X051388D01*
X050699Y077691D02*
X051388D01*
Y078065D01*
X050699Y077691D02*
Y078065D01*
Y077514D02*
X051388D01*
X050699Y07714D02*
X051388D01*
Y077514D01*
X050699Y07714D02*
Y077514D01*
X049144Y081012D02*
X049833D01*
X049144Y081387D02*
X049833D01*
X049144Y081012D02*
Y081387D01*
X049833Y081012D02*
Y081387D01*
X0504Y078719D02*
Y079271D01*
X051581Y078719D02*
Y079271D01*
X0504D02*
X051581D01*
X0504Y078719D02*
X051581D01*
X054456Y073071D02*
Y07376D01*
X054081Y073071D02*
Y07376D01*
Y073071D02*
X054456D01*
X054081Y07376D02*
X054456D01*
X053815Y073071D02*
Y07376D01*
X053441Y073071D02*
Y07376D01*
Y073071D02*
X053815D01*
X053441Y07376D02*
X053815D01*
X051878Y074048D02*
Y074422D01*
X052567Y074048D02*
Y074422D01*
X051878Y074048D02*
X052567D01*
X051878Y074422D02*
X052567D01*
X05165Y071948D02*
X052339D01*
X05165Y072322D02*
X052339D01*
X05165Y071948D02*
Y072322D01*
X052339Y071948D02*
Y072322D01*
X054485Y071796D02*
Y072347D01*
X053304Y071796D02*
Y072347D01*
Y071796D02*
X054485D01*
X053304Y072347D02*
X054485D01*
X052705Y071515D02*
Y072204D01*
X053079Y071515D02*
Y072204D01*
X052705D02*
X053079D01*
X052705Y071515D02*
X053079D01*
X05165Y071397D02*
X052339D01*
X05165Y071771D02*
X052339D01*
X05165Y071397D02*
Y071771D01*
X052339Y071397D02*
Y071771D01*
X054399Y077726D02*
Y078415D01*
X054025Y077726D02*
Y078415D01*
X054399D01*
X054025Y077726D02*
X054399D01*
X048992Y068976D02*
Y06935D01*
X048303Y068976D02*
Y06935D01*
Y068976D02*
X048992D01*
X048303Y06935D02*
X048992D01*
X057513Y077099D02*
X057887D01*
X057513Y07641D02*
X057887D01*
Y077099D01*
X057513Y07641D02*
Y077099D01*
X059435Y075817D02*
X060124D01*
X059435Y076191D02*
X060124D01*
Y075817D02*
Y076191D01*
X059435Y075817D02*
Y076191D01*
X057064Y077768D02*
X057753D01*
X057064Y077394D02*
X057753D01*
X057064D02*
Y077768D01*
X057753Y077394D02*
Y077768D01*
X055939Y076164D02*
Y077345D01*
X055388Y076164D02*
Y077345D01*
Y076164D02*
X055939D01*
X055388Y077345D02*
X055939D01*
X052211Y0945D02*
X0529D01*
X052211Y094126D02*
X0529D01*
Y0945D01*
X052211Y094126D02*
Y0945D01*
X060119Y092955D02*
X060119Y092719D01*
X059686D02*
Y092955D01*
X060119D01*
X059686Y092719D02*
X060119D01*
X046241Y087522D02*
Y087758D01*
X045808Y087522D02*
Y087758D01*
X046241D01*
X045808Y087522D02*
X046241D01*
X046142Y086437D02*
X046378D01*
X046142Y08687D02*
X046378D01*
Y086437D02*
Y08687D01*
X046142Y086437D02*
Y08687D01*
X045413Y086732D02*
X045846D01*
X045413Y086969D02*
X045846D01*
X045413Y086732D02*
Y086969D01*
X045846Y086732D02*
Y086969D01*
X046087Y083434D02*
Y083808D01*
X045398Y083434D02*
Y083808D01*
X046087D01*
X045398Y083434D02*
X046087D01*
X045425Y082852D02*
X046114D01*
X045425Y083226D02*
X046114D01*
X045425Y082852D02*
Y083226D01*
X046114Y082852D02*
Y083226D01*
X045425Y082212D02*
X046114D01*
X045425Y082586D02*
X046114D01*
X045425Y082212D02*
Y082586D01*
X046114Y082212D02*
Y082586D01*
X06162Y070002D02*
X062309D01*
X06162Y069628D02*
X062309D01*
Y070002D01*
X06162Y069628D02*
Y070002D01*
X062064Y071145D02*
X062438D01*
X062064Y070456D02*
X062438D01*
X062064D02*
Y071145D01*
X062438Y070456D02*
Y071145D01*
X062707D02*
X063081D01*
X062707Y070456D02*
X063081D01*
X062707D02*
Y071145D01*
X063081Y070456D02*
Y071145D01*
X061341Y070456D02*
Y071145D01*
X061715Y070456D02*
Y071145D01*
X061341D02*
X061715D01*
X061341Y070456D02*
X061715D01*
X058798Y070467D02*
Y071156D01*
X059172Y070467D02*
Y071156D01*
X058798D02*
X059172D01*
X058798Y070467D02*
X059172D01*
X05848Y070456D02*
Y071145D01*
X058106Y070456D02*
Y071145D01*
Y070456D02*
X05848D01*
X058106Y071145D02*
X05848D01*
X059432Y07044D02*
Y071129D01*
X059806Y07044D02*
Y071129D01*
X059432D02*
X059806D01*
X059432Y07044D02*
X059806D01*
X054906Y070456D02*
Y071145D01*
X05528Y070456D02*
Y071145D01*
X054906D02*
X05528D01*
X054906Y070456D02*
X05528D01*
X056188D02*
Y071145D01*
X056562Y070456D02*
Y071145D01*
X056188D02*
X056562D01*
X056188Y070456D02*
X056562D01*
X056443Y069495D02*
Y070135D01*
X054983Y069495D02*
X056443D01*
X054983D02*
Y070135D01*
X056443D01*
X053508Y074645D02*
Y075019D01*
X054197Y074645D02*
Y075019D01*
X053508D02*
X054197D01*
X053508Y074645D02*
X054197D01*
X053001Y077451D02*
Y07814D01*
X052627Y077451D02*
Y07814D01*
X053001D01*
X052627Y077451D02*
X053001D01*
X049107Y070504D02*
Y070878D01*
X049796Y070504D02*
Y070878D01*
X049107D02*
X049796D01*
X049107Y070504D02*
X049796D01*
X050907Y070005D02*
Y070379D01*
X051596Y070005D02*
Y070379D01*
X050907D02*
X051596D01*
X050907Y070005D02*
X051596D01*
X04954Y069215D02*
X049914D01*
X04954Y068526D02*
X049914D01*
Y069215D01*
X04954Y068526D02*
Y069215D01*
X050395Y072094D02*
X051576D01*
X050395Y071543D02*
X051576D01*
Y072094D01*
X050395Y071543D02*
Y072094D01*
X048944Y071486D02*
X050125D01*
X048944Y072037D02*
X050125D01*
X048944Y071486D02*
Y072037D01*
X050125Y071486D02*
Y072037D01*
X048375Y069687D02*
X049835D01*
X048375D02*
Y070327D01*
X049835D01*
Y069687D02*
Y070327D01*
X048304Y070681D02*
X048678D01*
X048304Y07137D02*
X048678D01*
X048304Y070681D02*
Y07137D01*
X048678Y070681D02*
Y07137D01*
X050449Y082428D02*
X050823D01*
X050449Y083117D02*
X050823D01*
X050449Y082428D02*
Y083117D01*
X050823Y082428D02*
Y083117D01*
X050316Y085053D02*
X050956D01*
X050316Y083593D02*
Y085053D01*
Y083593D02*
X050956D01*
Y085053D01*
X052411Y072953D02*
Y073642D01*
X052037Y072953D02*
Y073642D01*
X052411D01*
X052037Y072953D02*
X052411D01*
X056259Y074792D02*
Y075481D01*
X056633Y074792D02*
Y075481D01*
X056259Y074792D02*
X056633D01*
X056259Y075481D02*
X056633D01*
X053508Y075253D02*
X054197D01*
X053508Y075627D02*
X054197D01*
Y075253D02*
Y075627D01*
X053508Y075253D02*
Y075627D01*
X050187Y070666D02*
X050561D01*
X050187Y069977D02*
X050561D01*
Y070666D01*
X050187Y069977D02*
Y070666D01*
X061926Y076567D02*
Y076941D01*
X061237Y076567D02*
Y076941D01*
Y076567D02*
X061926D01*
X061237Y076941D02*
X061926D01*
X062481Y078178D02*
X063121D01*
Y079638D01*
X062481D02*
X063121D01*
X062481Y078178D02*
Y079638D01*
X05812Y073226D02*
Y073915D01*
X057746Y073226D02*
Y073915D01*
Y073226D02*
X05812D01*
X057746Y073915D02*
X05812D01*
X049144Y079708D02*
X049833D01*
X049144Y080082D02*
X049833D01*
X049144Y079708D02*
Y080082D01*
X049833Y079708D02*
Y080082D01*
X057359Y090813D02*
X057596D01*
X057359Y09038D02*
X057596D01*
X057359D02*
Y090813D01*
X057596Y09038D02*
Y090813D01*
X051927Y072864D02*
Y073415D01*
X053108Y072864D02*
Y073415D01*
X051927D02*
X053108D01*
X051927Y072864D02*
X053108D01*
X050272Y073686D02*
X050961D01*
X050272Y073312D02*
X050961D01*
Y073686D01*
X050272Y073312D02*
Y073686D01*
X063078Y076567D02*
Y076941D01*
X062389Y076567D02*
Y076941D01*
Y076567D02*
X063078D01*
X062389Y076941D02*
X063078D01*
X054698Y082381D02*
X055072D01*
X054698Y08307D02*
X055072D01*
X054698Y082381D02*
Y08307D01*
X055072Y082381D02*
Y08307D01*
X056926Y077099D02*
X0573D01*
X056926Y07641D02*
X0573D01*
Y077099D01*
X056926Y07641D02*
Y077099D01*
X055213Y082394D02*
X055587D01*
X055213Y083083D02*
X055587D01*
X055213Y082394D02*
Y083083D01*
X055587Y082394D02*
Y083083D01*
X045709Y086804D02*
X045945D01*
X045709Y087237D02*
X045945D01*
Y086804D02*
Y087237D01*
X045709Y086804D02*
Y087237D01*
X050266Y073632D02*
Y074006D01*
X049577Y073632D02*
Y074006D01*
Y073632D02*
X050266D01*
X049577Y074006D02*
X050266D01*
X061147Y076926D02*
X061521D01*
X061147Y077615D02*
X061521D01*
Y076926D02*
Y077615D01*
X061147Y076926D02*
Y077615D01*
X044882Y086437D02*
Y08687D01*
X045118Y086437D02*
Y08687D01*
X044882D02*
X045118D01*
X044882Y086437D02*
X045118D01*
X05692Y071145D02*
X057294D01*
X05692Y070456D02*
X057294D01*
X05692D02*
Y071145D01*
X057294Y070456D02*
Y071145D01*
X062367Y073228D02*
X062741D01*
X062367Y073917D02*
X062741D01*
Y073228D02*
Y073917D01*
X062367Y073228D02*
Y073917D01*
X056699Y073226D02*
X057073D01*
X056699Y073915D02*
X057073D01*
Y073226D02*
Y073915D01*
X056699Y073226D02*
Y073915D01*
X060947Y073228D02*
X061321D01*
X060947Y073917D02*
X061321D01*
Y073228D02*
Y073917D01*
X060947Y073228D02*
Y073917D01*
X055292Y073228D02*
X055666D01*
X055292Y073917D02*
X055666D01*
Y073228D02*
Y073917D01*
X055292Y073228D02*
Y073917D01*
X059526Y073228D02*
X0599D01*
X059526Y073917D02*
X0599D01*
Y073228D02*
Y073917D01*
X059526Y073228D02*
Y073917D01*
X055532Y070456D02*
X055906D01*
X055532Y071145D02*
X055906D01*
Y070456D02*
Y071145D01*
X055532Y070456D02*
Y071145D01*
X058502Y073915D02*
X058876D01*
X058502Y073226D02*
X058876D01*
X058502D02*
Y073915D01*
X058876Y073226D02*
Y073915D01*
X050055Y093708D02*
X050429D01*
X050055Y094397D02*
X050429D01*
Y093708D02*
Y094397D01*
X050055Y093708D02*
Y094397D01*
X059379Y070131D02*
X060839D01*
X059379Y069491D02*
Y070131D01*
Y069491D02*
X060839D01*
Y070131D01*
X061873Y085463D02*
Y086923D01*
X061233D02*
X061873D01*
X061233Y085463D02*
Y086923D01*
Y085463D02*
X061873D01*
X050069Y092669D02*
X050443D01*
X050069Y093358D02*
X050443D01*
Y092669D02*
Y093358D01*
X050069Y092669D02*
Y093358D01*
X051137Y093692D02*
X051511D01*
X051137Y094381D02*
X051511D01*
Y093692D02*
Y094381D01*
X051137Y093692D02*
Y094381D01*
X050026Y072106D02*
X051207D01*
X050026Y071555D02*
X051207D01*
X050026D02*
Y072106D01*
X051207Y071555D02*
Y072106D01*
X059134Y071929D02*
X060315D01*
X059134Y072481D02*
X060315D01*
Y071929D02*
Y072481D01*
X059134Y071929D02*
Y072481D01*
X054882Y071929D02*
X056063D01*
X054882Y072481D02*
X056063D01*
Y071929D02*
Y072481D01*
X054882Y071929D02*
Y072481D01*
X060551Y071929D02*
X061732D01*
X060551Y072481D02*
X061732D01*
Y071929D02*
Y072481D01*
X060551Y071929D02*
Y072481D01*
X050961Y072671D02*
Y073045D01*
X050272Y072671D02*
Y073045D01*
X050961D01*
X050272Y072671D02*
X050961D01*
X061968Y071929D02*
X06315D01*
X061968Y072481D02*
X06315D01*
Y071929D02*
Y072481D01*
X061968Y071929D02*
Y072481D01*
X056299Y071929D02*
X05748D01*
X056299Y072481D02*
X05748D01*
Y071929D02*
Y072481D01*
X056299Y071929D02*
Y072481D01*
X057717Y072481D02*
X058898D01*
X057717Y071929D02*
X058898D01*
X057717D02*
Y072481D01*
X058898Y071929D02*
Y072481D01*
X060507Y087466D02*
X060882D01*
X060507Y086777D02*
X060882D01*
X060507D02*
Y087466D01*
X060882Y086777D02*
Y087466D01*
X04996Y099026D02*
Y099715D01*
X050334Y099026D02*
Y099715D01*
X04996Y099026D02*
X050334D01*
X04996Y099715D02*
X050334D01*
X051522Y099026D02*
Y099715D01*
X051896Y099026D02*
Y099715D01*
X051522Y099026D02*
X051896D01*
X051522Y099715D02*
X051896D01*
X053085Y099026D02*
Y099715D01*
X053459Y099026D02*
Y099715D01*
X053085Y099026D02*
X053459D01*
X053085Y099715D02*
X053459D01*
X049715Y074852D02*
Y075226D01*
X049026Y074852D02*
Y075226D01*
Y074852D02*
X049715D01*
X049026Y075226D02*
X049715D01*
X050266Y076703D02*
Y077077D01*
X049577Y076703D02*
Y077077D01*
Y076703D02*
X050266D01*
X049577Y077077D02*
X050266D01*
X049715Y075482D02*
Y075856D01*
X049026Y075482D02*
Y075856D01*
Y075482D02*
X049715D01*
X049026Y075856D02*
X049715D01*
X055609Y075481D02*
X055983D01*
X055609Y074792D02*
X055983D01*
Y075481D01*
X055609Y074792D02*
Y075481D01*
X056998Y07218D02*
Y072554D01*
X056309Y07218D02*
Y072554D01*
Y07218D02*
X056998D01*
X056309Y072554D02*
X056998D01*
X057488Y068385D02*
Y068759D01*
X058177Y068385D02*
Y068759D01*
X057488D02*
X058177D01*
X057488Y068385D02*
X058177D01*
X058175Y069167D02*
Y069541D01*
X057486Y069167D02*
Y069541D01*
Y069167D02*
X058175D01*
X057486Y069541D02*
X058175D01*
X050739Y099715D02*
X051113D01*
X050739Y099026D02*
X051113D01*
Y099715D01*
X050739Y099026D02*
Y099715D01*
X052301D02*
X052675D01*
X052301Y099026D02*
X052675D01*
Y099715D01*
X052301Y099026D02*
Y099715D01*
X053864D02*
X054238D01*
X053864Y099026D02*
X054238D01*
Y099715D01*
X053864Y099026D02*
Y099715D01*
X048968Y068379D02*
Y068753D01*
X048279Y068379D02*
Y068753D01*
Y068379D02*
X048968D01*
X048279Y068753D02*
X048968D01*
X058111Y077615D02*
X058485D01*
X058111Y076926D02*
X058485D01*
Y077615D01*
X058111Y076926D02*
Y077615D01*
X057199Y074459D02*
Y074833D01*
X057888Y074459D02*
Y074833D01*
X057199D02*
X057888D01*
X057199Y074459D02*
X057888D01*
X057888Y07568D02*
Y076054D01*
X057199Y07568D02*
Y076054D01*
Y07568D02*
X057888D01*
X057199Y076054D02*
X057888D01*
X055426Y099715D02*
X0558D01*
X055426Y099026D02*
X0558D01*
Y099715D01*
X055426Y099026D02*
Y099715D01*
X049722Y084259D02*
X050096D01*
X049722Y084948D02*
X050096D01*
X049722Y084259D02*
Y084948D01*
X050096Y084259D02*
Y084948D01*
X049185Y084259D02*
X049559D01*
X049185Y084948D02*
X049559D01*
X049185Y084259D02*
Y084948D01*
X049559Y084259D02*
Y084948D01*
X04864Y084259D02*
X049014D01*
X04864Y084948D02*
X049014D01*
X04864Y084259D02*
Y084948D01*
X049014Y084259D02*
Y084948D01*
X048073Y084259D02*
X048447D01*
X048073Y084948D02*
X048447D01*
X048073Y084259D02*
Y084948D01*
X048447Y084259D02*
Y084948D01*
X057888Y075089D02*
Y075463D01*
X057199Y075089D02*
Y075463D01*
Y075089D02*
X057888D01*
X057199Y075463D02*
X057888D01*
X05064Y073848D02*
X051014D01*
X05064Y073159D02*
X051014D01*
Y073848D01*
X05064Y073159D02*
Y073848D01*
X049715Y074262D02*
Y074636D01*
X049026Y074262D02*
Y074636D01*
Y074262D02*
X049715D01*
X049026Y074636D02*
X049715D01*
X050266Y072992D02*
Y073366D01*
X049577Y072992D02*
Y073366D01*
Y072992D02*
X050266D01*
X049577Y073366D02*
X050266D01*
X048278Y075699D02*
X048652D01*
X048278Y07501D02*
X048652D01*
Y075699D01*
X048278Y07501D02*
Y075699D01*
X047655Y07501D02*
X048029D01*
X047655Y075699D02*
X048029D01*
X047655Y07501D02*
Y075699D01*
X048029Y07501D02*
Y075699D01*
X049577Y077333D02*
Y077707D01*
X050266Y077333D02*
Y077707D01*
X049577D02*
X050266D01*
X049577Y077333D02*
X050266D01*
X049715Y076073D02*
Y076447D01*
X049026Y076073D02*
Y076447D01*
Y076073D02*
X049715D01*
X049026Y076447D02*
X049715D01*
X05064Y07814D02*
X051014D01*
X05064Y077451D02*
X051014D01*
Y07814D01*
X05064Y077451D02*
Y07814D01*
X058171Y069948D02*
Y070322D01*
X057482Y069948D02*
Y070322D01*
Y069948D02*
X058171D01*
X057482Y070322D02*
X058171D01*
X056658Y073635D02*
X057032D01*
X056658Y072946D02*
X057032D01*
Y073635D01*
X056658Y072946D02*
Y073635D01*
X054739Y06864D02*
Y069014D01*
X055428Y06864D02*
Y069014D01*
X054739D02*
X055428D01*
X054739Y06864D02*
X055428D01*
X059483Y068325D02*
Y069785D01*
X060123D01*
Y068325D02*
Y069785D01*
X059483Y068325D02*
X060123D01*
X053622Y07644D02*
X054803D01*
X053622Y076991D02*
X054803D01*
X053622Y07644D02*
Y076991D01*
X054803Y07644D02*
Y076991D01*
X056118Y071511D02*
X057299D01*
X056118Y07096D02*
X057299D01*
Y071511D01*
X056118Y07096D02*
Y071511D01*
D14*
X051474Y064561D02*
Y06553D01*
X043915Y06455D02*
Y065521D01*
X044363Y0617D02*
X051025D01*
D15*
X05499Y07889D02*
Y079697D01*
X054183Y07889D02*
X05499D01*
X054183D02*
Y079697D01*
X05499D01*
X047077Y082093D02*
X056585D01*
Y0916D01*
X047077D02*
X056585D01*
X047077Y082093D02*
Y0916D01*
X060086Y091053D02*
X060686D01*
X060086Y090653D02*
X060686D01*
X060086D02*
Y091053D01*
X060686Y090653D02*
Y091053D01*
D16*
X056674Y066059D02*
X057674D01*
X053674Y062242D02*
X054214Y061702D01*
X057144D01*
X057674Y065607D02*
Y066059D01*
X055334Y061702D02*
X055984D01*
X055674Y065607D02*
Y067209D01*
X053674Y066059D02*
X054674D01*
X053674Y065607D02*
Y066059D01*
X055334Y061702D02*
Y062392D01*
X054674Y066059D02*
Y067209D01*
X057674Y062232D02*
Y063872D01*
X056004Y061722D02*
Y062402D01*
X055984Y061702D02*
X056004Y061722D01*
X055344Y062402D02*
X056004D01*
X057144Y061702D02*
X057674Y062232D01*
X053674Y065607D02*
X057674D01*
Y063872D02*
Y065607D01*
X055334Y062392D02*
X055344Y062402D01*
X056674Y066059D02*
Y067209D01*
X054674D02*
X056674D01*
X053674Y063872D02*
Y065607D01*
Y062242D02*
Y063872D01*
Y062242D02*
Y063812D01*
X057674Y062232D02*
Y063882D01*
X057144Y061702D02*
X057674Y062232D01*
Y063872D02*
Y065607D01*
X053674D02*
X057674D01*
X053674Y063822D02*
Y065607D01*
Y062242D02*
X054214Y061702D01*
X057144D01*
X055334D02*
X055984D01*
X055334D02*
Y062392D01*
X055984Y061702D02*
X056004Y061722D01*
Y062402D01*
X055344D02*
X056004D01*
X055334Y062392D02*
X055344Y062402D01*
X050945Y076496D02*
X052718D01*
Y074526D02*
Y076496D01*
X050748Y074526D02*
X052718D01*
X050748D02*
Y076299D01*
X050945Y076496D01*
X059224Y062392D02*
X059234Y062402D01*
X059894D01*
Y061722D02*
Y062402D01*
X059874Y061702D02*
X059894Y061722D01*
X059224Y061702D02*
Y062392D01*
Y061702D02*
X059874D01*
X058104D02*
X061034D01*
X057564Y062242D02*
X058104Y061702D01*
X057564Y063822D02*
Y065607D01*
X061564D01*
Y063872D02*
Y065607D01*
X061034Y061702D02*
X061564Y062232D01*
Y063882D01*
X057564Y062242D02*
Y063812D01*
Y062242D02*
Y063872D01*
Y065607D01*
X058564Y067209D02*
X060564D01*
Y066059D02*
Y067209D01*
X059224Y062392D02*
X059234Y062402D01*
X061564Y063872D02*
Y065607D01*
X057564D02*
X061564D01*
X061034Y061702D02*
X061564Y062232D01*
X059234Y062402D02*
X059894D01*
X059874Y061702D02*
X059894Y061722D01*
Y062402D01*
X061564Y062232D02*
Y063872D01*
X058564Y066059D02*
Y067209D01*
X059224Y061702D02*
Y062392D01*
X057564Y065607D02*
Y066059D01*
X058564D01*
X059564Y065607D02*
Y067209D01*
X059224Y061702D02*
X059874D01*
X061564Y065607D02*
Y066059D01*
X058104Y061702D02*
X061034D01*
X057564Y062242D02*
X058104Y061702D01*
X060564Y066059D02*
X061564D01*
M02*
