G04*
G04 #@! TF.GenerationSoftware,Altium Limited,Altium Designer,21.2.1 (34)*
G04*
G04 Layer_Color=128*
%FSTAX24Y24*%
%MOIN*%
G70*
G04*
G04 #@! TF.SameCoordinates,4AC015DC-E3C4-4AC6-9BA4-5EE9E9B64A6E*
G04*
G04*
G04 #@! TF.FilePolarity,Positive*
G04*
G01*
G75*
%ADD23R,0.0600X0.1260*%
%ADD25R,0.0354X0.0315*%
%ADD27R,0.0472X0.0984*%
%ADD39R,0.0472X0.0394*%
%ADD40R,0.0335X0.0295*%
%ADD42R,0.0295X0.0335*%
%ADD43R,0.0315X0.0354*%
%ADD44R,0.0236X0.0453*%
%ADD45R,0.0394X0.0472*%
%ADD90R,0.0787X0.0787*%
%ADD94R,0.0108X0.0098*%
%ADD95R,0.0098X0.0108*%
%ADD96R,0.0236X0.0197*%
%ADD97R,0.0591X0.1181*%
%ADD98C,0.0984*%
%ADD99R,0.0394X0.0394*%
%ADD100R,0.0433X0.0866*%
%ADD101R,0.0709X0.1181*%
%ADD102R,0.0098X0.0128*%
%ADD103R,0.0079X0.0128*%
%ADD104R,0.0098X0.0098*%
%ADD107R,0.0315X0.0394*%
%ADD108O,0.0630X0.0236*%
%ADD109O,0.0236X0.0630*%
%ADD110R,0.0787X0.0787*%
%ADD111R,0.0228X0.0748*%
%ADD112R,0.0228X0.0866*%
%ADD113R,0.0256X0.0445*%
%ADD114R,0.0295X0.0445*%
%ADD115R,0.0197X0.0236*%
%ADD116R,0.0091X0.0276*%
%ADD150R,0.0303X0.0106*%
%ADD151R,0.0106X0.0303*%
D23*
X04933Y06723D02*
D03*
X048239D02*
D03*
X047149D02*
D03*
X046058D02*
D03*
D25*
X051326Y093273D02*
D03*
Y092722D02*
D03*
X049221Y092776D02*
D03*
Y093327D02*
D03*
X05499Y078371D02*
D03*
Y07782D02*
D03*
X053909Y078371D02*
D03*
Y07782D02*
D03*
X061334Y076995D02*
D03*
Y077547D02*
D03*
X050256Y092738D02*
D03*
Y093289D02*
D03*
X060694Y087397D02*
D03*
Y086846D02*
D03*
D27*
X056265Y0666D02*
D03*
X055083D02*
D03*
X058974D02*
D03*
X060155D02*
D03*
D39*
X050043Y069565D02*
D03*
Y070865D02*
D03*
X061553Y086844D02*
D03*
Y085543D02*
D03*
D40*
X060551Y070482D02*
D03*
Y071033D02*
D03*
X049221Y094367D02*
D03*
Y093815D02*
D03*
X04796Y092404D02*
D03*
Y092956D02*
D03*
X050043Y068454D02*
D03*
Y069005D02*
D03*
X054268Y07314D02*
D03*
Y073691D02*
D03*
X053628Y07314D02*
D03*
Y073691D02*
D03*
X052892Y072135D02*
D03*
Y071584D02*
D03*
X062251Y071076D02*
D03*
Y070525D02*
D03*
X062894Y071076D02*
D03*
Y070525D02*
D03*
X061528Y071076D02*
D03*
Y070525D02*
D03*
X058985Y071087D02*
D03*
Y070536D02*
D03*
X058293Y070525D02*
D03*
Y071076D02*
D03*
X059619Y07106D02*
D03*
Y070509D02*
D03*
X055093Y071076D02*
D03*
Y070525D02*
D03*
X056375Y071076D02*
D03*
Y070525D02*
D03*
X057933Y073295D02*
D03*
Y073846D02*
D03*
X057107Y071076D02*
D03*
Y070525D02*
D03*
X062554Y073297D02*
D03*
Y073848D02*
D03*
X056886Y073295D02*
D03*
Y073846D02*
D03*
X061134Y073297D02*
D03*
Y073848D02*
D03*
X055479Y073297D02*
D03*
Y073848D02*
D03*
X059713Y073297D02*
D03*
Y073848D02*
D03*
X055718Y070525D02*
D03*
Y071076D02*
D03*
X058689Y073846D02*
D03*
Y073295D02*
D03*
X050242Y093777D02*
D03*
Y094328D02*
D03*
X051324Y093761D02*
D03*
Y094312D02*
D03*
D42*
X049213Y080597D02*
D03*
X049764D02*
D03*
X054862Y081035D02*
D03*
X054311D02*
D03*
X053245D02*
D03*
X053796D02*
D03*
X051319Y077878D02*
D03*
X050768D02*
D03*
X051319Y077327D02*
D03*
X050768D02*
D03*
X049213Y0812D02*
D03*
X049764D02*
D03*
X051719Y071584D02*
D03*
X05227D02*
D03*
X045494Y083039D02*
D03*
X046045D02*
D03*
X045494Y082399D02*
D03*
X046045D02*
D03*
X06224Y069815D02*
D03*
X061689D02*
D03*
X049213Y079895D02*
D03*
X049764D02*
D03*
X050892Y073499D02*
D03*
X050341D02*
D03*
X050892Y072858D02*
D03*
X050341D02*
D03*
D43*
X05499Y080265D02*
D03*
X055541D02*
D03*
X052296Y081001D02*
D03*
X051745D02*
D03*
X0523Y080472D02*
D03*
X051749D02*
D03*
X051947Y074235D02*
D03*
X052498D02*
D03*
X051719Y072135D02*
D03*
X05227D02*
D03*
X052831Y094313D02*
D03*
X05228D02*
D03*
X046018Y083621D02*
D03*
X045467D02*
D03*
D44*
X049114Y079181D02*
D03*
X049862D02*
D03*
X049488Y078296D02*
D03*
X05099Y079438D02*
D03*
X050616Y078552D02*
D03*
X051364D02*
D03*
X053894Y071628D02*
D03*
X054268Y072514D02*
D03*
X05352D02*
D03*
X052518Y073583D02*
D03*
X052144Y072697D02*
D03*
X052892D02*
D03*
X050242Y072273D02*
D03*
X05099D02*
D03*
X050616Y071387D02*
D03*
X060098Y071762D02*
D03*
X05935D02*
D03*
X059724Y072648D02*
D03*
X055846Y071762D02*
D03*
X055098D02*
D03*
X055472Y072648D02*
D03*
X061516Y071762D02*
D03*
X060768D02*
D03*
X061142Y072648D02*
D03*
X062933Y071762D02*
D03*
X062185D02*
D03*
X062559Y072648D02*
D03*
X057264Y071762D02*
D03*
X056516D02*
D03*
X05689Y072648D02*
D03*
X057933Y072648D02*
D03*
X058681D02*
D03*
X058307Y071762D02*
D03*
D45*
X056363Y069815D02*
D03*
X055062D02*
D03*
X059459Y069811D02*
D03*
X06076D02*
D03*
D90*
X048839Y089843D02*
D03*
X050335D02*
D03*
X051831D02*
D03*
X053327D02*
D03*
X054823D02*
D03*
X053327Y083858D02*
D03*
X051831D02*
D03*
X050335D02*
D03*
X048839D02*
D03*
Y085433D02*
D03*
D94*
X054286Y079392D02*
D03*
Y079195D02*
D03*
X054887D02*
D03*
Y079392D02*
D03*
D95*
X054291Y078993D02*
D03*
X054488D02*
D03*
X054685D02*
D03*
X054882D02*
D03*
Y079593D02*
D03*
X054685D02*
D03*
X054488D02*
D03*
X054291D02*
D03*
D96*
X059432Y089602D02*
D03*
X059038D02*
D03*
X060503Y089602D02*
D03*
X060896D02*
D03*
X058008Y090797D02*
D03*
X058402D02*
D03*
X0601Y092837D02*
D03*
X059706D02*
D03*
X046221Y08764D02*
D03*
X045828D02*
D03*
X045433Y08685D02*
D03*
X045827D02*
D03*
D97*
X043976Y08685D02*
D03*
D98*
X05874Y092864D02*
D03*
D99*
X045827Y088186D02*
D03*
D100*
X045256Y088776D02*
D03*
X046398D02*
D03*
D101*
X052512Y066993D02*
D03*
Y070536D02*
D03*
D102*
X059432Y090788D02*
D03*
Y090562D02*
D03*
D103*
X059599Y090788D02*
D03*
Y090562D02*
D03*
D104*
X059767Y090675D02*
D03*
D107*
X051555Y082992D02*
D03*
D108*
X047106Y083303D02*
D03*
Y08291D02*
D03*
Y082516D02*
D03*
X056555Y089996D02*
D03*
Y089602D02*
D03*
Y089209D02*
D03*
Y088815D02*
D03*
Y088421D02*
D03*
Y088028D02*
D03*
Y087634D02*
D03*
Y08724D02*
D03*
Y086846D02*
D03*
Y086453D02*
D03*
Y086059D02*
D03*
Y085665D02*
D03*
Y085272D02*
D03*
Y084878D02*
D03*
Y084484D02*
D03*
Y084091D02*
D03*
Y083697D02*
D03*
X047106D02*
D03*
Y084091D02*
D03*
Y084484D02*
D03*
Y084878D02*
D03*
Y085272D02*
D03*
Y085665D02*
D03*
Y086059D02*
D03*
Y086453D02*
D03*
Y086846D02*
D03*
Y08724D02*
D03*
Y087634D02*
D03*
Y088028D02*
D03*
Y088421D02*
D03*
Y088815D02*
D03*
Y089209D02*
D03*
Y089602D02*
D03*
Y089996D02*
D03*
X056555Y09039D02*
D03*
X056555Y090787D02*
D03*
Y091181D02*
D03*
Y082516D02*
D03*
Y082909D02*
D03*
Y083303D02*
D03*
X047106Y091181D02*
D03*
Y090787D02*
D03*
Y090394D02*
D03*
D109*
X048681Y091571D02*
D03*
X049075D02*
D03*
X049468D02*
D03*
X049862D02*
D03*
X050256D02*
D03*
X05065D02*
D03*
X051043D02*
D03*
X051437D02*
D03*
X051831D02*
D03*
X052224D02*
D03*
X052618D02*
D03*
X053012D02*
D03*
X053405D02*
D03*
X053799D02*
D03*
X054193D02*
D03*
X054587D02*
D03*
X05498D02*
D03*
Y082122D02*
D03*
X054587D02*
D03*
X054193D02*
D03*
X053799D02*
D03*
X053405D02*
D03*
X053012D02*
D03*
X052618D02*
D03*
X052224D02*
D03*
X051831D02*
D03*
X051437D02*
D03*
X051043D02*
D03*
X05065D02*
D03*
X050256D02*
D03*
X049862D02*
D03*
X049468D02*
D03*
X049075D02*
D03*
X048681D02*
D03*
D110*
X054823Y088347D02*
D03*
Y086851D02*
D03*
Y085355D02*
D03*
Y083858D02*
D03*
X053327Y086851D02*
D03*
X051831Y088347D02*
D03*
X048839D02*
D03*
Y086851D02*
D03*
X051831Y085355D02*
D03*
X050335Y086851D02*
D03*
D111*
X049622Y100551D02*
D03*
X05474D02*
D03*
D112*
Y095827D02*
D03*
X049622D02*
D03*
D113*
X053157Y095242D02*
D03*
D114*
X050283D02*
D03*
X052783D02*
D03*
X052283D02*
D03*
X051783D02*
D03*
X051283D02*
D03*
X050783D02*
D03*
D115*
X060568Y0918D02*
D03*
Y092193D02*
D03*
X058875Y0904D02*
D03*
Y090794D02*
D03*
X04626Y086457D02*
D03*
Y08685D02*
D03*
X057478Y090794D02*
D03*
Y0904D02*
D03*
X045827Y086824D02*
D03*
Y087217D02*
D03*
X045Y08685D02*
D03*
Y086457D02*
D03*
D116*
X060189Y09067D02*
D03*
X060386D02*
D03*
X060583D02*
D03*
Y091036D02*
D03*
X060386D02*
D03*
X060189D02*
D03*
D150*
X052116Y079546D02*
D03*
Y079349D02*
D03*
Y079743D02*
D03*
X05312Y079546D02*
D03*
Y079743D02*
D03*
Y079349D02*
D03*
D151*
X052224Y079034D02*
D03*
X052421D02*
D03*
X052618D02*
D03*
X052815D02*
D03*
X053012D02*
D03*
X052618Y080058D02*
D03*
X052421D02*
D03*
X052224D02*
D03*
X052815D02*
D03*
X053012D02*
D03*
M02*
