G04*
G04 #@! TF.GenerationSoftware,Altium Limited,Altium Designer,21.2.1 (34)*
G04*
G04 Layer_Color=2752767*
%FSTAX24Y24*%
%MOIN*%
G70*
G04*
G04 #@! TF.SameCoordinates,4AC015DC-E3C4-4AC6-9BA4-5EE9E9B64A6E*
G04*
G04*
G04 #@! TF.FilePolarity,Positive*
G04*
G01*
G75*
%ADD177C,0.0020*%
%ADD178C,0.0027*%
D177*
X05866Y092784D02*
Y092944D01*
X05882D01*
Y092784D01*
X05866D01*
X052518Y067659D02*
X052438Y067819D01*
X052598D01*
X052518Y067659D01*
X061553Y08464D02*
X061593Y08468D01*
X061633D01*
X061593Y08472D01*
X061633Y08476D01*
X061593D01*
X061553Y0848D01*
X061513Y08476D01*
X061473D01*
X061513Y08472D01*
X061473Y08468D01*
X061513D01*
X061553Y08464D01*
X060553D02*
X060593Y08468D01*
X060633D01*
X060593Y08472D01*
X060633Y08476D01*
X060593D01*
X060553Y0848D01*
X060513Y08476D01*
X060473D01*
X060513Y08472D01*
X060473Y08468D01*
X060513D01*
X060553Y08464D01*
X059553D02*
X059593Y08468D01*
X059633D01*
X059593Y08472D01*
X059633Y08476D01*
X059593D01*
X059553Y0848D01*
X059513Y08476D01*
X059473D01*
X059513Y08472D01*
X059473Y08468D01*
X059513D01*
X059553Y08464D01*
X058553D02*
X058593Y08468D01*
X058633D01*
X058593Y08472D01*
X058633Y08476D01*
X058593D01*
X058553Y0848D01*
X058513Y08476D01*
X058473D01*
X058513Y08472D01*
X058473Y08468D01*
X058513D01*
X058553Y08464D01*
X052856Y081343D02*
X052896Y081423D01*
X052856Y081503D01*
X052936Y081463D01*
X053016Y081503D01*
X052976Y081423D01*
X053016Y081343D01*
X052936Y081383D01*
X052856Y081343D01*
X052126Y083138D02*
X052166Y083218D01*
X052126Y083298D01*
X052206Y083258D01*
X052286Y083298D01*
X052246Y083218D01*
X052286Y083138D01*
X052206Y083178D01*
X052126Y083138D01*
X042524Y083522D02*
X042564Y083602D01*
X042524Y083682D01*
X042604Y083642D01*
X042684Y083682D01*
X042644Y083602D01*
X042684Y083522D01*
X042604Y083562D01*
X042524Y083522D01*
X043796Y084694D02*
X043836Y084774D01*
X043796Y084854D01*
X043876Y084814D01*
X043956Y084854D01*
X043916Y084774D01*
X043956Y084694D01*
X043876Y084734D01*
X043796Y084694D01*
X053979Y079808D02*
X054019Y079888D01*
X053979Y079968D01*
X054059Y079928D01*
X054139Y079968D01*
X054099Y079888D01*
X054139Y079808D01*
X054059Y079848D01*
X053979Y079808D01*
X054408Y080058D02*
X054448Y080138D01*
X054408Y080218D01*
X054488Y080178D01*
X054568Y080218D01*
X054528Y080138D01*
X054568Y080058D01*
X054488Y080098D01*
X054408Y080058D01*
X047798Y090707D02*
X047838Y090787D01*
X047798Y090867D01*
X047878Y090827D01*
X047958Y090867D01*
X047918Y090787D01*
X047958Y090707D01*
X047878Y090747D01*
X047798Y090707D01*
X062474Y077501D02*
X062514Y077581D01*
X062474Y077661D01*
X062554Y077621D01*
X062634Y077661D01*
X062594Y077581D01*
X062634Y077501D01*
X062554Y077541D01*
X062474Y077501D01*
X060695Y078046D02*
X060735Y078126D01*
X060695Y078206D01*
X060775Y078166D01*
X060855Y078206D01*
X060815Y078126D01*
X060855Y078046D01*
X060775Y078086D01*
X060695Y078046D01*
X058473D02*
X058513Y078126D01*
X058473Y078206D01*
X058553Y078166D01*
X058633Y078206D01*
X058593Y078126D01*
X058633Y078046D01*
X058553Y078086D01*
X058473Y078046D01*
X05794Y078402D02*
X05798Y078482D01*
X05794Y078562D01*
X05802Y078522D01*
X0581Y078562D01*
X05806Y078482D01*
X0581Y078402D01*
X05802Y078442D01*
X05794Y078402D01*
X061682Y074467D02*
X061722Y074547D01*
X061682Y074627D01*
X061762Y074587D01*
X061842Y074627D01*
X061802Y074547D01*
X061842Y074467D01*
X061762Y074507D01*
X061682Y074467D01*
X061581Y075616D02*
X061621Y075696D01*
X061581Y075776D01*
X061661Y075736D01*
X061741Y075776D01*
X061701Y075696D01*
X061741Y075616D01*
X061661Y075656D01*
X061581Y075616D01*
X058305Y074374D02*
X058345Y074454D01*
X058305Y074534D01*
X058385Y074494D01*
X058465Y074534D01*
X058425Y074454D01*
X058465Y074374D01*
X058385Y074414D01*
X058305Y074374D01*
X058833Y076193D02*
X058873Y076273D01*
X058833Y076353D01*
X058913Y076313D01*
X058993Y076353D01*
X058953Y076273D01*
X058993Y076193D01*
X058913Y076233D01*
X058833Y076193D01*
X062474Y069018D02*
X062514Y069098D01*
X062474Y069178D01*
X062554Y069138D01*
X062634Y069178D01*
X062594Y069098D01*
X062634Y069018D01*
X062554Y069058D01*
X062474Y069018D01*
X056751Y068781D02*
X056791Y068861D01*
X056751Y068941D01*
X056831Y068901D01*
X056911Y068941D01*
X056871Y068861D01*
X056911Y068781D01*
X056831Y068821D01*
X056751Y068781D01*
X049181Y069482D02*
X049221Y069562D01*
X049181Y069642D01*
X049261Y069602D01*
X049341Y069642D01*
X049301Y069562D01*
X049341Y069482D01*
X049261Y069522D01*
X049181Y069482D01*
X052017Y068482D02*
X052057Y068562D01*
X052017Y068642D01*
X052097Y068602D01*
X052177Y068642D01*
X052137Y068562D01*
X052177Y068482D01*
X052097Y068522D01*
X052017Y068482D01*
X052833Y068472D02*
X052873Y068552D01*
X052833Y068632D01*
X052913Y068592D01*
X052993Y068632D01*
X052953Y068552D01*
X052993Y068472D01*
X052913Y068512D01*
X052833Y068472D01*
X054048Y069274D02*
X054088Y069354D01*
X054048Y069434D01*
X054128Y069394D01*
X054208Y069434D01*
X054168Y069354D01*
X054208Y069274D01*
X054128Y069314D01*
X054048Y069274D01*
X053891Y069971D02*
X053931Y070051D01*
X053891Y070131D01*
X053971Y070091D01*
X054051Y070131D01*
X054011Y070051D01*
X054051Y069971D01*
X053971Y070011D01*
X053891Y069971D01*
X054728Y077079D02*
X054768Y077159D01*
X054728Y077239D01*
X054808Y077199D01*
X054888Y077239D01*
X054848Y077159D01*
X054888Y077079D01*
X054808Y077119D01*
X054728Y077079D01*
X05543Y07762D02*
X05547Y0777D01*
X05543Y07778D01*
X05551Y07774D01*
X05559Y07778D01*
X05555Y0777D01*
X05559Y07762D01*
X05551Y07766D01*
X05543Y07762D01*
X053277Y077187D02*
X053317Y077267D01*
X053277Y077347D01*
X053357Y077307D01*
X053437Y077347D01*
X053397Y077267D01*
X053437Y077187D01*
X053357Y077227D01*
X053277Y077187D01*
Y07762D02*
X053317Y0777D01*
X053277Y07778D01*
X053357Y07774D01*
X053437Y07778D01*
X053397Y0777D01*
X053437Y07762D01*
X053357Y07766D01*
X053277Y07762D01*
X053359Y094433D02*
X053399Y094513D01*
X053359Y094593D01*
X053439Y094553D01*
X053519Y094593D01*
X053479Y094513D01*
X053519Y094433D01*
X053439Y094473D01*
X053359Y094433D01*
X053192Y096015D02*
X053232Y096095D01*
X053192Y096175D01*
X053272Y096135D01*
X053352Y096175D01*
X053312Y096095D01*
X053352Y096015D01*
X053272Y096055D01*
X053192Y096015D01*
X057546Y099014D02*
X057586Y099094D01*
X057546Y099174D01*
X057626Y099134D01*
X057706Y099174D01*
X057666Y099094D01*
X057706Y099014D01*
X057626Y099054D01*
X057546Y099014D01*
X061645Y09712D02*
X061685Y0972D01*
X061645Y09728D01*
X061725Y09724D01*
X061805Y09728D01*
X061765Y0972D01*
X061805Y09712D01*
X061725Y09716D01*
X061645Y09712D01*
X06002D02*
X06006Y0972D01*
X06002Y09728D01*
X0601Y09724D01*
X06018Y09728D01*
X06014Y0972D01*
X06018Y09712D01*
X0601Y09716D01*
X06002Y09712D01*
X05807D02*
X05811Y0972D01*
X05807Y09728D01*
X05815Y09724D01*
X05823Y09728D01*
X05819Y0972D01*
X05823Y09712D01*
X05815Y09716D01*
X05807Y09712D01*
X05638D02*
X05642Y0972D01*
X05638Y09728D01*
X05646Y09724D01*
X05654Y09728D01*
X0565Y0972D01*
X05654Y09712D01*
X05646Y09716D01*
X05638Y09712D01*
X05579Y092985D02*
X05583Y093065D01*
X05579Y093145D01*
X05587Y093105D01*
X05595Y093145D01*
X05591Y093065D01*
X05595Y092985D01*
X05587Y093025D01*
X05579Y092985D01*
X062322Y090048D02*
X062362Y090128D01*
X062322Y090208D01*
X062402Y090168D01*
X062482Y090208D01*
X062442Y090128D01*
X062482Y090048D01*
X062402Y090088D01*
X062322Y090048D01*
Y091696D02*
X062362Y091776D01*
X062322Y091856D01*
X062402Y091816D01*
X062482Y091856D01*
X062442Y091776D01*
X062482Y091696D01*
X062402Y091736D01*
X062322Y091696D01*
Y093343D02*
X062362Y093423D01*
X062322Y093503D01*
X062402Y093463D01*
X062482Y093503D01*
X062442Y093423D01*
X062482Y093343D01*
X062402Y093383D01*
X062322Y093343D01*
X055621Y094626D02*
X055661Y094706D01*
X055621Y094786D01*
X055701Y094746D01*
X055781Y094786D01*
X055741Y094706D01*
X055781Y094626D01*
X055701Y094666D01*
X055621Y094626D01*
X06221D02*
X06225Y094706D01*
X06221Y094786D01*
X062291Y094746D01*
X062371Y094786D01*
X06233Y094706D01*
X062371Y094626D01*
X062291Y094666D01*
X06221Y094626D01*
X060563D02*
X060603Y094706D01*
X060563Y094786D01*
X060643Y094746D01*
X060723Y094786D01*
X060683Y094706D01*
X060723Y094626D01*
X060643Y094666D01*
X060563Y094626D01*
X058916D02*
X058956Y094706D01*
X058916Y094786D01*
X058996Y094746D01*
X059076Y094786D01*
X059036Y094706D01*
X059076Y094626D01*
X058996Y094666D01*
X058916Y094626D01*
X057268D02*
X057308Y094706D01*
X057268Y094786D01*
X057348Y094746D01*
X057428Y094786D01*
X057388Y094706D01*
X057428Y094626D01*
X057348Y094666D01*
X057268Y094626D01*
X057306Y09584D02*
X057346Y09592D01*
X057306Y096D01*
X057386Y09596D01*
X057466Y096D01*
X057426Y09592D01*
X057466Y09584D01*
X057386Y09588D01*
X057306Y09584D01*
X058954D02*
X058994Y09592D01*
X058954Y096D01*
X059034Y09596D01*
X059114Y096D01*
X059074Y09592D01*
X059114Y09584D01*
X059034Y09588D01*
X058954Y09584D01*
X060601D02*
X060641Y09592D01*
X060601Y096D01*
X060681Y09596D01*
X060761Y096D01*
X060721Y09592D01*
X060761Y09584D01*
X060681Y09588D01*
X060601Y09584D01*
X062249D02*
X062289Y09592D01*
X062249Y096D01*
X062329Y09596D01*
X062409Y096D01*
X062369Y09592D01*
X062409Y09584D01*
X062329Y09588D01*
X062249Y09584D01*
X055659D02*
X055699Y09592D01*
X055659Y096D01*
X055739Y09596D01*
X055819Y096D01*
X055779Y09592D01*
X055819Y09584D01*
X055739Y09588D01*
X055659Y09584D01*
X057182Y089916D02*
X057222Y089996D01*
X057182Y090076D01*
X057262Y090036D01*
X057342Y090076D01*
X057302Y089996D01*
X057342Y089916D01*
X057262Y089956D01*
X057182Y089916D01*
X057839D02*
X057879Y089996D01*
X057839Y090076D01*
X057919Y090036D01*
X057999Y090076D01*
X057959Y089996D01*
X057999Y089916D01*
X057919Y089956D01*
X057839Y089916D01*
X058334D02*
X058374Y089996D01*
X058334Y090076D01*
X058414Y090036D01*
X058494Y090076D01*
X058454Y089996D01*
X058494Y089916D01*
X058414Y089956D01*
X058334Y089916D01*
X06002Y0898D02*
X06006Y08988D01*
X06002Y08996D01*
X0601Y08992D01*
X06018Y08996D01*
X06014Y08988D01*
X06018Y0898D01*
X0601Y08984D01*
X06002Y0898D01*
X061069Y089916D02*
X061109Y089996D01*
X061069Y090076D01*
X061149Y090036D01*
X061229Y090076D01*
X061189Y089996D01*
X061229Y089916D01*
X061149Y089956D01*
X061069Y089916D01*
X061272Y0904D02*
X061312Y09048D01*
X061272Y09056D01*
X061352Y09052D01*
X061432Y09056D01*
X061392Y09048D01*
X061432Y0904D01*
X061352Y09044D01*
X061272Y0904D01*
Y090858D02*
X061312Y090938D01*
X061272Y091018D01*
X061352Y090978D01*
X061432Y091018D01*
X061392Y090938D01*
X061432Y090858D01*
X061352Y090898D01*
X061272Y090858D01*
X061202Y091293D02*
X061242Y091373D01*
X061202Y091453D01*
X061282Y091413D01*
X061362Y091453D01*
X061322Y091373D01*
X061362Y091293D01*
X061282Y091333D01*
X061202Y091293D01*
X061272Y09172D02*
X061312Y0918D01*
X061272Y09188D01*
X061352Y09184D01*
X061432Y09188D01*
X061392Y0918D01*
X061432Y09172D01*
X061352Y09176D01*
X061272Y09172D01*
Y092122D02*
X061312Y092202D01*
X061272Y092282D01*
X061352Y092242D01*
X061432Y092282D01*
X061392Y092202D01*
X061432Y092122D01*
X061352Y092162D01*
X061272Y092122D01*
X061202Y092583D02*
X061242Y092663D01*
X061202Y092743D01*
X061282Y092703D01*
X061362Y092743D01*
X061322Y092663D01*
X061362Y092583D01*
X061282Y092623D01*
X061202Y092583D01*
X061006Y092985D02*
X061046Y093065D01*
X061006Y093145D01*
X061086Y093105D01*
X061166Y093145D01*
X061126Y093065D01*
X061166Y092985D01*
X061086Y093025D01*
X061006Y092985D01*
X060728Y093319D02*
X060768Y093399D01*
X060728Y093479D01*
X060808Y093439D01*
X060888Y093479D01*
X060848Y093399D01*
X060888Y093319D01*
X060808Y093359D01*
X060728Y093319D01*
X060204Y093447D02*
X060244Y093527D01*
X060204Y093607D01*
X060284Y093567D01*
X060364Y093607D01*
X060324Y093527D01*
X060364Y093447D01*
X060284Y093487D01*
X060204Y093447D01*
X059723Y093506D02*
X059763Y093586D01*
X059723Y093666D01*
X059803Y093626D01*
X059883Y093666D01*
X059843Y093586D01*
X059883Y093506D01*
X059803Y093546D01*
X059723Y093506D01*
X059352Y093735D02*
X059392Y093815D01*
X059352Y093895D01*
X059432Y093855D01*
X059512Y093895D01*
X059472Y093815D01*
X059512Y093735D01*
X059432Y093775D01*
X059352Y093735D01*
X059024Y093922D02*
X059064Y094002D01*
X059024Y094082D01*
X059104Y094042D01*
X059184Y094082D01*
X059144Y094002D01*
X059184Y093922D01*
X059104Y093962D01*
X059024Y093922D01*
X058694Y094038D02*
X058734Y094118D01*
X058694Y094198D01*
X058774Y094158D01*
X058854Y094198D01*
X058814Y094118D01*
X058854Y094038D01*
X058774Y094078D01*
X058694Y094038D01*
X058264D02*
X058304Y094118D01*
X058264Y094198D01*
X058344Y094158D01*
X058424Y094198D01*
X058384Y094118D01*
X058424Y094038D01*
X058344Y094078D01*
X058264Y094038D01*
X057839Y093735D02*
X057879Y093815D01*
X057839Y093895D01*
X057919Y093855D01*
X057999Y093895D01*
X057959Y093815D01*
X057999Y093735D01*
X057919Y093775D01*
X057839Y093735D01*
X057546Y093412D02*
X057586Y093492D01*
X057546Y093572D01*
X057626Y093532D01*
X057706Y093572D01*
X057666Y093492D01*
X057706Y093412D01*
X057626Y093452D01*
X057546Y093412D01*
X057456Y092985D02*
X057496Y093065D01*
X057456Y093145D01*
X057536Y093105D01*
X057616Y093145D01*
X057576Y093065D01*
X057616Y092985D01*
X057536Y093025D01*
X057456Y092985D01*
X057467Y092583D02*
X057507Y092663D01*
X057467Y092743D01*
X057547Y092703D01*
X057627Y092743D01*
X057587Y092663D01*
X057627Y092583D01*
X057547Y092623D01*
X057467Y092583D01*
X057679Y092174D02*
X057719Y092254D01*
X057679Y092334D01*
X057759Y092294D01*
X057839Y092334D01*
X057799Y092254D01*
X057839Y092174D01*
X057759Y092214D01*
X057679Y092174D01*
X057839Y091865D02*
X057879Y091945D01*
X057839Y092025D01*
X057919Y091985D01*
X057999Y092025D01*
X057959Y091945D01*
X057999Y091865D01*
X057919Y091905D01*
X057839Y091865D01*
X058277Y09172D02*
X058317Y0918D01*
X058277Y09188D01*
X058357Y09184D01*
X058437Y09188D01*
X058397Y0918D01*
X058437Y09172D01*
X058357Y09176D01*
X058277Y09172D01*
X058795D02*
X058835Y0918D01*
X058795Y09188D01*
X058875Y09184D01*
X058955Y09188D01*
X058915Y0918D01*
X058955Y09172D01*
X058875Y09176D01*
X058795Y09172D01*
X059352Y091865D02*
X059392Y091945D01*
X059352Y092025D01*
X059432Y091985D01*
X059512Y092025D01*
X059472Y091945D01*
X059512Y091865D01*
X059432Y091905D01*
X059352Y091865D01*
X059723D02*
X059763Y091945D01*
X059723Y092025D01*
X059803Y091985D01*
X059883Y092025D01*
X059843Y091945D01*
X059883Y091865D01*
X059803Y091905D01*
X059723Y091865D01*
Y0915D02*
X059763Y09158D01*
X059723Y09166D01*
X059803Y09162D01*
X059883Y09166D01*
X059843Y09158D01*
X059883Y0915D01*
X059803Y09154D01*
X059723Y0915D01*
X059352Y091175D02*
X059392Y091255D01*
X059352Y091335D01*
X059432Y091295D01*
X059512Y091335D01*
X059472Y091255D01*
X059512Y091175D01*
X059432Y091215D01*
X059352Y091175D01*
X06002Y09025D02*
X06006Y09033D01*
X06002Y09041D01*
X0601Y09037D01*
X06018Y09041D01*
X06014Y09033D01*
X06018Y09025D01*
X0601Y09029D01*
X06002Y09025D01*
X058432Y089531D02*
X058472Y089611D01*
X058432Y089691D01*
X058512Y089651D01*
X058592Y089691D01*
X058552Y089611D01*
X058592Y089531D01*
X058512Y089571D01*
X058432Y089531D01*
X053735Y090687D02*
X053775Y090767D01*
X053735Y090847D01*
X053815Y090807D01*
X053895Y090847D01*
X053855Y090767D01*
X053895Y090687D01*
X053815Y090727D01*
X053735Y090687D01*
X052932Y091003D02*
X052972Y091083D01*
X052932Y091163D01*
X053012Y091123D01*
X053092Y091163D01*
X053052Y091083D01*
X053092Y091003D01*
X053012Y091043D01*
X052932Y091003D01*
X059195Y090073D02*
X059235Y090153D01*
X059195Y090233D01*
X059275Y090193D01*
X059355Y090233D01*
X059315Y090153D01*
X059355Y090073D01*
X059275Y090113D01*
X059195Y090073D01*
X060132Y091616D02*
X060172Y091696D01*
X060132Y091776D01*
X060212Y091736D01*
X060292Y091776D01*
X060252Y091696D01*
X060292Y091616D01*
X060212Y091656D01*
X060132Y091616D01*
X060109Y092008D02*
X060149Y092088D01*
X060109Y092168D01*
X060189Y092128D01*
X060269Y092168D01*
X060229Y092088D01*
X060269Y092008D01*
X060189Y092048D01*
X060109Y092008D01*
X06002Y09237D02*
X06006Y09245D01*
X06002Y09253D01*
X0601Y09249D01*
X06018Y09253D01*
X06014Y09245D01*
X06018Y09237D01*
X0601Y09241D01*
X06002Y09237D01*
X059626Y092377D02*
X059666Y092457D01*
X059626Y092537D01*
X059706Y092497D01*
X059786Y092537D01*
X059746Y092457D01*
X059786Y092377D01*
X059706Y092417D01*
X059626Y092377D01*
X059297Y092268D02*
X059337Y092348D01*
X059297Y092428D01*
X059377Y092388D01*
X059457Y092428D01*
X059417Y092348D01*
X059457Y092268D01*
X059377Y092308D01*
X059297Y092268D01*
X058987Y092008D02*
X059027Y092088D01*
X058987Y092168D01*
X059067Y092128D01*
X059147Y092168D01*
X059107Y092088D01*
X059147Y092008D01*
X059067Y092048D01*
X058987Y092008D01*
X058559D02*
X058599Y092088D01*
X058559Y092168D01*
X058639Y092128D01*
X058719Y092168D01*
X058679Y092088D01*
X058719Y092008D01*
X058639Y092048D01*
X058559Y092008D01*
X058188Y092121D02*
X058228Y092201D01*
X058188Y092281D01*
X058268Y092241D01*
X058348Y092281D01*
X058308Y092201D01*
X058348Y092121D01*
X058268Y092161D01*
X058188Y092121D01*
X057925Y092401D02*
X057965Y092481D01*
X057925Y092561D01*
X058005Y092521D01*
X058085Y092561D01*
X058045Y092481D01*
X058085Y092401D01*
X058005Y092441D01*
X057925Y092401D01*
X057839Y09275D02*
X057879Y09283D01*
X057839Y09291D01*
X057919Y09287D01*
X057999Y09291D01*
X057959Y09283D01*
X057999Y09275D01*
X057919Y09279D01*
X057839Y09275D01*
Y093111D02*
X057879Y093191D01*
X057839Y093271D01*
X057919Y093231D01*
X057999Y093271D01*
X057959Y093191D01*
X057999Y093111D01*
X057919Y093151D01*
X057839Y093111D01*
X057998Y093412D02*
X058038Y093492D01*
X057998Y093572D01*
X058078Y093532D01*
X058158Y093572D01*
X058118Y093492D01*
X058158Y093412D01*
X058078Y093452D01*
X057998Y093412D01*
X058277Y093681D02*
X058317Y093761D01*
X058277Y093841D01*
X058357Y093801D01*
X058437Y093841D01*
X058397Y093761D01*
X058437Y093681D01*
X058357Y093721D01*
X058277Y093681D01*
X05866Y093697D02*
X0587Y093777D01*
X05866Y093857D01*
X05874Y093817D01*
X05882Y093857D01*
X05878Y093777D01*
X05882Y093697D01*
X05874Y093737D01*
X05866Y093697D01*
X059043Y093564D02*
X059083Y093644D01*
X059043Y093724D01*
X059123Y093684D01*
X059203Y093724D01*
X059163Y093644D01*
X059203Y093564D01*
X059123Y093604D01*
X059043Y093564D01*
X059352Y093357D02*
X059392Y093437D01*
X059352Y093517D01*
X059432Y093477D01*
X059512Y093517D01*
X059472Y093437D01*
X059512Y093357D01*
X059432Y093397D01*
X059352Y093357D01*
X059687Y093111D02*
X059727Y093191D01*
X059687Y093271D01*
X059767Y093231D01*
X059847Y093271D01*
X059807Y093191D01*
X059847Y093111D01*
X059767Y093151D01*
X059687Y093111D01*
X060095D02*
X060135Y093191D01*
X060095Y093271D01*
X060175Y093231D01*
X060255Y093271D01*
X060215Y093191D01*
X060255Y093111D01*
X060175Y093151D01*
X060095Y093111D01*
X060503Y092985D02*
X060543Y093065D01*
X060503Y093145D01*
X060583Y093105D01*
X060663Y093145D01*
X060623Y093065D01*
X060663Y092985D01*
X060583Y093025D01*
X060503Y092985D01*
X060815Y09265D02*
X060855Y09273D01*
X060815Y09281D01*
X060895Y09277D01*
X060975Y09281D01*
X060935Y09273D01*
X060975Y09265D01*
X060895Y09269D01*
X060815Y09265D01*
X060857Y092268D02*
X060897Y092348D01*
X060857Y092428D01*
X060937Y092388D01*
X061017Y092428D01*
X060977Y092348D01*
X061017Y092268D01*
X060937Y092308D01*
X060857Y092268D01*
Y091865D02*
X060897Y091945D01*
X060857Y092025D01*
X060937Y091985D01*
X061017Y092025D01*
X060977Y091945D01*
X061017Y091865D01*
X060937Y091905D01*
X060857Y091865D01*
Y091461D02*
X060897Y091541D01*
X060857Y091621D01*
X060937Y091581D01*
X061017Y091621D01*
X060977Y091541D01*
X061017Y091461D01*
X060937Y091501D01*
X060857Y091461D01*
Y091057D02*
X060897Y091137D01*
X060857Y091217D01*
X060937Y091177D01*
X061017Y091217D01*
X060977Y091137D01*
X061017Y091057D01*
X060937Y091097D01*
X060857Y091057D01*
Y090653D02*
X060897Y090733D01*
X060857Y090813D01*
X060937Y090773D01*
X061017Y090813D01*
X060977Y090733D01*
X061017Y090653D01*
X060937Y090693D01*
X060857Y090653D01*
Y09025D02*
X060897Y09033D01*
X060857Y09041D01*
X060937Y09037D01*
X061017Y09041D01*
X060977Y09033D01*
X061017Y09025D01*
X060937Y09029D01*
X060857Y09025D01*
X059723Y090073D02*
X059763Y090153D01*
X059723Y090233D01*
X059803Y090193D01*
X059883Y090233D01*
X059843Y090153D01*
X059883Y090073D01*
X059803Y090113D01*
X059723Y090073D01*
X059799Y091101D02*
X059839Y091181D01*
X059799Y091261D01*
X059879Y091221D01*
X059959Y091261D01*
X059919Y091181D01*
X059959Y091101D01*
X059879Y091141D01*
X059799Y091101D01*
X058322Y09031D02*
X058362Y09039D01*
X058322Y09047D01*
X058402Y09043D01*
X058482Y09047D01*
X058442Y09039D01*
X058482Y09031D01*
X058402Y09035D01*
X058322Y09031D01*
X057839D02*
X057879Y09039D01*
X057839Y09047D01*
X057919Y09043D01*
X057999Y09047D01*
X057959Y09039D01*
X057999Y09031D01*
X057919Y09035D01*
X057839Y09031D01*
X057074Y09032D02*
X057114Y0904D01*
X057074Y09048D01*
X057154Y09044D01*
X057234Y09048D01*
X057194Y0904D01*
X057234Y09032D01*
X057154Y09036D01*
X057074Y09032D01*
X058987Y09106D02*
X059027Y09114D01*
X058987Y09122D01*
X059067Y09118D01*
X059147Y09122D01*
X059107Y09114D01*
X059147Y09106D01*
X059067Y0911D01*
X058987Y09106D01*
X058604D02*
X058644Y09114D01*
X058604Y09122D01*
X058684Y09118D01*
X058764Y09122D01*
X058724Y09114D01*
X058764Y09106D01*
X058684Y0911D01*
X058604Y09106D01*
X058221D02*
X058261Y09114D01*
X058221Y09122D01*
X058301Y09118D01*
X058381Y09122D01*
X058341Y09114D01*
X058381Y09106D01*
X058301Y0911D01*
X058221Y09106D01*
X057839D02*
X057879Y09114D01*
X057839Y09122D01*
X057919Y09118D01*
X057999Y09122D01*
X057959Y09114D01*
X057999Y09106D01*
X057919Y0911D01*
X057839Y09106D01*
X057456Y091175D02*
X057496Y091255D01*
X057456Y091335D01*
X057536Y091295D01*
X057616Y091335D01*
X057576Y091255D01*
X057616Y091175D01*
X057536Y091215D01*
X057456Y091175D01*
X057074Y090956D02*
X057114Y091036D01*
X057074Y091116D01*
X057154Y091076D01*
X057234Y091116D01*
X057194Y091036D01*
X057234Y090956D01*
X057154Y090996D01*
X057074Y090956D01*
X04788Y093735D02*
X04792Y093815D01*
X04788Y093895D01*
X04796Y093855D01*
X04804Y093895D01*
X048Y093815D01*
X04804Y093735D01*
X04796Y093775D01*
X04788Y093735D01*
X046904Y093744D02*
X046944Y093824D01*
X046904Y093904D01*
X046984Y093864D01*
X047064Y093904D01*
X047024Y093824D01*
X047064Y093744D01*
X046984Y093784D01*
X046904Y093744D01*
X046793Y092458D02*
X046833Y092538D01*
X046793Y092618D01*
X046873Y092578D01*
X046953Y092618D01*
X046913Y092538D01*
X046953Y092458D01*
X046873Y092498D01*
X046793Y092458D01*
X047283Y094433D02*
X047323Y094513D01*
X047283Y094593D01*
X047363Y094553D01*
X047443Y094593D01*
X047403Y094513D01*
X047443Y094433D01*
X047363Y094473D01*
X047283Y094433D01*
X05543Y090718D02*
X05547Y090798D01*
X05543Y090878D01*
X05551Y090838D01*
X05559Y090878D01*
X05555Y090798D01*
X05559Y090718D01*
X05551Y090758D01*
X05543Y090718D01*
X051244Y08618D02*
X051284Y08626D01*
X051244Y08634D01*
X051324Y0863D01*
X051404Y08634D01*
X051364Y08626D01*
X051404Y08618D01*
X051324Y08622D01*
X051244Y08618D01*
X051949Y082746D02*
X051989Y082826D01*
X051949Y082906D01*
X052029Y082866D01*
X052109Y082906D01*
X052069Y082826D01*
X052109Y082746D01*
X052029Y082786D01*
X051949Y082746D01*
X047839Y086957D02*
X047879Y087037D01*
X047839Y087117D01*
X047919Y087077D01*
X047999Y087117D01*
X047959Y087037D01*
X047999Y086957D01*
X047919Y086997D01*
X047839Y086957D01*
X053998Y08618D02*
X054038Y08626D01*
X053998Y08634D01*
X054078Y0863D01*
X054158Y08634D01*
X054118Y08626D01*
X054158Y08618D01*
X054078Y08622D01*
X053998Y08618D01*
X055566Y088106D02*
X055606Y088186D01*
X055566Y088266D01*
X055646Y088226D01*
X055726Y088266D01*
X055686Y088186D01*
X055726Y088106D01*
X055646Y088146D01*
X055566Y088106D01*
X050703Y085901D02*
X050743Y085981D01*
X050703Y086061D01*
X050783Y086021D01*
X050863Y086061D01*
X050823Y085981D01*
X050863Y085901D01*
X050783Y085941D01*
X050703Y085901D01*
X047934Y089916D02*
X047974Y089996D01*
X047934Y090076D01*
X048014Y090036D01*
X048094Y090076D01*
X048054Y089996D01*
X048094Y089916D01*
X048014Y089956D01*
X047934Y089916D01*
X05104Y0898D02*
X05108Y08988D01*
X05104Y08996D01*
X05112Y08992D01*
X0512Y08996D01*
X05116Y08988D01*
X0512Y0898D01*
X05112Y08984D01*
X05104Y0898D01*
X049052Y090496D02*
X049092Y090576D01*
X049052Y090656D01*
X049132Y090616D01*
X049212Y090656D01*
X049172Y090576D01*
X049212Y090496D01*
X049132Y090536D01*
X049052Y090496D01*
X049181Y073819D02*
X049221Y073899D01*
X049181Y073979D01*
X049261Y073939D01*
X049341Y073979D01*
X049301Y073899D01*
X049341Y073819D01*
X049261Y073859D01*
X049181Y073819D01*
X049456Y082991D02*
X049496Y083071D01*
X049456Y083151D01*
X049536Y083111D01*
X049616Y083151D01*
X049576Y083071D01*
X049616Y082991D01*
X049536Y083031D01*
X049456Y082991D01*
X048359Y081446D02*
X048399Y081526D01*
X048359Y081606D01*
X048439Y081566D01*
X048519Y081606D01*
X048479Y081526D01*
X048519Y081446D01*
X048439Y081486D01*
X048359Y081446D01*
X048103Y081978D02*
X048143Y082058D01*
X048103Y082138D01*
X048183Y082098D01*
X048263Y082138D01*
X048223Y082058D01*
X048263Y081978D01*
X048183Y082018D01*
X048103Y081978D01*
X047934Y081014D02*
X047974Y081094D01*
X047934Y081174D01*
X048014Y081134D01*
X048094Y081174D01*
X048054Y081094D01*
X048094Y081014D01*
X048014Y081054D01*
X047934Y081014D01*
X048237Y080727D02*
X048277Y080807D01*
X048237Y080887D01*
X048317Y080847D01*
X048397Y080887D01*
X048357Y080807D01*
X048397Y080727D01*
X048317Y080767D01*
X048237Y080727D01*
X047016Y06817D02*
X047056Y06825D01*
X047016Y06833D01*
X047096Y06829D01*
X047176Y06833D01*
X047136Y06825D01*
X047176Y06817D01*
X047096Y06821D01*
X047016Y06817D01*
X047993Y083522D02*
X048033Y083602D01*
X047993Y083682D01*
X048073Y083642D01*
X048153Y083682D01*
X048113Y083602D01*
X048153Y083522D01*
X048073Y083562D01*
X047993Y083522D01*
X052538Y082934D02*
X052578Y083014D01*
X052538Y083094D01*
X052618Y083054D01*
X052698Y083094D01*
X052658Y083014D01*
X052698Y082934D01*
X052618Y082974D01*
X052538Y082934D01*
X052339Y078472D02*
X052379Y078552D01*
X052339Y078632D01*
X052419Y078592D01*
X052499Y078632D01*
X052459Y078552D01*
X052499Y078472D01*
X052419Y078512D01*
X052339Y078472D01*
X052733D02*
X052773Y078552D01*
X052733Y078632D01*
X052813Y078592D01*
X052893Y078632D01*
X052853Y078552D01*
X052893Y078472D01*
X052813Y078512D01*
X052733Y078472D01*
X05543Y079134D02*
X05547Y079214D01*
X05543Y079294D01*
X05551Y079254D01*
X05559Y079294D01*
X05555Y079214D01*
X05559Y079134D01*
X05551Y079174D01*
X05543Y079134D01*
X055461Y079468D02*
X055501Y079548D01*
X055461Y079628D01*
X055541Y079588D01*
X055621Y079628D01*
X055581Y079548D01*
X055621Y079468D01*
X055541Y079508D01*
X055461Y079468D01*
X055362Y078291D02*
X055402Y078371D01*
X055362Y078451D01*
X055442Y078411D01*
X055522Y078451D01*
X055482Y078371D01*
X055522Y078291D01*
X055442Y078331D01*
X055362Y078291D01*
X053247D02*
X053287Y078371D01*
X053247Y078451D01*
X053327Y078411D01*
X053407Y078451D01*
X053367Y078371D01*
X053407Y078291D01*
X053327Y078331D01*
X053247Y078291D01*
X051653Y075294D02*
X051693Y075374D01*
X051653Y075454D01*
X051733Y075414D01*
X051813Y075454D01*
X051773Y075374D01*
X051813Y075294D01*
X051733Y075334D01*
X051653Y075294D01*
Y075682D02*
X051693Y075762D01*
X051653Y075842D01*
X051733Y075802D01*
X051813Y075842D01*
X051773Y075762D01*
X051813Y075682D01*
X051733Y075722D01*
X051653Y075682D01*
X052017Y075452D02*
X052057Y075532D01*
X052017Y075612D01*
X052097Y075572D01*
X052177Y075612D01*
X052137Y075532D01*
X052177Y075452D01*
X052097Y075492D01*
X052017Y075452D01*
X051262Y075431D02*
X051302Y075511D01*
X051262Y075591D01*
X051342Y075551D01*
X051422Y075591D01*
X051382Y075511D01*
X051422Y075431D01*
X051342Y075471D01*
X051262Y075431D01*
X052017Y075053D02*
X052057Y075133D01*
X052017Y075213D01*
X052097Y075173D01*
X052177Y075213D01*
X052137Y075133D01*
X052177Y075053D01*
X052097Y075093D01*
X052017Y075053D01*
X051309Y075087D02*
X051349Y075167D01*
X051309Y075247D01*
X051389Y075207D01*
X051469Y075247D01*
X051429Y075167D01*
X051469Y075087D01*
X051389Y075127D01*
X051309Y075087D01*
X052017Y075816D02*
X052057Y075896D01*
X052017Y075976D01*
X052097Y075936D01*
X052177Y075976D01*
X052137Y075896D01*
X052177Y075816D01*
X052097Y075856D01*
X052017Y075816D01*
X051262Y075823D02*
X051302Y075903D01*
X051262Y075983D01*
X051342Y075943D01*
X051422Y075983D01*
X051382Y075903D01*
X051422Y075823D01*
X051342Y075863D01*
X051262Y075823D01*
X05293Y082689D02*
X05297Y082768D01*
X05293Y082849D01*
X05301Y082809D01*
X05309Y082849D01*
X05305Y082768D01*
X05309Y082689D01*
X05301Y082729D01*
X05293Y082689D01*
X053094Y083015D02*
X053134Y083095D01*
X053094Y083175D01*
X053174Y083135D01*
X053254Y083175D01*
X053214Y083095D01*
X053254Y083015D01*
X053174Y083055D01*
X053094Y083015D01*
X053393Y080223D02*
X053433Y080303D01*
X053393Y080383D01*
X053473Y080343D01*
X053553Y080383D01*
X053513Y080303D01*
X053553Y080223D01*
X053473Y080263D01*
X053393Y080223D01*
X051867Y078348D02*
X051907Y078428D01*
X051867Y078508D01*
X051947Y078468D01*
X052027Y078508D01*
X051987Y078428D01*
X052027Y078348D01*
X051947Y078388D01*
X051867Y078348D01*
X055362Y080935D02*
X055402Y081015D01*
X055362Y081095D01*
X055442Y081055D01*
X055522Y081095D01*
X055482Y081015D01*
X055522Y080935D01*
X055442Y080975D01*
X055362Y080935D01*
X05933Y07775D02*
X05937Y07783D01*
X05933Y07791D01*
X05941Y07787D01*
X05949Y07791D01*
X05945Y07783D01*
X05949Y07775D01*
X05941Y07779D01*
X05933Y07775D01*
X059723D02*
X059763Y07783D01*
X059723Y07791D01*
X059803Y07787D01*
X059883Y07791D01*
X059843Y07783D01*
X059883Y07775D01*
X059803Y07779D01*
X059723Y07775D01*
X060149D02*
X060189Y07783D01*
X060149Y07791D01*
X060229Y07787D01*
X060309Y07791D01*
X060269Y07783D01*
X060309Y07775D01*
X060229Y07779D01*
X060149Y07775D01*
X060108Y07804D02*
X060148Y07812D01*
X060108Y0782D01*
X060188Y07816D01*
X060268Y0782D01*
X060228Y07812D01*
X060268Y07804D01*
X060188Y07808D01*
X060108Y07804D01*
X059723D02*
X059763Y07812D01*
X059723Y0782D01*
X059803Y07816D01*
X059883Y0782D01*
X059843Y07812D01*
X059883Y07804D01*
X059803Y07808D01*
X059723Y07804D01*
X059307Y078046D02*
X059347Y078126D01*
X059307Y078206D01*
X059387Y078166D01*
X059467Y078206D01*
X059427Y078126D01*
X059467Y078046D01*
X059387Y078086D01*
X059307Y078046D01*
X0597Y078332D02*
X05974Y078412D01*
X0597Y078492D01*
X05978Y078452D01*
X05986Y078492D01*
X05982Y078412D01*
X05986Y078332D01*
X05978Y078372D01*
X0597Y078332D01*
X060127D02*
X060167Y078412D01*
X060127Y078492D01*
X060207Y078452D01*
X060287Y078492D01*
X060247Y078412D01*
X060287Y078332D01*
X060207Y078372D01*
X060127Y078332D01*
X059303D02*
X059343Y078412D01*
X059303Y078492D01*
X059383Y078452D01*
X059463Y078492D01*
X059423Y078412D01*
X059463Y078332D01*
X059383Y078372D01*
X059303Y078332D01*
X058305Y075535D02*
X058345Y075615D01*
X058305Y075695D01*
X058385Y075655D01*
X058465Y075695D01*
X058425Y075615D01*
X058465Y075535D01*
X058385Y075575D01*
X058305Y075535D01*
X059687Y087947D02*
X059727Y088027D01*
X059687Y088107D01*
X059767Y088067D01*
X059847Y088107D01*
X059807Y088027D01*
X059847Y087947D01*
X059767Y087987D01*
X059687Y087947D01*
X059043Y087317D02*
X059083Y087397D01*
X059043Y087477D01*
X059123Y087437D01*
X059203Y087477D01*
X059163Y087397D01*
X059203Y087317D01*
X059123Y087357D01*
X059043Y087317D01*
X053548Y079312D02*
X053588Y079392D01*
X053548Y079472D01*
X053628Y079432D01*
X053708Y079472D01*
X053668Y079392D01*
X053708Y079312D01*
X053628Y079352D01*
X053548Y079312D01*
X05344Y079889D02*
X05348Y079969D01*
X05344Y080049D01*
X05352Y080009D01*
X0536Y080049D01*
X05356Y079969D01*
X0536Y079889D01*
X05352Y079929D01*
X05344Y079889D01*
X047934Y072309D02*
X047974Y072389D01*
X047934Y072469D01*
X048014Y072429D01*
X048094Y072469D01*
X048054Y072389D01*
X048094Y072309D01*
X048014Y072349D01*
X047934Y072309D01*
X051299Y072778D02*
X051339Y072858D01*
X051299Y072938D01*
X051379Y072898D01*
X051459Y072938D01*
X051419Y072858D01*
X051459Y072778D01*
X051379Y072818D01*
X051299Y072778D01*
X054159Y075815D02*
X054199Y075895D01*
X054159Y075975D01*
X054239Y075935D01*
X054319Y075975D01*
X054279Y075895D01*
X054319Y075815D01*
X054239Y075855D01*
X054159Y075815D01*
X054048Y0743D02*
X054088Y07438D01*
X054048Y07446D01*
X054128Y07442D01*
X054208Y07446D01*
X054168Y07438D01*
X054208Y0743D01*
X054128Y07434D01*
X054048Y0743D01*
X055401Y074285D02*
X055441Y074365D01*
X055401Y074445D01*
X055481Y074405D01*
X055561Y074445D01*
X055521Y074365D01*
X055561Y074285D01*
X055481Y074325D01*
X055401Y074285D01*
X050536Y069485D02*
X050576Y069565D01*
X050536Y069645D01*
X050616Y069605D01*
X050696Y069645D01*
X050656Y069565D01*
X050696Y069485D01*
X050616Y069525D01*
X050536Y069485D01*
X056767Y078332D02*
X056807Y078412D01*
X056767Y078492D01*
X056847Y078452D01*
X056927Y078492D01*
X056887Y078412D01*
X056927Y078332D01*
X056847Y078372D01*
X056767Y078332D01*
X049868Y082912D02*
X049908Y082992D01*
X049868Y083072D01*
X049948Y083032D01*
X050028Y083072D01*
X049988Y082992D01*
X050028Y082912D01*
X049948Y082952D01*
X049868Y082912D01*
X050453Y074107D02*
X050493Y074187D01*
X050453Y074267D01*
X050533Y074227D01*
X050613Y074267D01*
X050573Y074187D01*
X050613Y074107D01*
X050533Y074147D01*
X050453Y074107D01*
X05012Y0743D02*
X05016Y07438D01*
X05012Y07446D01*
X0502Y07442D01*
X05028Y07446D01*
X05024Y07438D01*
X05028Y0743D01*
X0502Y07434D01*
X05012Y0743D01*
X057803Y070785D02*
X057843Y070865D01*
X057803Y070945D01*
X057883Y070905D01*
X057963Y070945D01*
X057923Y070865D01*
X057963Y070785D01*
X057883Y070825D01*
X057803Y070785D01*
X05579Y083015D02*
X05583Y083095D01*
X05579Y083175D01*
X05587Y083135D01*
X05595Y083175D01*
X05591Y083095D01*
X05595Y083015D01*
X05587Y083055D01*
X05579Y083015D01*
X060931Y071114D02*
X060971Y071194D01*
X060931Y071274D01*
X061011Y071234D01*
X061091Y071274D01*
X061051Y071194D01*
X061091Y071114D01*
X061011Y071154D01*
X060931Y071114D01*
X056909Y069977D02*
X056949Y070057D01*
X056909Y070137D01*
X056989Y070097D01*
X057069Y070137D01*
X057029Y070057D01*
X057069Y069977D01*
X056989Y070017D01*
X056909Y069977D01*
X051612Y071089D02*
X051652Y071168D01*
X051612Y071248D01*
X051692Y071209D01*
X051772Y071248D01*
X051732Y071168D01*
X051772Y071089D01*
X051692Y071129D01*
X051612Y071089D01*
X043597Y08245D02*
X043637Y08253D01*
X043597Y08261D01*
X043677Y08257D01*
X043757Y08261D01*
X043717Y08253D01*
X043757Y08245D01*
X043677Y08249D01*
X043597Y08245D01*
X05104Y082991D02*
X05108Y083071D01*
X05104Y083151D01*
X05112Y083111D01*
X0512Y083151D01*
X05116Y083071D01*
X0512Y082991D01*
X05112Y083031D01*
X05104Y082991D01*
X05794Y08728D02*
X05798Y08736D01*
X05794Y08744D01*
X05802Y0874D01*
X0581Y08744D01*
X05806Y08736D01*
X0581Y08728D01*
X05802Y08732D01*
X05794Y08728D01*
X057934Y079541D02*
X057974Y079621D01*
X057934Y079701D01*
X058014Y079661D01*
X058094Y079701D01*
X058054Y079621D01*
X058094Y079541D01*
X058014Y079581D01*
X057934Y079541D01*
X057546Y087448D02*
X057586Y087528D01*
X057546Y087608D01*
X057626Y087568D01*
X057706Y087608D01*
X057666Y087528D01*
X057706Y087448D01*
X057626Y087488D01*
X057546Y087448D01*
X05668Y075815D02*
X05672Y075895D01*
X05668Y075975D01*
X05676Y075935D01*
X05684Y075975D01*
X0568Y075895D01*
X05684Y075815D01*
X05676Y075855D01*
X05668Y075815D01*
X055659Y086411D02*
X055699Y086491D01*
X055659Y086571D01*
X055739Y086531D01*
X055819Y086571D01*
X055779Y086491D01*
X055819Y086411D01*
X055739Y086451D01*
X055659Y086411D01*
X057517Y079075D02*
X057557Y079155D01*
X057517Y079235D01*
X057597Y079195D01*
X057677Y079235D01*
X057637Y079155D01*
X057677Y079075D01*
X057597Y079115D01*
X057517Y079075D01*
X057182Y086617D02*
X057222Y086697D01*
X057182Y086777D01*
X057262Y086737D01*
X057342Y086777D01*
X057302Y086697D01*
X057342Y086617D01*
X057262Y086657D01*
X057182Y086617D01*
X049714Y072575D02*
X049754Y072655D01*
X049714Y072735D01*
X049794Y072695D01*
X049874Y072735D01*
X049834Y072655D01*
X049874Y072575D01*
X049794Y072615D01*
X049714Y072575D01*
X054616Y067659D02*
X054656Y067739D01*
X054616Y067819D01*
X054696Y067779D01*
X054776Y067819D01*
X054736Y067739D01*
X054776Y067659D01*
X054696Y067699D01*
X054616Y067659D01*
X054159Y066217D02*
X054199Y066297D01*
X054159Y066377D01*
X054239Y066337D01*
X054319Y066377D01*
X054279Y066297D01*
X054319Y066217D01*
X054239Y066257D01*
X054159Y066217D01*
Y066634D02*
X054199Y066714D01*
X054159Y066794D01*
X054239Y066754D01*
X054319Y066794D01*
X054279Y066714D01*
X054319Y066634D01*
X054239Y066674D01*
X054159Y066634D01*
X060787Y07681D02*
X060827Y07689D01*
X060787Y07697D01*
X060867Y07693D01*
X060947Y07697D01*
X060907Y07689D01*
X060947Y07681D01*
X060867Y07685D01*
X060787Y07681D01*
X061254Y079075D02*
X061294Y079155D01*
X061254Y079235D01*
X061334Y079195D01*
X061414Y079235D01*
X061374Y079155D01*
X061414Y079075D01*
X061334Y079115D01*
X061254Y079075D01*
X06175Y077187D02*
X06179Y077267D01*
X06175Y077347D01*
X06183Y077307D01*
X06191Y077347D01*
X06187Y077267D01*
X06191Y077187D01*
X06183Y077227D01*
X06175Y077187D01*
X059721Y079889D02*
X059761Y079969D01*
X059721Y080049D01*
X059801Y080009D01*
X059881Y080049D01*
X059841Y079969D01*
X059881Y079889D01*
X059801Y079929D01*
X059721Y079889D01*
X059032Y075385D02*
X059072Y075465D01*
X059032Y075545D01*
X059112Y075505D01*
X059192Y075545D01*
X059152Y075465D01*
X059192Y075385D01*
X059112Y075425D01*
X059032Y075385D01*
X061033Y074101D02*
X061073Y074181D01*
X061033Y074261D01*
X061113Y074221D01*
X061193Y074261D01*
X061153Y074181D01*
X061193Y074101D01*
X061113Y074141D01*
X061033Y074101D01*
X055555Y083999D02*
X055595Y084079D01*
X055555Y084159D01*
X055635Y084119D01*
X055715Y084159D01*
X055675Y084079D01*
X055715Y083999D01*
X055635Y084039D01*
X055555Y083999D01*
X062474Y074155D02*
X062514Y074235D01*
X062474Y074315D01*
X062554Y074275D01*
X062634Y074315D01*
X062594Y074235D01*
X062634Y074155D01*
X062554Y074195D01*
X062474Y074155D01*
X053299Y092522D02*
X053339Y092602D01*
X053299Y092682D01*
X053379Y092642D01*
X053459Y092682D01*
X053419Y092602D01*
X053459Y092522D01*
X053379Y092562D01*
X053299Y092522D01*
X051461Y092148D02*
X051501Y092228D01*
X051461Y092308D01*
X051541Y092268D01*
X051621Y092308D01*
X051581Y092228D01*
X051621Y092148D01*
X051541Y092188D01*
X051461Y092148D01*
X051103D02*
X051143Y092228D01*
X051103Y092308D01*
X051183Y092268D01*
X051263Y092308D01*
X051223Y092228D01*
X051263Y092148D01*
X051183Y092188D01*
X051103Y092148D01*
X050255D02*
X050295Y092228D01*
X050255Y092308D01*
X050335Y092268D01*
X050415Y092308D01*
X050375Y092228D01*
X050415Y092148D01*
X050335Y092188D01*
X050255Y092148D01*
X049627Y092951D02*
X049667Y093031D01*
X049627Y093111D01*
X049707Y093071D01*
X049787Y093111D01*
X049747Y093031D01*
X049787Y092951D01*
X049707Y092991D01*
X049627Y092951D01*
X049868Y092148D02*
X049908Y092228D01*
X049868Y092308D01*
X049948Y092268D01*
X050028Y092308D01*
X049988Y092228D01*
X050028Y092148D01*
X049948Y092188D01*
X049868Y092148D01*
X053325Y090399D02*
X053365Y090479D01*
X053325Y090559D01*
X053405Y090519D01*
X053485Y090559D01*
X053445Y090479D01*
X053485Y090399D01*
X053405Y090439D01*
X053325Y090399D01*
X052527Y089746D02*
X052567Y089826D01*
X052527Y089906D01*
X052607Y089866D01*
X052687Y089906D01*
X052647Y089826D01*
X052687Y089746D01*
X052607Y089786D01*
X052527Y089746D01*
X053803Y085102D02*
X053843Y085182D01*
X053803Y085262D01*
X053883Y085222D01*
X053963Y085262D01*
X053923Y085182D01*
X053963Y085102D01*
X053883Y085142D01*
X053803Y085102D01*
X05012Y081059D02*
X05016Y081139D01*
X05012Y081219D01*
X0502Y081179D01*
X05028Y081219D01*
X05024Y081139D01*
X05028Y081059D01*
X0502Y081099D01*
X05012Y081059D01*
X047838Y081487D02*
X047878Y081567D01*
X047838Y081647D01*
X047918Y081607D01*
X047998Y081647D01*
X047958Y081567D01*
X047998Y081487D01*
X047918Y081527D01*
X047838Y081487D01*
X048559Y090518D02*
X048599Y090598D01*
X048559Y090678D01*
X048639Y090638D01*
X048719Y090678D01*
X048679Y090598D01*
X048719Y090518D01*
X048639Y090558D01*
X048559Y090518D01*
X057365Y073807D02*
X057405Y073887D01*
X057365Y073967D01*
X057445Y073927D01*
X057525Y073967D01*
X057485Y073887D01*
X057525Y073807D01*
X057445Y073847D01*
X057365Y073807D01*
X052833Y073499D02*
X052873Y073579D01*
X052833Y073659D01*
X052913Y073619D01*
X052993Y073659D01*
X052953Y073579D01*
X052993Y073499D01*
X052913Y073539D01*
X052833Y073499D01*
X051739Y093048D02*
X051778Y093128D01*
X051739Y093208D01*
X051818Y093168D01*
X051898Y093208D01*
X051859Y093128D01*
X051898Y093048D01*
X051818Y093088D01*
X051739Y093048D01*
X050703D02*
X050743Y093128D01*
X050703Y093208D01*
X050783Y093168D01*
X050863Y093208D01*
X050823Y093128D01*
X050863Y093048D01*
X050783Y093088D01*
X050703Y093048D01*
X052213Y093319D02*
X052253Y093399D01*
X052213Y093479D01*
X052293Y093439D01*
X052373Y093479D01*
X052333Y093399D01*
X052373Y093319D01*
X052293Y093359D01*
X052213Y093319D01*
X04915Y095046D02*
X04919Y095126D01*
X04915Y095206D01*
X04923Y095166D01*
X04931Y095206D01*
X04927Y095126D01*
X04931Y095046D01*
X04923Y095086D01*
X04915Y095046D01*
X053803Y084424D02*
X053843Y084504D01*
X053803Y084584D01*
X053883Y084544D01*
X053963Y084584D01*
X053923Y084504D01*
X053963Y084424D01*
X053883Y084464D01*
X053803Y084424D01*
X05579Y08519D02*
X05583Y08527D01*
X05579Y08535D01*
X05587Y08531D01*
X05595Y08535D01*
X05591Y08527D01*
X05595Y08519D01*
X05587Y08523D01*
X05579Y08519D01*
X046112Y096369D02*
X046152Y096449D01*
X046112Y096529D01*
X046192Y096489D01*
X046272Y096529D01*
X046232Y096449D01*
X046272Y096369D01*
X046192Y096409D01*
X046112Y096369D01*
X049208Y096674D02*
X049248Y096754D01*
X049208Y096834D01*
X049288Y096794D01*
X049368Y096834D01*
X049328Y096754D01*
X049368Y096674D01*
X049288Y096714D01*
X049208Y096674D01*
X049149Y097038D02*
X049189Y097118D01*
X049149Y097198D01*
X049229Y097158D01*
X049309Y097198D01*
X049269Y097118D01*
X049309Y097038D01*
X049229Y097078D01*
X049149Y097038D01*
X053077Y092919D02*
X053117Y092999D01*
X053077Y093079D01*
X053157Y093039D01*
X053237Y093079D01*
X053197Y092999D01*
X053237Y092919D01*
X053157Y092959D01*
X053077Y092919D01*
X052856Y093268D02*
X052896Y093348D01*
X052856Y093428D01*
X052936Y093388D01*
X053016Y093428D01*
X052976Y093348D01*
X053016Y093268D01*
X052936Y093308D01*
X052856Y093268D01*
X053299D02*
X053339Y093348D01*
X053299Y093428D01*
X053379Y093388D01*
X053459Y093428D01*
X053419Y093348D01*
X053459Y093268D01*
X053379Y093308D01*
X053299Y093268D01*
X052856Y092522D02*
X052896Y092602D01*
X052856Y092682D01*
X052936Y092642D01*
X053016Y092682D01*
X052976Y092602D01*
X053016Y092522D01*
X052936Y092562D01*
X052856Y092522D01*
X054656Y090858D02*
X054696Y090938D01*
X054656Y091018D01*
X054736Y090978D01*
X054816Y091018D01*
X054776Y090938D01*
X054816Y090858D01*
X054736Y090898D01*
X054656Y090858D01*
X046202Y097748D02*
X046242Y097828D01*
X046202Y097908D01*
X046282Y097868D01*
X046362Y097908D01*
X046322Y097828D01*
X046362Y097748D01*
X046282Y097788D01*
X046202Y097748D01*
X045811Y097352D02*
X045851Y097432D01*
X045811Y097512D01*
X045891Y097472D01*
X045971Y097512D01*
X045931Y097432D01*
X045971Y097352D01*
X045891Y097392D01*
X045811Y097352D01*
X042524Y082186D02*
X042564Y082266D01*
X042524Y082346D01*
X042604Y082306D01*
X042684Y082346D01*
X042644Y082266D01*
X042684Y082186D01*
X042604Y082226D01*
X042524Y082186D01*
X045312Y086282D02*
X045352Y086362D01*
X045312Y086442D01*
X045392Y086402D01*
X045472Y086442D01*
X045432Y086362D01*
X045472Y086282D01*
X045392Y086322D01*
X045312Y086282D01*
X051249Y098601D02*
X051289Y098681D01*
X051249Y098761D01*
X051329Y098721D01*
X051409Y098761D01*
X051369Y098681D01*
X051409Y098601D01*
X051329Y098641D01*
X051249Y098601D01*
X053547Y098489D02*
X053587Y098569D01*
X053547Y098649D01*
X053627Y098609D01*
X053707Y098649D01*
X053667Y098569D01*
X053707Y098489D01*
X053627Y098529D01*
X053547Y098489D01*
X052897D02*
X052937Y098569D01*
X052897Y098649D01*
X052977Y098609D01*
X053057Y098649D01*
X053017Y098569D01*
X053057Y098489D01*
X052977Y098529D01*
X052897Y098489D01*
X055158Y098488D02*
X055198Y098568D01*
X055158Y098648D01*
X055238Y098608D01*
X055318Y098648D01*
X055278Y098568D01*
X055318Y098488D01*
X055238Y098528D01*
X055158Y098488D01*
X054743Y098489D02*
X054783Y098569D01*
X054743Y098649D01*
X054823Y098609D01*
X054903Y098649D01*
X054863Y098569D01*
X054903Y098489D01*
X054823Y098529D01*
X054743Y098489D01*
X062474Y071622D02*
X062514Y071702D01*
X062474Y071782D01*
X062554Y071742D01*
X062634Y071782D01*
X062594Y071702D01*
X062634Y071622D01*
X062554Y071662D01*
X062474Y071622D01*
X047771Y088174D02*
X047811Y088254D01*
X047771Y088334D01*
X047851Y088294D01*
X047931Y088334D01*
X047891Y088254D01*
X047931Y088174D01*
X047851Y088214D01*
X047771Y088174D01*
X047792Y088656D02*
X047832Y088736D01*
X047792Y088816D01*
X047872Y088776D01*
X047952Y088816D01*
X047912Y088736D01*
X047952Y088656D01*
X047872Y088696D01*
X047792Y088656D01*
X059723Y083015D02*
X059763Y083095D01*
X059723Y083175D01*
X059803Y083135D01*
X059883Y083175D01*
X059843Y083095D01*
X059883Y083015D01*
X059803Y083055D01*
X059723Y083015D01*
X060278Y069435D02*
X060318Y069515D01*
X060278Y069595D01*
X060358Y069555D01*
X060438Y069595D01*
X060398Y069515D01*
X060438Y069435D01*
X060358Y069475D01*
X060278Y069435D01*
X058894Y069171D02*
X058934Y069251D01*
X058894Y069331D01*
X058974Y069291D01*
X059054Y069331D01*
X059014Y069251D01*
X059054Y069171D01*
X058974Y069211D01*
X058894Y069171D01*
X061542Y066614D02*
X061582Y066694D01*
X061542Y066774D01*
X061622Y066734D01*
X061702Y066774D01*
X061662Y066694D01*
X061702Y066614D01*
X061622Y066654D01*
X061542Y066614D01*
X062309Y066402D02*
X062349Y066482D01*
X062309Y066562D01*
X062389Y066522D01*
X062469Y066562D01*
X062429Y066482D01*
X062469Y066402D01*
X062389Y066442D01*
X062309Y066402D01*
Y067126D02*
X062349Y067206D01*
X062309Y067286D01*
X062389Y067246D01*
X062469Y067286D01*
X062429Y067206D01*
X062469Y067126D01*
X062389Y067166D01*
X062309Y067126D01*
X052565Y065482D02*
X052605Y065562D01*
X052565Y065642D01*
X052645Y065602D01*
X052725Y065642D01*
X052685Y065562D01*
X052725Y065482D01*
X052645Y065522D01*
X052565Y065482D01*
X053305Y067439D02*
X053345Y067519D01*
X053305Y067599D01*
X053385Y067558D01*
X053465Y067599D01*
X053425Y067519D01*
X053465Y067439D01*
X053385Y067478D01*
X053305Y067439D01*
X057707Y06773D02*
X057747Y06781D01*
X057707Y06789D01*
X057787Y06785D01*
X057867Y06789D01*
X057827Y06781D01*
X057867Y06773D01*
X057787Y06777D01*
X057707Y06773D01*
X056507D02*
X056547Y06781D01*
X056507Y06789D01*
X056587Y06785D01*
X056667Y06789D01*
X056627Y06781D01*
X056667Y06773D01*
X056587Y06777D01*
X056507Y06773D01*
X055003Y068161D02*
X055043Y068241D01*
X055003Y068321D01*
X055083Y068281D01*
X055163Y068321D01*
X055123Y068241D01*
X055163Y068161D01*
X055083Y068201D01*
X055003Y068161D01*
X058171Y067736D02*
X058211Y067816D01*
X058171Y067896D01*
X058251Y067856D01*
X058331Y067896D01*
X058291Y067816D01*
X058331Y067736D01*
X058251Y067776D01*
X058171Y067736D01*
X057107Y06773D02*
X057147Y06781D01*
X057107Y06789D01*
X057187Y06785D01*
X057267Y06789D01*
X057227Y06781D01*
X057267Y06773D01*
X057187Y06777D01*
X057107Y06773D01*
X055908D02*
X055948Y06781D01*
X055908Y06789D01*
X055988Y06785D01*
X056068Y06789D01*
X056028Y06781D01*
X056068Y06773D01*
X055988Y06777D01*
X055908Y06773D01*
X049052Y097748D02*
X049092Y097828D01*
X049052Y097908D01*
X049132Y097868D01*
X049212Y097908D01*
X049172Y097828D01*
X049212Y097748D01*
X049132Y097788D01*
X049052Y097748D01*
X049782Y085692D02*
X049822Y085772D01*
X049782Y085852D01*
X049862Y085812D01*
X049942Y085852D01*
X049902Y085772D01*
X049942Y085692D01*
X049862Y085732D01*
X049782Y085692D01*
X04788Y082991D02*
X04792Y083071D01*
X04788Y083151D01*
X04796Y083111D01*
X04804Y083151D01*
X048Y083071D01*
X04804Y082991D01*
X04796Y083031D01*
X04788Y082991D01*
Y086277D02*
X04792Y086357D01*
X04788Y086437D01*
X04796Y086397D01*
X04804Y086437D01*
X048Y086357D01*
X04804Y086277D01*
X04796Y086317D01*
X04788Y086277D01*
X047779Y087555D02*
X047819Y087635D01*
X047779Y087715D01*
X047859Y087675D01*
X047939Y087715D01*
X047899Y087635D01*
X047939Y087555D01*
X047859Y087595D01*
X047779Y087555D01*
X054558Y09691D02*
X054598Y09699D01*
X054558Y09707D01*
X054638Y09703D01*
X054718Y09707D01*
X054678Y09699D01*
X054718Y09691D01*
X054638Y09695D01*
X054558Y09691D01*
X053359D02*
X053399Y09699D01*
X053359Y09707D01*
X053439Y09703D01*
X053519Y09707D01*
X053479Y09699D01*
X053519Y09691D01*
X053439Y09695D01*
X053359Y09691D01*
X055158D02*
X055198Y09699D01*
X055158Y09707D01*
X055238Y09703D01*
X055318Y09707D01*
X055278Y09699D01*
X055318Y09691D01*
X055238Y09695D01*
X055158Y09691D01*
X053958D02*
X053998Y09699D01*
X053958Y09707D01*
X054038Y09703D01*
X054118Y09707D01*
X054078Y09699D01*
X054118Y09691D01*
X054038Y09695D01*
X053958Y09691D01*
X052759D02*
X052799Y09699D01*
X052759Y09707D01*
X052839Y09703D01*
X052919Y09707D01*
X052879Y09699D01*
X052919Y09691D01*
X052839Y09695D01*
X052759Y09691D01*
X045892Y089568D02*
X045932Y089648D01*
X045892Y089728D01*
X045972Y089688D01*
X046052Y089728D01*
X046012Y089648D01*
X046052Y089568D01*
X045972Y089608D01*
X045892Y089568D01*
X045747Y086277D02*
X045787Y086357D01*
X045747Y086437D01*
X045827Y086397D01*
X045907Y086437D01*
X045867Y086357D01*
X045907Y086277D01*
X045827Y086317D01*
X045747Y086277D01*
X04636Y087221D02*
X0464Y087301D01*
X04636Y087381D01*
X04644Y087341D01*
X04652Y087381D01*
X04648Y087301D01*
X04652Y087221D01*
X04644Y087261D01*
X04636Y087221D01*
X046362Y087916D02*
X046402Y087996D01*
X046362Y088076D01*
X046442Y088036D01*
X046522Y088076D01*
X046482Y087996D01*
X046522Y087916D01*
X046442Y087956D01*
X046362Y087916D01*
X044839Y087748D02*
X044879Y087828D01*
X044839Y087908D01*
X044919Y087868D01*
X044999Y087908D01*
X044959Y087828D01*
X044999Y087748D01*
X044919Y087788D01*
X044839Y087748D01*
X044851Y087221D02*
X044891Y087301D01*
X044851Y087381D01*
X044931Y087341D01*
X045011Y087381D01*
X044971Y087301D01*
X045011Y087221D01*
X044931Y087261D01*
X044851Y087221D01*
X044926Y089568D02*
X044966Y089648D01*
X044926Y089728D01*
X045006Y089688D01*
X045086Y089728D01*
X045046Y089648D01*
X045086Y089568D01*
X045006Y089608D01*
X044926Y089568D01*
X042687Y084555D02*
X042727Y084635D01*
X042687Y084715D01*
X042767Y084675D01*
X042847Y084715D01*
X042807Y084635D01*
X042847Y084555D01*
X042767Y084595D01*
X042687Y084555D01*
X045312Y087748D02*
X045352Y087828D01*
X045312Y087908D01*
X045392Y087868D01*
X045472Y087908D01*
X045432Y087828D01*
X045472Y087748D01*
X045392Y087788D01*
X045312Y087748D01*
X044926Y084626D02*
X044966Y084706D01*
X044926Y084786D01*
X045006Y084746D01*
X045086Y084786D01*
X045046Y084706D01*
X045086Y084626D01*
X045006Y084666D01*
X044926Y084626D01*
Y085826D02*
X044966Y085906D01*
X044926Y085986D01*
X045006Y085946D01*
X045086Y085986D01*
X045046Y085906D01*
X045086Y085826D01*
X045006Y085866D01*
X044926Y085826D01*
X045298Y087221D02*
X045338Y087301D01*
X045298Y087381D01*
X045378Y087341D01*
X045458Y087381D01*
X045418Y087301D01*
X045458Y087221D01*
X045378Y087261D01*
X045298Y087221D01*
X042398Y08541D02*
X042438Y08549D01*
X042398Y08557D01*
X042478Y08553D01*
X042558Y08557D01*
X042518Y08549D01*
X042558Y08541D01*
X042478Y08545D01*
X042398Y08541D01*
X043597D02*
X043637Y08549D01*
X043597Y08557D01*
X043677Y08553D01*
X043757Y08557D01*
X043717Y08549D01*
X043757Y08541D01*
X043677Y08545D01*
X043597Y08541D01*
X044797D02*
X044837Y08549D01*
X044797Y08557D01*
X044877Y08553D01*
X044957Y08557D01*
X044917Y08549D01*
X044957Y08541D01*
X044877Y08545D01*
X044797Y08541D01*
X041798D02*
X041838Y08549D01*
X041798Y08557D01*
X041878Y08553D01*
X041958Y08557D01*
X041918Y08549D01*
X041958Y08541D01*
X041878Y08545D01*
X041798Y08541D01*
X042998D02*
X043038Y08549D01*
X042998Y08557D01*
X043078Y08553D01*
X043158Y08557D01*
X043118Y08549D01*
X043158Y08541D01*
X043078Y08545D01*
X042998Y08541D01*
X044197D02*
X044237Y08549D01*
X044197Y08557D01*
X044277Y08553D01*
X044357Y08557D01*
X044317Y08549D01*
X044357Y08541D01*
X044277Y08545D01*
X044197Y08541D01*
X047927Y070695D02*
X047967Y070775D01*
X047927Y070855D01*
X048007Y070815D01*
X048087Y070855D01*
X048047Y070775D01*
X048087Y070695D01*
X048007Y070735D01*
X047927Y070695D01*
Y071294D02*
X047967Y071374D01*
X047927Y071454D01*
X048007Y071414D01*
X048087Y071454D01*
X048047Y071374D01*
X048087Y071294D01*
X048007Y071334D01*
X047927Y071294D01*
Y070095D02*
X047967Y070175D01*
X047927Y070255D01*
X048007Y070215D01*
X048087Y070255D01*
X048047Y070175D01*
X048087Y070095D01*
X048007Y070135D01*
X047927Y070095D01*
Y073977D02*
X047967Y074057D01*
X047927Y074137D01*
X048007Y074097D01*
X048087Y074137D01*
X048047Y074057D01*
X048087Y073977D01*
X048007Y074017D01*
X047927Y073977D01*
Y072778D02*
X047967Y072858D01*
X047927Y072938D01*
X048007Y072898D01*
X048087Y072938D01*
X048047Y072858D01*
X048087Y072778D01*
X048007Y072818D01*
X047927Y072778D01*
Y074577D02*
X047967Y074657D01*
X047927Y074737D01*
X048007Y074697D01*
X048087Y074737D01*
X048047Y074657D01*
X048087Y074577D01*
X048007Y074617D01*
X047927Y074577D01*
Y073378D02*
X047967Y073458D01*
X047927Y073538D01*
X048007Y073498D01*
X048087Y073538D01*
X048047Y073458D01*
X048087Y073378D01*
X048007Y073418D01*
X047927Y073378D01*
X047915Y071935D02*
X047955Y072015D01*
X047915Y072095D01*
X047995Y072055D01*
X048075Y072095D01*
X048035Y072015D01*
X048075Y071935D01*
X047995Y071975D01*
X047915Y071935D01*
X047934Y076275D02*
X047974Y076355D01*
X047934Y076435D01*
X048014Y076395D01*
X048094Y076435D01*
X048054Y076355D01*
X048094Y076275D01*
X048014Y076315D01*
X047934Y076275D01*
Y07681D02*
X047974Y07689D01*
X047934Y07697D01*
X048014Y07693D01*
X048094Y07697D01*
X048054Y07689D01*
X048094Y07681D01*
X048014Y07685D01*
X047934Y07681D01*
X047698Y06948D02*
X047738Y06956D01*
X047698Y06964D01*
X047778Y0696D01*
X047858Y06964D01*
X047818Y06956D01*
X047858Y06948D01*
X047778Y06952D01*
X047698Y06948D01*
X041726Y069482D02*
X041766Y069562D01*
X041726Y069642D01*
X041806Y069602D01*
X041886Y069642D01*
X041846Y069562D01*
X041886Y069482D01*
X041806Y069522D01*
X041726Y069482D01*
X0435Y06948D02*
X04354Y06956D01*
X0435Y06964D01*
X04358Y0696D01*
X04366Y06964D01*
X04362Y06956D01*
X04366Y06948D01*
X04358Y06952D01*
X0435Y06948D01*
X047098D02*
X047138Y06956D01*
X047098Y06964D01*
X047178Y0696D01*
X047258Y06964D01*
X047218Y06956D01*
X047258Y06948D01*
X047178Y06952D01*
X047098Y06948D01*
X046499D02*
X046539Y06956D01*
X046499Y06964D01*
X046579Y0696D01*
X046659Y06964D01*
X046619Y06956D01*
X046659Y06948D01*
X046579Y06952D01*
X046499Y06948D01*
X045899D02*
X045939Y06956D01*
X045899Y06964D01*
X045979Y0696D01*
X046059Y06964D01*
X046019Y06956D01*
X046059Y06948D01*
X045979Y06952D01*
X045899Y06948D01*
X045299D02*
X045339Y06956D01*
X045299Y06964D01*
X045379Y0696D01*
X045459Y06964D01*
X045419Y06956D01*
X045459Y06948D01*
X045379Y06952D01*
X045299Y06948D01*
X0441D02*
X04414Y06956D01*
X0441Y06964D01*
X04418Y0696D01*
X04426Y06964D01*
X04422Y06956D01*
X04426Y06948D01*
X04418Y06952D01*
X0441Y06948D01*
X042301D02*
X042341Y06956D01*
X042301Y06964D01*
X042381Y0696D01*
X042461Y06964D01*
X042421Y06956D01*
X042461Y06948D01*
X042381Y06952D01*
X042301Y06948D01*
X0447D02*
X04474Y06956D01*
X0447Y06964D01*
X04478Y0696D01*
X04486Y06964D01*
X04482Y06956D01*
X04486Y06948D01*
X04478Y06952D01*
X0447Y06948D01*
X042901D02*
X042941Y06956D01*
X042901Y06964D01*
X042981Y0696D01*
X043061Y06964D01*
X043021Y06956D01*
X043061Y06948D01*
X042981Y06952D01*
X042901Y06948D01*
X047934Y078016D02*
X047974Y078096D01*
X047934Y078176D01*
X048014Y078136D01*
X048094Y078176D01*
X048054Y078096D01*
X048094Y078016D01*
X048014Y078056D01*
X047934Y078016D01*
Y079215D02*
X047974Y079295D01*
X047934Y079375D01*
X048014Y079335D01*
X048094Y079375D01*
X048054Y079295D01*
X048094Y079215D01*
X048014Y079255D01*
X047934Y079215D01*
Y080414D02*
X047974Y080494D01*
X047934Y080574D01*
X048014Y080534D01*
X048094Y080574D01*
X048054Y080494D01*
X048094Y080414D01*
X048014Y080454D01*
X047934Y080414D01*
Y077416D02*
X047974Y077496D01*
X047934Y077576D01*
X048014Y077536D01*
X048094Y077576D01*
X048054Y077496D01*
X048094Y077416D01*
X048014Y077456D01*
X047934Y077416D01*
Y078615D02*
X047974Y078695D01*
X047934Y078775D01*
X048014Y078735D01*
X048094Y078775D01*
X048054Y078695D01*
X048094Y078615D01*
X048014Y078655D01*
X047934Y078615D01*
Y079815D02*
X047974Y079895D01*
X047934Y079975D01*
X048014Y079935D01*
X048094Y079975D01*
X048054Y079895D01*
X048094Y079815D01*
X048014Y079855D01*
X047934Y079815D01*
X043041Y081487D02*
X043081Y081567D01*
X043041Y081647D01*
X043121Y081607D01*
X043201Y081647D01*
X043161Y081567D01*
X043201Y081487D01*
X043121Y081527D01*
X043041Y081487D01*
X04484D02*
X04488Y081567D01*
X04484Y081647D01*
X04492Y081607D01*
X045Y081647D01*
X04496Y081567D01*
X045Y081487D01*
X04492Y081527D01*
X04484Y081487D01*
X042441D02*
X042481Y081567D01*
X042441Y081647D01*
X042521Y081607D01*
X042601Y081647D01*
X042561Y081567D01*
X042601Y081487D01*
X042521Y081527D01*
X042441Y081487D01*
X04424D02*
X04428Y081567D01*
X04424Y081647D01*
X04432Y081607D01*
X0444Y081647D01*
X04436Y081567D01*
X0444Y081487D01*
X04432Y081527D01*
X04424Y081487D01*
X04544D02*
X04548Y081567D01*
X04544Y081647D01*
X04552Y081607D01*
X0456Y081647D01*
X04556Y081567D01*
X0456Y081487D01*
X04552Y081527D01*
X04544Y081487D01*
X046039D02*
X046079Y081567D01*
X046039Y081647D01*
X046119Y081607D01*
X046199Y081647D01*
X046159Y081567D01*
X046199Y081487D01*
X046119Y081527D01*
X046039Y081487D01*
X046639D02*
X046679Y081567D01*
X046639Y081647D01*
X046719Y081607D01*
X046799Y081647D01*
X046759Y081567D01*
X046799Y081487D01*
X046719Y081527D01*
X046639Y081487D01*
X047239D02*
X047279Y081567D01*
X047239Y081647D01*
X047319Y081607D01*
X047399Y081647D01*
X047359Y081567D01*
X047399Y081487D01*
X047319Y081527D01*
X047239Y081487D01*
X043641D02*
X043681Y081567D01*
X043641Y081647D01*
X043721Y081607D01*
X043801Y081647D01*
X043761Y081567D01*
X043801Y081487D01*
X043721Y081527D01*
X043641Y081487D01*
X041842D02*
X041882Y081567D01*
X041842Y081647D01*
X041922Y081607D01*
X042002Y081647D01*
X041962Y081567D01*
X042002Y081487D01*
X041922Y081527D01*
X041842Y081487D01*
X045414Y0898D02*
X045454Y08988D01*
X045414Y08996D01*
X045494Y08992D01*
X045574Y08996D01*
X045534Y08988D01*
X045574Y0898D01*
X045494Y08984D01*
X045414Y0898D01*
Y095796D02*
X045454Y095876D01*
X045414Y095956D01*
X045494Y095916D01*
X045574Y095956D01*
X045534Y095876D01*
X045574Y095796D01*
X045494Y095836D01*
X045414Y095796D01*
Y093997D02*
X045454Y094077D01*
X045414Y094157D01*
X045494Y094117D01*
X045574Y094157D01*
X045534Y094077D01*
X045574Y093997D01*
X045494Y094037D01*
X045414Y093997D01*
Y090399D02*
X045454Y090479D01*
X045414Y090559D01*
X045494Y090519D01*
X045574Y090559D01*
X045534Y090479D01*
X045574Y090399D01*
X045494Y090439D01*
X045414Y090399D01*
Y090999D02*
X045454Y091079D01*
X045414Y091159D01*
X045494Y091119D01*
X045574Y091159D01*
X045534Y091079D01*
X045574Y090999D01*
X045494Y091039D01*
X045414Y090999D01*
Y091599D02*
X045454Y091679D01*
X045414Y091759D01*
X045494Y091719D01*
X045574Y091759D01*
X045534Y091679D01*
X045574Y091599D01*
X045494Y091639D01*
X045414Y091599D01*
Y092198D02*
X045454Y092278D01*
X045414Y092358D01*
X045494Y092318D01*
X045574Y092358D01*
X045534Y092278D01*
X045574Y092198D01*
X045494Y092238D01*
X045414Y092198D01*
Y093398D02*
X045454Y093478D01*
X045414Y093558D01*
X045494Y093518D01*
X045574Y093558D01*
X045534Y093478D01*
X045574Y093398D01*
X045494Y093438D01*
X045414Y093398D01*
Y095197D02*
X045454Y095277D01*
X045414Y095357D01*
X045494Y095317D01*
X045574Y095357D01*
X045534Y095277D01*
X045574Y095197D01*
X045494Y095237D01*
X045414Y095197D01*
Y096996D02*
X045454Y097076D01*
X045414Y097156D01*
X045494Y097116D01*
X045574Y097156D01*
X045534Y097076D01*
X045574Y096996D01*
X045494Y097036D01*
X045414Y096996D01*
Y092798D02*
X045454Y092878D01*
X045414Y092958D01*
X045494Y092918D01*
X045574Y092958D01*
X045534Y092878D01*
X045574Y092798D01*
X045494Y092838D01*
X045414Y092798D01*
Y094597D02*
X045454Y094677D01*
X045414Y094757D01*
X045494Y094717D01*
X045574Y094757D01*
X045534Y094677D01*
X045574Y094597D01*
X045494Y094637D01*
X045414Y094597D01*
Y096396D02*
X045454Y096476D01*
X045414Y096556D01*
X045494Y096516D01*
X045574Y096556D01*
X045534Y096476D01*
X045574Y096396D01*
X045494Y096436D01*
X045414Y096396D01*
X046057Y08408D02*
X046097Y08416D01*
X046057Y08424D01*
X046137Y0842D01*
X046217Y08424D01*
X046177Y08416D01*
X046217Y08408D01*
X046137Y08412D01*
X046057Y08408D01*
X045747D02*
X045787Y08416D01*
X045747Y08424D01*
X045827Y0842D01*
X045907Y08424D01*
X045867Y08416D01*
X045907Y08408D01*
X045827Y08412D01*
X045747Y08408D01*
X043626Y083434D02*
X043666Y083514D01*
X043626Y083594D01*
X043706Y083554D01*
X043786Y083594D01*
X043746Y083514D01*
X043786Y083434D01*
X043706Y083474D01*
X043626Y083434D01*
X048014Y08559D02*
X048054Y08567D01*
X048014Y08575D01*
X048094Y08571D01*
X048174Y08575D01*
X048134Y08567D01*
X048174Y08559D01*
X048094Y08563D01*
X048014Y08559D01*
Y085192D02*
X048054Y085272D01*
X048014Y085352D01*
X048094Y085312D01*
X048174Y085352D01*
X048134Y085272D01*
X048174Y085192D01*
X048094Y085232D01*
X048014Y085192D01*
X05668Y074202D02*
X05672Y074282D01*
X05668Y074362D01*
X05676Y074322D01*
X05684Y074362D01*
X0568Y074282D01*
X05684Y074202D01*
X05676Y074242D01*
X05668Y074202D01*
X057466Y070586D02*
X057506Y070666D01*
X057466Y070746D01*
X057546Y070706D01*
X057626Y070746D01*
X057586Y070666D01*
X057626Y070586D01*
X057546Y070626D01*
X057466Y070586D01*
X055255Y068791D02*
X055295Y068871D01*
X055255Y068951D01*
X055335Y068911D01*
X055415Y068951D01*
X055375Y068871D01*
X055415Y068791D01*
X055335Y068831D01*
X055255Y068791D01*
X05841Y068077D02*
X05845Y068157D01*
X05841Y068237D01*
X05849Y068197D01*
X05857Y068237D01*
X05853Y068157D01*
X05857Y068077D01*
X05849Y068117D01*
X05841Y068077D01*
X053094Y075526D02*
X053134Y075606D01*
X053094Y075686D01*
X053174Y075646D01*
X053254Y075686D01*
X053214Y075606D01*
X053254Y075526D01*
X053174Y075566D01*
X053094Y075526D01*
X051081Y07681D02*
X051121Y07689D01*
X051081Y07697D01*
X051161Y07693D01*
X051241Y07697D01*
X051201Y07689D01*
X051241Y07681D01*
X051161Y07685D01*
X051081Y07681D01*
X050118Y075815D02*
X050158Y075895D01*
X050118Y075975D01*
X050198Y075935D01*
X050278Y075975D01*
X050238Y075895D01*
X050278Y075815D01*
X050198Y075855D01*
X050118Y075815D01*
X047993Y08482D02*
X048033Y0849D01*
X047993Y08498D01*
X048073Y08494D01*
X048153Y08498D01*
X048113Y0849D01*
X048153Y08482D01*
X048073Y08486D01*
X047993Y08482D01*
X047704Y084798D02*
X047744Y084878D01*
X047704Y084958D01*
X047784Y084918D01*
X047864Y084958D01*
X047824Y084878D01*
X047864Y084798D01*
X047784Y084838D01*
X047704Y084798D01*
Y085192D02*
X047744Y085272D01*
X047704Y085352D01*
X047784Y085312D01*
X047864Y085352D01*
X047824Y085272D01*
X047864Y085192D01*
X047784Y085232D01*
X047704Y085192D01*
Y085585D02*
X047744Y085665D01*
X047704Y085745D01*
X047784Y085705D01*
X047864Y085745D01*
X047824Y085665D01*
X047864Y085585D01*
X047784Y085625D01*
X047704Y085585D01*
X059952Y068098D02*
X059992Y068178D01*
X059952Y068258D01*
X060032Y068218D01*
X060112Y068258D01*
X060072Y068178D01*
X060112Y068098D01*
X060032Y068138D01*
X059952Y068098D01*
Y068368D02*
X059992Y068448D01*
X059952Y068528D01*
X060032Y068488D01*
X060112Y068528D01*
X060072Y068448D01*
X060112Y068368D01*
X060032Y068408D01*
X059952Y068368D01*
X060259D02*
X060299Y068448D01*
X060259Y068528D01*
X060339Y068488D01*
X060419Y068528D01*
X060379Y068448D01*
X060419Y068368D01*
X060339Y068408D01*
X060259Y068368D01*
Y068098D02*
X060299Y068178D01*
X060259Y068258D01*
X060339Y068218D01*
X060419Y068258D01*
X060379Y068178D01*
X060419Y068098D01*
X060339Y068138D01*
X060259Y068098D01*
X060259Y067828D02*
X060299Y067908D01*
X060259Y067988D01*
X060339Y067948D01*
X060419Y067988D01*
X060379Y067908D01*
X060419Y067828D01*
X060339Y067868D01*
X060259Y067828D01*
X059644Y068368D02*
X059684Y068448D01*
X059644Y068528D01*
X059724Y068488D01*
X059804Y068528D01*
X059764Y068448D01*
X059804Y068368D01*
X059724Y068408D01*
X059644Y068368D01*
Y068098D02*
X059684Y068178D01*
X059644Y068258D01*
X059724Y068218D01*
X059804Y068258D01*
X059764Y068178D01*
X059804Y068098D01*
X059724Y068138D01*
X059644Y068098D01*
X059952Y067828D02*
X059992Y067908D01*
X059952Y067988D01*
X060032Y067948D01*
X060112Y067988D01*
X060072Y067908D01*
X060112Y067828D01*
X060032Y067868D01*
X059952Y067828D01*
X059644D02*
X059684Y067908D01*
X059644Y067988D01*
X059724Y067948D01*
X059804Y067988D01*
X059764Y067908D01*
X059804Y067828D01*
X059724Y067868D01*
X059644Y067828D01*
X047348Y074994D02*
X047388Y075074D01*
X047348Y075154D01*
X047428Y075114D01*
X047508Y075154D01*
X047468Y075074D01*
X047508Y074994D01*
X047428Y075034D01*
X047348Y074994D01*
X04536Y074999D02*
X0454Y075079D01*
X04536Y075159D01*
X04544Y075119D01*
X04552Y075159D01*
X04548Y075079D01*
X04552Y074999D01*
X04544Y075039D01*
X04536Y074999D01*
D178*
X052598Y069739D02*
G03*
X052598Y069739I-00008J0D01*
G01*
M02*
