G04*
G04 #@! TF.GenerationSoftware,Altium Limited,Altium Designer,21.2.1 (34)*
G04*
G04 Layer_Color=128*
%FSTAX24Y24*%
%MOIN*%
G70*
G04*
G04 #@! TF.SameCoordinates,4AC015DC-E3C4-4AC6-9BA4-5EE9E9B64A6E*
G04*
G04*
G04 #@! TF.FilePolarity,Positive*
G04*
G01*
G75*
%ADD177C,0.0020*%
D177*
X058543Y092864D02*
X058937D01*
X05874Y092667D02*
Y093061D01*
X052343Y069739D02*
X052693D01*
X052518Y069564D02*
Y069914D01*
X05236Y067739D02*
X052675D01*
X052518Y067582D02*
Y067897D01*
X061376Y08472D02*
X06173D01*
X061553Y084543D02*
Y084897D01*
X060376Y08472D02*
X06073D01*
X060553Y084543D02*
Y084897D01*
X059376Y08472D02*
X05973D01*
X059553Y084543D02*
Y084897D01*
X058376Y08472D02*
X05873D01*
X058553Y084543D02*
Y084897D01*
X052877Y081423D02*
X052995D01*
X052936Y081364D02*
Y081482D01*
X052146Y083218D02*
X052265D01*
X052206Y083159D02*
Y083277D01*
X042544Y083602D02*
X042663D01*
X042604Y083543D02*
Y083661D01*
X043817Y084774D02*
X043935D01*
X043876Y084714D02*
Y084833D01*
X054Y079888D02*
X054118D01*
X054059Y079829D02*
Y079947D01*
X054429Y080138D02*
X054547D01*
X054488Y080079D02*
Y080197D01*
X047819Y090787D02*
X047937D01*
X047878Y090728D02*
Y090847D01*
X062495Y077581D02*
X062613D01*
X062554Y077522D02*
Y07764D01*
X060716Y078126D02*
X060834D01*
X060775Y078067D02*
Y078185D01*
X058494Y078126D02*
X058612D01*
X058553Y078067D02*
Y078185D01*
X057961Y078482D02*
X058079D01*
X05802Y078423D02*
Y078542D01*
X061703Y074547D02*
X061821D01*
X061762Y074488D02*
Y074606D01*
X061602Y075696D02*
X06172D01*
X061661Y075637D02*
Y075756D01*
X058326Y074454D02*
X058444D01*
X058385Y074394D02*
Y074513D01*
X058854Y076273D02*
X058973D01*
X058913Y076214D02*
Y076332D01*
X062495Y069098D02*
X062613D01*
X062554Y069039D02*
Y069157D01*
X056772Y068861D02*
X05689D01*
X056831Y068802D02*
Y068921D01*
X049202Y069562D02*
X04932D01*
X049261Y069503D02*
Y069621D01*
X052038Y068562D02*
X052156D01*
X052097Y068503D02*
Y068621D01*
X052854Y068552D02*
X052972D01*
X052913Y068493D02*
Y068611D01*
X054069Y069354D02*
X054187D01*
X054128Y069294D02*
Y069413D01*
X053912Y070051D02*
X05403D01*
X053971Y069992D02*
Y07011D01*
X054749Y077159D02*
X054867D01*
X054808Y0771D02*
Y077218D01*
X055451Y0777D02*
X055569D01*
X05551Y077641D02*
Y077759D01*
X053298Y077267D02*
X053417D01*
X053357Y077207D02*
Y077326D01*
X053298Y0777D02*
X053417D01*
X053357Y077641D02*
Y077759D01*
X05338Y094513D02*
X053498D01*
X053439Y094454D02*
Y094572D01*
X053213Y096095D02*
X053331D01*
X053272Y096036D02*
Y096154D01*
X057567Y099094D02*
X057685D01*
X057626Y099035D02*
Y099154D01*
X061666Y0972D02*
X061785D01*
X061725Y097141D02*
Y097259D01*
X060041Y0972D02*
X060159D01*
X0601Y097141D02*
Y097259D01*
X058091Y0972D02*
X058209D01*
X05815Y097141D02*
Y097259D01*
X056401Y0972D02*
X056519D01*
X05646Y097141D02*
Y097259D01*
X055811Y093065D02*
X05593D01*
X05587Y093006D02*
Y093124D01*
X062343Y090128D02*
X062461D01*
X062402Y090069D02*
Y090187D01*
X062343Y091776D02*
X062461D01*
X062402Y091717D02*
Y091835D01*
X062343Y093423D02*
X062461D01*
X062402Y093364D02*
Y093482D01*
X055642Y094706D02*
X05576D01*
X055701Y094647D02*
Y094765D01*
X062231Y094706D02*
X06235D01*
X062291Y094647D02*
Y094765D01*
X060584Y094706D02*
X060702D01*
X060643Y094647D02*
Y094765D01*
X058937Y094706D02*
X059055D01*
X058996Y094647D02*
Y094765D01*
X057289Y094706D02*
X057407D01*
X057348Y094647D02*
Y094765D01*
X057327Y09592D02*
X057445D01*
X057386Y095861D02*
Y09598D01*
X058975Y09592D02*
X059093D01*
X059034Y095861D02*
Y09598D01*
X060622Y09592D02*
X06074D01*
X060681Y095861D02*
Y09598D01*
X06227Y09592D02*
X062388D01*
X062329Y095861D02*
Y09598D01*
X05568Y09592D02*
X055798D01*
X055739Y095861D02*
Y09598D01*
X057203Y089996D02*
X057321D01*
X057262Y089937D02*
Y090055D01*
X05786Y089996D02*
X057978D01*
X057919Y089937D02*
Y090055D01*
X058355Y089996D02*
X058473D01*
X058414Y089937D02*
Y090055D01*
X060041Y08988D02*
X060159D01*
X0601Y089821D02*
Y089939D01*
X06109Y089996D02*
X061208D01*
X061149Y089937D02*
Y090055D01*
X061293Y09048D02*
X061411D01*
X061352Y090421D02*
Y090539D01*
X061293Y090938D02*
X061411D01*
X061352Y090879D02*
Y090997D01*
X061223Y091373D02*
X061341D01*
X061282Y091314D02*
Y091432D01*
X061293Y0918D02*
X061411D01*
X061352Y091741D02*
Y091859D01*
X061293Y092202D02*
X061411D01*
X061352Y092143D02*
Y092261D01*
X061223Y092663D02*
X061341D01*
X061282Y092604D02*
Y092722D01*
X061027Y093065D02*
X061145D01*
X061086Y093006D02*
Y093124D01*
X060749Y093399D02*
X060867D01*
X060808Y09334D02*
Y093458D01*
X060225Y093527D02*
X060343D01*
X060284Y093468D02*
Y093586D01*
X059744Y093586D02*
X059862D01*
X059803Y093527D02*
Y093645D01*
X059373Y093815D02*
X059491D01*
X059432Y093756D02*
Y093874D01*
X059045Y094002D02*
X059163D01*
X059104Y093943D02*
Y094061D01*
X058715Y094118D02*
X058833D01*
X058774Y094059D02*
Y094177D01*
X058285Y094118D02*
X058403D01*
X058344Y094059D02*
Y094177D01*
X05786Y093815D02*
X057978D01*
X057919Y093756D02*
Y093874D01*
X057567Y093492D02*
X057685D01*
X057626Y093433D02*
Y093551D01*
X057477Y093065D02*
X057595D01*
X057536Y093006D02*
Y093124D01*
X057487Y092663D02*
X057606D01*
X057547Y092604D02*
Y092722D01*
X0577Y092254D02*
X057818D01*
X057759Y092195D02*
Y092313D01*
X05786Y091945D02*
X057978D01*
X057919Y091886D02*
Y092004D01*
X058298Y0918D02*
X058416D01*
X058357Y091741D02*
Y091859D01*
X058816Y0918D02*
X058934D01*
X058875Y091741D02*
Y091859D01*
X059373Y091945D02*
X059491D01*
X059432Y091886D02*
Y092004D01*
X059744Y091945D02*
X059862D01*
X059803Y091886D02*
Y092004D01*
X059744Y09158D02*
X059862D01*
X059803Y091521D02*
Y091639D01*
X059373Y091255D02*
X059491D01*
X059432Y091196D02*
Y091314D01*
X060041Y09033D02*
X060159D01*
X0601Y090271D02*
Y090389D01*
X058453Y089611D02*
X058571D01*
X058512Y089552D02*
Y08967D01*
X053756Y090767D02*
X053874D01*
X053815Y090707D02*
Y090826D01*
X052953Y091083D02*
X053071D01*
X053012Y091024D02*
Y091143D01*
X059216Y090153D02*
X059334D01*
X059275Y090094D02*
Y090212D01*
X060153Y091696D02*
X060271D01*
X060212Y091637D02*
Y091756D01*
X06013Y092088D02*
X060248D01*
X060189Y092029D02*
Y092147D01*
X060041Y09245D02*
X060159D01*
X0601Y092391D02*
Y092509D01*
X059647Y092457D02*
X059765D01*
X059706Y092398D02*
Y092516D01*
X059318Y092348D02*
X059436D01*
X059377Y092289D02*
Y092407D01*
X059007Y092088D02*
X059126D01*
X059067Y092029D02*
Y092147D01*
X05858Y092088D02*
X058698D01*
X058639Y092029D02*
Y092147D01*
X058209Y092201D02*
X058327D01*
X058268Y092142D02*
Y09226D01*
X057946Y092481D02*
X058064D01*
X058005Y092422D02*
Y09254D01*
X05786Y09283D02*
X057978D01*
X057919Y092771D02*
Y092889D01*
X05786Y093191D02*
X057978D01*
X057919Y093131D02*
Y09325D01*
X058019Y093492D02*
X058137D01*
X058078Y093433D02*
Y093551D01*
X058298Y093761D02*
X058416D01*
X058357Y093702D02*
Y09382D01*
X058681Y093777D02*
X058799D01*
X05874Y093718D02*
Y093836D01*
X059064Y093644D02*
X059182D01*
X059123Y093585D02*
Y093704D01*
X059373Y093437D02*
X059491D01*
X059432Y093378D02*
Y093496D01*
X059707Y093191D02*
X059826D01*
X059767Y093131D02*
Y09325D01*
X060116Y093191D02*
X060234D01*
X060175Y093131D02*
Y09325D01*
X060524Y093065D02*
X060642D01*
X060583Y093006D02*
Y093124D01*
X060836Y09273D02*
X060954D01*
X060895Y092671D02*
Y092789D01*
X060878Y092348D02*
X060996D01*
X060937Y092289D02*
Y092407D01*
X060878Y091945D02*
X060996D01*
X060937Y091886D02*
Y092004D01*
X060878Y091541D02*
X060996D01*
X060937Y091482D02*
Y0916D01*
X060878Y091137D02*
X060996D01*
X060937Y091078D02*
Y091196D01*
X060878Y090733D02*
X060996D01*
X060937Y090674D02*
Y090793D01*
X060878Y09033D02*
X060996D01*
X060937Y090271D02*
Y090389D01*
X059744Y090153D02*
X059862D01*
X059803Y090094D02*
Y090212D01*
X05982Y091181D02*
X059938D01*
X059879Y091122D02*
Y09124D01*
X058343Y09039D02*
X058461D01*
X058402Y090331D02*
Y090449D01*
X05786Y09039D02*
X057978D01*
X057919Y090331D02*
Y090449D01*
X057095Y0904D02*
X057213D01*
X057154Y090341D02*
Y090459D01*
X059007Y09114D02*
X059126D01*
X059067Y091081D02*
Y091199D01*
X058625Y09114D02*
X058743D01*
X058684Y091081D02*
Y091199D01*
X058242Y09114D02*
X05836D01*
X058301Y091081D02*
Y091199D01*
X05786Y09114D02*
X057978D01*
X057919Y091081D02*
Y091199D01*
X057477Y091255D02*
X057595D01*
X057536Y091196D02*
Y091314D01*
X057095Y091036D02*
X057213D01*
X057154Y090977D02*
Y091095D01*
X047901Y093815D02*
X048019D01*
X04796Y093756D02*
Y093874D01*
X046925Y093824D02*
X047043D01*
X046984Y093765D02*
Y093883D01*
X046814Y092538D02*
X046932D01*
X046873Y092479D02*
Y092597D01*
X047304Y094513D02*
X047422D01*
X047363Y094454D02*
Y094572D01*
X055451Y090798D02*
X055569D01*
X05551Y090739D02*
Y090857D01*
X051265Y08626D02*
X051383D01*
X051324Y086201D02*
Y086319D01*
X05197Y082826D02*
X052088D01*
X052029Y082767D02*
Y082885D01*
X04786Y087037D02*
X047978D01*
X047919Y086978D02*
Y087096D01*
X054019Y08626D02*
X054137D01*
X054078Y086201D02*
Y086319D01*
X055587Y088186D02*
X055705D01*
X055646Y088127D02*
Y088245D01*
X050724Y085981D02*
X050843D01*
X050783Y085922D02*
Y08604D01*
X047955Y089996D02*
X048073D01*
X048014Y089937D02*
Y090055D01*
X051061Y08988D02*
X05118D01*
X05112Y089821D02*
Y089939D01*
X049073Y090576D02*
X049191D01*
X049132Y090517D02*
Y090636D01*
X049202Y073899D02*
X04932D01*
X049261Y07384D02*
Y073958D01*
X049477Y083071D02*
X049595D01*
X049536Y083012D02*
Y08313D01*
X04838Y081526D02*
X048498D01*
X048439Y081467D02*
Y081585D01*
X048124Y082058D02*
X048242D01*
X048183Y081999D02*
Y082117D01*
X047955Y081094D02*
X048073D01*
X048014Y081035D02*
Y081153D01*
X048258Y080807D02*
X048376D01*
X048317Y080748D02*
Y080866D01*
X047037Y06825D02*
X047155D01*
X047096Y068191D02*
Y068309D01*
X048014Y083602D02*
X048132D01*
X048073Y083543D02*
Y083661D01*
X052559Y083014D02*
X052677D01*
X052618Y082955D02*
Y083073D01*
X05236Y078552D02*
X052478D01*
X052419Y078493D02*
Y078611D01*
X052754Y078552D02*
X052872D01*
X052813Y078493D02*
Y078611D01*
X055451Y079214D02*
X055569D01*
X05551Y079155D02*
Y079273D01*
X055482Y079548D02*
X0556D01*
X055541Y079489D02*
Y079607D01*
X055383Y078371D02*
X055501D01*
X055442Y078312D02*
Y07843D01*
X053268Y078371D02*
X053386D01*
X053327Y078312D02*
Y07843D01*
X051674Y075374D02*
X051792D01*
X051733Y075315D02*
Y075433D01*
X051674Y075762D02*
X051792D01*
X051733Y075703D02*
Y075821D01*
X052038Y075532D02*
X052156D01*
X052097Y075473D02*
Y075591D01*
X051283Y075511D02*
X051401D01*
X051342Y075452D02*
Y07557D01*
X052038Y075133D02*
X052156D01*
X052097Y075074D02*
Y075192D01*
X05133Y075167D02*
X051448D01*
X051389Y075108D02*
Y075226D01*
X052038Y075896D02*
X052156D01*
X052097Y075837D02*
Y075955D01*
X051283Y075903D02*
X051401D01*
X051342Y075844D02*
Y075962D01*
X052951Y082768D02*
X053069D01*
X05301Y082709D02*
Y082828D01*
X053115Y083095D02*
X053233D01*
X053174Y083036D02*
Y083154D01*
X053414Y080303D02*
X053532D01*
X053473Y080244D02*
Y080362D01*
X051888Y078428D02*
X052006D01*
X051947Y078368D02*
Y078487D01*
X055383Y081015D02*
X055501D01*
X055442Y080956D02*
Y081074D01*
X059351Y07783D02*
X059469D01*
X05941Y077771D02*
Y077889D01*
X059744Y07783D02*
X059862D01*
X059803Y077771D02*
Y077889D01*
X06017Y07783D02*
X060288D01*
X060229Y077771D02*
Y077889D01*
X060129Y07812D02*
X060247D01*
X060188Y078061D02*
Y078179D01*
X059744Y07812D02*
X059862D01*
X059803Y078061D02*
Y078179D01*
X059328Y078126D02*
X059446D01*
X059387Y078067D02*
Y078185D01*
X059721Y078412D02*
X059839D01*
X05978Y078353D02*
Y078471D01*
X060147Y078412D02*
X060266D01*
X060207Y078353D02*
Y078471D01*
X059324Y078412D02*
X059442D01*
X059383Y078353D02*
Y078471D01*
X058326Y075615D02*
X058444D01*
X058385Y075556D02*
Y075674D01*
X059707Y088027D02*
X059826D01*
X059767Y087968D02*
Y088086D01*
X059064Y087397D02*
X059182D01*
X059123Y087338D02*
Y087456D01*
X053569Y079392D02*
X053687D01*
X053628Y079333D02*
Y079451D01*
X053461Y079969D02*
X05358D01*
X05352Y07991D02*
Y080028D01*
X047955Y072389D02*
X048073D01*
X048014Y07233D02*
Y072448D01*
X05132Y072858D02*
X051438D01*
X051379Y072799D02*
Y072917D01*
X05418Y075895D02*
X054298D01*
X054239Y075836D02*
Y075954D01*
X054069Y07438D02*
X054187D01*
X054128Y074321D02*
Y074439D01*
X055422Y074365D02*
X05554D01*
X055481Y074306D02*
Y074424D01*
X050557Y069565D02*
X050675D01*
X050616Y069506D02*
Y069624D01*
X056788Y078412D02*
X056906D01*
X056847Y078353D02*
Y078471D01*
X049889Y082992D02*
X050007D01*
X049948Y082933D02*
Y083051D01*
X050474Y074187D02*
X050592D01*
X050533Y074128D02*
Y074246D01*
X050141Y07438D02*
X050259D01*
X0502Y074321D02*
Y074439D01*
X057824Y070865D02*
X057942D01*
X057883Y070806D02*
Y070924D01*
X055811Y083095D02*
X05593D01*
X05587Y083036D02*
Y083154D01*
X060952Y071194D02*
X06107D01*
X061011Y071135D02*
Y071254D01*
X05693Y070057D02*
X057048D01*
X056989Y069998D02*
Y070116D01*
X051633Y071168D02*
X051751D01*
X051692Y071109D02*
Y071228D01*
X043618Y08253D02*
X043736D01*
X043677Y082471D02*
Y082589D01*
X051061Y083071D02*
X05118D01*
X05112Y083012D02*
Y08313D01*
X057961Y08736D02*
X058079D01*
X05802Y087301D02*
Y087419D01*
X057955Y079621D02*
X058073D01*
X058014Y079562D02*
Y07968D01*
X057567Y087528D02*
X057685D01*
X057626Y087469D02*
Y087587D01*
X056701Y075895D02*
X056819D01*
X05676Y075836D02*
Y075954D01*
X05568Y086491D02*
X055798D01*
X055739Y086432D02*
Y08655D01*
X057538Y079155D02*
X057657D01*
X057597Y079096D02*
Y079214D01*
X057203Y086697D02*
X057321D01*
X057262Y086638D02*
Y086756D01*
X049735Y072655D02*
X049853D01*
X049794Y072595D02*
Y072714D01*
X054637Y067739D02*
X054756D01*
X054696Y06768D02*
Y067798D01*
X05418Y066297D02*
X054298D01*
X054239Y066238D02*
Y066356D01*
X05418Y066714D02*
X054298D01*
X054239Y066655D02*
Y066773D01*
X060808Y07689D02*
X060926D01*
X060867Y076831D02*
Y076949D01*
X061275Y079155D02*
X061393D01*
X061334Y079096D02*
Y079214D01*
X061771Y077267D02*
X061889D01*
X06183Y077207D02*
Y077326D01*
X059742Y079969D02*
X05986D01*
X059801Y07991D02*
Y080028D01*
X059053Y075465D02*
X059171D01*
X059112Y075406D02*
Y075524D01*
X061053Y074181D02*
X061172D01*
X061113Y074122D02*
Y07424D01*
X055576Y084079D02*
X055694D01*
X055635Y08402D02*
Y084138D01*
X062495Y074235D02*
X062613D01*
X062554Y074176D02*
Y074294D01*
X05332Y092602D02*
X053438D01*
X053379Y092543D02*
Y092661D01*
X051482Y092228D02*
X0516D01*
X051541Y092169D02*
Y092287D01*
X051124Y092228D02*
X051242D01*
X051183Y092169D02*
Y092287D01*
X050276Y092228D02*
X050394D01*
X050335Y092169D02*
Y092287D01*
X049648Y093031D02*
X049766D01*
X049707Y092972D02*
Y09309D01*
X049889Y092228D02*
X050007D01*
X049948Y092169D02*
Y092287D01*
X053346Y090479D02*
X053464D01*
X053405Y09042D02*
Y090539D01*
X052548Y089826D02*
X052666D01*
X052607Y089767D02*
Y089885D01*
X053824Y085182D02*
X053942D01*
X053883Y085123D02*
Y085241D01*
X050141Y081139D02*
X050259D01*
X0502Y08108D02*
Y081198D01*
X047859Y081567D02*
X047977D01*
X047918Y081508D02*
Y081626D01*
X04858Y090598D02*
X048698D01*
X048639Y090539D02*
Y090657D01*
X057386Y073887D02*
X057504D01*
X057445Y073828D02*
Y073946D01*
X052854Y073579D02*
X052972D01*
X052913Y07352D02*
Y073638D01*
X051759Y093128D02*
X051878D01*
X051818Y093069D02*
Y093187D01*
X050724Y093128D02*
X050843D01*
X050783Y093069D02*
Y093187D01*
X052234Y093399D02*
X052352D01*
X052293Y09334D02*
Y093458D01*
X049171Y095126D02*
X049289D01*
X04923Y095067D02*
Y095185D01*
X053824Y084504D02*
X053942D01*
X053883Y084445D02*
Y084563D01*
X055811Y08527D02*
X05593D01*
X05587Y085211D02*
Y085329D01*
X046133Y096449D02*
X046251D01*
X046192Y09639D02*
Y096508D01*
X049229Y096754D02*
X049347D01*
X049288Y096694D02*
Y096813D01*
X04917Y097118D02*
X049288D01*
X049229Y097059D02*
Y097177D01*
X053098Y092999D02*
X053217D01*
X053157Y09294D02*
Y093058D01*
X052877Y093348D02*
X052995D01*
X052936Y093289D02*
Y093407D01*
X05332Y093348D02*
X053438D01*
X053379Y093289D02*
Y093407D01*
X052877Y092602D02*
X052995D01*
X052936Y092543D02*
Y092661D01*
X054677Y090938D02*
X054795D01*
X054736Y090879D02*
Y090997D01*
X046223Y097828D02*
X046341D01*
X046282Y097769D02*
Y097887D01*
X045832Y097432D02*
X04595D01*
X045891Y097373D02*
Y097491D01*
X042544Y082266D02*
X042663D01*
X042604Y082207D02*
Y082325D01*
X045333Y086362D02*
X045451D01*
X045392Y086303D02*
Y086421D01*
X05127Y098681D02*
X051388D01*
X051329Y098622D02*
Y09874D01*
X053568Y098569D02*
X053686D01*
X053627Y09851D02*
Y098628D01*
X052917Y098569D02*
X053036D01*
X052977Y09851D02*
Y098628D01*
X055179Y098568D02*
X055297D01*
X055238Y098509D02*
Y098627D01*
X054764Y098569D02*
X054882D01*
X054823Y09851D02*
Y098628D01*
X062495Y071702D02*
X062613D01*
X062554Y071643D02*
Y071761D01*
X047792Y088254D02*
X04791D01*
X047851Y088195D02*
Y088313D01*
X047813Y088736D02*
X047931D01*
X047872Y088677D02*
Y088795D01*
X059744Y083095D02*
X059862D01*
X059803Y083036D02*
Y083154D01*
X060299Y069515D02*
X060417D01*
X060358Y069456D02*
Y069574D01*
X058915Y069251D02*
X059033D01*
X058974Y069192D02*
Y06931D01*
X061563Y066694D02*
X061681D01*
X061622Y066635D02*
Y066754D01*
X06233Y066482D02*
X062448D01*
X062389Y066423D02*
Y066541D01*
X06233Y067206D02*
X062448D01*
X062389Y067147D02*
Y067265D01*
X052586Y065562D02*
X052704D01*
X052645Y065503D02*
Y065621D01*
X053326Y067519D02*
X053444D01*
X053385Y067459D02*
Y067578D01*
X057728Y06781D02*
X057846D01*
X057787Y067751D02*
Y067869D01*
X056528Y06781D02*
X056646D01*
X056587Y067751D02*
Y067869D01*
X055024Y068241D02*
X055143D01*
X055083Y068182D02*
Y0683D01*
X058192Y067816D02*
X05831D01*
X058251Y067757D02*
Y067875D01*
X057128Y06781D02*
X057246D01*
X057187Y067751D02*
Y067869D01*
X055929Y06781D02*
X056047D01*
X055988Y067751D02*
Y067869D01*
X049073Y097828D02*
X049191D01*
X049132Y097769D02*
Y097887D01*
X049803Y085772D02*
X049921D01*
X049862Y085713D02*
Y085831D01*
X047901Y083071D02*
X048019D01*
X04796Y083012D02*
Y08313D01*
X047901Y086357D02*
X048019D01*
X04796Y086298D02*
Y086416D01*
X0478Y087635D02*
X047919D01*
X047859Y087576D02*
Y087694D01*
X054579Y09699D02*
X054697D01*
X054638Y096931D02*
Y097049D01*
X05338Y09699D02*
X053498D01*
X053439Y096931D02*
Y097049D01*
X055179Y09699D02*
X055297D01*
X055238Y096931D02*
Y097049D01*
X053979Y09699D02*
X054097D01*
X054038Y096931D02*
Y097049D01*
X05278Y09699D02*
X052898D01*
X052839Y096931D02*
Y097049D01*
X045913Y089648D02*
X046031D01*
X045972Y089589D02*
Y089707D01*
X045768Y086357D02*
X045886D01*
X045827Y086298D02*
Y086416D01*
X046381Y087301D02*
X046499D01*
X04644Y087242D02*
Y08736D01*
X046383Y087996D02*
X046501D01*
X046442Y087937D02*
Y088056D01*
X04486Y087828D02*
X044978D01*
X044919Y087768D02*
Y087887D01*
X044871Y087301D02*
X04499D01*
X044931Y087242D02*
Y08736D01*
X044947Y089648D02*
X045065D01*
X045006Y089589D02*
Y089707D01*
X042708Y084635D02*
X042826D01*
X042767Y084576D02*
Y084694D01*
X045333Y087828D02*
X045451D01*
X045392Y087768D02*
Y087887D01*
X044947Y084706D02*
X045065D01*
X045006Y084647D02*
Y084766D01*
X044947Y085906D02*
X045065D01*
X045006Y085847D02*
Y085965D01*
X045318Y087301D02*
X045437D01*
X045378Y087242D02*
Y08736D01*
X042419Y08549D02*
X042537D01*
X042478Y085431D02*
Y085549D01*
X043618Y08549D02*
X043736D01*
X043677Y085431D02*
Y085549D01*
X044818Y08549D02*
X044936D01*
X044877Y085431D02*
Y085549D01*
X041819Y08549D02*
X041937D01*
X041878Y085431D02*
Y085549D01*
X043019Y08549D02*
X043137D01*
X043078Y085431D02*
Y085549D01*
X044218Y08549D02*
X044336D01*
X044277Y085431D02*
Y085549D01*
X047948Y070775D02*
X048066D01*
X048007Y070716D02*
Y070834D01*
X047948Y071374D02*
X048066D01*
X048007Y071315D02*
Y071433D01*
X047948Y070175D02*
X048066D01*
X048007Y070116D02*
Y070234D01*
X047948Y074057D02*
X048066D01*
X048007Y073998D02*
Y074116D01*
X047948Y072858D02*
X048066D01*
X048007Y072799D02*
Y072917D01*
X047948Y074657D02*
X048066D01*
X048007Y074598D02*
Y074716D01*
X047948Y073458D02*
X048066D01*
X048007Y073399D02*
Y073517D01*
X047936Y072015D02*
X048054D01*
X047995Y071956D02*
Y072074D01*
X047955Y076355D02*
X048073D01*
X048014Y076296D02*
Y076414D01*
X047955Y07689D02*
X048073D01*
X048014Y076831D02*
Y076949D01*
X047719Y06956D02*
X047837D01*
X047778Y069501D02*
Y069619D01*
X041746Y069562D02*
X041865D01*
X041806Y069503D02*
Y069621D01*
X043521Y06956D02*
X04364D01*
X04358Y069501D02*
Y069619D01*
X047119Y06956D02*
X047237D01*
X047178Y069501D02*
Y069619D01*
X04652Y06956D02*
X046638D01*
X046579Y069501D02*
Y069619D01*
X04592Y06956D02*
X046038D01*
X045979Y069501D02*
Y069619D01*
X04532Y06956D02*
X045438D01*
X045379Y069501D02*
Y069619D01*
X044121Y06956D02*
X044239D01*
X04418Y069501D02*
Y069619D01*
X042322Y06956D02*
X04244D01*
X042381Y069501D02*
Y069619D01*
X044721Y06956D02*
X044839D01*
X04478Y069501D02*
Y069619D01*
X042922Y06956D02*
X04304D01*
X042981Y069501D02*
Y069619D01*
X047955Y078096D02*
X048073D01*
X048014Y078037D02*
Y078155D01*
X047955Y079295D02*
X048073D01*
X048014Y079236D02*
Y079354D01*
X047955Y080494D02*
X048073D01*
X048014Y080435D02*
Y080553D01*
X047955Y077496D02*
X048073D01*
X048014Y077437D02*
Y077555D01*
X047955Y078695D02*
X048073D01*
X048014Y078636D02*
Y078754D01*
X047955Y079895D02*
X048073D01*
X048014Y079836D02*
Y079954D01*
X043062Y081567D02*
X04318D01*
X043121Y081508D02*
Y081626D01*
X044861Y081567D02*
X044979D01*
X04492Y081508D02*
Y081626D01*
X042462Y081567D02*
X04258D01*
X042521Y081508D02*
Y081626D01*
X044261Y081567D02*
X044379D01*
X04432Y081508D02*
Y081626D01*
X045461Y081567D02*
X045579D01*
X04552Y081508D02*
Y081626D01*
X04606Y081567D02*
X046178D01*
X046119Y081508D02*
Y081626D01*
X04666Y081567D02*
X046778D01*
X046719Y081508D02*
Y081626D01*
X047259Y081567D02*
X047378D01*
X047319Y081508D02*
Y081626D01*
X043662Y081567D02*
X04378D01*
X043721Y081508D02*
Y081626D01*
X041863Y081567D02*
X041981D01*
X041922Y081508D02*
Y081626D01*
X045435Y08988D02*
X045553D01*
X045494Y089821D02*
Y089939D01*
X045435Y095876D02*
X045553D01*
X045494Y095817D02*
Y095935D01*
X045435Y094077D02*
X045553D01*
X045494Y094018D02*
Y094136D01*
X045435Y090479D02*
X045553D01*
X045494Y09042D02*
Y090539D01*
X045435Y091079D02*
X045553D01*
X045494Y09102D02*
Y091138D01*
X045435Y091679D02*
X045553D01*
X045494Y09162D02*
Y091738D01*
X045435Y092278D02*
X045553D01*
X045494Y092219D02*
Y092338D01*
X045435Y093478D02*
X045553D01*
X045494Y093419D02*
Y093537D01*
X045435Y095277D02*
X045553D01*
X045494Y095218D02*
Y095336D01*
X045435Y097076D02*
X045553D01*
X045494Y097017D02*
Y097135D01*
X045435Y092878D02*
X045553D01*
X045494Y092819D02*
Y092937D01*
X045435Y094677D02*
X045553D01*
X045494Y094618D02*
Y094736D01*
X045435Y096476D02*
X045553D01*
X045494Y096417D02*
Y096535D01*
X046078Y08416D02*
X046196D01*
X046137Y084101D02*
Y084219D01*
X045768Y08416D02*
X045886D01*
X045827Y084101D02*
Y084219D01*
X043647Y083514D02*
X043765D01*
X043706Y083455D02*
Y083573D01*
X048035Y08567D02*
X048154D01*
X048094Y085611D02*
Y08573D01*
X048035Y085272D02*
X048154D01*
X048094Y085213D02*
Y085331D01*
X056701Y074282D02*
X056819D01*
X05676Y074223D02*
Y074342D01*
X057487Y070666D02*
X057605D01*
X057546Y070607D02*
Y070725D01*
X055276Y068871D02*
X055394D01*
X055335Y068812D02*
Y06893D01*
X058431Y068157D02*
X058549D01*
X05849Y068098D02*
Y068217D01*
X053115Y075606D02*
X053233D01*
X053174Y075547D02*
Y075665D01*
X051102Y07689D02*
X05122D01*
X051161Y076831D02*
Y076949D01*
X050139Y075895D02*
X050257D01*
X050198Y075836D02*
Y075954D01*
X048014Y0849D02*
X048132D01*
X048073Y084841D02*
Y084959D01*
X047725Y084878D02*
X047843D01*
X047784Y084819D02*
Y084937D01*
X047725Y085272D02*
X047843D01*
X047784Y085213D02*
Y085331D01*
X047725Y085665D02*
X047843D01*
X047784Y085606D02*
Y085724D01*
X059972Y068178D02*
X060091D01*
X060032Y068119D02*
Y068237D01*
X059972Y068448D02*
X060091D01*
X060032Y068389D02*
Y068507D01*
X06028Y068448D02*
X060398D01*
X060339Y068389D02*
Y068507D01*
X06028Y068178D02*
X060398D01*
X060339Y068119D02*
Y068237D01*
X06028Y067908D02*
X060398D01*
X060339Y067849D02*
Y067968D01*
X059665Y068448D02*
X059783D01*
X059724Y068389D02*
Y068507D01*
X059665Y068178D02*
X059783D01*
X059724Y068119D02*
Y068237D01*
X059972Y067908D02*
X060091D01*
X060032Y067849D02*
Y067968D01*
X059665Y067908D02*
X059783D01*
X059724Y067849D02*
Y067968D01*
X047369Y075074D02*
X047487D01*
X047428Y075015D02*
Y075133D01*
X045381Y075079D02*
X045499D01*
X04544Y07502D02*
Y075138D01*
M02*
