G04*
G04 #@! TF.GenerationSoftware,Altium Limited,Altium Designer,21.3.2 (30)*
G04*
G04 Layer_Color=32768*
%FSTAX24Y24*%
%MOIN*%
G70*
G04*
G04 #@! TF.SameCoordinates,A3F46B7C-A478-48B6-9C65-4A08B567271E*
G04*
G04*
G04 #@! TF.FilePolarity,Positive*
G04*
G01*
G75*
%ADD10C,0.0039*%
%ADD16C,0.0100*%
%ADD76C,0.0020*%
D10*
X033856Y020496D02*
X03423D01*
X034043Y020309D02*
Y020683D01*
X034553Y020246D02*
Y020746D01*
X033533Y020246D02*
Y020746D01*
Y020246D02*
X034553D01*
X033533Y020746D02*
X034553D01*
X021094Y014902D02*
X021487D01*
X021291Y014705D02*
Y015098D01*
X023151Y013682D02*
X023191D01*
Y016112D01*
X019391D02*
X023191D01*
X019391Y013682D02*
Y016112D01*
Y013682D02*
X023151D01*
X022436Y027144D02*
Y027518D01*
X022249Y027331D02*
X022623D01*
X022186Y026821D02*
X022686D01*
X022186Y027841D02*
X022686D01*
X022186Y026821D02*
Y027841D01*
X022686Y026821D02*
Y027841D01*
X022999Y027144D02*
Y027518D01*
X022812Y027331D02*
X023186D01*
X022749Y027841D02*
X023249D01*
X022749Y026821D02*
X023249D01*
Y027841D01*
X022749Y026821D02*
Y027841D01*
X023306Y026555D02*
Y027933D01*
X024842Y026555D02*
Y027933D01*
X023306D02*
X024842D01*
X023306Y026555D02*
X024842D01*
X023877Y027244D02*
X024271D01*
X024074Y027047D02*
Y027441D01*
X025249Y027244D02*
X025623D01*
X025436Y027057D02*
Y027431D01*
X024926Y026994D02*
Y027494D01*
X025946Y026994D02*
Y027494D01*
X024926D02*
X025946D01*
X024926Y026994D02*
X025946D01*
X02592Y028193D02*
Y029571D01*
X024385Y028193D02*
Y029571D01*
Y028193D02*
X02592D01*
X024385Y029571D02*
X02592D01*
X024956Y028882D02*
X02535D01*
X025153Y028685D02*
Y029079D01*
X024046Y028593D02*
Y028967D01*
X023859Y02878D02*
X024233D01*
X023796Y02827D02*
X024296D01*
X023796Y02929D02*
X024296D01*
X023796Y02827D02*
Y02929D01*
X024296Y02827D02*
Y02929D01*
X02372Y028193D02*
Y029571D01*
X022184Y028193D02*
Y029571D01*
Y028193D02*
X02372D01*
X022184Y029571D02*
X02372D01*
X022755Y028882D02*
X023149D01*
X022952Y028685D02*
Y029079D01*
X038013Y018663D02*
X038387D01*
X0382Y018476D02*
Y01885D01*
X03769Y018413D02*
Y018913D01*
X03871Y018413D02*
Y018913D01*
X03769D02*
X03871D01*
X03769Y018413D02*
X03871D01*
X038013Y019232D02*
X038387D01*
X0382Y019045D02*
Y019419D01*
X03769Y018982D02*
Y019482D01*
X03871Y018982D02*
Y019482D01*
X03769D02*
X03871D01*
X03769Y018982D02*
X03871D01*
X038013Y019801D02*
X038387D01*
X0382Y019614D02*
Y019988D01*
X03769Y019551D02*
Y020051D01*
X03871Y019551D02*
Y020051D01*
X03769D02*
X03871D01*
X03769Y019551D02*
X03871D01*
X038013Y02037D02*
X038387D01*
X0382Y020183D02*
Y020557D01*
X03769Y02012D02*
Y02062D01*
X03871Y02012D02*
Y02062D01*
X03769D02*
X03871D01*
X03769Y02012D02*
X03871D01*
X037822Y023178D02*
X038196D01*
X038009Y022991D02*
Y023365D01*
X037499Y022928D02*
Y023428D01*
X038519Y022928D02*
Y023428D01*
X037499D02*
X038519D01*
X037499Y022928D02*
X038519D01*
X037822Y023745D02*
X038196D01*
X038009Y023558D02*
Y023932D01*
X037499Y023495D02*
Y023995D01*
X038519Y023495D02*
Y023995D01*
X037499D02*
X038519D01*
X037499Y023495D02*
X038519D01*
X021314Y028566D02*
X022039D01*
X021314Y026812D02*
Y028566D01*
X021316Y026812D02*
X022039D01*
Y026812D02*
Y028566D01*
X021476Y027689D02*
X021876D01*
X021676Y027489D02*
Y027889D01*
X020544Y027039D02*
X020919D01*
X020731Y026852D02*
Y027226D01*
X021242Y026789D02*
Y027289D01*
X020222Y026789D02*
Y027289D01*
Y026789D02*
X021242D01*
X020222Y027289D02*
X021242D01*
X034249Y023957D02*
X034623D01*
X034436Y02377D02*
Y024144D01*
X034946Y023707D02*
Y024207D01*
X033926Y023707D02*
Y024207D01*
Y023707D02*
X034946D01*
X033926Y024207D02*
X034946D01*
X034249Y024583D02*
X034623D01*
X034436Y024396D02*
Y02477D01*
X034946Y024333D02*
Y024833D01*
X033926Y024333D02*
Y024833D01*
Y024333D02*
X034946D01*
X033926Y024833D02*
X034946D01*
X020544Y027803D02*
X020919D01*
X020731Y027616D02*
Y02799D01*
X020221Y027553D02*
Y028053D01*
X021241Y027553D02*
Y028053D01*
X020221D02*
X021241D01*
X020221Y027553D02*
X021241D01*
X020456Y028431D02*
Y028805D01*
X020269Y028618D02*
X020643D01*
X020206Y029128D02*
X020706D01*
X020206Y028108D02*
X020706D01*
Y029128D01*
X020206Y028108D02*
Y029128D01*
X021007Y028431D02*
Y028805D01*
X02082Y028618D02*
X021194D01*
X020757Y028108D02*
X021257D01*
X020757Y029128D02*
X021257D01*
X020757Y028108D02*
Y029128D01*
X021257Y028108D02*
Y029128D01*
X017527Y024138D02*
Y024374D01*
X017409Y024256D02*
X017645D01*
X017527Y025445D02*
Y025681D01*
X017409Y025563D02*
X017645D01*
X017527Y026752D02*
Y026988D01*
X017409Y02687D02*
X017645D01*
X017527Y028059D02*
Y028295D01*
X017409Y028177D02*
X017645D01*
X035351Y020746D02*
X036371D01*
X035351Y020246D02*
X036371D01*
X035351D02*
Y020746D01*
X036371Y020246D02*
Y020746D01*
X035861Y020309D02*
Y020683D01*
X035674Y020496D02*
X036048D01*
X03751Y022371D02*
X03853D01*
X03751Y022871D02*
X03853D01*
Y022371D02*
Y022871D01*
X03751Y022371D02*
Y022871D01*
X03802Y022434D02*
Y022808D01*
X037833Y022621D02*
X038207D01*
X037499Y021685D02*
X038519D01*
X037499Y022185D02*
X038519D01*
Y021685D02*
Y022185D01*
X037499Y021685D02*
Y022185D01*
X038009Y021748D02*
Y022122D01*
X037822Y021935D02*
X038196D01*
X037499Y020917D02*
X038519D01*
X037499Y021417D02*
X038519D01*
Y020917D02*
Y021417D01*
X037499Y020917D02*
Y021417D01*
X038009Y02098D02*
Y021354D01*
X037822Y021167D02*
X038196D01*
X037689Y017777D02*
X038709D01*
X037689Y018277D02*
X038709D01*
Y017777D02*
Y018277D01*
X037689Y017777D02*
Y018277D01*
X038199Y01784D02*
Y018214D01*
X038012Y018027D02*
X038386D01*
X038194Y016703D02*
Y017723D01*
X037694Y016703D02*
Y017723D01*
X038194D01*
X037694Y016703D02*
X038194D01*
X037757Y017213D02*
X038131D01*
X037944Y017026D02*
Y0174D01*
X036443Y016612D02*
X037463D01*
X036443Y017112D02*
X037463D01*
Y016612D02*
Y017112D01*
X036443Y016612D02*
Y017112D01*
X036953Y016675D02*
Y017049D01*
X036766Y016862D02*
X03714D01*
X02574Y022417D02*
X02676D01*
X02574Y021917D02*
X02676D01*
X02574D02*
Y022417D01*
X02676Y021917D02*
Y022417D01*
X02625Y02198D02*
Y022354D01*
X026063Y022167D02*
X026437D01*
X026517Y017967D02*
X027537D01*
X026517Y017467D02*
X027537D01*
X026517D02*
Y017967D01*
X027537Y017467D02*
Y017967D01*
X027027Y01753D02*
Y017904D01*
X02684Y017717D02*
X027214D01*
X025725Y020081D02*
X026745D01*
X025725Y020581D02*
X026745D01*
Y020081D02*
Y020581D01*
X025725Y020081D02*
Y020581D01*
X026235Y020144D02*
Y020518D01*
X026048Y020331D02*
X026422D01*
X03084Y017909D02*
X031214D01*
X031027Y017722D02*
Y018096D01*
X031537Y017659D02*
Y018159D01*
X030517Y017659D02*
Y018159D01*
Y017659D02*
X031537D01*
X030517Y018159D02*
X031537D01*
X031893Y021844D02*
Y022218D01*
X031706Y022032D02*
X03208D01*
X031643Y022541D02*
X032143D01*
X031643Y021521D02*
X032143D01*
Y022541D01*
X031643Y021521D02*
Y022541D01*
X031332Y021833D02*
Y022207D01*
X031145Y02202D02*
X031519D01*
X031082Y02151D02*
X031582D01*
X031082Y02253D02*
X031582D01*
X031082Y02151D02*
Y02253D01*
X031582Y02151D02*
Y02253D01*
X025967Y021167D02*
Y021541D01*
X02578Y021354D02*
X026154D01*
X025717Y021864D02*
X026217D01*
X025717Y020844D02*
X026217D01*
Y021864D01*
X025717Y020844D02*
Y021864D01*
X026511Y021167D02*
Y021541D01*
X026324Y021354D02*
X026698D01*
X026261Y020844D02*
X026761D01*
X026261Y021864D02*
X026761D01*
X026261Y020844D02*
Y021864D01*
X026761Y020844D02*
Y021864D01*
X027137Y022189D02*
X030995D01*
X027137Y018331D02*
X030995D01*
Y022189D01*
X027137Y018331D02*
Y022189D01*
X029066Y020063D02*
Y020457D01*
X028869Y02026D02*
X029263D01*
X026661Y013289D02*
Y013663D01*
X026474Y013476D02*
X026848D01*
X026411Y013986D02*
X026911D01*
X026411Y012966D02*
X026911D01*
Y013986D01*
X026411Y012966D02*
Y013986D01*
X017409Y016413D02*
X017645D01*
X017527Y016295D02*
Y016531D01*
X017409Y01772D02*
X017645D01*
X017527Y017602D02*
Y017839D01*
X017409Y015106D02*
X017645D01*
X017527Y014988D02*
Y015224D01*
X017377Y012453D02*
X017613D01*
X017495Y012335D02*
Y012571D01*
X017377Y01376D02*
X017613D01*
X017495Y013642D02*
Y013878D01*
X017409Y018831D02*
X017645D01*
X017527Y018713D02*
Y018949D01*
X017409Y020335D02*
X017645D01*
X017527Y020217D02*
Y020453D01*
X017409Y021642D02*
X017645D01*
X017527Y021524D02*
Y02176D01*
X017409Y022949D02*
X017645D01*
X017527Y022831D02*
Y023067D01*
X0355Y021866D02*
Y02226D01*
X035303Y022063D02*
X035697D01*
X033984Y023214D02*
X037026D01*
X033984Y020951D02*
X037026D01*
X033984D02*
Y023214D01*
X037026Y020951D02*
Y023214D01*
X024495Y016864D02*
Y017238D01*
X024308Y017051D02*
X024682D01*
X024245Y016541D02*
X024745D01*
X024245Y017561D02*
X024745D01*
X024245Y016541D02*
Y017561D01*
X024745Y016541D02*
Y017561D01*
X024495Y018218D02*
Y018593D01*
X024308Y018406D02*
X024682D01*
X024245Y018916D02*
X024745D01*
X024245Y017896D02*
X024745D01*
Y018916D01*
X024245Y017896D02*
Y018916D01*
X024497Y02201D02*
Y022384D01*
X02431Y022197D02*
X024684D01*
X024247Y022707D02*
X024747D01*
X024247Y021687D02*
X024747D01*
Y022707D01*
X024247Y021687D02*
Y022707D01*
X024495Y020604D02*
Y020978D01*
X024308Y020791D02*
X024682D01*
X024245Y020281D02*
X024745D01*
X024245Y021301D02*
X024745D01*
X024245Y020281D02*
Y021301D01*
X024745Y020281D02*
Y021301D01*
X020134Y016257D02*
X020858D01*
Y016257D02*
Y018011D01*
X020134Y018011D02*
X020856D01*
X020134Y016257D02*
Y018011D01*
X020296Y017134D02*
X020696D01*
X020496Y016934D02*
Y017334D01*
X020499Y018553D02*
Y018927D01*
X020312Y01874D02*
X020686D01*
X020249Y01925D02*
X020749D01*
X020249Y01823D02*
X020749D01*
Y01925D01*
X020249Y01823D02*
Y01925D01*
X020135Y019977D02*
X020859D01*
Y019977D02*
Y021731D01*
X020135Y021731D02*
X020857D01*
X020135Y019977D02*
Y021731D01*
X020297Y020854D02*
X020697D01*
X020497Y020654D02*
Y021054D01*
X020501Y022348D02*
Y022722D01*
X020314Y022535D02*
X020688D01*
X020251Y023045D02*
X020751D01*
X020251Y022025D02*
X020751D01*
Y023045D01*
X020251Y022025D02*
Y023045D01*
X021692Y023467D02*
Y023841D01*
X021505Y023654D02*
X021879D01*
X021442Y024164D02*
X021942D01*
X021442Y023144D02*
X021942D01*
Y024164D01*
X021442Y023144D02*
Y024164D01*
X021086Y023455D02*
Y023829D01*
X020899Y023642D02*
X021273D01*
X020836Y024152D02*
X021336D01*
X020836Y023132D02*
X021336D01*
Y024152D01*
X020836Y023132D02*
Y024152D01*
X020499Y023443D02*
Y023817D01*
X020312Y02363D02*
X020686D01*
X020249Y02312D02*
X020749D01*
X020249Y02414D02*
X020749D01*
X020249Y02312D02*
Y02414D01*
X020749Y02312D02*
Y02414D01*
X019023Y011859D02*
X019747D01*
Y011859D02*
Y013613D01*
X019023Y013613D02*
X019745D01*
X019023Y011859D02*
Y013613D01*
X019185Y012736D02*
X019585D01*
X019385Y012536D02*
Y012936D01*
X024444Y014274D02*
Y014648D01*
X024257Y014461D02*
X024631D01*
X024194Y013951D02*
X024694D01*
X024194Y014971D02*
X024694D01*
X024194Y013951D02*
Y014971D01*
X024694Y013951D02*
Y014971D01*
X023787Y014274D02*
Y014648D01*
X0236Y014461D02*
X023974D01*
X023537Y013951D02*
X024037D01*
X023537Y014971D02*
X024037D01*
X023537Y013951D02*
Y014971D01*
X024037Y013951D02*
Y014971D01*
X024145Y011622D02*
Y012016D01*
X023948Y011819D02*
X024342D01*
X024735Y010969D02*
Y012669D01*
X023555Y010969D02*
Y012669D01*
X024735D01*
X023555Y010969D02*
X024735D01*
X025424Y011825D02*
Y012199D01*
X025237Y012012D02*
X025611D01*
X025174Y011502D02*
X025674D01*
X025174Y012522D02*
X025674D01*
X025174Y011502D02*
Y012522D01*
X025674Y011502D02*
Y012522D01*
X026298Y011028D02*
X027023D01*
Y011028D02*
Y012783D01*
X026298Y012783D02*
X027021D01*
X026298Y011028D02*
Y012783D01*
X026461Y011906D02*
X026861D01*
X026661Y011706D02*
Y012106D01*
X024864Y01436D02*
X026163D01*
X024864Y012982D02*
X026163D01*
Y01436D01*
X024864Y012982D02*
Y01436D01*
X025513Y013474D02*
Y013867D01*
X025316Y013671D02*
X02571D01*
X033621Y012459D02*
Y012833D01*
X033434Y012646D02*
X033808D01*
X033371Y012136D02*
X033871D01*
X033371Y013156D02*
X033871D01*
X033371Y012136D02*
Y013156D01*
X033871Y012136D02*
Y013156D01*
X032822Y012459D02*
Y012833D01*
X032635Y012646D02*
X033009D01*
X032572Y012136D02*
X033072D01*
X032572Y013156D02*
X033072D01*
X032572Y012136D02*
Y013156D01*
X033072Y012136D02*
Y013156D01*
X032023Y012459D02*
Y012833D01*
X031836Y012646D02*
X03221D01*
X031773Y012136D02*
X032273D01*
X031773Y013156D02*
X032273D01*
X031773Y012136D02*
Y013156D01*
X032273Y012136D02*
Y013156D01*
X0347Y013988D02*
Y014382D01*
X034503Y014185D02*
X034897D01*
X035499Y018209D02*
Y018602D01*
X035302Y018406D02*
X035696D01*
X033983Y019557D02*
X037025D01*
X033983Y017293D02*
X037025D01*
X033983D02*
Y019557D01*
X037025Y017293D02*
Y019557D01*
X033267Y025703D02*
Y026077D01*
X03308Y02589D02*
X033454D01*
X033017Y02538D02*
X033517D01*
X033017Y0264D02*
X033517D01*
X033017Y02538D02*
Y0264D01*
X033517Y02538D02*
Y0264D01*
X030885Y025703D02*
Y026077D01*
X030698Y02589D02*
X031072D01*
X030635Y02538D02*
X031135D01*
X030635Y0264D02*
X031135D01*
X030635Y02538D02*
Y0264D01*
X031135Y02538D02*
Y0264D01*
X027735Y025703D02*
Y026077D01*
X027548Y02589D02*
X027922D01*
X027485Y02538D02*
X027985D01*
X027485Y0264D02*
X027985D01*
X027485Y02538D02*
Y0264D01*
X027985Y02538D02*
Y0264D01*
X025373Y025703D02*
Y026077D01*
X025186Y02589D02*
X02556D01*
X025123Y02538D02*
X025623D01*
X025123Y0264D02*
X025623D01*
X025123Y02538D02*
Y0264D01*
X025623Y02538D02*
Y0264D01*
X021838Y025703D02*
Y026077D01*
X021651Y02589D02*
X022025D01*
X021588Y02538D02*
X022088D01*
X021588Y0264D02*
X022088D01*
X021588Y02538D02*
Y0264D01*
X022088Y02538D02*
Y0264D01*
X042144Y016031D02*
X04238D01*
X042262Y015913D02*
Y01615D01*
X042144Y020343D02*
X04238D01*
X042262Y020224D02*
Y020461D01*
X042144Y024654D02*
X04238D01*
X042262Y024535D02*
Y024772D01*
X021137Y019951D02*
X022157D01*
X021137Y020451D02*
X022157D01*
Y019951D02*
Y020451D01*
X021137Y019951D02*
Y020451D01*
X021647Y020014D02*
Y020388D01*
X02146Y020201D02*
X021834D01*
X021135Y021131D02*
X022155D01*
X021135Y020631D02*
X022155D01*
X021135D02*
Y021131D01*
X022155Y020631D02*
Y021131D01*
X021645Y020694D02*
Y021068D01*
X021458Y020881D02*
X021832D01*
X021137Y021272D02*
X022157D01*
X021137Y021772D02*
X022157D01*
Y021272D02*
Y021772D01*
X021137Y021272D02*
Y021772D01*
X021647Y021335D02*
Y021709D01*
X02146Y021522D02*
X021834D01*
X021137Y021932D02*
X022157D01*
X021137Y022432D02*
X022157D01*
Y021932D02*
Y022432D01*
X021137Y021932D02*
Y022432D01*
X021647Y021995D02*
Y022369D01*
X02146Y022182D02*
X021834D01*
X021137Y022593D02*
X022157D01*
X021137Y023093D02*
X022157D01*
Y022593D02*
Y023093D01*
X021137Y022593D02*
Y023093D01*
X021647Y022656D02*
Y02303D01*
X02146Y022843D02*
X021834D01*
X021136Y016242D02*
X022156D01*
X021136Y016742D02*
X022156D01*
Y016242D02*
Y016742D01*
X021136Y016242D02*
Y016742D01*
X021646Y016305D02*
Y016679D01*
X021459Y016492D02*
X021833D01*
X021135Y017388D02*
X022155D01*
X021135Y016888D02*
X022155D01*
X021135D02*
Y017388D01*
X022155Y016888D02*
Y017388D01*
X021645Y016951D02*
Y017325D01*
X021458Y017138D02*
X021832D01*
X021135Y017541D02*
X022155D01*
X021135Y018041D02*
X022155D01*
Y017541D02*
Y018041D01*
X021135Y017541D02*
Y018041D01*
X021645Y017604D02*
Y017978D01*
X021458Y017791D02*
X021832D01*
X021135Y018813D02*
X022155D01*
X021135Y019313D02*
X022155D01*
Y018813D02*
Y019313D01*
X021135Y018813D02*
Y019313D01*
X021645Y018876D02*
Y01925D01*
X021458Y019063D02*
X021832D01*
X021135Y018183D02*
X022155D01*
X021135Y018683D02*
X022155D01*
Y018183D02*
Y018683D01*
X021135Y018183D02*
Y018683D01*
X021645Y018246D02*
Y01862D01*
X021458Y018433D02*
X021832D01*
X023231Y016579D02*
Y016972D01*
X023035Y016776D02*
X023428D01*
X022464Y016087D02*
X023999D01*
X022464Y017465D02*
X023999D01*
Y016087D02*
Y017465D01*
X022464Y016087D02*
Y017465D01*
X023231Y018492D02*
Y018886D01*
X023035Y018689D02*
X023428D01*
X022464Y018D02*
X023999D01*
X022464Y019378D02*
X023999D01*
Y018D02*
Y019378D01*
X022464Y018D02*
Y019378D01*
X023231Y020315D02*
Y020709D01*
X023035Y020512D02*
X023428D01*
X022464Y019823D02*
X023999D01*
X022464Y021201D02*
X023999D01*
Y019823D02*
Y021201D01*
X022464Y019823D02*
Y021201D01*
X023233Y022272D02*
Y022665D01*
X023037Y022469D02*
X02343D01*
X022466Y02178D02*
X024001D01*
X022466Y023157D02*
X024001D01*
Y02178D02*
Y023157D01*
X022466Y02178D02*
Y023157D01*
X033532Y017112D02*
X034552D01*
X033532Y016612D02*
X034552D01*
X033532D02*
Y017112D01*
X034552Y016612D02*
Y017112D01*
X034042Y016675D02*
Y017049D01*
X033855Y016862D02*
X034229D01*
X035351Y017112D02*
X036371D01*
X035351Y016612D02*
X036371D01*
X035351D02*
Y017112D01*
X036371Y016612D02*
Y017112D01*
X035861Y016675D02*
Y017049D01*
X035674Y016862D02*
X036048D01*
X034083Y01636D02*
X035103D01*
X034083Y01586D02*
X035103D01*
X034083D02*
Y01636D01*
X035103Y01586D02*
Y01636D01*
X034593Y015923D02*
Y016297D01*
X034406Y01611D02*
X03478D01*
X034084Y015711D02*
X035104D01*
X034084Y015211D02*
X035104D01*
X034084D02*
Y015711D01*
X035104Y015211D02*
Y015711D01*
X034594Y015274D02*
Y015648D01*
X034407Y015461D02*
X034781D01*
X030881Y012295D02*
Y012689D01*
X030684Y012492D02*
X031078D01*
X031481Y011562D02*
Y013442D01*
X030281Y011562D02*
Y013442D01*
X031481D01*
X030281Y011542D02*
X031481D01*
X023555Y01291D02*
X024575D01*
X023555Y01341D02*
X024575D01*
Y01291D02*
Y01341D01*
X023555Y01291D02*
Y01341D01*
X024065Y012973D02*
Y013347D01*
X023878Y01316D02*
X024252D01*
X028606Y012737D02*
Y01313D01*
X028409Y012934D02*
X028802D01*
X027296Y011624D02*
X029916D01*
Y014244D01*
X027296Y011624D02*
Y014244D01*
X029916D01*
X020063Y011634D02*
X023243D01*
X020063D02*
Y013594D01*
X023243D01*
Y011634D02*
Y013594D01*
X021456Y012614D02*
X02185D01*
X021653Y012417D02*
Y012811D01*
D16*
X040262Y014031D02*
Y018032D01*
X040312Y014031D02*
X045419D01*
X040312Y018032D02*
X045419D01*
Y014031D02*
Y018032D01*
X040262Y018343D02*
Y022343D01*
X040312Y018343D02*
X045419D01*
X040312Y022343D02*
X045419D01*
Y018343D02*
Y022343D01*
X040262Y022654D02*
Y026654D01*
X040312Y022654D02*
X045419D01*
X040312Y026654D02*
X045419D01*
Y022654D02*
Y026654D01*
D76*
X03407Y013348D02*
X03535D01*
X03407Y015031D02*
X03535D01*
X03407Y013348D02*
Y015031D01*
X03535Y013348D02*
Y015031D01*
M02*
