G04*
G04 #@! TF.GenerationSoftware,Altium Limited,Altium Designer,19.0.15 (446)*
G04*
G04 Layer_Physical_Order=2*
G04 Layer_Color=16711680*
%FSTAX24Y24*%
%MOIN*%
G70*
G01*
G75*
%ADD46C,0.0100*%
%ADD48O,0.1496X0.0748*%
%ADD49R,0.1496X0.0748*%
%ADD50O,0.1496X0.0748*%
%ADD51C,0.0197*%
G36*
X022347Y015914D02*
X022385Y015889D01*
X02241Y015851D01*
X022418Y015809D01*
X022418Y015807D01*
Y012467D01*
X020787D01*
Y011404D01*
X022418D01*
Y010295D01*
X022418Y010294D01*
X02241Y010251D01*
X022385Y010214D01*
X022349Y01019D01*
X022303Y010181D01*
X022303Y010181D01*
X022254Y010181D01*
X014685D01*
Y011968D01*
X013858D01*
Y010181D01*
X010295D01*
X010295Y010181D01*
X010295Y010181D01*
X010249Y01019D01*
X010214Y010214D01*
X010189Y010251D01*
X01018Y010294D01*
X010181Y010295D01*
Y011233D01*
X011811D01*
Y012296D01*
X010181D01*
Y013677D01*
X010225Y013699D01*
X010263Y01367D01*
X010393Y013616D01*
X010532Y013598D01*
X01128D01*
X011418Y013616D01*
X011548Y01367D01*
X011659Y013755D01*
X011744Y013866D01*
X011797Y013995D01*
X011816Y014134D01*
X011797Y014273D01*
X011744Y014402D01*
X011659Y014513D01*
X011548Y014598D01*
X011418Y014652D01*
X01128Y01467D01*
X010532D01*
X010393Y014652D01*
X010263Y014598D01*
X010225Y014569D01*
X010181Y014591D01*
Y015807D01*
X01018Y015809D01*
X010189Y015851D01*
X010214Y015889D01*
X010251Y015914D01*
X010294Y015922D01*
X010295Y015922D01*
X022303D01*
X022305Y015922D01*
X022347Y015914D01*
D02*
G37*
%LPC*%
G36*
X014449Y01514D02*
X014382Y015131D01*
X01432Y015105D01*
X014266Y015064D01*
X014225Y015011D01*
X0142Y014949D01*
X014191Y014882D01*
X0142Y014815D01*
X014225Y014753D01*
X014266Y014699D01*
X01432Y014658D01*
X014382Y014633D01*
X014449Y014624D01*
X014516Y014633D01*
X014578Y014658D01*
X014593Y01467D01*
X018771D01*
X018804Y014637D01*
Y014292D01*
X018792Y014277D01*
X018766Y014214D01*
X018758Y014148D01*
X018766Y014081D01*
X018792Y014019D01*
X018833Y013965D01*
X018887Y013924D01*
X018949Y013898D01*
X019016Y01389D01*
X019083Y013898D01*
X019145Y013924D01*
X019198Y013965D01*
X019239Y014019D01*
X019265Y014081D01*
X019274Y014148D01*
X019265Y014214D01*
X019239Y014277D01*
X019227Y014292D01*
Y014724D01*
X019211Y014805D01*
X019165Y014874D01*
X019008Y015031D01*
X018939Y015077D01*
X018858Y015093D01*
X014593D01*
X014578Y015105D01*
X014516Y015131D01*
X014449Y01514D01*
D02*
G37*
%LPD*%
D46*
X018858Y014882D02*
X019016Y014724D01*
X014449Y014882D02*
X018858D01*
X019016Y014148D02*
Y014724D01*
D48*
X010906Y014134D02*
D03*
D49*
Y011765D02*
D03*
X021693Y011936D02*
D03*
D50*
X010906Y012946D02*
D03*
X021693Y010755D02*
D03*
D51*
X022Y0155D02*
D03*
X02225Y015D02*
D03*
X022Y0145D02*
D03*
X02175Y015D02*
D03*
X0215Y0145D02*
D03*
X021D02*
D03*
X0205Y0155D02*
D03*
Y0145D02*
D03*
X02075Y011D02*
D03*
X02Y0155D02*
D03*
X02025Y015D02*
D03*
X0195Y0145D02*
D03*
X019Y0135D02*
D03*
X0175Y0105D02*
D03*
X01725Y013D02*
D03*
Y011D02*
D03*
X01675Y013D02*
D03*
X0165Y0115D02*
D03*
X01675Y011D02*
D03*
X0165Y0105D02*
D03*
X01625Y012D02*
D03*
Y011D02*
D03*
X0155Y0155D02*
D03*
X0145Y0125D02*
D03*
X0135D02*
D03*
X01225Y015D02*
D03*
Y012D02*
D03*
X012Y0115D02*
D03*
X0115Y0135D02*
D03*
X0105D02*
D03*
X020748Y010344D02*
D03*
X0135Y012769D02*
D03*
X0145Y0121D02*
D03*
Y013262D02*
D03*
Y012874D02*
D03*
X015157Y015787D02*
D03*
X014555D02*
D03*
X013952D02*
D03*
X013349D02*
D03*
X012746D02*
D03*
X014449Y014882D02*
D03*
X019016Y014148D02*
D03*
X016915Y014194D02*
D03*
Y013898D02*
D03*
Y013601D02*
D03*
X017175D02*
D03*
X017165Y013898D02*
D03*
X017155Y014194D02*
D03*
X017405D02*
D03*
X017415Y013898D02*
D03*
Y013601D02*
D03*
M02*
