G04*
G04 #@! TF.GenerationSoftware,Altium Limited,Altium Designer,19.0.15 (446)*
G04*
G04 Layer_Color=32768*
%FSTAX24Y24*%
%MOIN*%
G70*
G01*
G75*
%ADD11C,0.0039*%
D11*
X014449Y013829D02*
Y014203D01*
X014262Y014016D02*
X014636D01*
X014199Y014526D02*
X014699D01*
X014199Y013506D02*
X014699D01*
Y014526D01*
X014199Y013506D02*
Y014526D01*
X011516Y014626D02*
Y016004D01*
X013051Y014626D02*
Y016004D01*
X011516D02*
X013051D01*
X011516Y014626D02*
X013051D01*
X012087Y015315D02*
X01248D01*
X012283Y015118D02*
Y015512D01*
X010591Y015246D02*
Y01562D01*
X010404Y015433D02*
X010778D01*
X010341Y014923D02*
X010841D01*
X010341Y015943D02*
X010841D01*
X010341Y014923D02*
Y015943D01*
X010841Y014923D02*
Y015943D01*
X011181Y015246D02*
Y01562D01*
X010994Y015433D02*
X011368D01*
X010931Y014923D02*
X011431D01*
X010931Y015943D02*
X011431D01*
X010931Y014923D02*
Y015943D01*
X011431Y014923D02*
Y015943D01*
X013474Y015276D02*
X013848D01*
X013661Y015089D02*
Y015463D01*
X014171Y015026D02*
Y015526D01*
X013151Y015026D02*
Y015526D01*
Y015026D02*
X014171D01*
X013151Y015526D02*
X014171D01*
X014537Y015276D02*
X014911D01*
X014724Y015089D02*
Y015463D01*
X015234Y015026D02*
Y015526D01*
X014214Y015026D02*
Y015526D01*
Y015026D02*
X015234D01*
X014214Y015526D02*
X015234D01*
X012697Y013406D02*
X014075D01*
X012697Y014941D02*
X014075D01*
X012697Y013406D02*
Y014941D01*
X014075Y013406D02*
Y014941D01*
X013386Y013976D02*
Y01437D01*
X013189Y014173D02*
X013583D01*
X01249Y013071D02*
X012864D01*
X012677Y012884D02*
Y013258D01*
X012167Y012821D02*
Y013321D01*
X013187Y012821D02*
Y013321D01*
X012167D02*
X013187D01*
X012167Y012821D02*
X013187D01*
X01249Y01248D02*
X012864D01*
X012677Y012293D02*
Y012667D01*
X012167Y01223D02*
Y01273D01*
X013187Y01223D02*
Y01273D01*
X012167D02*
X013187D01*
X012167Y01223D02*
X013187D01*
X012639Y011239D02*
Y011249D01*
X010039D02*
X012639D01*
X010039Y011239D02*
Y011249D01*
Y010089D02*
Y011239D01*
X012639Y010089D02*
Y011239D01*
X010039Y010089D02*
X012639D01*
X011339Y010472D02*
Y010866D01*
X011142Y010669D02*
X011535D01*
X014789Y013506D02*
Y014526D01*
X015289Y013506D02*
Y014526D01*
X014789Y013506D02*
X015289D01*
X014789Y014526D02*
X015289D01*
X014852Y014016D02*
X015226D01*
X015039Y013829D02*
Y014203D01*
X012152Y013506D02*
Y014526D01*
X012652Y013506D02*
Y014526D01*
X012152Y013506D02*
X012652D01*
X012152Y014526D02*
X012652D01*
X012215Y014016D02*
X012589D01*
X012402Y013829D02*
Y014203D01*
X010906Y014016D02*
Y014252D01*
X010787Y014134D02*
X011024D01*
X019199Y012876D02*
Y013896D01*
X019699Y012876D02*
Y013896D01*
X019199Y012876D02*
X019699Y012876D01*
X019199Y013896D02*
X019699Y013896D01*
X019262Y013386D02*
X019636Y013386D01*
X019449Y013199D02*
Y013573D01*
X016183Y012691D02*
X017203D01*
X016183Y012191D02*
X017203D01*
X016183D02*
Y012691D01*
X017203Y012191D02*
Y012691D01*
X016693Y012254D02*
Y012628D01*
X016506Y012441D02*
X01688D01*
X016772Y015364D02*
Y015738D01*
X016585Y015551D02*
X016959D01*
X016522Y016061D02*
X017022D01*
X016522Y015041D02*
X017022D01*
Y016061D01*
X016522Y015041D02*
Y016061D01*
X016024Y015364D02*
Y015738D01*
X015837Y015551D02*
X016211D01*
X015774Y016061D02*
X016274D01*
X015774Y015041D02*
X016274D01*
Y016061D01*
X015774Y015041D02*
Y016061D01*
X017824Y012727D02*
X020444D01*
X017824Y010107D02*
Y012727D01*
X020444Y010107D02*
Y012727D01*
X017824Y010107D02*
X020444D01*
X018937Y011417D02*
X019331D01*
X019134Y01122D02*
Y011614D01*
X017165Y013701D02*
Y014094D01*
X016968Y013898D02*
X017362D01*
X015532Y012815D02*
X018799D01*
X015532Y01498D02*
X018799D01*
Y012815D02*
Y01498D01*
X015532Y012815D02*
Y01498D01*
X017325Y015577D02*
X018345D01*
X017325Y016077D02*
X018345D01*
Y015577D02*
Y016077D01*
X017325Y015577D02*
Y016077D01*
X017835Y01564D02*
Y016014D01*
X017648Y015827D02*
X018022D01*
X017648Y015276D02*
X018022D01*
X017835Y015089D02*
Y015463D01*
X017325Y015026D02*
Y015526D01*
X018345Y015026D02*
Y015526D01*
X017325D02*
X018345D01*
X017325Y015026D02*
X018345D01*
X014331Y012677D02*
X014724D01*
X014528Y01248D02*
Y012874D01*
X013678Y012087D02*
X015378D01*
X013678Y013267D02*
X015378D01*
Y012087D02*
Y013267D01*
X013678Y012087D02*
Y013267D01*
X016724Y010265D02*
X017449D01*
Y010265D02*
Y012019D01*
X016724Y012019D02*
X017447D01*
X016724Y010265D02*
Y012019D01*
X016887Y011142D02*
X017287D01*
X017087Y010942D02*
Y011342D01*
X014252Y010866D02*
Y01126D01*
X014055Y011063D02*
X014449D01*
X015842Y010083D02*
Y012043D01*
X012662D02*
X015842D01*
X012662Y010083D02*
Y012043D01*
Y010083D02*
X015842D01*
M02*
